<?xml version="1.0" encoding="UTF-8"?>
<svg viewBox="0 0 100 100" xmlns="http://www.w3.org/2000/svg">
    <g>
        <path
            d="m50 100c-27.57 0-50-22.43-50-50s22.43-50 50-50 50 22.43 50 50-22.43 50-50 50zm0-98c-26.47 0-48 21.53-48 48s21.53 48 48 48 48-21.53 48-48-21.53-48-48-48z"
            fill="#000"/>
        <path
            d="m81 33.1328c0-6.1385-4.9943-11.1328-11.1328-11.1328h-37.7344c-6.1385 0-11.1328 4.9943-11.1328 11.1328v.5756l9.5178 12.9666c-.1238.0933-.265.1609-.4153.1988-2.9648.7449-5.3012 2.9725-6.2197 5.8293h-2.8828v29.2969h60v-29.2969h-2.8836c-.973-3.0154-3.5284-5.2899-6.6299-5.9179l9.5135-13.0807zm-48.8672-7.6172h37.7344c3.5955 0 6.6145 2.5046 7.4103 5.8594h-52.5553c.7961-3.3553 3.8151-5.8594 7.4106-5.8594zm15.9375 30.7032h5.8594v7.0312h-5.8594zm26.2119-3.5157h-46.5678c.3546-.5973.8238-1.1185 1.3807-1.5337.5568-.4152 1.1903-.7161 1.864-.8855 1.583-.3977 2.8663-1.6182 3.3497-3.1845.82-2.658 2.4928-4.0056 4.9724-4.0056 1.0288 0 2.0249.2962 2.8803.8565 1.604 1.0496 3.7705.8294 5.1515-.5233.9913-.9705 2.3004-1.5051 3.687-1.5051 1.7065 0 3.3157.8331 4.3044 2.2287 1.0393 1.4667 2.9092 2.0823 4.6513 1.5315.5146-.1628 1.0513-.2453 1.5912-.2446 1.8581 0 3.5998.9965 4.545 2.6001.7595 1.2884 2.1534 2.0878 3.6376 2.0874h.0205c1.904 0 3.6042 1.0257 4.5322 2.5781z"
            fill="#ff2d20"/>
        <path
            d="m81 33.1328c0-6.1385-4.9943-11.1328-11.1328-11.1328h-37.7344c-6.1385 0-11.1328 4.9943-11.1328 11.1328v.5756l9.5178 12.9666c-.1238.0933-.265.1609-.4153.1988-2.9648.7449-5.3012 2.9725-6.2197 5.8293h-2.8828v29.2969h60v-29.2969h-2.8836c-.973-3.0154-3.5284-5.2899-6.6299-5.9179l9.5135-13.0807zm-48.8672-7.6172h37.7344c3.5955 0 6.6145 2.5046 7.4103 5.8594h-52.5553c.7961-3.3553 3.8151-5.8594 7.4106-5.8594zm15.9375 30.7032h5.8594v7.0312h-5.8594zm26.2119-3.5157h-46.5678c.3546-.5973.8238-1.1185 1.3807-1.5337.5568-.4152 1.1903-.7161 1.864-.8855 1.583-.3977 2.8663-1.6182 3.3497-3.1845.82-2.658 2.4928-4.0056 4.9724-4.0056 1.0288 0 2.0249.2962 2.8803.8565 1.604 1.0496 3.7705.8294 5.1515-.5233.9913-.9705 2.3004-1.5051 3.687-1.5051 1.7065 0 3.3157.8331 4.3044 2.2287 1.0393 1.4667 2.9092 2.0823 4.6513 1.5315.5146-.1628 1.0513-.2453 1.5912-.2446 1.8581 0 3.5998.9965 4.545 2.6001.7595 1.2884 2.1534 2.0878 3.6376 2.0874h.0205c1.904 0 3.6042 1.0257 4.5322 2.5781z"
            fill="#ff2d20"/>
        <path clip-rule="evenodd"
              d="m18 32.7879v-1.2026c0-6.9411 5.6442-12.5853 12.5853-12.5853h35.8786c6.9411 0 12.5853 5.6442 12.5853 12.5853v1.194l-7.8696 10.8203c1.9226 1.0167 3.4985 2.6226 4.4696 4.5935h3.4v31.8561h-61.0492v-31.8561h3.3971c.9705-1.978 2.5531-3.6041 4.5153-4.6258zm11.0497 11.6736c-.0076.0057-.0154.0114-.0231.017-.1121.08-.2381.1383-.3718.172-.5372.1349-1.0528.3211-1.5415.5529-2.0753.9844-3.6654 2.7911-4.3723 4.9897h-2.741v27.8561h57.0492v-27.8561h-2.7418c-.7072-2.1916-2.2936-3.9717-4.3191-4.9555-.6242-.3032-1.29-.5307-1.9847-.6714l9.0456-12.4373v-.5436c0-5.8366-4.7487-10.5853-10.5853-10.5853h-35.8786c-5.8366 0-10.5853 4.7487-10.5853 10.5853v.5473zm5.5156.9933c-.3247 1.052-.9102 1.99-1.6794 2.7383h29.4275c-.452-.4065-.8457-.8838-1.162-1.4204-.54-.9161-1.5417-1.4879-2.5986-1.4879h-.0028c-.3077-.0004-.6136.0466-.9069.1394-2.4664.7798-5.1554-.0867-6.6576-2.2067-.5662-.7991-1.4886-1.2754-2.4609-1.2754-.7945 0-1.537.3029-2.1062.8599m21.5155 7.3911h-41.5497c.3371-.5679.7833-1.0635 1.3127-1.4583.2858-.213.5928-.3945.9156-.5417.2753-.1255.562-.2261.8568-.3002 1.5052-.3781 2.7253-1.5386 3.1849-3.0279.7797-2.5273 2.3702-3.8086 4.728-3.8086.9781 0 1.9252.2816 2.7386.8144 1.5251.9979 3.585.7886 4.8981-.4976m1.3995 1.4288c-1.9756 1.9348-5.0721 2.2608-7.3927.7424-.4857-.3181-1.0523-.488-1.6435-.488-.7982 0-1.3216.2083-1.7011.514-.3987.3212-.8086.8887-1.1158 1.8844m33.3686 4.7383h2.7279c-.5238-.8762-1.3063-1.5759-2.2346-2-.6354-.2902-1.3391-.4513-2.0747-.4513h-.0196c-1.4111.0004-2.7364-.7597-3.4587-1.9848-.8987-1.5247-2.5547-2.4722-4.3214-2.4722-.5133-.0007-1.0236.0778-1.513.2326m9.4241-17.1747h-35.8786c-1.4594 0-2.7841.6016-3.7367 1.5712h43.3517c-.9525-.9695-2.2772-1.5712-3.7364-1.5712zm6.2393 1.5712c-1.2606-2.1353-3.5847-3.5712-6.2393-3.5712h-35.8786c-2.6547 0-4.9789 1.4357-6.2395 3.5712-.3628.6146-.6375 1.2871-.8067 2h49.9706c-.1691-.7129-.4438-1.3854-.8065-2zm-23.393 27.622v2.6854h-1.5712v-2.6854zm2-2h-5.5712v6.6854h5.5712z"
              fill="#000" fill-rule="evenodd"/>
    </g>
</svg>
