<?xml version="1.0" encoding="UTF-8"?>
<svg id="Layer_1" data-name="Layer 1" xmlns="http://www.w3.org/2000/svg" viewBox="0 0 100 100">
  <defs>
    <style>
      .cls-1, .cls-2 {
        stroke-width: 0px;
      }

      .cls-2 {
        fill: #ff2d20;
      }
    </style>
  </defs>
  <g>
    <polygon class="cls-2" points="31.73 47.33 23.3 75.77 46.76 75.77 46.76 47.33 31.73 47.33"/>
    <polygon class="cls-2" points="46.76 34.6 46.76 17.94 40.44 17.94 35.5 34.6 46.76 34.6"/>
  </g>
  <polygon class="cls-2" points="48 42.73 64.55 42.73 67.57 46.28 70.69 46.28 70.69 42.73 77.11 42.73 77.11 38.71 48 38.71 18.89 38.71 18.89 42.73 25.31 42.73 25.31 46.28 28.43 46.28 31.45 42.73 48 42.73"/>
  <g>
    <polygon class="cls-2" points="64.27 47.33 72.7 75.77 49.24 75.77 49.24 47.33 64.27 47.33"/>
    <polygon class="cls-2" points="49.24 34.6 49.24 17.94 55.56 17.94 60.5 34.6 49.24 34.6"/>
  </g>
  <path class="cls-1" d="m50,100C22.43,100,0,77.57,0,50S22.43,0,50,0s50,22.43,50,50-22.43,50-50,50Zm0-98C23.53,2,2,23.53,2,50s21.53,48,48,48,48-21.53,48-48S76.47,2,50,2Z"/>
  <g>
    <path class="cls-1" d="m48.76,78.77h-23.46c-.32,0-.61-.15-.8-.4s-.25-.58-.16-.88l8.43-28.44c.13-.42.52-.72.96-.72h15.03c.55,0,1,.45,1,1v28.44c0,.55-.45,1-1,1Zm-22.12-2h21.12v-26.44h-13.28l-7.83,26.44Z"/>
    <path class="cls-1" d="m48.76,37.6h-11.26c-.32,0-.61-.15-.8-.4-.19-.25-.25-.58-.16-.88l4.94-16.66c.13-.42.52-.72.96-.72h6.32c.55,0,1,.45,1,1v16.66c0,.55-.45,1-1,1Zm-9.92-2h8.92v-14.66h-4.57l-4.34,14.66Z"/>
  </g>
  <path class="cls-1" d="m72.69,49.28h-3.12c-.29,0-.57-.13-.76-.35l-2.72-3.19h-32.18l-2.72,3.19c-.19.22-.47.35-.76.35h-3.12c-.55,0-1-.45-1-1v-2.54h-5.42c-.55,0-1-.45-1-1v-4.02c0-.55.45-1,1-1h58.21c.55,0,1,.45,1,1v4.02c0,.55-.45,1-1,1h-5.42v2.54c0,.55-.45,1-1,1Zm-2.66-2h1.66v-2.54c0-.55.45-1,1-1h5.42v-2.02H21.89v2.02h5.42c.55,0,1,.45,1,1v2.54h1.66l2.72-3.19c.19-.22.47-.35.76-.35h33.11c.29,0,.57.13.76.35l2.72,3.19Z"/>
  <g>
    <path class="cls-1" d="m74.7,78.77h-23.46c-.55,0-1-.45-1-1v-28.44c0-.55.45-1,1-1h15.03c.44,0,.83.29.96.72l8.43,28.44c.09.3.03.63-.16.88s-.49.4-.8.4Zm-22.46-2h21.12l-7.83-26.44h-13.28v26.44Z"/>
    <path class="cls-1" d="m62.5,37.6h-11.26c-.55,0-1-.45-1-1v-16.66c0-.55.45-1,1-1h6.32c.44,0,.83.29.96.72l4.94,16.66c.09.3.03.63-.16.88-.19.25-.49.4-.8.4Zm-10.26-2h8.92l-4.34-14.66h-4.57v14.66Z"/>
  </g>
</svg>