<?xml version="1.0" encoding="UTF-8"?>
<svg id="Layer_1" data-name="Layer 1" xmlns="http://www.w3.org/2000/svg" viewBox="0 0 100 100">
  <defs>
    <style>
      .cls-1, .cls-2 {
        stroke-width: 0px;
      }

      .cls-2 {
        fill: #ff2d20;
      }
    </style>
  </defs>
  <path class="cls-1" d="m50,100C22.43,100,0,77.57,0,50S22.43,0,50,0s50,22.43,50,50-22.43,50-50,50Zm0-98C23.53,2,2,23.53,2,50s21.53,48,48,48,48-21.53,48-48S76.47,2,50,2Z"/>
  <g>
    <g>
      <path class="cls-2" d="m41.79,38.85c-2.4.02-4.27-1.82-5.38-3.75-2.42-5.68,4.27-12.25,9.44-7.73,4.19,3.75,1.88,11.6-4.06,11.48Zm-.8-5.03c3.73.12,4.07-5.86.06-5.89-3.91-.16-3.98,5.9-.06,5.89Z"/>
      <path class="cls-2" d="m60.61,59.42c-7.81,13.36-8.17-3.14-15.65-.61-2.57,2.14-4.56,8.47-8.7,4.74-1.67-1.33-2.28-4.25-4.38-4.87-6.65-2.8-9.52,19.45-16.39-6.42C9.38,21.93,45.02-.51,68.49,20.51c6.9,7.24,11.48,17.27,10.6,27.48-.62,5.4-1.51,17.8-9.11,16.34-3.05-1.71-5.16-8.79-9.37-4.91Zm1.22-23.53s.06,0,.1,0c-4.96-22.37-33.86-16.58-31.74,5.5,2.12,20.18,36.67,14.99,31.64-5.51Z"/>
    </g>
    <g>
      <path class="cls-1" d="m24.98,67.93c-.21,0-.42-.02-.63-.07-2.45-.56-4.48-4.55-6.82-13.34-3-14.83,3.57-29.24,16.72-36.76,12.58-7.2,27.11-5.66,37.91,4.01,7.81,8.19,11.77,18.49,10.92,28.31l-.11,1.03c-.5,4.6-1.35,12.29-5.27,15.18-1.4,1.03-3.06,1.37-4.91,1.02-.11-.02-.21-.06-.3-.11-1.16-.65-2.13-1.87-3.07-3.06-1.09-1.37-2.21-2.78-3.3-2.87-.52-.04-1.08.21-1.72.78-2.2,3.74-4.01,5.48-5.85,5.63-1.96.17-3.33-1.47-4.66-3.04-1.9-2.25-3.23-3.6-5.41-2.94-.57.52-1.15,1.31-1.76,2.14-1.3,1.79-2.65,3.63-4.65,3.84-1.13.12-2.3-.35-3.46-1.39-.78-.62-1.34-1.52-1.88-2.4-.64-1.03-1.24-2-2.12-2.26-.04-.01-.07-.02-.1-.04-1.59-.67-2.97.75-4.9,3-1.4,1.64-2.85,3.32-4.61,3.32ZM50.83,15.29c-5.8,0-11.24,1.71-15.58,4.2-12.39,7.09-18.57,20.66-15.77,34.57,2.61,9.83,4.45,11.64,5.32,11.84.88.2,2.1-1.22,3.28-2.6,1.83-2.14,4.11-4.8,7.15-3.56,1.57.49,2.43,1.88,3.19,3.1.47.76.92,1.49,1.48,1.93.76.68,1.41.99,1.96.93,1.11-.12,2.19-1.6,3.24-3.03.7-.96,1.42-1.95,2.23-2.62.09-.08.2-.14.32-.18,3.76-1.27,6.07,1.48,7.77,3.49,1.05,1.24,2.04,2.42,2.96,2.34.76-.07,2.13-.95,4.38-4.79.05-.09.11-.16.19-.23,1.1-1.02,2.22-1.49,3.34-1.4,1.96.15,3.36,1.91,4.71,3.62.77.98,1.57,1.98,2.35,2.48,1.23.2,2.28-.02,3.18-.69,3.21-2.37,4.03-9.8,4.47-13.79l.11-1.01c.8-9.22-2.97-18.96-10.33-26.68-6.4-5.73-13.4-7.91-19.94-7.91Zm-2.32,41.88c-2.4,0-4.79-.42-7-1.28-5.38-2.11-8.69-6.51-9.31-12.39-1.19-12.39,6.67-19.35,14.47-20.59,7.67-1.22,16.6,2.88,19.24,14.76.03.14.03.28,0,.42,1.26,5.7-.32,10.82-4.47,14.45-3.44,3.01-8.2,4.63-12.93,4.63Zm.73-32.47c-.76,0-1.52.06-2.26.18-6.91,1.09-13.86,7.32-12.79,18.41.54,5.09,3.4,8.91,8.05,10.73,5.79,2.27,13.31,1.01,17.89-2.99,2.59-2.27,5.35-6.35,3.74-12.91-.04-.15-.04-.3,0-.44-2.19-9.14-8.55-12.98-14.62-12.98Z"/>
      <path class="cls-1" d="m51.17,86.71s-.08,0-.12,0c-2.17-.04-4.11-1.14-5.18-2.94-.04-.07-.08-.15-.1-.23-1.15-3.99-.96-8.32-.79-12.52.11-2.59.23-5.27.01-7.77-.02-.18.02-.36.1-.52.98-2.02,2.23-3.14,3.73-3.33,2.91-.36,5.59,2.86,7.75,5.45l.6.72c.18.21.26.48.23.75-.21,2.02-.09,4.12.03,6.35.21,3.77.42,7.68-1.07,11.17-.02.05-.05.1-.08.15-1.11,1.72-3.02,2.74-5.12,2.74Zm-3.51-3.86c.73,1.14,2,1.83,3.43,1.86,1.42.03,2.72-.63,3.48-1.75,1.27-3.04,1.08-6.51.88-10.19-.11-2.06-.23-4.19-.06-6.23l-.34-.41c-1.65-1.98-4.15-4.95-5.97-4.74-.73.09-1.42.75-2.06,1.97.19,2.54.08,5.19-.03,7.74-.17,3.99-.35,8.11.67,11.75Z"/>
      <path class="cls-1" d="m68.22,79.94c-.19,0-.39,0-.59-.02-.06,0-.13-.01-.19-.03-5.73-1.5-5.25-7.6-4.86-12.5.17-2.17.34-4.23.04-5.78-.07-.34.05-.69.31-.93,1.1-1.01,2.23-1.48,3.34-1.4,1.96.15,3.36,1.91,4.72,3.62.82,1.03,1.66,2.09,2.48,2.55.33.19.53.54.5.92-.04.84,0,1.84.03,2.91.12,3.36.26,7.16-1.89,9.25-.96.93-2.27,1.4-3.89,1.4Zm-.36-2.01c1.29.07,2.22-.2,2.86-.83,1.51-1.47,1.39-4.8,1.29-7.74-.03-.88-.06-1.73-.05-2.51-.93-.69-1.74-1.71-2.53-2.7-1.09-1.37-2.21-2.78-3.31-2.87-.43-.03-.91.14-1.43.54.22,1.69.06,3.66-.1,5.73-.45,5.59-.46,9.34,3.28,10.38Z"/>
      <path class="cls-1" d="m34.44,77.62c-.73,0-1.51-.13-2.36-.4-4.16-1.78-3.88-6.13-3.66-9.63.09-1.41.17-2.75.02-3.86-.03-.19,0-.38.08-.55,1.38-3.08,3.27-3.76,4.6-3.78,2.93-.08,5.37,2.82,6.58,5.29.06.12.09.25.1.39.24,4.5.26,9.48-2.5,11.61-.8.62-1.75.93-2.86.93Zm-3.99-13.87c.14,1.24.05,2.62-.04,3.96-.25,3.89-.22,6.52,2.36,7.63,1.4.44,2.51.37,3.3-.23,2.1-1.63,1.88-6.96,1.74-9.71-1.22-2.39-3.14-4.05-4.66-3.99-1.27.02-2.16,1.24-2.7,2.35Z"/>
      <path class="cls-1" d="m44.65,42.3c-.05,0-.11,0-.16,0-2.39,0-4.65-1.55-6.22-4.25-.02-.04-.04-.07-.05-.11-1.57-3.67.18-7.46,2.72-9.3,2.63-1.91,5.82-1.75,8.3.43,2.36,2.11,3.12,5.6,1.9,8.68-1.11,2.82-3.59,4.55-6.49,4.55Zm-.13-2s.09,0,.13,0c2.1,0,3.82-1.22,4.63-3.28.76-1.93.63-4.67-1.37-6.45-1.16-1.02-2.5-1.42-3.82-1.18,1.32.09,2.44.76,3.06,1.87.71,1.27.66,2.97-.11,4.23-.71,1.17-1.91,1.82-3.34,1.78-1.46,0-2.69-.69-3.36-1.9-.31-.55-.48-1.17-.52-1.8-.3,1.1-.29,2.33.21,3.53.59,1.01,2.15,3.2,4.45,3.2.01,0,.02,0,.03,0Zm-.8-5.03s.07,0,.11,0c.83,0,1.28-.44,1.51-.82.4-.66.43-1.57.07-2.22-.31-.56-.86-.85-1.62-.85-.77-.03-1.32.23-1.65.78-.4.65-.41,1.56-.04,2.23.22.4.69.88,1.62.88h0Z"/>
    </g>
  </g>
</svg>