<?xml version="1.0" encoding="UTF-8"?>
<svg fill="none" viewBox="0 0 100 100" xmlns="http://www.w3.org/2000/svg">
    <clipPath id="a">
        <path d="m0 0h100v100h-100z"/>
    </clipPath>
    <mask id="b" height="68" maskUnits="userSpaceOnUse" width="67" x="21" y="16">
        <path
            d="m56.6344 67.9682c13.3258 3.638 27.023-4.4193 30.5937-17.9966.1619-.6162.3004-1.2331.4157-1.8497.1924 3.5104-.1509 7.1114-1.0928 10.6928-4.7656 18.1211-23.0469 28.875-40.8322 24.0194-17.7854-4.8555-28.3401-23.4819-23.5745-41.603 4.7656-18.1212 23.0467-28.8751 40.8322-24.0195.9088.2481 1.7986.5321 2.6684.8502-11.9941-1.2667-23.4532 6.4889-26.6739 18.7352-3.5706 13.5774 4.3375 27.5332 17.6634 31.1712z"
            fill="#d9d9d9"/>
    </mask>
    <mask height="68" maskUnits="userSpaceOnUse" width="68" x="18" y="14">
        <path
            d="m54.3315 65.9574c13.5865 3.6405 27.5516-4.4222 31.1922-18.0087.1651-.6166.3063-1.2339.4238-1.851.1962 3.5128-.1538 7.1163-1.1141 10.7-4.8589 18.1333-23.4978 28.8944-41.6311 24.0356s-28.8944-23.4977-24.0356-41.631 23.4976-28.8944 41.631-24.0356c.9265.2482 1.8337.5324 2.7206.8507-12.2288-1.2675-23.912 6.4933-27.1957 18.7479-3.6405 13.5865 4.4223 27.5517 18.0089 31.1921z"
            fill="#d9d9d9"/>
        <path clip-rule="evenodd"
              d="m85.5354 53.5651c-.1801 1.0773-.4135 2.1559-.702 3.2326-4.8589 18.1333-23.4978 28.8944-41.6311 24.0356s-28.8944-23.4977-24.0356-41.631c4.4563-16.6314 20.5045-27.0612 37.1228-24.9262 1.5008.1928 3.0062.4881 4.5082.8906.9265.2482 1.8337.5324 2.7206.8507-.9758-.1011-1.9481-.1448-2.9129-.1332-1.4455.0172-2.8742.1583-4.2728.4155-9.3671 1.7228-17.3809 8.6538-20.01 18.4656-3.6405 13.5865 4.4223 27.5517 18.0089 31.1921 11.8252 3.1686 23.9372-2.5285 29.2791-13.0168.7957-1.5622 1.4411-3.2306 1.9131-4.9919.1651-.6166.3063-1.2339.4238-1.851.0367.6566.0543 1.3164.0524 1.9786-.0053 1.8161-.1572 3.6507-.4645 5.4888zm-3.4474 5.3111c-6.6395 8.011-17.5659 11.8823-28.2742 9.013-14.6535-3.9262-23.3494-18.9881-19.4231-33.6416 2.2813-8.5137 8.3205-15.0153 15.8548-18.1997-13.4376.7354-25.4745 9.9663-29.147 23.6721-4.5729 17.0663 5.5551 34.6086 22.6215 39.1815 16.182 4.3359 32.7918-4.5449 38.368-20.0253zm-21.3158-43.6145.0251-.0938z"
              fill="#000" fill-rule="evenodd"/>
    </mask>
    <g clip-path="url(#a)">
        <path
            d="m50 100c-27.57 0-50-22.43-50-50s22.43-50 50-50 50 22.43 50 50-22.43 50-50 50zm0-98c-26.47 0-48 21.53-48 48s21.53 48 48 48 48-21.53 48-48-21.53-48-48-48z"
            fill="#000"/>
        <g mask="url(#b)">
            <path
                d="m84.1232 47.9341c.0087-6.0079-1.6567-11.8948-4.8028-16.9762 2.7581 4.8762 3.5936 10.6385 2.3368 16.1188-1.2569 5.4805-4.5118 10.2689-9.1051 13.3951-4.5933 3.126-10.1813 4.3556-15.6315 3.4396-5.4501-.916-10.3546-3.9089-13.7191-8.3724-3.3647-4.4635-4.9378-10.0634-4.4006-15.6646.5373-5.6014 3.1447-10.7851 7.2938-14.5004 4.149-3.7153 9.5293-5.6843 15.0504-5.5079 5.521.1764 10.7698 2.485 14.6822 6.4579-4.9461-5.4596-11.6084-8.9874-18.836-9.9738-7.2276-.9863-14.5665.6308-20.7482 4.5718-6.1817 3.9411-10.8181 9.9586-13.1079 17.0125-2.2898 7.054-2.0893 14.7014.567 21.6208 2.6563 6.9192 7.6015 12.6759 13.9809 16.2749 6.3796 3.5991 13.7926 4.8146 20.9581 3.4363 7.1656-1.3782 13.6337-5.2634 18.2864-10.9844 4.6527-5.7209 7.1978-12.918 7.1956-20.348z"
                fill="#ff2d20"/>
        </g>
        <g fill="#ff2d20">
            <path
                d="m54.9396 43.6724c1.429 0 2.5875-1.1803 2.5875-2.6364 0-1.456-1.1585-2.6364-2.5875-2.6364s-2.5875 1.1804-2.5875 2.6364c0 1.4561 1.1585 2.6364 2.5875 2.6364z"/>
            <path
                d="m56.3496 33.3069c1.8687 0 3.3836-1.5436 3.3836-3.4476s-1.5149-3.4476-3.3836-3.4476c-1.8688 0-3.3838 1.5436-3.3838 3.4476s1.515 3.4476 3.3838 3.4476z"/>
            <path
                d="m62.6381 26.4194c.9344 0 1.6918-.7717 1.6918-1.7238 0-.952-.7574-1.7237-1.6918-1.7237s-1.6918.7717-1.6918 1.7237c0 .9521.7574 1.7238 1.6918 1.7238z"/>
            <path
                d="m51.0882 27.3804c.7145 0 1.2938-.5902 1.2938-1.3182s-.5793-1.3182-1.2938-1.3182-1.2938.5902-1.2938 1.3182.5793 1.3182 1.2938 1.3182z"/>
        </g>
        <g mask="url(#c)">
            <path clip-rule="evenodd"
                  d="m84.6787 52.0646c-1.973 4.6303-5.2222 8.6265-9.4053 11.4735h-.0001c-5.4923 3.7379-12.1799 5.2111-18.7055 4.1144-6.525-1.0966-12.3874-4.6784-16.4041-10.0071-4.0162-5.3276-5.8899-12.0053-5.2498-18.6802.6404-6.6752 3.7482-12.861 8.7051-17.2997 3.9027-3.4947 8.7215-5.6998 13.8203-6.3771-.2435-.039-.4876-.0752-.7324-.1087-7.5036-1.0239-15.1253.6541-21.5494 4.7496-6.4249 4.0962-11.2517 10.3559-13.637 17.7038-2.3854 7.3485-2.1763 15.316.5906 22.5235 2.7666 7.2066 7.9137 13.1937 14.543 16.9337 6.6285 3.7395 14.3265 5.0007 21.7661 3.5697l.3777 1.964c-7.9069 1.5209-16.0869.1797-23.1266-3.7918-7.0394-3.9714-12.4962-10.3237-15.4274-17.9588-2.9311-7.6354-3.1524-16.074-.6256-23.8578 2.5267-7.7838 7.6428-14.4239 14.4641-18.7727s14.9194-6.1332 22.8949-5.0448c2.9156.3979 5.7478 1.1706 8.4347 2.2852 4.6627 1.9343 8.8875 4.8984 12.3501 8.7205-3.5331-3.5878-8.0539-5.9456-12.9188-6.7904-1.0795-.1874-2.176-.3004-3.2825-.3357-6.0922-.1947-12.0292 1.9781-16.6076 6.0778s-7.4555 9.8198-8.0484 16.0007c-.5928 6.1807 1.1431 12.36 4.8559 17.2853 3.7127 4.9253 9.1245 8.228 15.1386 9.2387s12.1802-.346 17.2488-3.7955c5.0686-3.4496 8.6602-8.7335 10.0471-14.781.2271-.9903.3923-1.989.4964-2.9903.5316-5.1133-.5299-10.2967-3.0749-14.7962 2.7783 4.4874 4.5102 9.5441 5.0861 14.783.1438 1.3072.2155 2.6258.2136 3.9496.0024 8.1987-2.806 16.1405-7.9401 22.4533-5.1341 6.3129-12.2714 10.6001-20.1784 12.1209l-.3777-1.964c7.44-1.431 14.1636-5.4665 19.0044-11.4188l1.4211 1.1556-1.421-1.1557c3.9987-4.9167 6.5042-10.8853 7.254-17.1765z"
                  fill="#000" fill-rule="evenodd"/>
        </g>
    </g>
</svg>
