<?xml version="1.0" encoding="UTF-8"?>
<svg id="Layer_1" data-name="Layer 1" xmlns="http://www.w3.org/2000/svg" viewBox="0 0 100 100">
  <defs>
    <style>
      .cls-1, .cls-2 {
        stroke-width: 0px;
      }

      .cls-2 {
        fill: #ff2d20;
      }
    </style>
  </defs>
  <path class="cls-1" d="m50,100C22.43,100,0,77.57,0,50S22.43,0,50,0s50,22.43,50,50-22.43,50-50,50Zm0-98C23.53,2,2,23.53,2,50s21.53,48,48,48,48-21.53,48-48S76.47,2,50,2Z"/>
  <g>
    <path class="cls-2" d="m72.85,33.57c-7.98,7.51-19.24,8.92-29.8,10.09-7.74.94-16.42,2.58-21.35,9.15-4.46,5.87-3.05,14.31,1.64,19.47.94,1.41,3.99,3.99,4.46,3.75-4.22-5.87-4.22-15.25,1.88-19.94,6.33-5.16,14.78-4.93,22.52-6.8,4.46-.94,9.38-2.35,13.37-3.75-5.87,5.16-13.61,7.27-20.88,9.62-6.1,2.11-11.97,7.27-12.2,14.08-.23,4.69,2.11,10.56,7.04,11.97,13.14,3.05,27.45-2.35,35.43-12.9,8.92-11.26,9.62-28.15,1.64-40.35-.94,2.35-2.35,4.22-3.75,5.63Z"/>
    <path class="cls-2" d="m67.46,30.99c3.75-1.64,6.57-6.57,3.05-9.85-1.64-1.17-4.22-3.99-2.58-.47.47,4.46-3.75,7.04-7.51,8.21-7.74,2.35-15.72,2.11-23.7,3.52-1.17,0-3.99.7-1.17-.7,7.27-3.52,16.66-3.05,22.99-8.68,3.28-2.58,1.88-7.98-1.64-9.38-4.46-1.88-9.38-1.88-14.08-1.41-14.08,1.64-26.51,12.43-29.8,26.04-.7,3.05-1.17,5.87-1.17,8.92,0,3.05.94,9.85,1.88,10.32.94-8.21,7.27-14.55,14.55-17.36,12.67-4.93,27.22-2.11,39.18-9.15Z"/>
  </g>
  <g>
    <path class="cls-1" d="m50.07,86.05c-2.6,0-5.2-.29-7.76-.88-5.43-1.55-8.07-7.85-7.81-12.99.25-7.35,6.65-12.82,12.87-14.97.71-.23,1.41-.45,2.11-.68,4.42-1.4,8.94-2.84,12.99-5.02-2.39.68-4.8,1.28-7.06,1.75-2.17.53-4.44.9-6.64,1.25-5.71.93-11.1,1.8-15.46,5.35-5.81,4.47-5.56,13.21-1.7,18.58.17.24.23.54.16.82-.07.28-.26.52-.52.66-1.54.77-5.09-3.26-5.67-4-4.6-5.08-6.74-14.06-1.68-20.73,4.98-6.64,13.53-8.51,22.03-9.54,9.99-1.11,21.3-2.37,29.22-9.81,1.56-1.56,2.74-3.34,3.52-5.28.14-.35.46-.59.83-.62.38-.03.73.14.94.45,8.17,12.5,7.46,29.96-1.69,41.52-6.75,8.94-17.64,14.14-28.68,14.14Zm18.51-38.52c.35,0,.68.18.86.49.24.41.16.94-.2,1.26-5.46,4.81-12.42,7.02-19.15,9.15l-2.08.67c-5.56,1.92-11.29,6.75-11.51,13.16-.22,4.39,1.92,9.71,6.31,10.97,12.64,2.93,26.47-2.1,34.35-12.55,8.27-10.45,9.24-25.99,2.56-37.64-.82,1.53-1.88,2.95-3.17,4.23,0,0-.01.01-.02.02-8.41,7.91-20.59,9.27-30.37,10.35-8.05.98-16.13,2.71-20.66,8.76-4.43,5.83-2.49,13.72,1.58,18.2.03.04.06.08.09.12.17.25.42.55.71.85-2.12-5.88-1.19-13.14,4.19-17.28,4.75-3.87,10.66-4.83,16.38-5.76,2.16-.35,4.39-.71,6.52-1.23,4.3-.91,9.13-2.26,13.28-3.73.11-.04.22-.06.33-.06Zm-37.69,30.54h.01-.01Zm44.96-41.5h0,0Z"/>
    <path class="cls-1" d="m16.73,61.5c-.15,0-.31-.04-.45-.11-2.02-1.01-2.43-11.12-2.43-11.22,0-2.77.36-5.5,1.2-9.14,3.4-14.08,16-25.1,30.66-26.81,4.17-.42,9.58-.62,14.58,1.48,2.1.84,3.69,2.96,4.04,5.4.33,2.28-.46,4.35-2.17,5.69-3.96,3.52-9.09,4.75-14.04,5.93-1.41.34-2.79.67-4.12,1.04,1.64-.19,3.27-.35,4.88-.51,4.94-.48,9.61-.93,14.26-2.34,2.17-.68,7.14-2.71,6.82-6.99-.45-.96-.92-2.11-.09-2.74.85-.66,1.73.08,3.05,1.19.4.34.82.68,1.18.95.04.03.07.05.1.08,1.52,1.42,2.18,3.29,1.84,5.27-.44,2.55-2.49,5.04-5.11,6.21-6.88,4.03-14.62,4.9-22.11,5.75-5.76.65-11.72,1.32-17.16,3.44-6.08,2.35-12.93,7.94-13.92,16.54-.04.32-.23.61-.52.77-.15.08-.31.12-.48.12Zm.62-1.77s0,0,0,0h0ZM50.55,15.95c-1.65,0-3.22.12-4.63.26-13.6,1.59-25.77,12.22-28.92,25.28-.8,3.48-1.15,6.08-1.15,8.68,0,1.78.3,4.45.67,6.53,2.02-6.37,7.27-11.74,14.39-14.5,5.69-2.21,11.77-2.9,17.66-3.56,7.64-.86,14.85-1.68,21.37-5.52.03-.02.07-.04.11-.05,2.03-.89,3.68-2.84,4-4.74.22-1.31-.18-2.46-1.19-3.43-.29-.21-.6-.46-.91-.72.08,3.84-2.89,6.97-8.24,8.64-4.85,1.47-9.84,1.95-14.66,2.42-3.01.29-6.12.59-9.17,1.13-.06.01-.12.02-.17.02-.27,0-.65.05-1.01.09-1.1.13-2.06.24-2.33-.7-.29-.98.69-1.47,1.72-1.98,3-1.45,6.33-2.24,9.55-3.01,4.93-1.18,9.59-2.29,13.23-5.52,1.17-.92,1.69-2.32,1.47-3.88-.25-1.74-1.36-3.25-2.82-3.83-2.93-1.24-6.07-1.6-8.97-1.6Z"/>
  </g>
</svg>