<?xml version="1.0" encoding="UTF-8"?>
<svg id="Layer_1" data-name="Layer 1" xmlns="http://www.w3.org/2000/svg" viewBox="0 0 100 100">
  <defs>
    <style>
      .cls-1, .cls-2 {
        stroke-width: 0px;
      }

      .cls-2 {
        fill: #ff2d20;
      }
    </style>
  </defs>
  <path class="cls-1" d="m50,100C22.43,100,0,77.57,0,50S22.43,0,50,0s50,22.43,50,50-22.43,50-50,50Zm0-98C23.53,2,2,23.53,2,50s21.53,48,48,48,48-21.53,48-48S76.47,2,50,2Z"/>
  <g>
    <path class="cls-2" d="m77.38,37.22l-25.73,11.15c-2.97,1.29-6.33,1.29-9.3,0l-25.73-11.15c-1.86-.81-1.86-3.45,0-4.26l25.73-11.15c2.97-1.29,6.33-1.29,9.3,0l25.73,11.15c1.86.81,1.86,3.45,0,4.26Z"/>
    <path class="cls-2" d="m77.38,47.53l-25.73,11.15c-2.97,1.29-6.33,1.29-9.3,0l-25.73-11.15c-1.86-.81-1.86-3.45,0-4.26l25.73-11.15c2.97-1.29,6.33-1.29,9.3,0l25.73,11.15c1.86.81,1.86,3.45,0,4.26Z"/>
    <path class="cls-2" d="m77.38,57.85l-25.73,11.15c-2.97,1.29-6.33,1.29-9.3,0l-25.73-11.15c-1.86-.81-1.86-3.45,0-4.26l25.73-11.15c2.97-1.29,6.33-1.29,9.3,0l25.73,11.15c1.86.81,1.86,3.45,0,4.26Z"/>
  </g>
  <g>
    <path class="cls-1" d="m73.39,45.25c-.39,0-.75-.23-.92-.6-.22-.51.01-1.1.52-1.31l6.99-3.03c.5-.22.8-.67.8-1.21s-.3-1-.8-1.21l-25.73-11.15c-2.7-1.17-5.8-1.17-8.5,0l-25.73,11.15c-.5.22-.8.67-.8,1.21s.3,1,.8,1.21l6.99,3.03c.51.22.74.81.52,1.31-.22.51-.81.74-1.31.52l-6.99-3.03c-1.23-.53-2-1.7-2-3.05s.77-2.51,2-3.05l25.73-11.15c3.21-1.39,6.89-1.39,10.09,0l25.73,11.15c1.23.53,2,1.7,2,3.05s-.77,2.51-2,3.05l-6.99,3.03c-.13.06-.26.08-.4.08Z"/>
    <path class="cls-1" d="m26.61,55.57c-.13,0-.27-.03-.4-.08l-6.99-3.03c-1.23-.53-2-1.7-2-3.05s.77-2.51,2-3.05l6.99-3.03c.25-.11.54-.11.79,0l11.91,5.16c.51.22.74.81.52,1.31-.22.51-.81.74-1.31.52l-11.51-4.99-6.6,2.86c-.5.22-.8.67-.8,1.21s.3,1,.8,1.21l6.99,3.03c.51.22.74.81.52,1.31-.16.38-.53.6-.92.6Z"/>
    <path class="cls-1" d="m73.39,55.57c-.39,0-.75-.23-.92-.6-.22-.51.01-1.1.52-1.31l6.99-3.03c.5-.22.8-.67.8-1.21s-.3-1-.8-1.21l-6.6-2.86-11.51,4.99c-.51.22-1.1-.01-1.31-.52-.22-.51.01-1.1.52-1.31l11.91-5.16c.25-.11.54-.11.79,0l6.99,3.03c1.23.53,2,1.7,2,3.05s-.77,2.51-2,3.05l-6.99,3.03c-.13.06-.26.08-.4.08Z"/>
    <path class="cls-1" d="m50,74.97c-1.72,0-3.44-.35-5.05-1.04l-25.73-11.15c-1.23-.54-2-1.7-2-3.05,0-1.34.77-2.51,2-3.05l6.99-3.03c.25-.11.54-.11.79,0l18.74,8.12c2.7,1.17,5.8,1.17,8.5,0l18.74-8.12c.25-.11.54-.11.79,0l6.99,3.03c1.23.53,2,1.7,2,3.05,0,1.34-.77,2.51-2,3.05l-25.73,11.15c-1.6.69-3.33,1.04-5.05,1.04Zm-23.39-19.31l-6.6,2.86c-.5.22-.8.67-.8,1.21,0,.54.3,1,.8,1.21l25.73,11.15c2.7,1.17,5.8,1.17,8.5,0l25.73-11.15c.5-.22.8-.67.8-1.21,0-.54-.3-1-.8-1.21l-6.6-2.86-18.34,7.95c-3.21,1.39-6.89,1.39-10.09,0h0l-18.34-7.95Z"/>
    <path class="cls-1" d="m50,54.33c-1.72,0-3.44-.35-5.05-1.04l-6.83-2.96c-.51-.22-.74-.81-.52-1.31.22-.51.81-.74,1.31-.52l6.83,2.96c2.7,1.17,5.8,1.17,8.5,0l6.83-2.96c.51-.22,1.1.01,1.31.52.22.51-.01,1.1-.52,1.31l-6.83,2.96c-1.6.69-3.33,1.04-5.05,1.04Z"/>
  </g>
</svg>