<?xml version="1.0" encoding="UTF-8"?>
<svg viewBox="0 0 100 100" xmlns="http://www.w3.org/2000/svg">
    <g>
        <path
            d="m50 100c-27.57 0-50-22.43-50-50s22.43-50 50-50 50 22.43 50 50-22.43 50-50 50zm0-98c-26.47 0-48 21.53-48 48s21.53 48 48 48 48-21.53 48-48-21.53-48-48-48z"
            fill="#000"/>
        <path
            d="m27.5917 44.4306h26.7944v6.2979c0 1.4601 1.6579 2.2781 2.8177 1.4333l18.6245-13.5674c.9703-.7067.9726-2.1582 0-2.8667l-18.6246-13.5672c-1.17-.8527-2.8177-.0142-2.8177 1.4333v6.2975h-26.7943c-.9792 0-1.7733.7941-1.7733 1.7733v10.9927c0 .9795.7941 1.7733 1.7733 1.7733z"
            fill="#ff2d20"/>
        <path
            d="m74.7843 57.3879h-26.7948v-6.2979c0-1.4472-1.6473-2.2856-2.8173-1.4333l-18.6246 13.5674c-.9726.7084-.9708 2.16 0 2.8667l18.6244 13.5671c1.1666.85 2.8174.02 2.8174-1.4333v-6.2975h26.7948c.9793 0 1.7734-.7941 1.7734-1.7733v-10.9927c0-.9795-.7941-1.7733-1.7734-1.7733z"
            fill="#ff2d20"/>
        <g stroke="#000" stroke-width="2" fill="none">
            <path
                d="m52.4603 27.3254h-26.6316c-1.5621 0-2.8287 1.2666-2.8287 2.8287v11.3362c0 1.5626 1.2667 2.8287 2.8287 2.8287h26.6318v5.4948c0 2.3367 2.6485 3.6311 4.4945 2.2864l19.2065-13.9914c1.5481-1.1275 1.5522-3.4422.0001-4.5729l-.5109.7012.5108-.7012-19.2064-13.991c0-.0001-.0001-.0001-.0002-.0002-1.8677-1.361-4.4946-.0236-4.4946 2.2864z"/>
            <path
                d="m47.8639 78.1691v-5.4943h26.6321c1.5621 0 2.8288-1.2666 2.8288-2.8287v-11.3362c0-1.5626-1.2667-2.8286-2.8287-2.8286h-26.6321v-5.4948c0-2.3098-2.6265-3.6468-4.4941-2.2864v.0001l-19.2066 13.9913c-1.552 1.1304-1.5489 3.4454.0002 4.5731l19.2061 13.9908v.0001c1.8599 1.355 4.4943.035 4.4943-2.2864z"/>
        </g>
    </g>
</svg>
