<?xml version="1.0" encoding="UTF-8"?>
<!DOCTYPE svg PUBLIC "-//W3C//DTD SVG 1.1//EN" "http://www.w3.org/Graphics/SVG/1.1/DTD/svg11.dtd">
<!-- Creator: CorelDRAW -->
<svg xmlns="http://www.w3.org/2000/svg" xml:space="preserve" width="313px" height="313px" version="1.1" style="shape-rendering:geometricPrecision; text-rendering:geometricPrecision; image-rendering:optimizeQuality; fill-rule:evenodd; clip-rule:evenodd"
viewBox="0 0 271.39 271.39"
 xmlns:xlink="http://www.w3.org/1999/xlink"
 xmlns:xodm="http://www.corel.com/coreldraw/odm/2003">
 <defs>
  <style type="text/css">
   <![CDATA[
    .fil1 {fill:black;fill-rule:nonzero}
    .fil0 {fill:#FF2D20;fill-rule:nonzero}
   ]]>
  </style>
 </defs>
 <g id="Слой_x0020_1">
  <metadata id="CorelCorpID_0Corel-Layer"/>
  <path class="fil0" d="M186.72 65.81c0,-3.1 -1.25,-5.9 -3.26,-7.91l-0.02 -0.02c-2.01,-2.02 -4.81,-3.26 -7.91,-3.26 -3.11,0 -5.91,1.24 -7.92,3.26l0 0.02c-2.02,2.02 -3.28,4.82 -3.28,7.91 0,3.09 1.26,5.9 3.28,7.92 2.02,2.02 4.82,3.28 7.92,3.28 3.09,0 5.89,-1.26 7.91,-3.28l0.02 0c2.01,-2.01 3.26,-4.81 3.26,-7.92zm-71.1 -36.65c-6.54,10.67 -10.31,23.22 -10.31,36.65 0,19.39 7.86,36.95 20.56,49.66 12.71,12.7 30.26,20.56 49.66,20.56 19.39,0 36.94,-7.86 49.65,-20.56 5.22,-5.22 9.62,-11.26 13,-17.91 1.6,4.28 2.95,8.69 4.01,13.21 -2.89,4.27 -6.18,8.26 -9.81,11.89 -14.55,14.55 -34.65,23.55 -56.85,23.55 -22.2,0 -42.31,-9 -56.85,-23.55 -14.55,-14.55 -23.55,-34.65 -23.55,-56.85 0,-11.82 2.55,-23.04 7.13,-33.15 4.34,-1.44 8.8,-2.61 13.36,-3.5zm27.14 -1.84c-1.03,0.88 -2.02,1.8 -2.97,2.75 -9.15,9.15 -14.81,21.78 -14.81,35.74 0,13.96 5.66,26.6 14.81,35.74 9.14,9.15 21.78,14.81 35.74,14.81 13.95,0 26.59,-5.66 35.74,-14.81 7.43,-7.43 12.56,-17.17 14.22,-28.05 2.73,3.9 5.21,7.98 7.41,12.23 -3.04,8.76 -8.02,16.6 -14.44,23.02 -10.99,10.99 -26.17,17.79 -42.93,17.79 -16.77,0 -31.95,-6.8 -42.94,-17.79 -10.99,-10.99 -17.79,-26.17 -17.79,-42.94 0,-14.55 5.13,-27.91 13.67,-38.37 2.65,-0.2 5.34,-0.3 8.04,-0.3 2.1,0 4.18,0.07 6.25,0.18zm63.64 38.49c0,-6.47 -2,-12.48 -5.41,-17.45 5.58,4.13 10.74,8.77 15.43,13.86 0.1,1.19 0.15,2.38 0.15,3.59 0,11.34 -4.59,21.6 -12.02,29.03 -7.43,7.43 -17.69,12.02 -29.02,12.02 -11.34,0 -21.6,-4.59 -29.03,-12.02 -7.43,-7.43 -12.02,-17.69 -12.02,-29.03 0,-11.33 4.59,-21.59 12.02,-29.02 3.1,-3.1 6.68,-5.7 10.64,-7.68 6.9,1.32 13.57,3.3 19.94,5.87 -0.52,-0.03 -1.03,-0.04 -1.55,-0.04 -8.53,0 -16.25,3.46 -21.83,9.04 -5.59,5.59 -9.05,13.31 -9.05,21.83 0,8.53 3.46,16.25 9.05,21.83 5.58,5.59 13.3,9.04 21.83,9.04 8.52,0 16.24,-3.45 21.82,-9.04 5.59,-5.58 9.05,-13.3 9.05,-21.83zm-15.78 -15.11l0.02 0.02c3.87,3.88 6.26,9.22 6.26,15.09 0,5.89 -2.4,11.23 -6.27,15.1l0.01 0.01c-3.87,3.87 -9.21,6.26 -15.11,6.26 -5.9,0 -11.25,-2.39 -15.12,-6.26 -3.86,-3.86 -6.26,-9.21 -6.26,-15.11 0,-5.9 2.4,-11.24 6.26,-15.11l0.01 0.01c3.88,-3.87 9.22,-6.27 15.11,-6.27 5.87,0 11.21,2.39 15.09,6.26z"/>
  <path class="fil1" d="M183.76 69.96c0,-1.2 -0.24,-2.34 -0.65,-3.35 -0.43,-1.05 -1.08,-2 -1.88,-2.8l-0.02 -0.02c-0.8,-0.8 -1.76,-1.45 -2.81,-1.88 -1.01,-0.42 -2.14,-0.65 -3.34,-0.65 -1.2,0 -2.33,0.23 -3.34,0.65 -0.87,0.36 -1.67,0.85 -2.37,1.46l-0.44 0.44c-0.8,0.8 -1.45,1.76 -1.89,2.82 -0.42,1.01 -0.65,2.14 -0.65,3.33 0,1.18 0.23,2.31 0.65,3.32 0.44,1.06 1.09,2.02 1.89,2.82 0.81,0.81 1.77,1.46 2.83,1.9 1.01,0.42 2.13,0.65 3.32,0.65 1.19,0 2.32,-0.23 3.33,-0.65 1.05,-0.44 2.01,-1.09 2.82,-1.9l0.44 -0.44c0.6,-0.69 1.1,-1.49 1.46,-2.36 0.41,-1.02 0.65,-2.14 0.65,-3.34zm3.96 -5.24c0.67,1.62 1.04,3.39 1.04,5.24 0,1.84 -0.37,3.61 -1.04,5.23 -0.69,1.68 -1.71,3.19 -2.97,4.45l-0.73 0.73 -0.07 0c-1.08,0.92 -2.31,1.68 -3.65,2.24 -1.63,0.67 -3.4,1.04 -5.24,1.04 -1.84,0 -3.61,-0.37 -5.23,-1.04 -1.69,-0.7 -3.2,-1.72 -4.45,-2.97 -1.26,-1.26 -2.27,-2.77 -2.97,-4.45 -0.67,-1.63 -1.04,-3.4 -1.04,-5.23 0,-1.84 0.37,-3.61 1.04,-5.23 0.55,-1.35 1.31,-2.59 2.24,-3.67l0 -0.06 0.73 -0.74c1.25,-1.26 2.76,-2.27 4.44,-2.96 1.63,-0.67 3.4,-1.04 5.24,-1.04 1.84,0 3.62,0.37 5.24,1.04 1.69,0.69 3.2,1.71 4.45,2.95l0.01 0.02c1.25,1.25 2.26,2.76 2.96,4.45zm-65.93 -36.58c-3.8,4.82 -6.95,10.17 -9.33,15.91 -3.3,7.97 -5.12,16.72 -5.12,25.91 0,9.18 1.82,17.93 5.12,25.9 3.43,8.27 8.46,15.73 14.72,21.98 6.25,6.25 13.71,11.29 21.97,14.71 7.97,3.3 16.73,5.12 25.91,5.12 9.19,0 17.94,-1.82 25.91,-5.12 8.27,-3.42 15.72,-8.46 21.98,-14.71 6.21,-6.21 11.22,-13.61 14.64,-21.81 0.87,2.21 1.66,4.45 2.38,6.73 -3.5,6.92 -8.07,13.2 -13.48,18.62 -6.7,6.69 -14.71,12.09 -23.63,15.78 -8.57,3.55 -17.96,5.52 -27.8,5.52 -9.83,0 -19.23,-1.97 -27.8,-5.52 -8.92,-3.69 -16.93,-9.09 -23.62,-15.78 -6.69,-6.69 -12.09,-14.71 -15.79,-23.62 -3.55,-8.58 -5.51,-17.97 -5.51,-27.8 0,-9.84 1.96,-19.23 5.51,-27.81 1.88,-4.52 4.19,-8.82 6.9,-12.83 2.32,-0.47 4.67,-0.86 7.04,-1.18zm121.64 88.7c-2.89,4.21 -6.16,8.14 -9.75,11.73 -7.63,7.63 -16.76,13.79 -26.93,18 -9.77,4.05 -20.48,6.28 -31.69,6.28 -11.21,0 -21.92,-2.23 -31.69,-6.28 -10.16,-4.21 -19.3,-10.37 -26.93,-18 -7.63,-7.63 -13.78,-16.76 -17.99,-26.92 -4.05,-9.77 -6.29,-20.48 -6.29,-31.69 0,-11.22 2.24,-21.92 6.29,-31.7 0.71,-1.72 1.48,-3.42 2.31,-5.09 2.23,-0.77 4.5,-1.48 6.79,-2.12 -1.69,2.93 -3.19,5.97 -4.49,9.11 -3.8,9.16 -5.9,19.23 -5.9,29.8 0,10.56 2.1,20.63 5.9,29.79 3.94,9.52 9.73,18.1 16.92,25.29 7.19,7.19 15.77,12.98 25.28,16.92 9.17,3.8 19.24,5.89 29.8,5.89 10.57,0 20.63,-2.09 29.8,-5.89 9.51,-3.94 18.09,-9.73 25.28,-16.92 4.54,-4.54 8.52,-9.63 11.83,-15.16 0.56,2.29 1.05,4.61 1.46,6.96zm-92.08 -88.69c-3.76,2.14 -7.21,4.78 -10.26,7.83 -4.43,4.44 -8.01,9.73 -10.44,15.6 -2.34,5.65 -3.63,11.85 -3.63,18.38 0,6.51 1.29,12.72 3.63,18.37 2.43,5.87 6.01,11.16 10.44,15.6 8.69,8.69 20.7,14.07 33.97,14.07 6.52,0 12.73,-1.29 18.38,-3.63 5.87,-2.44 11.16,-6.01 15.59,-10.44 4.44,-4.44 8.01,-9.73 10.44,-15.6 2.31,-5.57 3.6,-11.68 3.64,-18.1 1.6,2.11 3.12,4.28 4.57,6.51 -0.61,4.71 -1.83,9.24 -3.59,13.49 -2.7,6.51 -6.64,12.35 -11.52,17.23 -4.88,4.89 -10.73,8.83 -17.22,11.52 -6.27,2.59 -13.12,4.02 -20.29,4.02 -14.65,0 -27.91,-5.94 -37.51,-15.54 -4.88,-4.88 -8.82,-10.72 -11.51,-17.22 -2.59,-6.26 -4.02,-13.11 -4.02,-20.28 0,-7.17 1.43,-14.03 4.02,-20.28 2.69,-6.51 6.63,-12.35 11.51,-17.23 1.83,-1.84 3.8,-3.53 5.89,-5.08 2.66,0.17 5.3,0.43 7.91,0.78zm83.67 61.89c-0.47,1.38 -0.97,2.74 -1.53,4.08 -3.21,7.75 -7.91,14.72 -13.72,20.54 -5.82,5.82 -12.79,10.51 -20.54,13.72 -7.46,3.09 -15.62,4.8 -24.17,4.8 -8.55,0 -16.71,-1.71 -24.17,-4.8 -7.75,-3.2 -14.71,-7.9 -20.53,-13.72 -5.82,-5.82 -10.52,-12.79 -13.73,-20.54 -3.08,-7.45 -4.79,-15.62 -4.79,-24.16 0,-8.55 1.71,-16.72 4.79,-24.17 2.82,-6.8 6.78,-13 11.63,-18.34 2.42,-0.18 4.87,-0.28 7.33,-0.3 -0.57,0.54 -1.14,1.08 -1.7,1.64 -5.37,5.37 -9.7,11.79 -12.65,18.89 -2.83,6.85 -4.4,14.38 -4.4,22.28 0,7.89 1.57,15.42 4.4,22.27 2.95,7.1 7.28,13.52 12.65,18.89 5.38,5.38 11.79,9.71 18.9,12.65 6.85,2.84 14.37,4.41 22.27,4.41 7.9,0 15.43,-1.57 22.28,-4.41 7.1,-2.94 13.51,-7.27 18.89,-12.65 5.38,-5.37 9.71,-11.79 12.65,-18.89 1.16,-2.81 2.11,-5.73 2.83,-8.74 1.17,2.14 2.28,4.32 3.31,6.55zm-31.59 -20.08c0,-3.86 -0.76,-7.53 -2.14,-10.86 -1.43,-3.46 -3.54,-6.58 -6.17,-9.21 -2.62,-2.62 -5.75,-4.73 -9.2,-6.16 -3.33,-1.38 -7,-2.15 -10.86,-2.15 -3.86,0 -7.53,0.77 -10.86,2.15 -3.45,1.43 -6.57,3.54 -9.2,6.16 -2.62,2.63 -4.74,5.75 -6.17,9.21 -1.37,3.33 -2.14,7 -2.14,10.86 0,3.85 0.77,7.52 2.14,10.85 1.43,3.46 3.55,6.58 6.17,9.21 2.63,2.62 5.75,4.73 9.2,6.16 3.33,1.38 7,2.14 10.86,2.14 3.86,0 7.53,-0.76 10.86,-2.14 3.45,-1.43 6.58,-3.54 9.2,-6.16 2.63,-2.63 4.74,-5.75 6.17,-9.21 1.38,-3.33 2.14,-7 2.14,-10.85zm2.47 -12.76c1.63,3.94 2.53,8.25 2.53,12.76 0,4.5 -0.9,8.81 -2.53,12.75 -1.7,4.1 -4.18,7.78 -7.24,10.84 -3.07,3.07 -6.75,5.55 -10.85,7.24 -3.94,1.63 -8.24,2.54 -12.75,2.54 -4.5,0 -8.81,-0.91 -12.75,-2.54 -4.1,-1.69 -7.78,-4.17 -10.85,-7.24 -3.06,-3.06 -5.54,-6.74 -7.24,-10.84 -1.63,-3.94 -2.53,-8.25 -2.53,-12.75 0,-4.51 0.9,-8.82 2.53,-12.76 1.7,-4.1 4.18,-7.78 7.24,-10.84 3.07,-3.07 6.75,-5.55 10.85,-7.24 3.94,-1.63 8.25,-2.54 12.75,-2.54 2.68,0 5.28,0.32 7.79,0.92 5.9,2.79 11.51,6.1 16.77,9.86 2.62,2.85 4.76,6.18 6.28,9.84zm12.34 7.05c0.24,1.87 0.37,3.77 0.37,5.71 0,5.88 -1.18,11.5 -3.3,16.64 -2.21,5.33 -5.45,10.12 -9.46,14.14l-0.01 0.01c-4.01,4.01 -8.81,7.24 -14.13,9.45 -5.14,2.13 -10.77,3.3 -16.65,3.3 -5.88,0 -11.51,-1.17 -16.64,-3.3 -5.33,-2.21 -10.13,-5.44 -14.14,-9.45l-0.01 -0.01c-4.01,-4.02 -7.25,-8.81 -9.45,-14.14 -2.13,-5.14 -3.31,-10.76 -3.31,-16.64 0,-5.89 1.18,-11.51 3.31,-16.65 2.2,-5.33 5.44,-10.12 9.45,-14.14l0.01 -0.01c4.01,-4.01 8.81,-7.24 14.14,-9.45l0.57 -0.23c3.25,0.68 6.44,1.51 9.57,2.47 -2.87,0.49 -5.64,1.29 -8.25,2.37 -4.71,1.95 -8.95,4.82 -12.51,8.37l-0.01 0.01c-3.55,3.55 -6.41,7.79 -8.36,12.51 -1.88,4.53 -2.92,9.51 -2.92,14.75 0,5.23 1.04,10.21 2.92,14.75 1.95,4.71 4.81,8.95 8.36,12.5l0.01 0.01c3.56,3.55 7.8,6.42 12.51,8.37 4.53,1.88 9.52,2.91 14.75,2.91 5.24,0 10.22,-1.03 14.75,-2.91 4.71,-1.95 8.96,-4.82 12.51,-8.37l0.01 -0.01c3.55,-3.55 6.41,-7.79 8.37,-12.5 1.87,-4.54 2.91,-9.52 2.91,-14.75 0,-4.51 -0.77,-8.82 -2.18,-12.82 2.38,2.26 4.65,4.64 6.81,7.11zm-26.32 -11.17l0.02 0.01c2.2,2.22 3.97,4.85 5.18,7.76 1.17,2.81 1.81,5.89 1.81,9.11 0,3.21 -0.64,6.29 -1.81,9.11 -0.89,2.13 -2.08,4.12 -3.52,5.89l0.11 0.11 -1.77 1.76c-4.32,4.32 -10.29,7 -16.88,7 -3.22,0 -6.31,-0.65 -9.13,-1.82 -2.93,-1.22 -5.56,-2.99 -7.75,-5.18 -4.32,-4.31 -6.99,-10.28 -6.99,-16.87 0,-3.23 0.64,-6.31 1.81,-9.13 1.22,-2.94 3,-5.57 5.18,-7.75l1.77 -1.77 0.11 0.11c1.77,-1.44 3.75,-2.63 5.89,-3.52 2.81,-1.17 5.9,-1.82 9.11,-1.82 3.21,0 6.29,0.65 9.11,1.82 2.91,1.2 5.54,2.98 7.75,5.18zm-3.51 3.55l-0.02 -0.02c-1.74,-1.74 -3.83,-3.15 -6.13,-4.1 -2.21,-0.92 -4.65,-1.43 -7.2,-1.43 -2.55,0 -4.99,0.51 -7.2,1.43 -2.31,0.96 -4.4,2.37 -6.14,4.11l-0.36 0.36c-1.59,1.67 -2.86,3.62 -3.75,5.75 -0.91,2.22 -1.42,4.66 -1.42,7.23 0,5.2 2.12,9.93 5.53,13.34 1.75,1.75 3.82,3.15 6.12,4.1 2.22,0.92 4.66,1.43 7.22,1.43 5.03,0 9.6,-1.97 12.98,-5.18l0.35 -0.35c1.75,-1.75 3.16,-3.83 4.12,-6.14 0.91,-2.22 1.42,-4.65 1.42,-7.2 0,-2.56 -0.5,-4.99 -1.42,-7.2 -0.96,-2.31 -2.36,-4.39 -4.1,-6.13z"/>
  <path class="fil0" d="M193.17 209.65c0,-3.11 -1.25,-5.91 -3.26,-7.92l-0.02 -0.02c-2.02,-2.01 -4.82,-3.26 -7.92,-3.26 -3.1,0 -5.9,1.25 -7.91,3.26l0 0.02c-2.03,2.03 -3.28,4.83 -3.28,7.92 0,3.09 1.25,5.89 3.28,7.91 2.02,2.03 4.82,3.28 7.91,3.28 3.09,0 5.89,-1.25 7.92,-3.28l0.02 0c2.01,-2.01 3.26,-4.81 3.26,-7.91zm46.49 -40.05c-2.39,-3.44 -5.08,-6.65 -8.03,-9.61 -12.71,-12.7 -30.27,-20.56 -49.66,-20.56 -19.39,0 -36.95,7.86 -49.65,20.56 -12.71,12.71 -20.57,30.27 -20.57,49.66 0,12.08 3.05,23.45 8.42,33.38 -4.26,-0.65 -8.43,-1.54 -12.52,-2.67 -3.92,-9.46 -6.08,-19.83 -6.08,-30.71 0,-22.2 9,-42.31 23.55,-56.85 14.55,-14.55 34.65,-23.55 56.85,-23.55 22.2,0 42.3,9 56.85,23.55 1.43,1.42 2.8,2.9 4.11,4.43 -0.85,4.22 -1.95,8.34 -3.27,12.37zm-10.31 22.4c-2.56,-6.86 -6.56,-13.02 -11.64,-18.09 -9.14,-9.15 -21.78,-14.81 -35.74,-14.81 -13.96,0 -26.59,5.66 -35.74,14.81 -9.14,9.14 -14.8,21.78 -14.8,35.74 0,13.23 5.08,25.28 13.4,34.28 -2.74,0.21 -5.52,0.32 -8.32,0.32 -1.51,0 -3.01,-0.04 -4.51,-0.1 -6.78,-9.8 -10.75,-21.69 -10.75,-34.5 0,-16.77 6.8,-31.95 17.78,-42.94 10.99,-10.99 26.17,-17.78 42.94,-17.78 16.77,0 31.95,6.79 42.94,17.78 4.11,4.11 7.63,8.81 10.43,13.95 -1.78,3.91 -3.78,7.69 -5.99,11.34zm-16.51 17.65c0,-8.53 -3.46,-16.25 -9.04,-21.83 -5.59,-5.59 -13.3,-9.04 -21.83,-9.04 -8.52,0 -16.24,3.45 -21.83,9.04 -5.58,5.58 -9.04,13.3 -9.04,21.83 0,8.52 3.46,16.24 9.04,21.83 3.11,3.1 6.87,5.55 11.06,7.11 -4.57,1.54 -9.29,2.78 -14.11,3.7 -1.46,-1.11 -2.85,-2.32 -4.14,-3.62 -7.43,-7.43 -12.03,-17.69 -12.03,-29.02 0,-11.34 4.6,-21.6 12.03,-29.03 7.42,-7.43 17.69,-12.02 29.02,-12.02 11.34,0 21.6,4.59 29.02,12.02 5.76,5.76 9.81,13.21 11.35,21.54 -2.99,3.85 -6.22,7.49 -9.69,10.9 0.13,-1.12 0.19,-2.26 0.19,-3.41zm-15.78 -15.11l0.02 0.02c3.87,3.87 6.26,9.21 6.26,15.09 0,5.88 -2.39,11.22 -6.27,15.1l0.01 0.01c-3.86,3.86 -9.21,6.26 -15.11,6.26 -5.9,0 -11.25,-2.4 -15.11,-6.26 -3.87,-3.87 -6.26,-9.21 -6.26,-15.11 0,-5.9 2.39,-11.25 6.26,-15.11l0.01 0.01c3.88,-3.88 9.22,-6.28 15.1,-6.28 5.88,0 11.22,2.4 15.09,6.27z"/>
  <path class="fil1" d="M194.16 213.96c0,-1.2 -0.23,-2.33 -0.65,-3.34 -0.43,-1.05 -1.07,-2 -1.88,-2.81l-0.02 -0.01c-0.8,-0.81 -1.75,-1.45 -2.8,-1.88 -1.01,-0.42 -2.15,-0.65 -3.34,-0.65 -1.2,0 -2.33,0.23 -3.35,0.65 -0.87,0.35 -1.67,0.85 -2.36,1.46l-0.44 0.43c-0.81,0.81 -1.46,1.77 -1.9,2.83 -0.42,1.01 -0.65,2.13 -0.65,3.32 0,1.19 0.23,2.32 0.65,3.33 0.44,1.05 1.09,2.02 1.9,2.82 0.8,0.81 1.76,1.46 2.82,1.89 1.01,0.43 2.14,0.66 3.33,0.66 1.18,0 2.31,-0.23 3.32,-0.65 1.06,-0.44 2.02,-1.09 2.82,-1.9l0.44 -0.44c0.61,-0.69 1.11,-1.49 1.46,-2.36 0.42,-1.02 0.65,-2.15 0.65,-3.35zm3.96 -5.23c0.67,1.62 1.04,3.39 1.04,5.23 0,1.85 -0.37,3.62 -1.04,5.24 -0.69,1.68 -1.7,3.19 -2.96,4.45l-0.73 0.73 -0.07 0c-1.08,0.92 -2.32,1.68 -3.66,2.24 -1.63,0.67 -3.4,1.04 -5.23,1.04 -1.84,0 -3.61,-0.37 -5.23,-1.04 -1.69,-0.7 -3.2,-1.72 -4.46,-2.97 -1.25,-1.26 -2.27,-2.77 -2.97,-4.45 -0.67,-1.63 -1.04,-3.4 -1.04,-5.24 0,-1.83 0.37,-3.6 1.04,-5.22 0.56,-1.35 1.32,-2.59 2.24,-3.67l0 -0.07 0.73 -0.73c1.26,-1.26 2.77,-2.27 4.45,-2.96 1.62,-0.67 3.39,-1.04 5.24,-1.04 1.84,0 3.61,0.37 5.23,1.04 1.7,0.69 3.2,1.7 4.45,2.95l0.02 0.02c1.25,1.25 2.26,2.75 2.95,4.45zm40.65 -36.54c-1.68,-2.14 -3.49,-4.19 -5.42,-6.11 -6.25,-6.26 -13.71,-11.29 -21.98,-14.71 -7.97,-3.3 -16.72,-5.13 -25.9,-5.13 -9.19,0 -17.94,1.83 -25.91,5.13 -8.27,3.42 -15.73,8.46 -21.98,14.71 -6.25,6.25 -11.29,13.71 -14.71,21.98 -3.3,7.96 -5.12,16.72 -5.12,25.9 0,9.19 1.82,17.94 5.12,25.91 0.52,1.26 1.08,2.5 1.67,3.72 -1.96,-0.22 -3.92,-0.49 -5.85,-0.81l-0.43 -1.01c-3.55,-8.58 -5.51,-17.97 -5.51,-27.81 0,-9.83 1.96,-19.22 5.51,-27.8 3.69,-8.91 9.09,-16.93 15.78,-23.62 6.7,-6.69 14.71,-12.09 23.62,-15.78 8.58,-3.56 17.97,-5.52 27.81,-5.52 9.83,0 19.22,1.96 27.8,5.52 8.91,3.69 16.93,9.09 23.62,15.78 1.29,1.29 2.53,2.63 3.72,4.01 -0.56,1.91 -1.17,3.78 -1.84,5.64zm-131.98 67.94c-2.74,-8.23 -4.22,-17.03 -4.22,-26.17 0,-11.21 2.23,-21.92 6.28,-31.69 4.21,-10.16 10.37,-19.29 18,-26.92 7.63,-7.64 16.76,-13.79 26.92,-18 9.78,-4.05 20.48,-6.28 31.7,-6.28 11.21,0 21.92,2.23 31.69,6.28 9.86,4.08 18.76,10.01 26.25,17.33 -0.35,1.99 -0.75,3.95 -1.21,5.9 -0.54,-0.57 -1.09,-1.14 -1.65,-1.7 -7.19,-7.19 -15.77,-12.98 -25.29,-16.92 -9.16,-3.8 -19.23,-5.89 -29.79,-5.89 -10.57,0 -20.63,2.09 -29.8,5.89 -9.52,3.94 -18.09,9.73 -25.29,16.92 -7.19,7.19 -12.98,15.77 -16.92,25.29 -3.79,9.16 -5.89,19.23 -5.89,29.79 0,9.75 1.78,19.06 5.04,27.64 -1.96,-0.44 -3.9,-0.93 -5.82,-1.47zm121.93 -47.13c-2.36,-4.84 -5.51,-9.24 -9.28,-13.01 -4.43,-4.43 -9.73,-8.01 -15.6,-10.44 -5.65,-2.34 -11.85,-3.63 -18.37,-3.63 -6.53,0 -12.73,1.29 -18.38,3.63 -5.87,2.43 -11.16,6 -15.6,10.44 -4.43,4.43 -8,9.73 -10.44,15.6 -2.34,5.65 -3.63,11.85 -3.63,18.37 0,6.52 1.29,12.73 3.63,18.38 1.7,4.09 3.95,7.9 6.66,11.34 -1.95,0.2 -3.91,0.34 -5.89,0.44 -2.12,-3.07 -3.93,-6.38 -5.38,-9.87 -2.59,-6.27 -4.02,-13.12 -4.02,-20.29 0,-7.17 1.43,-14.02 4.02,-20.27 2.7,-6.51 6.64,-12.35 11.52,-17.24 4.88,-4.87 10.72,-8.81 17.23,-11.51 6.26,-2.59 13.11,-4.02 20.28,-4.02 7.17,0 14.02,1.43 20.27,4.02 6.51,2.69 12.35,6.63 17.24,11.51 3.39,3.4 6.33,7.26 8.71,11.48 -0.95,1.72 -1.94,3.41 -2.97,5.07zm1.45 -23.74c2.44,2.44 4.68,5.07 6.7,7.89 -0.76,1.81 -1.55,3.6 -2.39,5.36 -2.27,-3.51 -4.9,-6.77 -7.85,-9.72 -5.37,-5.37 -11.78,-9.7 -18.89,-12.65 -6.85,-2.83 -14.37,-4.4 -22.27,-4.4 -7.9,0 -15.43,1.57 -22.28,4.4 -7.1,2.95 -13.52,7.28 -18.89,12.65 -5.38,5.38 -9.71,11.79 -12.65,18.9 -2.84,6.85 -4.41,14.37 -4.41,22.27 0,7.9 1.57,15.43 4.41,22.28 1.15,2.78 2.51,5.45 4.07,8 -1.97,-0.02 -3.93,-0.08 -5.87,-0.2 -1.03,-1.91 -1.97,-3.88 -2.81,-5.91 -3.09,-7.45 -4.8,-15.62 -4.8,-24.17 0,-8.54 1.71,-16.71 4.8,-24.16 3.21,-7.76 7.91,-14.72 13.72,-20.54 5.82,-5.82 12.79,-10.52 20.54,-13.73 7.45,-3.08 15.62,-4.79 24.17,-4.79 8.54,0 16.71,1.71 24.16,4.79 7.75,3.21 14.72,7.91 20.54,13.73zm-16.4 42.69c-0.22,-3.12 -0.94,-6.1 -2.08,-8.84 -1.43,-3.46 -3.54,-6.58 -6.16,-9.21 -2.63,-2.62 -5.75,-4.73 -9.21,-6.16 -3.33,-1.38 -7,-2.15 -10.85,-2.15 -3.86,0 -7.53,0.77 -10.86,2.15 -3.46,1.43 -6.58,3.54 -9.2,6.16 -2.63,2.63 -4.74,5.75 -6.17,9.21 -1.38,3.33 -2.14,7 -2.14,10.85 0,3.86 0.76,7.53 2.14,10.86 1.43,3.46 3.54,6.58 6.17,9.2 1.75,1.76 3.73,3.29 5.89,4.54 -2.03,0.68 -4.08,1.3 -6.16,1.87 -1.15,-0.89 -2.25,-1.85 -3.27,-2.87 -3.07,-3.06 -5.54,-6.75 -7.24,-10.84 -1.63,-3.94 -2.53,-8.25 -2.53,-12.76 0,-4.5 0.9,-8.81 2.53,-12.75 1.7,-4.1 4.17,-7.78 7.24,-10.84 3.06,-3.07 6.74,-5.55 10.84,-7.24 3.94,-1.64 8.25,-2.54 12.76,-2.54 4.5,0 8.81,0.9 12.75,2.53 4.1,1.7 7.78,4.18 10.84,7.25 3.07,3.06 5.55,6.74 7.24,10.84 0.8,1.93 1.43,3.94 1.85,6.03 -1.41,1.61 -2.87,3.18 -4.38,4.71zm2.48 -28.78l0.01 0.01c4.01,4.01 7.24,8.81 9.45,14.14l0.06 0.16c-1.14,1.64 -2.32,3.25 -3.54,4.83 -0.33,-1.05 -0.71,-2.09 -1.13,-3.1 -1.95,-4.71 -4.82,-8.95 -8.37,-12.5l-0.01 -0.01c-3.55,-3.55 -7.79,-6.42 -12.5,-8.37 -4.54,-1.88 -9.52,-2.91 -14.75,-2.91 -5.24,0 -10.22,1.03 -14.75,2.91 -4.71,1.95 -8.96,4.82 -12.51,8.37l-0.01 0.01c-3.55,3.55 -6.42,7.79 -8.37,12.5 -1.87,4.54 -2.91,9.52 -2.91,14.75 0,5.24 1.04,10.22 2.91,14.75 1.95,4.71 4.82,8.96 8.37,12.51l0.01 0.01c0.24,0.24 0.47,0.47 0.72,0.7 -1.95,0.41 -3.92,0.77 -5.91,1.07 -3.25,-3.63 -5.9,-7.82 -7.8,-12.39 -2.13,-5.14 -3.3,-10.76 -3.3,-16.65 0,-5.88 1.17,-11.5 3.3,-16.64 2.21,-5.33 5.44,-10.13 9.45,-14.14l0.01 -0.01c4.02,-4.01 8.82,-7.24 14.14,-9.45 5.14,-2.13 10.76,-3.31 16.65,-3.31 5.88,0 11.5,1.18 16.64,3.31 5.33,2.21 10.13,5.44 14.14,9.45zm-13.93 13.91l0.03 0.02c2.19,2.22 3.97,4.85 5.17,7.76 1.17,2.81 1.82,5.89 1.82,9.1 0,0.79 -0.04,1.57 -0.12,2.34 -2.11,1.91 -4.31,3.74 -6.58,5.48 0.1,-0.2 0.18,-0.41 0.27,-0.62 0.92,-2.21 1.43,-4.64 1.43,-7.2 0,-2.55 -0.51,-4.98 -1.43,-7.19 -0.95,-2.31 -2.36,-4.39 -4.1,-6.14l-0.02 -0.01c-1.74,-1.74 -3.82,-3.15 -6.13,-4.1 -2.21,-0.92 -4.64,-1.43 -7.19,-1.43 -2.56,0 -4.99,0.51 -7.2,1.43 -2.32,0.96 -4.4,2.37 -6.15,4.11l-0.36 0.36c-1.58,1.67 -2.86,3.62 -3.74,5.75 -0.92,2.22 -1.43,4.66 -1.43,7.22 0,5.21 2.12,9.93 5.53,13.35 1.75,1.75 3.83,3.15 6.12,4.1 2.09,0.86 4.38,1.36 6.78,1.42 -2.56,1.27 -5.16,2.45 -7.82,3.53 -0.29,-0.11 -0.58,-0.22 -0.86,-0.34 -2.94,-1.22 -5.57,-2.99 -7.75,-5.18 -4.32,-4.31 -7,-10.29 -7,-16.88 0,-3.22 0.65,-6.31 1.82,-9.12 1.22,-2.94 2.99,-5.57 5.18,-7.76l1.76 -1.76 0.11 0.1c1.78,-1.44 3.76,-2.63 5.89,-3.51 2.82,-1.17 5.9,-1.82 9.12,-1.82 3.21,0 6.29,0.65 9.1,1.81 2.91,1.21 5.54,2.98 7.75,5.18z"/>
  <path class="fil0" d="M68.67 121.45c0,-3.11 -1.25,-5.91 -3.26,-7.92l-0.02 -0.02c-2.01,-2.01 -4.81,-3.26 -7.92,-3.26 -3.1,0 -5.9,1.25 -7.91,3.26l0 0.02c-2.03,2.02 -3.28,4.83 -3.28,7.92 0,3.09 1.25,5.89 3.28,7.91 2.02,2.03 4.82,3.28 7.91,3.28 3.09,0 5.9,-1.25 7.92,-3.28l0.02 0c2.01,-2.01 3.26,-4.81 3.26,-7.91zm59.02 0c0,-19.39 -7.86,-36.95 -20.56,-49.66 -10.49,-10.48 -24.27,-17.67 -39.67,-19.86 3.54,-2.92 7.27,-5.61 11.16,-8.07 13.7,3.72 25.95,10.98 35.7,20.74 14.55,14.55 23.55,34.65 23.55,56.85 0,22.2 -9,42.3 -23.55,56.85 -14.55,14.54 -34.65,23.54 -56.85,23.54 -2.45,0 -4.88,-0.11 -7.28,-0.33 -2.78,-3.64 -5.34,-7.46 -7.65,-11.44 4.82,1.04 9.81,1.6 14.93,1.6 19.39,0 36.95,-7.86 49.66,-20.57 12.7,-12.71 20.56,-30.26 20.56,-49.65zm-19.67 0c0,-13.96 -5.66,-26.6 -14.81,-35.74 -9.14,-9.15 -21.78,-14.81 -35.74,-14.81 -2.93,0 -5.8,0.25 -8.59,0.73 2.81,-3.83 5.85,-7.48 9.12,-10.9 16.56,0.14 31.54,6.91 42.41,17.78 10.99,10.99 17.79,26.17 17.79,42.94 0,16.76 -6.8,31.94 -17.79,42.93 -10.99,10.99 -26.17,17.79 -42.94,17.79 -7.28,0 -14.26,-1.28 -20.72,-3.63 -1.87,-4.34 -3.46,-8.82 -4.75,-13.43 7.48,4.37 16.18,6.88 25.47,6.88 13.96,0 26.6,-5.66 35.74,-14.8 9.15,-9.15 14.81,-21.79 14.81,-35.74zm-19.68 0c0,-8.53 -3.45,-16.25 -9.04,-21.83 -5.58,-5.59 -13.3,-9.04 -21.83,-9.04 -8.52,0 -16.24,3.45 -21.83,9.04 -0.88,0.88 -1.71,1.81 -2.48,2.8 2.1,-6.51 4.78,-12.75 8.01,-18.65 4.99,-2.17 10.51,-3.37 16.3,-3.37 11.34,0 21.6,4.59 29.03,12.02 7.42,7.43 12.02,17.69 12.02,29.03 0,11.33 -4.6,21.59 -12.02,29.02 -7.43,7.43 -17.7,12.02 -29.03,12.02 -11.03,0 -21.05,-4.35 -28.42,-11.43 -0.72,-5.02 -1.09,-10.15 -1.09,-15.36 0,-1.62 0.04,-3.22 0.11,-4.82 1.52,4.73 4.14,8.97 7.57,12.4 5.59,5.58 13.31,9.04 21.83,9.04 8.53,0 16.25,-3.46 21.83,-9.04 5.59,-5.59 9.04,-13.31 9.04,-21.83zm-15.78 -15.12l0.02 0.02c3.87,3.88 6.26,9.22 6.26,15.1 0,5.88 -2.39,11.22 -6.27,15.1l0.01 0.01c-3.86,3.86 -9.21,6.26 -15.11,6.26 -5.9,0 -11.24,-2.4 -15.11,-6.26 -3.87,-3.87 -6.26,-9.21 -6.26,-15.11 0,-5.9 2.39,-11.25 6.26,-15.12l0.01 0.02c3.88,-3.88 9.22,-6.28 15.1,-6.28 5.88,0 11.22,2.4 15.09,6.26z"/>
  <path class="fil1" d="M60.76 122.51c0,-1.2 -0.24,-2.33 -0.65,-3.34 -0.43,-1.05 -1.08,-2 -1.88,-2.8l-0.02 -0.02c-0.8,-0.81 -1.76,-1.45 -2.8,-1.88 -1.02,-0.42 -2.15,-0.65 -3.35,-0.65 -1.2,0 -2.33,0.23 -3.34,0.65 -0.87,0.35 -1.67,0.85 -2.37,1.46l-0.44 0.44c-0.8,0.8 -1.45,1.76 -1.89,2.82 -0.42,1.01 -0.65,2.13 -0.65,3.32 0,1.19 0.23,2.32 0.65,3.33 0.44,1.05 1.09,2.02 1.89,2.82 0.81,0.81 1.77,1.46 2.83,1.9 1.01,0.42 2.13,0.65 3.32,0.65 1.19,0 2.32,-0.23 3.33,-0.65 1.05,-0.44 2.02,-1.09 2.82,-1.9l0.44 -0.44c0.6,-0.69 1.1,-1.49 1.46,-2.36 0.42,-1.02 0.65,-2.15 0.65,-3.35zm3.96 -5.23c0.67,1.62 1.04,3.39 1.04,5.23 0,1.85 -0.37,3.62 -1.04,5.24 -0.69,1.68 -1.71,3.19 -2.96,4.45l-0.74 0.73 -0.07 0c-1.08,0.92 -2.31,1.68 -3.65,2.24 -1.63,0.67 -3.4,1.04 -5.24,1.04 -1.84,0 -3.61,-0.37 -5.23,-1.04 -1.69,-0.7 -3.2,-1.72 -4.45,-2.97 -1.26,-1.26 -2.27,-2.77 -2.97,-4.45 -0.67,-1.63 -1.04,-3.4 -1.04,-5.24 0,-1.84 0.37,-3.6 1.04,-5.23 0.56,-1.34 1.32,-2.58 2.24,-3.66l0 -0.07 0.73 -0.73c1.26,-1.26 2.77,-2.27 4.44,-2.96 1.63,-0.67 3.4,-1.04 5.24,-1.04 1.84,0 3.62,0.37 5.24,1.04 1.69,0.69 3.2,1.7 4.45,2.95l0.02 0.02c1.24,1.24 2.25,2.75 2.95,4.45zm55.06 5.23c0,-9.18 -1.82,-17.94 -5.12,-25.9 -3.42,-8.27 -8.46,-15.73 -14.71,-21.98 -6.25,-6.26 -13.71,-11.29 -21.98,-14.72 -4.69,-1.94 -9.66,-3.37 -14.82,-4.22 1.55,-1.43 3.16,-2.81 4.8,-4.15 4.11,0.92 8.09,2.18 11.92,3.76 8.91,3.7 16.92,9.1 23.61,15.79 6.7,6.69 12.1,14.71 15.79,23.62 3.55,8.58 5.51,17.97 5.51,27.8 0,9.84 -1.96,19.23 -5.51,27.81 -3.69,8.91 -9.09,16.92 -15.79,23.62 -6.69,6.69 -14.7,12.09 -23.61,15.78 -8.58,3.55 -17.97,5.51 -27.81,5.51 -2.19,0 -4.36,-0.09 -6.51,-0.28 -1.16,-1.78 -2.27,-3.58 -3.32,-5.43 3.21,0.47 6.49,0.71 9.83,0.71 9.19,0 17.94,-1.82 25.91,-5.12 8.27,-3.42 15.73,-8.46 21.98,-14.71 6.25,-6.25 11.29,-13.71 14.71,-21.98 3.3,-7.97 5.12,-16.72 5.12,-25.91zm-9.1 -58.62c7.63,7.64 13.79,16.77 18,26.93 4.04,9.77 6.28,20.48 6.28,31.69 0,11.22 -2.24,21.92 -6.28,31.7 -4.21,10.16 -10.37,19.29 -18,26.92 -7.63,7.63 -16.76,13.79 -26.93,18 -9.41,3.89 -19.69,6.11 -30.45,6.27 -1.37,-1.64 -2.7,-3.32 -3.98,-5.04 0.91,0.03 1.82,0.05 2.74,0.05 10.57,0 20.63,-2.1 29.8,-5.89 9.51,-3.94 18.09,-9.73 25.28,-16.92 7.19,-7.2 12.99,-15.77 16.93,-25.29 3.79,-9.16 5.89,-19.23 5.89,-29.8 0,-10.56 -2.1,-20.63 -5.89,-29.79 -3.94,-9.52 -9.74,-18.1 -16.93,-25.29 -7.19,-7.19 -15.77,-12.98 -25.28,-16.92 -2.81,-1.16 -5.7,-2.17 -8.66,-3 1.73,-1.24 3.5,-2.44 5.3,-3.58 1.78,0.6 3.53,1.26 5.25,1.97 10.17,4.21 19.3,10.36 26.93,17.99zm-10.57 58.62c0,-6.52 -1.29,-12.72 -3.63,-18.37 -2.44,-5.87 -6.01,-11.17 -10.44,-15.6 -4.44,-4.43 -9.73,-8.01 -15.6,-10.44 -5.65,-2.34 -11.86,-3.63 -18.38,-3.63 -1.82,0 -3.63,0.1 -5.4,0.3 1.22,-1.8 2.5,-3.56 3.83,-5.28 0.52,-0.01 1.05,-0.02 1.57,-0.02 7.17,0 14.02,1.43 20.28,4.02 6.51,2.69 12.35,6.63 17.23,11.51 4.88,4.89 8.82,10.73 11.52,17.23 2.59,6.26 4.02,13.11 4.02,20.28 0,14.65 -5.94,27.91 -15.54,37.51 -4.88,4.88 -10.72,8.82 -17.22,11.52 -6.27,2.59 -13.12,4.02 -20.29,4.02 -6.19,0 -12.15,-1.07 -17.69,-3.03 -0.73,-2.03 -1.4,-4.1 -2.01,-6.18 0.44,0.2 0.88,0.39 1.33,0.57 5.65,2.35 11.85,3.64 18.37,3.64 6.52,0 12.73,-1.29 18.38,-3.63 5.87,-2.44 11.16,-6.01 15.6,-10.44 8.69,-8.7 14.07,-20.71 14.07,-33.98zm-3.34 -44.7c5.81,5.82 10.51,12.78 13.72,20.53 3.09,7.46 4.8,15.63 4.8,24.17 0,8.55 -1.71,16.72 -4.8,24.17 -3.21,7.75 -7.91,14.72 -13.72,20.54 -5.82,5.81 -12.79,10.51 -20.54,13.72 -7.45,3.09 -15.62,4.8 -24.17,4.8 -4.29,0 -8.48,-0.43 -12.54,-1.25 -0.95,-1.89 -1.85,-3.81 -2.69,-5.76 4.85,1.31 9.96,2 15.23,2 7.9,0 15.43,-1.56 22.28,-4.4 7.1,-2.94 13.51,-7.27 18.89,-12.65 5.38,-5.37 9.71,-11.79 12.65,-18.89 2.84,-6.85 4.4,-14.38 4.4,-22.28 0,-7.9 -1.56,-15.42 -4.4,-22.27 -2.94,-7.11 -7.27,-13.52 -12.65,-18.9 -5.38,-5.37 -11.79,-9.7 -18.89,-12.65 -6.09,-2.51 -12.7,-4.03 -19.64,-4.34 1.4,-1.6 2.85,-3.16 4.33,-4.68 6.02,0.67 11.8,2.18 17.2,4.41 7.75,3.21 14.72,7.91 20.54,13.73zm-16.34 44.7c0,-3.85 -0.76,-7.52 -2.14,-10.85 -1.43,-3.46 -3.54,-6.58 -6.17,-9.21 -2.62,-2.62 -5.75,-4.73 -9.2,-6.16 -3.33,-1.38 -7,-2.15 -10.86,-2.15 -3.85,0 -7.52,0.77 -10.85,2.15 -2.76,1.14 -5.31,2.72 -7.57,4.64 0.93,-2.74 1.97,-5.42 3.1,-8.06 0.84,-0.43 1.69,-0.83 2.57,-1.19 3.94,-1.63 8.25,-2.54 12.75,-2.54 4.51,0 8.82,0.91 12.75,2.54 4.1,1.69 7.78,4.17 10.85,7.24 3.07,3.06 5.54,6.74 7.24,10.84 1.63,3.94 2.53,8.25 2.53,12.75 0,4.51 -0.9,8.82 -2.53,12.76 -1.7,4.1 -4.17,7.77 -7.24,10.84 -3.07,3.07 -6.75,5.55 -10.84,7.24 -3.94,1.63 -8.25,2.53 -12.76,2.53 -4.5,0 -8.81,-0.9 -12.75,-2.53 -4.1,-1.69 -7.78,-4.17 -10.84,-7.24l-0.01 -0.01c-0.27,-2.82 -0.43,-5.68 -0.48,-8.57 1.15,1.83 2.5,3.52 4.02,5.04 2.62,2.62 5.75,4.74 9.21,6.17 3.33,1.38 7,2.14 10.85,2.14 3.86,0 7.52,-0.76 10.85,-2.14 3.47,-1.43 6.59,-3.55 9.21,-6.17 2.63,-2.62 4.74,-5.75 6.17,-9.2 1.38,-3.33 2.14,-7 2.14,-10.86zm2.41 -30.79l0.01 0.01c4.02,4.01 7.25,8.81 9.46,14.14 2.13,5.14 3.3,10.76 3.3,16.64 0,5.89 -1.17,11.51 -3.3,16.65 -2.22,5.34 -5.45,10.14 -9.46,14.15 -4,4 -8.79,7.23 -14.14,9.44 -5.13,2.14 -10.76,3.31 -16.65,3.31 -5.89,0 -11.51,-1.17 -16.65,-3.3 -1.58,-0.66 -3.11,-1.4 -4.59,-2.23 -0.53,-2.24 -0.98,-4.5 -1.36,-6.78 2.43,1.76 5.06,3.24 7.85,4.4 4.54,1.87 9.53,2.91 14.75,2.91 5.23,0 10.21,-1.04 14.74,-2.91 4.71,-1.95 8.96,-4.82 12.52,-8.38 3.56,-3.57 6.43,-7.81 8.38,-12.51 1.87,-4.53 2.91,-9.51 2.91,-14.75 0,-5.23 -1.04,-10.21 -2.91,-14.75 -1.96,-4.71 -4.82,-8.95 -8.37,-12.5l-0.01 -0.01c-3.55,-3.55 -7.8,-6.42 -12.51,-8.37 -4.53,-1.88 -9.51,-2.92 -14.75,-2.92 -4.2,0 -8.24,0.67 -12.01,1.91 1.06,-2.06 2.19,-4.07 3.38,-6.04 2.79,-0.57 5.68,-0.87 8.63,-0.87 5.89,0 11.51,1.18 16.65,3.31 5.32,2.21 10.12,5.44 14.13,9.45zm-13.92 13.91l0.02 0.02c2.2,2.22 3.97,4.85 5.18,7.76 1.17,2.81 1.82,5.89 1.82,9.1 0,3.22 -0.65,6.3 -1.82,9.12 -0.89,2.13 -2.08,4.11 -3.52,5.89l0.11 0.1 -1.77 1.77c-4.32,4.32 -10.29,7 -16.88,7 -3.22,0 -6.31,-0.65 -9.13,-1.82 -2.93,-1.22 -5.56,-2.99 -7.75,-5.18 -3.59,-3.59 -6.04,-8.32 -6.77,-13.6 0.42,-4.6 1.12,-9.11 2.09,-13.52 1.19,-2.49 2.78,-4.73 4.68,-6.64l1.77 -1.76 0.11 0.1c1.77,-1.44 3.75,-2.63 5.89,-3.51 2.81,-1.17 5.9,-1.82 9.11,-1.82 3.22,0 6.29,0.65 9.11,1.82 2.91,1.2 5.54,2.98 7.75,5.17zm-3.51 3.55l-0.02 -0.01c-1.74,-1.74 -3.82,-3.15 -6.13,-4.1 -2.21,-0.92 -4.64,-1.43 -7.2,-1.43 -2.55,0 -4.99,0.51 -7.2,1.43 -2.31,0.96 -4.39,2.37 -6.14,4.11l-0.36 0.36c-1.58,1.67 -2.86,3.62 -3.74,5.75 -0.92,2.22 -1.43,4.66 -1.43,7.22 0,5.21 2.12,9.93 5.53,13.35 1.75,1.75 3.83,3.15 6.12,4.1 2.22,0.92 4.66,1.43 7.22,1.43 5.03,0 9.6,-1.97 12.98,-5.18l0.36 -0.35c1.74,-1.75 3.15,-3.84 4.11,-6.15 0.92,-2.21 1.43,-4.64 1.43,-7.2 0,-2.55 -0.51,-4.98 -1.43,-7.19 -0.96,-2.31 -2.36,-4.39 -4.1,-6.14z"/>
  <path class="fil1" d="M135.7 271.39c-74.83,0 -135.7,-60.87 -135.7,-135.69 0,-74.83 60.87,-135.7 135.7,-135.7 74.82,0 135.69,60.87 135.69,135.7 0,74.82 -60.87,135.69 -135.69,135.69zm0 -265.96c-71.84,0 -130.27,58.43 -130.27,130.27 0,71.83 58.43,130.26 130.27,130.26 71.83,0 130.26,-58.43 130.26,-130.26 0,-71.84 -58.43,-130.27 -130.26,-130.27z"/>
 </g>
</svg>
