<!--?xml version="1.0" standalone="no"?-->
<svg id="sw-js-blob-svg" viewBox="0 0 100 100" xmlns="http://www.w3.org/2000/svg" version="1.1">
    <defs>
        <linearGradient id="sw-gradient" x1="0" x2="1" y1="1" y2="0">
            <stop id="stop1" stop-color="rgba(249, 50, 44, 0.5)" offset="0%"></stop>
            <stop id="stop2" stop-color="rgba(249, 50, 44, 1)" offset="100%"></stop>
        </linearGradient>
    </defs>
    <path fill="url(#sw-gradient)"
          d="M12.1,-17C15.5,-14.2,17.8,-10.4,22.4,-5.2C27,0,33.9,6.6,33.5,11.9C33.2,17.2,25.7,21.1,18.9,25.3C12.1,29.6,6.1,34.2,1,32.8C-4.2,31.5,-8.3,24.3,-12.8,19.4C-17.3,14.4,-22.2,11.6,-27.2,6.4C-32.3,1.2,-37.4,-6.3,-35.3,-11.1C-33.2,-15.8,-23.8,-17.8,-16.7,-19.3C-9.6,-20.8,-4.8,-21.9,-0.2,-21.6C4.4,-21.3,8.8,-19.7,12.1,-17Z"
          width="100%" height="100%" transform="translate(50 50)" stroke-width="0" style="transition: 0.3s;"
          stroke="url(#sw-gradient)"></path>
</svg>
