<svg xmlns="http://www.w3.org/2000/svg" xmlns:xlink="http://www.w3.org/1999/xlink" version="1.1" x="0" y="0"
     xml:space="preserve" viewBox="242.07 146.4 333.06 507.21"><defs><style>:root{fill:#222}.accent{fill:#f9322c}@media (prefers-color-scheme:dark){:root{fill:#f9322c}.accent{fill:#dee2e6}}</style></defs>
    <g><path class="accent3" d="M418.338,178.16l0.129-0.067 c2.968,4.326,2.903,11.36,0,15.681v0.064C415.5,189.515,415.435,182.481,418.338,178.16L418.338,178.16z" fill-rule="evenodd" clip-rule="evenodd"/>
        <path class="accent3"
              d="M430.468,183.064l0.129,0.063 c-1.033,5.164-6.001,10.132-11.163,11.102l0,0C420.403,189.128,425.307,184.096,430.468,183.064L430.468,183.064z"
              fill-rule="evenodd" clip-rule="evenodd"/>
        <path class="accent3"
              d="M435.501,195.13l0.064,0.129 c-4.388,2.903-11.421,2.903-15.68-0.066l-0.064,0.066C424.145,192.29,431.113,192.227,435.501,195.13L435.501,195.13z"
              fill-rule="evenodd" clip-rule="evenodd"/>
        <path class="accent3"
              d="M430.532,207.259v0.131 c-5.161-1.034-10.129-6.066-11.099-11.164l-0.065-0.064C424.531,197.131,429.499,202.098,430.532,207.259L430.532,207.259z"
              fill-rule="evenodd" clip-rule="evenodd"/>
        <path class="accent3"
              d="M418.531,212.294l-0.129,0.064 c-2.967-4.388-2.902-11.422,0.065-15.744h-0.065C421.37,200.873,421.435,207.906,418.531,212.294L418.531,212.294z"
              fill-rule="evenodd" clip-rule="evenodd"/>
        <path class="accent3"
              d="M406.401,207.326l-0.129-0.066 c1.032-5.095,6-10.066,11.161-11.033v-0.064C416.467,201.324,411.563,206.294,406.401,207.326L406.401,207.326z"
              fill-rule="evenodd" clip-rule="evenodd"/>
        <path class="accent3"
              d="M401.369,195.259l-0.064-0.129 c4.388-2.903,11.419-2.841,15.678,0.063h0.064C412.724,198.163,405.757,198.163,401.369,195.259L401.369,195.259z"
              fill-rule="evenodd" clip-rule="evenodd"/>
        <path class="accent3"
              d="M406.337,183.193v-0.129c5.162,1.032,10.13,6,11.097,11.164 h0.064C412.337,193.259,407.369,188.355,406.337,183.193L406.337,183.193z"
              fill-rule="evenodd" clip-rule="evenodd"/>
        <path class="accent3"
              d="M417.629,195.84c0.387,0.387,0.967,0.516,1.418,0.129 c0.451-0.322,0.516-0.905,0.193-1.354c-0.387-0.454-0.967-0.518-1.418-0.196C417.369,194.744,417.305,195.388,417.629,195.84 L417.629,195.84z"
              fill-rule="evenodd" clip-rule="evenodd"/>
        <path class="accent3"
              d="M398.595,256.881l0.129-0.062 c2.903,4.386,2.903,11.42-0.064,15.743l0.064,0.064C395.754,268.303,395.69,261.269,398.595,256.881L398.595,256.881z"
              fill-rule="evenodd" clip-rule="evenodd"/>
        <path class="accent3"
              d="M410.725,261.852l0.129,0.063 c-1.033,5.162-6.065,10.065-11.163,11.035v0.065C400.594,267.916,405.563,262.883,410.725,261.852L410.725,261.852z"
              fill-rule="evenodd" clip-rule="evenodd"/>
        <path class="accent3"
              d="M415.758,273.918l0.065,0.129 c-4.388,2.903-11.421,2.903-15.745-0.066l0,0C404.337,271.077,411.37,271.013,415.758,273.918L415.758,273.918z"
              fill-rule="evenodd" clip-rule="evenodd"/>
        <path class="accent3"
              d="M410.789,285.984l-0.065,0.191 c-5.097-1.032-10.066-6.065-11.034-11.162l-0.064-0.064C404.788,275.917,409.756,280.885,410.789,285.984L410.789,285.984z"
              fill-rule="evenodd" clip-rule="evenodd"/>
        <path class="accent3"
              d="M398.724,291.08l-0.129,0.067 c-2.905-4.388-2.841-11.422,0.065-15.746v-0.065C401.627,279.658,401.627,286.691,398.724,291.08L398.724,291.08z"
              fill-rule="evenodd" clip-rule="evenodd"/>
        <path class="accent3"
              d="M386.659,286.113l-0.129-0.066 c1.031-5.162,6-10.066,11.161-11.033v-0.064C396.724,280.111,391.82,285.08,386.659,286.113L386.659,286.113z"
              fill-rule="evenodd" clip-rule="evenodd"/>
        <path class="accent3"
              d="M381.626,274.047l-0.065-0.129 c4.321-2.905,11.354-2.905,15.678,0.063h0.064C392.98,276.95,385.947,276.95,381.626,274.047L381.626,274.047z"
              fill-rule="evenodd" clip-rule="evenodd"/>
        <path class="accent3"
              d="M386.53,261.98l0.064-0.129 c5.162,1.032,10.129,6,11.096,11.097v0.065C392.594,272.046,387.625,267.076,386.53,261.98L386.53,261.98z"
              fill-rule="evenodd" clip-rule="evenodd"/>
        <path class="accent3"
              d="M397.884,274.563c0.322,0.452,0.969,0.516,1.42,0.191 c0.387-0.32,0.516-0.965,0.129-1.354c-0.322-0.451-0.902-0.516-1.356-0.193C397.626,273.529,397.561,274.176,397.884,274.563 L397.884,274.563z"
              fill-rule="evenodd" clip-rule="evenodd"/>
        <path class="accent3"
              d="M369.432,332.25l0.129-0.066 c3.355,5.099,3.355,13.293-0.064,18.262v0.065C366.075,345.541,366.011,337.345,369.432,332.25L369.432,332.25z"
              fill-rule="evenodd" clip-rule="evenodd"/>
        <path class="accent3"
              d="M383.496,338.056l0.129,0.064 c-1.225,5.938-7.033,11.744-12.968,12.842l-0.064,0.062C371.752,345.025,377.496,339.216,383.496,338.056L383.496,338.056z"
              fill-rule="evenodd" clip-rule="evenodd"/>
        <path class="accent3"
              d="M389.368,352.057l0.064,0.131 c-5.097,3.421-13.293,3.354-18.26-0.065h-0.129C376.076,348.704,384.271,348.704,389.368,352.057L389.368,352.057z"
              fill-rule="evenodd" clip-rule="evenodd"/>
        <path class="accent3"
              d="M383.56,366.124l-0.064,0.129 c-5.935-1.16-11.743-6.967-12.839-12.969h-0.064C376.592,354.382,382.4,360.124,383.56,366.124L383.56,366.124z"
              fill-rule="evenodd" clip-rule="evenodd"/>
        <path class="accent3"
              d="M369.56,371.997l-0.129,0.064 c-3.421-5.098-3.356-13.229,0.065-18.262v-0.062C372.915,358.77,372.915,366.899,369.56,371.997L369.56,371.997z"
              fill-rule="evenodd" clip-rule="evenodd"/>
        <path class="accent3"
              d="M355.495,366.252l-0.129-0.062 c1.161-6.002,6.969-11.747,12.968-12.907v-0.063C367.238,359.219,361.494,365.028,355.495,366.252L355.495,366.252z"
              fill-rule="evenodd" clip-rule="evenodd"/>
        <path class="accent3"
              d="M349.622,352.188l-0.065-0.131 c5.097-3.353,13.228-3.353,18.261,0.066h0.064C362.85,355.542,354.719,355.609,349.622,352.188L349.622,352.188z"
              fill-rule="evenodd" clip-rule="evenodd"/>
        <path class="accent3"
              d="M355.366,338.121l0.064-0.129 c6,1.225,11.743,7.034,12.904,12.971v0.062C362.399,349.865,356.591,344.121,355.366,338.121L355.366,338.121z"
              fill-rule="evenodd" clip-rule="evenodd"/>
        <path class="accent3"
              d="M368.592,352.832c0.387,0.518,1.098,0.58,1.614,0.193 c0.516-0.387,0.58-1.098,0.193-1.614c-0.387-0.516-1.098-0.578-1.614-0.191C368.27,351.607,368.205,352.316,368.592,352.832 L368.592,352.832z"
              fill-rule="evenodd" clip-rule="evenodd"/>
        <path class="accent3"
              d="M490.215,359.931l0.193-0.065 c3.355,5.033,3.355,13.23-0.064,18.262v0.062C486.923,373.157,486.858,364.963,490.215,359.931L490.215,359.931z"
              fill-rule="evenodd" clip-rule="evenodd"/>
        <path class="accent3"
              d="M504.279,365.675l0.195,0.062 c-1.227,6.002-7.033,11.747-12.97,12.842l-0.065,0.064C492.602,372.708,498.344,366.899,504.279,365.675L504.279,365.675z"
              fill-rule="evenodd" clip-rule="evenodd"/>
        <path class="accent3"
              d="M510.151,379.675l0.064,0.129 c-5.032,3.419-13.228,3.356-18.26-0.063l-0.064,0.063C496.924,376.32,505.055,376.32,510.151,379.675L510.151,379.675z"
              fill-rule="evenodd" clip-rule="evenodd"/>
        <path class="accent3"
              d="M504.41,393.742l-0.065,0.193 c-6.002-1.225-11.743-7.031-12.841-12.971l-0.065-0.062C497.377,381.998,503.184,387.74,504.41,393.742L504.41,393.742z"
              fill-rule="evenodd" clip-rule="evenodd"/>
        <path class="accent3"
              d="M490.408,399.615l-0.193,0.063 c-3.356-5.095-3.292-13.227,0.129-18.26l-0.064-0.065C493.698,386.386,493.763,394.516,490.408,399.615L490.408,399.615z"
              fill-rule="evenodd" clip-rule="evenodd"/>
        <path class="accent3"
              d="M476.343,393.871l-0.193-0.064 c1.225-6,7.033-11.744,12.968-12.842l0.064-0.062C488.086,386.837,482.342,392.644,476.343,393.871L476.343,393.871z"
              fill-rule="evenodd" clip-rule="evenodd"/>
        <path class="accent3"
              d="M470.47,379.871l-0.064-0.195 c5.035-3.355,13.229-3.355,18.261,0.066h0.065C483.698,383.161,475.569,383.223,470.47,379.871L470.47,379.871z"
              fill-rule="evenodd" clip-rule="evenodd"/>
        <path class="accent3"
              d="M476.214,365.804l0.064-0.196 c5.999,1.227,11.743,7.034,12.839,12.971l0.064,0.064C483.247,377.483,477.438,371.739,476.214,365.804L476.214,365.804z"
              fill-rule="evenodd" clip-rule="evenodd"/>
        <path class="accent3"
              d="M489.375,380.449c0.451,0.516,1.162,0.583,1.613,0.196 c0.517-0.387,0.646-1.099,0.258-1.614c-0.387-0.451-1.16-0.582-1.613-0.193C489.117,379.224,488.988,380,489.375,380.449 L489.375,380.449z"
              fill-rule="evenodd" clip-rule="evenodd"/>
        <path class="accent3"
              d="M310.201,463.754l0.129-0.065 c3.418,5.098,3.354,13.292-0.064,18.263l0.064,0.061C306.846,477.047,306.846,468.853,310.201,463.754L310.201,463.754z"
              fill-rule="evenodd" clip-rule="evenodd"/>
        <path class="accent3"
              d="M324.267,469.56l0.193,0.067 c-1.227,5.934-7.033,11.741-12.97,12.84l-0.064,0.065C312.523,476.531,318.265,470.723,324.267,469.56L324.267,469.56z"
              fill-rule="evenodd" clip-rule="evenodd"/>
        <path class="accent3"
              d="M330.137,483.565l0.065,0.129 c-5.097,3.419-13.226,3.355-18.258-0.066h-0.064C316.911,480.208,325.04,480.208,330.137,483.565L330.137,483.565z"
              fill-rule="evenodd" clip-rule="evenodd"/>
        <path class="accent3"
              d="M324.395,497.63l-0.064,0.129 c-6.002-1.163-11.743-6.97-12.841-12.969h-0.064C317.362,485.886,323.168,491.63,324.395,497.63L324.395,497.63z"
              fill-rule="evenodd" clip-rule="evenodd"/>
        <path class="accent3"
              d="M310.394,503.501l-0.193,0.066 c-3.354-5.1-3.354-13.23,0.064-18.262v-0.064C313.684,490.273,313.748,498.405,310.394,503.501L310.394,503.501z"
              fill-rule="evenodd" clip-rule="evenodd"/>
        <path class="accent3"
              d="M296.328,497.759l-0.193-0.064 c1.227-6.002,7.033-11.742,12.968-12.904l0.066-0.064C308.007,490.728,302.265,496.534,296.328,497.759L296.328,497.759z"
              fill-rule="evenodd" clip-rule="evenodd"/>
        <path class="accent3"
              d="M290.457,483.693l-0.064-0.129 c5.032-3.357,13.226-3.357,18.258,0.063h0.064C303.683,487.048,295.49,487.112,290.457,483.693L290.457,483.693z"
              fill-rule="evenodd" clip-rule="evenodd"/>
        <path class="accent3"
              d="M296.199,469.627l0.065-0.129 c6.001,1.225,11.743,7.033,12.839,12.969l0.066,0.065C303.232,481.368,297.426,475.627,296.199,469.627L296.199,469.627z"
              fill-rule="evenodd" clip-rule="evenodd"/>
        <path class="accent3"
              d="M309.362,484.338c0.387,0.517,1.161,0.581,1.612,0.191 c0.516-0.387,0.582-1.094,0.193-1.611c-0.387-0.516-1.096-0.58-1.612-0.193C309.102,483.111,308.974,483.822,309.362,484.338 L309.362,484.338z"
              fill-rule="evenodd" clip-rule="evenodd"/>
        <path class="accent3"
              d="M488.473,446.525l0.129-0.064 c3.419,5.097,3.354,13.229-0.065,18.262l0.065,0.063C485.118,459.752,485.118,451.622,488.473,446.525L488.473,446.525z"
              fill-rule="evenodd" clip-rule="evenodd"/>
        <path class="accent3"
              d="M502.538,452.27l0.129,0.063 c-1.162,6.002-6.968,11.746-12.97,12.906v0.063C490.795,459.303,496.537,453.494,502.538,452.27L502.538,452.27z"
              fill-rule="evenodd" clip-rule="evenodd"/>
        <path class="accent3"
              d="M508.409,466.334l0.064,0.132 c-5.097,3.352-13.226,3.352-18.259-0.067h-0.064C495.184,462.979,503.313,462.913,508.409,466.334L508.409,466.334z"
              fill-rule="evenodd" clip-rule="evenodd"/>
        <path class="accent3"
              d="M502.667,480.401l-0.065,0.129 c-6.001-1.225-11.743-7.033-12.905-12.971v-0.063C495.635,468.657,501.44,474.401,502.667,480.401L502.667,480.401z"
              fill-rule="evenodd" clip-rule="evenodd"/>
        <path class="accent3"
              d="M488.666,486.272l-0.193,0.066 c-3.354-5.1-3.354-13.293,0.064-18.262v-0.064C491.956,472.981,492.02,481.178,488.666,486.272L488.666,486.272z"
              fill-rule="evenodd" clip-rule="evenodd"/>
        <path class="accent3"
              d="M474.535,480.466l-0.129-0.064 c1.228-5.938,7.033-11.744,12.968-12.842l0.064-0.063C486.278,473.497,480.537,479.306,474.535,480.466L474.535,480.466z"
              fill-rule="evenodd" clip-rule="evenodd"/>
        <path class="accent3"
              d="M468.665,466.466l-0.064-0.132 c5.097-3.421,13.29-3.355,18.322,0.064h0.064C481.955,469.817,473.762,469.817,468.665,466.466L468.665,466.466z"
              fill-rule="evenodd" clip-rule="evenodd"/>
        <path class="accent3"
              d="M474.471,452.398l0.064-0.129 c5.938,1.16,11.743,6.967,12.839,12.969h0.064C481.439,464.141,475.634,458.398,474.471,452.398L474.471,452.398z"
              fill-rule="evenodd" clip-rule="evenodd"/>
        <path class="accent3"
              d="M487.635,467.11c0.387,0.516,1.096,0.578,1.611,0.191 c0.516-0.388,0.58-1.097,0.193-1.612c-0.387-0.518-1.096-0.58-1.611-0.193C487.374,465.883,487.245,466.595,487.635,467.11 L487.635,467.11z"
              fill-rule="evenodd" clip-rule="evenodd"/>
        <path class="accent3"
              d="M434.791,494.469l0.13-0.065 c3.418,5.033,3.353,13.227-0.065,18.26l0.065,0.066C431.435,507.697,431.435,499.566,434.791,494.469L434.791,494.469z"
              fill-rule="evenodd" clip-rule="evenodd"/>
        <path class="accent3"
              d="M448.855,500.211l0.195,0.066 c-1.227,5.998-7.033,11.742-12.97,12.84l-0.064,0.063C437.114,507.244,442.855,501.438,448.855,500.211L448.855,500.211z"
              fill-rule="evenodd" clip-rule="evenodd"/>
        <path class="accent3"
              d="M454.727,514.213l0.065,0.193 c-5.097,3.357-13.228,3.357-18.26-0.129l-0.064,0.065C441.5,510.921,449.631,510.858,454.727,514.213L454.727,514.213z"
              fill-rule="evenodd" clip-rule="evenodd"/>
        <path class="accent3"
              d="M448.986,528.28l-0.064,0.193 c-6.002-1.227-11.743-7.033-12.841-12.969l-0.064-0.066C441.953,516.536,447.76,522.343,448.986,528.28L448.986,528.28z"
              fill-rule="evenodd" clip-rule="evenodd"/>
        <path class="accent3"
              d="M434.985,534.151l-0.194,0.066 c-3.355-5.032-3.355-13.228,0.065-18.264v-0.063C438.274,520.925,438.339,529.054,434.985,534.151L434.985,534.151z"
              fill-rule="evenodd" clip-rule="evenodd"/>
        <path class="accent3"
              d="M420.919,528.409l-0.193-0.064 c1.225-6.002,7.033-11.744,12.968-12.84l0.064-0.066C432.598,521.376,426.853,527.185,420.919,528.409L420.919,528.409z"
              fill-rule="evenodd" clip-rule="evenodd"/>
        <path class="accent3"
              d="M415.046,514.406l-0.065-0.193 c5.035-3.354,13.229-3.292,18.261,0.129l0.064-0.065C428.274,517.697,420.081,517.764,415.046,514.406L415.046,514.406z"
              fill-rule="evenodd" clip-rule="evenodd"/>
        <path class="accent3"
              d="M420.79,500.34l0.064-0.193 c5.999,1.225,11.743,7.033,12.839,12.971l0.064,0.063C427.823,512.084,422.015,506.275,420.79,500.34L420.79,500.34z"
              fill-rule="evenodd" clip-rule="evenodd"/>
        <path class="accent3"
              d="M433.951,514.989c0.387,0.516,1.163,0.644,1.614,0.258 c0.516-0.387,0.645-1.163,0.193-1.614c-0.387-0.516-1.097-0.645-1.614-0.258C433.693,513.826,433.564,514.535,433.951,514.989 L433.951,514.989z"
              fill-rule="evenodd" clip-rule="evenodd"/>
        <path class="accent3"
              d="M409.047,439.233h0.129 c2.323,3.486,2.259,9.097-0.064,12.582v0.065C406.724,448.397,406.724,442.781,409.047,439.233L409.047,439.233z"
              fill-rule="evenodd" clip-rule="evenodd"/>
        <path class="accent3"
              d="M418.789,443.235l0.064,0.061 c-0.838,4.131-4.839,8.067-8.969,8.844v0.063C410.66,448.072,414.595,444.073,418.789,443.235L418.789,443.235z"
              fill-rule="evenodd" clip-rule="evenodd"/>
        <path class="accent3"
              d="M422.791,452.914l0.065,0.129 c-3.486,2.32-9.163,2.32-12.584-0.066h-0.064C413.628,450.589,419.305,450.589,422.791,452.914L422.791,452.914z"
              fill-rule="evenodd" clip-rule="evenodd"/>
        <path class="accent3"
              d="M418.853,462.655l-0.064,0.066 c-4.13-0.84-8.129-4.842-8.904-8.97l0,0C414.015,454.528,418.016,458.527,418.853,462.655L418.853,462.655z"
              fill-rule="evenodd" clip-rule="evenodd"/>
        <path class="accent3"
              d="M409.176,466.724h-0.129 c-2.323-3.486-2.323-9.163,0.064-12.585v-0.065C411.435,457.56,411.499,463.173,409.176,466.724L409.176,466.724z"
              fill-rule="evenodd" clip-rule="evenodd"/>
        <path class="accent3"
              d="M399.433,462.722l-0.129-0.066 c0.838-4.128,4.839-8.065,8.969-8.903h0.065C407.563,457.88,403.563,461.882,399.433,462.722L399.433,462.722z"
              fill-rule="evenodd" clip-rule="evenodd"/>
        <path class="accent3"
              d="M395.368,453.043l-0.064-0.129 c3.55-2.325,9.163-2.325,12.648,0.063h0.064C404.53,455.302,398.917,455.363,395.368,453.043L395.368,453.043z"
              fill-rule="evenodd" clip-rule="evenodd"/>
        <path class="accent3"
              d="M399.369,443.297v-0.061 c4.195,0.773,8.129,4.774,8.905,8.905l0.065,0.063C404.208,451.429,400.206,447.428,399.369,443.297L399.369,443.297z"
              fill-rule="evenodd" clip-rule="evenodd"/>
        <path class="accent3"
              d="M408.467,453.43c0.258,0.387,0.773,0.451,1.096,0.193 c0.387-0.322,0.451-0.775,0.129-1.162c-0.258-0.32-0.709-0.387-1.096-0.129C408.273,452.59,408.209,453.105,408.467,453.43 L408.467,453.43z"
              fill-rule="evenodd" clip-rule="evenodd"/>
        <path class="accent3"
              d="M376.463,411.166l0.129-0.066 c2.323,3.485,2.323,9.163-0.065,12.648l0,0C374.206,420.327,374.14,414.647,376.463,411.166L376.463,411.166z"
              fill-rule="evenodd" clip-rule="evenodd"/>
        <path class="accent3"
              d="M386.205,415.101l0.131,0.064 c-0.84,4.128-4.839,8.13-8.969,8.903h-0.064C378.076,419.94,382.078,415.941,386.205,415.101L386.205,415.101z"
              fill-rule="evenodd" clip-rule="evenodd"/>
        <path class="accent3"
              d="M390.27,424.779v0.129 c-3.483,2.323-9.098,2.323-12.581-0.064h-0.064C381.108,422.522,386.723,422.457,390.27,424.779L390.27,424.779z"
              fill-rule="evenodd" clip-rule="evenodd"/>
        <path class="accent3"
              d="M386.272,434.523l-0.067,0.129 c-4.128-0.838-8.064-4.84-8.838-8.97l-0.064-0.063C381.433,426.394,385.432,430.396,386.272,434.523L386.272,434.523z"
              fill-rule="evenodd" clip-rule="evenodd"/>
        <path class="accent3"
              d="M376.592,438.589l-0.129,0.063 c-2.323-3.548-2.256-9.161,0.064-12.645v-0.066C378.915,429.426,378.915,435.039,376.592,438.589L376.592,438.589z"
              fill-rule="evenodd" clip-rule="evenodd"/>
        <path class="accent3"
              d="M366.849,434.588h-0.064c0.84-4.131,4.839-8.132,8.969-8.905 v-0.063C374.98,429.748,370.979,433.747,366.849,434.588L366.849,434.588z"
              fill-rule="evenodd" clip-rule="evenodd"/>
        <path class="accent3"
              d="M362.786,424.908v-0.064c3.483-2.387,9.163-2.322,12.581,0 h0.064C371.948,427.231,366.333,427.231,362.786,424.908L362.786,424.908z"
              fill-rule="evenodd" clip-rule="evenodd"/>
        <path class="accent3"
              d="M366.785,415.229l0.064-0.129 c4.13,0.841,8.066,4.84,8.904,8.968l0,0C371.624,423.295,367.624,419.36,366.785,415.229L366.785,415.229z"
              fill-rule="evenodd" clip-rule="evenodd"/>
        <path class="accent3"
              d="M375.882,425.36c0.322,0.322,0.776,0.389,1.163,0.131 c0.322-0.26,0.387-0.776,0.129-1.099c-0.258-0.387-0.775-0.453-1.098-0.129C375.689,424.522,375.624,425.037,375.882,425.36 L375.882,425.36z"
              fill-rule="evenodd" clip-rule="evenodd"/>
        <path class="accent3"
              d="M330.266,421.939l0.064-0.061 c1.485,2.32,1.485,6.002-0.064,8.258l0,0C328.783,427.879,328.719,424.197,330.266,421.939L330.266,421.939z"
              fill-rule="evenodd" clip-rule="evenodd"/>
        <path class="accent3"
              d="M336.59,424.522h0.065c-0.516,2.71-3.161,5.291-5.806,5.807 h-0.066C331.299,427.683,333.88,425.037,336.59,424.522L336.59,424.522z"
              fill-rule="evenodd" clip-rule="evenodd"/>
        <path class="accent3"
              d="M339.235,430.844v0.067 c-2.258,1.482-5.935,1.482-8.193-0.067h-0.064C333.235,429.297,336.912,429.297,339.235,430.844L339.235,430.844z"
              fill-rule="evenodd" clip-rule="evenodd"/>
        <path class="accent3"
              d="M336.654,437.169l-0.065,0.064 c-2.709-0.581-5.29-3.161-5.742-5.874h-0.066C333.493,431.878,336.074,434.459,336.654,437.169L336.654,437.169z"
              fill-rule="evenodd" clip-rule="evenodd"/>
        <path class="accent3"
              d="M330.33,439.814h-0.064c-1.547-2.256-1.482-5.938,0-8.193 v-0.064C331.815,433.815,331.815,437.491,330.33,439.814L330.33,439.814z"
              fill-rule="evenodd" clip-rule="evenodd"/>
        <path class="accent3"
              d="M324.009,437.169h-0.064c0.516-2.71,3.161-5.291,5.806-5.81 l0,0C329.299,434.072,326.718,436.652,324.009,437.169L324.009,437.169z"
              fill-rule="evenodd" clip-rule="evenodd"/>
        <path class="accent3"
              d="M321.363,430.911l-0.064-0.067 c2.323-1.547,5.999-1.547,8.258,0l0,0C327.298,432.394,323.622,432.394,321.363,430.911L321.363,430.911z"
              fill-rule="evenodd" clip-rule="evenodd"/>
        <path class="accent3"
              d="M323.944,424.586v-0.064c2.709,0.516,5.29,3.097,5.806,5.807 h0.064C327.105,429.813,324.524,427.231,323.944,424.586L323.944,424.586z"
              fill-rule="evenodd" clip-rule="evenodd"/>
        <path class="accent3"
              d="M329.879,431.169c0.193,0.258,0.516,0.258,0.709,0.062 c0.26-0.129,0.26-0.448,0.129-0.706c-0.193-0.196-0.516-0.261-0.774-0.067C329.75,430.653,329.685,430.973,329.879,431.169 L329.879,431.169z"
              fill-rule="evenodd" clip-rule="evenodd"/>
        <path class="accent3"
              d="M358.656,493.306h0.064c1.549,2.259,1.549,5.938,0,8.194l0,0 C357.171,499.308,357.171,495.631,358.656,493.306L358.656,493.306z"
              fill-rule="evenodd" clip-rule="evenodd"/>
        <path class="accent3"
              d="M364.979,495.889l0.064,0.063 c-0.517,2.646-3.099,5.291-5.808,5.744v0.064C359.754,499.05,362.335,496.467,364.979,495.889L364.979,495.889z"
              fill-rule="evenodd" clip-rule="evenodd"/>
        <path class="accent3"
              d="M367.624,502.211l0.065,0.064 c-2.323,1.55-6.002,1.483-8.26,0l0,0C361.688,500.727,365.366,500.664,367.624,502.211L367.624,502.211z"
              fill-rule="evenodd" clip-rule="evenodd"/>
        <path class="accent3"
              d="M365.044,508.533v0.067c-2.709-0.517-5.29-3.161-5.808-5.807 l0,0C361.881,503.243,364.526,505.826,365.044,508.533L365.044,508.533z"
              fill-rule="evenodd" clip-rule="evenodd"/>
        <path class="accent3"
              d="M358.72,511.181h-0.064 c-1.485-2.258-1.485-5.938,0.064-8.195l0,0C360.27,505.243,360.27,508.923,358.72,511.181L358.72,511.181z"
              fill-rule="evenodd" clip-rule="evenodd"/>
        <path class="accent3"
              d="M352.396,508.601l-0.065-0.067 c0.583-2.646,3.163-5.224,5.873-5.739v-0.067C357.688,505.44,355.108,508.018,352.396,508.601L352.396,508.601z"
              fill-rule="evenodd" clip-rule="evenodd"/>
        <path class="accent3"
              d="M349.751,502.275v-0.064 c2.258-1.484,5.937-1.484,8.196,0.064l0.064-0.064C355.753,503.759,352.074,503.825,349.751,502.275L349.751,502.275z"
              fill-rule="evenodd" clip-rule="evenodd"/>
        <path class="accent3"
              d="M352.396,495.951v-0.063 c2.711,0.517,5.292,3.161,5.808,5.807v0.064C355.495,501.242,352.914,498.663,352.396,495.951L352.396,495.951z"
              fill-rule="evenodd" clip-rule="evenodd"/>
        <path class="accent3"
              d="M358.269,502.598c0.193,0.196,0.516,0.258,0.773,0.067 c0.193-0.196,0.258-0.518,0.064-0.712c-0.193-0.258-0.516-0.258-0.709-0.129C358.14,502.018,358.14,502.34,358.269,502.598 L358.269,502.598z"
              fill-rule="evenodd" clip-rule="evenodd"/>
        <path class="accent3"
              d="M489.182,413.616l0.065-0.063 c1.549,2.32,1.549,5.997,0,8.194v0.062C487.699,419.551,487.699,415.874,489.182,413.616L489.182,413.616z"
              fill-rule="evenodd" clip-rule="evenodd"/>
        <path class="accent3"
              d="M495.506,416.199h0.064 c-0.516,2.707-3.097,5.291-5.809,5.807l0,0C490.279,419.36,492.86,416.715,495.506,416.199L495.506,416.199z"
              fill-rule="evenodd" clip-rule="evenodd"/>
        <path class="accent3"
              d="M498.15,422.457l0.064,0.129 c-2.322,1.482-6.001,1.482-8.258-0.064l0,0C492.214,420.974,495.893,420.974,498.15,422.457L498.15,422.457z"
              fill-rule="evenodd" clip-rule="evenodd"/>
        <path class="accent3"
              d="M495.57,428.844v0.066c-2.71-0.582-5.291-3.161-5.809-5.873 l0,0C492.409,423.553,495.055,426.136,495.57,428.844L495.57,428.844z"
              fill-rule="evenodd" clip-rule="evenodd"/>
        <path class="accent3"
              d="M489.246,431.427l-0.065,0.062 c-1.482-2.256-1.482-5.935,0.065-8.193v-0.063C490.795,425.491,490.795,429.168,489.246,431.427L489.246,431.427z"
              fill-rule="evenodd" clip-rule="evenodd"/>
        <path class="accent3"
              d="M482.925,428.844h-0.064c0.58-2.708,3.16-5.291,5.87-5.807 l0,0C488.215,425.683,485.634,428.328,482.925,428.844L482.925,428.844z"
              fill-rule="evenodd" clip-rule="evenodd"/>
        <path class="accent3"
              d="M480.279,422.586v-0.064c2.256-1.548,5.935-1.548,8.193,0 h0.064C486.278,424.068,482.6,424.068,480.279,422.586L480.279,422.586z"
              fill-rule="evenodd" clip-rule="evenodd"/>
        <path class="accent3"
              d="M482.925,416.262v-0.13c2.709,0.583,5.29,3.161,5.806,5.874 l0,0C486.02,421.49,483.44,418.906,482.925,416.262L482.925,416.262z"
              fill-rule="evenodd" clip-rule="evenodd"/>
        <path class="accent3"
              d="M488.859,422.844c0.129,0.193,0.451,0.26,0.709,0.064 c0.193-0.129,0.258-0.451,0.064-0.709c-0.193-0.193-0.516-0.261-0.709-0.064C488.666,422.264,488.666,422.586,488.859,422.844 L488.859,422.844z"
              fill-rule="evenodd" clip-rule="evenodd"/>
        <path class="accent3"
              d="M480.602,317.729h0.064c1.482,2.258,1.482,5.938-0.064,8.196 l0,0C479.053,323.731,479.053,320.054,480.602,317.729L480.602,317.729z"
              fill-rule="evenodd" clip-rule="evenodd"/>
        <path class="accent3"
              d="M486.923,320.312l0.064,0.063 c-0.58,2.645-3.16,5.293-5.87,5.744v0.064C481.633,323.473,484.214,320.892,486.923,320.312L486.923,320.312z"
              fill-rule="evenodd" clip-rule="evenodd"/>
        <path class="accent3"
              d="M489.568,326.634v0.067c-2.259,1.547-5.935,1.482-8.193,0 h-0.065C483.569,325.149,487.245,325.149,489.568,326.634L489.568,326.634z"
              fill-rule="evenodd" clip-rule="evenodd"/>
        <path class="accent3"
              d="M486.923,332.959v0.064c-2.709-0.516-5.29-3.161-5.806-5.807 l0,0C483.827,327.666,486.407,330.249,486.923,332.959L486.923,332.959z"
              fill-rule="evenodd" clip-rule="evenodd"/>
        <path class="accent3"
              d="M480.666,335.604h-0.064c-1.549-2.258-1.549-5.938,0-8.196 l0,0C482.148,329.667,482.148,333.346,480.666,335.604L480.666,335.604z"
              fill-rule="evenodd" clip-rule="evenodd"/>
        <path class="accent3"
              d="M474.342,333.023l-0.065-0.064 c0.516-2.648,3.097-5.227,5.807-5.742v-0.067C479.568,329.862,476.987,332.441,474.342,333.023L474.342,333.023z"
              fill-rule="evenodd" clip-rule="evenodd"/>
        <path class="accent3"
              d="M471.697,326.701l-0.065-0.067 c2.322-1.485,5.999-1.485,8.258,0.067v-0.067C477.632,328.184,473.955,328.248,471.697,326.701L471.697,326.701z"
              fill-rule="evenodd" clip-rule="evenodd"/>
        <path class="accent3"
              d="M474.277,320.375v-0.063c2.71,0.516,5.291,3.161,5.807,5.807 v0.064C477.438,325.668,474.793,323.086,474.277,320.375L474.277,320.375z"
              fill-rule="evenodd" clip-rule="evenodd"/>
        <path class="accent3"
              d="M480.213,327.021c0.195,0.196,0.518,0.258,0.711,0.067 c0.258-0.196,0.258-0.518,0.064-0.711c-0.129-0.258-0.451-0.258-0.709-0.129C480.084,326.441,480.02,326.763,480.213,327.021 L480.213,327.021z"
              fill-rule="evenodd" clip-rule="evenodd"/>
        <path class="accent3"
              d="M360.785,244.881h0.064c1.485,2.256,1.485,5.935-0.064,8.194 v0.063C359.3,250.881,359.236,247.202,360.785,244.881L360.785,244.881z"
              fill-rule="evenodd" clip-rule="evenodd"/>
        <path class="accent3"
              d="M367.109,247.46l0.064,0.066 c-0.517,2.708-3.163,5.291-5.808,5.742l-0.064,0.064C361.816,250.621,364.397,248.042,367.109,247.46L367.109,247.46z"
              fill-rule="evenodd" clip-rule="evenodd"/>
        <path class="accent3"
              d="M369.754,253.784v0.064c-2.258,1.547-5.937,1.547-8.195,0 h-0.065C363.752,252.302,367.431,252.302,369.754,253.784L369.754,253.784z"
              fill-rule="evenodd" clip-rule="evenodd"/>
        <path class="accent3"
              d="M367.173,260.109l-0.064,0.062 c-2.647-0.516-5.293-3.161-5.744-5.806h-0.064C364.01,254.818,366.591,257.397,367.173,260.109L367.173,260.109z"
              fill-rule="evenodd" clip-rule="evenodd"/>
        <path class="accent3"
              d="M360.85,262.754l-0.064,0.063 c-1.549-2.321-1.485-5.998,0-8.256l0,0C362.335,256.819,362.335,260.496,360.85,262.754L360.85,262.754z"
              fill-rule="evenodd" clip-rule="evenodd"/>
        <path class="accent3"
              d="M354.526,260.171h-0.065c0.518-2.707,3.163-5.29,5.809-5.806 V254.3C359.818,257.01,357.235,259.655,354.526,260.171L354.526,260.171z"
              fill-rule="evenodd" clip-rule="evenodd"/>
        <path class="accent3"
              d="M351.88,253.849l-0.065-0.064 c2.323-1.482,6.002-1.482,8.26,0.064l0,0C357.818,255.334,354.139,255.396,351.88,253.849L351.88,253.849z"
              fill-rule="evenodd" clip-rule="evenodd"/>
        <path class="accent3"
              d="M354.461,247.526l0.065-0.066 c2.645,0.516,5.228,3.161,5.744,5.873h0.065C357.624,252.817,355.043,250.234,354.461,247.526L354.461,247.526z"
              fill-rule="evenodd" clip-rule="evenodd"/>
        <path class="accent3"
              d="M360.398,254.171c0.193,0.194,0.516,0.26,0.709,0.065 c0.258-0.194,0.258-0.516,0.129-0.709c-0.193-0.258-0.516-0.258-0.773-0.129C360.27,253.591,360.205,253.913,360.398,254.171 L360.398,254.171z"
              fill-rule="evenodd" clip-rule="evenodd"/>
        <path class="accent3"
              d="M355.172,272.366l0.064-0.062 c2.387,3.483,2.323,9.163,0,12.582v0.065C352.85,281.467,352.85,275.852,355.172,272.366L355.172,272.366z"
              fill-rule="evenodd" clip-rule="evenodd"/>
        <path class="accent3"
              d="M364.851,276.306l0.129,0.062 c-0.84,4.13-4.839,8.132-8.969,8.905l0,0C356.784,281.143,360.721,277.142,364.851,276.306L364.851,276.306z"
              fill-rule="evenodd" clip-rule="evenodd"/>
        <path class="accent3"
              d="M368.914,285.984l0.064,0.129 c-3.483,2.321-9.16,2.321-12.645-0.066l0,0C359.754,283.726,365.431,283.659,368.914,285.984L368.914,285.984z"
              fill-rule="evenodd" clip-rule="evenodd"/>
        <path class="accent3"
              d="M364.979,295.726l-0.064,0.129 c-4.13-0.838-8.131-4.837-8.904-8.967v-0.067C360.076,287.596,364.139,291.595,364.979,295.726L364.979,295.726z"
              fill-rule="evenodd" clip-rule="evenodd"/>
        <path class="accent3"
              d="M355.237,299.792l-0.064,0.064 c-2.323-3.548-2.323-9.163,0.064-12.646l-0.064-0.065C357.56,290.631,357.624,296.241,355.237,299.792L355.237,299.792z"
              fill-rule="evenodd" clip-rule="evenodd"/>
        <path class="accent3"
              d="M345.559,295.793h-0.129 c0.838-4.197,4.839-8.132,8.967-8.905v-0.067C353.623,290.951,349.686,294.952,345.559,295.793L345.559,295.793z"
              fill-rule="evenodd" clip-rule="evenodd"/>
        <path class="accent3"
              d="M341.493,286.113l-0.065-0.129 c3.548-2.325,9.163-2.258,12.646,0.063h0.065C350.656,288.434,344.977,288.434,341.493,286.113L341.493,286.113z"
              fill-rule="evenodd" clip-rule="evenodd"/>
        <path class="accent3"
              d="M345.494,276.368v-0.062 c4.128,0.836,8.129,4.837,8.902,8.967h0.064C350.333,284.5,346.332,280.563,345.494,276.368L345.494,276.368z"
              fill-rule="evenodd" clip-rule="evenodd"/>
        <path class="accent3"
              d="M354.59,286.563c0.258,0.325,0.775,0.387,1.098,0.129 c0.387-0.258,0.451-0.773,0.129-1.096c-0.258-0.387-0.774-0.452-1.098-0.193C354.396,285.727,354.332,286.176,354.59,286.563 L354.59,286.563z"
              fill-rule="evenodd" clip-rule="evenodd"/>
        <path class="accent3"
              d="M453.179,294.952l0.065-0.064c1.549,2.323,1.549,6,0,8.196 v0.062C451.696,300.888,451.696,297.211,453.179,294.952L453.179,294.952z"
              fill-rule="evenodd" clip-rule="evenodd"/>
        <path class="accent3"
              d="M459.503,297.533h0.064c-0.516,2.71-3.097,5.293-5.807,5.809 l0,0C454.276,300.696,456.857,298.051,459.503,297.533L459.503,297.533z"
              fill-rule="evenodd" clip-rule="evenodd"/>
        <path class="accent3"
              d="M462.147,303.791l0.064,0.131 c-2.322,1.483-5.999,1.483-8.258-0.065l0,0C456.213,302.308,459.89,302.308,462.147,303.791L462.147,303.791z"
              fill-rule="evenodd" clip-rule="evenodd"/>
        <path class="accent3"
              d="M459.567,310.18v0.066c-2.71-0.582-5.291-3.163-5.807-5.873 l0,0C456.406,304.889,459.052,307.472,459.567,310.18L459.567,310.18z"
              fill-rule="evenodd" clip-rule="evenodd"/>
        <path class="accent3"
              d="M453.243,312.763l-0.065,0.063 c-1.482-2.259-1.482-5.936,0.065-8.194v-0.064C454.792,306.825,454.792,310.504,453.243,312.763L453.243,312.763z"
              fill-rule="evenodd" clip-rule="evenodd"/>
        <path class="accent3"
              d="M446.922,310.18h-0.064c0.58-2.707,3.16-5.291,5.87-5.807 l0,0C452.212,307.019,449.631,309.664,446.922,310.18L446.922,310.18z"
              fill-rule="evenodd" clip-rule="evenodd"/>
        <path class="accent3"
              d="M444.276,303.922v-0.065c2.259-1.549,5.934-1.549,8.193,0 h0.064C450.275,305.405,446.6,305.405,444.276,303.922L444.276,303.922z"
              fill-rule="evenodd" clip-rule="evenodd"/>
        <path class="accent3"
              d="M446.922,297.598v-0.129c2.709,0.582,5.29,3.161,5.806,5.873 l0,0C450.018,302.826,447.438,300.243,446.922,297.598L446.922,297.598z"
              fill-rule="evenodd" clip-rule="evenodd"/>
        <path class="accent3"
              d="M452.856,304.18c0.129,0.193,0.451,0.258,0.709,0.064 c0.195-0.129,0.26-0.453,0.064-0.711c-0.193-0.191-0.516-0.258-0.709-0.062C452.663,303.6,452.663,303.922,452.856,304.18 L452.856,304.18z"
              fill-rule="evenodd" clip-rule="evenodd"/>
        <path class="accent3"
              d="M273.746,455.946h0.064c1.547,2.259,1.483,5.936-0.064,8.194 l0.064,0.066C272.262,461.948,272.197,458.27,273.746,455.946L273.746,455.946z"
              fill-rule="evenodd" clip-rule="evenodd"/>
        <path class="accent3"
              d="M280.068,458.592h0.064c-0.516,2.71-3.161,5.291-5.806,5.807 h-0.064C274.778,461.69,277.358,459.107,280.068,458.592L280.068,458.592z"
              fill-rule="evenodd" clip-rule="evenodd"/>
        <path class="accent3"
              d="M282.715,464.852v0.063c-2.258,1.552-5.937,1.552-8.195,0 l0,0C276.714,463.366,280.393,463.366,282.715,464.852L282.715,464.852z"
              fill-rule="evenodd" clip-rule="evenodd"/>
        <path class="accent3"
              d="M280.132,471.174l-0.064,0.065 c-2.645-0.516-5.29-3.097-5.741-5.807h-0.064C276.972,465.947,279.552,468.528,280.132,471.174L280.132,471.174z"
              fill-rule="evenodd" clip-rule="evenodd"/>
        <path class="accent3"
              d="M273.81,473.819l-0.064,0.066 c-1.549-2.325-1.484-6.002,0-8.261l0,0C275.293,467.884,275.358,471.56,273.81,473.819L273.81,473.819z"
              fill-rule="evenodd" clip-rule="evenodd"/>
        <path class="accent3"
              d="M267.487,471.238h-0.064c0.516-2.71,3.163-5.291,5.808-5.807 h0.064C272.777,468.077,270.196,470.723,267.487,471.238L267.487,471.238z"
              fill-rule="evenodd" clip-rule="evenodd"/>
        <path class="accent3"
              d="M264.842,464.914v-0.063 c2.258-1.485,5.937-1.485,8.195,0.063l0,0C270.779,466.466,267.1,466.466,264.842,464.914L264.842,464.914z"
              fill-rule="evenodd" clip-rule="evenodd"/>
        <path class="accent3"
              d="M267.422,458.592l0.064-0.064 c2.645,0.58,5.226,3.163,5.744,5.871h0.064C270.585,463.883,268.002,461.302,267.422,458.592L267.422,458.592z"
              fill-rule="evenodd" clip-rule="evenodd"/>
        <path class="accent3"
              d="M273.359,465.238c0.193,0.193,0.516,0.258,0.709,0.063 c0.258-0.191,0.258-0.516,0.129-0.707c-0.193-0.258-0.516-0.258-0.71-0.066C273.23,464.656,273.166,464.98,273.359,465.238 L273.359,465.238z"
              fill-rule="evenodd" clip-rule="evenodd"/>
        <path class="accent3"
              d="M299.424,391.354l0.067-0.064 c1.482,2.259,1.482,5.938-0.067,8.196v0.063C297.877,397.29,297.877,393.613,299.424,391.354L299.424,391.354z"
              fill-rule="evenodd" clip-rule="evenodd"/>
        <path class="accent3"
              d="M305.748,393.935h0.065c-0.58,2.71-3.161,5.293-5.87,5.809 l0,0C300.458,397.099,303.039,394.454,305.748,393.935L305.748,393.935z"
              fill-rule="evenodd" clip-rule="evenodd"/>
        <path class="accent3"
              d="M308.394,400.193v0.067c-2.259,1.547-5.935,1.547-8.193,0 h-0.065C302.394,398.71,306.07,398.71,308.394,400.193L308.394,400.193z"
              fill-rule="evenodd" clip-rule="evenodd"/>
        <path class="accent3"
              d="M305.748,406.52v0.13c-2.709-0.583-5.29-3.164-5.806-5.874 l0,0C302.587,401.292,305.232,403.875,305.748,406.52L305.748,406.52z"
              fill-rule="evenodd" clip-rule="evenodd"/>
        <path class="accent3"
              d="M299.491,409.165l-0.067,0.063c-1.547-2.32-1.547-6,0-8.194 v-0.064C300.974,403.228,300.974,406.907,299.491,409.165L299.491,409.165z"
              fill-rule="evenodd" clip-rule="evenodd"/>
        <path class="accent3"
              d="M293.167,406.582h-0.065c0.516-2.707,3.097-5.29,5.806-5.806 l0,0C298.393,403.421,295.813,406.066,293.167,406.582L293.167,406.582z"
              fill-rule="evenodd" clip-rule="evenodd"/>
        <path class="accent3"
              d="M290.522,400.325l-0.065-0.131 c2.323-1.483,6-1.483,8.258,0.067l0,0C296.457,401.808,292.78,401.808,290.522,400.325L290.522,400.325z"
              fill-rule="evenodd" clip-rule="evenodd"/>
        <path class="accent3"
              d="M293.102,393.935v-0.064c2.71,0.583,5.291,3.161,5.806,5.873 l0,0C296.264,399.228,293.618,396.646,293.102,393.935L293.102,393.935z"
              fill-rule="evenodd" clip-rule="evenodd"/>
        <path class="accent3"
              d="M299.038,400.582c0.193,0.193,0.518,0.258,0.711,0.065 c0.258-0.129,0.258-0.454,0.065-0.712c-0.129-0.191-0.454-0.258-0.711-0.063C298.909,400.002,298.844,400.325,299.038,400.582 L299.038,400.582z"
              fill-rule="evenodd" clip-rule="evenodd"/>
        <path class="accent3"
              d="M320.652,333.861h0.065c1.549,2.258,1.549,5.938,0,8.196 v0.062C319.169,339.861,319.169,336.185,320.652,333.861L320.652,333.861z"
              fill-rule="evenodd" clip-rule="evenodd"/>
        <path class="accent3"
              d="M326.976,336.442l0.064,0.066 c-0.516,2.708-3.096,5.291-5.806,5.74v0.067C321.75,339.603,324.331,337.024,326.976,336.442L326.976,336.442z"
              fill-rule="evenodd" clip-rule="evenodd"/>
        <path class="accent3"
              d="M329.621,342.767l0.064,0.064 c-2.323,1.547-5.999,1.547-8.258,0l0,0C323.686,341.284,327.363,341.284,329.621,342.767L329.621,342.767z"
              fill-rule="evenodd" clip-rule="evenodd"/>
        <path class="accent3"
              d="M327.04,349.091v0.063c-2.709-0.516-5.29-3.161-5.806-5.807 l0,0C323.88,343.8,326.525,346.379,327.04,349.091L327.04,349.091z"
              fill-rule="evenodd" clip-rule="evenodd"/>
        <path class="accent3"
              d="M320.717,351.736l-0.065,0.063 c-1.483-2.321-1.483-6,0.065-8.256l0,0C322.266,345.799,322.266,349.478,320.717,351.736L320.717,351.736z"
              fill-rule="evenodd" clip-rule="evenodd"/>
        <path class="accent3"
              d="M314.395,349.153h-0.064c0.58-2.707,3.161-5.291,5.871-5.807 v-0.065C319.685,345.992,317.104,348.638,314.395,349.153L314.395,349.153z"
              fill-rule="evenodd" clip-rule="evenodd"/>
        <path class="accent3"
              d="M311.75,342.831v-0.064c2.258-1.483,5.935-1.483,8.193,0.064 h0.064C317.749,344.316,314.073,344.378,311.75,342.831L311.75,342.831z"
              fill-rule="evenodd" clip-rule="evenodd"/>
        <path class="accent3"
              d="M314.395,336.509v-0.066c2.71,0.582,5.29,3.161,5.806,5.873 l0,0C317.491,341.8,314.911,339.216,314.395,336.509L314.395,336.509z"
              fill-rule="evenodd" clip-rule="evenodd"/>
        <path class="accent3"
              d="M320.266,343.153c0.193,0.193,0.516,0.258,0.773,0.065 c0.195-0.193,0.26-0.516,0.064-0.709c-0.193-0.26-0.516-0.26-0.709-0.131C320.137,342.573,320.137,342.896,320.266,343.153 L320.266,343.153z"
              fill-rule="evenodd" clip-rule="evenodd"/>
        <path class="accent3"
              d="M406.079,390.839l0.064-0.064 c1.548,2.323,1.483,6-0.064,8.259h0.064C404.595,396.774,404.53,393.098,406.079,390.839L406.079,390.839z"
              fill-rule="evenodd" clip-rule="evenodd"/>
        <path class="accent3"
              d="M412.401,393.42l0.064,0.065 c-0.516,2.646-3.161,5.226-5.807,5.744l-0.064,0.063C407.11,396.583,409.691,394,412.401,393.42L412.401,393.42z"
              fill-rule="evenodd" clip-rule="evenodd"/>
        <path class="accent3"
              d="M415.046,399.744v0.063 c-2.256,1.485-5.935,1.485-8.193-0.063l0,0C409.047,398.259,412.724,398.195,415.046,399.744L415.046,399.744z"
              fill-rule="evenodd" clip-rule="evenodd"/>
        <path class="accent3"
              d="M412.466,406.066l-0.064,0.064 c-2.646-0.516-5.291-3.161-5.742-5.806l-0.064-0.064C409.305,400.776,411.886,403.356,412.466,406.066L412.466,406.066z"
              fill-rule="evenodd" clip-rule="evenodd"/>
        <path class="accent3"
              d="M406.144,408.712h-0.064c-1.549-2.259-1.484-5.936,0-8.194 v-0.064C407.627,402.712,407.691,406.391,406.144,408.712L406.144,408.712z"
              fill-rule="evenodd" clip-rule="evenodd"/>
        <path class="accent3"
              d="M399.82,406.131l-0.064-0.064 c0.516-2.646,3.161-5.29,5.808-5.742v-0.064C405.11,402.97,402.529,405.551,399.82,406.131L399.82,406.131z"
              fill-rule="evenodd" clip-rule="evenodd"/>
        <path class="accent3"
              d="M397.175,399.807v-0.063c2.258-1.549,5.935-1.485,8.193,0 l0,0C403.109,401.292,399.433,401.292,397.175,399.807L397.175,399.807z"
              fill-rule="evenodd" clip-rule="evenodd"/>
        <path class="accent3"
              d="M399.755,393.484l0.064-0.065 c2.645,0.516,5.226,3.163,5.744,5.809h0.064C402.916,398.775,400.336,396.194,399.755,393.484L399.755,393.484z"
              fill-rule="evenodd" clip-rule="evenodd"/>
        <path class="accent3"
              d="M405.692,400.065c0.193,0.26,0.516,0.26,0.709,0.129 c0.258-0.191,0.258-0.516,0.129-0.773c-0.193-0.191-0.516-0.258-0.709-0.063C405.563,399.549,405.497,399.873,405.692,400.065 L405.692,400.065z"
              fill-rule="evenodd" clip-rule="evenodd"/>
        <path class="accent3"
              d="M433.113,372.126h0.129c1.484,2.258,1.484,5.935-0.064,8.194 v0.066C431.629,378.128,431.629,374.449,433.113,372.126L433.113,372.126z"
              fill-rule="evenodd" clip-rule="evenodd"/>
        <path class="accent3"
              d="M439.502,374.707l0.064,0.064 c-0.583,2.712-3.163,5.291-5.873,5.807l0,0C434.209,377.87,436.79,375.287,439.502,374.707L439.502,374.707z"
              fill-rule="evenodd" clip-rule="evenodd"/>
        <path class="accent3"
              d="M442.082,381.031l0.064,0.064 c-2.258,1.549-5.936,1.549-8.195,0h-0.065C436.145,379.546,439.824,379.546,442.082,381.031L442.082,381.031z"
              fill-rule="evenodd" clip-rule="evenodd"/>
        <path class="accent3"
              d="M439.502,387.353v0.066 c-2.712-0.516-5.293-3.163-5.809-5.809l0,0C436.339,382.063,438.983,384.646,439.502,387.353L439.502,387.353z"
              fill-rule="evenodd" clip-rule="evenodd"/>
        <path class="accent3"
              d="M433.242,389.999l-0.064,0.067 c-1.549-2.325-1.549-6.002,0-8.261l0,0C434.727,384.064,434.727,387.74,433.242,389.999L433.242,389.999z"
              fill-rule="evenodd" clip-rule="evenodd"/>
        <path class="accent3"
              d="M426.918,387.42h-0.129c0.583-2.712,3.163-5.29,5.873-5.809 v-0.064C432.146,384.257,429.563,386.904,426.918,387.42L426.918,387.42z"
              fill-rule="evenodd" clip-rule="evenodd"/>
        <path class="accent3"
              d="M424.273,381.096l-0.064-0.064 c2.322-1.485,6.001-1.485,8.195,0.064h0.064C430.21,382.645,426.531,382.645,424.273,381.096L424.273,381.096z"
              fill-rule="evenodd" clip-rule="evenodd"/>
        <path class="accent3"
              d="M426.853,374.771v-0.064c2.71,0.581,5.293,3.164,5.809,5.871 l0,0C430.017,380.062,427.372,377.483,426.853,374.771L426.853,374.771z"
              fill-rule="evenodd" clip-rule="evenodd"/>
        <path class="accent3"
              d="M432.791,381.418c0.129,0.193,0.451,0.258,0.709,0.064 c0.193-0.193,0.258-0.518,0.064-0.709c-0.129-0.258-0.451-0.258-0.709-0.129C432.662,380.835,432.598,381.16,432.791,381.418 L432.791,381.418z"
              fill-rule="evenodd" clip-rule="evenodd"/>
        <path class="accent3"
              d="M566.091,518.795l0.065-0.064c1.55,2.323,1.55,6,0,8.259l0,0 C564.608,524.731,564.608,521.054,566.091,518.795L566.091,518.795z"
              fill-rule="evenodd" clip-rule="evenodd"/>
        <path class="accent3"
              d="M572.415,521.376h0.065c-0.516,2.71-3.099,5.29-5.809,5.809 v0.063C567.19,524.539,569.769,521.956,572.415,521.376L572.415,521.376z"
              fill-rule="evenodd" clip-rule="evenodd"/>
        <path class="accent3"
              d="M575.06,527.7l0.064,0.063 c-2.322,1.484-6.001,1.484-8.26-0.063l0,0C569.123,526.215,572.802,526.15,575.06,527.7L575.06,527.7z"
              fill-rule="evenodd" clip-rule="evenodd"/>
        <path class="accent3"
              d="M572.479,534.023v0.066c-2.71-0.518-5.29-3.163-5.809-5.809 v-0.064C569.316,528.731,571.964,531.313,572.479,534.023L572.479,534.023z"
              fill-rule="evenodd" clip-rule="evenodd"/>
        <path class="accent3"
              d="M566.155,536.668h-0.065 c-1.482-2.259-1.482-5.936,0.065-8.194v-0.064C567.705,530.668,567.705,534.347,566.155,536.668L566.155,536.668z"
              fill-rule="evenodd" clip-rule="evenodd"/>
        <path class="accent3"
              d="M559.834,534.089l-0.065-0.066 c0.58-2.71,3.16-5.291,5.87-5.742v-0.064C565.124,530.926,562.543,533.507,559.834,534.089L559.834,534.089z"
              fill-rule="evenodd" clip-rule="evenodd"/>
        <path class="accent3"
              d="M557.186,527.763V527.7c2.258-1.55,5.937-1.485,8.195,0 h0.065C563.188,529.247,559.509,529.247,557.186,527.763L557.186,527.763z"
              fill-rule="evenodd" clip-rule="evenodd"/>
        <path class="accent3"
              d="M559.769,521.44l0.065-0.064 c2.709,0.518,5.29,3.163,5.806,5.809l0,0C562.93,526.731,560.35,524.15,559.769,521.44L559.769,521.44z"
              fill-rule="evenodd" clip-rule="evenodd"/>
        <path class="accent3"
              d="M565.704,528.023c0.193,0.258,0.516,0.258,0.773,0.129 c0.193-0.193,0.258-0.518,0.065-0.775c-0.193-0.191-0.516-0.258-0.709-0.063C565.575,527.505,565.575,527.829,565.704,528.023 L565.704,528.023z"
              fill-rule="evenodd" clip-rule="evenodd"/>
        <path class="accent3"
              d="M339.879,515.634l0.064-0.066 c1.485,2.325,1.485,6.002-0.064,8.261l0,0C338.332,521.569,338.332,517.893,339.879,515.634L339.879,515.634z"
              fill-rule="evenodd" clip-rule="evenodd"/>
        <path class="accent3"
              d="M346.204,518.213l0.065,0.066 c-0.581,2.646-3.161,5.227-5.873,5.742v0.064C340.913,521.376,343.494,518.795,346.204,518.213L346.204,518.213z"
              fill-rule="evenodd" clip-rule="evenodd"/>
        <path class="accent3"
              d="M348.849,524.539v0.063 c-2.258,1.484-5.935,1.484-8.193-0.063h-0.065C342.847,523.055,346.526,522.987,348.849,524.539L348.849,524.539z"
              fill-rule="evenodd" clip-rule="evenodd"/>
        <path class="accent3"
              d="M346.204,530.861v0.064c-2.71-0.518-5.29-3.163-5.808-5.809 v-0.063C343.107,525.57,345.688,528.151,346.204,530.861L346.204,530.861z"
              fill-rule="evenodd" clip-rule="evenodd"/>
        <path class="accent3"
              d="M339.944,533.507h-0.064c-1.547-2.259-1.547-5.935,0-8.194 v-0.066C341.429,527.505,341.429,531.184,339.944,533.507L339.944,533.507z"
              fill-rule="evenodd" clip-rule="evenodd"/>
        <path class="accent3"
              d="M333.622,530.926l-0.065-0.064 c0.516-2.646,3.097-5.291,5.806-5.744v-0.063C338.848,527.763,336.268,530.346,333.622,530.926L333.622,530.926z"
              fill-rule="evenodd" clip-rule="evenodd"/>
        <path class="accent3"
              d="M330.977,524.602l-0.064-0.063 c2.323-1.552,5.999-1.484,8.258,0l0,0C336.912,526.086,333.235,526.086,330.977,524.602L330.977,524.602z"
              fill-rule="evenodd" clip-rule="evenodd"/>
        <path class="accent3"
              d="M333.558,518.279v-0.066c2.71,0.518,5.29,3.163,5.806,5.809 l0,0C336.719,523.57,334.074,520.989,333.558,518.279L333.558,518.279z"
              fill-rule="evenodd" clip-rule="evenodd"/>
        <path class="accent3"
              d="M339.493,524.859c0.193,0.258,0.516,0.258,0.709,0.129 c0.26-0.191,0.26-0.516,0.129-0.773c-0.193-0.193-0.516-0.258-0.773-0.064C339.364,524.344,339.299,524.668,339.493,524.859 L339.493,524.859z"
              fill-rule="evenodd" clip-rule="evenodd"/>
        <path class="accent"
              d="M340.266,494.92c-4.127,5.162-8.128,9.614-11.872,13.355 c-3.419,3.422-6.773,6.389-9.936,8.905c-2.903,2.259-5.741,4.26-8.451,5.935c-2.581,1.614-5.097,2.97-7.484,4.068 c-2.323,1.096-4.517,1.934-6.71,2.646c-2.065,0.709-4.13,1.225-6.131,1.547c-1.869,0.387-3.741,0.644-5.548,0.711 c-1.808,0.13-3.548,0.063-5.226-0.066c-5.162-0.063-10.258-1.225-14.71-3.483c-4.517-2.194-8.583-5.68-11.421-10.065 c-1.418-2.259-2.581-4.84-3.226-7.552c-0.711-2.708-0.969-5.678-0.58-8.517c0.773-5.87,4.257-11.615,9.418-14.582 c2.647-1.483,5.615-2.323,8.518-2.452c2.903-0.064,5.742,0.582,8.258,1.742c0.325,0.129,0.647,0.322,0.969,0.452 c-1.42-0.065-2.839,0-4.323,0.387c-6.904,1.742-11.163,8.776-9.42,15.745c1.743,6.967,8.775,11.226,15.744,9.483 c6.968-1.74,11.225-8.839,9.485-15.808c-2.001-8.067-9.163-16.453-17.165-18.649c-5.935-1.676-12.774-0.709-18.065,2.842 c-5.29,3.548-8.776,9.421-9.871,15.55c-0.58,3.032-0.58,6.066-0.129,8.97c0.451,2.903,1.289,5.678,2.452,8.258 c1.096,2.452,2.516,4.775,4.13,6.841c1.612,2.001,3.355,3.872,5.291,5.419c3.741,3.1,8,5.357,12.452,6.841 c4.452,1.482,9.227,2.13,14.13,2.065c2.581-0.064,5.162-0.325,7.871-0.774c2.774-0.453,5.612-1.162,8.518-2.196 c1.547-0.516,3.097-1.096,4.644-1.74c1.614-0.646,3.292-1.421,4.97-2.323c1.741-0.84,3.548-1.872,5.355-2.97 c1.872-1.16,3.805-2.388,5.806-3.806c2.13-1.485,4.259-3.097,6.453-4.904c2.323-1.933,4.71-4.001,7.162-6.322 c1.29-1.227,2.581-2.517,3.935-3.872c1.356-1.418,2.776-2.841,4.194-4.389c1.485-1.613,3.032-3.356,4.582-5.097 c1.549-1.872,3.225-3.87,4.839-5.938c1.743-2.192,3.55-4.451,5.355-6.905c1.872-2.517,3.808-5.224,5.808-8.065 c2.065-2.968,4.192-6.193,6.386-9.551c0.775-1.16,1.549-2.387,2.323-3.612l-6.064-1.936c-3.032,5.357-4.968,8.39-7.742,12.84 C349.944,482.209,344.977,489.113,340.266,494.92L340.266,494.92z"
              fill-rule="evenodd" clip-rule="evenodd"/>
        <path class="accent"
              d="M392.078,415.874c0.258,3.873,0.258,7.292,0.064,10.453 c-0.193,2.775-0.451,5.358-0.838,7.678c-0.389,2.13-0.84,4.131-1.356,5.94c-0.516,1.676-1.031,3.223-1.678,4.644 c-0.58,1.354-1.225,2.581-1.869,3.741c-0.647,1.163-1.291,2.13-2.065,3.099c-0.647,0.903-1.356,1.743-2.129,2.452 c-0.709,0.776-1.485,1.421-2.258,2.001c-2.323,1.998-4.968,3.483-7.807,4.257c-2.776,0.776-5.873,0.841-8.84,0.066 c-1.549-0.453-3.032-1.098-4.388-2c-1.354-0.902-2.581-2.13-3.548-3.548c-1.936-2.842-2.645-6.647-1.614-9.939 c0.58-1.679,1.549-3.226,2.774-4.386c1.227-1.163,2.709-2.001,4.259-2.454c0.193-0.063,0.387-0.129,0.58-0.191 c-0.645,0.516-1.225,1.094-1.743,1.805c-2.323,3.486-1.418,8.194,2.065,10.52c3.485,2.388,8.196,1.482,10.519-2.001 c2.387-3.485,1.482-8.196-2-10.519c-4.066-2.774-10.387-3.615-14.775-1.419c-3.163,1.548-5.808,4.647-6.71,8.259 c-0.902,3.612-0.129,7.484,1.807,10.584c0.902,1.547,2.129,2.836,3.418,3.935c1.356,1.098,2.774,2.001,4.259,2.645 c1.482,0.645,2.967,1.098,4.517,1.355c1.418,0.258,2.903,0.387,4.388,0.322c2.839-0.129,5.548-0.838,8.064-1.936 c2.516-1.099,4.839-2.646,6.969-4.582c1.096-1.033,2.129-2.127,3.096-3.421c1.034-1.289,1.936-2.708,2.838-4.257 c0.452-0.839,0.905-1.679,1.356-2.581c0.451-0.902,0.838-1.872,1.225-2.903c0.453-1.099,0.84-2.194,1.163-3.419 c0.387-1.227,0.709-2.517,1.031-3.939c0.322-1.418,0.646-2.966,0.905-4.646c0.258-1.676,0.451-3.548,0.645-5.548 c0.064-1.032,0.129-2.063,0.193-3.161c0.065-1.16,0.065-2.323,0.129-3.548c0-1.292,0-2.646-0.064-4.002 c0-1.418-0.065-2.903-0.129-4.452c-0.129-1.612-0.258-3.354-0.387-5.098c-0.193-1.805-0.387-3.743-0.645-5.744 c-0.26-2.13-0.582-4.386-0.969-6.709c-0.129-0.773-0.258-1.614-0.387-2.388l-2.001-1.356l-1.613,1.614 c0.711,3.548,1.355,6.776,1.871,9.808C391.304,406.582,391.885,411.486,392.078,415.874L392.078,415.874z"
              fill-rule="evenodd" clip-rule="evenodd"/>
        <path class="accent"
              d="M405.304,371.545c-4.128,5.162-8.129,9.615-11.936,13.358 c-3.419,3.42-6.708,6.387-9.872,8.903c-2.903,2.323-5.742,4.259-8.516,5.938c-2.516,1.612-5.032,2.968-7.484,4.063 c-2.258,1.099-4.452,1.937-6.646,2.646c-2.129,0.712-4.13,1.228-6.13,1.55c-1.87,0.387-3.741,0.647-5.613,0.709 c-1.743,0.129-3.483,0.066-5.161-0.063c-5.162-0.066-10.259-1.227-14.775-3.485c-4.452-2.194-8.518-5.678-11.356-10.066 c-1.485-2.258-2.581-4.841-3.29-7.549c-0.711-2.712-0.905-5.68-0.516-8.518c0.773-5.873,4.192-11.615,9.418-14.583 c2.583-1.485,5.55-2.323,8.518-2.452c2.903-0.064,5.741,0.58,8.193,1.741c0.325,0.129,0.647,0.324,0.969,0.453 c-1.356-0.065-2.838,0-4.259,0.387c-6.969,1.743-11.163,8.776-9.421,15.743c1.743,6.971,8.776,11.229,15.744,9.488 c6.969-1.743,11.225-8.843,9.485-15.81c-2.065-8.065-9.163-16.455-17.165-18.649c-5.935-1.611-12.839-0.709-18.065,2.839 c-5.29,3.55-8.775,9.421-9.872,15.552c-0.58,3.032-0.58,6.065-0.129,8.967c0.452,2.903,1.289,5.68,2.387,8.261 c1.161,2.452,2.581,4.775,4.195,6.838c1.547,2.001,3.354,3.873,5.29,5.422c3.677,3.097,8,5.355,12.453,6.841 c4.452,1.484,9.226,2.129,14.13,2.063c2.516-0.063,5.161-0.258,7.806-0.773c2.774-0.451,5.677-1.16,8.582-2.192 c1.482-0.516,3.096-1.098,4.644-1.742c1.614-0.645,3.292-1.421,4.97-2.323c1.74-0.838,3.483-1.872,5.354-2.968 c1.872-1.163,3.806-2.388,5.806-3.808c2.065-1.483,4.194-3.097,6.453-4.904c2.323-1.936,4.71-3.999,7.162-6.324 c1.289-1.225,2.581-2.517,3.935-3.873c1.355-1.418,2.776-2.837,4.194-4.386c1.484-1.614,2.968-3.355,4.517-5.097 c1.614-1.871,3.226-3.872,4.903-5.935c1.743-2.196,3.485-4.455,5.29-6.905c1.937-2.516,3.873-5.229,5.873-8.067 c2.065-2.968,4.192-6.196,6.387-9.55c0.775-1.163,1.549-2.387,2.322-3.612l-6.063-1.936c-3.097,5.355-4.968,8.387-7.807,12.84 C414.981,358.832,410.014,365.737,405.304,371.545L405.304,371.545z"
              fill-rule="evenodd" clip-rule="evenodd"/>
        <path class="accent"
              d="M310.587,413.94c-2.903,1.096-5.419,2.259-7.613,3.419 c-2,1.031-3.808,2.063-5.355,3.097c-1.42,0.967-2.709,1.937-3.872,2.905c-1.031,0.902-2.001,1.87-2.838,2.774 c-0.773,0.838-1.485,1.743-2.129,2.579c-0.58,0.84-1.096,1.681-1.549,2.454c-0.451,0.838-0.774,1.613-1.096,2.388 c-0.323,0.773-0.516,1.547-0.71,2.32c-0.711,2.325-0.904,4.713-0.582,7.033c0.389,2.325,1.292,4.584,2.905,6.454 c0.773,0.967,1.74,1.871,2.838,2.517c1.096,0.709,2.387,1.225,3.741,1.484c2.646,0.516,5.68-0.26,7.745-2.13 c1.031-0.904,1.869-2.129,2.323-3.421c0.451-1.225,0.516-2.579,0.387-3.87c0-0.193-0.064-0.322-0.064-0.518 c-0.129,0.647-0.387,1.292-0.776,1.872c-1.74,2.841-5.483,3.68-8.322,1.938c-2.838-1.742-3.743-5.486-1.936-8.325 c1.743-2.839,5.484-3.741,8.325-1.936c3.29,2,6,6.389,5.806,10.261c-0.065,2.837-1.485,5.74-3.808,7.55 c-2.323,1.869-5.419,2.578-8.322,2.191c-1.356-0.193-2.71-0.645-4.001-1.225c-1.16-0.58-2.323-1.353-3.29-2.259 c-0.902-0.838-1.743-1.808-2.452-2.776c-0.645-1.031-1.227-2.064-1.614-3.161c-0.838-2.063-1.225-4.26-1.289-6.451 c0-2.194,0.387-4.389,1.096-6.582c0.387-1.096,0.904-2.259,1.484-3.354c0.581-1.163,1.289-2.325,2.13-3.486 c0.451-0.58,0.967-1.227,1.483-1.805c0.516-0.646,1.098-1.228,1.743-1.872c0.58-0.645,1.292-1.291,2.065-1.936 c0.773-0.71,1.612-1.355,2.516-2.065c0.967-0.712,2-1.418,3.097-2.13c1.163-0.773,2.452-1.547,3.808-2.259 c0.709-0.387,1.482-0.838,2.258-1.227c0.838-0.387,1.676-0.836,2.581-1.225c0.903-0.451,1.871-0.838,2.903-1.291 c1.031-0.449,2.129-0.902,3.29-1.353c1.227-0.451,2.452-0.905,3.808-1.354c1.418-0.453,2.839-0.969,4.388-1.42 c1.612-0.518,3.355-0.967,5.162-1.483c0.645-0.195,1.289-0.324,1.936-0.518v2.968c-2.841,0.582-4.452,0.97-6.775,1.614 C317.556,411.486,313.813,412.713,310.587,413.94L310.587,413.94z"
              fill-rule="evenodd" clip-rule="evenodd"/>
        <path class="accent"
              d="M456.664,329.088c2.839-4.13,5.161-8.003,7.098-11.551 c1.74-3.228,3.16-6.26,4.257-9.101c1.098-2.646,1.871-5.162,2.516-7.483c0.647-2.196,1.034-4.324,1.356-6.324 c0.258-1.872,0.387-3.679,0.451-5.422c0.064-1.676,0-3.224-0.193-4.775c-0.129-1.482-0.387-2.903-0.709-4.192 c-0.322-1.356-0.709-2.581-1.228-3.744c-1.096-3.806-3.097-7.225-5.677-9.999c-2.581-2.776-6.002-4.97-9.808-6.066 c-1.935-0.58-4.065-0.838-6.13-0.776c-2.194,0.129-4.321,0.582-6.387,1.485c-4.065,1.872-7.42,5.615-8.517,10.001 c-0.516,2.194-0.451,4.582,0.129,6.711c0.516,2.13,1.614,4.064,2.968,5.616c0.195,0.191,0.389,0.387,0.582,0.578 c-0.387-0.967-0.647-2.063-0.647-3.161c-0.258-5.419,3.936-10.065,9.355-10.323c5.486-0.193,10.067,4.001,10.325,9.421 c0.258,5.42-3.937,10.066-9.42,10.324c-6.324,0.258-13.938-3.097-17.292-8.452c-2.451-3.937-3.227-9.099-1.807-13.68 c1.418-4.646,4.903-8.452,9.098-10.582c2.063-1.034,4.321-1.678,6.515-2c2.194-0.325,4.389-0.325,6.518-0.067 c2.065,0.26,4.001,0.84,5.871,1.552c1.807,0.707,3.55,1.612,5.099,2.646c3.032,2.063,5.612,4.646,7.678,7.549 c2.001,2.968,3.548,6.258,4.517,9.87c0.58,1.81,0.902,3.743,1.16,5.809c0.258,2.129,0.387,4.324,0.258,6.711 c0,1.228-0.129,2.452-0.258,3.744c-0.129,1.354-0.322,2.708-0.58,4.128c-0.258,1.42-0.58,2.968-1.033,4.517 c-0.387,1.611-0.902,3.292-1.482,5.033c-0.645,1.872-1.357,3.741-2.194,5.742c-0.838,2.129-1.872,4.326-3.032,6.582 c-0.582,1.225-1.227,2.452-1.935,3.679c-0.709,1.29-1.485,2.646-2.323,4.064c-0.84,1.42-1.742,2.841-2.709,4.388 c-0.97,1.55-2.065,3.161-3.163,4.842c-1.226,1.676-2.517,3.481-3.87,5.353l-1.228,1.549h-5.161 C450.018,338.121,453.63,333.41,456.664,329.088L456.664,329.088z"
              fill-rule="evenodd" clip-rule="evenodd"/>
        <path class="accent"
              d="M398.853,205.583c-2.258-3.356-4.13-6.451-5.679-9.292 c-1.418-2.581-2.516-5.033-3.419-7.292c-0.838-2.13-1.549-4.13-2.065-6.002c-0.451-1.805-0.773-3.484-1.031-5.095 c-0.193-1.485-0.322-2.97-0.387-4.326c0-1.354,0.064-2.646,0.193-3.87c0.064-1.163,0.258-2.259,0.58-3.355 c0.193-1.031,0.516-2.065,0.902-2.97c0.969-3.032,2.517-5.807,4.582-8.001c2.129-2.258,4.839-3.999,7.871-4.904 c1.549-0.451,3.292-0.645,4.968-0.58c1.678,0.064,3.421,0.451,5.099,1.16c3.226,1.485,6,4.453,6.838,8.065 c0.389,1.743,0.389,3.615-0.064,5.358c-0.516,1.676-1.354,3.228-2.452,4.517c-0.129,0.129-0.322,0.258-0.451,0.451 c0.322-0.838,0.516-1.678,0.516-2.581c0.193-4.324-3.16-8.003-7.483-8.261c-4.389-0.191-8.065,3.228-8.323,7.549 c-0.193,4.388,3.225,8.067,7.548,8.261c5.098,0.258,11.228-2.452,13.873-6.709c2.001-3.163,2.645-7.358,1.482-11.035 c-1.096-3.679-3.935-6.776-7.291-8.454c-1.676-0.838-3.482-1.354-5.226-1.612c-1.807-0.258-3.548-0.258-5.226-0.067 c-1.679,0.258-3.226,0.647-4.71,1.227c-1.485,0.582-2.838,1.289-4.065,2.13c-2.452,1.676-4.581,3.744-6.193,6.064 c-1.614,2.387-2.838,5.033-3.679,7.936c-0.387,1.485-0.709,3.034-0.902,4.646c-0.193,1.743-0.258,3.486-0.193,5.357 c0,1.031,0.065,2.001,0.193,3.032c0.129,1.098,0.258,2.194,0.516,3.29c0.193,1.163,0.451,2.387,0.773,3.615 c0.325,1.356,0.776,2.709,1.227,4.063c0.516,1.485,1.096,3.034,1.743,4.646c0.709,1.681,1.482,3.421,2.452,5.293 c0.452,0.967,0.967,1.936,1.547,2.968c0.582,1.031,1.163,2.065,1.807,3.227c0.709,1.096,1.421,2.259,2.194,3.484 c0.838,1.292,1.678,2.581,2.581,3.87c0.967,1.421,2,2.841,3.096,4.324c1.163,1.549,2.388,3.163,3.679,4.775 c0.773,0.967,1.612,2.001,2.452,2.968h4.774c-1.807-1.934-3.485-3.741-4.968-5.549 C404.595,213.39,401.498,209.327,398.853,205.583L398.853,205.583z"
              fill-rule="evenodd" clip-rule="evenodd"/>
        <path class="accent"
              d="M447.115,243.783c-2.323-2.774-4.518-5.162-6.582-7.163 c-1.872-1.872-3.677-3.419-5.419-4.775c-1.614-1.227-3.163-2.323-4.646-3.228c-1.356-0.838-2.774-1.547-4.066-2.129 c-1.225-0.578-2.451-1.032-3.676-1.419c-1.099-0.387-2.194-0.645-3.293-0.84c-1.031-0.129-2.065-0.258-3.031-0.32 c-0.967-0.067-1.936,0-2.839,0.062c-2.839,0.067-5.548,0.711-8,2.001c-2.387,1.227-4.581,3.099-6.13,5.551 c-0.773,1.225-1.356,2.581-1.743,4.065c-0.322,1.483-0.451,3.095-0.193,4.646c0.387,3.161,2.323,6.258,5.161,7.869 c1.421,0.776,3.034,1.227,4.646,1.291c1.549,0,3.098-0.387,4.452-0.967c0.193-0.129,0.322-0.196,0.516-0.325 c-0.773,0.067-1.548,0.067-2.323-0.129c-3.806-0.902-6.128-4.708-5.226-8.516c0.904-3.808,4.71-6.129,8.518-5.227 c3.806,0.903,6.128,4.711,5.226,8.519c-1.033,4.386-4.903,8.968-9.227,10.195c-3.226,0.967-6.904,0.451-9.807-1.42 c-2.903-1.87-4.839-5.097-5.483-8.387c-0.258-1.614-0.323-3.292-0.064-4.904c0.193-1.549,0.645-3.032,1.225-4.455 c0.645-1.354,1.356-2.646,2.258-3.742c0.838-1.096,1.807-2.127,2.838-2.968c2.001-1.743,4.324-2.97,6.711-3.806 c2.452-0.776,5.033-1.227,7.678-1.163c1.357,0,2.774,0.129,4.259,0.322c1.485,0.258,3.032,0.645,4.647,1.161 c0.838,0.258,1.678,0.582,2.516,0.905c0.902,0.387,1.808,0.773,2.71,1.225c0.969,0.516,1.936,1.034,2.968,1.614 c1.033,0.645,2.064,1.289,3.162,2.065c1.161,0.773,2.323,1.678,3.548,2.581c1.228,1.031,2.581,2.194,3.936,3.419 c0.645,0.645,1.419,1.356,2.13,2.065c0.773,0.776,1.547,1.549,2.323,2.388c0.773,0.905,1.611,1.807,2.451,2.776 c0.902,0.967,1.805,2.063,2.71,3.161c0.967,1.161,1.935,2.388,2.902,3.677c1.032,1.421,2.13,2.841,3.226,4.388 c1.163,1.614,2.323,3.357,3.55,5.162c0.387,0.645,0.838,1.289,1.225,1.936l-0.516,2.194l-2.193-0.129 c-1.679-2.903-3.29-5.486-4.839-7.936C452.405,250.688,449.695,246.944,447.115,243.783L447.115,243.783z"
              fill-rule="evenodd" clip-rule="evenodd"/>
        <path class="accent"
              d="M421.821,411.553c-1.16-5.229-1.871-10.003-2.259-14.263 c-0.387-3.87-0.58-7.482-0.516-10.775c0.064-2.968,0.258-5.742,0.581-8.387c0.322-2.388,0.775-4.646,1.291-6.711 c0.516-2.001,1.096-3.873,1.743-5.551c0.645-1.676,1.354-3.226,2.193-4.646c0.709-1.354,1.547-2.646,2.388-3.87 c0.838-1.163,1.74-2.194,2.709-3.164c2.71-3.29,6-5.871,9.743-7.482c3.676-1.678,7.936-2.517,12.13-2.001 c2.193,0.258,4.323,0.838,6.386,1.805c2.066,0.969,4.001,2.325,5.615,4.066c3.289,3.421,5.097,8.516,4.321,13.358 c-0.387,2.388-1.354,4.646-2.839,6.518c-1.418,1.87-3.29,3.354-5.29,4.321c-0.258,0.129-0.516,0.196-0.773,0.325 c0.773-0.84,1.482-1.743,2-2.841c2.452-5.227,0.193-11.484-5.097-14.001c-5.228-2.455-11.485-0.196-14.002,5.033 c-2.451,5.291-0.193,11.548,5.098,14c6.064,2.903,14.968,2.712,20.452-1.227c4.065-2.836,6.968-7.612,7.419-12.711 c0.519-5.162-1.418-10.324-4.645-14.196c-1.611-1.87-3.548-3.419-5.612-4.646c-2.001-1.225-4.194-2.063-6.389-2.707 c-2.127-0.516-4.257-0.84-6.386-0.905c-2.065,0-4.13,0.193-6.131,0.58c-3.806,0.711-7.42,2.258-10.645,4.324 c-3.161,2-6.066,4.646-8.518,7.81c-1.289,1.611-2.451,3.354-3.547,5.29c-1.099,1.934-2.13,4.13-2.968,6.451 c-0.453,1.227-0.905,2.517-1.292,3.808c-0.387,1.353-0.773,2.774-1.096,4.324c-0.324,1.547-0.646,3.161-0.84,4.837 c-0.258,1.81-0.451,3.679-0.645,5.616c-0.129,2.065-0.193,4.259-0.193,6.517c0,2.45,0.129,5.033,0.322,7.743 c0.064,1.483,0.258,2.903,0.387,4.453c0.193,1.547,0.387,3.225,0.58,4.904c0.26,1.742,0.582,3.548,0.904,5.419 c0.322,2.001,0.773,4.002,1.226,6.132c0.453,2.191,0.969,4.45,1.549,6.838c0.645,2.454,1.356,5.1,2.13,7.807 c0.773,2.841,1.678,5.809,2.709,8.905c0.322,1.099,0.709,2.13,1.096,3.229l4.324-2.774c-1.806-4.646-2.774-7.421-4.128-11.422 C424.855,424.135,423.049,417.488,421.821,411.553L421.821,411.553z"
              fill-rule="evenodd" clip-rule="evenodd"/>
        <path class="accent"
              d="M375.56,268.303c-0.387,6.26-0.387,11.873-0.129,16.906 c0.193,4.517,0.645,8.646,1.292,12.389c0.58,3.485,1.289,6.646,2.127,9.55c0.775,2.774,1.678,5.291,2.647,7.616 c0.903,2.127,1.87,4.192,2.968,6.064c1.031,1.805,2.129,3.419,3.29,4.904c1.098,1.485,2.258,2.838,3.485,4.064 c1.161,1.163,2.387,2.258,3.612,3.228c3.679,3.226,7.935,5.613,12.517,6.904c4.517,1.29,9.549,1.485,14.323,0.193 c2.388-0.709,4.839-1.743,7.033-3.163c2.193-1.483,4.194-3.419,5.743-5.678c3.225-4.517,4.386-10.711,2.646-16.068 c-0.84-2.707-2.388-5.162-4.388-7.096c-1.937-1.872-4.323-3.228-6.775-4.001c-0.322-0.129-0.645-0.193-1.031-0.258 c1.096,0.773,1.998,1.743,2.774,2.903c3.741,5.615,2.258,13.227-3.356,16.97c-5.613,3.744-13.226,2.259-16.969-3.356 c-3.806-5.611-2.259-13.227,3.355-16.971c6.516-4.388,16.776-5.677,23.809-2.192c5.162,2.645,9.29,7.614,10.774,13.423 c1.421,5.806,0.129,12.128-2.968,17.099c-1.549,2.45-3.485,4.58-5.614,6.322c-2.128,1.743-4.45,3.161-6.902,4.192 c-2.322,1.034-4.774,1.743-7.225,2.196c-2.388,0.387-4.775,0.516-7.098,0.387c-4.581-0.196-8.97-1.289-13.035-3.099 c-3.999-1.805-7.806-4.322-11.161-7.549c-1.743-1.614-3.421-3.419-4.968-5.484c-1.614-2.065-3.163-4.386-4.582-6.904 c-0.711-1.292-1.42-2.71-2.129-4.128c-0.711-1.549-1.356-3.099-2-4.775c-0.645-1.743-1.291-3.55-1.807-5.486 c-0.645-2.001-1.16-4.13-1.678-6.322c-0.516-2.387-0.967-4.842-1.353-7.487c-0.451-2.836-0.773-5.807-1.034-8.968 c-0.064-1.678-0.193-3.419-0.258-5.162c-0.064-1.872-0.129-3.744-0.129-5.744c-0.064-2.063,0-4.193,0.064-6.451 c0.064-2.259,0.129-4.713,0.322-7.163c0.131-2.645,0.389-5.357,0.647-8.196c0.258-2.968,0.645-6.066,1.031-9.29 c0.451-3.421,0.969-7.034,1.614-10.777c0.193-1.29,0.451-2.581,0.645-3.935l5.484,2.516c-1.289,5.611-1.87,8.968-2.71,13.872 C376.916,253.333,376.011,261.269,375.56,268.303L375.56,268.303z"
              fill-rule="evenodd" clip-rule="evenodd"/>
        <path class="accent"
              d="M369.365,315.083c-2.709-1.676-5.226-3.097-7.484-4.259 c-2.127-1.031-4.063-1.87-5.87-2.517c-1.743-0.645-3.29-1.096-4.839-1.482c-1.42-0.322-2.774-0.58-4.001-0.709 c-1.225-0.129-2.387-0.196-3.483-0.196c-1.034,0-2.065,0.129-3.032,0.258c-0.905,0.131-1.807,0.26-2.648,0.518 c-0.838,0.258-1.611,0.516-2.387,0.838c-2.321,0.773-4.515,2.13-6.193,3.808c-1.743,1.741-3.032,3.937-3.679,6.387 c-0.322,1.227-0.451,2.583-0.322,3.937c0.064,1.354,0.451,2.71,1.034,4.002c1.225,2.516,3.676,4.581,6.515,5.162 c1.42,0.322,2.905,0.258,4.259-0.193c1.356-0.387,2.58-1.098,3.55-2.001c0.129-0.129,0.193-0.258,0.322-0.387 c-0.58,0.258-1.292,0.451-2,0.516c-3.418,0.258-6.453-2.323-6.711-5.744c-0.258-3.481,2.323-6.516,5.744-6.773 c3.483-0.258,6.451,2.323,6.773,5.809c0.258,4-1.676,8.903-5.033,11.098c-2.452,1.676-5.741,2.323-8.645,1.485 c-2.97-0.84-5.486-2.97-6.904-5.615c-0.709-1.29-1.163-2.71-1.421-4.064c-0.258-1.42-0.322-2.774-0.193-4.13 c0.193-1.356,0.451-2.583,0.905-3.806c0.387-1.165,0.902-2.258,1.547-3.292c1.227-1.937,2.838-3.613,4.646-4.969 c1.872-1.356,3.937-2.387,6.195-3.099c1.16-0.387,2.387-0.707,3.676-0.903c1.356-0.193,2.774-0.258,4.259-0.258 c0.773,0,1.549,0,2.387,0.064c0.838,0.064,1.678,0.193,2.581,0.322c0.967,0.129,1.936,0.325,2.903,0.516 c1.034,0.258,2.129,0.516,3.292,0.905c1.161,0.322,2.387,0.773,3.677,1.225c1.356,0.516,2.774,1.098,4.259,1.808 c0.773,0.387,1.549,0.775,2.387,1.163c0.838,0.449,1.678,0.902,2.581,1.354c0.902,0.518,1.872,1.096,2.838,1.678 c1.034,0.581,2.065,1.228,3.096,1.934c1.163,0.711,2.323,1.485,3.485,2.326c1.29,0.902,2.581,1.805,3.935,2.836 c1.42,1.034,2.841,2.129,4.388,3.357c0.518,0.454,1.034,0.84,1.614,1.289l0.129,2.001l-1.872,0.516 c-2.194-1.999-4.323-3.806-6.257-5.353C375.689,319.472,372.335,317.085,369.365,315.083L369.365,315.083z"
              fill-rule="evenodd" clip-rule="evenodd"/>
        <path class="accent"
              d="M381.366,189.128c-1.999,2.001-3.677,3.937-5.032,5.744 c-1.29,1.676-2.388,3.225-3.29,4.708c-0.838,1.356-1.549,2.645-2.129,3.872c-0.516,1.16-0.967,2.323-1.354,3.419 c-0.324,1.034-0.582,2-0.775,2.97c-0.193,0.903-0.322,1.805-0.322,2.71c-0.065,0.773-0.065,1.612,0,2.387 c0,0.774,0.129,1.483,0.258,2.194c0.322,2.259,1.033,4.321,2.258,6.131c1.163,1.805,2.838,3.353,4.839,4.322 c1.034,0.516,2.194,0.84,3.356,1.031c1.225,0.129,2.516,0.067,3.677-0.191c2.452-0.647,4.71-2.388,5.742-4.775 c0.518-1.227,0.711-2.516,0.582-3.743c-0.064-1.227-0.516-2.452-1.098-3.419c-0.129-0.129-0.193-0.258-0.258-0.387 c0.065,0.578,0.129,1.225,0.065,1.805c-0.387,3.099-3.161,5.229-6.257,4.84c-3.034-0.387-5.228-3.161-4.839-6.196 c0.387-3.094,3.161-5.224,6.257-4.837c3.55,0.449,7.484,3.032,8.84,6.322c0.967,2.452,0.902,5.42-0.323,7.874 c-1.227,2.388-3.55,4.192-6.13,4.966c-1.225,0.387-2.516,0.583-3.806,0.516c-1.227-0.062-2.452-0.258-3.614-0.578 c-1.096-0.387-2.194-0.84-3.161-1.485c-0.905-0.516-1.807-1.227-2.581-1.936c-1.485-1.42-2.645-3.164-3.55-4.969 c-0.838-1.807-1.354-3.806-1.547-5.935c-0.129-1.034-0.193-2.196-0.129-3.357c0.064-1.227,0.258-2.452,0.516-3.744 c0.129-0.707,0.323-1.354,0.516-2.063c0.193-0.711,0.451-1.485,0.709-2.258c0.322-0.773,0.646-1.614,1.034-2.388 c0.387-0.902,0.838-1.807,1.289-2.712c0.516-0.965,1.163-1.934,1.807-2.965c0.645-1.098,1.42-2.259,2.323-3.421 c0.451-0.58,0.902-1.225,1.42-1.872c0.516-0.645,1.096-1.292,1.676-1.999c0.581-0.711,1.227-1.42,1.936-2.196 c0.709-0.774,1.484-1.547,2.258-2.388c0.838-0.838,1.743-1.676,2.645-2.579l1.356-1.291v3.032 C384.594,185.967,382.915,187.581,381.366,189.128L381.366,189.128z"
              fill-rule="evenodd" clip-rule="evenodd"/>
        <path class="accent"
              d="M449.566,456.075c2.646,8.065,5.419,15.163,8.258,21.358 c2.581,5.678,5.226,10.647,7.936,15.099c2.454,4.131,4.971,7.808,7.486,11.035c2.323,3.097,4.71,5.807,7.162,8.259 c2.258,2.322,4.515,4.388,6.837,6.195c2.194,1.742,4.389,3.29,6.582,4.646c2.13,1.29,4.323,2.388,6.453,3.354 c2.064,0.905,4.13,1.612,6.257,2.194c6.26,2.323,12.842,3.226,19.228,2.517c6.453-0.645,12.841-2.903,18.261-6.969 c2.773-2.065,5.29-4.646,7.291-7.55c2.129-2.968,3.679-6.387,4.517-10.067c1.742-7.355,0.129-15.744-4.711-21.746 c-2.451-2.903-5.677-5.291-9.162-6.709c-3.419-1.418-7.098-1.936-10.645-1.678c-0.451,0.064-0.905,0.131-1.356,0.193 c1.743,0.453,3.421,1.227,4.968,2.325c7.549,5.224,9.485,15.614,4.259,23.163c-5.225,7.614-15.615,9.485-23.227,4.26 c-7.549-5.229-9.485-15.617-4.257-23.166c6.063-8.841,18.451-15.679,29.034-14.712c7.871,0.709,15.678,4.969,20.388,11.549 c4.774,6.646,6.324,15.294,4.839,23.168c-0.645,3.806-2.064,7.482-3.937,10.839c-1.74,3.29-4.063,6.193-6.579,8.776 c-2.452,2.45-5.227,4.58-8.067,6.322c-2.838,1.743-5.806,3.099-8.773,4.195c-5.872,1.998-12.065,2.774-18.066,2.517 c-6-0.261-12.065-1.55-17.937-3.871c-3.031-1.164-6.065-2.648-9.033-4.454c-3.097-1.806-6.195-3.935-9.291-6.451 c-1.612-1.357-3.161-2.712-4.774-4.26c-1.677-1.547-3.29-3.161-4.904-4.968c-1.742-1.872-3.418-3.871-5.097-6 c-1.742-2.259-3.483-4.647-5.29-7.23c-1.808-2.708-3.614-5.613-5.484-8.776c-1.935-3.353-3.872-6.967-5.743-10.84 c-1.031-2.063-2.001-4.192-3.032-6.389c-0.967-2.32-2-4.708-3.031-7.225c-1.034-2.583-2.065-5.291-3.163-8.196l-0.839-2.452 h6.131L449.566,456.075z"
              fill-rule="evenodd" clip-rule="evenodd"/>
        <path class="accent"
              d="M448.211,491.952c-4.323-2.776-8.322-5.035-12.065-6.84 c-3.354-1.677-6.451-3.032-9.421-4.131c-2.709-0.967-5.29-1.742-7.742-2.32c-2.258-0.518-4.452-0.905-6.517-1.163 c-1.935-0.193-3.806-0.322-5.549-0.26c-1.678,0-3.354,0.129-4.903,0.324c-1.484,0.193-2.903,0.516-4.259,0.902 c-1.353,0.325-2.581,0.774-3.805,1.29c-3.808,1.355-7.227,3.421-10,6.197c-2.776,2.775-4.904,6.258-5.873,10.194 c-0.516,2.063-0.773,4.193-0.58,6.387c0.129,2.194,0.709,4.389,1.678,6.39c1.999,4.128,6,7.484,10.516,8.454 c2.323,0.449,4.71,0.32,6.904-0.325c2.129-0.645,4.064-1.805,5.612-3.29c0.193-0.193,0.387-0.387,0.58-0.582 c-1.031,0.389-2.063,0.711-3.225,0.775c-5.548,0.451-10.387-3.741-10.838-9.292c-0.454-5.549,3.741-10.388,9.289-10.842 c5.551-0.387,10.39,3.744,10.841,9.293c0.516,6.453-2.71,14.392-8.064,17.939c-3.937,2.71-9.227,3.677-13.937,2.388 c-4.775-1.356-8.84-4.775-11.099-9.035c-1.16-2.063-1.936-4.321-2.323-6.58c-0.387-2.258-0.451-4.517-0.258-6.647 c0.258-2.13,0.709-4.13,1.42-6.066c0.645-1.869,1.482-3.679,2.516-5.291c2-3.226,4.581-5.938,7.484-8.067 c2.967-2.191,6.257-3.87,9.936-5.032c1.872-0.578,3.872-1.031,5.935-1.354c2.129-0.322,4.452-0.518,6.84-0.518 c1.227,0,2.516,0.066,3.808,0.195c1.418,0.065,2.773,0.258,4.259,0.451c1.482,0.194,3.031,0.517,4.646,0.905 c1.676,0.387,3.419,0.836,5.226,1.354c1.934,0.58,3.87,1.292,5.936,2.065c2.193,0.838,4.452,1.743,6.839,2.903 c1.292,0.58,2.517,1.16,3.872,1.805c1.353,0.712,2.71,1.485,4.192,2.259c1.485,0.841,2.97,1.681,4.581,2.646 c1.614,0.969,3.292,2.001,5.033,3.099c1.807,1.228,3.679,2.452,5.614,3.806c1.998,1.356,4.063,2.905,6.258,4.518 c2.258,1.678,4.646,3.485,7.097,5.486c0.841,0.645,1.679,1.355,2.517,2.063l0.258,3.164l-2.194,0.58 C468.083,505.759,456.277,497.179,448.211,491.952L448.211,491.952z"
              fill-rule="evenodd" clip-rule="evenodd"/>
        <path class="accent"
              d="M528.346,442.652c-4.386-5.419-8.58-10.065-12.581-14.066 c-3.612-3.549-7.098-6.647-10.452-9.293c-3.097-2.449-6.066-4.515-8.969-6.322c-2.71-1.676-5.355-3.099-7.936-4.259 c-2.388-1.096-4.71-2.063-7.033-2.774c-2.193-0.709-4.323-1.227-6.453-1.613c-2-0.388-3.998-0.645-5.87-0.71 c-1.872-0.129-3.743-0.064-5.483,0.064c-5.486,0.064-10.841,1.29-15.551,3.677c-4.775,2.388-9.034,6.003-12.001,10.648 c-1.548,2.388-2.71,5.1-3.419,7.936c-0.775,2.903-0.969,6.002-0.582,9.034c0.84,6.193,4.452,12.195,10.002,15.356 c2.71,1.614,5.871,2.454,8.967,2.517c3.034,0.129,6.002-0.578,8.647-1.806c0.322-0.129,0.709-0.324,1.031-0.516 c-1.482,0.129-2.968,0.063-4.515-0.324c-7.357-1.806-11.808-9.292-10.003-16.584c1.808-7.42,9.228-11.87,16.582-10.065 c7.356,1.808,11.872,9.292,10.066,16.65c-2.127,8.516-9.679,17.357-18.066,19.678c-6.259,1.81-13.485,0.775-19.098-2.966 c-5.549-3.681-9.228-9.874-10.452-16.325c-0.582-3.228-0.582-6.453-0.064-9.55c0.387-3.032,1.289-5.938,2.517-8.647 c1.16-2.646,2.645-5.033,4.321-7.228c1.678-2.13,3.55-4.065,5.614-5.742c3.87-3.292,8.387-5.68,13.097-7.229 c4.711-1.547,9.743-2.321,14.904-2.192c2.712,0,5.486,0.258,8.26,0.774c2.968,0.516,5.935,1.227,9.034,2.258 c1.611,0.58,3.289,1.16,4.903,1.872c1.74,0.709,3.482,1.547,5.29,2.449c1.808,0.905,3.677,1.938,5.612,3.1 c2.001,1.227,4.065,2.58,6.131,4.063c2.259,1.552,4.452,3.228,6.84,5.164c2.451,1.998,4.968,4.194,7.549,6.645 c1.354,1.291,2.773,2.646,4.192,4.068c1.421,1.482,2.905,3.032,4.453,4.644c1.549,1.678,3.163,3.483,4.774,5.355 c1.678,1.936,3.421,4.065,5.161,6.195c1.808,2.323,3.679,4.71,5.615,7.291c2,2.646,4.063,5.484,6.128,8.517 c2.259,3.163,4.517,6.518,6.84,10.065c0.773,1.228,1.613,2.517,2.387,3.811l-6.388,2.063c-3.226-5.677-5.227-8.905-8.193-13.551 C538.541,456.075,533.315,448.849,528.346,442.652L528.346,442.652z"
              fill-rule="evenodd" clip-rule="evenodd"/>
        <path class="accent"
              d="M402.143,551.38c-0.645,2.97-1.225,5.938-1.742,8.841 c-7.807,49.686,0.324,83.885-0.065,85.045c0.84,5.291,4.968,8.97,9.227,8.261c4.259-0.711,7.098-5.291,6.26-10.261 c0.387-1.097-8.26-33.488-2.323-80.593c0.58-3.677,1.225-7.485,2.001-11.293H402.143z"
              fill-rule="evenodd" clip-rule="evenodd"/>
        <path class="accent"
              d="M402.207,582.742c-0.773-3.809-1.613-7.163-2.581-10.133 c-0.838-2.71-1.743-5.098-2.71-7.291c-0.902-2.001-1.807-3.744-2.774-5.42c-0.905-1.485-1.807-2.839-2.774-4.131 c-0.904-1.16-1.807-2.191-2.71-3.161c-0.905-0.902-1.807-1.742-2.776-2.452c-0.838-0.709-1.74-1.354-2.71-1.871 c-0.838-0.516-1.741-0.967-2.645-1.354c-2.71-1.421-5.677-2.197-8.58-2.197c-2.97-0.062-6.002,0.583-8.647,2.13 c-1.356,0.776-2.645,1.743-3.743,2.97c-1.096,1.228-1.999,2.71-2.581,4.322c-1.16,3.227-0.967,7.1,0.905,10.067 c0.967,1.483,2.258,2.71,3.741,3.55c1.485,0.836,3.163,1.29,4.71,1.354c0.258,0,0.452,0,0.647,0 c-0.776-0.322-1.485-0.776-2.129-1.354c-3.099-2.776-3.357-7.551-0.582-10.712c2.776-3.097,7.616-3.421,10.712-0.58 c3.161,2.774,3.418,7.549,0.644,10.71c-3.289,3.615-9.227,6.002-13.937,4.969c-3.547-0.709-6.839-3.097-8.58-6.324 c-1.807-3.29-2-7.292-0.905-10.775c0.518-1.678,1.356-3.226,2.388-4.646c1.033-1.354,2.194-2.58,3.485-3.611 c1.225-0.97,2.581-1.808,3.999-2.388c1.356-0.646,2.776-1.099,4.194-1.421c2.774-0.58,5.615-0.58,8.325-0.129 c2.709,0.451,5.355,1.421,7.871,2.774c1.289,0.709,2.581,1.55,3.808,2.517c1.353,0.967,2.58,2.129,3.87,3.421 c0.645,0.709,1.291,1.418,1.872,2.192c0.709,0.775,1.353,1.613,2,2.516c0.645,0.97,1.289,1.938,1.936,3.032 c0.645,1.099,1.289,2.259,1.998,3.553c0.647,1.353,1.292,2.774,1.936,4.257c0.71,1.611,1.356,3.354,2.001,5.227 c0.322,0.969,0.709,2,1.031,3.099c0.325,1.096,0.647,2.192,0.97,3.419c0.322,1.228,0.645,2.517,0.967,3.873 c0.322,1.354,0.58,2.836,0.904,4.321c0.322,1.613,0.58,3.29,0.902,5.032c0.258,1.808,0.517,3.744,0.774,5.744 c0.258,2.13,0.518,4.389,0.775,6.709c0.064,0.841,0.129,1.614,0.193,2.455l-3.679-0.645c-0.129-3.551-0.258-5.681-0.516-8.715 C403.692,591.967,402.98,587.001,402.207,582.742L402.207,582.742z"
              fill-rule="evenodd" clip-rule="evenodd"/>
        <path class="accent"
              d="M412.337,611.583c0.711-3.741,1.549-7.163,2.516-10.128 c0.841-2.647,1.743-5.1,2.71-7.229c0.904-2.001,1.807-3.806,2.776-5.42c0.902-1.547,1.805-2.903,2.774-4.13 c0.902-1.16,1.807-2.191,2.709-3.161c0.902-0.902,1.808-1.743,2.774-2.452c0.838-0.709,1.742-1.354,2.71-1.871 c0.84-0.581,1.742-1.034,2.645-1.421c2.71-1.354,5.68-2.13,8.582-2.192c2.968-0.066,6,0.645,8.645,2.13 c1.356,0.773,2.647,1.806,3.743,3.032c1.097,1.228,2.001,2.646,2.581,4.26c1.226,3.225,0.967,7.096-0.902,10.065 c-0.969,1.485-2.259,2.71-3.743,3.548c-1.482,0.84-3.161,1.291-4.71,1.356c-0.258,0.064-0.451,0.064-0.644,0.064 c0.773-0.322,1.484-0.775,2.129-1.354c3.097-2.776,3.354-7.615,0.58-10.713c-2.773-3.163-7.549-3.421-10.709-0.646 c-3.099,2.774-3.421,7.616-0.648,10.713c3.292,3.679,9.228,6.066,14.002,5.033c3.485-0.776,6.775-3.098,8.518-6.387 c1.805-3.229,2.001-7.229,0.902-10.713c-0.516-1.679-1.355-3.293-2.387-4.711c-0.967-1.356-2.194-2.581-3.483-3.548 c-1.227-1.033-2.581-1.808-4.001-2.454c-1.356-0.578-2.774-1.031-4.194-1.354c-2.774-0.58-5.613-0.58-8.322-0.129 c-2.646,0.451-5.355,1.354-7.873,2.774c-1.29,0.646-2.581,1.482-3.806,2.451c-1.292,1.032-2.581,2.194-3.872,3.486 c-0.645,0.645-1.289,1.418-1.869,2.191c-0.712,0.776-1.357,1.614-2.001,2.517c-0.647,0.904-1.292,1.938-1.937,2.97 c-0.645,1.161-1.291,2.321-1.936,3.548c-0.709,1.356-1.354,2.774-2.001,4.324c-0.709,1.611-1.354,3.354-2,5.227 c-0.322,0.969-0.645,2-1.031,3.031c-0.322,1.099-0.645,2.259-0.968,3.422c-0.324,1.225-0.647,2.517-0.969,3.87 c-0.322,1.421-0.58,2.841-0.902,4.388c-0.322,1.614-0.58,3.229-0.904,4.971c-0.258,1.87-0.516,3.742-0.774,5.807 c-0.258,2.064-0.516,4.321-0.709,6.646c-0.129,0.839-0.193,1.677-0.258,2.517l3.677-0.644c0.129-3.614,0.258-5.68,0.516-8.776 C410.789,620.813,411.499,615.909,412.337,611.583L412.337,611.583z"
              fill-rule="evenodd" clip-rule="evenodd"/></g></svg>
