<?xml version="1.0" encoding="UTF-8"?>
<svg  data-name="Layer 1" xmlns="http://www.w3.org/2000/svg" xmlns:xlink="http://www.w3.org/1999/xlink" viewBox="0 0 20 20">
  <path class="cls-2" d="m10,20C4.49,20,0,15.51,0,10S4.49,0,10,0s10,4.49,10,10-4.49,10-10,10Zm0-18C5.59,2,2,5.59,2,10s3.59,8,8,8,8-3.59,8-8S14.41,2,10,2Zm0,13c-2.76,0-5-2.24-5-5s2.24-5,5-5,5,2.24,5,5-2.24,5-5,5Zm0-8c-1.65,0-3,1.35-3,3s1.35,3,3,3,3-1.35,3-3-1.35-3-3-3Z"/>
  <path class="cls-2" d="m1.73,6.47l3.68,1.57c.24-.57.59-1.11,1.06-1.57s1-.81,1.57-1.06l-1.57-3.68c-1.03.44-1.99,1.07-2.83,1.91s-1.47,1.8-1.91,2.83Z"/>
  <path class="cls-2" d="m18.27,13.53l-3.68-1.57c-.24.57-.59,1.11-1.06,1.57s-1,.81-1.57,1.06l1.57,3.68c1.03-.44,1.99-1.07,2.83-1.91s1.47-1.8,1.91-2.83Z"/>
  <path class="cls-2" d="m6.47,18.27l1.57-3.68c-.57-.24-1.11-.59-1.57-1.06s-.81-1-1.06-1.57l-3.68,1.57c.44,1.03,1.07,1.99,1.91,2.83s1.8,1.47,2.83,1.91Z"/>
  <path class="cls-2" d="m13.53,1.73l-1.57,3.68c.57.24,1.11.59,1.57,1.06s.81,1,1.06,1.57l3.68-1.57c-.44-1.03-1.07-1.99-1.91-2.83s-1.8-1.47-2.83-1.91Z"/>
</svg>
