<?xml version="1.0" encoding="UTF-8"?>
<svg  data-name="Layer 1" xmlns="http://www.w3.org/2000/svg" xmlns:xlink="http://www.w3.org/1999/xlink" viewBox="0 0 20 20">
  <g>
    <path class="cls-2" d="m10.69,10.19c-.26,0-.51-.1-.71-.29l-5.36-5.36c-.19-.19-.29-.44-.29-.71s.11-.52.29-.71L7.45.29c.39-.39,1.02-.39,1.41,0l5.36,5.36c.39.39.39,1.02,0,1.41l-2.83,2.83c-.2.2-.45.29-.71.29Zm-3.95-6.36l3.95,3.95,1.41-1.41-3.95-3.95-1.42,1.41Z"/>
    <path class="cls-2" d="m2.55,14.55c-.62,0-1.24-.24-1.72-.71h0s-.1-.1-.1-.1c-.94-.94-.94-2.49,0-3.43l5.28-5.28c.39-.39,1.02-.39,1.41,0l2.12,2.12c.39.39.39,1.02,0,1.41l-5.28,5.28c-.47.47-1.1.71-1.72.71Zm-.3-2.12c.17.17.44.17.61,0l4.58-4.58-.71-.71-4.58,4.58c-.17.17-.17.44,0,.61l.1.1Z"/>
  </g>
  <g>
    <rect class="cls-2" x="6" y="17" width="5" height="2"/>
    <path class="cls-2" d="m11,20h-5c-.55,0-1-.45-1-1v-2c0-.55.45-1,1-1h5c.55,0,1,.45,1,1v2c0,.55-.45,1-1,1Zm-4-2h3-3Z"/>
  </g>
  <g>
    <rect class="cls-2" x="14" y="17" width="5" height="2"/>
    <path class="cls-2" d="m19,20h-5c-.55,0-1-.45-1-1v-2c0-.55.45-1,1-1h5c.55,0,1,.45,1,1v2c0,.55-.45,1-1,1Zm-4-2h3-3Z"/>
  </g>
  <g>
    <rect class="cls-2" x="10" y="12" width="5" height="2"/>
    <path class="cls-2" d="m15,15h-5c-.55,0-1-.45-1-1v-2c0-.55.45-1,1-1h5c.55,0,1,.45,1,1v2c0,.55-.45,1-1,1Zm-4-2h3-3Z"/>
  </g>
</svg>
