<?xml version="1.0" encoding="UTF-8"?>
<svg  data-name="Layer 1" xmlns="http://www.w3.org/2000/svg" xmlns:xlink="http://www.w3.org/1999/xlink" viewBox="0 0 20 20">
  <path class="cls-2" d="m7.79,18c-.21,0-.41-.06-.59-.2L.41,12.8c-.26-.19-.41-.49-.41-.8V3c0-.38.21-.72.54-.89.33-.17.73-.14,1.04.08l7,5c.26.19.42.49.42.81v9c0,.59-.52,1.06-1.11.99-.04,0-.07,0-.11,0Zm-5.79-6.5l5,3.68v-6.66l-5-3.57v6.55Z"/>
  <path class="cls-2" d="m12.21,18s-.07,0-.11,0c-.57.06-1.11-.41-1.11-.99v-9c0-.32.16-.63.42-.81l7-5c.3-.22.7-.25,1.04-.08.33.17.54.51.54.89v9c0,.32-.15.62-.41.8l-6.79,5c-.18.13-.39.2-.59.2Zm.79-9.49v6.66l5-3.68v-6.55l-5,3.57Z"/>
  <path class="cls-2" d="m12,19h-4c-.55,0-1-.45-1-1V7c0-.55.45-1,1-1h4c.55,0,1,.45,1,1v11c0,.55-.45,1-1,1Zm-3-2h2v-9h-2v9Z"/>
  <path class="cls-2" d="m15,11c-.33,0-.65-.16-.84-.45-.3-.46-.17-1.08.29-1.38l1.53-1c.46-.3,1.08-.17,1.38.29.3.46.17,1.08-.29,1.38l-1.53,1c-.17.11-.36.16-.55.16Z"/>
  <path class="cls-2" d="m9.88,8c-.55,0-1-.45-1-1v-1.1l-4.37-2.98-1.65,1.16c-.45.32-1.08.21-1.39-.24-.32-.45-.21-1.08.24-1.39L3.92.89c.34-.24.79-.24,1.14,0l5.38,3.66c.27.19.44.5.44.83v1.63c0,.55-.45,1-1,1Z"/>
  <path class="cls-2" d="m9.88,8c-.55,0-1-.45-1-1v-1.63c0-.33.16-.64.44-.83L14.69.88c.34-.23.8-.23,1.14,0l2.21,1.56c.45.32.56.94.24,1.39-.32.45-.94.56-1.39.24l-1.65-1.16-4.37,2.98v1.1c0,.55-.45,1-1,1Z"/>
</svg>
