<?xml version="1.0" encoding="UTF-8"?>
<svg  data-name="Layer 1" xmlns="http://www.w3.org/2000/svg" xmlns:xlink="http://www.w3.org/1999/xlink" viewBox="0 0 20 20">
  <path class="cls-2" d="m5.31,20c-.77,0-1.53-.2-2.23-.61-1.36-.8-2.18-2.22-2.18-3.8V4.41C.9,2.78,1.75,1.34,3.18.55c1.43-.79,3.1-.74,4.48.13l9.38,5.93c1.33.84,2.09,2.28,2.05,3.85-.04,1.57-.89,2.96-2.26,3.73l-9.38,5.24c-.68.38-1.42.57-2.15.57Zm0-18c-.4,0-.8.1-1.17.3-.78.43-1.25,1.22-1.25,2.11v11.17c0,.86.44,1.64,1.19,2.08.75.44,1.64.45,2.39.02h0l9.38-5.24c.75-.42,1.21-1.18,1.23-2.04.02-.86-.4-1.64-1.12-2.1L6.6,2.38c-.4-.25-.84-.38-1.28-.38Z"/>
</svg>
