<?xml version="1.0" ?><!-- Uploaded to: SVG Repo, www.svgrepo.com, Generator: SVG Repo Mixer Tools -->
<svg width="800px" height="800px" viewBox="0 0 2050 2050" data-name="Layer 3" id="Layer_3"
     xmlns="http://www.w3.org/2000/svg">
    <defs>
        <style>
            :root { fill:#222 }
            .accent { fill: #f9322c; }

            @media (prefers-color-scheme: dark) {
            :root {  fill: #f9322c; }
            .accent { fill:#dee2e6; }
            }
        </style>
    </defs>
    <title/>
    <path class="accent"
          d="M578.4,1532a5.5,5.5,0,0,1-3.8-1.6,5.4,5.4,0,0,1,0-7.6l48.4-48.5a5.4,5.4,0,0,1,7.6,0,5.5,5.5,0,0,1,0,7.7l-48.4,48.4A5.7,5.7,0,0,1,578.4,1532Zm96.8-96.9a5.2,5.2,0,0,1-3.8-1.6,5.4,5.4,0,0,1,0-7.6l48.4-48.4a5.5,5.5,0,0,1,7.7,0,5.4,5.4,0,0,1,0,7.6L679,1433.5A5.1,5.1,0,0,1,675.2,1435.1Zm96.9-96.8a5.5,5.5,0,0,1-3.8-1.6,5.4,5.4,0,0,1,0-7.6l48.4-48.5a5.4,5.4,0,0,1,7.6,0,5.5,5.5,0,0,1,0,7.7l-48.4,48.4A5.7,5.7,0,0,1,772.1,1338.3Zm96.8-96.9a5.2,5.2,0,0,1-3.8-1.6,5.4,5.4,0,0,1,0-7.6l48.4-48.4a5.5,5.5,0,0,1,7.7,0,5.4,5.4,0,0,1,0,7.6l-48.5,48.4A5.1,5.1,0,0,1,868.9,1241.4Zm96.9-96.8a5.5,5.5,0,0,1-3.8-1.6,5.4,5.4,0,0,1,0-7.6l22.8-22.9a5.4,5.4,0,0,1,7.6,7.6L969.6,1143A5.7,5.7,0,0,1,965.8,1144.6Z"/>
    <path class="accent"
          d="M1095.9,1062.1a5.5,5.5,0,0,1-3.2-1,5.4,5.4,0,0,1-1.2-7.5l39.7-55.8a5.4,5.4,0,0,1,8.8,6.3l-39.7,55.7A5.4,5.4,0,0,1,1095.9,1062.1Zm79.5-111.5a5.7,5.7,0,0,1-3.1-1,5.5,5.5,0,0,1-1.3-7.6l39.8-55.7a5.4,5.4,0,0,1,7.5-1.3,5.3,5.3,0,0,1,1.2,7.5l-39.7,55.8A5.4,5.4,0,0,1,1175.4,950.6ZM1254.9,839a5,5,0,0,1-3.1-1,5.3,5.3,0,0,1-1.3-7.5l39.8-55.7a5.3,5.3,0,1,1,8.7,6.2l-39.7,55.8A5.3,5.3,0,0,1,1254.9,839Zm79.5-111.5a5,5,0,0,1-3.1-1,5.4,5.4,0,0,1-1.3-7.5l39.8-55.8a5.4,5.4,0,0,1,8.8,6.3l-39.8,55.8A5.4,5.4,0,0,1,1334.4,727.5ZM1413.9,616a5,5,0,0,1-3.1-1,5.4,5.4,0,0,1-1.3-7.5l39.8-55.8a5.3,5.3,0,0,1,7.5-1.2,5.4,5.4,0,0,1,1.3,7.5l-39.8,55.7A5.3,5.3,0,0,1,1413.9,616Z"/>
    <path
          d="M1562.6,568.7a113.1,113.1,0,0,1-155.7,159.8l-.8-.6a24.5,24.5,0,0,0-34.1,5.7l-229.6,322,24,24.7L1412,735.9a108.8,108.8,0,0,0,19.3,17c50.4,34.8,120.1,22.8,156-26.8A113.2,113.2,0,0,0,1562.6,568.7Z"/>
    <path
          d="M1024.8,1132.1,745.5,1411.5a25.4,25.4,0,0,0,0,35.8v.2c2.1,2.1,4.1,4.3,6,6.5l297.6-297.6-22.9-40.1-11.2-1.3Z"/>
    <path
          d="M755.7,1459.4c32.3,44,28.6,106.5-10.7,146.3a113.1,113.1,0,0,1-147.3,11.8,114.7,114.7,0,0,0,11.2,13,113,113,0,0,0,160.4-.5c43.1-43.5,43.4-114.3.7-158.2A118.7,118.7,0,0,0,755.7,1459.4Z"/>
    <path
          d="M1166.4,1095.3a14.9,14.9,0,0,1-10.7-4.5l-24.4-25-33.8,8.2a15.1,15.1,0,0,1-13.1-3,15.2,15.2,0,0,1-5.4-12.3l1.8-38.1-33.9-8.4a15,15,0,0,1-8.6-23.2l235.6-330.4a88,88,0,0,1-9-6A128.1,128.1,0,1,1,1468,534.8a128,128,0,1,1-45.2,230.4c-3-2.1-5.8-4.2-8.6-6.5L1178.7,1089a15.5,15.5,0,0,1-11.1,6.3Zm-30.3-61.1a14.9,14.9,0,0,1,10.7,4.5l17.9,18.3,235.1-329.8a14.7,14.7,0,0,1,11.3-6.2,15.1,15.1,0,0,1,12,4.8,94.3,94.3,0,0,0,16.8,14.7c43.5,30.2,104.2,19.7,135.2-23.2a98.1,98.1,0,0,0-115.9-148.5,15,15,0,0,1-14.2-1.7,15.2,15.2,0,0,1-6.3-13A98.1,98.1,0,0,0,1260.5,493c-30.5,43.3-20.5,104.1,22.2,135.4a92.9,92.9,0,0,0,19.3,11.1,14.9,14.9,0,0,1,8.5,9.8,15.1,15.1,0,0,1-2.2,12.7L1075.6,988.4l24.3,6.1a15,15,0,0,1,11.4,15.2l-1.4,30.4,22.7-5.5A13.9,13.9,0,0,1,1136.1,1034.2Z"/>
    <path
          d="M688.9,1678.7A128,128,0,0,1,561,1544a128,128,0,1,1-7.2-255.9h.6a127,127,0,0,1,89.2,36.1,92.2,92.2,0,0,1,7.4,7.9l286.9-286.9a14.8,14.8,0,0,1,8.1-4.2l47-7.9a15,15,0,0,1,17.2,17.6l-9,47.5,26.9,3.2a15.1,15.1,0,0,1,11.2,7.5l22.9,40.1a15.1,15.1,0,0,1-2.4,18L772.9,1453.9c2.7,2.4,5.3,4.9,7.8,7.4a128.1,128.1,0,0,1-91.4,217.4ZM578.4,1511.6a14.9,14.9,0,0,1,14.6,18.1,98.2,98.2,0,0,0,95.9,119h.3a97.7,97.7,0,0,0,69.5-29.2c37.2-37.7,37.4-99.3.5-137.3a100.9,100.9,0,0,0-17.2-14.1,14.7,14.7,0,0,1-6.8-11,15,15,0,0,1,4.3-12.2l291-291-13.5-23.6-35.3-4.2a15.3,15.3,0,0,1-10.3-6,14.8,14.8,0,0,1-2.6-11.7l7.9-42.2-21,3.6L660,1365.5a14.8,14.8,0,0,1-12.2,4.3,15.2,15.2,0,0,1-11-6.8,97.8,97.8,0,0,0-14.1-17.3c-38-36.9-99.6-36.7-137.3.6a98.1,98.1,0,0,0,89.8,165.6A17.3,17.3,0,0,1,578.4,1511.6Z"/>
    <rect class="accent" height="170.38" transform="matrix(0.99, -0.16, 0.16, 0.99, -112.6, 169.45)" width="30" x="972.6"
          y="693.3"/>
    <rect class="accent" height="170.38" transform="translate(-331.5 1595.8) rotate(-80.7)" width="30" x="758.1"
          y="907.8"/>
    <rect class="accent" height="152.62" transform="translate(-359.8 861.1) rotate(-45)" width="30" x="844.5" y="788.5"/>
    <rect class="accent" height="170.38" transform="translate(10 2245.2) rotate(-80.7)" width="30" x="1310.9"
          y="1031.5"/>
    <rect class="accent" height="170.38" transform="matrix(0.99, -0.16, 0.16, 0.99, -200.12, 196.64)" width="30"
          x="1096.4" y="1246"/>
    <rect class="accent" height="152.62" transform="translate(-517.2 1241.1) rotate(-45)" width="30" x="1224.5"
          y="1168.5"/>
</svg>
