<?xml version="1.0" encoding="UTF-8"?>
<svg xmlns="http://www.w3.org/2000/svg" viewBox="0 0 677.07 533.16">
  <defs>
      <style>
          :root { fill:#222 }
          .accent { fill: #f9322c; }

          @media (prefers-color-scheme: dark) {
          :root {  fill: #f9322c; }
          .accent { fill:#dee2e6; }
          }
      </style>

  </defs>
  <path class="accent" d="m336.43,172.29c-38.87,0-70.39,31.51-70.39,70.39s31.51,70.39,70.39,70.39c8,0,15.68-1.34,22.84-3.79-1.75-4.58-4.28-10.99-6-14.55-1.44-2.99-7.92-12.91-14.2-22.32-1.85.36-3.76.55-5.72.55-16.54,0-29.95-13.41-29.95-29.95s13.41-29.95,29.95-29.95,29.95,13.41,29.95,29.95c0,5.48-1.48,10.61-4.05,15.03,4.53,6.05,9.6,11.86,9.6,11.86l14.66,25.1c14.31-12.88,23.3-31.55,23.3-52.32,0-38.87-31.51-70.39-70.39-70.39Z"/>
  <g>
    <path class="accent" d="m366.91,432.62c-1.42-.79-4.68-2.95-7.06-4.55-9.63,1.5-19.5,2.29-29.55,2.29v10.91c14.53,0,28.69-1.55,42.35-4.48-1.67-1.4-4.17-3.29-5.73-4.17Z"/>
    <path class="accent" d="m520.7,239.95c0,65.85-33.43,123.9-84.25,158.09-.15,2.61.41,6.99,1.38,12.12,56.36-35.68,93.78-98.57,93.78-170.21h-10.91Z"/>
  </g>
  <path class="accent" d="m330.29,364.87c-68.99,0-124.92-55.93-124.92-124.92h-7.16c0,72.95,59.13,132.08,132.08,132.08v-7.16Z"/>
  <path class="accent" d="m330.29,115.02c68.99,0,124.92,55.93,124.92,124.92h7.16c0-72.95-59.13-132.08-132.08-132.08v7.16Z"/>
  <g>
    <path class="cls-1" d="m428.02,361.18c-.35,0-.71-.12-.99-.38-6.23-5.5-26.84-32.2-31.09-38.42-4.62-6.75-13.44-19.72-13.44-19.72-.09-.13-.16-.28-.2-.44-.68-2.41-10.6-17.29-17.93-25.98-5.54-6.57-14.99-23-20.06-31.83-1.43-2.49-2.56-4.45-3.09-5.3-1.4-2.25-6-6.82-10.78-7.71-2.07-.39-3.82-.02-5.35,1.13-4.84,3.63-2.49,12.93-1.61,16.43.2.78.3,1.21.35,1.54.34.91,2.95,4.86,5.25,8.36,3.62,5.49,8.12,12.32,10.05,16.4,3.42,7.22,12.3,22.15,16.39,28.3,4.27,6.44,8.64,21.18,8.82,21.81.23.79-.22,1.63-1.02,1.86-.79.23-1.63-.22-1.86-1.02-.04-.15-4.42-14.94-8.44-21-4.13-6.23-13.12-21.35-16.6-28.68-1.84-3.89-6.28-10.62-9.85-16.03-4.48-6.8-5.63-8.63-5.72-9.61-.02-.15-.16-.71-.28-1.21-1.02-4.03-3.71-14.74,2.72-19.56,2.21-1.66,4.8-2.22,7.7-1.68,5.5,1.03,10.88,6.02,12.78,9.08.56.9,1.64,2.79,3.15,5.4,5.03,8.75,14.39,25.02,19.76,31.39,6.7,7.95,17.08,23.08,18.44,26.83,1.06,1.56,9.02,13.25,13.32,19.54,4.71,6.87,24.93,32.87,30.6,37.87.62.55.68,1.5.13,2.12-.3.34-.71.51-1.13.51Z"/>
    <path class="cls-1" d="m357.06,369.43c-.44,0-.88-.2-1.18-.57-.06-.07-5.81-7.35-8.49-10.45-1.56-1.81-2.64-5.98-4.01-11.27-1.3-5.02-2.78-10.71-4.82-14.57-4.26-8.06-3.8-11.47-3.73-11.83.02-.12.06-.24.11-.36.07-.15,7.12-15.12,22.08-12.75.82.13,1.38.9,1.25,1.72-.13.82-.91,1.38-1.72,1.25-11.83-1.89-17.91,9.11-18.77,10.82,0,.64.19,3.61,3.44,9.75,2.2,4.17,3.72,10.04,5.07,15.22,1.12,4.32,2.28,8.78,3.38,10.06,2.72,3.15,8.34,10.25,8.57,10.55.51.65.4,1.59-.25,2.11-.28.22-.6.32-.93.32Z"/>
    <path class="cls-1" d="m375.64,371.03c-.44,0-.88-.19-1.17-.56-3.32-4.15-3.9-6.47-4.69-9.68-.47-1.91-1.01-4.08-2.25-7.29-3.25-8.43-8.3-13.63-8.35-13.69-.58-.59-.57-1.54.02-2.12.59-.58,1.54-.57,2.12.02.22.23,5.53,5.67,9.01,14.71,1.31,3.39,1.89,5.75,2.36,7.65.75,3.05,1.21,4.89,4.12,8.52.52.65.41,1.59-.23,2.11-.28.22-.61.33-.94.33Z"/>
    <path class="cls-1" d="m395.02,355.72c-.68,0-1.29-.46-1.46-1.15-.03-.14-.79-3.41-.29-9.84.25-3.24-4.6-10.77-8.87-17.42-3.22-5.01-6.26-9.74-7.72-13.34-.31-.77.06-1.64.83-1.95.77-.31,1.64.06,1.95.83,1.35,3.34,4.46,8.17,7.46,12.84,4.97,7.73,9.67,15.03,9.34,19.28-.46,5.89.22,8.89.22,8.92.19.81-.31,1.61-1.12,1.8-.12.03-.23.04-.35.04Z"/>
    <path class="cls-1" d="m353.57,322.17c-.38,0-.76-.14-1.05-.43-.23-.23-5.7-5.68-7-11.04-.2-.8.3-1.62,1.1-1.81.8-.2,1.62.3,1.81,1.1,1.1,4.53,6.15,9.57,6.2,9.62.59.58.59,1.53,0,2.12-.29.3-.68.45-1.07.45Z"/>
    <path class="cls-1" d="m345.79,263.98c-.61,0-1.18-.37-1.41-.98-.29-.78.11-1.64.89-1.93,4.01-1.48,4.54-6.8,4.54-6.85.07-.82.82-1.43,1.62-1.36.82.07,1.43.79,1.37,1.62-.03.29-.68,7.26-6.49,9.41-.17.06-.35.09-.52.09Z"/>
    <path class="cls-1" d="m357.98,290.31c-.65,0-1.25-.43-1.44-1.08-.23-.8.23-1.63,1.02-1.86,8-2.32,8.87-8.78,8.91-9.05.1-.82.85-1.41,1.66-1.31.82.09,1.41.83,1.32,1.65-.04.35-1.08,8.69-11.05,11.59-.14.04-.28.06-.42.06Z"/>
    <path class="cls-1" d="m362.57,294.63c-.65,0-1.25-.43-1.44-1.09-.23-.8.23-1.63,1.03-1.85,3.49-.99,5.35-4.44,5.36-4.48.39-.73,1.29-1.01,2.02-.63.73.38,1.02,1.29.63,2.02-.1.19-2.45,4.62-7.2,5.97-.14.04-.28.06-.41.06Z"/>
    <path class="cls-1" d="m340.22,261.47c-.65,0-1.24-.42-1.44-1.07-.24-.79.22-1.63,1.01-1.86,2.39-.71,4.92-3.45,5.7-4.44.51-.65,1.45-.77,2.1-.26.65.51.77,1.45.27,2.1-.14.18-3.41,4.35-7.21,5.48-.14.04-.29.06-.43.06Z"/>
    <path class="cls-1" d="m330.79,252.59c-6.3,0-9.28-6.35-11.57-13.25-.26-.79.17-1.64.95-1.9.79-.26,1.64.17,1.9.95,2.69,8.12,5.26,11.34,9.03,11.18,2.96-.14,6.48-2.43,8.06-4.48.73-.94.84-1.56.79-1.78-.46-2.12-3.77-8.12-5-10.26-.42-.72-.17-1.63.55-2.05.72-.42,1.64-.17,2.05.55.48.83,4.7,8.18,5.34,11.13.27,1.27-.19,2.74-1.35,4.24-2,2.6-6.28,5.46-10.29,5.64-.15,0-.3.01-.45.01Z"/>
    <path class="cls-1" d="m450.24,455.3c-.6,0-1.17-.37-1.4-.96-1.49-3.88-14.54-37.98-15.15-40.44-.62-2.5-5.39-38.78-5.66-46.67-.27-8.13-5.23-27.29-7.57-29.29-3.34-2.85-19.3-25.34-22.17-31.25-1.26-2.6-3.21-4.31-5.48-4.83-2.33-.53-4.89.24-7.4,2.23-.65.51-1.59.41-2.11-.24-.51-.65-.41-1.59.24-2.11,4.1-3.25,7.66-3.32,9.93-2.8,3.18.72,5.85,3.01,7.51,6.44,2.85,5.87,18.71,27.97,21.42,30.28,3.71,3.17,8.38,24.07,8.62,31.47.26,7.79,5.06,44.02,5.57,46.05.43,1.72,9.23,24.92,15.04,40.09.3.77-.09,1.64-.86,1.94-.18.07-.36.1-.54.1Z"/>
    <path class="cls-1" d="m413.16,431.34c-.79,0-1.45-.62-1.5-1.42-.17-3.05-1.99-5.85-4.1-9.1-1.84-2.82-3.92-6.01-5.2-9.92-2.75-8.35-3.64-17.43-3.5-35.99,0-.82.68-1.49,1.5-1.49h.01c.83,0,1.5.68,1.49,1.51-.13,18.19.72,27.03,3.35,35.03,1.17,3.54,3.05,6.43,4.87,9.23,2.25,3.46,4.38,6.72,4.59,10.58.04.83-.59,1.53-1.42,1.58-.03,0-.05,0-.08,0Z"/>
    <path class="cls-1" d="m342.96,386.23c-.41,0-.81-.17-1.11-.49-.15-.16-.31-.33-.48-.51-1.42-1.5-3.55-3.76-5.55-8.8-2.44-6.16.87-16.28,2.34-19.66.33-.76,1.22-1.11,1.97-.77.76.33,1.11,1.22.77,1.97-1.86,4.26-4.13,12.74-2.3,17.36,1.78,4.5,3.61,6.43,4.94,7.84.18.19.36.38.51.55.56.61.51,1.56-.1,2.12-.29.26-.65.39-1.01.39Z"/>
    <path class="cls-1" d="m336.45,372.77c-.69,0-1.32-.48-1.47-1.19-.15-.73-3.76-17.91-4.22-23.09-.55-6.23,2.19-10.66,8.87-14.37.72-.4,1.64-.14,2.04.58.4.72.14,1.64-.58,2.04-5.58,3.09-7.78,6.53-7.34,11.48.44,5,4.13,22.56,4.16,22.73.17.81-.35,1.61-1.16,1.78-.1.02-.21.03-.31.03Z"/>
    <path class="cls-1" d="m378.48,468.36c-.65,0-1.25-.43-1.44-1.09-.05-.19-5.53-19.34-8.63-24.26-2.28-3.62-4.7-5.46-8.36-8.23-1.24-.94-2.64-2-4.18-3.25-5.81-4.71-17.09-17.26-18.56-20.66-.64-1.47-2.53-3.49-4.53-5.63-1.61-1.72-3.43-3.67-4.98-5.73-4.27-5.67-6.84-19.06-7.31-21.69-1.05-5.87,4.51-17.96,11.24-24.42.6-.57,1.55-.55,2.12.04.57.6.55,1.55-.04,2.12-5.91,5.67-11.24,16.84-10.36,21.72,1,5.58,3.56,16.16,6.76,20.41,1.45,1.93,3.14,3.74,4.78,5.49,2.27,2.43,4.24,4.54,5.08,6.48,1.09,2.51,11.59,14.58,17.7,19.53,1.5,1.22,2.88,2.26,4.1,3.19,3.78,2.87,6.52,4.94,9.09,9.02,3.33,5.29,8.75,24.23,8.98,25.04.23.8-.23,1.63-1.03,1.85-.14.04-.28.06-.41.06Z"/>
    <path class="cls-1" d="m377.91,423.42c-.47,0-.92-.22-1.22-.62-.13-.19-3.32-4.73-3.93-14.36-.57-8.94-3.64-20.12-7.15-26.02-.42-.71-.19-1.63.52-2.06.71-.42,1.63-.19,2.06.52,3.71,6.25,6.97,18.01,7.56,27.36.55,8.68,3.35,12.77,3.38,12.81.47.68.31,1.61-.36,2.09-.26.19-.57.28-.87.28Z"/>
    <path class="cls-1" d="m332.95,393.72c-.21,0-.42-.04-.62-.14-.75-.34-1.08-1.23-.74-1.99.03-.06,2.68-6.02.75-10.59-.32-.76.03-1.64.8-1.97.76-.32,1.64.04,1.97.8,2.45,5.8-.65,12.71-.78,13-.25.55-.8.88-1.37.88Z"/>
    <path class="cls-1" d="m350.46,389.15c-.58,0-1.14-.34-1.38-.91-.13-.32-3.27-7.89-.4-18.26.22-.8,1.05-1.27,1.84-1.05.8.22,1.27,1.05,1.05,1.84-2.59,9.37.24,16.22.27,16.29.32.76-.03,1.64-.79,1.97-.19.08-.39.12-.59.12Z"/>
  </g>
  <path class="cls-1" d="m330.29,271.4c-17.34,0-31.45-14.11-31.45-31.45s14.11-31.45,31.45-31.45,31.45,14.11,31.45,31.45c0,6.67-2.06,13.04-5.96,18.43-.49.67-1.43.82-2.09.33-.67-.49-.82-1.42-.33-2.09,3.53-4.87,5.39-10.63,5.39-16.67,0-15.69-12.76-28.45-28.45-28.45s-28.45,12.76-28.45,28.45,12.76,28.45,28.45,28.45c1.12,0,2.25-.07,3.35-.2.82-.09,1.57.49,1.67,1.32.1.82-.49,1.57-1.32,1.67-1.22.14-2.46.21-3.7.21Z"/>
  <path class="cls-1" d="m330.29,311.84c-39.64,0-71.89-32.25-71.89-71.89s32.25-71.89,71.89-71.89,71.89,32.25,71.89,71.89c0,20.12-8.52,39.45-23.36,53.04-.61.56-1.56.52-2.12-.09s-.52-1.56.09-2.12c14.23-13.02,22.39-31.55,22.39-50.83,0-37.99-30.9-68.89-68.89-68.89s-68.89,30.9-68.89,68.89,30.9,68.89,68.89,68.89c8.36,0,16.54-1.48,24.29-4.4.78-.3,1.64.1,1.93.87.29.78-.1,1.64-.87,1.93-8.09,3.05-16.62,4.6-25.35,4.6Z"/>
  <path class="cls-1" d="m459.88,241.45c-.83,0-1.5-.67-1.5-1.5,0-70.63-57.46-128.09-128.09-128.09-.83,0-1.5-.67-1.5-1.5s.67-1.5,1.5-1.5c72.28,0,131.09,58.81,131.09,131.09,0,.83-.67,1.5-1.5,1.5Z"/>
  <path class="cls-1" d="m330.29,371.03c-72.28,0-131.09-58.81-131.09-131.09,0-.83.67-1.5,1.5-1.5s1.5.67,1.5,1.5c0,70.63,57.46,128.09,128.09,128.09.83,0,1.5.67,1.5,1.5s-.67,1.5-1.5,1.5Z"/>
  <path class="cls-1" d="m330.29,439.17c-.83,0-1.5-.67-1.5-1.5s.67-1.5,1.5-1.5c10.63,0,21.3-.86,31.71-2.55.82-.13,1.59.42,1.72,1.24.13.82-.42,1.59-1.24,1.72-10.57,1.72-21.4,2.59-32.19,2.59Z"/>
  <path class="cls-1" d="m434.83,409.31c-.5,0-.99-.25-1.27-.71-.44-.7-.22-1.63.48-2.07,57.91-36.14,92.48-98.41,92.48-166.59,0-.83.67-1.5,1.5-1.5s1.5.67,1.5,1.5c0,34.43-8.92,68.36-25.81,98.13-16.37,28.87-39.92,53.42-68.09,71-.25.15-.52.23-.79.23Z"/>
  <path class="cls-1" d="m330.29,165.1c-.83,0-1.5-.67-1.5-1.5v-11.89c0-.83.67-1.5,1.5-1.5s1.5.67,1.5,1.5v11.89c0,.83-.67,1.5-1.5,1.5Z"/>
  <path class="cls-1" d="m330.29,330.08c-.83,0-1.5-.67-1.5-1.5v-11.89c0-.83.67-1.5,1.5-1.5s1.5.67,1.5,1.5v11.89c0,.83-.67,1.5-1.5,1.5Z"/>
  <path class="cls-1" d="m418.73,241.64h-11.89c-.83,0-1.5-.67-1.5-1.5s.67-1.5,1.5-1.5h11.89c.83,0,1.5.67,1.5,1.5s-.67,1.5-1.5,1.5Z"/>
  <path class="cls-1" d="m253.75,241.64h-11.89c-.83,0-1.5-.67-1.5-1.5s.67-1.5,1.5-1.5h11.89c.83,0,1.5.67,1.5,1.5s-.67,1.5-1.5,1.5Z"/>
  <path class="cls-1" d="m276.17,187.52c-.38,0-.77-.15-1.06-.44l-8.41-8.41c-.59-.59-.59-1.54,0-2.12s1.54-.59,2.12,0l8.41,8.41c.59.59.59,1.54,0,2.12-.29.29-.68.44-1.06.44Z"/>
  <path class="cls-1" d="m384.42,187.52c-.38,0-.77-.15-1.06-.44-.59-.59-.59-1.54,0-2.12l8.41-8.41c.59-.59,1.54-.59,2.12,0s.59,1.54,0,2.12l-8.41,8.41c-.29.29-.68.44-1.06.44Z"/>
  <path class="cls-1" d="m267.76,304.18c-.38,0-.77-.15-1.06-.44-.59-.59-.59-1.54,0-2.12l8.41-8.41c.59-.59,1.54-.59,2.12,0s.59,1.54,0,2.12l-8.41,8.41c-.29.29-.68.44-1.06.44Z"/>
  <path class="cls-1" d="m180.51,241.64h-23.27c-.83,0-1.5-.67-1.5-1.5s.67-1.5,1.5-1.5h23.27c.83,0,1.5.67,1.5,1.5s-.67,1.5-1.5,1.5Z"/>
  <path class="cls-1" d="m207.93,364.01c-.38,0-.77-.15-1.06-.44-.59-.59-.59-1.54,0-2.12l16.46-16.46c.59-.59,1.54-.59,2.12,0s.59,1.54,0,2.12l-16.46,16.46c-.29.29-.68.44-1.06.44Z"/>
  <path class="cls-1" d="m170.41,307.87c-.59,0-1.15-.35-1.39-.93-.32-.77.05-1.64.81-1.96l21.5-8.91c.77-.32,1.64.05,1.96.81.32.77-.05,1.64-.81,1.96l-21.5,8.91c-.19.08-.38.11-.57.11Z"/>
  <g>
    <path class="cls-1" d="m330.29,91.86c-.83,0-1.5-.67-1.5-1.5v-23.27c0-.83.67-1.5,1.5-1.5s1.5.67,1.5,1.5v23.27c0,.83-.67,1.5-1.5,1.5Z"/>
    <path class="cls-1" d="m503.35,241.64h-23.27c-.83,0-1.5-.67-1.5-1.5s.67-1.5,1.5-1.5h23.27c.83,0,1.5.67,1.5,1.5s-.67,1.5-1.5,1.5Z"/>
    <path class="cls-1" d="m436.21,135.73c-.38,0-.77-.15-1.06-.44-.59-.59-.59-1.54,0-2.12l16.46-16.46c.59-.59,1.54-.59,2.12,0s.59,1.54,0,2.12l-16.46,16.46c-.29.29-.68.44-1.06.44Z"/>
    <path class="cls-1" d="m468.68,184.32c-.59,0-1.15-.35-1.39-.93-.32-.77.05-1.64.81-1.96l21.5-8.91c.77-.32,1.64.05,1.96.81.32.77-.05,1.64-.81,1.96l-21.5,8.91c-.19.08-.38.11-.57.11Z"/>
    <path class="cls-1" d="m387.61,103.26c-.19,0-.39-.04-.57-.11-.77-.32-1.13-1.19-.81-1.96l8.91-21.5c.32-.77,1.2-1.13,1.96-.81.77.32,1.13,1.19.81,1.96l-8.91,21.5c-.24.58-.8.93-1.39.93Z"/>
  </g>
  <path class="cls-1" d="m264.07,401.53c-.19,0-.39-.04-.57-.11-.77-.32-1.13-1.19-.81-1.96l8.91-21.5c.32-.76,1.19-1.13,1.96-.81.77.32,1.13,1.19.81,1.96l-8.91,21.5c-.24.58-.8.93-1.39.93Z"/>
</svg>
