<?xml version="1.0" encoding="UTF-8"?>
<svg id="Layer_1" data-name="Layer 1" xmlns="http://www.w3.org/2000/svg" viewBox="0 0 677.07 533.16">
  <defs>
      <style>
          :root { fill:#222 }
          .accent { fill: #f9322c; }

          @media (prefers-color-scheme: dark) {
          :root {  fill: #f9322c; }
          .accent { fill:#dee2e6; }
          }
      </style>
  </defs>
  <g>
    <path class="accent" d="m559.86,121.09s-16.34,3.06-22.34.51l-.18-.48c-28.99,25.88-61.51,56.21-66.66,60.44-8.86,7.28-35.57,26.43-45.91,32.17s-171.57,121.79-188.81,134.81c-17.23,13.02-184.21,126.64-184.21,126.64-8.94,3.32-14.04,11.11-6.51,17.62,7.53,6.51,14.55.51,30.25-10.6s136.33-93.83,160.47-108.77c24.14-14.94,156.64-118.72,170.81-127.53,14.17-8.81,73.53-51.32,94.42-70.09,11.22-10.08,36.83-31.08,58.26-48.5l.4-6.23Z"/>
    <path class="accent" d="m597.02,87.79l-13.69,6.45,8.17-10.47-.13-1.07c-2.27-.79-5.07-.72-8.42.81-3,1.37-9.85,6.69-18.77,14.19.49,1.75,1.55,5.96,1.11,8.2-.57,2.87,1.15,7.6,1.15,7.6l3.87,5.02c13.29-10.76,23.08-18.63,23.36-18.91.77-.77,1.15-.38,4.21-2.68,1.44-1.08,1.19-5.44-.86-9.13Z"/>
  </g>
  <g>
    <g>
      <polygon class="accent" points="503.61 316.9 486.64 323.63 486.64 345.14 486.64 366.64 503.61 359.91 520.58 353.18 520.58 331.68 520.58 310.17 503.61 316.9"/>
      <polygon class="accent" points="486.64 376 469.68 382.73 452.71 389.46 452.71 410.97 469.68 404.24 486.64 397.51 503.61 390.78 520.58 384.05 520.58 362.54 503.61 369.27 486.64 376"/>
      <polygon class="accent" points="486.64 406.55 469.68 413.28 469.68 434.78 486.64 428.05 503.61 421.32 520.58 414.6 520.58 393.09 503.61 399.82 486.64 406.55"/>
    </g>
    <polyline class="accent" points="272.86 246.44 272.86 299.79 280.53 299.08 286.23 305.35 294.56 304.65 314.94 289.45 314.94 263.13 357.16 246.39 348.8 247.09 343.08 240.81 334.73 241.51 329.01 235.22 320.66 235.93 314.94 229.65 272.73 246.39"/>
    <g>
      <path class="cls-1" d="m369.8,284.06c-.19,0-.38-.04-.55-.11l-12.05-4.78c-.77-.31-1.15-1.18-.84-1.95.3-.77,1.18-1.15,1.95-.84l11.5,4.56,154.91-61.44-56.26-22.31c-.77-.31-1.15-1.18-.84-1.95.31-.77,1.18-1.15,1.95-.84l59.77,23.71c.57.23.95.78.95,1.39s-.38,1.17-.95,1.39l-158.98,63.05c-.18.07-.37.11-.55.11Z"/>
      <path class="cls-1" d="m336.75,270.95c-.18,0-.37-.03-.55-.11l-125.93-49.94c-.57-.23-.95-.78-.95-1.39s.38-1.17.95-1.39l158.98-63.05c.36-.14.75-.14,1.11,0l82.92,32.88c.77.31,1.15,1.18.84,1.95-.31.77-1.18,1.14-1.95.84l-82.36-32.67-154.91,61.44,122.41,48.55c.77.31,1.15,1.18.84,1.95-.23.59-.8.95-1.39.95Z"/>
    </g>
    <g>
      <path class="cls-1" d="m210.82,362.07c-.83,0-1.5-.67-1.5-1.5v-141.07c0-.83.67-1.5,1.5-1.5s1.5.67,1.5,1.5v141.07c0,.83-.67,1.5-1.5,1.5Z"/>
      <path class="cls-1" d="m369.8,485.59c-.19,0-.38-.04-.55-.11l-158.98-63.05c-.57-.23-.95-.78-.95-1.39v-36.13c0-.83.67-1.5,1.5-1.5s1.5.67,1.5,1.5v35.11l157.48,62.46,158.43-62.83c.77-.3,1.64.07,1.95.84.31.77-.07,1.64-.84,1.95l-158.98,63.05c-.18.07-.37.11-.55.11Z"/>
    </g>
    <path class="cls-1" d="m528.78,422.53c-.83,0-1.5-.67-1.5-1.5v-201.53c0-.83.67-1.5,1.5-1.5s1.5.67,1.5,1.5v201.53c0,.83-.67,1.5-1.5,1.5Z"/>
    <path class="cls-1" d="m369.8,485.59c-.83,0-1.5-.67-1.5-1.5v-201.53c0-.83.67-1.5,1.5-1.5s1.5.67,1.5,1.5v201.53c0,.83-.67,1.5-1.5,1.5Z"/>
    <g>
      <path class="cls-1" d="m483.23,363.6c-.3,0-.59-.09-.84-.26-.41-.28-.66-.74-.66-1.24v-43.01c0-.62.38-1.17.95-1.39l16.97-6.73h0l16.97-6.73c.46-.18.98-.13,1.4.15.41.28.66.74.66,1.24v43.01c0,.62-.38,1.17-.95,1.39l-33.93,13.46c-.18.07-.37.11-.55.11Zm1.5-43.49v39.79l30.93-12.27v-39.79l-30.93,12.27Z"/>
      <path class="cls-1" d="m449.29,407.93c-.3,0-.59-.09-.84-.26-.41-.28-.66-.74-.66-1.24v-21.51c0-.62.38-1.17.95-1.39l67.86-26.92c.46-.18.98-.12,1.4.15.41.28.66.74.66,1.24v21.51c0,.62-.38,1.17-.95,1.39l-67.86,26.92c-.18.07-.37.11-.55.11Zm1.5-21.99v18.28l64.86-25.72v-18.28l-64.86,25.73Z"/>
      <path class="cls-1" d="m466.26,431.74c-.3,0-.59-.09-.84-.26-.41-.28-.66-.74-.66-1.24v-21.51c0-.62.38-1.17.95-1.39l50.9-20.19c.46-.18.98-.13,1.4.15.41.28.66.74.66,1.24v21.51c0,.62-.38,1.17-.95,1.39l-50.9,20.19c-.18.07-.37.11-.55.11Zm1.5-21.99v18.28l47.9-19v-18.28l-47.9,19Z"/>
    </g>
    <path class="cls-1" d="m292.61,303.18h-9.96c-.42,0-.83-.18-1.11-.49l-5.2-5.72-6.93.64c-.42.04-.84-.1-1.15-.39s-.49-.69-.49-1.11v-53.35c0-.5.25-.96.66-1.24.41-.28.93-.33,1.4-.15l42.08,16.69c.57.23.95.78.95,1.39v28.27c0,.83-.67,1.5-1.5,1.5s-1.5-.67-1.5-1.5v-27.25l-39.08-15.5v49.49l6.04-.56c.47-.04.93.14,1.25.49l5.26,5.78h9.3c.83,0,1.5.67,1.5,1.5s-.67,1.5-1.5,1.5Z"/>
    <path class="cls-1" d="m311.36,260.95c-.19,0-.38-.04-.55-.11l-42.21-16.74c-.57-.23-.95-.78-.95-1.39s.38-1.17.95-1.39l42.21-16.74c.58-.23,1.24-.08,1.66.38l5.22,5.73,7.61-.64c.46-.03.92.14,1.23.49l5.22,5.73,7.61-.64c.46-.03.92.14,1.23.48l5.23,5.74,7.62-.64c.74-.05,1.42.43,1.58,1.15.17.72-.22,1.46-.91,1.74l-42.21,16.74c-.18.07-.37.11-.55.11Zm-38.15-18.24l38.15,15.13,33.11-13.13c-.13-.08-.25-.17-.36-.29l-5.23-5.74-7.61.64c-.46.03-.92-.14-1.23-.49l-5.22-5.73-7.61.64c-.46.03-.92-.14-1.23-.49l-5.02-5.51-37.74,14.97Z"/>
  </g>
  <path class="cls-1" d="m55.3,491.02c-.3,0-.6-.09-.86-.27-.68-.48-.84-1.41-.37-2.09,1.07-1.53,1.3-3.01.7-4.54-1.1-2.79-4.76-5.09-7.65-5.71-.81-.17-1.33-.97-1.16-1.78.17-.81.97-1.33,1.78-1.16,3.72.79,8.28,3.63,9.83,7.54.97,2.47.61,5.01-1.04,7.36-.29.42-.76.64-1.23.64Z"/>
  <path class="cls-1" d="m67.35,471.81c-.52,0-1.03-.28-1.31-.76-.41-.72-.15-1.64.57-2.04,4.82-2.71,10.09-6.09,15.19-9.35,8.06-5.16,15.68-10.04,21.73-12.55,5.35-2.22,21.63-8.99,26.92-14.7.56-.61,1.51-.64,2.12-.08.61.56.64,1.51.08,2.12-5.14,5.55-18.43,11.46-27.97,15.43-5.81,2.42-13.32,7.22-21.27,12.31-5.13,3.29-10.44,6.69-15.34,9.44-.23.13-.49.19-.73.19Z"/>
  <path class="cls-1" d="m196.67,382.32c-.43,0-.86-.19-1.16-.54-.53-.64-.44-1.58.2-2.11,5.16-4.26,8.99-8.02,12.37-11.34,6.64-6.52,11.89-11.68,22.61-16.08,12.59-5.18,14.91-6.42,15.29-6.64.08-.07.18-.14.28-.19.11-.06,11.58-6.24,19.2-15.7.52-.64,1.46-.75,2.11-.23.65.52.75,1.46.23,2.11-8.01,9.96-19.63,16.21-20.12,16.47h0c-1.56,1.05-5.69,2.78-15.83,6.96-10.17,4.18-14.99,8.91-21.65,15.45-3.42,3.36-7.3,7.17-12.56,11.51-.28.23-.62.34-.95.34Zm48.87-35.12s0,0,0,0c0,0,0,0,0,0Zm-.06-.67c-.03.21-.02.43.06.67-.07-.22-.09-.45-.06-.67Zm.36-.8s-.07.09-.11.14c.03-.05.07-.09.11-.14Z"/>
  <path class="cls-1" d="m215.05,382.32c-.47,0-.94-.22-1.23-.64-.47-.68-.31-1.61.37-2.09,11.97-8.37,20.53-16.3,21.96-18.38l.45-.66q1.01-1.47,1.39-2.08l.81-1.29c.44-.7,1.36-.92,2.07-.48.7.44.92,1.36.48,2.07l-.81,1.29q-.4.64-1.46,2.19l-.45.66c-1.8,2.63-10.69,10.74-22.72,19.15-.26.18-.56.27-.86.27Z"/>
  <path class="cls-1" d="m162.2,411.55c-.45,0-.89-.2-1.19-.58-.51-.66-.39-1.6.27-2.1,4.43-3.43,12.67-6.46,19.93-9.14,4.1-1.51,7.64-2.81,9.56-3.86.73-.39,1.64-.13,2.04.6.4.73.13,1.64-.6,2.04-2.12,1.15-5.75,2.49-9.96,4.04-6.71,2.47-15.06,5.55-19.13,8.7-.27.21-.6.31-.92.31Z"/>
  <path class="cls-1" d="m332.37,287.85c-.39,0-.78-.15-1.07-.45-.58-.59-.57-1.54.02-2.12,5.84-5.73,13.09-10.84,19.49-15.36,7.46-5.26,14.51-10.24,16.18-14.16l.74-1.74c2.91-6.9,4.83-11.46,12.69-17.03,8.24-5.83,23.22-10.95,23.85-11.16.78-.26,1.64.16,1.9.94s-.15,1.64-.94,1.9c-.15.05-15.2,5.19-23.08,10.77-7.17,5.08-8.86,9.1-11.66,15.75l-.74,1.76c-2,4.7-9.05,9.68-17.21,15.43-6.31,4.45-13.45,9.5-19.12,15.05-.29.29-.67.43-1.05.43Z"/>
  <path class="cls-1" d="m458.75,196.83c-.48,0-.94-.23-1.24-.65-.47-.68-.3-1.62.38-2.09,8.21-5.66,15.44-8.61,21.26-10.98,4.48-1.82,8.01-3.26,10.46-5.3,5.81-4.84,21.19-22.72,23.66-28.76,2.94-7.2,13.34-12.82,16.76-14.67.73-.39,1.64-.12,2.03.61.39.73.12,1.64-.61,2.03-3.18,1.72-12.88,6.96-15.41,13.16-2.65,6.49-18.36,24.81-24.51,29.93-2.8,2.33-6.53,3.85-11.25,5.77-5.68,2.31-12.75,5.19-20.69,10.67-.26.18-.56.27-.85.27Z"/>
  <path class="cls-1" d="m570.54,114.02c-.44,0-.87-.19-1.17-.56-.52-.64-.42-1.59.22-2.11,4.97-4.02,9.41-7.61,12.98-10.49,5.08-4.1,8.75-7.07,9.07-7.35.45-.46.88-.66,1.33-.88.52-.25,1.31-.64,3-1.9.45-.44.56-3.06-.66-5.94l-12.36,5.82c-.63.29-1.38.12-1.81-.42-.43-.54-.44-1.31-.01-1.86l8.17-10.47c.51-.65,1.45-.77,2.11-.26.65.51.77,1.45.26,2.11l-4.3,5.5,8-3.77c.72-.33,1.57-.06,1.95.63,2.15,3.89,2.85,9.26.45,11.06-1.92,1.44-2.87,1.9-3.5,2.2-.37.18-.43.21-.55.34-.2.2-1.32,1.11-9.27,7.53-3.57,2.88-8.01,6.47-12.98,10.49-.28.22-.61.33-.94.33Z"/>
  <path class="cls-1" d="m50.69,492c-2.56,0-4.97-.94-7.43-3.06-4.1-3.55-4.45-7.12-4.03-9.49.78-4.31,4.92-8.37,10.82-10.61,5.82-3.96,167.22-113.81,184-126.5,15.7-11.86,178.33-129.01,188.98-134.92,10.27-5.7,36.73-24.66,45.68-32.02,2.35-1.93,10.86-9.72,21.63-19.58,13.19-12.08,29.62-27.11,45.27-41.08.62-.55,1.57-.5,2.12.12.55.62.5,1.57-.12,2.12-15.64,13.96-32.05,28.98-45.24,41.06-11.23,10.28-19.34,17.7-21.75,19.69-9.03,7.42-35.75,26.55-46.13,32.32-10.6,5.89-172.95,122.85-188.63,134.69-17.07,12.89-182.6,125.54-184.27,126.68-.1.07-.21.12-.32.17-5.01,1.86-8.49,5.08-9.09,8.39-.42,2.33.6,4.58,3.04,6.68,5.76,4.98,10.9,1.78,24.91-8.2,1.12-.8,2.28-1.63,3.5-2.49,15.14-10.71,136.08-93.68,160.55-108.82,13.66-8.46,61.92-45.29,104.5-77.79,32.27-24.63,60.14-45.9,66.31-49.74,14.07-8.74,73.57-51.38,94.21-69.93,8.85-7.95,28.04-23.94,57.04-47.51.64-.52,1.59-.42,2.11.22.52.64.42,1.59-.22,2.11-28.96,23.54-48.11,39.49-56.93,47.41-20.75,18.64-80.5,61.46-94.63,70.24-6.05,3.76-33.87,24.99-66.07,49.58-42.63,32.54-90.95,69.42-104.74,77.96-24.43,15.12-145.27,98.02-160.39,108.72-1.21.86-2.38,1.69-3.49,2.48-9.2,6.56-15.56,11.09-21.18,11.09Z"/>
  <path class="cls-1" d="m482.82,202.78c-.22,0-.45-.05-.66-.15-.74-.36-1.05-1.26-.69-2.01,3.77-7.7,24.56-36.39,25.44-37.61.48-.67,1.42-.82,2.09-.33.67.49.82,1.42.33,2.09-.21.3-21.52,29.7-25.17,37.17-.26.53-.79.84-1.35.84Z"/>
  <path class="cls-1" d="m585.08,249.26c-1.69,0-3.36-.36-4.82-.94-4.61-1.8-8.77-6.3-7.42-11.08,2.03-7.2,2.07-41.99-.55-49.46-.27-.78.14-1.64.92-1.91.78-.27,1.64.14,1.91.92,2.78,7.94,2.79,43.52.6,51.26-.84,2.97,2.21,6.13,5.63,7.47,3.32,1.3,7.64,1.2,9.78-3.01,4.63-9.09-14.25-89.66-31.08-112.17-.5-.66-.36-1.6.3-2.1.66-.49,1.6-.36,2.1.3,7.68,10.27,16.69,33.55,24.12,62.28,5.74,22.21,10.2,47.23,7.23,53.05-2.02,3.97-5.41,5.37-8.72,5.37Z"/>
  <path class="cls-1" d="m538.09,247.96c-.68,0-1.29-.46-1.46-1.15-.19-.81.3-1.62,1.11-1.81l11.85-2.84c-3.66-8.39-19.18-45.32-15.83-59.43.19-.81,1-1.31,1.81-1.11.81.19,1.3,1,1.11,1.81-3.48,14.65,16.18,58.72,16.38,59.17.18.41.17.88-.02,1.28-.2.4-.56.69-1,.8l-13.6,3.25c-.12.03-.24.04-.35.04Z"/>
  <path class="cls-1" d="m536.4,291.6c-4.7,0-7.97-1.27-8.17-1.36-.77-.31-1.14-1.18-.84-1.95s1.18-1.14,1.95-.84c.06.02,6.63,2.54,14.2-.03,5.77-1.96,13.33-3.39,20-4.65,3.06-.58,5.95-1.12,8.5-1.68,4.02-.88,5.35.07,6.92,1.63,1.45,1.44,3.44,3.4,13.12,3.4,11.12,0,11.96-2.5,13.79-7.99.91-2.73,2.05-6.12,4.7-9.94,7.91-11.39,17.39-37.5,12.6-57.39-4.77-19.81-33.64-69.25-56.57-101.22-.48-.67-.33-1.61.34-2.09.67-.48,1.61-.33,2.09.34,19.95,27.82,51.75,80.25,57.04,102.27,5,20.78-4.83,47.97-13.06,59.8-2.41,3.46-3.42,6.5-4.32,9.18-2.14,6.41-3.97,10.04-16.64,10.04-10.92,0-13.51-2.57-15.23-4.27-1.05-1.04-1.44-1.43-4.17-.83-2.59.57-5.5,1.12-8.59,1.7-6.57,1.24-14.03,2.65-19.59,4.54-2.93,1-5.7,1.33-8.11,1.33Z"/>
  <path class="cls-1" d="m549.01,176.75c-.1,0-.21,0-.32-.02-2.69-.38-3.27-4.82-4.71-18.81-.59-5.73-1.26-12.22-2.24-18.86-.12-.82.45-1.58,1.27-1.7.82-.12,1.58.45,1.7,1.27.99,6.71,1.66,13.23,2.25,18.99.63,6.16,1.34,13.04,2.17,15.52.28-.47.66-1.24,1.16-2.48,5.2-12.99,5.5-53.3,5.5-53.71,0-.83.68-1.49,1.5-1.49h0c.83,0,1.5.68,1.49,1.51,0,1.68-.31,41.29-5.72,54.8-1.2,2.99-2.36,5-4.06,5Z"/>
  <path class="cls-1" d="m518.94,202.78c-.68,0-1.3-.47-1.46-1.16-.17-.73-4.02-18.14,4.25-42.39.27-.78,1.12-1.2,1.9-.94.78.27,1.2,1.12.94,1.9-7.98,23.39-4.21,40.58-4.17,40.75.18.81-.32,1.61-1.13,1.8-.11.03-.23.04-.34.04Z"/>
  <path class="cls-1" d="m572.36,284.06c-.69,0-1.31-.48-1.46-1.19-.17-.81.34-1.61,1.15-1.78,6.18-1.32,16.41-11.27,24.33-23.65,7.29-11.41,10.8-21.98,9.37-28.28-.18-.81.32-1.61,1.13-1.79.81-.18,1.61.32,1.79,1.13,2.3,10.18-6.07,24.76-9.77,30.55-6.9,10.8-18.06,23.22-26.23,24.96-.11.02-.21.03-.32.03Z"/>
  <path class="cls-1" d="m606.07,196.83c-.65,0-1.25-.43-1.44-1.09-.13-.45-13.08-45.63-21.19-61.77-.37-.74-.07-1.64.67-2.01.74-.37,1.64-.07,2.01.67,8.23,16.4,20.86,60.43,21.39,62.29.23.8-.23,1.63-1.03,1.85-.14.04-.28.06-.41.06Z"/>
  <path class="cls-1" d="m547.99,120.77c-3.91,0-8.49-.92-11.76-3.31-2.91-2.13-4.38-5.16-4.24-8.74l1.5.06-1.5-.06c.31-8,2.55-13.89,6.67-17.51,5.87-5.15,14.01-4.4,18.38-4,.87.08,1.62.15,2.11.15,5.47,0,6.87,4.09,9.67,12.24l.75,2.17c2.56,7.39-2.77,13.51-15.85,18.18-1.42.51-3.46.82-5.73.82Zm3.92-30.85c-3.71,0-7.97.65-11.27,3.55-3.47,3.05-5.38,8.22-5.65,15.37h0c-.1,2.58.92,4.67,3.01,6.21,4.11,3.01,11.45,3.25,14.71,2.09,11.38-4.07,15.97-8.77,14.02-14.37l-.75-2.18c-2.72-7.93-3.65-10.21-6.83-10.21-.63,0-1.44-.08-2.38-.16-1.38-.13-3.05-.28-4.86-.28Z"/>
  <path class="cls-1" d="m519.84,132.47c-.23,0-.46-.05-.68-.16-.74-.37-1.04-1.28-.66-2.02.27-.54,6.71-13.23,13.8-22.43.51-.66,1.45-.78,2.1-.27.66.51.78,1.45.27,2.1-6.92,8.97-13.44,21.82-13.5,21.95-.26.52-.79.82-1.34.82Z"/>
  <path class="cls-1" d="m535.55,99.72c-.11,0-.22-.01-.33-.04-6.84-1.55-12.59-6.64-16.63-14.72-7.13-14.23-8.02-36.81-1.99-50.33.18-.41.54-.72.97-.84.43-.12.9-.04,1.26.22,18.86,13.4,27.44,53.31,27.8,55,.17.81-.35,1.61-1.16,1.78-.8.17-1.61-.35-1.78-1.16-.08-.39-8.21-38.2-25.09-52.01-4.89,12.94-3.81,33.07,2.66,46,2.53,5.06,7.12,11.44,14.62,13.14.81.18,1.31.99,1.13,1.79-.16.7-.78,1.17-1.46,1.17Z"/>
  <path class="cls-1" d="m538.86,94.59c-.25,0-.51-.06-.74-.2-9.86-5.65-16.17-35.92-16.43-37.21-.17-.81.36-1.6,1.17-1.77.8-.16,1.6.36,1.77,1.17,1.72,8.39,7.77,31.07,14.98,35.21.72.41.97,1.33.56,2.05-.28.48-.78.75-1.3.75Z"/>
  <path class="cls-1" d="m540.2,91.89c-.62,0-1.2-.39-1.42-1.01-4.33-12.44-6.65-18.06-6.67-18.11-.32-.77.05-1.64.81-1.96.77-.32,1.64.05,1.96.81.02.06,2.37,5.74,6.73,18.27.27.78-.14,1.64-.92,1.91-.16.06-.33.08-.49.08Z"/>
  <path class="cls-1" d="m556.79,104.14c-.11,0-.21,0-.32-.03-1.53-.26-2.35-2.06-3.01-6.61-1.15-7.86,25.74-62.59,46.85-75.41.44-.26.98-.29,1.43-.07.46.22.77.66.83,1.17,3.94,32.98-9.25,53.62-17.46,63-9.28,10.59-19.63,15.81-26.4,16.53-.03.08-.06.17-.1.25-.33.61-1,1.17-1.83,1.17Zm43.07-78.15c-20.39,14.68-44.3,65.18-43.44,71.08.18,1.24.36,2.14.52,2.78.11-.03.22-.04.33-.04,5.81-.08,16.3-4.99,25.59-15.59,7.68-8.76,19.89-27.82,17-58.23Z"/>
  <path class="cls-1" d="m563.44,93.53c-1.08,0-1.66-.6-1.88-.92-.78-1.08-2.22-3.09,9.04-21.35,6.09-9.89,14.32-21.89,22.01-32.12.5-.66,1.44-.8,2.1-.3.66.5.79,1.44.3,2.1-15.21,20.22-30.03,43.99-30.91,49.38,6.42-2.58,10.63-14.46,10.68-14.58.27-.78,1.13-1.19,1.91-.92.78.27,1.2,1.13.92,1.91-.2.57-4.93,13.94-13,16.61-.44.14-.83.2-1.16.2Zm.64-2.5h0,0Z"/>
  <path class="cls-1" d="m549.69,104.64c-3.65,0-7.12-.85-9.72-2.49-2.42-1.53-3.89-3.59-4.25-5.97-.12-.82.44-1.58,1.26-1.71.81-.11,1.58.44,1.71,1.26.29,1.89,1.73,3.16,2.89,3.89,3.54,2.23,9.12,2.68,14.2,1.13.8-.24,1.63.21,1.87,1,.24.79-.21,1.63-1,1.87-2.27.69-4.65,1.03-6.95,1.03Z"/>
  <path class="cls-1" d="m548.11,104.14c-.8,0-1.47-.64-1.5-1.45-.01-.31.08-.61.23-.86.37-1.11,1.6-7.39.39-12.09-.21-.8.27-1.62,1.08-1.83.8-.21,1.62.27,1.83,1.08,1.49,5.74-.09,13.57-.8,14.52-.27.36-.72.61-1.18.62-.02,0-.04,0-.05,0Zm-.07-3h0Zm0,0h0Zm0,0h0,0Zm0,0h0,0Zm0,0h0,0Zm0,0h0,0Zm0,0h0,0Zm0,0h0,0Z"/>
  <path class="cls-1" d="m539.66,117.96c-1.23,0-2.45-.09-3.64-.28-.82-.13-1.38-.9-1.25-1.71.13-.82.9-1.38,1.71-1.25,5.91.93,12.51-.81,17.65-4.65,3.45-2.58,5.73-5.73,6.09-8.44.11-.82.85-1.4,1.68-1.29.82.11,1.4.86,1.29,1.68-.47,3.55-3.12,7.36-7.26,10.45-4.74,3.54-10.61,5.49-16.27,5.49Z"/>
</svg>
