<svg width="1032" height="926" viewBox="-206.4 -185.2 1444.8 1296.4" fill="none" xmlns="http://www.w3.org/2000/svg">

    <defs>
        <style>
            :root {

            }
            @media (prefers-color-scheme: dark) {
                :root {
                    filter: contrast(0.5);
                }
            }
        </style>
    </defs>


    <path d="M242.149 628.151V809.939L464.195 827.616C464.195 827.616 659.403 700.737 767.988 695.833L763.731 610.415C763.731 610.415 475.794 693.367 242.149 628.092V628.151Z" fill="#f9322c"/>
    <path d="M223.093 821.685C214.871 501.859 144.869 91.565 144.869 91.565C144.869 91.565 450.747 -73.9562 811.946 51.2784C769.398 210.516 751.545 687.7 751.545 687.7" stroke="#222222" stroke-width="8.809" stroke-linecap="round" stroke-linejoin="round"/>
    <path d="M216.927 692.163C-36.3615 654.695 -13.4875 764.514 37.7809 836.777C89.0199 909.07 237.275 956.639 501.722 887.106C683.628 839.273 767.078 916.411 881.478 914.561C1050.76 911.83 1114.83 688.551 841.221 686.701C567.613 684.881 423.938 890.747 292.185 901.729" stroke="#222222" stroke-width="8.809" stroke-linecap="round" stroke-linejoin="round"/>
    <path d="M284.902 920.874C464.254 888.838 550.905 754.619 718.57 718.737C886.264 682.884 1003.63 722.025 1012.29 785.538C1018.9 834.046 996.317 867.462 996.317 867.462" stroke="#222222" stroke-width="8.809" stroke-linecap="round" stroke-linejoin="round"/>
    <path d="M10.0322 783.483C59.4507 856.686 133.857 877.974 133.857 877.974" stroke="#222222" stroke-width="8.809" stroke-linecap="round" stroke-linejoin="round"/>
    <path d="M221.978 787.388C330.593 819.424 475.794 812.993 475.794 812.993" stroke="#222222" stroke-width="8.809" stroke-linecap="round" stroke-linejoin="round"/>
    <path d="M212.698 634.405C550.201 667.498 755.48 600.726 755.48 600.726" stroke="#222222" stroke-width="8.809" stroke-linecap="round" stroke-linejoin="round"/>
    <path d="M212.699 711.425C157.642 709.605 85.0561 703.204 71.9307 737.059" stroke="#222222" stroke-width="8.809" stroke-linecap="round" stroke-linejoin="round"/>
    <path d="M219.658 737.059C182.249 728.838 159.492 733.389 159.492 733.389" stroke="#222222" stroke-width="8.809" stroke-linecap="round" stroke-linejoin="round"/>
    <path d="M81.709 787.388C102.763 821.714 164.983 846.878 164.983 846.878" stroke="#222222" stroke-width="8.809" stroke-linecap="round" stroke-linejoin="round"/>
    <path d="M905.263 737.06C981.226 751.712 1005.92 802.951 984.867 840.448C963.813 877.974 925.377 891.687 925.377 891.687" stroke="#222222" stroke-width="8.809" stroke-linecap="round" stroke-linejoin="round"/>
    <path d="M613.361 787.388C699.367 752.622 778.06 734.593 778.06 734.593" stroke="#222222" stroke-width="8.809" stroke-linecap="round" stroke-linejoin="round"/>
    <path d="M865.915 760.99C922.645 770.915 948.661 791.969 948.661 791.969" stroke="#222222" stroke-width="8.809" stroke-linecap="round" stroke-linejoin="round"/>
    <path d="M229.935 671.168C261.97 674.839 297.646 671.168 297.646 671.168" stroke="#222222" stroke-width="8.809" stroke-linecap="round" stroke-linejoin="round"/>
    <path d="M229.935 695.863C257.389 708.665 284.903 705.083 284.903 705.083" stroke="#222222" stroke-width="8.809" stroke-linecap="round" stroke-linejoin="round"/>
    <path d="M229.935 727.898C257.389 735.21 279.353 732.127 279.353 732.127" stroke="#222222" stroke-width="8.809" stroke-linecap="round" stroke-linejoin="round"/>
    <path d="M229.935 760.99C264.701 769.095 275.683 760.99 275.683 760.99" stroke="#222222" stroke-width="8.809" stroke-linecap="round" stroke-linejoin="round"/>
    <path d="M164.982 108.39C218.042 80.9355 304.987 66.2832 304.987 66.2832" stroke="#222222" stroke-width="8.809" stroke-linecap="round" stroke-linejoin="round"/>
    <path d="M182.366 150.967C222.623 133.584 275.712 119.842 275.712 119.842" stroke="#222222" stroke-width="8.809" stroke-linecap="round" stroke-linejoin="round"/>
    <path d="M189.561 187.113C199.632 183.002 219.629 174.311 234.986 174.311" stroke="#222222" stroke-width="8.809" stroke-linecap="round" stroke-linejoin="round"/>
    <path d="M257.419 168.791C284.844 162.389 304.958 162.389 304.958 162.389" stroke="#222222" stroke-width="8.809" stroke-linecap="round" stroke-linejoin="round"/>
    <path d="M189.561 217.299C230.845 200.826 272.042 202.646 272.042 202.646" stroke="#222222" stroke-width="8.809" stroke-linecap="round" stroke-linejoin="round"/>
    <path d="M199.749 237.442C227.204 230.131 242.766 230.131 242.766 230.131" stroke="#222222" stroke-width="8.809" stroke-linecap="round" stroke-linejoin="round"/>
    <path d="M229.024 597.055C291.245 599.786 304.987 597.055 304.987 597.055" stroke="#222222" stroke-width="8.809" stroke-linecap="round" stroke-linejoin="round"/>
    <path d="M229.024 576.001C243.677 577.822 266.991 576.001 266.991 576.001" stroke="#222222" stroke-width="8.809" stroke-linecap="round" stroke-linejoin="round"/>
    <path d="M252.809 433.266C252.809 433.266 237.246 429.596 212.698 427.775L242.737 416.793" stroke="#222222" stroke-width="8.809" stroke-linecap="round" stroke-linejoin="round"/>
    <path d="M498.052 35.1872C655.439 23.2951 789.953 66.3124 789.953 66.3124" stroke="#222222" stroke-width="8.809" stroke-linecap="round" stroke-linejoin="round"/>
    <path d="M599.619 66.3125C723.151 65.4022 778.06 98.3479 778.06 98.3479" stroke="#222222" stroke-width="8.809" stroke-linecap="round" stroke-linejoin="round"/>
    <path d="M688.854 104.749C722.241 104.074 769.839 119.842 769.839 119.842" stroke="#222222" stroke-width="8.809" stroke-linecap="round" stroke-linejoin="round"/>
    <path d="M769.839 150.967C746.965 145.946 695.726 141.365 695.726 141.365" stroke="#222222" stroke-width="8.809" stroke-linecap="round" stroke-linejoin="round"/>
    <path d="M746.054 628.151C683.833 649.204 545.649 671.168 545.649 671.168" stroke="#222222" stroke-width="8.809" stroke-linecap="round" stroke-linejoin="round"/>
    <path d="M562.122 700.708C630.744 697.683 729.346 664.738 729.346 664.738" stroke="#222222" stroke-width="8.809" stroke-linecap="round" stroke-linejoin="round"/>
    <path d="M608.78 719.676C663.69 707.784 682.893 695.892 682.893 695.892" stroke="#222222" stroke-width="8.809" stroke-linecap="round" stroke-linejoin="round"/>
    <path d="M737.803 576.824C656.349 599.815 562.122 600.726 562.122 600.726" stroke="#222222" stroke-width="8.809" stroke-linecap="round" stroke-linejoin="round"/>
    <path d="M571.254 587.688C622.493 585.398 649.948 578.38 649.948 578.38" stroke="#222222" stroke-width="8.809" stroke-linecap="round" stroke-linejoin="round"/>
    <path d="M675.582 576.001C703.947 573.271 737.803 562.289 737.803 562.289" stroke="#222222" stroke-width="8.809" stroke-linecap="round" stroke-linejoin="round"/>
    <path d="M617.942 562.289C669.181 556.798 706.708 539.15 732.782 533.013" stroke="#222222" stroke-width="8.809" stroke-linecap="round" stroke-linejoin="round"/>
    <path d="M671.001 519.271C694.785 522.002 746.024 502.799 746.024 502.799" stroke="#222222" stroke-width="8.809" stroke-linecap="round" stroke-linejoin="round"/>
    <path d="M695.726 491.817C727.761 487.236 746.054 475.344 746.054 475.344" stroke="#222222" stroke-width="8.809" stroke-linecap="round" stroke-linejoin="round"/>
    <path d="M720.89 174.282C750.635 173.371 769.838 174.282 769.838 174.282" stroke="#222222" stroke-width="8.809" stroke-linecap="round" stroke-linejoin="round"/>
    <path d="M501.722 887.135C628.013 856.95 638.056 837.717 691.145 842.298" stroke="#222222" stroke-width="8.809" stroke-linecap="round" stroke-linejoin="round"/>
</svg>
