<svg viewBox="0 0 861 2000" fill="none"
     xmlns="http://www.w3.org/2000/svg">

    <defs>
        <style>
            :root {

            }
            @media (prefers-color-scheme: dark) {
            :root {
                filter: contrast(0.5);
            }
            }
        </style>
    </defs>

    <path d="M462.766 116.194V155.608H533.091L609.553 133.343L608.774 104.453L462.766 116.194Z" fill="#f9322c"/>
    <path
        d="M353.332 1839.18C369.16 1864.95 383.478 1882.98 429.112 1880.4C474.746 1877.81 525.493 1873.77 525.493 1873.77L517.409 1803.13C517.409 1803.13 471.775 1842.4 431.304 1841.91C390.832 1841.42 353.332 1839.23 353.332 1839.23V1839.18Z"
        fill="#f9322c"/>
    <path
        d="M550.137 1843.47C531.971 1854.43 522.523 1877.47 527.685 1894.38C532.848 1911.28 524.471 1944.07 526.419 1949.97C528.416 1955.86 586.517 1994.49 588.368 1994.49C590.219 1994.49 604.926 2000 604.926 2000C604.926 2000 638.044 1961.71 642.086 1950.7C646.128 1939.64 642.086 1916.5 642.086 1916.5C642.086 1916.5 623.823 1891.84 623.19 1882.64C622.557 1873.43 620.024 1863.15 620.024 1863.15C620.024 1863.15 589.488 1819.84 550.137 1843.52V1843.47Z"
        fill="#f9322c"/>
    <path
        d="M433.154 417.714L468.803 461.366C468.803 461.366 411.822 704.716 414.306 905.924C416.79 1107.08 461.985 1277.45 461.985 1277.45C461.985 1277.45 467.245 1298.45 424.095 1290.12C380.945 1281.79 388.348 1278.48 361.318 1281.3C347.195 1282.76 347.195 1277.45 347.195 1277.45L370.62 930.966L377 741.06C377 741.06 345.588 780.084 320.604 784.127C295.571 788.171 224.953 805.125 224.953 805.125L138.605 806.928C138.605 806.928 147.663 765.078 136.998 749.147L126.332 733.216C126.332 733.216 291.236 682.793 317.195 674.169C343.153 665.497 359.809 560.996 385.328 502.144C410.848 443.243 433.154 417.763 433.154 417.763V417.714Z"
        fill="#f9322c"/>
    <path
        d="M620.364 353.308C621.046 352.528 620.364 361.054 620.364 353.308C585.494 394.329 516.726 593.248 517.214 623.94C517.701 655.218 531.921 777.891 535.866 874.306C539.811 970.72 513.804 1013.88 524.568 1089.93C535.379 1165.98 543.464 1326.9 543.464 1326.9C543.464 1326.9 561.386 1337.91 623.189 1319.16C684.991 1300.4 787.509 1319.06 810.545 1308.73L833.581 1298.45C833.581 1298.45 783.564 1230.24 762.963 1151.27C742.362 1072.3 743.823 942.268 743.823 942.268C743.823 942.268 820.821 864.367 835.529 806.976C850.237 749.586 834.555 667.982 824.23 630.225C813.954 592.468 794.814 474.179 789.408 464.874C784.002 455.568 669.602 406.216 667.946 404.414C666.29 402.611 620.315 353.357 620.315 353.357L620.364 353.308Z"
        fill="#f9322c"/>
    <path
        d="M522.377 274.53C521.938 274.53 521.549 274.53 521.159 274.433C517.896 273.994 515.51 272.094 513.805 270.194C509.032 272.435 501.143 275.407 494.519 274.189C489.844 273.361 486.094 270.925 483.659 267.173C481.029 263.13 480.152 257.868 481.37 252.801C482.246 249.001 484.974 246.712 487.604 244.47C491.402 241.255 495.688 237.601 496.906 227.516C497.246 224.837 499.633 222.937 502.311 223.278C504.99 223.619 506.889 226.006 506.549 228.686C504.893 242.57 498.269 248.173 493.886 251.924C492.522 253.045 491.013 254.36 490.867 255.042C490.282 257.478 490.623 260.06 491.841 261.863C492.815 263.325 494.276 264.25 496.321 264.64C500.948 265.517 509.032 262.058 513.026 259.671C514.243 258.94 515.705 258.794 517.019 259.232C518.334 259.671 519.455 260.645 519.99 261.961C520.575 263.276 521.841 264.737 522.474 264.835C523.935 264.835 527.929 262.935 528.318 261.766C527.052 259.378 527.929 256.601 530.315 255.335C532.701 254.068 535.624 255.14 536.89 257.527C538.594 260.743 538.351 264.396 536.208 267.514C533.14 271.948 526.857 274.579 522.425 274.579L522.377 274.53Z"
        fill="#222222"/>
    <path
        d="M564.163 230.342C564.163 230.342 551.403 216.409 531.484 218.114C528.757 218.309 526.468 216.36 526.224 213.632C526.03 210.952 527.978 208.614 530.705 208.37C554.958 206.372 572.053 222.986 572.735 226.298L567.962 227.224L564.212 230.293L564.163 230.342Z"
        fill="#222222"/>
    <path
        d="M452.733 235.993C452.246 235.993 451.759 235.945 451.272 235.75C448.69 234.922 447.278 232.193 448.106 229.611C450.541 221.914 461.645 207.98 486.191 210.124C488.869 210.367 490.866 212.755 490.623 215.434C490.379 218.114 487.944 220.062 485.314 219.868C462.376 217.773 457.457 232.437 457.408 232.632C456.775 234.727 454.827 236.042 452.781 236.042L452.733 235.993Z"
        fill="#222222"/>
    <path
        d="M506.304 358.813C494.957 358.813 485.07 355.89 477.034 350.044C460.038 337.767 459.891 311.361 459.794 297.184C459.794 294.797 459.794 292.069 459.648 291.24C459.307 289.243 455.654 282.763 453.219 278.525C448.739 270.632 444.502 263.178 443.966 257.478C443.771 255.432 443.576 252.314 443.333 248.563C442.7 238.429 441.726 223.132 439.631 213.193C438.804 209.247 441.336 205.349 445.281 204.521C449.226 203.693 453.122 206.226 453.95 210.173C456.287 221.183 457.262 237.114 457.943 247.686C458.138 251.242 458.333 254.166 458.528 256.163C458.771 258.745 463.252 266.637 465.93 271.363C469.924 278.379 473.333 284.371 474.064 288.999C474.356 290.948 474.405 293.53 474.405 297.135C474.502 308.73 474.599 330.264 485.606 338.254C494.372 344.587 506.548 345.952 521.694 342.249C548.626 335.672 574.925 315.259 577.604 309.948C580.769 302.933 580.039 283.299 578.821 272.532C578.383 268.538 581.256 264.884 585.25 264.445C589.292 263.958 592.896 266.881 593.335 270.876C593.724 274.14 596.744 302.982 590.899 315.941C586.273 326.22 556.808 347.998 527.246 355.89C519.892 357.839 512.879 358.813 506.353 358.813H506.304Z"
        fill="#010101"/>
    <path
        d="M476.012 207.396C473.528 207.396 471.434 205.496 471.19 203.011C470.947 200.331 472.895 197.944 475.574 197.701C478.106 197.457 485.411 195.898 488.285 192C489.892 189.857 492.96 189.37 495.103 190.977C497.246 192.585 497.733 195.654 496.126 197.798C490.136 205.837 477.911 207.249 476.548 207.396C476.402 207.396 476.207 207.396 476.061 207.396H476.012Z"
        fill="#222222"/>
    <path
        d="M534.016 208.029C530.119 208.029 522.035 207.201 517.311 200.965C515.704 198.821 516.093 195.752 518.236 194.144C520.379 192.536 523.447 192.926 525.054 195.07C527.879 198.772 535.087 198.236 535.184 198.236C537.912 197.993 540.249 199.942 540.493 202.621C540.736 205.301 538.788 207.688 536.11 207.931C535.818 207.931 535.087 208.029 533.967 208.029H534.016Z"
        fill="#222222"/>
    <path
        d="M549.6 209.929H549.454C548.431 209.929 539.324 209.344 532.7 197.993C531.337 195.654 532.116 192.682 534.454 191.318C536.791 189.954 539.762 190.734 541.126 193.072C544.973 199.698 549.649 200.185 549.843 200.185C552.473 200.38 554.519 202.67 554.373 205.3C554.227 207.883 552.132 209.929 549.6 209.929Z"
        fill="#222222"/>
    <path
        d="M564.358 213.388C564.358 213.388 564.115 213.388 564.017 213.388C563.628 213.388 553.838 212.56 548.676 204.472C547.215 202.183 547.897 199.211 550.186 197.749C552.475 196.336 555.446 196.97 556.907 199.26C559.39 203.206 564.699 203.693 564.748 203.693C567.426 203.937 569.423 206.275 569.18 208.955C568.985 211.488 566.842 213.437 564.358 213.437V213.388Z"
        fill="#222222"/>
    <path
        d="M454.097 210.66H453.805C451.126 210.66 448.935 208.419 448.983 205.739C448.983 203.06 451.175 200.916 453.853 200.916C453.951 200.916 453.999 200.916 454.097 200.916C462.766 200.916 470.461 195.995 470.558 195.947C472.798 194.485 475.818 195.119 477.279 197.36C478.74 199.601 478.107 202.621 475.867 204.083C475.477 204.375 465.737 210.66 454.048 210.66H454.097Z"
        fill="#222222"/>
    <path
        d="M546.728 300.984C546.387 300.984 546.046 300.984 545.656 300.887C543.026 300.302 541.371 297.72 541.955 295.089C542.685 291.776 541.565 288.999 540.981 288.61C538.497 287.635 537.28 284.809 538.254 282.325C539.228 279.84 542.101 278.573 544.585 279.597C551.062 282.13 552.962 290.558 551.5 297.233C551.013 299.523 548.968 301.033 546.728 301.033V300.984Z"
        fill="#222222"/>
    <path
        d="M508.642 309.412C506.061 309.412 503.479 308.73 501.434 307.123C500.947 307.025 500.314 306.976 499.583 306.928C494.713 306.441 485.606 305.515 478.739 295.138C477.278 292.897 477.862 289.876 480.103 288.366C482.343 286.904 485.362 287.489 486.872 289.73C491.158 296.21 496.418 296.746 500.606 297.184C503.139 297.428 505.574 297.671 507.473 299.425C507.863 299.717 509.811 299.766 511.174 299.035C512.635 298.256 514.73 297.817 518.869 297.038C523.691 296.112 531.045 294.699 534.21 292.604C536.451 291.094 539.47 291.728 540.98 293.969C542.441 296.21 541.857 299.23 539.616 300.74C534.795 303.907 527.002 305.417 520.72 306.635C518.723 307.025 516.239 307.464 515.606 307.756C513.658 308.779 511.223 309.412 508.739 309.412H508.642Z"
        fill="#222222"/>
    <path
        d="M473.042 296.015C473.042 296.015 472.847 296.015 472.749 296.015C470.071 295.869 468.025 293.53 468.171 290.851C468.561 284.371 472.847 277.55 479.324 277.355C481.905 277.453 484.243 279.402 484.34 282.081C484.438 284.712 482.392 286.953 479.762 287.099C479.178 287.489 478.058 289.389 477.912 291.435C477.766 294.017 475.623 296.015 473.042 296.015Z"
        fill="#222222"/>
    <path
        d="M508.788 317.5C500.849 317.5 496.661 316.136 496.174 315.989C493.642 315.113 492.278 312.336 493.155 309.802C494.031 307.269 496.807 305.856 499.34 306.782C499.34 306.782 503.09 307.951 510.541 307.756H510.687C513.317 307.756 515.46 309.851 515.557 312.482C515.606 315.161 513.512 317.402 510.833 317.5C510.152 317.5 509.47 317.5 508.837 317.5H508.788Z"
        fill="#222222"/>
    <path
        d="M549.113 236.919C546.532 236.919 543.902 236.481 541.467 235.604C533.285 232.583 528.756 225.275 529.243 216.067C529.389 213.388 531.726 211.196 534.356 211.488C537.035 211.634 539.08 213.924 538.934 216.603C538.593 222.839 541.954 225.421 544.779 226.493C549.746 228.345 555.931 226.737 558.853 222.888C560.461 220.744 563.529 220.306 565.672 221.962C567.815 223.57 568.253 226.639 566.597 228.783C562.652 233.996 555.834 236.968 549.016 236.968L549.113 236.919Z"
        fill="#222222"/>
    <path
        d="M467.878 237.406C461.985 237.406 456.19 234.581 453.219 229.855C451.807 227.565 452.44 224.593 454.729 223.132C457.018 221.719 459.989 222.401 461.45 224.642C462.959 227.029 466.953 228.247 470.119 227.322C474.745 226.006 475.719 221.134 475.719 217.285C475.719 214.606 477.911 212.414 480.589 212.414C483.268 212.414 485.46 214.606 485.46 217.285C485.46 227.175 480.736 234.386 472.846 236.676C471.239 237.163 469.583 237.358 467.878 237.358V237.406Z"
        fill="#222222"/>
    <path
        d="M498.951 356.134C496.954 356.134 495.054 354.867 494.373 352.869C490.476 341.762 489.113 334.454 490.428 331.238C491.402 328.754 494.275 327.536 496.759 328.51C499.048 329.436 500.217 331.823 499.681 334.161C499.681 334.795 499.681 338.595 503.529 349.605C504.405 352.139 503.09 354.916 500.558 355.793C500.022 355.987 499.486 356.085 498.951 356.085V356.134Z"
        fill="#222222"/>
    <path
        d="M468.755 447.725C459.989 447.725 455.362 443.973 452.927 439.637C449.81 434.132 448.739 429.748 448.495 426.532C444.501 423.024 439.923 418.006 439.485 412.745C438.56 401.491 472.895 370.506 473.236 370.165C483.95 360.859 501.531 359.398 525.541 365.877C531.142 355.159 544.389 355.987 552.717 356.475C557.636 356.767 562.701 357.059 565.428 355.793C572.393 352.528 576.873 355.598 578.432 357.059C587.441 365.39 578.967 389.603 577.165 394.426C574.876 400.468 569.276 405.291 561.727 407.678C552.62 410.552 542.587 409.091 534.941 403.78C533.431 402.757 532.116 401.686 530.947 400.662C524.762 413.475 514.632 430.576 502.213 437.007C487.067 444.85 476.304 447.725 468.658 447.725H468.755ZM463.057 425.119C463.057 425.947 463.349 428.383 465.638 432.427C466.32 433.645 475.184 434.619 495.59 423.999C507.96 417.568 520.038 390.675 523.739 380.639C523.739 380.639 523.739 380.542 523.788 380.493C504.259 374.939 489.745 375.183 482.83 381.175C472.602 390.042 458.382 405.973 454.68 411.916C455.898 413.427 458.235 415.668 460.378 417.324C463.203 419.419 464.567 422.099 463.057 425.168V425.119ZM537.571 385.316C537.668 385.852 538.253 388.19 543.318 391.698C547.311 394.475 552.571 395.206 557.441 393.696C560.899 392.624 562.993 390.675 563.529 389.262C565.818 383.172 567.571 375.183 567.961 370.311C562.701 371.675 557.246 371.334 551.889 370.993C539.324 370.213 538.496 371.334 537.863 374.744C537.619 376.059 537.035 377.277 536.207 378.203C537.863 380.103 538.447 382.783 537.619 385.316H537.571Z"
        fill="#010101"/>
    <path
        d="M455.948 430.43C454.535 430.43 453.123 430.04 451.905 429.212C448.545 426.971 447.668 422.44 449.909 419.078C471.532 386.826 488.627 379.519 490.477 378.788C494.227 377.326 498.464 379.226 499.926 382.978C501.387 386.729 499.487 390.967 495.737 392.429C495.688 392.429 481.078 398.811 462.035 427.214C460.623 429.309 458.334 430.478 455.948 430.478V430.43Z"
        fill="#010101"/>
    <path
        d="M502.311 666.667C498.659 666.667 495.542 663.938 495.055 660.333C487.457 603.82 571.857 376.985 615.446 336.744C618.173 334.259 622.313 334.162 625.137 336.549C673.011 377.131 682.946 386.973 683.336 387.411C685.089 389.165 685.82 391.698 685.284 394.183C681.972 409.188 664.829 484.556 653.53 497.808C646.517 505.992 632.199 506.772 619.244 505.31L625.478 511.351C626.89 512.716 627.718 514.616 627.718 516.564C627.718 518.513 626.939 520.413 625.576 521.777C582.036 564.893 512.052 640.651 509.616 660.285C509.178 663.938 506.061 666.667 502.409 666.667H502.311ZM620.9 352.139C585.202 393.306 524.373 550.278 511.565 626.961C538.204 589.642 589.585 537.075 609.991 516.613L590.997 498.246C588.562 495.908 588.075 492.205 589.78 489.282C591.484 486.359 594.942 484.995 598.205 485.969C615.543 491.231 637.995 493.423 642.426 488.21C648.709 480.805 662.053 430.625 670.138 394.962C664.927 390.139 651.436 378.008 620.9 352.09V352.139Z"
        fill="#010101"/>
    <path
        d="M475.525 381.857C472.359 381.857 469.437 379.762 468.512 376.547C467.294 372.26 461.645 350.336 470.509 338.692C472.944 335.477 477.522 334.892 480.736 337.328C483.95 339.764 484.584 344.344 482.1 347.559C478.788 351.895 480.395 365.001 482.538 372.503C483.658 376.401 481.369 380.444 477.522 381.516C476.84 381.711 476.158 381.809 475.525 381.809V381.857Z"
        fill="#010101"/>
    <path
        d="M613.157 339.764C613.157 339.764 611.598 332.846 596.744 317.013C593.968 314.089 594.114 309.461 597.085 306.684C600.007 303.907 604.634 304.053 607.41 307.025C625.381 326.22 627.621 335.477 627.719 338.595L613.108 339.131C613.108 339.131 613.108 339.326 613.157 339.764Z"
        fill="#010101"/>
    <path
        d="M575.218 389.603C572.052 389.603 569.179 387.557 568.205 384.391C567.036 380.542 569.276 376.449 573.124 375.28C590.072 370.213 594.65 363.929 594.699 363.88C596.744 360.421 601.176 359.398 604.634 361.444C608.092 363.49 609.163 368.119 607.118 371.578C606.046 373.38 599.618 382.637 577.263 389.262C576.582 389.457 575.851 389.555 575.169 389.555L575.218 389.603Z"
        fill="#010101"/>
    <path
        d="M686.988 1020.71C684.309 1020.71 681.777 1019.24 680.51 1016.71L647.588 952.45C646.37 950.063 646.565 947.14 648.124 944.948C650.851 941.002 715.722 848.192 736.274 823.931C748.255 809.802 748.206 802.153 748.109 790.607C748.06 784.322 748.011 777.161 749.813 768.099C753.661 748.806 749.57 730.488 746.014 714.313C745.235 710.903 744.505 707.59 743.872 704.375C742.264 696.239 738.417 687.128 734.716 678.359C730.43 668.177 725.949 657.605 724.683 647.812C724.147 643.818 720.884 633.587 717.037 621.748C705.982 587.401 687.475 529.913 690.787 487.333C691.079 483.289 694.634 480.171 698.628 480.61C702.67 480.902 705.641 484.459 705.348 488.454C702.28 528.159 720.202 583.894 730.966 617.266C735.349 630.81 738.466 640.651 739.196 645.912C740.219 653.756 744.115 662.964 748.206 672.708C752.2 682.159 756.339 691.952 758.239 701.598C758.823 704.667 759.554 707.883 760.284 711.195C763.985 727.906 768.563 748.66 764.132 770.973C762.622 778.573 762.67 784.615 762.719 790.51C762.817 803.176 762.914 815.113 747.427 833.431C729.505 854.526 675.007 932.086 662.637 949.771L690.592 1004.34C698.579 1001.07 710.219 995.274 714.943 988.6C717.378 985.092 723.222 978.125 732.086 967.553C755.268 939.784 798.418 888.142 824.278 845.513C855.009 794.894 845.951 761.083 842.054 746.663C841.665 745.201 841.324 743.886 841.032 742.814C839.522 736.383 838.207 719.332 836.649 699.552C835.09 679.48 833.288 656.679 831.486 649.469C827.444 633.246 808.548 554.565 803.434 527.623C801.778 518.903 800.755 509.939 799.733 501.267C797.833 484.751 795.836 467.699 790.187 462.389L788.288 460.587C777.719 450.55 761.745 435.399 675.397 399.396C671.695 397.837 669.893 393.55 671.452 389.847C673.01 386.144 677.296 384.39 680.997 385.901C769.83 422.927 786.973 439.199 798.32 449.966L800.122 451.671C809.716 460.587 811.811 478.661 814.246 499.513C815.22 507.941 816.243 516.613 817.801 524.798C822.866 551.447 841.616 629.64 845.658 645.815C847.753 654.243 849.457 675.631 851.21 698.334C852.574 715.921 853.986 734.093 855.253 739.404C855.496 740.378 855.788 741.547 856.129 742.814C860.512 759.037 870.691 797.087 836.697 853.064C810.252 896.619 766.664 948.845 743.19 976.859C735.203 986.407 728.871 993.959 726.777 996.979C716.842 1011.06 692.004 1019.44 689.228 1020.32C688.498 1020.56 687.718 1020.66 686.988 1020.66V1020.71Z"
        fill="#010101"/>
    <path
        d="M570.883 1326.51C536.646 1326.51 518.431 1311.26 517.36 1310.39C515.85 1309.12 514.973 1307.27 514.827 1305.32C514.827 1304.74 511.077 1245.49 503.674 1156.78C498.609 1095.73 502.165 1031.28 505.574 968.869C507.23 938.907 508.934 907.873 509.665 877.765C511.272 811.361 507.23 775.163 501.678 725.081C499.583 706.324 497.246 685.083 494.957 659.992C494.616 655.949 497.538 652.441 501.58 652.051C505.622 651.661 509.129 654.633 509.519 658.677C511.759 683.621 514.097 704.814 516.191 723.473C521.597 772.192 525.882 810.728 524.275 878.106C523.545 908.458 521.84 939.589 520.184 969.648C516.775 1031.52 513.22 1095.49 518.236 1155.51C524.616 1232.29 528.318 1287.1 529.194 1300.94C537.084 1306.15 564.698 1320.57 611.744 1304.49C675.3 1282.76 698.53 1283.4 719.229 1292.17C730.089 1296.79 787.411 1286.95 829.538 1277.6C810.837 1236.97 733.888 1061.04 748.352 949.528C748.888 945.533 752.541 942.658 756.534 943.243C760.528 943.779 763.353 947.433 762.817 951.428C747.281 1071.18 845.561 1277.5 846.584 1279.6C847.558 1281.59 847.558 1283.93 846.584 1285.93C845.61 1287.93 843.808 1289.39 841.665 1289.88C823.84 1294.02 733.839 1314.24 713.579 1305.66C696.631 1298.5 675.348 1298.26 616.517 1318.38C599.081 1324.32 583.886 1326.51 570.932 1326.51H570.883Z"
        fill="#010101"/>
    <path
        d="M730.381 848.826C727.361 848.826 724.537 846.926 723.465 843.905C721.761 838.985 682.312 722.985 728.968 655.218C731.257 651.905 735.787 651.077 739.147 653.366C742.459 655.656 743.287 660.187 740.998 663.549C698.578 725.226 736.907 838.059 737.296 839.18C738.611 842.98 736.615 847.169 732.767 848.485C731.988 848.777 731.16 848.875 730.381 848.875V848.826Z"
        fill="#010101"/>
    <path
        d="M522.182 702.767C519.065 702.767 516.192 700.77 515.218 697.603C514 693.754 516.192 689.662 520.039 688.444L541.371 681.818C545.218 680.6 549.309 682.793 550.527 686.641C551.744 690.49 549.553 694.583 545.705 695.801L524.374 702.426C523.643 702.67 522.913 702.767 522.231 702.767H522.182Z"
        fill="#010101"/>
    <path
        d="M550.137 752.801H528.075C524.033 752.801 520.77 749.537 520.77 745.494C520.77 741.45 524.033 738.186 528.075 738.186H550.137C554.179 738.186 557.442 741.45 557.442 745.494C557.442 749.537 554.179 752.801 550.137 752.801Z"
        fill="#010101"/>
    <path
        d="M562.604 820.52H528.026C523.984 820.52 520.721 817.256 520.721 813.213C520.721 809.169 523.984 805.905 528.026 805.905H562.604C566.647 805.905 569.91 809.169 569.91 813.213C569.91 817.256 566.647 820.52 562.604 820.52Z"
        fill="#010101"/>
    <path
        d="M539.082 885.998C535.478 885.998 532.361 883.319 531.825 879.665C531.289 875.67 534.114 871.967 538.108 871.431L571.225 866.998C575.218 866.462 578.92 869.288 579.455 873.283C579.991 877.278 577.166 880.98 573.173 881.516L540.056 885.95C539.715 885.95 539.422 885.998 539.082 885.998Z"
        fill="#010101"/>
    <path
        d="M687.719 1047.94C685.868 1047.94 684.017 1047.26 682.605 1045.84C680.365 1043.65 628.205 991.377 628.205 905.924C628.205 901.881 631.468 898.616 635.51 898.616C639.553 898.616 642.816 901.881 642.816 905.924C642.816 984.995 692.394 1034.93 692.881 1035.42C695.755 1038.24 695.803 1042.87 692.93 1045.75C691.517 1047.21 689.618 1047.94 687.719 1047.94Z"
        fill="#010101"/>
    <path
        d="M645.056 971.743C642.573 971.743 640.138 970.476 638.774 968.138C636.728 964.679 637.897 960.197 641.355 958.151L653.823 950.794C657.281 948.748 661.761 949.917 663.807 953.376C665.852 956.835 664.683 961.317 661.226 963.364L648.758 970.72C647.589 971.402 646.323 971.743 645.056 971.743Z"
        fill="#010101"/>
    <path
        d="M671.16 1027.23C668.823 1027.23 666.534 1026.11 665.121 1024.02C662.881 1020.66 663.709 1016.13 667.069 1013.88L681.29 1004.24C684.602 1002 689.18 1002.83 691.42 1006.19C693.661 1009.55 692.833 1014.08 689.472 1016.32L675.251 1025.97C673.985 1026.8 672.573 1027.23 671.16 1027.23Z"
        fill="#010101"/>
    <path
        d="M716.404 1306.25C713.336 1306.25 710.463 1304.3 709.489 1301.23C685.722 1229.08 696.924 1141.24 697.411 1137.53C697.946 1133.54 701.648 1130.71 705.593 1131.25C709.586 1131.78 712.411 1135.44 711.875 1139.43C711.778 1140.31 700.625 1227.71 723.32 1296.65C724.586 1300.5 722.492 1304.59 718.645 1305.86C717.865 1306.1 717.135 1306.25 716.356 1306.25H716.404Z"
        fill="#010101"/>
    <path
        d="M701.697 1094.32C701.697 1094.32 701.308 1094.32 701.064 1094.32C697.022 1093.98 694.051 1090.42 694.392 1086.43C694.392 1085.89 698.824 1033.76 701.746 1002.48C702.135 998.441 705.691 995.469 709.684 995.908C713.727 996.297 716.649 999.854 716.259 1003.85C713.337 1035.08 708.954 1087.16 708.905 1087.64C708.564 1091.45 705.399 1094.32 701.648 1094.32H701.697Z"
        fill="#010101"/>
    <path
        d="M646.907 1241.5C643.011 1241.5 639.797 1238.43 639.602 1234.48C636.242 1152.59 653.823 1087.74 654.554 1085.06C655.625 1081.17 659.667 1078.92 663.515 1079.95C667.411 1081.02 669.7 1085.01 668.628 1088.91C668.434 1089.54 650.95 1154.39 654.213 1233.9C654.359 1237.94 651.242 1241.35 647.2 1241.5C647.102 1241.5 647.005 1241.5 646.907 1241.5Z"
        fill="#010101"/>
    <path
        d="M577.361 1105.33H577.263C573.221 1105.28 570.007 1101.92 570.055 1097.92C570.104 1094.22 571.662 1006.82 582.815 948.748C583.594 944.802 587.393 942.171 591.387 942.95C595.331 943.73 597.961 947.53 597.182 951.525C586.273 1008.38 584.666 1097.29 584.666 1098.22C584.617 1102.21 581.354 1105.43 577.361 1105.43V1105.33Z"
        fill="#010101"/>
    <path
        d="M555.64 1270.92C554.032 1270.92 552.377 1270.39 551.013 1269.27C547.896 1266.69 547.458 1262.11 549.99 1258.99C579.991 1222.4 582.669 1165.3 582.669 1164.72C582.815 1160.67 586.273 1157.51 590.267 1157.7C594.309 1157.85 597.426 1161.26 597.28 1165.3C597.182 1167.84 594.455 1227.86 561.289 1268.29C559.828 1270.05 557.734 1270.97 555.64 1270.97V1270.92Z"
        fill="#010101"/>
    <path
        d="M674.473 883.806C673.499 883.806 672.573 883.611 671.599 883.221C667.898 881.662 666.145 877.326 667.752 873.624C669.7 869.093 671.648 864.513 673.645 859.885C688.742 824.954 704.376 788.853 706.177 753.922C706.372 749.878 709.781 746.858 713.872 747.004C717.915 747.199 720.983 750.658 720.788 754.701C718.84 792.264 702.671 829.582 687.086 865.731C685.09 870.311 683.141 874.842 681.193 879.373C680.025 882.15 677.297 883.806 674.473 883.806Z"
        fill="#010101"/>
    <path
        d="M729.262 657.118C727.899 657.118 726.486 656.728 725.22 655.9C703.012 641.235 683.969 596.024 683.142 594.124C681.583 590.422 683.336 586.135 687.038 584.576C690.788 583.017 695.025 584.77 696.583 588.473C701.551 600.409 717.866 633.538 733.256 643.72C736.616 645.961 737.541 650.492 735.301 653.854C733.889 655.997 731.551 657.118 729.213 657.118H729.262Z"
        fill="#010101"/>
    <path
        d="M722.004 669.736C697.605 669.736 671.403 659.262 670.234 658.774C666.484 657.264 664.682 652.977 666.192 649.274C667.702 645.523 671.987 643.72 675.689 645.231C675.981 645.328 703.692 656.338 725.852 655.023C729.894 654.731 733.352 657.849 733.595 661.892C733.839 665.936 730.771 669.395 726.728 669.639C725.17 669.736 723.563 669.785 721.956 669.785L722.004 669.736Z"
        fill="#010101"/>
    <path
        d="M661.566 748.368C660.105 748.368 658.644 747.929 657.378 747.053C654.066 744.714 653.287 740.183 655.625 736.87C662.589 726.932 668.482 718.503 668.482 718.503C670.771 715.19 675.349 714.362 678.661 716.652C681.973 718.942 682.8 723.521 680.512 726.834C680.512 726.834 674.619 735.311 667.606 745.25C666.193 747.296 663.904 748.368 661.615 748.368H661.566Z"
        fill="#010101"/>
    <path
        d="M687.719 752.802C686.014 752.802 684.261 752.217 682.848 750.95C679.829 748.271 679.537 743.642 682.264 740.622C690.689 731.17 699.261 718.65 699.358 718.504C701.647 715.191 706.177 714.362 709.537 716.603C712.849 718.893 713.725 723.424 711.436 726.786C711.047 727.322 702.232 740.183 693.222 750.317C691.761 751.925 689.764 752.753 687.767 752.753L687.719 752.802Z"
        fill="#010101"/>
    <path
        d="M651.63 798.792C648.708 798.792 645.932 796.989 644.812 794.115C643.351 790.363 645.25 786.125 649 784.663L687.28 769.95C691.03 768.537 695.267 770.389 696.728 774.14C698.189 777.891 696.289 782.13 692.539 783.591L654.26 798.304C653.383 798.645 652.506 798.792 651.63 798.792Z"
        fill="#010101"/>
    <path
        d="M724.244 520.218C723.66 520.218 723.076 520.17 722.491 520.023C718.595 519.049 716.209 515.103 717.183 511.205C717.475 509.939 725.121 480.123 751.858 463.997C755.316 461.902 759.797 463.022 761.891 466.482C763.985 469.941 762.865 474.423 759.407 476.518C737.978 489.428 731.452 514.469 731.355 514.713C730.527 518.026 727.556 520.267 724.293 520.267L724.244 520.218Z"
        fill="#010101"/>
    <path
        d="M773.288 776.82C770.464 776.82 767.736 775.163 766.568 772.386C764.96 768.684 766.714 764.396 770.415 762.789L792.721 753.24C785.172 752.558 777.379 752.217 771.438 752.753C767.444 753.094 763.889 750.122 763.548 746.078C763.207 742.034 766.178 738.527 770.22 738.186C788.63 736.675 820.237 741.986 821.601 742.181C824.815 742.717 827.25 745.299 827.64 748.514C828.029 751.73 826.227 754.799 823.257 756.114L776.162 776.235C775.237 776.625 774.263 776.82 773.288 776.82Z"
        fill="#010101"/>
    <path
        d="M778.548 825.538C775.577 825.538 772.606 825.344 769.635 824.808C765.642 824.126 762.963 820.374 763.645 816.379C764.327 812.384 768.126 809.705 772.07 810.387C786.584 812.872 804.457 805.71 810.155 802.787C813.711 800.935 818.142 802.3 819.993 805.905C821.844 809.461 820.48 813.895 816.876 815.746C816 816.184 797.834 825.538 778.548 825.538Z"
        fill="#010101"/>
    <path
        d="M795.593 693.9C794.619 693.9 793.645 693.706 792.719 693.316C789.018 691.708 787.313 687.421 788.872 683.718C802.508 652.002 830.658 647.812 843.661 650.005C847.655 650.687 850.334 654.487 849.652 658.433C848.97 662.379 845.171 665.059 841.226 664.426C840.203 664.279 814.732 660.626 802.313 689.467C801.145 692.244 798.417 693.9 795.593 693.9Z"
        fill="#010101"/>
    <path
        d="M765.448 622.771C764.522 622.771 763.646 622.625 762.72 622.235C758.97 620.725 757.169 616.486 758.63 612.735C759.409 610.835 760.431 609.471 774.652 592.712C784.977 580.532 799.149 563.87 807.672 552.616C810.107 549.401 814.685 548.767 817.9 551.203C821.114 553.639 821.747 558.219 819.312 561.434C810.594 573.029 796.812 589.155 785.805 602.163C779.571 609.471 773.143 617.071 771.876 618.922C770.562 621.31 768.078 622.771 765.448 622.771Z"
        fill="#010101"/>
    <path
        d="M435.833 1284.76C431.936 1284.76 427.31 1284.37 422.05 1283.3C415.962 1282.03 411.335 1279.11 406.855 1276.28C399.452 1271.61 393.072 1267.61 379.631 1270.78C354.647 1276.67 342.374 1260.55 339.354 1251.19C339.111 1250.37 338.965 1249.49 339.013 1248.61L358.884 812.92C359.03 790.169 360.929 587.158 380.312 558.219C388.153 546.527 397.699 518.513 406.952 491.474C422.147 446.994 432.034 419.419 443.479 413.719C447.083 411.917 451.466 413.378 453.268 416.983C455.07 420.589 453.609 424.973 450.005 426.776C443.089 430.771 429.647 470.136 420.735 496.2C410.751 525.431 401.303 553.055 392.439 566.355C379.679 585.404 374.03 727.955 373.494 813.31L353.673 1247.78C355.28 1251.39 360.88 1260.21 376.27 1256.6C395.702 1252.02 406.222 1258.65 414.647 1263.96C418.349 1266.3 421.563 1268.29 425.069 1269.07C436.709 1271.51 444.501 1269.27 444.55 1269.27C448.398 1268.1 452.489 1270.24 453.657 1274.09C454.826 1277.94 452.781 1281.98 448.933 1283.2C448.203 1283.45 443.43 1284.86 435.784 1284.86L435.833 1284.76Z"
        fill="#010101"/>
    <path
        d="M493.495 841.908C469.144 841.908 434.03 838.4 404.517 821.787C402.033 820.374 400.572 817.695 400.815 814.82C401.302 808.633 401.887 798.353 402.617 785.345C407.244 700.77 418.105 502.777 462.472 439.15C464.761 435.838 469.339 435.009 472.651 437.348C475.962 439.638 476.79 444.217 474.453 447.53C432.472 507.746 421.416 710.026 417.228 786.174C416.643 796.405 416.205 804.979 415.767 811.264C460.962 834.259 520.476 825.733 521.109 825.636C525.151 825.051 528.804 827.779 529.437 831.774C530.021 835.769 527.294 839.472 523.301 840.105C522.18 840.3 510.443 841.957 493.544 841.957L493.495 841.908Z"
        fill="#010101"/>
    <path
        d="M125.601 832.262C123.41 832.262 121.364 831.287 119.952 829.582C118.442 827.78 117.955 825.344 118.54 823.103C118.637 822.664 129.254 781.107 113.718 758.404C112.306 756.309 112.062 753.63 113.085 751.291C114.108 748.953 116.251 747.345 118.783 747.004C133.004 745.055 301.513 679.577 319.435 671.587C321.578 667.057 326.302 652.002 330.88 637.387C348.753 580.337 378.656 484.849 416.205 455.569C419.371 453.084 423.998 453.669 426.482 456.835C428.965 460.002 428.381 464.63 425.215 467.115C391.27 493.569 361.075 589.984 344.857 641.771C333.948 676.654 332.292 681.234 327.958 683.718C321.383 687.518 172.94 745.591 130.618 758.891C139.335 778.769 136.998 803.615 134.757 817.11C160.375 815.551 229.19 811.459 246.139 810.923C256.171 810.631 262.551 806.051 269.321 801.179C274.532 797.428 279.889 793.579 286.707 792.069C292.795 790.705 301.415 789.681 309.743 788.707C318.948 787.587 330.393 786.222 334.094 784.712C337.99 783.056 351.432 768.684 361.562 756.26C364.094 753.142 368.721 752.655 371.838 755.237C374.955 757.771 375.442 762.399 372.861 765.517C367.357 772.24 348.753 794.505 339.646 798.256C334.143 800.497 323.672 801.764 311.545 803.225C303.558 804.2 295.279 805.174 289.922 806.343C286.025 807.22 282.227 809.948 277.843 813.066C270.392 818.426 261.09 825.1 246.626 825.538C226.366 826.172 127.16 832.213 126.186 832.262C126.04 832.262 125.894 832.262 125.748 832.262H125.601Z"
        fill="#010101"/>
    <path
        d="M51.819 859.398C50.1144 859.398 49.2865 859.154 48.7021 858.959C48.4099 858.862 15.0491 848.485 5.55225 843.126C-5.25956 837.036 0.584661 818.377 16.5589 777.307C18.4095 772.532 20.1141 768.148 21.4291 764.591C27.5655 747.832 45.1956 750.171 65.6503 752.85C81.0888 754.848 100.277 757.381 123.216 754.848C127.209 754.409 130.862 757.283 131.3 761.327C131.739 765.322 128.865 768.976 124.823 769.414C100.131 772.143 79.092 769.414 63.751 767.368C43.2475 764.689 36.9649 764.64 35.163 769.658C33.848 773.312 32.0948 777.745 30.1954 782.666C24.9843 796.015 14.5134 823.005 14.5621 831.385C23.1336 835.379 45.78 842.882 52.4034 844.88C56.2996 844.782 71.0075 840.446 82.7934 836.305C86.5921 834.99 90.7805 836.987 92.0954 840.787C93.4104 844.587 91.4136 848.777 87.6149 850.093C65.212 857.936 56.0074 859.447 51.9164 859.447L51.819 859.398Z"
        fill="#010101"/>
    <path
        d="M83.6205 857.254C76.8022 857.254 70.8606 856.377 68.7664 856.036C64.7728 855.403 62.0942 851.603 62.7274 847.657C63.3605 843.662 67.1592 841.031 71.1041 841.616C81.1854 843.272 94.5784 842.98 97.5979 839.959C101.494 836.062 101.056 820.52 100.666 806.782C100.52 801.715 100.374 796.453 100.374 791.143C100.374 787.099 103.637 783.835 107.679 783.835C111.721 783.835 114.984 787.099 114.984 791.143C114.984 796.307 115.131 801.423 115.277 806.343C115.812 826.22 116.299 841.908 107.971 850.239C102.371 855.841 92.2894 857.206 83.6205 857.206V857.254Z"
        fill="#010101"/>
    <path
        d="M69.936 848.972C69.595 848.972 69.2541 848.972 68.9132 848.923C64.9197 848.339 62.1437 844.636 62.7281 840.641C64.0917 831.044 73.0529 819.546 75.7315 816.282C76.3159 815.161 78.7023 809.997 76.5107 803.176C75.2445 799.328 77.3386 795.235 81.1861 793.969C85.0335 792.702 89.1245 794.797 90.3907 798.646C94.1408 810.192 90.5856 820.325 87.8582 824.467C87.7121 824.71 87.5173 824.954 87.3225 825.197C83.4751 829.777 77.8257 838.205 77.1925 842.687C76.6568 846.341 73.5399 848.972 69.9847 848.972H69.936Z"
        fill="#010101"/>
    <path
        d="M24.5459 827.828C23.7667 827.828 23.0362 827.731 22.257 827.438C18.4095 826.172 16.364 822.031 17.6303 818.23C17.9225 817.354 24.8869 796.258 31.7538 779.304C33.2636 775.553 37.5006 773.75 41.2507 775.261C45.0007 776.771 46.8027 781.058 45.2929 784.761C38.6208 801.276 31.559 822.566 31.4616 822.761C30.4389 825.831 27.6142 827.779 24.5459 827.779V827.828Z"
        fill="#010101"/>
    <path
        d="M52.5009 857.206C49.384 857.206 46.5106 855.208 45.5366 852.09L37.6956 827.146C37.2573 825.831 37.2573 824.418 37.5982 823.054C37.5982 823.054 43.4911 800.984 46.9002 787.976C49.9684 776.284 52.7931 773.409 60.2445 770.097C61.4621 769.561 62.9231 768.927 64.7251 767.953C68.2803 766.004 72.7122 767.368 74.6116 770.925C76.5109 774.481 75.196 778.915 71.6408 780.815C69.4492 781.984 67.6472 782.812 66.1375 783.494C63.8972 784.469 62.1926 787.213 61.0238 791.728C58.1991 802.348 53.7672 819.01 52.2574 824.759L59.4653 847.657C60.6828 851.505 58.54 855.598 54.6925 856.816C53.962 857.059 53.2315 857.157 52.5009 857.157V857.206Z"
        fill="#010101"/>
    <path
        d="M110.894 830.313C107.777 830.313 104.855 828.266 103.93 825.148C102.761 821.3 104.904 817.207 108.8 816.038L120.829 812.336C124.677 811.166 128.768 813.31 129.937 817.207C131.106 821.056 128.963 825.148 125.066 826.318L113.037 830.02C112.307 830.215 111.625 830.361 110.894 830.361V830.313Z"
        fill="#010101"/>
    <path
        d="M76.998 1893.6H64.092C60.0984 1893.6 56.8354 1890.33 56.7867 1886.34L49.0918 852.139C49.0918 850.19 49.8223 848.339 51.2347 846.926C52.5983 845.562 54.4977 844.782 56.3971 844.782H84.6441C86.5922 844.782 88.4429 845.562 89.8065 846.926C91.1702 848.29 91.9494 850.19 91.9494 852.139L84.2545 1886.34C84.2545 1890.33 80.9428 1893.6 76.9493 1893.6H76.998ZM63.7998 859.398L70.5693 1770.68L77.3389 859.398H63.7998Z"
        fill="#010101"/>
    <path
        d="M551.987 191.172C538.107 191.172 520.915 186.934 511.759 178.895C505.866 173.682 504.844 168.274 505.087 164.669C505.331 160.626 508.837 157.654 512.782 157.8C516.824 158.043 519.892 161.454 519.649 165.497C519.649 165.936 520.185 166.862 521.402 167.982C528.367 174.121 547.263 178.213 558.854 176.069C562.848 175.339 566.646 177.969 567.377 181.964C568.107 185.959 565.477 189.759 561.484 190.49C558.61 191.026 555.396 191.27 551.987 191.27V191.172Z"
        fill="#010101"/>
    <path
        d="M588.075 223.619C587.539 223.619 587.052 223.57 586.517 223.424C573.172 220.501 564.991 205.203 553.643 184.01L550.38 177.921C548.481 174.364 549.796 169.931 553.302 168.031C556.857 166.082 561.289 167.446 563.189 170.954L566.5 177.092C574.926 192.829 582.913 207.639 589.634 209.149C593.579 210.026 596.062 213.924 595.186 217.87C594.455 221.28 591.436 223.619 588.075 223.619Z"
        fill="#010101"/>
    <path
        d="M595.721 260.645C592.263 260.645 589.194 258.209 588.561 254.653C587.831 250.658 590.461 246.858 594.406 246.127C602.685 244.617 610.088 239.258 613.74 232.193C616.565 226.786 616.857 221.086 614.568 216.116C612.912 212.462 614.519 208.126 618.172 206.421C621.825 204.765 626.159 206.372 627.864 210.026C632.003 219.039 631.565 229.563 626.695 238.917C620.899 250.073 609.795 258.112 597.035 260.499C596.597 260.596 596.159 260.645 595.672 260.645H595.721Z"
        fill="#010101"/>
    <path
        d="M600.882 242.278C599.032 242.278 597.132 241.547 595.72 240.134C593.382 237.796 592.993 234.337 594.405 231.56C594.162 231.268 593.821 230.829 593.236 230.293C590.265 227.565 590.071 222.937 592.847 219.965C595.574 216.993 600.201 216.798 603.171 219.575C607.214 223.278 609.308 227.321 609.357 231.56C609.454 236.383 606.873 239.355 606.045 240.183C604.633 241.596 602.733 242.327 600.882 242.327V242.278Z"
        fill="#010101"/>
    <path
        d="M603.903 221.232C599.763 221.232 595.623 220.939 591.63 220.257C587.636 219.624 584.909 215.873 585.591 211.878C586.224 207.883 589.974 205.154 593.968 205.836C613.448 208.954 630.884 201.939 631.906 198.09C632.978 194.193 636.971 191.903 640.867 192.926C644.764 193.998 647.053 197.993 646.03 201.89C642.621 214.46 623.189 221.232 603.951 221.232H603.903Z"
        fill="#010101"/>
    <path
        d="M602.052 321.495C602.052 321.495 601.663 321.495 601.517 321.495C597.474 321.202 594.455 317.695 594.796 313.651L599.325 252.801C599.617 248.758 603.173 245.786 607.166 246.078C611.208 246.37 614.228 249.878 613.887 253.922L609.358 314.772C609.065 318.62 605.851 321.543 602.101 321.543L602.052 321.495Z"
        fill="#010101"/>
    <path
        d="M605.802 303.42C602.344 303.42 599.325 300.984 598.643 297.476C597.864 293.53 600.493 289.681 604.438 288.902C612.133 287.44 617.344 284.322 619.828 279.645C624.601 270.779 619.487 258.209 619.438 258.112C617.88 254.409 619.633 250.122 623.335 248.563C627.036 247.004 631.322 248.709 632.88 252.412C633.221 253.191 640.77 271.412 632.734 286.466C628.059 295.235 619.487 300.887 607.166 303.225C606.679 303.323 606.24 303.371 605.753 303.371L605.802 303.42Z"
        fill="#010101"/>
    <path
        d="M631.079 284.225C628.936 284.225 626.794 283.299 625.381 281.497C622.849 278.33 623.384 273.75 626.55 271.217C647.833 254.263 652.946 245.299 641.258 225.714C639.213 222.255 640.333 217.773 643.791 215.678C647.248 213.632 651.729 214.752 653.823 218.211C672.427 249.489 655.869 266.491 635.657 282.617C634.294 283.689 632.687 284.225 631.128 284.225H631.079Z"
        fill="#010101"/>
    <path
        d="M442.943 202.183C439.924 202.183 437.099 200.283 436.028 197.262C434.713 193.462 436.758 189.272 440.557 187.957C440.801 187.859 463.885 179.772 478.837 164.182C481.613 161.259 486.239 161.162 489.162 163.939C492.084 166.716 492.181 171.344 489.405 174.267C471.97 192.536 446.401 201.403 445.33 201.793C444.551 202.085 443.723 202.183 442.943 202.183Z"
        fill="#010101"/>
    <path
        d="M430.67 240.524C428.722 240.524 426.774 239.745 425.361 238.235C422.585 235.311 422.732 230.683 425.702 227.906C425.751 227.857 436.709 217.042 444.063 190.539C445.134 186.641 449.177 184.352 453.073 185.472C456.969 186.544 459.209 190.588 458.138 194.485C449.566 225.275 436.271 238.04 435.686 238.576C434.274 239.891 432.472 240.573 430.67 240.573V240.524Z"
        fill="#010101"/>
    <path
        d="M418.885 256.699C416.304 256.699 413.771 255.286 412.456 252.85C411.872 251.778 398.576 226.25 409.778 192.536C416.255 173.049 440.46 152.733 466.564 153.951C470.606 154.146 473.723 157.508 473.577 161.551C473.382 165.595 470.119 168.81 465.98 168.567C446.937 167.69 428.382 182.987 423.658 197.116C414.502 224.642 424.924 245.104 425.411 245.981C427.262 249.537 425.898 253.971 422.343 255.822C421.271 256.407 420.102 256.65 418.934 256.65L418.885 256.699Z"
        fill="#010101"/>
    <path
        d="M430.67 288.902C429.502 288.902 428.381 288.609 427.261 288.074C418.446 283.397 402.862 267.904 407.099 242.863C407.78 238.868 411.531 236.188 415.524 236.87C419.518 237.552 422.196 241.304 421.514 245.299C418.008 266.053 433.495 274.822 434.128 275.212C437.635 277.161 438.95 281.594 437.05 285.102C435.735 287.538 433.203 288.95 430.622 288.95L430.67 288.902Z"
        fill="#010101"/>
    <path
        d="M467.829 321.495C467.829 321.495 467.537 321.495 467.391 321.495C454.144 320.715 443.77 315.892 436.514 307.171C425.312 293.725 424.972 275.114 426.627 261.912C427.114 257.917 430.816 255.042 434.761 255.578C438.754 256.065 441.628 259.719 441.092 263.714C439.241 278.379 441.628 290.461 447.715 297.817C452.293 303.323 459.16 306.343 468.219 306.879C472.261 307.123 475.329 310.582 475.086 314.577C474.842 318.474 471.628 321.446 467.78 321.446L467.829 321.495Z"
        fill="#010101"/>
    <path
        d="M409.68 212.365C408.755 212.365 407.781 212.17 406.904 211.78C395.508 207.006 376.66 190.295 386.741 160.869C395.703 134.756 418.641 139.823 442.895 145.182C455.606 148.007 470.022 151.174 485.85 151.515C518.675 152.246 544.876 143.672 568.058 136.12C588.464 129.494 607.702 123.258 627.621 124.525C654.845 126.376 666.631 141.333 668.482 153.561C670.673 168.274 660.738 182.111 643.205 188.736C639.455 190.149 635.218 188.249 633.806 184.498C632.394 180.746 634.293 176.508 638.043 175.095C648.903 170.954 655.186 163.354 654.066 155.705C653.043 148.787 645.251 140.31 626.695 139.092C609.65 137.923 592.507 143.525 572.636 149.956C548.383 157.849 520.915 166.764 485.606 166.082C468.317 165.741 453.171 162.379 439.778 159.408C412.31 153.318 404.859 153.123 400.573 165.595C392.586 188.785 410.508 197.36 412.602 198.236C416.303 199.844 418.008 204.131 416.45 207.785C415.281 210.562 412.602 212.267 409.729 212.267L409.68 212.365Z"
        fill="#010101"/>
    <path
        d="M643.302 230.293C641.793 230.293 640.234 229.806 638.968 228.832C635.705 226.445 635.072 221.865 637.458 218.601C641.793 212.803 643.4 206.86 642.328 201.062C640.965 193.706 635.12 186.447 625.916 180.649C603.756 166.667 576.483 159.261 544.779 158.628C540.736 158.531 537.522 155.218 537.619 151.174C537.717 147.131 540.882 143.964 545.071 144.013C579.454 144.695 609.308 152.879 633.708 168.274C646.565 176.41 654.504 186.788 656.695 198.383C658.546 208.224 655.916 218.26 649.195 227.321C647.783 229.27 645.543 230.245 643.351 230.245L643.302 230.293Z"
        fill="#010101"/>
    <path
        d="M450.931 158.969C446.986 158.969 443.723 155.803 443.625 151.856C443.382 142.064 442.798 131.638 441.872 121.017C437.489 70.4473 426.775 27.0877 426.677 26.6492C425.947 23.6774 427.116 20.5107 429.697 18.8055C432.132 17.1978 490.379 -20.4618 624.894 15.6875C626.793 16.1747 628.4 17.4414 629.326 19.1465C630.3 20.8517 630.543 22.8492 630.007 24.7492C611.209 92.1272 618.222 130.03 618.319 130.42C619.098 134.366 616.517 138.215 612.572 138.995C608.627 139.774 604.78 137.241 604.001 133.294C603.66 131.687 596.598 94.6605 614.033 28.0133C510.542 1.70525 456.921 21.485 442.116 28.6954C445.184 42.1418 452.83 78.6808 456.385 119.848C457.359 130.81 457.944 141.479 458.187 151.613C458.285 155.656 455.07 159.018 451.077 159.115H450.882L450.931 158.969Z"
        fill="#010101"/>
    <path
        d="M280.181 809.9C278.72 809.9 277.259 809.461 275.993 808.584C272.681 806.295 271.853 801.715 274.191 798.402C297.665 764.786 299.857 753.678 300.003 751.535C299.077 748.806 299.808 745.688 302.048 743.691C305.068 741.011 309.694 741.255 312.373 744.276C316.561 748.953 318.363 760.548 286.171 806.733C284.759 808.779 282.47 809.851 280.181 809.851V809.9Z"
        fill="#010101"/>
    <path
        d="M339.696 719.673C339.112 719.673 338.479 719.624 337.894 719.429C333.998 718.455 331.66 714.508 332.586 710.611C332.975 708.954 335.41 694.875 314.663 687.372C311.254 686.154 309.257 682.549 309.988 678.992C310.718 675.436 313.884 672.951 317.585 673.195C351.872 675.339 358.982 686.008 360.346 689.223C361.904 692.926 360.2 697.213 356.45 698.821C352.943 700.283 349.047 698.821 347.245 695.654C347.001 695.411 346.125 694.534 344.031 693.462C347.927 701.306 347.975 709.149 346.709 714.119C345.881 717.432 342.91 719.624 339.647 719.624L339.696 719.673Z"
        fill="#010101"/>
    <path
        d="M346.318 791.289C345.685 791.289 345.052 791.192 344.419 791.045C340.523 789.974 338.234 785.979 339.305 782.081C344.76 761.863 342.714 755.432 341.984 753.97C338.916 753.045 336.724 750.122 336.87 746.76C337.016 742.716 340.328 739.404 344.37 739.696C345.637 739.696 350.02 740.232 353.526 744.958C358.932 752.265 358.883 765.663 353.38 785.93C352.503 789.194 349.533 791.338 346.318 791.338V791.289Z"
        fill="#010101"/>
    <path
        d="M235.717 752.801C235.717 752.801 235.279 752.801 235.084 752.801C234.646 752.801 190.376 748.904 161.544 748.417C157.502 748.368 154.288 745.006 154.385 740.963C154.434 736.919 157.843 733.85 161.836 733.801C191.204 734.288 235.961 738.186 236.399 738.234C240.441 738.575 243.363 742.132 243.022 746.127C242.681 749.927 239.516 752.801 235.766 752.801H235.717Z"
        fill="#010101"/>
    <path
        d="M511.955 446.117C510.689 446.117 509.422 445.922 508.253 445.533C505.039 444.461 502.458 441.976 501.046 438.761C499.731 435.691 499.633 432.184 500.753 428.919C503.091 421.953 510.25 418.055 516.776 420.248C523.254 422.44 526.614 429.894 524.276 436.861C523.156 440.125 520.965 442.853 518.091 444.509C516.192 445.581 514.098 446.117 512.003 446.117H511.955ZM513.026 429.358C511.809 429.358 510.494 430.43 509.958 431.989C509.617 433.012 509.617 434.035 509.958 434.912C510.153 435.399 510.542 436.032 511.273 436.276C512.004 436.52 512.685 436.276 513.172 436.032C514 435.545 514.633 434.717 514.974 433.743C515.607 431.891 514.974 429.943 513.562 429.504C513.367 429.455 513.172 429.407 512.929 429.407L513.026 429.358Z"
        fill="#010101"/>
    <path
        d="M501.336 496.931C500.07 496.931 498.804 496.736 497.586 496.297C494.615 495.274 492.18 493.131 490.719 490.208C489.161 487.041 488.917 483.192 490.086 479.684C492.424 472.718 499.583 468.82 506.109 471.012C512.586 473.205 515.947 480.659 513.609 487.626C512.44 491.133 509.956 494.056 506.742 495.615C504.989 496.492 503.138 496.931 501.336 496.931ZM502.359 480.172C501.141 480.172 499.826 481.243 499.291 482.802C498.95 483.874 498.95 484.995 499.388 485.872C499.583 486.261 499.973 486.846 500.654 487.041C501.336 487.285 501.969 487.041 502.359 486.846C503.236 486.408 503.966 485.531 504.307 484.459C504.94 482.608 504.307 480.659 502.895 480.172C502.7 480.123 502.505 480.074 502.262 480.074L502.359 480.172Z"
        fill="#010101"/>
    <path
        d="M494.47 541.606C493.789 541.606 493.155 541.557 492.474 541.411C485.753 540.242 481.272 533.372 482.538 526.162C483.123 522.752 484.925 519.731 487.506 517.685C490.233 515.493 493.74 514.616 497.052 515.2C503.772 516.37 508.253 523.239 506.987 530.498C505.818 537.026 500.461 541.655 494.47 541.655V541.606ZM495.055 524.749C494.422 524.749 493.935 525.041 493.594 525.334C492.863 525.918 492.327 526.844 492.181 527.867C491.84 529.767 492.766 531.618 494.178 531.862C495.639 532.106 497.1 530.693 497.441 528.793C497.782 526.893 496.857 525.041 495.444 524.798C495.347 524.798 495.201 524.798 495.104 524.798L495.055 524.749Z"
        fill="#010101"/>
    <path
        d="M485.607 582.091C484.974 582.091 484.292 582.042 483.61 581.896C476.889 580.727 472.409 573.858 473.675 566.599C474.941 559.339 481.467 554.419 488.188 555.588C491.5 556.173 494.471 558.219 496.322 561.191C498.075 564.016 498.708 567.475 498.123 570.886C497.003 577.414 491.597 582.042 485.607 582.042V582.091ZM486.192 565.234C484.877 565.234 483.562 566.55 483.269 568.352C482.928 570.252 483.854 572.104 485.266 572.347C486.679 572.591 488.188 571.178 488.529 569.278C488.724 568.255 488.529 567.183 488.042 566.404C487.75 565.965 487.263 565.429 486.532 565.283C486.435 565.283 486.289 565.283 486.192 565.283V565.234Z"
        fill="#010101"/>
    <path
        d="M476.304 628.812C469.437 628.812 463.885 622.82 463.885 615.463C463.885 608.107 469.437 602.115 476.304 602.115C483.171 602.115 488.723 608.107 488.723 615.463C488.723 622.82 483.171 628.812 476.304 628.812ZM476.304 611.907C474.843 611.907 473.625 613.563 473.625 615.512C473.625 617.461 474.843 619.117 476.304 619.117C477.765 619.117 478.982 617.461 478.982 615.512C478.982 613.563 477.765 611.907 476.304 611.907Z"
        fill="#010101"/>
    <path
        d="M476.304 679.041C469.437 679.041 463.885 673.049 463.885 665.692C463.885 658.336 469.437 652.343 476.304 652.343C483.171 652.343 488.723 658.336 488.723 665.692C488.723 673.049 483.171 679.041 476.304 679.041ZM476.304 662.136C474.843 662.136 473.625 663.792 473.625 665.741C473.625 667.69 474.843 669.346 476.304 669.346C477.765 669.346 478.982 667.69 478.982 665.741C478.982 663.792 477.765 662.136 476.304 662.136Z"
        fill="#010101"/>
    <path
        d="M478.349 724.788C471.482 724.788 465.93 718.796 465.93 711.439C465.93 704.083 471.482 698.09 478.349 698.09C485.216 698.09 490.768 704.083 490.768 711.439C490.768 718.796 485.216 724.788 478.349 724.788ZM478.349 707.883C476.888 707.883 475.67 709.539 475.67 711.488C475.67 713.437 476.888 715.093 478.349 715.093C479.81 715.093 481.027 713.437 481.027 711.488C481.027 709.539 479.81 707.883 478.349 707.883Z"
        fill="#010101"/>
    <path
        d="M478.349 770.535C471.482 770.535 465.93 764.543 465.93 757.186C465.93 749.83 471.482 743.837 478.349 743.837C485.216 743.837 490.768 749.83 490.768 757.186C490.768 764.543 485.216 770.535 478.349 770.535ZM478.349 753.63C476.888 753.63 475.67 755.286 475.67 757.235C475.67 759.184 476.888 760.84 478.349 760.84C479.81 760.84 481.027 759.184 481.027 757.235C481.027 755.286 479.81 753.63 478.349 753.63Z"
        fill="#010101"/>
    <path
        d="M474.503 828.754C467.636 828.754 462.084 822.761 462.084 815.405C462.084 808.048 467.636 802.056 474.503 802.056C481.37 802.056 486.922 808.048 486.922 815.405C486.922 822.761 481.37 828.754 474.503 828.754ZM474.503 811.848C473.042 811.848 471.824 813.505 471.824 815.454C471.824 817.402 473.042 819.059 474.503 819.059C475.964 819.059 477.182 817.402 477.182 815.454C477.182 813.505 475.964 811.848 474.503 811.848Z"
        fill="#010101"/>
    <path
        d="M522.181 1528.06C519.6 1528.06 517.116 1526.7 515.801 1524.31C514.535 1522.02 485.265 1468.24 499.583 1419.42C485.314 1391.75 374.468 1163.55 400.865 814.869C401.157 810.825 404.664 807.805 408.706 808.146C412.748 808.438 415.768 811.946 415.427 815.99C387.715 1181.92 512.587 1412.89 513.853 1415.18C514.827 1416.98 515.022 1419.08 514.389 1421.03C499.924 1464.44 528.269 1516.71 528.561 1517.25C530.509 1520.8 529.243 1525.24 525.688 1527.19C524.568 1527.82 523.35 1528.11 522.181 1528.11V1528.06Z"
        fill="#010101"/>
    <path
        d="M661.567 1868.56H635.463C628.401 1868.56 623.725 1863.64 618.709 1858.42C611.842 1851.26 602.443 1841.47 581.744 1835.92C550.77 1827.58 529.098 1859.06 528.172 1860.42C526.37 1863.1 522.961 1864.27 519.844 1863.3C516.727 1862.27 514.682 1859.35 514.779 1856.13C518.676 1736.82 523.546 1554.76 520.867 1542.04C516.825 1524.85 524.422 1453.23 525.494 1443.73C525.64 1439.05 527.247 1377.72 520.867 1347.61C516.143 1325.25 503.675 1205.79 493.692 1109.81C489.211 1066.99 485.363 1029.96 483.513 1014.32C483.026 1010.33 485.899 1006.67 489.893 1006.19C493.838 1005.65 497.539 1008.57 498.026 1012.57C499.925 1028.35 503.773 1065.38 508.253 1108.3C517.702 1198.92 530.608 1322.96 535.185 1344.59C542.15 1377.47 540.202 1441.73 540.104 1444.46C540.104 1444.66 540.104 1444.85 540.104 1445.05C536.793 1475.3 532.507 1527.48 535.185 1538.73C538.741 1553.88 532.361 1766.3 530.12 1836.89C542.199 1826.37 561.533 1815.4 585.592 1821.88C610.186 1828.51 621.68 1840.45 629.277 1848.39C631.469 1850.68 634.44 1853.75 635.56 1854.04H653.775C648.807 1786.03 640.722 1683.62 638.336 1673.73C636.339 1669.01 636.096 1656.58 645.885 1579.46L646.81 1571.96C647.443 1566.65 646.323 1537.37 645.349 1511.5C643.742 1468.58 642.817 1442.07 644.18 1435.84C645.787 1428.33 651.145 1348.83 654.31 1297.23C654.554 1293.19 657.963 1290.22 662.054 1290.41C666.096 1290.66 669.164 1294.11 668.872 1298.16C668.044 1311.41 660.788 1427.94 658.45 1438.96C657.427 1444.22 658.888 1482.8 659.96 1510.96C661.275 1545.99 662.054 1567.67 661.323 1573.71L660.349 1581.26C652.021 1646.69 651.193 1664.86 651.924 1668.57C651.924 1668.57 651.826 1668.08 651.486 1667.45C654.115 1672.27 659.96 1737.31 668.872 1860.81C669.018 1862.86 668.336 1864.85 666.924 1866.32C665.56 1867.83 663.612 1868.65 661.567 1868.65V1868.56Z"
        fill="#010101"/>
    <path
        d="M612.427 1474.08C611.55 1474.08 610.673 1473.94 609.797 1473.59C606.047 1472.13 604.147 1467.89 605.608 1464.14C605.852 1463.51 631.372 1397.79 651.34 1349.12C652.898 1345.37 657.135 1343.61 660.885 1345.12C664.635 1346.63 666.388 1350.92 664.879 1354.67C644.96 1403.2 619.488 1468.82 619.245 1469.45C618.125 1472.33 615.349 1474.13 612.427 1474.13V1474.08Z"
        fill="#010101"/>
    <path
        d="M543.512 1444.66C539.616 1444.66 536.401 1441.59 536.207 1437.69C536.207 1437.54 535.427 1421.56 531.824 1379.08C531.483 1375.04 534.453 1371.53 538.496 1371.19C542.392 1370.8 546.044 1373.82 546.385 1377.86C550.038 1420.69 550.769 1436.37 550.817 1437.01C551.012 1441.05 547.895 1444.46 543.853 1444.66C543.755 1444.66 543.609 1444.66 543.512 1444.66Z"
        fill="#010101"/>
    <path
        d="M648.708 1690.93C644.861 1690.93 641.695 1687.96 641.403 1684.16C640.478 1677.97 620.072 1589.35 616.273 1577.95C615.007 1574.1 617.052 1569.96 620.9 1568.69C624.747 1567.43 628.887 1569.47 630.153 1573.32C632.929 1581.7 656.014 1678.07 656.014 1683.57C656.014 1687.62 652.751 1690.88 648.708 1690.88V1690.93Z"
        fill="#010101"/>
    <path
        d="M645.056 1837.18C641.988 1837.18 639.163 1835.28 638.14 1832.21C631.663 1812.97 621.338 1800.4 607.458 1794.85C582.717 1784.96 553.837 1799.91 553.545 1800.06C549.99 1801.91 545.558 1800.59 543.658 1797.04C541.759 1793.48 543.123 1789.05 546.678 1787.15C548.09 1786.42 581.695 1768.88 612.766 1781.25C630.835 1788.46 644.033 1804.05 651.971 1827.58C653.238 1831.38 651.192 1835.57 647.393 1836.84C646.614 1837.08 645.835 1837.23 645.056 1837.23V1837.18Z"
        fill="#010101"/>
    <path
        d="M597.572 1992.21C596.404 1992.21 595.235 1991.91 594.163 1991.38C585.64 1986.85 542.588 1963.7 533.578 1953.43C524.471 1943 529.877 1925.61 533.87 1912.89C534.942 1909.43 535.965 1906.17 536.305 1904.17C536.695 1901.88 534.893 1895.55 533.286 1889.9C529.925 1878.11 525.299 1862.03 526.419 1843.03C526.662 1838.98 530.072 1835.87 534.114 1836.16C538.156 1836.4 541.224 1839.86 540.981 1843.86C540.007 1860.37 544.049 1874.5 547.312 1885.85C549.747 1894.38 551.647 1901.05 550.672 1906.66C550.137 1909.63 549.065 1913.13 547.799 1917.23C545.364 1925.02 540.835 1939.54 544.585 1943.78C549.747 1949.67 577.069 1965.51 596.111 1975.79C611.355 1959.27 626.647 1939.83 628.255 1933.35C622.264 1922.44 606.436 1886.34 605.706 1884.73C605.267 1883.76 605.072 1882.69 605.072 1881.61L606.095 1843.22C606.193 1839.28 609.456 1836.11 613.4 1836.11C613.449 1836.11 613.547 1836.11 613.595 1836.11C617.638 1836.21 620.803 1839.57 620.706 1843.61L619.683 1880.4C624.992 1892.48 637.557 1920.54 641.453 1927.21C643.644 1930.92 649.391 1940.81 602.783 1989.92C601.371 1991.43 599.423 1992.21 597.475 1992.21H597.572Z"
        fill="#010101"/>
    <path
        d="M445.719 1876.45C429.696 1876.45 385.621 1862.27 376.66 1859.35C374.907 1858.76 373.397 1857.55 372.52 1855.94L355.864 1825.54C354.549 1823.1 354.695 1820.08 356.302 1817.84C357.91 1815.55 360.588 1814.38 363.413 1814.82C378.754 1817.26 420.832 1823.35 431.401 1822.62C438.95 1822.08 481.612 1799.43 518.48 1777.84C521.937 1775.8 526.418 1776.97 528.464 1780.47C530.509 1783.98 529.34 1788.41 525.834 1790.46C507.522 1801.18 446.742 1836.16 432.423 1837.18C422.391 1837.91 393.705 1834.06 375.735 1831.48L383.916 1846.44C404.566 1853.11 437.488 1862.52 446.206 1861.88C449.226 1861.69 454.047 1861.44 459.94 1861.2C479.664 1860.32 516.434 1858.72 531.483 1854.28C535.379 1853.21 539.421 1855.35 540.542 1859.25C541.662 1863.15 539.421 1867.19 535.574 1868.31C518.869 1873.19 482.392 1874.79 460.573 1875.77C454.826 1876.01 450.151 1876.21 447.229 1876.45C446.742 1876.45 446.255 1876.5 445.67 1876.5L445.719 1876.45Z"
        fill="#010101"/>
    <path
        d="M510.395 1427.46C506.353 1427.46 503.09 1424.19 503.09 1420.15V1353.89C503.09 1349.85 506.353 1346.58 510.395 1346.58C514.437 1346.58 517.7 1349.85 517.7 1353.89V1420.15C517.7 1424.19 514.437 1427.46 510.395 1427.46Z"
        fill="#010101"/>
    <path
        d="M382.894 1270C382.894 1270 382.505 1270 382.261 1270C378.219 1269.66 375.248 1266.15 375.589 1262.11L389.274 1097.44C389.615 1093.39 393.219 1090.57 397.164 1090.76C401.206 1091.1 404.177 1094.61 403.836 1098.66L390.151 1263.32C389.81 1267.12 386.644 1270.05 382.894 1270.05V1270Z"
        fill="#010101"/>
    <path
        d="M406.417 1274.72H406.222C402.18 1274.63 399.014 1271.27 399.112 1267.22L400.816 1194.24C400.914 1190.25 404.177 1187.13 408.121 1187.13H408.316C412.358 1187.23 415.524 1190.59 415.427 1194.63L413.722 1267.61C413.625 1271.61 410.362 1274.72 406.417 1274.72Z"
        fill="#010101"/>
    <path
        d="M550.137 350.434C546.874 350.434 543.903 348.241 543.075 344.928C542.101 341.031 544.488 337.036 548.384 336.062C589.78 325.684 594.991 310.338 595.04 310.143C595.868 306.197 599.715 303.81 603.66 304.687C607.605 305.515 610.089 309.559 609.212 313.505C608.677 315.941 602.686 337.426 551.939 350.19C551.354 350.336 550.721 350.385 550.137 350.385V350.434Z"
        fill="#010101"/>
    <path
        d="M606.582 399.883C604.926 399.883 603.27 399.347 601.907 398.227C598.79 395.645 598.351 391.065 600.933 387.947L617.783 367.631C620.365 364.513 624.943 364.075 628.059 366.657C631.176 369.239 631.615 373.819 629.034 376.937L612.183 397.252C610.722 399.006 608.676 399.883 606.533 399.883H606.582Z"
        fill="#010101"/>
    <path
        d="M635.462 417.178C634.098 417.178 632.735 416.789 631.517 416.009C628.108 413.817 627.134 409.335 629.277 405.924L640.283 388.629C642.475 385.219 646.956 384.244 650.365 386.388C653.774 388.58 654.748 393.063 652.605 396.473L641.598 413.768C640.186 415.96 637.848 417.13 635.413 417.13L635.462 417.178Z"
        fill="#010101"/>
    <path
        d="M490.768 1040.58C489.648 1040.58 488.528 1040.34 487.505 1039.8C448.885 1020.36 427.261 965.751 426.336 963.461C424.875 959.71 426.725 955.471 430.475 954.01C434.225 952.548 438.462 954.399 439.924 958.151C440.118 958.687 460.476 1009.89 494.031 1026.8C497.635 1028.6 499.096 1032.98 497.294 1036.59C496.028 1039.12 493.447 1040.63 490.768 1040.63V1040.58Z"
        fill="#010101"/>
    <path
        d="M514.729 872.406C489.745 872.406 439.534 867.68 403.835 856.865C399.988 855.695 397.796 851.603 398.965 847.754C400.134 843.905 404.225 841.713 408.072 842.882C443.625 853.6 494.08 858.18 517.164 857.741H517.262C521.255 857.741 524.518 860.957 524.567 864.952C524.616 868.995 521.401 872.308 517.359 872.357C516.531 872.357 515.606 872.357 514.729 872.357V872.406Z"
        fill="#010101"/>
    <path
        d="M450.493 132.612C446.451 132.612 443.188 129.348 443.188 125.304C443.188 121.261 446.451 117.997 450.493 117.997C483.659 117.997 607.702 107.327 608.92 107.23C613.011 106.889 616.469 109.861 616.81 113.904C617.151 117.948 614.18 121.456 610.137 121.797C605.024 122.235 484.243 132.612 450.444 132.612H450.493Z"
        fill="#010101"/>
    <path
        d="M617.978 50.0342C616.955 50.0342 615.932 49.8393 614.958 49.4008C614.715 49.3034 590.217 38.1955 573.902 37.0263C569.86 36.7339 566.841 33.2262 567.133 29.2313C567.425 25.2363 570.98 22.1183 574.925 22.4594C593.87 23.8235 619.926 35.6134 620.997 36.1006C624.65 37.757 626.306 42.093 624.601 45.7956C623.383 48.4752 620.705 50.0829 617.929 50.0829L617.978 50.0342Z"
        fill="#010101"/>
    <path
        d="M611.403 88.0347C610.478 88.0347 609.504 87.8399 608.579 87.4501C603.416 85.3065 588.124 79.6064 579.309 79.3141C575.267 79.2167 572.101 75.8064 572.247 71.8114C572.344 67.8652 575.607 64.6985 579.552 64.6985C579.65 64.6985 579.698 64.6985 579.796 64.6985C592.945 65.0882 612.134 73.0294 614.277 73.955C617.978 75.514 619.731 79.8013 618.173 83.5039C617.004 86.2809 614.277 87.986 611.452 87.986L611.403 88.0347Z"
        fill="#010101"/>
    <path
        d="M441.97 64.6497C439.291 64.6497 436.71 63.1882 435.444 60.6061C433.642 57.0009 435.103 52.6162 438.707 50.8136C445.574 47.3546 457.993 44.6263 459.356 44.334C463.301 43.4571 467.197 45.9905 468.025 49.9367C468.902 53.8829 466.369 57.7804 462.424 58.6573C459.161 59.3881 449.616 61.7266 445.184 63.9189C444.113 64.4548 443.041 64.6984 441.921 64.6984L441.97 64.6497Z"
        fill="#010101"/>
</svg>

