<?xml version="1.0" encoding="UTF-8"?>
<svg id="Layer_1" data-name="Layer 1" xmlns="http://www.w3.org/2000/svg" viewBox="0 0 250 250">
  <defs>
    <style>
      .cls-1 {
        fill: #fff;
      }

      .cls-1, .cls-2 {
        stroke-width: 0px;
      }

      .cls-2 {
        fill: #ff2d20;
      }
    </style>
  </defs>
  <rect class="cls-2" x="0" width="250" height="250"/>
  <g>
    <path class="cls-1" d="m131.37,121.31c0,6.24,5.07,11.31,11.31,11.31s11.31-5.07,11.31-11.31-5.07-11.31-11.31-11.31-11.31,5.07-11.31,11.31Zm11.31-8.31c4.58,0,8.31,3.73,8.31,8.31s-3.73,8.31-8.31,8.31-8.31-3.73-8.31-8.31,3.73-8.31,8.31-8.31Z"/>
    <path class="cls-1" d="m157.53,108.81c.23.59.8.95,1.4.95.18,0,.37-.03.55-.1.77-.3,1.15-1.17.85-1.94-3.62-9.24-13.27-10.49-22.23-10.49-.83,0-1.5.67-1.5,1.5s.67,1.5,1.5,1.5c11.42,0,17.05,2.49,19.44,8.58Z"/>
    <path class="cls-1" d="m125.36,227.99c-.67.19-15.05,4.48-23.46,22.01h2.25c8.13-15.98,21.6-20.05,21.75-20.09.53-.15.84-.71.69-1.24-.15-.53-.7-.84-1.24-.69Z"/>
    <path class="cls-1" d="m140.45,197.33c-.54.14-.86.68-.72,1.22,3.12,12.06-1.32,21.17-1.36,21.26-.25.49-.05,1.09.45,1.34.14.07.3.11.45.11.37,0,.72-.2.89-.55.2-.4,4.83-9.83,1.51-22.65-.14-.53-.68-.85-1.22-.72Z"/>
    <path class="cls-1" d="m163.23,215.72c-5.38,1.3-9.44,6.23-10.59,12.89-1.28,7.39,1.45,14.49,6.96,18.09.25.17.54.25.82.25.49,0,.97-.24,1.26-.68.45-.69.26-1.62-.43-2.08-5.47-3.58-6.46-10.36-5.64-15.07.95-5.46,4.14-9.47,8.34-10.48.8-.19,1.3-1,1.11-1.81-.19-.8-1-1.3-1.81-1.11Z"/>
    <path class="cls-1" d="m244.05,149.19c-.14-3.88-1.42-22.23-12.81-29.5,4.27-7.65,4-17.67-.8-26.55-4.31-7.97-11.28-13.26-19.22-14.85,2.8-2.04,4.62-5.34,4.62-9.06v-12.82c0-5.49-3.97-10.07-9.18-11.03-.69-19.98-17.04-31.13-31.79-34.36-.31-5.16-5.34-7.58-8.78-7.58s-8.47,2.42-8.78,7.58c-14.75,3.23-31.1,14.38-31.79,34.36-5.22.96-9.18,5.54-9.18,11.03v12.82c0,5.09,3.4,9.39,8.05,10.76-6.95,3.68-11.7,10.98-11.7,19.38v18.97c0,7.48-6.08,13.56-13.56,13.56-4.03,0-7.31,3.28-7.31,7.3s3.28,7.31,7.31,7.31h5.03c-3.28,9.1-2.58,19.05-2.55,19.5.03.42.24.81.57,1.07.33.26.76.37,1.17.3.23-.04,20.05-3.15,32.37,8.04h-18.67c-3.6,0-6.54,2.93-6.54,6.54,0,.33.03.65.08.96-7.43.54-15.1,5.24-20.76,12.8-4.02,5.37-6.51,11.5-7.36,17.69-6.11,1.51-13.19.1-18.29-3.7-3.39-2.53-7.43-7.19-7.51-15.09.51-1.42.8-2.94.8-4.53v-21.32c0-5.48-3.28-10.19-7.98-12.31v-59.79l20.62,4.15c.64.13,1.27-.16,1.59-.72.32-.56.25-1.26-.17-1.74l-14.66-16.64,14.66-16.64c.43-.48.5-1.18.17-1.74s-.96-.85-1.59-.72l-21.74,4.38-6.48-19.24c4.67-.94,8.2-5.08,8.2-10.02,0-5.64-4.59-10.22-10.22-10.22s-10.22,4.59-10.22,10.22c0,4.95,3.53,9.08,8.2,10.02l-6.48,19.24-21.74-4.38c-.63-.12-1.27.16-1.59.72-.32.56-.25,1.26.17,1.74l14.66,16.64-14.66,16.64c-.43.48-.5,1.18-.17,1.74.32.56.96.84,1.59.72l20.62-4.15v59.98c-4.48,2.2-7.57,6.79-7.57,12.11v21.32c0,5.32,3.1,9.91,7.57,12.11v47.81h3v-46.75c.94.21,1.92.33,2.93.33h7.79c.86,0,1.7-.09,2.52-.24v46.67h3v-47.61c1.78-.8,3.35-1.97,4.61-3.42,1.03,5.3,3.88,9.87,8.28,13.15,4.27,3.18,9.76,4.89,15.12,4.89,1.58,0,3.14-.16,4.67-.46-.15,3.17.14,6.33.9,9.38-16.1,7.84-18.62,23.19-18.73,23.85-.01.08-.01.15-.01.23h3.02c.38-1.91,3.55-15.39,18.11-21.89.69-.31,1.04-1.07.83-1.79-2.76-9.39-.54-20.15,5.94-28.81,5.41-7.23,12.72-11.57,19.6-11.65,1.19,1.59,3.09,2.62,5.22,2.62h5.81c.83,0,1.5-.67,1.5-1.5s-.67-1.5-1.5-1.5h-5.81c-1.95,0-3.54-1.59-3.54-3.54s1.59-3.54,3.54-3.54h21.49c1.03,1.28,1.99,2.69,2.83,4.27.27.51.79.8,1.33.8.24,0,.48-.06.7-.18.73-.39,1.01-1.3.62-2.03-1.02-1.93-2.2-3.64-3.48-5.18-.08-.1-.17-.2-.25-.3-11.06-12.9-30.02-12.16-35.74-11.59-.06-3.25.14-10.98,2.83-17.7h6.82c.83,0,1.5-.67,1.5-1.5s-.67-1.5-1.5-1.5h-15.06c-2.37,0-4.31-1.93-4.31-4.31s1.93-4.3,4.31-4.3c9.13,0,16.56-7.43,16.56-16.56v-18.97c0-10.43,8.49-18.92,18.92-18.92h28.01c.41,18.46,10.46,26.39,13.28,28.25-1.11,3.5-5.22,17.83-1.77,26.79-4.53,4.68-6.78,9.25-7.66,13.71-2.89,7.18-9.83,11.07-20.28,11.34-3.25-3.72-7.4-7.02-12.53-10.06-.71-.42-1.63-.19-2.05.53-.42.71-.19,1.63.53,2.06,15.1,8.95,21.06,20.28,20.57,39.1-.02.83.63,1.52,1.46,1.54.01,0,.03,0,.04,0,.81,0,1.48-.65,1.5-1.46.02-.61.02-1.21.03-1.8,6.31.06,14.34,1.46,19.54,7.3,4.28,4.81,5.81,11.76,4.56,20.67-.1.73.34,1.43,1.05,1.65,6.25,1.88,10.53,5.54,12.38,10.59,2.05,5.6.98,12.87-2.71,18.51-.17.25-.24.54-.24.82h3.26c3.77-6.29,4.77-14.18,2.51-20.36-1.45-3.98-4.91-9.2-13.12-12.04,1.06-9.23-.77-16.57-5.45-21.83-4.8-5.39-12.31-8.25-21.83-8.31-.35-10.27-2.83-18.3-7.91-24.97,8.29-.52,14.51-3.42,18.23-8.41,0,3.31.59,6.53,1.37,9.67,2.02,8.07,7.98,13.67,9.64,15.11-.27,3.44-.88,21.75,15.66,27.33,14.25,4.8,22.21,1.44,25.06-.3,1.5,4.18,7.29,16.46,23.51,16.46,2.64,0,5.56-.33,8.78-1.07v-2c-.08,0-.15-.01-.23,0-25.14,5.9-30.34-14.37-30.55-15.24-.08-.34-.34-.61-.67-.72-.33-.11-.7-.03-.96.2-.07.06-7.53,6.4-24.29.76-16.62-5.6-14.37-24.91-14.26-25.73.04-.35-.1-.69-.37-.91-.07-.06-7.23-5.85-9.37-14.38-1.19-4.75-1.73-9.17-.93-13.49.37-.93.69-1.9.93-2.93.04-.16.02-.31,0-.46,1.09-2.97,2.93-5.93,5.75-8.95.38.65.8,1.26,1.3,1.82,7.03,7.93,12.7,8.36,13.83,8.36.11,0,.18,0,.2,0,.55-.04.96-.51.92-1.06-.03-.55-.51-.96-1.06-.94-.04,0-5.43.19-12.4-7.68-.65-.74-1.19-1.59-1.61-2.54-.01-.03-.02-.06-.04-.09-4.04-9.17,1.78-26.52,1.84-26.71.16-.46-.04-.96-.46-1.2-.13-.07-12.48-7.15-12.96-26.94h14.25c.85,16.37,15.27,31.12,15.9,31.76.2.2.45.3.71.3s.51-.1.7-.29c.39-.39.4-1.02,0-1.41-.15-.15-14.43-14.78-15.32-30.35h23.75c.21,0,.41-.02.61-.03.26.22.59.36.96.36,8.87,0,16.95,5.15,21.61,13.78,4.57,8.44,4.61,17.96.11,24.83-.23.35-.3.79-.2,1.2.11.41.38.75.76.95,12.25,6.39,12.6,28.15,12.6,28.36,0,.44.2.85.53,1.13l7.43,6.32c.28.24.63.36.97.36,0,0,0,0,0,0v-3.47l-5.95-5.06ZM32.64,37.74c0-3.98,3.24-7.22,7.22-7.22s7.22,3.24,7.22,7.22-3.24,7.22-7.22,7.22-7.22-3.24-7.22-7.22Zm-19.24,59.26l12.59-14.29c.5-.57.5-1.42,0-1.98l-12.59-14.29,18.67,3.76c.74.15,1.48-.28,1.72-.99l6.08-18.05,6.08,18.05c.24.72.98,1.14,1.72.99l18.67-3.76-12.59,14.29c-.5.57-.5,1.42,0,1.98l12.59,14.29-18.67-3.76c-.74-.15-1.48.28-1.72.99l-6.08,18.05-6.08-18.05c-.21-.62-.79-1.02-1.42-1.02-.1,0-.2,0-.3.03l-18.67,3.76Zm19.85,5.03l5.2,15.42c.21.61.78,1.02,1.42,1.02s1.22-.41,1.42-1.02l5.2-15.42v53.47c-.82-.16-1.66-.24-2.52-.24h-7.79c-1.01,0-1.98.12-2.93.33v-53.56Zm10.71,98.54h-7.79c-5.79,0-10.5-4.71-10.5-10.5v-21.32c0-5.79,4.71-10.5,10.5-10.5h7.79c5.79,0,10.5,4.71,10.5,10.5v21.32c0,5.79-4.71,10.5-10.5,10.5ZM166.08,6.44c2.09,0,5.06,1.28,5.69,4.01-1.96-.29-3.87-.44-5.69-.44s-3.73.15-5.69.44c.62-2.73,3.6-4.01,5.69-4.01Zm0,6.57c14.83,0,36.61,10.24,37.56,32.17h-75.13c.96-21.93,22.73-32.17,37.56-32.17Zm-24.23,64.44h-14.3c-4.54,0-8.22-3.69-8.22-8.22v-12.82c0-4.54,3.69-8.23,8.22-8.23h77.06c4.54,0,8.22,3.69,8.22,8.23v12.82c0,4.54-3.69,8.22-8.22,8.22h-62.76Z"/>
    <path class="cls-1" d="m215.59,124.53c.8-.22,1.27-1.05,1.04-1.85-.22-.8-1.05-1.27-1.85-1.05-6.67,1.85-12.13,7.74-14.26,15.38-2.07,7.46-.36,15.02,4.57,20.22.29.31.69.47,1.09.47.37,0,.74-.14,1.03-.41.6-.57.63-1.52.06-2.12-4.27-4.5-5.67-10.83-3.86-17.36,1.82-6.53,6.59-11.75,12.17-13.29Z"/>
    <path class="cls-1" d="m201.62,178.23c6.77,3.79,12.46,5.06,17.04,5.06,5.18,0,8.95-1.63,11.28-3.07,5.52-3.43,8.89-9.51,8.57-15.47-.04-.83-.73-1.46-1.58-1.42-.83.04-1.46.75-1.42,1.58.26,4.89-2.55,9.9-7.16,12.76-3.82,2.38-12.18,5.27-25.26-2.06-.72-.4-1.64-.15-2.04.58-.41.72-.15,1.64.58,2.04Z"/>
    <path class="cls-1" d="m236.31,190.54c-.29-.78-1.15-1.17-1.93-.88-.78.29-1.17,1.15-.88,1.93,3.86,10.37,15.61,13.62,16.11,13.75.13.03.26.05.39.05v-3.07c-1.94-.63-10.73-3.85-13.69-11.79Z"/>
  </g>
</svg>