<?xml version="1.0" encoding="UTF-8"?>
<svg id="Layer_1" data-name="Layer 1" xmlns="http://www.w3.org/2000/svg" viewBox="0 0 250 250">
  <defs>
    <style>
      .cls-1 {
        fill: #fff;
      }

      .cls-1, .cls-2 {
        stroke-width: 0px;
      }

      .cls-2 {
        fill: #ff2d20;
      }
    </style>
  </defs>
  <rect class="cls-2" width="250" height="250"/>
  <path class="cls-1" d="m141.07,124.88c.64.94,1.16,1.96,1.56,3.04h6.55l1.42-2.29c.44-.71,1.36-.92,2.07-.48.7.44.92,1.36.48,2.07l-.44.71h6.38c.83,0,1.5-.67,1.5-1.5s-.67-1.5-1.5-1.5h-14.52l34.05-54.89-4.03.81-33.52,54.03Z"/>
  <path class="cls-1" d="m123.08,170c-.29.46-.3,1.04-.04,1.52s.77.77,1.31.77h5.7l.55-.89c.44-.71,1.36-.92,2.07-.48.49.3.73.84.7,1.37h8.2c.83,0,1.5-.67,1.5-1.5s-.67-1.5-1.5-1.5h-14.52l25.66-41.37h-3.53l-26.1,42.08Z"/>
  <path class="cls-1" d="m152.67,125.15c-.7-.43-1.63-.22-2.07.48l-1.42,2.29h3.53l.44-.71c.44-.7.22-1.63-.48-2.07Z"/>
  <path class="cls-1" d="m107.01,209.43c.43.17.87.36,1.28.58.73.38,1.02,1.29.63,2.02-.39.73-1.29,1.01-2.03.63-.49-.25-.99-.46-1.5-.64l-2.32,3.75c-.29.46-.3,1.04-.04,1.52s.77.77,1.31.77h4.83l1.42-2.29c.44-.71,1.36-.92,2.07-.48.7.44.92,1.36.48,2.07l-.44.71h8.86c.83,0,1.5-.67,1.5-1.5s-.67-1.5-1.5-1.5h-14.52l26.1-42.08c.13-.22.2-.45.22-.69h-3.32l-23.04,37.14Z"/>
  <path class="cls-1" d="m132.67,170.92c-.7-.44-1.63-.22-2.07.48l-.55.89h3.32c.04-.53-.21-1.07-.7-1.37Z"/>
  <path class="cls-1" d="m109.18,218.06l-9.58,15.44c.3.06.6.11.91.14.82.09,1.42.83,1.33,1.65-.08.77-.73,1.34-1.49,1.34-.05,0-.11,0-.16,0-.78-.08-1.53-.24-2.26-.44l-8.57,13.81h3.53l19.81-31.94h-3.53Z"/>
  <path class="cls-1" d="m112.67,215.29c-.7-.43-1.63-.22-2.07.48l-1.42,2.29h3.53l.44-.71c.44-.7.22-1.63-.48-2.07Z"/>
  <path class="cls-1" d="m195.78,67.42c.7-.43,1.63-.22,2.07.48l1.83,2.95,16.96,3.41c.64.13,1.27-.16,1.59-.72.32-.56.25-1.26-.17-1.74l-14.28-16.21,14.28-16.21c.43-.48.5-1.18.17-1.74-.32-.56-.96-.85-1.59-.72l-21.18,4.26-6.3-18.7c-.65.13-1.33.2-2.02.2s-1.37-.07-2.02-.2l-6.3,18.7-21.18-4.26c-.63-.12-1.27.16-1.59.72-.32.56-.25,1.26.17,1.74l14.28,16.21-14.28,16.21c-.43.48-.5,1.18-.17,1.74.32.56.96.84,1.59.72l16.96-3.41,1.83-2.95c.44-.71,1.36-.92,2.07-.48.7.44.92,1.36.48,2.07l-.34.55.19-.04,6.9,20.47c.21.61.78,1.02,1.42,1.02s1.22-.41,1.42-1.02l6.9-20.47.19.04-.34-.55c-.44-.7-.22-1.63.48-2.07Zm-2.75.37l-5.9,17.51-5.9-17.51c-.21-.62-.79-1.02-1.42-1.02-.1,0-.2,0-.3.03l-18.11,3.65,12.21-13.86c.5-.57.5-1.42,0-1.98l-12.21-13.86,18.11,3.65c.74.15,1.48-.28,1.72-.99l5.9-17.51,5.9,17.51c.24.72.97,1.14,1.72.99l18.11-3.65-12.21,13.86c-.5.57-.5,1.42,0,1.98l12.21,13.86-18.11-3.65c-.74-.15-1.48.28-1.72.99Z"/>
  <path class="cls-1" d="m178.48,67.42c-.7-.43-1.63-.22-2.07.48l-1.83,2.95,4.03-.81.34-.55c.44-.7.22-1.63-.48-2.07Z"/>
  <path class="cls-1" d="m187.13,19.69c-3.87,0-7.01-3.15-7.01-7.01s3.15-7.01,7.01-7.01,7.01,3.15,7.01,7.01-3.15,7.01-7.01,7.01c.64,0,1.22.41,1.42,1.02l.6,1.77c4.56-.94,7.99-4.98,7.99-9.81,0-5.52-4.49-10.01-10.01-10.01s-10.01,4.49-10.01,10.01c0,4.83,3.44,8.87,7.99,9.81l.6-1.77c.21-.61.78-1.02,1.42-1.02Z"/>
  <path class="cls-1" d="m189.15,22.48l-.6-1.77c-.21-.61-.78-1.02-1.42-1.02s-1.22.41-1.42,1.02l-.6,1.77c.65.13,1.33.2,2.02.2s1.37-.07,2.02-.2Z"/>
  <path class="cls-1" d="m140.57,127.15c-.26-.48-.25-1.06.04-1.52l.47-.75c-2.55-3.74-6.85-6.21-11.71-6.21-7.81,0-14.16,6.35-14.16,14.16s6.35,14.16,14.16,14.16,14.16-6.35,14.16-14.16c0-1.73-.33-3.38-.9-4.91h-.75c-.54,0-1.05-.29-1.31-.77Zm-11.2,16.84c-6.15,0-11.16-5.01-11.16-11.16s5-11.16,11.16-11.16,11.16,5.01,11.16,11.16-5.01,11.16-11.16,11.16Z"/>
  <path class="cls-1" d="m140.6,125.63c-.29.46-.3,1.04-.04,1.52.26.48.77.77,1.31.77h.75c-.4-1.08-.92-2.11-1.56-3.04l-.47.75Z"/>
  <path class="cls-1" d="m174.47,187.42c7.81,0,14.16-6.35,14.16-14.16,0-.33-.03-.65-.05-.97h-1.45c-.83,0-1.5-.67-1.5-1.5s.67-1.5,1.5-1.5h.92c-1.72-5.88-7.15-10.19-13.58-10.19-7.81,0-14.16,6.35-14.16,14.16s6.35,14.16,14.16,14.16Zm0-25.32c6.15,0,11.16,5.01,11.16,11.16s-5.01,11.16-11.16,11.16-11.16-5.01-11.16-11.16,5.01-11.16,11.16-11.16Z"/>
  <path class="cls-1" d="m215.39,126.42c0-.83.67-1.5,1.5-1.5h1.32c-1.13-6.68-6.95-11.79-13.94-11.79s-12.81,5.11-13.94,11.79h1.28c.83,0,1.5.67,1.5,1.5s-.67,1.5-1.5,1.5h-1.47c.33,7.51,6.53,13.53,14.13,13.53s13.79-6.02,14.13-13.53h-1.5c-.83,0-1.5-.67-1.5-1.5Zm-11.12,12.03c-6.15,0-11.16-5.01-11.16-11.16s5.01-11.16,11.16-11.16,11.16,5.01,11.16,11.16-5.01,11.16-11.16,11.16Z"/>
  <path class="cls-1" d="m214.47,204.93c-6.42,0-11.84,4.3-13.57,10.16.69.13,1.22.74,1.22,1.47,0,.83-.67,1.5-1.5,1.5h-.25c-.02.34-.05.68-.05,1.03,0,7.81,6.35,14.16,14.16,14.16s14.16-6.35,14.16-14.16-6.35-14.16-14.16-14.16Zm0,25.32c-6.15,0-11.16-5.01-11.16-11.16s5.01-11.16,11.16-11.16,11.16,5.01,11.16,11.16-5.01,11.16-11.16,11.16Z"/>
  <path class="cls-1" d="m90.57,222.55c0-6.15,5.01-11.16,11.16-11.16,1.28,0,2.51.22,3.68.63l1.61-2.59c-1.67-.67-3.47-1.04-5.29-1.04-7.81,0-14.16,6.35-14.16,14.16,0,6.47,4.33,11.97,10.37,13.64l1.66-2.68c-5.21-1-9.04-5.55-9.04-10.95Z"/>
  <path class="cls-1" d="m106.9,212.66c.73.38,1.64.1,2.03-.63.38-.73.1-1.64-.63-2.02-.41-.22-.85-.4-1.28-.58l-1.61,2.59c.51.18,1.01.38,1.5.64Z"/>
  <path class="cls-1" d="m100.2,236.63c.05,0,.11,0,.16,0,.76,0,1.41-.57,1.49-1.34.09-.82-.51-1.56-1.33-1.65-.31-.03-.61-.08-.91-.14l-1.66,2.68c.73.2,1.48.36,2.26.44Z"/>
  <path class="cls-1" d="m200.62,215.06h-58.74c-.83,0-1.5.67-1.5,1.5s.67,1.5,1.5,1.5h41.24l.11-1.61c.06-.83.78-1.45,1.6-1.39.83.06,1.45.77,1.39,1.6l-.1,1.39h14.24c.07-1.02.25-2.02.53-2.97-.09-.02-.18-.03-.28-.03Z"/>
  <path class="cls-1" d="m202.12,216.56c0-.73-.53-1.34-1.22-1.47-.28.95-.46,1.95-.53,2.97h.25c.83,0,1.5-.67,1.5-1.5Z"/>
  <path class="cls-1" d="m190.32,124.92h-10.96c-.83,0-1.5.67-1.5,1.5s.67,1.5,1.5,1.5h10.77c0-.21-.03-.42-.03-.63,0-.81.08-1.6.22-2.37Z"/>
  <path class="cls-1" d="m193.11,126.42c0-.83-.67-1.5-1.5-1.5h-1.28c-.13.77-.22,1.56-.22,2.37,0,.21.02.42.03.63h1.47c.83,0,1.5-.67,1.5-1.5Z"/>
  <path class="cls-1" d="m221.59,125.15c.7-.43,1.63-.22,2.07.48l1.42,2.29h7.3c.54,0,1.05-.29,1.31-.77s.25-1.06-.04-1.52l-33.98-54.78-4.03-.81,34.05,54.89h-11.48c.13.77.22,1.56.22,2.37,0,.21-.02.42-.03.63h3.15l-.44-.71c-.44-.7-.22-1.63.48-2.07Z"/>
  <path class="cls-1" d="m197.84,67.91c-.44-.71-1.36-.92-2.07-.48-.7.44-.92,1.36-.48,2.07l.34.55,4.03.81-1.83-2.95Z"/>
  <path class="cls-1" d="m218.21,124.92h-1.32c-.83,0-1.5.67-1.5,1.5s.67,1.5,1.5,1.5h1.5c0-.21.03-.42.03-.63,0-.81-.08-1.6-.22-2.37Z"/>
  <path class="cls-1" d="m221.54,127.92l25.66,41.37h-14.52c-.83,0-1.5.67-1.5,1.5s.67,1.5,1.5,1.5h8.2c-.04-.53.21-1.07.7-1.37.7-.44,1.63-.22,2.07.48l.55.89h5.7s.07-.01.1-.01v-4.17l-24.93-40.18h-3.53Z"/>
  <path class="cls-1" d="m223.65,125.63c-.44-.71-1.36-.92-2.07-.48-.7.44-.92,1.36-.48,2.07l.44.71h3.53l-1.42-2.29Z"/>
  <path class="cls-1" d="m244.2,172.29h-3.32c.02.24.08.48.22.69l8.9,14.34v-5.69l-5.8-9.34Z"/>
  <path class="cls-1" d="m241.59,170.92c-.49.3-.73.84-.7,1.37h3.32l-.55-.89c-.44-.71-1.36-.92-2.07-.48Z"/>
  <path class="cls-1" d="m168.69,116.47c.17.07.35.1.53.1.61,0,1.18-.37,1.4-.97l8.42-22.4c.29-.78-.1-1.64-.88-1.93-.77-.29-1.64.1-1.93.88l-8.42,22.4c-.29.78.1,1.64.88,1.93Z"/>
  <path class="cls-1" d="m148.73,162c.19.08.38.11.56.11.59,0,1.15-.35,1.39-.94l9.19-22.58c.31-.77-.06-1.64-.82-1.95-.77-.31-1.64.06-1.96.82l-9.19,22.58c-.31.77.06,1.64.82,1.95Z"/>
  <path class="cls-1" d="m196.57,161.16s.07,0,.11,0c.83-.06,1.45-.77,1.39-1.6l-.93-13.4c-.06-.83-.79-1.44-1.6-1.39-.83.06-1.45.77-1.39,1.6l.93,13.4c.05.79.71,1.4,1.49,1.4Z"/>
  <path class="cls-1" d="m200.42,98.1c.23.59.8.96,1.4.96.18,0,.37-.03.54-.1.77-.3,1.15-1.17.85-1.94l-6.18-15.84c-.3-.77-1.17-1.15-1.94-.85-.77.3-1.15,1.17-.85,1.94l6.18,15.84Z"/>
  <path class="cls-1" d="m226.09,172.29c.48,0,.93-.23,1.22-.62.28-.39.36-.89.21-1.35l-7.66-23c-.26-.79-1.11-1.21-1.9-.95-.79.26-1.21,1.11-.95,1.9l7,21.03h-35.96c.28.96.46,1.97.53,3h37.51Z"/>
  <path class="cls-1" d="m185.63,170.79c0,.83.67,1.5,1.5,1.5h1.45c-.07-1.03-.25-2.04-.53-3h-.92c-.83,0-1.5.67-1.5,1.5Z"/>
  <path class="cls-1" d="m228.77,186.74c-.8.21-1.28,1.03-1.07,1.83l11.49,43.55c.18.67.78,1.12,1.45,1.12.13,0,.26-.02.38-.05.8-.21,1.28-1.03,1.07-1.83l-11.49-43.55c-.21-.8-1.04-1.28-1.83-1.07Z"/>
  <path class="cls-1" d="m159.05,191.97c-.77-.3-1.64.07-1.95.84l-6.61,16.61c-.31.77.07,1.64.84,1.95.18.07.37.11.55.11.6,0,1.16-.36,1.39-.95l6.61-16.61c.31-.77-.07-1.64-.84-1.95Z"/>
  <path class="cls-1" d="m138.81,174.8c-.73-.38-1.64-.1-2.02.64l-10.07,19.34c-.38.73-.1,1.64.64,2.02.22.12.46.17.69.17.54,0,1.06-.29,1.33-.81l10.07-19.34c.38-.73.1-1.64-.64-2.02Z"/>
  <path class="cls-1" d="m144.32,224.72c-.77-.32-1.64.05-1.96.81l-6.51,15.7c-.32.77.05,1.64.81,1.96.19.08.38.11.57.11.59,0,1.15-.35,1.39-.93l6.51-15.7c.32-.77-.05-1.64-.81-1.96Z"/>
  <path class="cls-1" d="m181.51,240.94c-.06.83.56,1.54,1.39,1.6.04,0,.07,0,.11,0,.78,0,1.44-.6,1.49-1.39l1.63-23.09h-3.01l-1.61,22.88Z"/>
  <path class="cls-1" d="m184.83,215.06c-.82-.06-1.54.56-1.6,1.39l-.11,1.61h3.01l.1-1.39c.06-.83-.56-1.54-1.39-1.6Z"/>
</svg>