<?xml version="1.0" encoding="utf-8"?>
<svg viewBox="0 0 24 24" fill="none" xmlns="http://www.w3.org/2000/svg">
    <defs>
        <style>
            .cls-2 {
                fill: #ff2d20;
            }
        </style>
    </defs>
    <rect class="cls-2" width="24" height="24"/>
    <path d="M22 12H2" stroke="#fff" stroke-width="0.3" stroke-linecap="round"/>
    <path d="M12 2V22" stroke="#fff" stroke-width="0.3" stroke-linecap="round"/>
    <path d="M13 12C13 14.2091 14.7909 16 17 16" stroke="#fff" stroke-width="0.3" stroke-linecap="round"/>
    <path d="M11 12C11 14.2091 9.20914 16 7 16" stroke="#fff" stroke-width="0.3" stroke-linecap="round"/>
    <path
        d="M12 10.0352C12 8.54529 13.014 7.24659 14.4594 6.88524C16.0631 6.48431 17.5158 7.93697 17.1148 9.5407C16.7535 10.9861 15.4548 12.0001 13.9649 12.0001H12V10.0352Z"
        stroke="#fff" stroke-width="0.3"/>
    <path
        d="M12.0001 10.0352C12.0001 8.54529 10.9861 7.24659 9.5407 6.88524C7.93698 6.48431 6.48431 7.93697 6.88524 9.5407C7.24659 10.9861 8.54529 12.0001 10.0352 12.0001H12.0001V10.0352Z"
        stroke="#fff" stroke-width="0.3"/>
    <path
        d="M22 12C22 16.714 22 19.0711 20.5355 20.5355C19.0711 22 16.714 22 12 22C7.28595 22 4.92893 22 3.46447 20.5355C2 19.0711 2 16.714 2 12C2 7.28595 2 4.92893 3.46447 3.46447C4.92893 2 7.28595 2 12 2C16.714 2 19.0711 2 20.5355 3.46447C21.5093 4.43821 21.8356 5.80655 21.9449 8"
        stroke="#fff" stroke-width="0.3" stroke-linecap="round"/>
</svg>
