<?xml version="1.0" encoding="UTF-8"?>
<svg id="Layer_1" data-name="Layer 1" xmlns="http://www.w3.org/2000/svg" viewBox="0 0 250 250">
  <defs>
    <style>
      .cls-1 {
        fill: #fff;
      }

      .cls-1, .cls-2 {
        stroke-width: 0px;
      }

      .cls-2 {
        fill: #ff2d20;
      }
    </style>
  </defs>
  <rect class="cls-2" width="250" height="250"/>
  <path class="cls-1" d="m171.82,93.81c-6.24,0-11.31,5.07-11.31,11.31s5.07,11.31,11.31,11.31,11.31-5.07,11.31-11.31-5.07-11.31-11.31-11.31Zm0,19.62c-4.58,0-8.31-3.73-8.31-8.31s3.73-8.31,8.31-8.31,8.31,3.73,8.31,8.31-3.73,8.31-8.31,8.31Z"/>
  <path class="cls-1" d="m167.23,81.04c-.83,0-1.5.67-1.5,1.5s.67,1.5,1.5,1.5c11.42,0,17.05,2.49,19.44,8.58.23.59.8.95,1.4.95.18,0,.37-.03.55-.1.77-.3,1.15-1.17.85-1.94-3.62-9.24-13.27-10.49-22.23-10.49Z"/>
  <path class="cls-1" d="m158.24,69.39l18.1-48.6h17.08c-.83,0-1.5-.67-1.5-1.5s.67-1.5,1.5-1.5h-18.13c-.63,0-1.19.39-1.41.98l-19.4,52.08c-.07.19-.1.39-.09.58.6-.66,1.22-1.32,1.86-1.95.54-.54,1.39-.56,1.98-.09Z"/>
  <path class="cls-1" d="m191.93,78.28c0-.83.67-1.5,1.5-1.5-17.46,0-29.88-3.99-34.68-5.83-.07.24-.17.48-.36.67-.58.58-1.13,1.16-1.68,1.76,4.22,1.74,17.35,6.4,36.73,6.4-.83,0-1.5-.67-1.5-1.5Z"/>
  <path class="cls-1" d="m194.93,78.28c0,.83-.67,1.5-1.5,1.5,19.38,0,32.5-4.66,36.73-6.4-.54-.6-1.1-1.19-1.68-1.76-.19-.19-.3-.42-.36-.67-4.8,1.84-17.22,5.83-34.69,5.83.83,0,1.5.67,1.5,1.5Z"/>
  <path class="cls-1" d="m194.93,19.3c0,.83-.67,1.5-1.5,1.5h17.09l18.1,48.6c.59-.47,1.43-.45,1.98.09.64.64,1.26,1.29,1.86,1.95,0-.19-.02-.39-.09-.58l-19.4-52.08c-.22-.59-.78-.98-1.41-.98h-18.13c.83,0,1.5.67,1.5,1.5Z"/>
  <circle class="cls-1" cx="193.43" cy="78.28" r="1.5"/>
  <circle class="cls-1" cx="193.43" cy="19.3" r="1.5"/>
  <path class="cls-1" d="m191.93,157.72c0-.83.67-1.5,1.5-1.5-12.71,0-24.31-4.81-33.1-12.71.27.73-.05,1.55-.76,1.88-.35.17-.7.35-1.05.52,9.29,8.27,21.52,13.31,34.9,13.31-.83,0-1.5-.67-1.5-1.5Z"/>
  <path class="cls-1" d="m158.38,69.49s-.1-.06-.14-.09l-.44,1.18c.27.11.59.24.94.37.14-.5.03-1.06-.36-1.45Z"/>
  <path class="cls-1" d="m159.36,142.61c-9.53-9.04-15.5-21.81-15.5-35.95,0-12.42,4.54-24.15,12.84-33.28-.86-.35-1.36-.59-1.46-.64-.51-.25-.82-.75-.84-1.29-6.41,7.09-10.69,15.63-12.53,24.86l.98-.21c.81-.17,1.61.34,1.78,1.15.17.81-.34,1.61-1.15,1.78l-2.13.46c-.32,2.36-.49,4.75-.49,7.17,0,3.7.39,7.31,1.12,10.8l1.5.32c.81.17,1.33.97,1.15,1.78-.15.7-.77,1.18-1.47,1.18-.1,0-.21-.01-.32-.03l-.07-.02c2.45,8.81,7.13,16.71,13.41,23.02.7-.35,1.4-.7,2.1-1.04.35-.16.72-.18,1.06-.07Z"/>
  <path class="cls-1" d="m155.24,72.73c.1.05.6.28,1.46.64.54-.6,1.1-1.19,1.68-1.76.19-.19.3-.42.36-.67-.35-.14-.67-.26-.94-.37l.44-1.18c-.59-.47-1.43-.45-1.98.09-.64.64-1.26,1.29-1.86,1.95.02.54.33,1.04.84,1.29Z"/>
  <path class="cls-1" d="m114.86,111.62c-1.91-.41-2.59-1.99-2.59-3.21s.68-2.8,2.59-3.21l26.49-5.71c.15-1.07.31-2.13.52-3.18l-27.65,5.96c-2.97.64-4.96,3.11-4.96,6.14s1.99,5.51,4.96,6.14l28.55,6.15c-.3-1.07-.57-2.15-.8-3.24l-27.12-5.84Z"/>
  <path class="cls-1" d="m143.49,99.03c.81-.17,1.33-.97,1.15-1.78-.17-.81-.97-1.32-1.78-1.15l-.98.21c-.21,1.05-.38,2.11-.52,3.18l2.13-.46Z"/>
  <path class="cls-1" d="m143.17,120.75c.69,0,1.31-.48,1.47-1.18.17-.81-.34-1.61-1.15-1.78l-1.5-.32c.23,1.09.5,2.17.8,3.24l.07.02c.11.02.21.03.32.03Z"/>
  <path class="cls-1" d="m113.74,217.56c0-30.36,17.54-58.35,44.79-71.65-.8-.71-1.58-1.44-2.33-2.19-26.45,13.37-43.84,40.19-45.34,69.7.32-.08.64-.16.95-.25.79-.24,1.63.21,1.87,1.01.24.79-.21,1.63-1.01,1.87-.63.19-1.27.34-1.91.47,0,.35-.02.7-.02,1.05,0,11.51,2.37,22.47,6.64,32.44h3.29c-4.44-9.92-6.93-20.89-6.93-32.44Z"/>
  <path class="cls-1" d="m159.36,142.61c.32.3.64.61.97.91-.01-.04-.02-.08-.04-.11-.19-.4-.54-.68-.93-.79Z"/>
  <path class="cls-1" d="m160.33,143.51c-.33-.3-.65-.6-.97-.91-.34-.1-.72-.09-1.06.07-.71.33-1.41.68-2.1,1.04.75.76,1.53,1.48,2.33,2.19.35-.17.7-.35,1.05-.52.71-.33,1.03-1.16.76-1.88Z"/>
  <path class="cls-1" d="m226.52,143.51c-8.78,7.89-20.39,12.71-33.1,12.71.83,0,1.5.67,1.5,1.5s-.67,1.5-1.5,1.5c13.39,0,25.61-5.04,34.91-13.31-.35-.17-.7-.35-1.05-.52-.71-.33-1.03-1.16-.76-1.88Z"/>
  <path class="cls-1" d="m228.11,70.94c.35-.14.67-.26.94-.37l-.44-1.18s-.1.05-.14.09c-.4.39-.5.95-.36,1.45Z"/>
  <path class="cls-1" d="m231.61,72.73c-.1.05-.6.28-1.46.64,8.3,9.13,12.84,20.86,12.84,33.28,0,14.14-5.96,26.91-15.5,35.95.34-.1.72-.09,1.06.08.71.33,1.41.68,2.1,1.04,9.47-9.51,15.33-22.61,15.33-37.06,0-13.14-4.79-25.54-13.54-35.21-.02.54-.33,1.04-.84,1.29Z"/>
  <path class="cls-1" d="m228.62,69.39l.44,1.18c-.27.11-.59.24-.94.37.07.24.17.48.36.67.58.58,1.13,1.16,1.68,1.76.86-.35,1.36-.59,1.46-.64.51-.25.82-.75.84-1.29-.6-.66-1.22-1.32-1.86-1.95-.54-.54-1.39-.56-1.98-.09Z"/>
  <circle class="cls-1" cx="193.43" cy="157.72" r="1.5"/>
  <path class="cls-1" d="m226.56,143.4s-.03.07-.04.11c.33-.3.65-.6.97-.91-.4.12-.74.39-.93.79Z"/>
  <path class="cls-1" d="m228.33,145.91c8.16,3.99,15.46,9.28,21.67,15.58v-4.19c-5.69-5.37-12.18-9.96-19.34-13.58-.75.76-1.53,1.48-2.33,2.19Z"/>
  <path class="cls-1" d="m227.49,142.61c-.32.3-.64.61-.97.91-.27.73.05,1.55.76,1.88.35.17.7.35,1.05.52.8-.71,1.58-1.44,2.33-2.19-.7-.35-1.4-.7-2.1-1.04-.35-.16-.72-.18-1.06-.08Z"/>
  <path class="cls-1" d="m74.66,135.64v19.83c1.04.18,2.05.46,3,.86v-20.69c0-.19-.04-.37-.1-.54h-2.79c-.07.17-.1.35-.1.54Z"/>
  <path class="cls-1" d="m62.34,135.64c0-.19-.04-.37-.1-.54h-2.79c-.07.17-.1.35-.1.54v20.7c.95-.4,1.96-.69,3-.86v-19.83Z"/>
  <path class="cls-1" d="m74.66,203.37v46.63h3v-47.49c-.95.4-1.96.69-3,.86Z"/>
  <path class="cls-1" d="m59.34,202.51v47.49h3v-46.63c-1.04-.18-2.05-.46-3-.86Z"/>
  <path class="cls-1" d="m83.59,192.88c.83,0,1.5.67,1.5,1.5,0,.08,0,.16,0,.24.51-1.42.8-2.94.8-4.53v-21.32c0-5.58-3.4-10.37-8.23-12.43v.43c0,.83-.67,1.5-1.5,1.5s-1.5-.67-1.5-1.5v-1.29c-.74-.13-1.49-.21-2.27-.21h-7.79c-.77,0-1.53.08-2.27.21v1.29c0,.83-.67,1.5-1.5,1.5s-1.5-.67-1.5-1.5v-.43c-4.83,2.06-8.23,6.85-8.23,12.43v21.32c0,5.58,3.4,10.37,8.23,12.43v-.43c0-.83.67-1.5,1.5-1.5s1.5.67,1.5,1.5v1.29c.74.13,1.49.21,2.27.21h7.79c.77,0,1.53-.08,2.27-.21v-1.29c0-.83.67-1.5,1.5-1.5s1.5.67,1.5,1.5v.43c1.88-.8,3.54-2.03,4.87-3.54-.29-1.48-.44-3.01-.44-4.59,0-.83.67-1.5,1.5-1.5Zm-11.19,7.7h-7.79c-5.79,0-10.5-4.71-10.5-10.5v-21.32c0-5.79,4.71-10.5,10.5-10.5h7.79c5.79,0,10.5,4.71,10.5,10.5v21.32c0,5.79-4.71,10.5-10.5,10.5Z"/>
  <path class="cls-1" d="m74.66,156.76c0,.83.67,1.5,1.5,1.5s1.5-.67,1.5-1.5v-.43c-.95-.4-1.96-.69-3-.86v1.29Z"/>
  <path class="cls-1" d="m60.84,158.26c.83,0,1.5-.67,1.5-1.5v-1.29c-1.04.18-2.05.46-3,.86v.43c0,.83.67,1.5,1.5,1.5Z"/>
  <path class="cls-1" d="m76.16,200.58c-.83,0-1.5.67-1.5,1.5v1.29c1.04-.18,2.05-.46,3-.86v-.43c0-.83-.67-1.5-1.5-1.5Z"/>
  <path class="cls-1" d="m60.84,200.58c-.83,0-1.5.67-1.5,1.5v.43c.95.4,1.96.69,3,.86v-1.29c0-.83-.67-1.5-1.5-1.5Z"/>
  <path class="cls-1" d="m92.6,209.71c-3.39-2.53-7.43-7.19-7.51-15.09-.58,1.62-1.45,3.09-2.56,4.35,1.03,5.3,3.88,9.87,8.28,13.15,4.27,3.18,9.76,4.89,15.12,4.89,1.63,0,3.25-.17,4.82-.49.01-1.03.05-2.07.1-3.09-6.1,1.49-13.15.08-18.25-3.71Z"/>
  <path class="cls-1" d="m112.67,216.04c.79-.24,1.24-1.07,1.01-1.87-.24-.79-1.08-1.24-1.87-1.01-.31.09-.63.17-.95.25-.05,1.03-.09,2.06-.1,3.09.65-.13,1.29-.28,1.91-.47Z"/>
  <path class="cls-1" d="m85.09,194.38c0-.83-.67-1.5-1.5-1.5s-1.5.67-1.5,1.5c0,1.58.16,3.11.44,4.59,1.11-1.27,1.98-2.74,2.56-4.35,0-.08,0-.16,0-.24Z"/>
  <path class="cls-1" d="m60.84,134.14c.64,0,1.18.4,1.4.96h6.27c-.83,0-1.5-.67-1.5-1.5s.67-1.5,1.5-1.5h-15.55l7.12-26.74h-2.79c-.1,0-.21-.01-.3-.03l-7.42,27.89c-.12.45-.02.93.26,1.3.28.37.72.59,1.19.59h8.44c.22-.56.76-.96,1.4-.96Z"/>
  <path class="cls-1" d="m60.84,134.14c-.64,0-1.18.4-1.4.96h2.79c-.22-.56-.76-.96-1.4-.96Z"/>
  <path class="cls-1" d="m76.93,105.35l7.12,26.74h-15.55c.83,0,1.5.67,1.5,1.5s-.67,1.5-1.5,1.5h6.26c.22-.56.76-.96,1.4-.96s1.18.4,1.4.96h8.45c.47,0,.91-.22,1.19-.59.28-.37.38-.85.26-1.3l-7.42-27.89c-.1.02-.2.03-.31.03h-2.79Z"/>
  <path class="cls-1" d="m76.16,134.14c-.64,0-1.18.4-1.4.96h2.79c-.22-.56-.76-.96-1.4-.96Z"/>
  <circle class="cls-1" cx="68.5" cy="133.6" r="1.5"/>
  <path class="cls-1" d="m59.97,89.46L33.13,14.46h21.7c-.83,0-1.5-.67-1.5-1.5s.67-1.5,1.5-1.5h-23.83c-.49,0-.95.24-1.23.64s-.35.91-.19,1.37l27.23,76.07c.15-.05.3-.08.46-.08h2.69Z"/>
  <polygon class="cls-1" points="58.92 92.46 58.91 92.46 58.92 92.46 58.92 92.46"/>
  <path class="cls-1" d="m81.16,11.96s.07-.07.1-.11c-.04.03-.07.07-.1.11Z"/>
  <path class="cls-1" d="m80.99,12.2s.05-.09.08-.13c-.03.04-.06.08-.08.13Z"/>
  <path class="cls-1" d="m81.61,11.62s.09-.05.14-.06c-.05.02-.1.04-.14.06Z"/>
  <path class="cls-1" d="m81.89,11.52s.09-.02.14-.03c-.05,0-.1.02-.14.03Z"/>
  <path class="cls-1" d="m81.37,11.77s.08-.06.13-.09c-.04.03-.09.06-.13.09Z"/>
  <polygon class="cls-1" points="78.09 92.46 78.09 92.46 78.08 92.46 78.09 92.46"/>
  <path class="cls-1" d="m82.68,11.51c.8.22,1.27,1.05,1.04,1.85l-.3,1.1h5.76l.2-.82c.19-.81,1-1.31,1.81-1.11.81.19,1.3,1,1.11,1.81l-.03.13h11.61l-26.84,75h2.69c.16,0,.32.03.46.08L107.41,13.46c.17-.46.1-.97-.19-1.37s-.74-.64-1.23-.64h-23.72s-.06,0-.09,0c.16,0,.32,0,.49.05Z"/>
  <path class="cls-1" d="m80.86,12.48c.02-.05.04-.11.06-.16-.02.05-.04.1-.06.16Z"/>
  <path class="cls-1" d="m77.58,92.37c-.78-.28-1.19-1.14-.91-1.92l.36-.99h-6.47l-.68,1.58c-.24.57-.8.91-1.38.91-.2,0-.4-.04-.59-.12-.76-.33-1.11-1.21-.78-1.97l.17-.4h-1.41c.12.81-.42,1.57-1.23,1.7-.08.01-.17.02-.25.02-.72,0-1.35-.52-1.48-1.25l-.08-.47h-2.87l.36.99c.28.78-.13,1.64-.91,1.92-.17.06-.34.09-.5.09h19.16c-.17,0-.34-.03-.5-.09Z"/>
  <path class="cls-1" d="m59.3,102.4c.8.21,1.28,1.03,1.06,1.84l-.3,1.11h5.62l.05-.29c.14-.82.92-1.37,1.73-1.23.75.12,1.27.78,1.25,1.52h8.23l-.3-1.11c-.21-.8.26-1.62,1.06-1.84.79-.21,1.62.26,1.83,1.06l.49,1.85c.68-.14,1.19-.74,1.19-1.47v-12.89c0-.67-.44-1.22-1.04-1.42l-.69,1.92c-.22.61-.79.99-1.41.99h.13v9.89h-19.45v-9.89h.14c-.61,0-1.19-.38-1.41-.99l-.69-1.93c-.6.2-1.04.75-1.04,1.42v12.89c0,.72.51,1.33,1.2,1.47l.49-1.85c.21-.8,1.04-1.28,1.83-1.06Z"/>
  <path class="cls-1" d="m60.07,105.35l.3-1.11c.21-.8-.26-1.62-1.06-1.84-.8-.21-1.62.26-1.83,1.06l-.49,1.85c.1.02.2.03.3.03h2.79Z"/>
  <path class="cls-1" d="m77.7,102.4c-.8.21-1.28,1.03-1.06,1.84l.3,1.11h2.79c.1,0,.21-.01.31-.03l-.49-1.85c-.21-.8-1.04-1.28-1.83-1.06Z"/>
  <path class="cls-1" d="m58.91,92.46h0c.17,0,.34-.03.5-.09.78-.28,1.19-1.14.91-1.92l-.36-.99h-2.69c-.16,0-.32.03-.46.08l.69,1.93c.22.61.79.99,1.41.99Z"/>
  <path class="cls-1" d="m77.03,89.46l-.36.99c-.28.78.13,1.64.91,1.92.17.06.34.09.5.09h0c.61,0,1.19-.38,1.41-.99l.69-1.92c-.15-.05-.3-.08-.46-.08h-2.69Z"/>
  <path class="cls-1" d="m62.3,69.3l-9.84-43.02c-.18-.81-.99-1.31-1.8-1.13-.81.19-1.31.99-1.13,1.8l9.84,43.02c.16.69.78,1.17,1.46,1.17.11,0,.22-.01.33-.04.81-.19,1.31-.99,1.13-1.8Z"/>
  <path class="cls-1" d="m80.78,56.42c.12.03.23.04.35.04.68,0,1.29-.46,1.46-1.15l9.67-40.85h-3.08l-9.51,40.15c-.19.81.31,1.61,1.11,1.81Z"/>
  <path class="cls-1" d="m92.29,14.32c.19-.81-.31-1.61-1.11-1.81-.81-.2-1.61.31-1.81,1.11l-.2.82h3.08l.03-.13Z"/>
  <path class="cls-1" d="m81.07,12.07s.06-.07.09-.11c-.03.04-.06.07-.09.11Z"/>
  <path class="cls-1" d="m80.92,12.32s.04-.08.07-.12c-.02.04-.05.08-.07.12Z"/>
  <path class="cls-1" d="m81.27,11.86s.07-.06.1-.09c-.04.03-.07.06-.1.09Z"/>
  <path class="cls-1" d="m81.5,11.68s.08-.04.11-.06c-.04.02-.08.04-.11.06Z"/>
  <path class="cls-1" d="m58.78,12.96c0,.83-.67,1.5-1.5,1.5h16.69l-.72,25.65c-.02.76.53,1.41,1.28,1.53.08.01.15.02.22.02.66,0,1.26-.44,1.44-1.1l7.23-26.09h-1.14c-.83,0-1.5-.67-1.5-1.5,0-.17.03-.33.09-.48,0,.03-.02.05-.03.08l-4.24,15.31.42-14.86c.01-.41-.14-.8-.42-1.09-.28-.29-.67-.45-1.08-.45h-18.23c.83,0,1.5.67,1.5,1.5Z"/>
  <path class="cls-1" d="m81.75,11.56s.09-.03.13-.04c-.04.01-.09.03-.13.04Z"/>
  <path class="cls-1" d="m82.03,11.48c.05,0,.11-.01.16-.02-.05,0-.11,0-.16.02Z"/>
  <path class="cls-1" d="m53.33,12.96c0,.83.67,1.5,1.5,1.5h2.45c.83,0,1.5-.67,1.5-1.5s-.67-1.5-1.5-1.5h-2.45c-.83,0-1.5.67-1.5,1.5Z"/>
  <path class="cls-1" d="m82.28,14.46h1.14l.3-1.1c.22-.8-.25-1.62-1.04-1.85-.16-.05-.33-.06-.49-.05-.05,0-.11,0-.16.02-.05,0-.1.02-.14.03-.04.01-.09.03-.13.04-.05.02-.1.04-.14.06-.04.02-.08.04-.11.06-.04.03-.09.06-.13.09-.04.03-.07.06-.1.09-.04.03-.07.07-.1.11-.03.04-.06.07-.09.11-.03.04-.06.08-.08.13-.02.04-.05.08-.07.12-.02.05-.04.1-.06.16-.05.15-.09.31-.09.48,0,.83.67,1.5,1.5,1.5Z"/>
  <path class="cls-1" d="m78.68,66.86c-.77-.33-1.64.02-1.97.78l-9.41,21.82h3.27l8.9-20.63c.33-.76-.02-1.64-.78-1.97Z"/>
  <path class="cls-1" d="m67.13,89.85c-.33.76.02,1.64.78,1.97.19.08.4.12.59.12.58,0,1.13-.34,1.38-.91l.68-1.58h-3.27l-.17.4Z"/>
  <path class="cls-1" d="m64.35,80.3c-.14-.82-.92-1.37-1.73-1.23-.82.14-1.37.91-1.23,1.73l1.45,8.66h3.04s0-.02,0-.02l-1.53-9.13Z"/>
  <path class="cls-1" d="m62.93,89.93c.12.73.76,1.25,1.48,1.25.08,0,.17,0,.25-.02.81-.14,1.35-.9,1.23-1.7h-3.04l.08.47Z"/>
  <path class="cls-1" d="m64.16,123.59c.08.01.17.02.25.02.72,0,1.35-.52,1.48-1.25l2.81-16.79c.01-.07.01-.14.01-.21h-3.02l-2.76,16.51c-.14.82.42,1.59,1.23,1.73Z"/>
  <path class="cls-1" d="m67.46,103.83c-.81-.14-1.59.42-1.73,1.23l-.05.29h3.02c.02-.74-.5-1.39-1.25-1.52Z"/>
</svg>