<?xml version="1.0" encoding="UTF-8"?>
<svg id="Layer_1" data-name="Layer 1" xmlns="http://www.w3.org/2000/svg" viewBox="0 0 246.9 240.47">
  <defs>
    <style>
      .cls-1, .cls-2 {
        stroke-width: 0px;
      }

      .cls-2 {
        fill: red;
      }
    </style>
  </defs>
  <g>
    <path class="cls-2" d="m229.62,94.64l-4.48-.08-1.44-1.91,2.58-6.6-10.43-26.9-7.76-1.54-.48,4.6-5.07,2.87-5.84-2.97-5.94,2.3-8.62,2.2,2.97-7.09-10.05-2.49-.77,4.5-5.74,3.73-.19,2.39-2.39,2.97-2.11,2.68.67,8.52-4.4-9.19-3.26-2.01,2.11,9-6.32-1.44-2.01,3.26-11.3,3.83-3.64,3.45-3.93-3.45h3.83l1.72-2.01-9-5.46-7.18,1.05-3.16,4.4-.96,4.98-4.79,3.06-1.44,5.36,5.65.29,3.16,1.53,1.63-5.65,3.16-6.99,3.83.48-3.35,4.69,2.97,3.45,3.64.96-5.46,1.72-1.24,4.5-5.65.57-6.51,1.05-3.45,3.54-6.32,1.44,3.45,5.07-9.77,1.44v5.27l7.08,1.91,4.79-5.74,9.29-2.2,1.82,5.65-1.15,2.3,4.98-1.82-2.39-6.99h3.35l3.54,7.18,3.64-4.88,1.44,4.4,7.37,1.72-2.87,5.81-9.57-3.41-1.98,3.41-9.22-2.07-5.17-3.54-5.74,2.97-9.96,6.03-4.4,12.93,10.92,4.12,12.16,1.91,3.16,2.11.29,4.79,3.73,6.03-1.53,8.62,2.97,8.81.67,4.02,9.38-2.97,6.61-5.65,2.58-6.03,4.98-2.68-2.11-9.96,11.01-13.21-7.95-.48-9.48-13.98,7.18,5.27,2.58,5.84,10.44-.29,5.17-6.22-8.71-1.53-2.58-6.03,10.82,4.5,7.66.86,6.7,7.66,2.49,8.52,3.26,2.49,1.05-10.34,6.03-3.73,4.4-2.78,1.53,6.03,6.61,4.6,9.19,1.63v-4.6l-5.46-6.51,9.1-2.11,6.61-5.46-1.72-2.68-5.94-8.52,6.42-1.53,4.31,1.15,1.72-5.65,4.12-3.93,1.41-2-3.54-9.12Zm-85.1,21.56l-6.22-.86-5.07-2.11,2.2-2.2h6.22l3.35,2.87-.48,2.3Zm9.1,3.73l-2.58-2.78-2.49-6.13,4.98-2.2v3.73l1.34,2.49,2.49,4.02-3.73.86Z"/>
    <polyline class="cls-2" points="148.55 75.32 145.68 73.02 148.55 65.55"/>
    <polygon class="cls-2" points="101.35 95.33 106.42 101.65 103.88 103.75 100.68 100.5 98.95 95.9 101.35 95.33"/>
    <polygon class="cls-2" points="62.76 59.04 62.09 64.4 68.12 67.08 65.11 77.33 65.63 85.47 72.62 94.47 74.73 89.97 86.41 83.55 94.26 78.38 94.26 67.66 98.09 60.48 100.68 56.55 91.39 49.27 72.72 53.87 62.76 59.04"/>
    <polygon class="cls-2" points="50.99 51.57 51.6 51.19 60.08 45.92 70.13 46.98 70.23 51.57 60.61 55.59 52.23 64.5 50.41 67.37 44.76 65.55 45.91 60 50.99 59.42 46.96 55.79 50.41 51.67 50.99 51.57"/>
    <polygon class="cls-2" points="44.76 68.52 41.22 73.98 44.19 76.75 40.84 81.54 42.75 83.07 48.78 77.04 52.61 80.01 46.29 84.32 49.74 87.29 52.61 89.49 59.41 85.18 60.85 83.26 57.02 75.32 53 71.01 44.76 68.52"/>
    <path class="cls-2" d="m25.52,76.66h9l2.59-10.44,1.91,1.15-1.44,13.12,2.78,4.21-8.62,1.72-.77,5.17,4.21,5.36,2.01,3.06,3.64-1.72,3.54-8.23,2.68-1.53,8.52,7.47,4.4,6.13-1.15,4.02-7.09,2.11-2.3,2.2-3.45,5.07-5.94,4.4-4.98,4.6-.96,4.98-6.13-3.45-6.03,1.31h-5.23c.1-11.55,1.76-37.28,8.78-50.71Z"/>
    <polyline class="cls-2" points="48.71 198.14 53.67 189.83 61.52 182.65 62.09 174.13 70.71 170.77 71.95 162.35 75.11 160.53 63.43 153.35 59.41 149.71 53.09 144.64 46.2 146.74 39.97 142.43 35.95 146.46 34.22 145.27 29.35 141.96 25.33 140.23 25.9 133.91 18.62 138.41 23.99 142.53 30.5 144.25 35 147.51 31.93 152.68 30.97 156.89 39.88 169.63 40.84 176.71 40.84 189.37"/>
    <path class="cls-2" d="m170.96,220.4l-6.9,1.12-8.04-1.34-6.41.48-7.95-1.53-7.85-2.49-4.79,1.15-6.51,1.72h-11.39l-3.35-1.72-18-1.72-6.32,1.24-17.71-7.37c15.96,23.59,79.91,29.33,105.23,10.46Z"/>
    <path class="cls-2" d="m181.44,26.98l-6.94-.78-2.87,3.54-4.4,3.06-4.98,3.26-3.35-1.24-7.76-1.53-9,1.05-8.04-.29-10.34-1.53-9.77-2.01-6.89,1.15-2.49-5.84-27.76-2.39c21.7-13.82,62.65-17.36,104.6,3.56Z"/>
    <path class="cls-2" d="m122.99,58.66c-.29.1-8.04,1.91-8.04,1.91l.48,6.13,1.63,1.91,4.98-1.24.19-2.78.77-5.94Z"/>
    <polygon class="cls-2" points="160.23 48.7 162.72 54.25 169.13 55.02 172.39 54.25 160.23 48.7"/>
    <polygon class="cls-2" points="201.78 51.86 196.61 55.02 200.25 57.03 203.32 54.45 201.78 51.86"/>
    <path class="cls-2" d="m152.95,164.84s-.86,4.88-1.15,5.17-.38,5.36-.38,5.36l5.46,2.3.48-5.65-4.4-7.18Z"/>
    <polyline class="cls-2" points="224.67 162.54 214.61 161.97 205.42 158.71 200.35 149.52 210.21 153.83 212.03 160.05"/>
    <polygon class="cls-2" points="219.69 147.6 213.08 152.49 217.1 157.47 220.17 157.47 219.69 147.6"/>
    <polyline class="cls-2" points="214.8 183.6 213.66 176.04 213.08 172.31 220.17 170.39 223.04 170.39"/>
  </g>
  <path class="cls-1" d="m122.89,228.61c-61.01,0-110.65-49.64-110.65-110.65S61.88,7.31,122.89,7.31s110.65,49.64,110.65,110.65-49.64,110.65-110.65,110.65Zm0-218.3C63.53,10.31,15.24,58.6,15.24,117.96s48.29,107.65,107.65,107.65,107.65-48.29,107.65-107.65S182.25,10.31,122.89,10.31Z"/>
  <path class="cls-1" d="m120.75,182.58c-.27,0-.54-.08-.78-.22-.37-.23-.62-.6-.7-1.03l-.65-3.9-2.93-8.7c-.08-.24-.1-.49-.05-.74l1.43-8.05-3.43-5.54c-.13-.21-.21-.45-.22-.7l-.24-4.04-2.27-1.51-11.83-1.86c-.1-.02-.2-.04-.3-.08l-10.92-4.12c-.76-.29-1.15-1.12-.89-1.89l4.4-12.93c.11-.33.34-.62.64-.8l9.96-6.03s.06-.03.09-.05l5.74-2.97c.49-.25,1.08-.21,1.54.1l4.93,3.38,7.87,1.77,1.43-2.46c.36-.63,1.12-.9,1.8-.66l8.32,2.97,1.44-2.92-5.53-1.29c-.51-.12-.92-.5-1.08-1l-.54-1.65-1.91,2.56c-.31.42-.81.64-1.34.6-.52-.05-.98-.36-1.21-.83l-3.13-6.34h-.32l1.71,5c.26.77-.14,1.62-.9,1.9l-4.98,1.82c-.58.21-1.22.05-1.63-.41s-.5-1.12-.22-1.67l.88-1.75-1.21-3.75-7.45,1.77-4.47,5.36c-.38.45-.97.64-1.54.49l-7.08-1.92c-.65-.18-1.11-.77-1.11-1.45v-5.27c0-.74.55-1.38,1.28-1.48l7.4-1.09-2.1-3.1c-.28-.41-.34-.93-.15-1.39s.58-.8,1.06-.91l5.89-1.34,3.14-3.22c.22-.23.52-.38.84-.43l6.51-1.05,4.72-.48.97-3.51c.13-.49.51-.88.99-1.03l1.08-.34-2.91-3.38c-.12-.14-.21-.29-.27-.46l-.82,1.82-1.6,5.54c-.12.42-.43.77-.83.96-.41.18-.87.17-1.27-.02l-2.89-1.4-5.34-.27c-.45-.02-.87-.25-1.14-.62s-.35-.83-.24-1.27l1.44-5.36c.1-.36.33-.67.64-.88l4.25-2.72.84-4.35c.04-.21.13-.42.25-.59l3.16-4.4c.24-.33.6-.55,1-.61l7.18-1.05c.34-.05.7.02,1,.2l9,5.46c.38.23.63.61.7,1.05.05.31,0,.63-.14.9.06-.03.12-.06.19-.08l10.79-3.66,1.73-2.8c.34-.55.98-.82,1.61-.67l3.98.9-1.56-6.66c-.14-.59.09-1.21.58-1.56.49-.35,1.15-.38,1.66-.06l3.26,2.01c.24.15.44.37.56.63l.92,1.93-.04-.49c-.03-.38.08-.75.32-1.04l4.22-5.3.16-1.93c.04-.46.29-.88.68-1.14l5.19-3.38.66-3.85c.07-.41.31-.77.66-1,.35-.23.78-.3,1.18-.2l10.05,2.49c.43.11.78.39.98.78.2.39.21.85.04,1.25l-1.8,4.31,5.61-1.43,5.85-2.27c.4-.16.84-.13,1.22.06l5.12,2.6,3.7-2.09.4-3.83c.04-.42.26-.8.6-1.05.34-.25.77-.34,1.18-.26l7.76,1.54c.81.16,1.34.95,1.18,1.76-.16.81-.94,1.34-1.76,1.18l-6.14-1.22-.31,2.96c-.05.48-.33.91-.75,1.15l-5.07,2.87c-.44.25-.97.26-1.42.03l-5.24-2.66-5.31,2.06c-.05.02-.11.04-.17.05l-8.62,2.2c-.55.14-1.13-.04-1.51-.47-.37-.43-.47-1.04-.25-1.56l2.29-5.47-6.79-1.68-.5,2.91c-.07.41-.31.78-.66,1.01l-5.12,3.33-.13,1.66c-.02.3-.14.59-.33.82l-4.13,5.17.62,7.94c.06.72-.41,1.38-1.11,1.57-.7.19-1.43-.15-1.74-.8l-3.9-8.13,1.16,4.94c.12.5-.03,1.03-.4,1.4-.36.37-.89.52-1.4.41l-5.27-1.2-1.45,2.34c-.18.3-.46.52-.79.63l-10.99,3.72-3.4,3.22c-.56.53-1.44.55-2.02.04l-3.93-3.45c-.47-.41-.63-1.07-.41-1.66.22-.58.78-.97,1.4-.97h3.14l.12-.14-7.03-4.26-6.02.88-2.6,3.62-.9,4.66c-.08.4-.32.76-.66.98l-4.3,2.75-.81,3.01,3.8.19c.2,0,.4.06.58.15l1.56.75,1.13-3.94c.02-.07.04-.14.07-.2l3.16-6.99c.27-.6.9-.95,1.55-.87l3.83.48c.52.07.98.4,1.19.89.21.48.15,1.04-.15,1.47l-2.67,3.73,1.9,2.2,3.19.84c.65.17,1.1.75,1.12,1.41.02.67-.41,1.27-1.05,1.47l-4.68,1.48-1.03,3.72c-.16.6-.68,1.03-1.29,1.09l-5.65.57-5.93.96-3.1,3.19c-.2.21-.46.35-.74.42l-4.17.95,2.21,3.26c.29.43.34.97.13,1.45-.21.47-.64.81-1.15.88l-8.48,1.25v2.82l5.05,1.36,4.17-5c.21-.25.49-.42.81-.5l9.29-2.2c.76-.18,1.53.25,1.77,1l1.82,5.65c.02.07.04.13.05.2l.46-.17-1.92-5.6c-.16-.46-.08-.96.2-1.36.28-.39.74-.63,1.22-.63h3.35c.57,0,1.09.32,1.35.84l2.46,4.98,2.17-2.92c.33-.45.89-.67,1.45-.58.55.09,1.01.48,1.18,1.02l1.17,3.6,6.55,1.53c.45.1.82.41,1.01.82s.19.9-.01,1.31l-2.68,5.41c.24.03.48.12.69.28l7.18,5.27c.21.16.38.36.48.6l2.18,4.92,8.75-.24,3.08-3.71-6.17-1.08c-.5-.09-.92-.42-1.12-.89l-2.58-6.03c-.24-.56-.12-1.21.31-1.65.43-.43,1.08-.56,1.64-.33l10.62,4.42,7.45.84c.37.04.71.22.96.5l6.7,7.66c.14.16.25.36.31.57l2.35,8.05.73.56.78-7.67c.05-.46.31-.88.7-1.12l10.42-6.5c.4-.26.91-.3,1.36-.12.45.18.78.56.9,1.02l1.39,5.49,5.88,4.09,7.11,1.26v-2.26l-5.11-6.09c-.33-.4-.44-.95-.27-1.44.17-.5.58-.87,1.08-.99l8.75-2.03,5.31-4.38-1-1.56-5.91-8.48c-.28-.41-.35-.93-.17-1.39.18-.46.57-.81,1.05-.92l6.42-1.53c.24-.06.49-.05.74,0l2.91.78,1.3-4.26c.08-.25.21-.47.4-.65l4.01-3.82,1.32-1.88c.48-.68,1.41-.84,2.09-.37.68.48.84,1.41.37,2.09l-1.41,2c-.06.08-.12.16-.19.22l-3.83,3.65-1.61,5.27c-.23.77-1.04,1.22-1.82,1.01l-3.94-1.05-3.91.93,4.68,6.72,1.75,2.73c.41.64.28,1.48-.31,1.97l-6.61,5.46c-.18.15-.39.25-.62.3l-6.71,1.56,3.89,4.64c.23.27.35.61.35.96v4.6c0,.44-.2.86-.54,1.15-.34.29-.79.41-1.23.33l-9.19-1.63c-.21-.04-.42-.12-.59-.25l-6.61-4.6c-.3-.21-.51-.51-.6-.86l-1.02-4.03-2.66,1.68-5.41,3.35-.98,9.61c-.05.54-.4,1.01-.9,1.22-.5.21-1.08.15-1.51-.19l-3.25-2.49c-.25-.19-.44-.46-.53-.77l-2.4-8.2-6.1-6.97-6.1-.69c.49.11.9.47,1.08.95.18.5.09,1.06-.25,1.48l-5.17,6.22c-.28.33-.68.53-1.11.54l-9.19.25,6.46.39c.57.03,1.06.38,1.29.9.22.52.14,1.12-.22,1.55l-10.54,12.65,1.96,9.25c.14.65-.17,1.32-.76,1.63l-4.52,2.43-2.38,5.55c-.09.21-.23.4-.4.55l-6.61,5.65c-.15.13-.33.23-.52.29l-9.38,2.97c-.15.05-.3.07-.45.07Zm-2.09-14.45l2.85,8.45c.03.08.04.15.06.23l.39,2.32,7.44-2.35,6.11-5.22,2.45-5.71c.13-.31.37-.57.67-.73l3.99-2.15-1.87-8.86c-.09-.45.02-.92.32-1.27l9.11-10.93-4.99-.3c-.46-.03-.89-.27-1.15-.66l-9.48-13.98c-.23-.33-.3-.73-.24-1.1-.12-.01-.25-.04-.37-.08l-8.4-3-1.35,2.33c-.33.57-.99.86-1.63.71l-9.22-2.07c-.19-.04-.36-.12-.52-.23l-4.43-3.04-4.9,2.53-9.45,5.72-3.76,11.04,9.41,3.55,12.01,1.89c.21.03.42.11.6.23l3.16,2.11c.39.26.64.69.67,1.16l.26,4.41,3.54,5.71c.19.31.27.69.2,1.05l-1.46,8.24Zm34.84-40.29l6.47,1.14-7.28-3.03.81,1.89Zm-31.17-43.38l-.44.98.68-.95-.24-.03Z"/>
  <path class="cls-1" d="m141.53,114.7c-.07,0-.14,0-.21-.01l-6.22-.86c-.13-.02-.25-.05-.37-.1l-5.07-2.11c-.46-.19-.8-.6-.9-1.09-.1-.49.06-1,.41-1.35l2.2-2.2c.28-.28.66-.44,1.06-.44h6.22c.36,0,.7.13.98.36l3.35,2.87c.42.36.6.91.49,1.44l-.48,2.3c-.15.7-.77,1.19-1.47,1.19Zm-5.83-3.82l4.64.64v-.06s-2.24-1.93-2.24-1.93h-5.05l-.18.18,2.82,1.17Z"/>
  <path class="cls-1" d="m150.62,118.43c-.41,0-.81-.17-1.1-.48l-2.58-2.78c-.12-.13-.22-.29-.29-.46l-2.49-6.13c-.3-.75.04-1.61.78-1.94l4.98-2.2c.46-.21,1-.16,1.42.12.42.28.68.75.68,1.26v3.36l1.16,2.16,2.44,3.94c.25.41.29.92.11,1.37-.19.45-.58.78-1.05.88l-3.73.86c-.11.03-.22.04-.34.04Zm-1.3-5.1l1.81,1.94.85-.2-1.39-2.24-1.39-2.57c-.12-.22-.18-.46-.18-.71v-1.43l-1.54.68,1.84,4.52Z"/>
  <path class="cls-1" d="m227.41,93.16h-.03l-5.27-.1c-.46,0-.9-.23-1.17-.6l-1.44-1.92c-.31-.42-.39-.96-.2-1.45l4.17-10.66c.3-.77,1.17-1.15,1.94-.85.77.3,1.15,1.17.85,1.94l-3.86,9.88.5.66,4.53.08c.83.02,1.49.7,1.47,1.53-.02.82-.68,1.47-1.5,1.47Z"/>
  <path class="cls-1" d="m145.55,73.82c-.33,0-.66-.11-.94-.33l-2.87-2.3c-.51-.41-.7-1.1-.46-1.71l2.87-7.47c.3-.77,1.17-1.15,1.94-.86.77.3,1.16,1.17.86,1.94l-2.48,6.44,2.02,1.61c.65.52.75,1.46.24,2.11-.3.37-.73.56-1.17.56Z"/>
  <path class="cls-1" d="m100.88,102.25c-.39,0-.78-.15-1.07-.45l-3.21-3.25c-.15-.15-.26-.33-.34-.53l-1.72-4.6c-.15-.4-.12-.85.08-1.23.2-.38.56-.66.97-.75l2.39-.58c.57-.14,1.16.07,1.52.52l5.07,6.32c.51.64.42,1.57-.21,2.09l-2.54,2.11c-.28.23-.62.35-.96.35Zm-1.92-5.58l2.02,2.05.34-.28-3.19-3.97.83,2.21Z"/>
  <path class="cls-1" d="m69.62,92.97c-.46,0-.9-.21-1.18-.58l-6.99-9c-.18-.24-.29-.52-.31-.82l-.53-8.14c-.01-.18,0-.35.06-.52l2.64-8.98-4.83-2.15c-.6-.27-.96-.9-.88-1.56l.67-5.36c.06-.49.36-.92.8-1.15l9.96-5.17c.11-.05.22-.1.33-.12l18.67-4.6c.44-.11.92,0,1.28.28l9.29,7.28c.62.48.76,1.35.33,2.01l-2.55,3.87-3.62,6.79v10.35c0,.5-.25.98-.67,1.25l-7.85,5.17s-.07.04-.1.06l-11.25,6.18-1.9,4.06c-.22.47-.67.8-1.19.86-.06,0-.11,0-.17,0Zm-5.52-11.06l5.2,6.7,1.07-2.28c.13-.29.36-.53.64-.68l11.63-6.39,7.12-4.69v-9.92c0-.25.06-.49.18-.71l3.83-7.18s.04-.08.07-.12l1.83-2.77-7.62-5.97-17.79,4.38-9.1,4.72-.43,3.48,5.02,2.23c.69.31,1.04,1.07.83,1.79l-2.94,9.99.48,7.41Z"/>
  <path class="cls-1" d="m47.41,65.87c-.15,0-.31-.02-.46-.07l-5.65-1.82c-.73-.23-1.16-.98-1.01-1.73l1.15-5.55c.13-.63.66-1.11,1.3-1.19l1.77-.2-1.56-1.41c-.6-.54-.66-1.46-.14-2.08l3.45-4.12c.23-.27.55-.46.9-.52l.28-.05,8.84-5.49c.28-.17.62-.25.95-.22l10.05,1.05c.75.08,1.33.71,1.34,1.46l.1,4.6c.01.62-.35,1.18-.92,1.42l-9.33,3.9-8.06,8.57-1.74,2.75c-.28.44-.76.7-1.27.7Zm-3.91-4.33l3.26,1.05,1.2-1.89c.05-.08.11-.16.17-.23l8.38-8.9c.14-.15.32-.27.51-.36l8.68-3.63-.05-2.25-8.23-.86-8.66,5.38c-.17.1-.35.17-.54.21h-.03s-2.16,2.59-2.16,2.59l2.95,2.67c.44.4.6,1.01.42,1.57-.18.56-.67.96-1.26,1.03l-3.99.45-.66,3.17Zm4.48-12.96h0,0Z"/>
  <path class="cls-1" d="m49.61,87.99c-.32,0-.64-.1-.91-.31l-2.87-2.2-3.51-3.02c-.35-.3-.54-.76-.52-1.22.03-.47.27-.89.65-1.16l4.62-3.15-1.16-.9-5.1,5.1c-.54.54-1.4.59-2,.11l-1.92-1.53c-.62-.49-.75-1.38-.29-2.03l2.6-3.72-2.02-1.89c-.53-.5-.63-1.3-.23-1.91l3.54-5.46c.36-.56,1.05-.81,1.69-.62l8.23,2.49c.25.08.48.22.66.41l4.02,4.31c.1.11.19.24.25.37l3.83,7.95c.24.5.18,1.1-.15,1.55l-1.44,1.92c-.11.14-.24.27-.4.37l-6.8,4.31c-.25.16-.52.23-.8.23Zm-3.86-6.53l1.97,1.69,1.97,1.51,5.68-3.6.72-.97-3.33-6.92-3.59-3.84-6.77-2.05-2.24,3.46,2.05,1.92c.55.51.63,1.34.2,1.96l-1.57,2.24,3.88-3.88c.54-.53,1.38-.59,1.98-.12l3.83,2.97c.38.29.59.75.58,1.23s-.26.92-.65,1.19l-4.7,3.21Z"/>
  <path class="cls-1" d="m31.13,128.01c-.25,0-.51-.06-.74-.19l-5.63-3.17-5.47,1.19c-.1.02-.21.03-.32.03h-5.23c-.83,0-1.5-.67-1.5-1.5s.67-1.5,1.5-1.5h5.07l5.88-1.27c.36-.08.73-.02,1.05.16l4.31,2.43.56-2.93c.06-.31.22-.6.46-.82l4.98-4.6s.08-.07.12-.1l5.73-4.25,3.3-4.86c.06-.09.13-.17.2-.24l2.3-2.2c.17-.17.38-.29.61-.35l6.3-1.87.72-2.53-3.88-5.4-7.59-6.65-1.32.75-3.34,7.77c-.14.33-.41.61-.74.76l-3.64,1.72c-.67.32-1.49.09-1.9-.53l-1.98-3.01-4.17-5.31c-.25-.32-.36-.74-.3-1.15l.77-5.17c.09-.63.57-1.13,1.19-1.25l6.43-1.29-1.55-2.35c-.19-.29-.28-.64-.24-.99l.74-6.77-.86,3.46c-.17.67-.77,1.14-1.46,1.14h-9c-.83,0-1.5-.67-1.5-1.5s.67-1.5,1.5-1.5h7.83l2.3-9.3c.11-.46.44-.84.88-1.02.44-.18.94-.15,1.35.1l1.92,1.15c.5.3.78.87.72,1.45l-1.38,12.58,2.48,3.76c.28.42.32.94.13,1.4-.19.46-.6.79-1.09.89l-7.58,1.52-.52,3.49,3.81,4.85s.05.07.07.1l1.29,1.97,1.95-.92,3.32-7.71c.13-.3.35-.55.63-.71l2.68-1.53c.56-.32,1.25-.25,1.73.17l8.52,7.47c.09.08.16.16.23.25l4.4,6.13c.27.37.35.85.22,1.29l-1.15,4.02c-.14.49-.52.88-1.01,1.03l-6.74,2-1.92,1.84-3.36,4.94c-.09.14-.21.26-.35.36l-5.87,4.36-4.56,4.21-.86,4.5c-.09.47-.4.88-.84,1.08-.2.09-.42.14-.63.14Z"/>
  <path class="cls-1" d="m45.71,196.64c-.26,0-.53-.07-.77-.21-.71-.42-.94-1.34-.52-2.06l4.96-8.31c.08-.13.17-.24.28-.34l7.41-6.78.53-7.92c.04-.58.41-1.09.95-1.3l7.8-3.03,1.12-7.56c.07-.45.34-.85.74-1.08l.98-.56-9.53-5.86c-.08-.05-.15-.1-.22-.17l-4.02-3.64-5.63-4.52-6.13,1.88c-.44.13-.92.06-1.29-.2l-5.19-3.6-3.14,3.14c-.16.16-.36.28-.56.35-.03.14-.09.27-.17.4l-2.94,4.97-.76,3.33,8.52,12.19c.14.2.22.42.26.66l.96,7.09c0,.07.01.13.01.2v12.66c0,.83-.67,1.5-1.5,1.5s-1.5-.67-1.5-1.5v-12.56l-.9-6.62-8.7-12.44c-.24-.35-.33-.78-.23-1.19l.96-4.21c.04-.15.09-.3.17-.43l2.37-3.99-3.17-2.29-6.24-1.65c-.19-.05-.37-.14-.53-.26l-5.36-4.12c-.39-.3-.61-.77-.58-1.26.02-.49.29-.94.71-1.2l7.28-4.5c.48-.3,1.09-.3,1.58,0,.48.3.76.84.71,1.41l-.48,5.23,3.02,1.29c.09.04.17.08.25.14l5.58,3.8,3.14-3.14c.51-.51,1.32-.58,1.91-.17l5.63,3.9,6.2-1.89c.47-.14.99-.04,1.38.26l6.32,5.08,3.99,3.6,11.56,7.11c.45.28.72.77.71,1.3s-.29,1.01-.75,1.28l-2.53,1.46-1.14,7.71c-.08.53-.44.98-.94,1.18l-7.73,3-.51,7.57c-.03.39-.2.75-.48,1.01l-7.69,7.03-4.84,8.12c-.28.47-.78.73-1.29.73Zm-27.45-61.09l2.6,2c-.03-.14-.04-.29-.03-.45l.3-3.33-2.87,1.78Z"/>
  <path class="cls-1" d="m161.06,220.02c-.08,0-.17,0-.25-.02l-7.87-1.31-6.24.47c-.13,0-.27,0-.4-.02l-7.95-1.53c-.06-.01-.11-.03-.17-.04l-7.45-2.36-4.38,1.05-6.48,1.71c-.12.03-.25.05-.38.05h-11.39c-.24,0-.47-.06-.69-.17l-3.1-1.59-17.5-1.68-6.1,1.2c-.29.06-.59.03-.87-.09l-17.71-7.37c-.76-.32-1.13-1.2-.81-1.96.32-.76,1.2-1.13,1.96-.81l17.29,7.2,5.87-1.16c.14-.03.29-.04.43-.02l18,1.72c.19.02.37.07.54.16l3.03,1.56h10.83l6.32-1.67,4.82-1.16c.27-.06.54-.05.8.03l7.77,2.46,7.66,1.48,6.22-.46c.12,0,.24,0,.36.02l7.8,1.3,6.65-1.08c.83-.14,1.59.42,1.72,1.24.13.82-.42,1.59-1.24,1.72l-6.9,1.12c-.08.01-.16.02-.24.02Z"/>
  <path class="cls-1" d="m159.24,34.56c-.18,0-.35-.03-.52-.09l-3.24-1.2-7.41-1.46-8.77,1.03c-.07,0-.15.01-.23,0l-8.04-.29c-.06,0-.11,0-.17-.02l-10.34-1.53-9.58-1.97-6.62,1.1c-.67.11-1.35-.25-1.63-.89l-2.14-5.01-26.87-2.32c-.83-.07-1.44-.8-1.37-1.62s.8-1.43,1.62-1.37l27.76,2.39c.55.05,1.03.4,1.25.91l2.03,4.75,5.73-.95c.18-.03.37-.03.55.01l9.77,2.01,10.17,1.5,7.85.28,8.89-1.04c.15-.02.31-.01.46.02l7.75,1.53c.08.02.16.04.23.07l2.64.98,4.34-2.84,4.19-2.92,2.74-3.38c.32-.4.82-.61,1.33-.55l6.94.78c.82.09,1.42.83,1.32,1.66-.09.82-.83,1.42-1.66,1.32l-6.12-.69-2.36,2.9c-.09.11-.19.21-.31.29l-4.4,3.06-5.01,3.28c-.25.16-.53.24-.82.24Z"/>
  <path class="cls-1" d="m114.05,67.12c-.43,0-.85-.19-1.14-.53l-1.63-1.92c-.21-.24-.33-.54-.35-.85l-.48-6.13c-.06-.74.43-1.41,1.15-1.58,2.87-.67,7.57-1.78,7.95-1.89.48-.14,1.02-.02,1.4.3.38.33.58.82.52,1.32l-.77,5.94-.18,2.69c-.04.65-.5,1.19-1.13,1.35l-4.98,1.25c-.12.03-.24.04-.36.04Zm-.17-4.02l.71.83,3.02-.75.12-1.69.5-3.86c-1.13.27-2.7.64-4.68,1.11l.34,4.36Z"/>
  <path class="cls-1" d="m166.13,53.52c-.06,0-.12,0-.18-.01l-6.42-.77c-.52-.06-.98-.39-1.19-.88l-2.49-5.55c-.25-.57-.13-1.24.31-1.68.44-.44,1.11-.56,1.68-.3l12.16,5.55c.58.27.93.87.87,1.51-.06.64-.53,1.17-1.15,1.31l-3.25.77c-.11.03-.23.04-.34.04Zm-5.39-3.65l2.7.32-3.22-1.47.51,1.15Z"/>
  <path class="cls-1" d="m197.25,55.53c-.25,0-.5-.06-.73-.19l-3.64-2.01c-.47-.26-.76-.75-.77-1.28-.01-.53.26-1.03.72-1.31l5.17-3.16c.34-.21.75-.27,1.14-.18.39.1.72.35.93.69l1.53,2.58c.37.63.24,1.44-.32,1.91l-3.06,2.58c-.28.23-.62.35-.97.35Zm-.66-3.58l.48.26,1.3-1.1-.11-.19-1.67,1.02Z"/>
  <path class="cls-1" d="m153.88,176.17c-.2,0-.4-.04-.58-.12l-5.46-2.3c-.57-.24-.93-.8-.92-1.41.09-4.64.29-5.68.6-6.14.2-.64.63-2.82.95-4.63.11-.61.58-1.1,1.2-1.21.61-.12,1.23.16,1.56.69l4.4,7.18c.17.27.24.59.22.91l-.48,5.65c-.04.48-.31.91-.72,1.16-.24.14-.51.22-.78.22Zm-3.93-4.78l2.61,1.1.26-3.1-2.13-3.47c-.22.98-.38,1.47-.52,1.75-.09.55-.17,2.16-.22,3.73Zm-.08-3.32h0s0,0,0,0Z"/>
  <path class="cls-1" d="m221.67,161.04s-.06,0-.09,0l-10.05-.57c-.14,0-.28-.04-.42-.08l-9.19-3.25c-.35-.12-.63-.37-.81-.69l-5.07-9.19c-.31-.56-.23-1.26.21-1.74.43-.47,1.12-.62,1.71-.36l9.86,4.31c.41.18.71.53.84.95l1.82,6.22c.04.12.05.24.06.36l1.38.49,9.84.56c.83.05,1.46.76,1.41,1.58-.05.8-.71,1.41-1.5,1.41Zm-18.21-6.55l3.63,1.29-1.13-3.85-5.17-2.26,2.66,4.83Z"/>
  <path class="cls-1" d="m217.17,155.97h-3.06c-.45,0-.88-.21-1.17-.56l-4.02-4.98c-.26-.32-.37-.73-.32-1.13.05-.41.27-.77.6-1.02l6.61-4.88c.44-.33,1.04-.39,1.53-.15.5.24.83.73.86,1.28l.48,9.86c.02.41-.13.81-.41,1.11-.28.3-.68.47-1.09.47Zm-2.35-3h.77l-.27-5.49-3.09,2.29,2.59,3.2Z"/>
  <path class="cls-1" d="m225.21,146.11c-.46,0-.92-.21-1.21-.62l-3.54-4.88c-.08-.12-.15-.24-.2-.38l-1.63-4.6c-.28-.78.13-1.64.91-1.92.79-.27,1.64.13,1.92.91l1.55,4.39,3.42,4.71c.49.67.34,1.61-.33,2.09-.27.19-.57.29-.88.29Z"/>
  <path class="cls-1" d="m227.41,121.21c-.46,0-.91-.21-1.2-.6-.5-.66-.36-1.6.3-2.1l4.61-3.46c.67-.5,1.6-.36,2.1.3.5.66.36,1.6-.3,2.1l-4.61,3.46c-.27.2-.59.3-.9.3Z"/>
  <path class="cls-1" d="m211.8,182.11c-.73,0-1.37-.53-1.48-1.27l-1.72-11.29c-.12-.75.35-1.48,1.09-1.68l7.08-1.92c.13-.03.26-.05.39-.05h2.87c.83,0,1.5.67,1.5,1.5s-.67,1.5-1.5,1.5h-2.67l-5.6,1.51,1.52,9.97c.12.82-.44,1.58-1.26,1.71-.08.01-.15.02-.23.02Z"/>
</svg>