<?xml version="1.0" encoding="UTF-8"?>
<svg id="Layer_1" data-name="Layer 1" xmlns="http://www.w3.org/2000/svg" viewBox="0 0 677.07 533.16">
  <defs>
    <style>
      .cls-1, .cls-2 {
        stroke-width: 0px;
      }

      .cls-2 {
        fill: #ff2d20;
      }
    </style>
  </defs>
  <path class="cls-2" d="m261.38,215.15c12.22,5.55,16.62,5.48,16.62,5.48,0,0,6.7-9.23,3.54-15.11-13.12,1.68-20.16,9.63-20.16,9.63Z"/>
  <path class="cls-2" d="m346.75,220.73c9.29,3.89,11.78,1.98,11.78,1.98,0,0,6.61-8.62-1.24-14.07s-14.46,8.01-10.53,12.1Z"/>
  <path class="cls-2" d="m364.07,313.32c2.59-2.81,0-20.88,0-20.88-12.89-7.76-25.98,6.22-19.53,16.56s18.88,4.28,18.88,4.28"/>
  <path class="cls-2" d="m275.54,285.07c-12.93,1.45-16.19,14.84-9.25,21.93s18.92,4.5,22.17.57,1.63-24.13-12.93-22.5Z"/>
  <path class="cls-2" d="m491.8,219.33s11.86-28.21,8.9-44.68c-2.96-16.47-21.53-64.34-75.73-81.96s-135.31-3.75-173.11,18.38-73.95,64.18-73.95,64.18c3.18,8.69,1.81,61.69-1.99,68.33-3.8,7.91,1,18.77,1,18.77,0,0,22.72,51.7,48,65.48s93.45,54.51,165.19,46.53,89.62-49.84,89.62-49.84c0,0-3.26-23.76,2.87-31.29,6.13-7.53,10.92-27.26,9.19-38.94-1.72-11.68,0-34.98,0-34.98Zm-17.23,5.11c6.32,50.36-10.68,74.66-22.79,87.21-12.11,12.55-103.79,42.36-178.03,7.38s-82.2-103.22-82.2-103.22c0,0-11.96-24.13,36.7-63.18s127.35-41.96,182.36-27.96c21.06,5.36,57.06,27.19,71.16,46.34,14.09,19.15.27,39.45-7.2,53.43Z"/>
  <path class="cls-2" d="m578.8,440.69c-45.06-24.26-56.04-30.38-56.04-30.38,0,0-19.4-25.79-26.17-22.72-6.77,3.06-22.72,11.87-22.72,11.87,0,0-14.81-22.28-16.79-23.14-1.98-.86-41.04,14.97-69.89,21.48-28.85,6.51-62.43,15.25-62.43,15.25,0,0-4.85,11.55-27.51,12.83-22.66,1.28-25.34-8.43-25.34-8.43l-53.17-17.74-1.72,43.03-29.49-24.32s-6.14-44.3,1.43-53.17c-20.01,4.34-47.58,14.97-47.58,14.97,0,0-10.51-16.56-26.8-7.37s-17.82,24.89-17.82,24.89c0,0-28.72,3.26-45,15.7-16.28,12.45-43.66,90.06-43.66,90.06,0,0,6.45,11.74,20.87,17.11,14.43,5.36,241.89,6.89,253.9,7.53l12.01.64,22.9-1.66-20.54-93h36.19l3.7,91.34s59.3-.38,76.53-2.87c17.23-2.49,114.51-5.49,133.28-1.21,18.77,4.28,104.17-6.83,104.17-6.83,0,0-27.26-49.6-72.32-73.85Zm-426.32,64.09l-14.74-37.91s-10.98-45.83-4.47-52.11c6.51-6.28,14.17-3.17,18.64,15.09l14.17,72.06-13.6,2.87Z"/>
  <path class="cls-1" d="m376.53,60.68c-.55,0-1.08-.3-1.34-.83-.37-.74-.07-1.64.67-2.01,1.22-.61,2.29-3.84,2-8.83-.52-8.72-5.09-19.54-13.89-22.69-11.54-4.13-18.93-1.54-25.45.75-1.95.69-3.8,1.33-5.67,1.78-1.67.4-4.25.8-7.51,1.31-13.31,2.08-38.07,5.95-67.01,18.8-.76.34-1.64,0-1.98-.76-.34-.76,0-1.64.76-1.98,29.3-13.01,54.32-16.92,67.76-19.02,3.2-.5,5.72-.89,7.27-1.26,1.72-.41,3.5-1.03,5.37-1.69,6.65-2.33,14.91-5.24,27.46-.75,10.14,3.63,15.28,15.34,15.88,25.33.36,6-1,10.37-3.65,11.7-.22.11-.44.16-.67.16Z"/>
  <path class="cls-1" d="m466.72,96.49c-.41,0-.81-.16-1.11-.49-.51-.56-.52-1.4-.05-1.97.34-2.08-4.98-12.32-14.63-26.14-6.72-9.62-12.54-11.28-22.26-13.37-3.45-.75-6.21-2.58-10.03-5.11-7.78-5.17-19.54-12.97-49.83-20.48-.8-.2-1.29-1.01-1.1-1.82s1.01-1.29,1.82-1.1c30.79,7.63,43.29,15.93,50.76,20.89,3.54,2.35,6.1,4.05,9,4.68,10.15,2.19,16.74,4.06,24.08,14.59,1.99,2.85,7.03,10.22,10.88,17.12,4.89,8.77,4.92,11.46,3.46,12.8-.29.26-.65.39-1.01.39Zm-1.01-2.61h0s0,0,0,0Z"/>
  <path class="cls-1" d="m510.63,274.7c-.09,0-.19,0-.28-.03l-13.53-2.55c-.64-.12-1.13-.65-1.21-1.29l-1.53-12.77c-.06-.51.14-1.01.54-1.34.4-.32.93-.43,1.42-.27.08.02,2.32.69,4.6-.69,2.28-1.37,3.86-4.28,4.7-8.63,2.61-13.58,4.65-47.03-.92-59.89-.95-2.19-1.6-5.64-2.42-10-4.34-23.11-14.51-77.24-106.8-95.6-44.63-8.88-92.19-1.92-133.92,19.59-37.58,19.37-66.14,48.79-76.44,78.73,1.35,24.31-.19,43.45-1.24,52.71-2.62,23.32-5.77,23.56-6.8,23.64-.1,0-.2.01-.31.01-4.12,0-13.21-5.75-14.06-12.56-.67-5.32-2.51-21.61-2.96-25.66l-3.22-1.21c-.59-.22-.97-.78-.97-1.4v-8.94c0-.51.26-.99.7-1.27l8.89-5.62c-.58-4.98-2.38-27.09,9.42-38.54,28.18-37.39,57.51-62.97,89.66-78.2,25.36-12.01,51.76-17.58,85.58-18.05,58.97-.83,103.92,13.93,133.6,43.85,29.19,29.43,29.42,68.86,29.3,74.3,6.91,8.23,11.26,32.8,6.58,53.22-4.78,20.87-6.85,36.97-6.87,37.13-.05.41-.27.78-.61,1.02-.26.19-.57.29-.88.29Zm-12.17-5.32l10.9,2.06c.64-4.57,2.76-18.6,6.71-35.84,4.88-21.31-.55-44.8-6.28-50.99-.28-.3-.42-.7-.4-1.1.02-.42,1.88-42.11-28.42-72.65-29.07-29.31-73.28-43.77-131.42-42.96-50.62.7-110.75,12.56-172.95,95.15-.05.06-.1.12-.16.18-12.07,11.59-8.53,36.75-8.49,37,.09.59-.18,1.17-.68,1.49l-9,5.69v7.07l3.11,1.17c.53.2.9.68.96,1.24.02.2,2.31,20.49,3.06,26.53.63,5.06,8.06,9.76,10.86,9.93,2.73-3.44,7.72-35.04,5.55-73.49-.01-.19.02-.38.08-.57,10.47-30.75,39.62-60.92,78-80.7,42.33-21.82,90.59-28.87,135.88-19.86,94.28,18.76,104.71,74.28,109.16,97.99.78,4.17,1.4,7.47,2.22,9.36,5.9,13.6,3.87,47.36,1.12,61.65-1.01,5.27-3.08,8.86-6.16,10.67-1.77,1.04-3.52,1.28-4.83,1.25l1.17,9.75Zm-323.06-107.24h0,0Z"/>
  <path class="cls-1" d="m180.07,157.57c-.09,0-.19,0-.28-.03-.81-.15-1.35-.94-1.19-1.75,10.5-55.34,35.66-77.02,47.75-87.43,2.65-2.29,4.75-4.09,5.48-5.29,3.26-5.38,15.02-22.42,29.23-15.9,3.92,1.8,6.43,4.97,7.44,9.44,1.86,8.19-2.08,18.54-4.1,20.97-.53.64-1.48.72-2.11.19-.64-.53-.72-1.48-.19-2.11,1.5-1.8,5.12-11.18,3.48-18.38-.8-3.51-2.74-5.99-5.76-7.38-11.95-5.48-22.47,9.89-25.41,14.73-.98,1.61-3.01,3.36-6.08,6.01-11.83,10.19-36.45,31.41-46.76,85.72-.14.72-.77,1.22-1.47,1.22Z"/>
  <path class="cls-1" d="m160.84,218.53c-.57,0-1.11-.33-1.37-.88-.34-.75-.01-1.64.74-1.99l10.87-4.96v-10.4l-4.1,1.54c-.77.29-1.64-.1-1.93-.88-.29-.78.1-1.64.88-1.93l6.13-2.3c.46-.17.97-.11,1.38.17.4.28.65.74.65,1.23v13.53c0,.59-.34,1.12-.88,1.36l-11.75,5.36c-.2.09-.41.14-.62.14Z"/>
  <path class="cls-1" d="m377.99,371.4c-31.43,0-68.5-6.99-103.53-19.68-76.06-27.55-97.12-95.04-97.98-97.91-.24-.79.21-1.63,1-1.87.79-.24,1.63.21,1.87,1,.84,2.8,21.47,68.91,96.13,95.95,38.76,14.04,79.99,21.04,113.12,19.22,44.42-2.45,74.98-19.58,90.82-50.91.2-.4.57-.68,1-.79,17.63-4.07,26.97-12.77,30.27-28.21,2.55-11.89-.48-13.56-.51-13.57.07.03.12.03.12.03l.65-2.93c1.01.22,5.89,2.1,2.67,17.1-3.49,16.31-13.62,25.96-31.85,30.35-16.44,31.97-47.73,49.44-93.01,51.93-3.5.19-7.1.29-10.77.29Z"/>
  <path class="cls-1" d="m495.1,314.09s-.08,0-.13,0c-.83-.07-1.44-.79-1.37-1.62.1-1.25,2.66-30.8,11.57-41.06.54-.63,1.49-.69,2.12-.15.63.54.69,1.49.15,2.12-8.27,9.53-10.82,39.05-10.84,39.34-.07.78-.72,1.38-1.49,1.38Z"/>
  <path class="cls-1" d="m370.95,337.94c-70.8,0-132.43-37.28-151.08-63.88-20.87-29.78-28.51-65.81-28.58-66.17-.04-.17-.04-.35-.02-.52,4.12-28.46,28.58-66.54,121.68-86.27,32.81-6.95,73.54-3.38,111.74,9.82,34.58,11.95,59.86,29.55,64.4,44.84,8.13,27.42-6.41,44.44-9.74,47.88,1.36,6.04,8.58,42.81-9.67,72.69-11.46,18.76-30.56,31.23-56.76,37.06-14.17,3.15-28.25,4.56-41.97,4.56Zm-176.66-130.41c.72,3.25,8.45,36.85,28.05,64.81,21.84,31.17,104,77.24,189.93,58.12,25.37-5.65,43.82-17.65,54.84-35.68,19.19-31.39,9.25-70.85,9.14-71.25-.14-.54.03-1.12.45-1.5.74-.66,18.06-16.63,9.52-45.43-8.7-29.34-100.83-67.8-172.63-52.58-91.11,19.32-115.19,56.01-119.3,83.5Z"/>
  <path class="cls-1" d="m367.53,347.74c-57.3,0-103.52-16.43-137.4-48.85-35.39-33.87-45.29-74.26-47.9-90.06-.07-.41.04-.82.28-1.15s.62-.54,1.03-.58l9.04-1c.82-.09,1.56.5,1.66,1.33.09.82-.5,1.56-1.33,1.66l-7.46.82c11.08,62.79,65.22,134.84,182.19,134.84.93,0,1.86,0,2.79-.01,47.57-.46,82.32-12.19,103.28-34.85,21.58-23.34,20.42-50.54,20.35-51.84l-5.25-36.97-10.65,3.52c-.79.26-1.63-.17-1.89-.95-.26-.79.17-1.63.95-1.89l12.36-4.08c.42-.14.88-.08,1.26.15s.63.62.69,1.06l5.51,38.81s0,.07.01.11c.08,1.18,1.78,29.3-21.09,54.08-21.53,23.33-57.03,35.39-105.5,35.87-.98,0-1.97.01-2.94.01Z"/>
  <path class="cls-1" d="m260.49,345.77c-.2,0-.4-.04-.59-.12-.76-.33-1.11-1.21-.78-1.97l3.68-8.5-16.19-7.23-2.52,6.97c-.28.78-1.14,1.18-1.92.9-.78-.28-1.18-1.14-.9-1.92l3.07-8.49c.14-.39.44-.71.82-.87.38-.16.82-.16,1.2,0l19.02,8.49c.75.33,1.09,1.21.77,1.97l-4.27,9.86c-.25.57-.8.9-1.38.9Z"/>
  <path class="cls-1" d="m264.76,347.74c-.16,0-.33-.03-.49-.08-.78-.27-1.2-1.13-.92-1.91l5.45-15.65-21.79-11.64-6.02,14.52c-.32.77-1.2,1.13-1.96.81-.77-.32-1.13-1.2-.81-1.96l6.65-16.04c.16-.39.48-.7.88-.84.4-.14.84-.11,1.21.09l24.38,13.02c.65.35.95,1.12.71,1.82l-5.87,16.87c-.22.62-.8,1.01-1.42,1.01Z"/>
  <path class="cls-1" d="m245.74,327.42s-.05,0-.08,0c-.83-.04-1.46-.75-1.42-1.58l.51-9.57c.04-.83.73-1.45,1.58-1.42.83.04,1.46.75,1.42,1.58l-.51,9.57c-.04.8-.71,1.42-1.5,1.42Z"/>
  <path class="cls-1" d="m264.01,335.58c-.47,0-.93-.22-1.22-.63-.48-.67-.32-1.61.35-2.09l6.62-4.71c.67-.48,1.61-.32,2.09.35.48.67.32,1.61-.35,2.09l-6.62,4.71c-.26.19-.57.28-.87.28Z"/>
  <path class="cls-1" d="m341.41,368.65c-.14,0-.29-.02-.43-.06-.79-.24-1.25-1.07-1.01-1.87l2.62-8.77c.08-.27.22-.51.42-.7h0s.05-.05.08-.07c0,0,0,0,0,0h0c.26-.21.59-.31.97-.33h0s.05,0,.07,0l23.74,1.4c.79.05,1.41.7,1.41,1.5v4.09c0,.42-.18.82-.49,1.11-.31.28-.72.43-1.15.39l-19.53-1.79c-.32-.03-.62-.16-.85-.37l-2.46-2.16-1.96,6.56c-.19.65-.79,1.07-1.44,1.07Zm7.46-8.05l17.41,1.59v-1.03l-17.98-1.06.57.5Z"/>
  <path class="cls-1" d="m365.1,371.41c-.2,0-.41-.04-.6-.13-.76-.33-1.1-1.22-.77-1.98l2.68-6.07c.33-.76,1.22-1.1,1.98-.77s1.1,1.22.77,1.98l-2.68,6.07c-.25.56-.8.89-1.37.89Z"/>
  <path class="cls-1" d="m344.67,369.93c-.25,0-.5-.06-.73-.19-.72-.4-.98-1.32-.58-2.04l3.57-6.38c.41-.72,1.32-.98,2.04-.58.72.4.98,1.32.58,2.04l-3.57,6.38c-.27.49-.78.77-1.31.77Z"/>
  <path class="cls-1" d="m370.72,355.51h-25.15c-.69,0-1.28-.47-1.45-1.12l-2.61-1.18c-.36-.16-.65-.47-.79-.84-.14-.37-.13-.79.04-1.15l2.55-5.6c.28-.61.94-.96,1.6-.86.67.1,1.18.64,1.26,1.31l.74,6.44h22.13l-.7-6.11c-.09-.82.5-1.57,1.32-1.66.81-.09,1.57.5,1.66,1.32l.89,7.78c.05.42-.09.85-.37,1.17-.28.32-.69.5-1.12.5Z"/>
  <path class="cls-1" d="m372.76,359.34c-.81,0-1.48-.65-1.5-1.46-.02-.83.63-1.52,1.46-1.54,19.67-.51,50.62-7.27,62.47-11.52.78-.28,1.64.12,1.92.91.28.78-.13,1.64-.91,1.92-12.32,4.41-43.14,11.16-63.4,11.69-.01,0-.03,0-.04,0Z"/>
  <path class="cls-1" d="m441.56,358.3c-.66,0-1.24-.43-1.43-1.06l-6.31-20.75c-.17-.57,0-1.19.46-1.58.45-.39,1.09-.47,1.63-.21,3.56,1.72,7.5,3.59,8.83,4.17,1.99-.91,9.74-4.74,15.75-7.74l-5.55-3.52c-.7-.44-.91-1.37-.46-2.07.44-.7,1.37-.91,2.07-.46l7.79,4.94c.46.29.72.8.7,1.34s-.34,1.02-.83,1.27c-11.9,5.95-16.34,8.11-18.12,8.9l-3.05,15.56c-.13.67-.71,1.17-1.4,1.21-.03,0-.05,0-.08,0Zm-3.88-19.41l3.57,11.72,1.81-9.21c-.99-.43-2.61-1.19-5.37-2.51Z"/>
  <path class="cls-1" d="m455.23,380.08c-.75,0-1.4-.56-1.49-1.33-.07-.63-1.7-15.63,3.38-31.96l4.98-15.96c.25-.79,1.08-1.23,1.88-.98.79.25,1.23,1.09.98,1.88l-4.98,15.96c-4.88,15.7-3.28,30.58-3.26,30.72.09.82-.5,1.57-1.32,1.66-.06,0-.11,0-.17,0Z"/>
  <path class="cls-1" d="m480.76,319.38s-.09,0-.14,0c-.82-.08-1.43-.81-1.35-1.63.9-9.65,6.09-24.09,6.32-24.7.28-.78,1.14-1.18,1.92-.9.78.28,1.18,1.14.9,1.92-.05.15-5.28,14.69-6.15,23.96-.07.78-.73,1.36-1.49,1.36Z"/>
  <path class="cls-1" d="m183.71,190.83c-.24,0-.48-.06-.7-.17-.73-.39-1.01-1.29-.63-2.03,22.39-42.45,80.23-65.13,80.81-65.36.77-.3,1.64.09,1.94.86.3.77-.09,1.64-.86,1.94-.57.22-57.38,22.51-79.24,63.96-.27.51-.79.8-1.33.8Z"/>
  <path class="cls-1" d="m265.4,137.89c-.78,0-1.44-.6-1.49-1.39l-1.66-22.83c-.05-.72.41-1.37,1.11-1.56l17.23-4.6c.43-.11.88-.03,1.24.21.36.25.6.64.64,1.08l2.24,21.29c.09.82-.51,1.56-1.34,1.65-.81.08-1.56-.51-1.65-1.34l-2.05-19.55-14.34,3.82,1.57,21.59c.06.83-.56,1.54-1.39,1.61-.04,0-.07,0-.11,0Z"/>
  <path class="cls-1" d="m451.78,133.06c-.24,0-.48-.06-.7-.17-58.22-30.8-123.6-18.93-124.25-18.81-.69.13-1.39-.24-1.66-.89l-3.54-8.44-26.32,5.44v5.86c0,.67-.44,1.26-1.08,1.44l-10.59,3.05c-.8.23-1.63-.23-1.86-1.03-.23-.8.23-1.63,1.03-1.86l9.51-2.74v-5.96c0-.71.5-1.33,1.2-1.47l28.72-5.94c.7-.15,1.41.23,1.69.89l3.56,8.48c9.27-1.47,70.25-9.66,125.01,19.31.73.39,1.01,1.29.62,2.03-.27.51-.79.8-1.33.8Z"/>
  <path class="cls-1" d="m466.33,154.12c-.83,0-1.5-.67-1.5-1.5v-28.95l-9.96-4.18-1.59,25.37c-.05.83-.75,1.46-1.59,1.4-.83-.05-1.46-.76-1.4-1.59l1.72-27.48c.03-.48.29-.92.71-1.18.41-.26.92-.3,1.37-.11l12.83,5.38c.56.23.92.78.92,1.38v29.95c0,.83-.67,1.5-1.5,1.5Z"/>
  <path class="cls-1" d="m490.05,220.57c-.17,0-.35-.03-.52-.09-.78-.29-1.18-1.15-.89-1.93,13.08-35.51,6.18-58.99-22.36-76.13-.71-.43-.94-1.35-.51-2.06.43-.71,1.35-.94,2.06-.51,29.61,17.78,37.12,43.12,23.63,79.74-.22.61-.8.98-1.41.98Z"/>
  <path class="cls-1" d="m501.57,258.45c-.83,0-1.5-.67-1.5-1.5v-49.36c0-.83.67-1.5,1.5-1.5h6.7c.83,0,1.5.67,1.5,1.5s-.67,1.5-1.5,1.5h-5.2v47.86c0,.83-.67,1.5-1.5,1.5Z"/>
  <path class="cls-1" d="m501.57,248.53c-.11,0-.22-.01-.33-.04l-5.09-1.15c-.67-.15-1.15-.73-1.17-1.42l-.87-27.57c-.02-.72.47-1.35,1.17-1.51l5.08-1.15c.81-.19,1.61.32,1.79,1.13.18.81-.32,1.61-1.13,1.79l-3.88.88.79,25.18,3.96.89c.81.18,1.32.99,1.13,1.79-.16.7-.78,1.17-1.46,1.17Z"/>
  <path class="cls-1" d="m264.01,309.63c-.37,0-.74-.13-1.03-.41-19.7-18.53-26.3-30.22-25.25-44.68.2-2.79.4-6.71.62-11.25.85-17.06,2.13-42.83,5.98-53.31,1.82-4.95,6.66-18.1,17.24-29.35,12.3-13.07,28.73-20.09,48.84-20.84,44.43-1.67,74.09,9.79,93.37,36.04,18.1,24.64,9.82,84.22-4.93,102.25-.52.64-1.47.73-2.11.21-.64-.52-.74-1.47-.21-2.11,12.79-15.64,22.69-74.25,4.84-98.57-18.64-25.38-47.51-36.44-90.84-34.81-30.71,1.15-52.03,17.38-63.37,48.23-3.69,10.04-4.96,35.54-5.8,52.42-.23,4.56-.42,8.5-.63,11.32-.85,11.78,2.77,22.01,24.32,42.28.6.57.63,1.52.07,2.12-.29.31-.69.47-1.09.47Z"/>
  <path class="cls-1" d="m363.31,337.98c-.47,0-.94-.22-1.23-.64-.47-.68-.31-1.61.37-2.09.17-.12,16.84-11.84,23.29-23.4.4-.72,1.32-.98,2.04-.58.72.4.98,1.32.58,2.04-6.79,12.16-23.49,23.9-24.2,24.39-.26.18-.56.27-.86.27Z"/>
  <path class="cls-1" d="m390.95,312.22c-13.6,0-28.01-2.47-28.85-2.62-.49-.09-.91-.41-1.12-.87s-.16-.99.11-1.41c.07-.12,7.28-11.58,2.73-18.9-.27-.44-.3-.98-.08-1.44s.67-.78,1.17-.84c33.8-4.02,54.18,3.59,55.03,3.92.46.18.81.58.92,1.06l2.49,10.72c.08.33.04.67-.1.98-.43.91-2.94,4.18-17.26,7.9-4.27,1.11-9.6,1.51-15.06,1.51Zm-26.22-5.23c6.84,1.04,28.56,3.93,40.53.82,10.59-2.75,14.05-5.16,15.02-6.03l-2.13-9.18c-3.84-1.27-22.43-6.72-50.75-3.72,2.58,6.63-.78,14.51-2.66,18.11Z"/>
  <path class="cls-1" d="m356.63,311.74c-4.37,0-9.12-1.6-12.33-6.76-3.24-5.19-2.31-11.82,2.3-16.51,3.91-3.98,11.31-6.93,19.28-2.13.71.43.94,1.35.51,2.06-.43.71-1.35.94-2.06.51-6.47-3.89-12.44-1.53-15.59,1.67-3.01,3.06-4.77,8.21-1.9,12.82,5.64,9.05,16.5,3.94,16.96,3.72.75-.36,1.64-.05,2,.7.36.74.05,1.64-.69,2-2.04,1-5.15,1.93-8.48,1.93Z"/>
  <path class="cls-1" d="m433.82,326.55s-.03,0-.05,0c-.16,0-16.15-.69-22.58-17.89-.29-.78.1-1.64.88-1.93.77-.29,1.64.1,1.93.88,5.71,15.26,19.29,15.92,19.87,15.95.83.03,1.47.72,1.45,1.55-.03.81-.69,1.45-1.5,1.45Z"/>
  <path class="cls-1" d="m440.4,323.3c-.11,0-.21-.01-.32-.03-.62-.13-15.23-3.46-23.13-17.69-.4-.72-.14-1.64.58-2.04.72-.4,1.64-.14,2.04.58,7.23,13.01,21.01,16.18,21.15,16.21.81.18,1.32.98,1.14,1.79-.15.7-.77,1.18-1.46,1.18Z"/>
  <path class="cls-1" d="m278.64,308.13c-4.9,0-9.27-1.72-12.39-4.9-3.74-3.81-4.98-9.56-3.17-14.65,1.93-5.43,6.91-9.1,13.32-9.82h0c5.81-.66,10.58,1.89,13.41,7.14,3.41,6.32,3.24,14.91.83,17.81-2.02,2.44-6.5,4.21-11.13,4.4-.3.01-.59.02-.88.02Zm-1.9-26.39c-5.32.6-9.26,3.45-10.82,7.84-1.43,4.02-.46,8.55,2.48,11.54,3.64,3.71,8.46,4.09,11,3.98,4.21-.18,7.69-1.8,8.95-3.32,1.38-1.66,1.83-8.91-1.17-14.47-2.28-4.22-5.79-6.09-10.44-5.58h0Z"/>
  <path class="cls-1" d="m247.55,290.18c-.72,0-1.35-.51-1.48-1.24-.14-.82.4-1.59,1.22-1.73l19.01-3.3c.82-.14,1.59.41,1.73,1.22.14.82-.4,1.59-1.22,1.73l-19.01,3.3c-.09.02-.17.02-.26.02Z"/>
  <path class="cls-1" d="m261.95,307.67c-.74,0-1.38-.54-1.48-1.3-.11-.82.46-1.58,1.28-1.69l9.13-1.25c.82-.11,1.58.46,1.69,1.28.11.82-.46,1.58-1.28,1.69l-9.13,1.25c-.07,0-.14.01-.21.01Z"/>
  <path class="cls-1" d="m372.88,278.41c-.74,0-1.38-.55-1.48-1.3-.02-.12-1.97-12.73-18.43-22.44-.71-.42-.95-1.34-.53-2.05.42-.71,1.34-.95,2.05-.53,17.78,10.5,19.8,24.05,19.87,24.62.11.82-.46,1.58-1.29,1.69-.07,0-.14.01-.2.01Z"/>
  <path class="cls-1" d="m259.91,277.76c-.74,0-1.38-.54-1.48-1.29-1.77-12.67,17.27-25.31,18.08-25.85.69-.46,1.62-.26,2.08.43.45.69.26,1.62-.43,2.08-.18.12-18.27,12.13-16.76,22.92.12.82-.46,1.58-1.28,1.69-.07,0-.14.01-.21.01Z"/>
  <path class="cls-1" d="m333.02,263.85c-3.83,0-8.58-2.12-8.79-2.21-.75-.34-1.09-1.23-.75-1.98.34-.76,1.23-1.09,1.98-.75.05.02,4.6,2.05,7.8,1.94.82-.03,2.43-1.03,3.46-3.17.8-1.68,2.18-6.25-2.44-12.43-.5-.66-.36-1.6.3-2.1.67-.49,1.6-.36,2.1.3,5.59,7.49,3.78,13.35,2.74,15.52-1.36,2.84-3.79,4.79-6.06,4.88-.12,0-.23,0-.35,0Z"/>
  <path class="cls-1" d="m316.26,263.94c-3.71,0-8.17-1.05-13.26-3.71-.73-.38-1.02-1.29-.63-2.03.39-.73,1.29-1.01,2.03-.63,9.6,5.03,16.5,3.59,19.5.84,2.35-2.16,2.87-5.4,1.4-8.89-.32-.76.04-1.64.8-1.96.77-.32,1.64.04,1.96.8,1.95,4.65,1.16,9.24-2.14,12.26-2.09,1.92-5.37,3.31-9.66,3.31Z"/>
  <path class="cls-1" d="m290.29,259.38c-.53,0-1.04-.28-1.32-.78-1.86-3.41-3.45-11.19,3.78-16.24.68-.47,1.61-.31,2.09.37.47.68.31,1.61-.37,2.09-6.82,4.76-3.02,12.05-2.86,12.36.39.73.12,1.64-.61,2.03-.23.12-.47.18-.71.18Z"/>
  <path class="cls-1" d="m323.63,239.59c-.79,0-1.45-.62-1.5-1.41-.04-.73-1.03-18.07,1.23-32.11.13-.82.9-1.38,1.72-1.24.82.13,1.37.9,1.24,1.72-2.21,13.71-1.21,31.29-1.2,31.46.05.83-.58,1.54-1.41,1.58-.03,0-.06,0-.09,0Z"/>
  <path class="cls-1" d="m359.29,201.94c-.08,0-.16,0-.24-.02-.24-.04-5.91-1-12.83-6.44-.65-.51-.76-1.46-.25-2.11.51-.65,1.45-.76,2.11-.25,6.26,4.92,11.4,5.83,11.46,5.84.82.14,1.37.91,1.23,1.72-.12.73-.75,1.26-1.48,1.26Z"/>
  <path class="cls-1" d="m373.31,202.7c-.12,0-.25-.01-.37-.05-.32-.08-7.91-2.04-14.42-6.5-.68-.47-.86-1.4-.39-2.08.47-.68,1.4-.86,2.08-.39,6.06,4.15,13.39,6.04,13.47,6.06.8.21,1.29,1.02,1.08,1.82-.17.68-.78,1.13-1.45,1.13Z"/>
  <path class="cls-1" d="m386.39,202.98s-.1,0-.15,0c-.23-.02-5.72-.6-12.66-4.87-.71-.43-.93-1.36-.49-2.06.44-.71,1.36-.93,2.06-.49,6.31,3.88,11.34,4.43,11.39,4.44.82.08,1.42.82,1.34,1.64-.08.77-.73,1.35-1.49,1.35Z"/>
  <path class="cls-1" d="m286.53,198.22c-.81,0-1.48-.65-1.5-1.47-.02-.83.64-1.51,1.47-1.53.06,0,6.02-.16,11.58-3.09.73-.39,1.64-.11,2.03.63.39.73.1,1.64-.63,2.03-6.22,3.27-12.65,3.43-12.92,3.43h-.03Z"/>
  <path class="cls-1" d="m276.82,198.01c-.75,0-1.4-.57-1.49-1.33-.09-.82.5-1.56,1.33-1.66.06,0,6.3-.76,12.07-4.7.68-.47,1.62-.29,2.08.39.47.68.29,1.62-.39,2.08-6.41,4.38-13.15,5.17-13.43,5.21-.06,0-.11,0-.17,0Z"/>
  <path class="cls-1" d="m270.42,198.21c-.59,0-1.15-.35-1.39-.93-.31-.77.06-1.64.82-1.96,0,0,2.16-.98,4.66-4.72.46-.69,1.39-.87,2.08-.41.69.46.87,1.39.41,2.08-3.02,4.52-5.72,5.71-6.02,5.83-.19.08-.38.11-.56.11Z"/>
  <path class="cls-1" d="m260.82,199.92c-.61,0-1.18-.37-1.4-.97-.29-.78.1-1.64.87-1.93.03-.01,3.45-1.34,6.72-4.54.59-.58,1.54-.57,2.12.02.58.59.57,1.54-.02,2.12-3.75,3.67-7.6,5.15-7.76,5.21-.17.07-.35.1-.53.1Z"/>
  <path class="cls-1" d="m300.76,220.83c-.7,0-1.33-.49-1.47-1.21-.47-2.36-2.17-8.92-4.29-10.96-.99-.95-7.85-2.65-16.08-1.51-6.11.85-14.36,3.49-18.95,11.27-.42.71-1.34.95-2.05.53-.71-.42-.95-1.34-.53-2.05,5.2-8.82,14.35-11.79,21.12-12.72,8.31-1.15,16.45.3,18.56,2.32,3.19,3.05,4.96,11.57,5.16,12.54.16.81-.36,1.6-1.18,1.76-.1.02-.2.03-.3.03Z"/>
  <path class="cls-1" d="m283.64,228.33c-4.38,0-9.62-.62-15.52-2.46-.79-.25-1.23-1.09-.98-1.88s1.08-1.23,1.88-.98c16.31,5.1,27.43.12,27.54.07.75-.35,1.64-.02,1.99.73.35.75.02,1.64-.72,1.99-.33.15-5.58,2.54-14.18,2.54Z"/>
  <path class="cls-1" d="m286.05,219.54c-4.82,0-12.06-1-22.58-4.52-.79-.26-1.21-1.11-.95-1.9.26-.79,1.11-1.21,1.9-.95,21.49,7.2,28.31,3.25,28.38,3.21.7-.43,1.62-.22,2.06.46.44.69.26,1.59-.41,2.05-.41.28-2.75,1.65-8.4,1.65Z"/>
  <path class="cls-1" d="m282.23,218.03c-.34,0-.67-.11-.95-.34-.64-.53-.73-1.47-.2-2.11,1.16-1.41,3.91-5.74,2.72-8.71-.31-.77.07-1.64.84-1.95.77-.31,1.64.07,1.95.84,2.09,5.23-2.97,11.47-3.19,11.73-.3.36-.73.55-1.16.55Z"/>
  <path class="cls-1" d="m343.87,222.23c-.08,0-.17,0-.26-.02-.82-.14-1.36-.92-1.22-1.73,1.66-9.6,2.28-13.19,9.35-13.88,15.68-1.52,25.59,4.39,32.15,8.31,1.84,1.1,3.43,2.05,4.75,2.59.77.31,1.14,1.19.82,1.96-.31.77-1.19,1.14-1.96.82-1.53-.62-3.21-1.63-5.15-2.79-6.22-3.71-15.62-9.32-30.33-7.89-4.44.43-4.94,1.28-6.68,11.4-.13.73-.76,1.25-1.48,1.25Z"/>
  <path class="cls-1" d="m365.51,222.14c-5.33,0-12.44-.64-20.37-3.04-.79-.24-1.24-1.08-1-1.87.24-.79,1.08-1.24,1.87-1,15.87,4.8,28.61,2.17,28.74,2.14.81-.18,1.61.34,1.78,1.15.17.81-.34,1.61-1.15,1.78-.29.06-4,.84-9.87.84Z"/>
  <path class="cls-1" d="m360.89,220.83c-.34,0-.68-.11-.96-.35-.64-.53-.72-1.48-.19-2.11.12-.15,3.02-3.81-.07-8.13-.48-.67-.33-1.61.35-2.09.67-.48,1.61-.32,2.09.35,3.56,4.99,1.51,9.89-.07,11.79-.3.36-.72.54-1.15.54Z"/>
  <path class="cls-1" d="m370.02,230.31c-3.66,0-8.3-.28-14.17-1.02-.82-.1-1.4-.86-1.3-1.68.1-.82.86-1.4,1.68-1.3,20.23,2.57,24.68-.56,24.71-.59.61-.56,1.56-.52,2.12.09.56.61.52,1.56-.09,2.12-.34.32-2.98,2.38-12.94,2.38Z"/>
  <path class="cls-1" d="m325.86,290.79c-12.53,0-27.77-1.89-43.54-8.29-.77-.31-1.14-1.19-.83-1.95s1.19-1.14,1.95-.83c37.42,15.17,71.79,4.34,72.13,4.22.79-.25,1.63.17,1.89.96.26.79-.17,1.63-.96,1.89-.21.07-12.61,3.99-30.64,3.99Z"/>
  <path class="cls-1" d="m327.68,302.87c-11.75,0-27.27-1.33-37.65-7.3-.72-.41-.97-1.33-.55-2.05.41-.72,1.33-.96,2.05-.55,17.45,10.03,51.83,6.11,52.18,6.07.82-.1,1.57.49,1.67,1.31s-.49,1.57-1.31,1.67c-.63.07-7.4.85-16.37.85Z"/>
  <path class="cls-1" d="m320.83,311.96c-6.88,0-16.69-.85-25.41-4.78-.76-.34-1.09-1.23-.75-1.98s1.23-1.09,1.98-.75c14.34,6.45,32.45,4.06,32.63,4.04.82-.11,1.58.46,1.69,1.28.11.82-.46,1.58-1.28,1.69-.33.04-3.81.5-8.86.5Z"/>
  <path class="cls-1" d="m299.15,298.19s-.03,0-.05,0c-.83-.03-1.48-.72-1.45-1.54l.31-10.14c.03-.83.7-1.5,1.54-1.45.83.03,1.48.72,1.45,1.54l-.31,10.14c-.02.81-.69,1.45-1.5,1.45Z"/>
  <path class="cls-1" d="m312.76,301.51s-.06,0-.09,0c-.83-.05-1.46-.76-1.41-1.59l.64-10.53c.05-.83.76-1.46,1.59-1.41.83.05,1.46.76,1.41,1.59l-.64,10.53c-.05.8-.71,1.41-1.5,1.41Z"/>
  <path class="cls-1" d="m325.86,302.03c-.08,0-.17,0-.25-.02-.82-.14-1.37-.91-1.23-1.73l1.75-10.52c.14-.82.91-1.37,1.73-1.23.82.14,1.37.91,1.23,1.73l-1.75,10.52c-.12.73-.76,1.25-1.48,1.25Z"/>
  <path class="cls-1" d="m339.66,302.03c-.69,0-1.31-.48-1.46-1.18l-2.52-11.43c-.18-.81.33-1.61,1.14-1.79.82-.18,1.61.33,1.79,1.14l2.52,11.43c.18.81-.33,1.61-1.14,1.79-.11.02-.22.04-.32.04Z"/>
  <path class="cls-1" d="m430.72,318.09c-.46,0-.91-.21-1.2-.6-.5-.66-.36-1.6.3-2.1,21.95-16.41,30.22-52.97,32.23-63.78,3.24-17.41,5.75-86.84-22.64-111.85-.62-.55-.68-1.5-.13-2.12s1.5-.68,2.12-.13c29.36,25.87,26.92,96.87,23.61,114.65-2.06,11.08-10.57,48.58-33.38,65.63-.27.2-.58.3-.9.3Z"/>
  <path class="cls-1" d="m228.5,197.53c-.2,0-.39-.04-.58-.12-.56-.23-.92-.78-.92-1.38v-11.48l-4.44,8.65c-.36.7-1.2,1.01-1.93.69l-7.4-3.19c-.44-.19-.77-.58-.87-1.05l-3.88-17.57c-.18-.81.33-1.61,1.14-1.79.82-.18,1.61.33,1.79,1.14l3.71,16.82,5.41,2.33,6.64-12.92c.32-.61,1-.94,1.69-.77.67.16,1.15.77,1.15,1.46v14.1l.6-.59c.07-1.46.3-5.25,1.03-8.6.45-2.03,1.67-4.15,2.84-6.19,1.31-2.27,2.67-4.62,2.61-6.33-.04-1.11-.96-2.51-2.03-4.12-1.82-2.76-4.32-6.54-4.48-12.09-.03-.83.63-1.52,1.45-1.54.83-.05,1.52.63,1.54,1.45.14,4.7,2.18,7.8,3.99,10.53,1.32,2,2.46,3.72,2.52,5.68.09,2.57-1.49,5.29-3.01,7.93-1.06,1.85-2.17,3.75-2.51,5.33-.85,3.89-.99,8.61-.99,8.66,0,.39-.17.76-.45,1.03l-3.57,3.51c-.29.28-.67.43-1.05.43Zm3.57-5.01h0,0Z"/>
  <path class="cls-1" d="m228.25,179.08c-.15,0-.31-.02-.47-.08-9.15-3-8.62-17.09-8.59-17.69.04-.83.75-1.46,1.56-1.43.83.04,1.47.74,1.43,1.56,0,.12-.45,12.42,6.53,14.71.79.26,1.22,1.11.96,1.89-.21.63-.79,1.03-1.42,1.03Z"/>
  <path class="cls-1" d="m206.07,248.07c-.7,0-1.33-.49-1.47-1.21-.2-.99-4.7-24.6,7.82-58.07.29-.78,1.16-1.17,1.93-.88.78.29,1.17,1.16.88,1.93-12.22,32.67-7.73,56.19-7.69,56.43.16.81-.36,1.6-1.18,1.76-.1.02-.2.03-.3.03Z"/>
  <path class="cls-1" d="m223.14,276.1c-.11,0-.21-.01-.32-.03-.81-.17-1.32-.97-1.15-1.78l17.99-83.45c-1.19.27-3.32,1.02-6.86,2.99-.73.4-1.64.14-2.04-.58-.4-.72-.14-1.64.58-2.04,7.48-4.17,10.12-3.74,11.03-3.12.5.35.74.96.61,1.55l-18.38,85.28c-.15.7-.77,1.18-1.46,1.18Z"/>
  <path class="cls-1" d="m212.84,261.49c-.77,0-1.42-.59-1.49-1.36-.15-1.69-3.64-41.74,8.52-68.23.35-.75,1.23-1.08,1.99-.74.75.35,1.08,1.24.74,1.99-5.04,10.98-7.29,24.65-8.21,36.75,3.34-16.12,8.77-30.23,13.02-34.88.56-.61,1.51-.65,2.12-.1.61.56.65,1.51.1,2.12-5.66,6.19-15.99,37-15.27,62.9.02.81-.6,1.49-1.41,1.54-.03,0-.06,0-.09,0Z"/>
  <path class="cls-1" d="m473.34,189.79c-.64,0-1.34-.09-2.09-.28-2.62-.65-5.51-2.36-6.72-3.37-1.18-.98-1.17-2.79-1.16-6.4.03-5.96.08-17.04-6.06-30.51-.34-.75-.01-1.64.74-1.99.76-.34,1.64,0,1.99.74,6.41,14.07,6.36,25.58,6.33,31.77,0,1.69-.02,3.6.18,4.17.93.73,3.29,2.15,5.41,2.67,1.11.27,1.99.25,2.41-.07.41-.31.53-1.04.55-1.6.25-6.27-3.47-27-3.51-27.21-.15-.82.4-1.59,1.21-1.74.81-.14,1.59.39,1.74,1.21.16.86,3.81,21.26,3.55,27.86-.07,1.76-.66,3.06-1.74,3.88-.76.57-1.71.86-2.84.86Z"/>
  <path class="cls-1" d="m469.74,294.74c-.06,0-.11,0-.17,0-.82-.09-1.42-.83-1.33-1.66.05-.47,5.28-47.38,6.16-63.87.83-15.46-4.16-19.4-4.21-19.44-.42-.3-.67-.79-.64-1.31l1.11-20.37c.04-.83.76-1.45,1.58-1.42.83.04,1.46.75,1.42,1.58l-1.07,19.67c1.63,1.7,5.57,7.32,4.81,21.45-.89,16.58-6.12,63.57-6.18,64.04-.09.77-.74,1.33-1.49,1.33Z"/>
  <path class="cls-1" d="m463.65,304.76s-.06,0-.09,0c-.83-.05-1.46-.76-1.41-1.58.05-.79,4.57-79.23,2.69-93.61-.11-.82.47-1.57,1.29-1.68.83-.12,1.57.47,1.68,1.29,1.91,14.65-2.48,90.93-2.67,94.17-.05.8-.71,1.41-1.5,1.41Z"/>
  <path class="cls-1" d="m457.08,311.16s-.04,0-.06,0c-.83-.03-1.47-.73-1.44-1.56l1.47-38.06c.03-.83.76-1.47,1.56-1.44.83.03,1.47.73,1.44,1.56l-1.47,38.06c-.03.81-.7,1.44-1.5,1.44Z"/>
  <path class="cls-1" d="m235.89,331.33c-.23,0-.46-.05-.68-.16-17.83-9.08-34.84-21.79-50.55-37.76-.35-.36-.64-.65-.88-.89-4.34-4.34-12.91-28.32-10.62-38.35.18-.81.99-1.32,1.8-1.13.81.18,1.31.99,1.13,1.8-2.13,9.32,6.45,32.2,9.82,35.56.24.24.54.54.9.91,15.48,15.74,32.23,28.25,49.77,37.19.74.38,1.03,1.28.66,2.02-.27.52-.79.82-1.34.82Z"/>
  <path class="cls-1" d="m184.84,292.96c-.38,0-.77-.15-1.06-.44-.59-.59-.59-1.54,0-2.12,4.5-4.5,3.6-14.04,3.59-14.13-.08-.82.52-1.56,1.34-1.64.83-.09,1.56.51,1.64,1.34.05.45,1.06,11.04-4.45,16.56-.29.29-.68.44-1.06.44Z"/>
  <path class="cls-1" d="m312.76,188.91c-.39,0-.79-.15-1.08-.46-.57-.6-.55-1.55.04-2.12.06-.06,6.11-6.05,6.95-16.96.06-.83.81-1.45,1.61-1.38.83.06,1.44.78,1.38,1.61-.93,12.11-7.58,18.62-7.86,18.9-.29.28-.67.42-1.04.42Z"/>
  <path class="cls-1" d="m401.42,274.7s-.02,0-.04,0c-.83-.02-1.48-.71-1.47-1.53,0-.16.26-16.13-7.67-25.14-.55-.62-.49-1.57.13-2.12.62-.55,1.57-.49,2.12.13,8.71,9.9,8.43,26.49,8.42,27.2-.02.82-.69,1.47-1.5,1.47Z"/>
  <path class="cls-1" d="m245.99,263.92c-.76,0-1.41-.57-1.49-1.34-.04-.41-1-10.04,4.89-21.23.39-.74,1.29-1.01,2.03-.63.73.39,1.01,1.29.63,2.03-5.44,10.34-4.57,19.42-4.56,19.52.09.82-.51,1.56-1.33,1.65-.05,0-.11,0-.16,0Z"/>
  <path class="cls-1" d="m479.74,375.87c-.35,0-.69-.12-.96-.35-.39-.32-.58-.82-.53-1.32l1.02-9.13c.04-.35.2-.67.45-.92l6.78-6.48c.17-3.97,1.1-26.64.93-41.31,0-.83.65-1.51,1.48-1.52.85-.04,1.51.65,1.52,1.48.16,13.78-.64,34.55-.89,40.46l13.32-.46s.03,0,.05,0c.77,0,1.41.58,1.49,1.35l.96,9.31c.07.72-.37,1.38-1.06,1.59l-24.13,7.22c-.14.04-.29.06-.43.06Zm2.45-9.92l-.71,6.33,20.77-6.21-.69-6.69-12.96.44-6.41,6.12Z"/>
  <path class="cls-1" d="m296.29,424.13c-15.19,0-27.54-11.84-27.54-26.39s12.36-26.39,27.54-26.39,27.54,11.84,27.54,26.39-12.36,26.39-27.54,26.39Zm0-49.79c-13.53,0-24.54,10.49-24.54,23.39s11.01,23.39,24.54,23.39,24.54-10.49,24.54-23.39-11.01-23.39-24.54-23.39Z"/>
  <path class="cls-1" d="m339.66,439.06c-.79,0-1.45-.62-1.5-1.42-.05-.83.59-1.54,1.41-1.58,40.22-2.27,122.92-34.16,135.5-39.09-3.9-6.61-10.43-15.94-13.87-16.74-1.92-.22-15.81,4.14-30.53,8.77-35.15,11.04-88.14,27.67-115.22,27.67-.2,0-.4,0-.6,0-.83,0-1.49-.69-1.49-1.51,0-.82.68-1.49,1.5-1.49h.01c.19,0,.39,0,.58,0,26.61,0,79.33-16.55,114.31-27.54,22.09-6.93,30-9.31,32.11-8.83,6.21,1.45,15.62,17.82,16.67,19.68.21.38.25.83.11,1.24-.14.41-.46.74-.86.9-.94.38-94.18,37.46-138.06,39.93-.03,0-.06,0-.08,0Z"/>
  <path class="cls-1" d="m619.65,525.17c-.67,0-1.29-.46-1.46-1.14-.1-.42-10.55-42.81-20.1-66.43-.31-.77.06-1.64.83-1.95.77-.31,1.64.06,1.95.83,9.63,23.82,20.13,66.42,20.24,66.84.2.8-.29,1.62-1.1,1.81-.12.03-.24.04-.36.04Z"/>
  <path class="cls-1" d="m587.23,531.55c-.23,0-.45-.05-.67-.16-.74-.37-1.04-1.27-.67-2.01.02-.04,2.31-4.99.87-16.5-.1-.82.48-1.57,1.3-1.67.83-.09,1.57.48,1.67,1.3,1.57,12.56-1.05,17.99-1.17,18.22-.26.53-.79.83-1.34.83Z"/>
  <path class="cls-1" d="m663.82,517.76c-.55,0-1.09-.31-1.35-.84-13.58-27.68-63.93-70.14-76.97-79.68-6.21-4.55-20.64-10.84-34.6-16.92-16.3-7.1-25.38-11.23-29.32-14.27l-4.51,23.18c-.15.78-.89,1.3-1.67,1.2-.79-.11-1.36-.8-1.3-1.6.71-9.72-1.01-16.05-4.84-17.84-2.88-1.34-6.95.03-10.62,3.58-8.07,7.81-13.54,10.8-17.2,9.42-2.25-.85-3.54-3.23-3.85-7.06-.63-7.94-1.84-20.08-1.85-20.21-.04-.45.11-.89.43-1.21,10.53-10.53,18.22-17.21,28.86-14.17,10.23,2.92,16.89,15.32,17.17,21.21,1.21,2.51,17.78,9.73,29.9,15.01,14.11,6.15,28.7,12.51,35.17,17.25,13.16,9.64,64.05,52.6,77.89,80.78.37.74.06,1.64-.69,2.01-.21.1-.44.15-.66.15Zm-185.01-120.62c.27,2.72,1.24,12.7,1.78,19.56.14,1.77.59,3.99,1.92,4.5,1.08.41,4.61.37,14.05-8.77,4.59-4.44,9.94-6.03,13.98-4.14,2.24,1.05,4.67,3.4,5.9,8.52l2.76-14.2c-.31-5.12-6.57-15.96-14.99-18.36-8.25-2.36-14.32,1.86-25.41,12.9Z"/>
  <path class="cls-1" d="m136.78,436.19c-.14,0-.28-.02-.41-.05-1.02-.29-1.31-.68-6.69-11.23-5.14-10.08-12.9-25.3-19.78-34.92-.48-.67-.33-1.61.35-2.09.67-.48,1.61-.33,2.09.35,7.01,9.8,14.84,25.14,20.01,35.3,1.17,2.29,2.3,4.51,3.23,6.29-.07-5.87,0-14.17,3.67-17.74,1.23-1.19,2.75-1.76,4.48-1.69,5.7.23,9.32,4.52,11.46,8.45.06-6.67-.71-17.16-5.19-25.79-2.14-4.12-3.58-7.7-4.73-10.57-2.94-7.34-4.16-10.38-11.5-11.08-9.64-.92-17,.8-21.84,5.11-4.55,4.05-6.96,10.49-7.16,19.15-.02.83-.71,1.5-1.53,1.47-.83-.02-1.48-.71-1.47-1.53.22-9.52,2.96-16.7,8.17-21.32,5.5-4.88,13.6-6.85,24.12-5.85,9.16.87,10.98,5.42,14,12.95,1.19,2.96,2.53,6.32,4.61,10.31,7.6,14.61,5.24,33.41,5.14,34.21-.09.72-.68,1.26-1.41,1.3-.73.03-1.37-.44-1.54-1.14-.03-.12-3.11-12.31-11.24-12.64-.91-.05-1.64.23-2.27.84-2.91,2.83-2.81,11.62-2.75,16.34.04,3.64.06,4.62-.81,5.28-.27.21-.65.32-1.01.32Z"/>
  <path class="cls-1" d="m8.1,513.55c-.24,0-.49-.06-.72-.18-.73-.4-.99-1.31-.59-2.04,1.02-1.87,3.36-7.57,6.32-14.79,10.12-24.69,27.05-66.01,39.29-75.12,15.94-11.86,38.65-23.11,60.75-30.09.79-.25,1.63.19,1.88.98.25.79-.19,1.63-.98,1.88-21.8,6.89-44.18,17.97-59.87,29.64-11.57,8.61-28.96,51.05-38.31,73.85-3.11,7.59-5.36,13.08-6.46,15.1-.27.5-.79.78-1.32.78Z"/>
  <path class="cls-1" d="m38.93,529.64c-.35,0-.7-.12-.98-.37-.38-.33-9.3-8.35-10.47-31.89-.04-.83.6-1.53,1.42-1.57.84-.02,1.53.6,1.57,1.42,1.11,22.27,9.36,29.7,9.44,29.77.62.54.69,1.49.15,2.12-.3.34-.71.52-1.13.52Z"/>
  <path class="cls-1" d="m79.53,529.64c-.62,0-1.21-.39-1.42-1.01-.18-.52-17.65-52.19-7.5-90.3.21-.8,1.04-1.28,1.83-1.06.8.21,1.28,1.04,1.06,1.83-9.92,37.23,7.26,88.04,7.44,88.55.27.78-.15,1.64-.93,1.91-.16.05-.33.08-.49.08Z"/>
  <path class="cls-1" d="m152.48,503.4c-.68,0-1.3-.47-1.46-1.16l-15.7-67.21c-.19-.81.31-1.61,1.12-1.8.81-.19,1.61.31,1.8,1.12l15.7,67.21c.19.81-.31,1.61-1.12,1.8-.11.03-.23.04-.34.04Z"/>
  <path class="cls-1" d="m168.37,498.81c-.72,0-1.35-.52-1.48-1.25l-12.06-71.62c-.14-.82.41-1.59,1.23-1.73.8-.14,1.59.41,1.73,1.23l12.06,71.62c.14.82-.41,1.59-1.23,1.73-.08.01-.17.02-.25.02Z"/>
  <path class="cls-1" d="m182.74,529.64c-.74,0-1.39-.55-1.49-1.31-.03-.19-2.46-18.73-4.51-31.26-10.73,3.99-23.17,6.23-27.16,6.88v24.19c0,.83-.67,1.5-1.5,1.5s-1.5-.67-1.5-1.5v-25.47c0-.74.54-1.38,1.28-1.48.17-.03,16.83-2.53,29.5-7.57.42-.17.89-.14,1.29.09.39.22.67.61.74,1.06,2.12,12.52,4.8,32.98,4.83,33.18.11.82-.47,1.57-1.29,1.68-.07,0-.13.01-.2.01Z"/>
  <path class="cls-1" d="m145.97,381.71c-.51,0-1.01-.26-1.29-.74-.42-.71-.18-1.63.53-2.05,15.23-8.96,53-13.08,54.6-13.25.8-.09,1.56.51,1.65,1.33.09.82-.51,1.56-1.33,1.65-.39.04-38.72,4.22-53.4,12.86-.24.14-.5.21-.76.21Z"/>
  <path class="cls-1" d="m117.63,516.81c-.11,0-.22-.01-.33-.04-.81-.18-1.31-.99-1.13-1.79,3.8-16.72-3.94-45.06-12.14-75.07-1.89-6.92-3.85-14.08-5.66-21.12-.21-.8.28-1.62,1.08-1.83.8-.21,1.62.28,1.83,1.08,1.81,7.01,3.76,14.16,5.65,21.07,8.3,30.38,16.14,59.08,12.17,76.53-.16.7-.78,1.17-1.46,1.17Z"/>
  <path class="cls-1" d="m251.1,524.08c-.3,0-.61-.09-.87-.28-.89-.64-8.65-7.54-6.95-53.55.03-.83.71-1.49,1.55-1.44.83.03,1.47.73,1.44,1.55-1.65,44.48,5.62,50.95,5.69,51,.67.48.83,1.42.35,2.09-.29.41-.75.63-1.22.63Z"/>
  <path class="cls-1" d="m297.25,525.62c-.6,0-1.16-.36-1.4-.95-.11-.29-11.43-29-23.71-55.74-.35-.75-.02-1.64.74-1.99.76-.34,1.64-.01,1.99.74,12.32,26.82,23.66,55.61,23.78,55.9.3.77-.08,1.64-.85,1.94-.18.07-.37.1-.55.1Z"/>
  <path class="cls-1" d="m223.01,446.53c-.81,0-1.48-.65-1.5-1.47-.32-16.53-1.41-60.44-2.63-65-.48-1.81-8.55-3.73-17.2-2.59-5.92.78-9.6,2.7-9.6,5.01,0,13.02,3.35,44.14,3.38,44.45.09.82-.51,1.56-1.33,1.65-.83.08-1.56-.51-1.65-1.33-.14-1.28-3.4-31.6-3.4-44.78,0-4.06,4.45-6.97,12.21-7.99,7.78-1.02,19.23.08,20.48,4.79,1.56,5.85,2.69,63.28,2.73,65.72.02.83-.64,1.51-1.47,1.53h-.03Z"/>
  <path class="cls-1" d="m240.12,458.02c-.29,0-.57-.08-.83-.25-.34-.22-33.77-22.38-43.57-27.9-14.04-7.92-19.71-17.88-17.33-30.44.15-.81.94-1.35,1.75-1.19.81.15,1.35.94,1.19,1.75-2.14,11.29,2.9,19.95,15.86,27.26,9.89,5.58,42.37,27.1,43.75,28.01.69.46.88,1.39.42,2.08-.29.44-.77.67-1.25.67Z"/>
  <path class="cls-1" d="m221.52,396.38c-.2,0-.39-.04-.58-.12-.17-.07-16.7-6.95-29.26-1.07-.75.35-1.64.03-1.99-.72-.35-.75-.03-1.64.72-1.99,13.78-6.45,30.98.72,31.7,1.03.76.32,1.12,1.2.79,1.97-.24.57-.8.91-1.38.91Z"/>
  <path class="cls-1" d="m222.28,417.29c-.25,0-.5-.06-.73-.19-.14-.08-13.82-7.6-28.85-4.55-.82.16-1.6-.36-1.77-1.17-.16-.81.36-1.6,1.17-1.77,16.16-3.26,30.32,4.55,30.91,4.88.72.41.98,1.32.57,2.04-.27.49-.78.77-1.31.77Z"/>
  <path class="cls-1" d="m222.82,437.47c-.2,0-.4-.04-.59-.12-.1-.04-9.94-4.18-19.33-3.49-.81.07-1.54-.56-1.61-1.39-.06-.83.56-1.54,1.39-1.61,10.12-.75,20.3,3.54,20.73,3.73.76.33,1.11,1.21.79,1.97-.24.57-.8.91-1.38.91Z"/>
  <path class="cls-1" d="m200.8,377.13c-.74,0-1.38-.54-1.48-1.3-2.42-17.73.22-28.6,7.23-29.81,7.12-1.23,11.83,1.61,12.02,1.73.19.12.35.27.47.45.75,1.14,4.46,7.02,3.74,10.37-.19.89-.67,1.6-1.38,2.06-3.08,1.96-6.41,2.27-6.55,2.28-.82.07-1.55-.54-1.62-1.37s.54-1.55,1.37-1.62c.02,0,2.75-.27,5.2-1.82.03-.02.05-.1.06-.15.32-1.49-1.6-5.4-3.12-7.79-.98-.5-4.6-2.07-9.67-1.19-5.05.87-6.88,11.01-4.77,26.45.11.82-.46,1.58-1.28,1.69-.07,0-.14.01-.21.01Z"/>
  <path class="cls-1" d="m214.33,377.82c-.83,0-1.5-.67-1.5-1.5v-21.29c0-.83.67-1.5,1.5-1.5s1.5.67,1.5,1.5v21.29c0,.83-.67,1.5-1.5,1.5Z"/>
  <path class="cls-1" d="m228.86,383.09c-5.05,0-8.95-1.96-9.21-2.09-.74-.38-1.03-1.28-.65-2.02.38-.74,1.28-1.03,2.02-.65.08.04,8.77,4.35,16.2-.82,3.51-2.45,6-7.54,6.5-13.28.69-7.99-2.45-16.07-8.61-22.18-5.66-5.61-12.42-7.78-18.53-5.94-5.92,1.78-10.47,7.09-11.88,13.86-.17.81-.97,1.33-1.78,1.16-.81-.17-1.33-.96-1.16-1.78,1.64-7.85,6.98-14.02,13.95-16.12,7.2-2.16,15.04.27,21.51,6.68,6.8,6.73,10.26,15.69,9.49,24.57-.58,6.71-3.49,12.5-7.78,15.48-3.41,2.38-6.96,3.12-10.08,3.12Z"/>
  <path class="cls-1" d="m232.63,383.51c-4.41,0-7.93-.85-8.2-.91-.8-.2-1.29-1.01-1.1-1.81.2-.8,1.01-1.29,1.81-1.1.11.03,11.1,2.65,17.73-1.65,6.56-4.26,7.79-12.29,3.99-26.04-3.39-12.27-15.3-17.78-17.51-18.71l-13.11,2.28c-.81.14-1.59-.4-1.73-1.22-.14-.82.4-1.59,1.22-1.73l13.53-2.35c.26-.04.53-.02.77.07.63.23,15.58,5.87,19.72,20.87,4.15,15.01,2.48,24.34-5.25,29.36-3.59,2.33-8.06,2.97-11.88,2.97Z"/>
  <path class="cls-1" d="m277.33,416.29s-.08,0-.12,0c-.27-.02-27.76-2.38-56.25-17.22-.74-.38-1.02-1.29-.64-2.02.38-.74,1.29-1.02,2.02-.64,27.96,14.56,54.84,16.87,55.11,16.89.83.07,1.44.79,1.38,1.62-.06.79-.72,1.38-1.49,1.38Z"/>
  <path class="cls-1" d="m269.74,399.23c-.21,0-.42-.04-.62-.13l-12-5.43c-.61-.28-.97-.93-.87-1.59.1-.67.63-1.18,1.3-1.26l13.34-1.66c.84-.1,1.57.48,1.67,1.3.1.82-.48,1.57-1.3,1.67l-8.05,1,7.14,3.23c.75.34,1.09,1.23.75,1.99-.25.55-.8.88-1.37.88Z"/>
  <path class="cls-1" d="m281.89,378.49c-.72,0-1.35-.52-1.48-1.25l-1.56-9.32c-.11-.65.21-1.29.8-1.58.58-.3,1.29-.18,1.75.28l6.68,6.8c.58.59.57,1.54-.02,2.12-.59.58-1.54.57-2.12-.02l-3.35-3.41.78,4.62c.14.82-.41,1.59-1.23,1.73-.08.01-.17.02-.25.02Z"/>
  <path class="cls-1" d="m323.1,394.59c-.44,0-.88-.19-1.18-.57-.52-.65-.41-1.59.24-2.11l5.46-4.33-5.84.35c-.82.06-1.54-.58-1.59-1.41-.05-.83.58-1.54,1.41-1.59l10.6-.64c.65-.04,1.26.35,1.49.96.23.61.04,1.3-.47,1.71l-9.19,7.29c-.28.22-.61.33-.93.33Z"/>
  <path class="cls-1" d="m323.63,416.25c-.12,0-.24-.01-.36-.04l-6.82-1.7c-.8-.2-1.29-1.01-1.09-1.82.2-.8,1.01-1.29,1.82-1.09l3.48.87-1.56-2.84c-.4-.73-.13-1.64.59-2.04.73-.4,1.64-.13,2.04.59l3.21,5.85c.29.52.24,1.17-.13,1.64-.29.37-.73.58-1.19.58Z"/>
  <path class="cls-1" d="m309.57,377.82c-.78,0-1.44-.6-1.49-1.39l-.47-6.53-3.37,4.66c-.48.67-1.42.83-2.09.34-.67-.48-.82-1.42-.34-2.09l5.78-8.01c.37-.51,1.02-.74,1.63-.57.61.17,1.04.71,1.09,1.34l.77,10.64c.06.83-.56,1.54-1.39,1.6-.04,0-.07,0-.11,0Z"/>
  <path class="cls-1" d="m296.42,403.22s-.09,0-.14,0c-2.46-.05-4.75-1.35-5.83-3.32-.63-1.15-1.4-3.58.6-6.84.43-.71,1.36-.93,2.06-.5.71.43.93,1.36.5,2.06-.63,1.03-1.24,2.54-.53,3.83.56,1.03,1.87,1.74,3.26,1.76.57,0,1.91-.09,2.62-1.28.43-.71,1.35-.94,2.06-.51.71.43.94,1.35.51,2.06-1.03,1.72-2.93,2.74-5.11,2.74Z"/>
  <path class="cls-1" d="m240.12,389.72c-.2,0-.41-.04-.61-.13l-14.04-6.22c-.76-.33-1.1-1.22-.76-1.98.33-.76,1.22-1.1,1.98-.76l14.04,6.22c.76.33,1.1,1.22.76,1.98-.25.56-.8.89-1.37.89Z"/>
  <path class="cls-1" d="m229.52,333.22c-.72,0-1.35-.51-1.48-1.25-.14-.82.41-1.59,1.22-1.73l7.27-1.25c.81-.13,1.59.41,1.73,1.22s-.41,1.59-1.22,1.73l-7.27,1.25c-.09.01-.17.02-.26.02Z"/>
  <path class="cls-1" d="m295.98,444.24c-.29,0-.57,0-.85,0-31.94-.38-72.43-15.52-72.83-15.67-.78-.29-1.17-1.16-.87-1.93s1.16-1.17,1.93-.87c.4.15,40.41,15.1,71.81,15.48.26,0,.54,0,.81,0,19.13,0,61.14-7.58,69.41-9.11l-3.84-24.67c-.13-.82.43-1.58,1.25-1.71.82-.12,1.59.43,1.71,1.25l4.06,26.11c.12.8-.41,1.55-1.2,1.7-2.05.39-49.94,9.43-71.38,9.43Z"/>
  <path class="cls-1" d="m349.27,431.88c-5.1,0-9.25-4.15-9.25-9.25s4.15-9.26,9.25-9.26,9.26,4.15,9.26,9.26-4.15,9.25-9.26,9.25Zm0-15.51c-3.45,0-6.25,2.81-6.25,6.26s2.81,6.25,6.25,6.25,6.26-2.81,6.26-6.25-2.81-6.26-6.26-6.26Z"/>
  <path class="cls-1" d="m322.33,528.62c-.65,0-1.24-.42-1.44-1.07-.71-2.39-17.41-58.86-12.81-86.46.14-.82.9-1.36,1.73-1.23.82.14,1.37.91,1.23,1.73-4.49,26.92,12.55,84.53,12.72,85.11.24.79-.21,1.63-1.01,1.87-.14.04-.29.06-.43.06Z"/>
  <path class="cls-1" d="m339.06,525.62c-.67,0-1.28-.45-1.45-1.13-.12-.5-12.37-50.12-3.36-86.21.2-.8,1.01-1.29,1.82-1.09.8.2,1.29,1.01,1.09,1.82-8.83,35.35,3.24,84.26,3.36,84.75.2.8-.29,1.62-1.09,1.82-.12.03-.25.04-.37.04Z"/>
  <path class="cls-1" d="m316.82,461.59c-.39,0-.76-.15-1.05-.43-.36-.35-.52-.86-.43-1.35l3.41-18c.15-.81.93-1.35,1.75-1.19.81.15,1.35.94,1.19,1.75l-2.99,15.78,8.67-1.87-4.1-15.7c-.21-.8.27-1.62,1.07-1.83.8-.21,1.62.27,1.83,1.07l4.5,17.21c.1.4.04.82-.17,1.17-.21.35-.56.59-.96.68l-12.41,2.68c-.1.02-.21.03-.32.03Z"/>
  <path class="cls-1" d="m328.33,524.08c-.74,0-1.39-.55-1.49-1.31-.28-2.14-6.77-52.6-5.31-64.78.1-.82.84-1.42,1.67-1.31.82.1,1.41.85,1.31,1.67-1.42,11.8,5.24,63.51,5.31,64.03.11.82-.47,1.57-1.29,1.68-.07,0-.13.01-.19.01Z"/>
  <path class="cls-1" d="m552.12,521.02c-.77,0-1.43-.6-1.49-1.38-.22-2.8-2.22-5.39-5.26-9.31-6.14-7.94-16.42-21.22-21.72-52.02-.14-.82.41-1.59,1.22-1.73.81-.13,1.59.41,1.73,1.22,5.18,30.06,14.78,42.48,21.14,50.69,3.24,4.19,5.59,7.22,5.88,10.91.07.83-.55,1.55-1.38,1.61-.04,0-.08,0-.12,0Z"/>
  <path class="cls-1" d="m451.4,490.29c-.43,0-.87-.19-1.16-.55-.52-.64-.43-1.59.21-2.11,23.01-18.8,41.54-57.5,41.72-57.89.36-.75,1.25-1.07,2-.71.75.36,1.07,1.25.71,2-.76,1.61-18.99,39.69-42.53,58.92-.28.23-.61.34-.95.34Z"/>
  <path class="cls-1" d="m422.85,528.61c-.34,0-.68-.12-.96-.36-.32-.28-7.83-7.07-5.5-34.33.07-.83.8-1.45,1.62-1.37.83.07,1.44.8,1.37,1.62-2.17,25.37,4.42,31.75,4.48,31.82.6.55.66,1.5.11,2.11-.3.33-.71.51-1.12.51Z"/>
  <path class="cls-1" d="m423.31,195.04c-.61,0-1.18-.37-1.41-.97-.12-.33-12.64-33.45-30.91-54.46-.54-.62-.48-1.57.15-2.12s1.57-.48,2.12.15c18.63,21.42,31.33,55.04,31.46,55.37.29.78-.1,1.64-.88,1.93-.17.06-.35.09-.53.09Z"/>
  <path class="cls-1" d="m255.5,166.57c-.2,0-.41-.04-.61-.13-.76-.33-1.1-1.22-.77-1.98,4.51-10.2,13.17-16.79,13.53-17.06.66-.5,1.6-.36,2.1.3.5.66.37,1.6-.3,2.1-.08.06-8.41,6.41-12.59,15.88-.25.56-.8.89-1.37.89Z"/>
  <path class="cls-1" d="m434.74,184c-.44,0-.87-.19-1.16-.55-.21-.26-5.23-6.58-13.08-28.46-.28-.78.13-1.64.91-1.92.78-.28,1.64.12,1.92.91,7.62,21.24,12.54,27.52,12.58,27.59.52.65.42,1.59-.23,2.11-.28.22-.61.33-.94.33Z"/>
  <path class="cls-1" d="m465.48,233.4c-.67,0-1.28-.45-1.45-1.13-.12-.46-11.83-45.73-19.87-59.75-.41-.72-.16-1.64.56-2.05.72-.41,1.64-.16,2.05.56,8.24,14.37,19.69,58.62,20.17,60.49.21.8-.28,1.62-1.08,1.83-.12.03-.25.05-.38.05Z"/>
  <path class="cls-1" d="m198.44,369.17c-.74,0-1.39-.55-1.49-1.31l-9.48-73.03c-.11-.82.47-1.57,1.29-1.68.82-.12,1.57.47,1.68,1.29l9.48,73.03c.11.82-.47,1.57-1.29,1.68-.07,0-.13.01-.2.01Z"/>
</svg>