<?xml version="1.0" encoding="UTF-8"?>
<svg id="Layer_1" data-name="Layer 1" xmlns="http://www.w3.org/2000/svg" viewBox="0 0 246.9 240.47">
  <defs>
    <style>
      .cls-1, .cls-2 {
        stroke-width: 0px;
      }

      .cls-2 {
        fill: red;
      }
    </style>
  </defs>
  <path class="cls-2" d="m193.5,36.97c-8.26-5.62-17.49,6.86-11.74,11.73s20.81,8.57,21.96,4.23,4.09-6.23-10.21-15.96Z"/>
  <g>
    <path class="cls-2" d="m148.67,113.65c-3.45-10.34-1.92-18.19-4.79-31.6-2.87-13.4-17.81-28.53-17.81-28.53,0,0-14.94-9.96-20.49-3.83-5.55,6.13-12.25,10.53-12.25,10.53,0,0-13.79-15.32-15.89-1.91-2.11,13.4-6.13,23.94-13.4,24.7-8.2.86-6.32-11.49-6.7-14.55-.38-3.06-8.81-11.68-15.13-9.19s-22.79,45.77-18.57,56.3c4.21,10.53,17.13,11.49,19.86,18s1.97,16.28,10.01,19.72c8.04,3.45,14.94-12.45,18.57-11.68,3.64.77,9.38,16.85,3.83,27.96s7.66,9.38,12.06,14.74c4.4,5.36,13.4,12.45,20.68,10.53,7.28-1.91,18.57-8.04,16.28-15.32s-18.38-24.89-17.23-29.49c1.15-4.6,10.95,1.72,17.54,6.89s32.06,4.79,35.7-9.57c3.64-14.36-8.81-23.36-12.26-33.7Zm-62.04,61.09c-8.04-1.92-6.08-20.78-.57-14.17,2.87,3.45,10.53,2.87,14.36,9.19,3.83,6.32-5.74,6.89-13.79,4.98Zm25.66-48.26c-4.4,4.98-11.87-2.3-14.74-6.13-2.87-3.83,1.92-8.43,12.06-11.49,0,0,8.43.57,8.04,7.28-.38,6.7-.96,5.36-5.36,10.34Z"/>
    <path class="cls-2" d="m145.8,41.84c-7.58,2.33-11.49,10.15-6.51,10.34s20.87-2.68,19.53-6.13-5.55-6.51-13.02-4.21Z"/>
    <path class="cls-2" d="m210.52,76.12c-13.6,4.02-12.64,13.4-9.19,16.09s11.09,10.34,14.16,0-4.97-16.09-4.97-16.09Z"/>
    <path class="cls-2" d="m175.86,78.41c-15.32-.77-12.29-12.64-16.96-10.34s-11.57,24.32-3.14,34.28,35.43-.38,20.11-23.94Z"/>
    <path class="cls-2" d="m192.33,97.45c-15.69,7.56-20.68,15.43-20.68,15.43,0,0,11.68,10.25,13.6,17.28s2.87,22.55,8.81,25.23,14.96,2.11,13.61-4.98-13.99-14.94-13.03-22.02,9.19-14.36,11.87-8.23-1.72,11.3,2.49,17.43,11.87,13.79,12.83,9.96,7.66-27,4.79-32.36-10.53-.57-18.19-6.32-6.32-16.11-16.09-11.41Z"/>
    <path class="cls-2" d="m119.95,32.65c-9.13-.79-10.53,6.51-4.6,9.77s13.4-9,4.6-9.77Z"/>
    <path class="cls-2" d="m161.59,192.35c-8.01,1.39-18.08,3.83-13.49,11.87s20.68,7.66,23.17.19-1.94-13.4-9.68-12.06Z"/>
  </g>
  <path class="cls-1" d="m102.08,194.66c-7.74,0-15.78-7.15-19.27-11.4-1.26-1.54-3.63-2.47-5.92-3.38-3.09-1.22-6.29-2.49-7.43-5.45-.78-2.04-.42-4.5,1.1-7.54,3.79-7.57,1.84-17.57-.4-22.45-1.19-2.6-2.2-3.32-2.4-3.37-.69.07-2.73,2.42-4.08,3.97-3.72,4.29-8.82,10.17-14.78,7.62-6.39-2.74-7.81-8.96-9.07-14.45-.5-2.2-.98-4.28-1.73-6.07-1-2.38-3.89-4.02-7.23-5.91-4.72-2.68-10.08-5.71-12.64-12.11-3.16-7.9,4.01-30.18,9.27-42.37,2.82-6.54,6.87-14.59,10.15-15.88,2.73-1.08,5.96-.58,9.36,1.44,3.92,2.32,7.49,6.43,7.81,8.96.08.65.08,1.53.07,2.64-.02,2.98-.04,7.97,2.03,9.85.72.65,1.69.9,2.95.76h0c5.58-.59,9.76-8.69,12.08-23.44.57-3.65,2.05-5.86,4.38-6.55,4.63-1.38,10.82,4.3,13.2,6.73,2.06-1.47,6.85-5.06,10.94-9.57,6.24-6.89,20.79,2.5,22.43,3.59.08.06.16.12.24.19.62.63,15.28,15.6,18.21,29.27,1.32,6.17,1.73,11.25,2.09,15.74.44,5.48.82,10.21,2.65,15.7,1.09,3.28,3.18,6.47,5.39,9.85,4.44,6.8,9.48,14.51,6.9,24.69-1.38,5.46-5.68,9.56-12.44,11.86-8.82,3.01-20.8,2.32-25.64-1.48-8.04-6.31-13.35-8.62-14.87-8.1-.1.03-.2.07-.28.39-.47,1.87,4.89,9.41,8.44,14.4,3.95,5.55,7.67,10.8,8.77,14.27.69,2.18.43,4.38-.76,6.55-2.8,5.07-10.54,9.09-16.56,10.67-.97.26-1.96.37-2.95.37Zm-34.3-56.59c.2,0,.4.02.6.06,1.53.32,2.98,1.89,4.32,4.66,2.62,5.42,4.92,16.67.54,25.44-1.11,2.21-1.44,3.94-.98,5.13.66,1.73,3.12,2.7,5.73,3.73,2.64,1.04,5.38,2.12,7.13,4.26,4.09,4.98,12.57,11.76,19.14,10.03,5.59-1.47,12.43-5.11,14.7-9.22.79-1.44.97-2.82.53-4.2-.96-3.02-4.72-8.32-8.36-13.44-6.02-8.47-9.67-13.81-8.9-16.87.31-1.23,1.1-2.12,2.22-2.5,3.89-1.33,11.77,3.93,17.7,8.58,3.61,2.83,14.36,3.89,22.82,1,4.01-1.37,9.08-4.17,10.5-9.76,2.26-8.91-2.2-15.73-6.5-22.32-2.32-3.54-4.5-6.89-5.72-10.54-1.94-5.83-2.36-10.96-2.79-16.4-.37-4.61-.75-9.38-2.04-15.35-2.62-12.25-15.98-26.31-17.3-27.68-3.97-2.61-14.62-8.17-18.42-3.99-5.62,6.2-12.26,10.59-12.54,10.78-.62.41-1.44.3-1.94-.25-2.34-2.6-8.11-7.68-11.03-6.82-1.41.42-2.01,2.48-2.27,4.14-2.59,16.47-7.54,25.2-14.73,25.96h0c-2.14.22-3.92-.29-5.28-1.52-3.07-2.78-3.04-8.38-3.02-12.09,0-.96,0-1.79-.05-2.25-.14-1.1-2.72-4.59-6.36-6.75-1.79-1.06-4.42-2.14-6.73-1.23-.97.38-3.99,3.86-8.49,14.28-6.31,14.61-11.63,34.08-9.24,40.06,2.17,5.43,6.83,8.07,11.33,10.62,3.66,2.07,7.12,4.03,8.52,7.36.85,2.03,1.38,4.33,1.89,6.56,1.2,5.26,2.34,10.23,7.33,12.36,3.95,1.69,8.04-3.03,11.33-6.83,2.48-2.87,4.34-5.01,6.36-5.01Z"/>
  <path class="cls-1" d="m90.29,175.21c-2.63,0-5.49-.42-8.01-1.02-4.31-1.03-6.18-5.74-6.49-9.8-.27-3.53.55-7.53,2.97-8.51.84-.34,2.53-.57,4.44,1.72h0c.92,1.11,2.69,1.76,4.74,2.52,3.22,1.19,7.23,2.68,9.76,6.85,1.68,2.77,1.11,4.61.34,5.67-1.37,1.88-4.36,2.57-7.75,2.57Zm-10.43-16.54c-.42.18-1.33,2.28-1.07,5.52.23,3,1.46,6.44,4.19,7.09,6.5,1.55,11.62,1,12.64-.4.42-.58-.03-1.6-.48-2.34-1.99-3.28-5.16-4.45-8.23-5.59-2.35-.87-4.56-1.69-6-3.42h0c-.57-.69-.95-.85-1.04-.86Z"/>
  <path class="cls-1" d="m104.69,127.66c-.09,0-.18,0-.27,0-5.78-.23-11.45-7.57-12.07-8.41-1.11-1.48-1.41-3.14-.86-4.8,1.15-3.5,6.01-6.7,13.69-9.02.17-.05.36-.07.54-.06,3.43.23,9.81,2.39,9.44,8.86-.3,5.29-.78,6.16-3.3,8.69-.64.64-1.44,1.44-2.43,2.56-1.27,1.44-2.9,2.19-4.72,2.19Zm1.07-19.28c-7.48,2.3-10.81,5.12-11.42,7-.24.72-.11,1.38.41,2.07,2.12,2.82,6.47,7.07,9.79,7.21,1.03.03,1.88-.33,2.63-1.17,1.05-1.19,1.89-2.03,2.56-2.7,2-2,2.17-2.16,2.43-6.74.26-4.62-5.12-5.52-6.39-5.67Z"/>
  <path class="cls-1" d="m135.7,51.69c-.17,0-.32,0-.47,0-2.04-.08-3.4-1.18-3.63-2.95-.43-3.32,3.65-8.45,9.76-10.33h0c8.49-2.61,13.31,1.12,14.86,5.1.34.87.2,1.79-.38,2.61-2.54,3.56-15.59,5.57-20.14,5.57Zm10.97-11.15c-1.29,0-2.76.22-4.43.74h0c-5.14,1.58-7.85,5.69-7.67,7.07.01.1.04.31.77.34,5.05.19,16.73-2.35,18.01-4.24-.89-2.11-3.04-3.91-6.69-3.91Zm-4.87-.7h0,0Z"/>
  <path class="cls-1" d="m206.52,96.95c-3.31,0-6.68-2.77-9.02-4.69-.39-.32-.76-.62-1.08-.88-2.15-1.67-3.19-4.88-2.61-7.99.53-2.8,2.83-7.92,12.29-10.72.44-.13.92-.05,1.3.22.09.06,8.86,6.5,5.53,17.73-1,3.37-2.61,5.42-4.8,6.09-.53.16-1.07.24-1.61.24Zm-.32-21.17c-7.3,2.37-9.06,6.11-9.45,8.17-.44,2.33.47,4.26,1.5,5.06.34.27.73.58,1.15.93,2.09,1.72,5.6,4.6,7.85,3.91,1.17-.36,2.11-1.73,2.8-4.07,2.29-7.72-2.21-12.54-3.85-13.99Z"/>
  <path class="cls-1" d="m160.95,105.65c-4.07,0-7.9-1.46-10.33-4.33-5.88-6.96-4.35-18.08-3.42-22.54,1.19-5.68,3.9-12.5,7.05-14.05,3.1-1.53,4.52,1.12,5.45,2.86,1.56,2.91,3.69,6.9,12.24,7.33.48.02.92.28,1.18.68,10.34,15.91,1.56,24.27-1.38,26.46-3.24,2.41-7.12,3.6-10.79,3.6Zm-5-38.38s-.13.02-.38.15c-1.37.67-4.02,5.21-5.44,11.97-1.75,8.39-.71,15.86,2.78,19.99,3.58,4.23,11.54,4.36,17.05.27,6.28-4.67,6.66-12.78,1.06-21.79-9.61-.73-12.32-5.8-13.96-8.86-.36-.67-.85-1.58-1.11-1.73Z"/>
  <path class="cls-1" d="m196.87,156.38c-2.54,0-5.23-.63-7.43-1.62-5.14-2.32-6.82-11.53-8.29-19.66-.45-2.48-.88-4.82-1.35-6.54-1.77-6.52-13.02-16.45-13.14-16.55-.56-.49-.67-1.31-.28-1.93.21-.34,5.41-8.32,21.3-15.98h0c7.4-3.56,9.84.65,12.2,4.72,1.33,2.29,2.84,4.9,5.43,6.84,3.49,2.62,7.01,2.83,10.12,3.01,3.28.19,6.66.4,8.49,3.8,2.52,4.7-.9,19.34-4.16,31.57-.22.82-.39,1.45-.49,1.87-.29,1.16-1.06,1.93-2.11,2.12-3.94.7-11.19-8.36-13.41-11.59-2.62-3.81-2.29-7.37-2-10.52.22-2.44.43-4.74-.62-7.16-.61-1.38-1.37-1.47-1.97-1.38-2.6.36-6.44,4.78-7.04,9.21-.43,3.22,2.96,7.14,6.25,10.92,2.99,3.45,6.09,7.02,6.77,10.61.66,3.45-.77,5.41-2.09,6.45-1.61,1.27-3.83,1.8-6.18,1.8Zm-27.2-45.69c2.97,2.74,11.34,10.9,13.02,17.09.5,1.85.94,4.25,1.4,6.79,1.21,6.66,2.87,15.79,6.58,17.46,3.78,1.71,8.49,1.79,10.51.2.98-.77,1.31-1.93,1-3.53-.53-2.8-3.36-6.06-6.09-9.21-3.72-4.29-7.57-8.73-6.95-13.29.74-5.47,5.4-11.2,9.59-11.78,2.25-.31,4.13.83,5.14,3.15,1.37,3.12,1.1,6.05.86,8.63-.28,3.02-.51,5.63,1.49,8.54,3.86,5.62,8.57,9.87,10.17,10.3.13-.47.28-1.05.47-1.77,4.44-16.67,5.93-26.55,4.42-29.38-.99-1.84-2.74-2.03-6.02-2.22-3.36-.2-7.54-.45-11.75-3.6-3.08-2.31-4.83-5.32-6.23-7.74-2.34-4.04-3.41-5.88-8.31-3.52h0c-11.88,5.73-17.45,11.59-19.31,13.88Zm18.66-15.23h0,0Z"/>
  <path class="cls-1" d="m113.47,42.46c-.98,0-1.94-.24-2.83-.73-3.35-1.84-5.01-5.05-4.12-7.99.77-2.55,3.7-5.11,9.57-4.59h0c3.67.32,4.83,2.35,5.19,3.53.87,2.83-.95,6.16-3.2,8-1.44,1.18-3.05,1.78-4.6,1.78Zm1.11-10.37c-3.24,0-4.81,1.25-5.2,2.52-.47,1.54.61,3.35,2.69,4.49,1.66.91,3.28-.08,4.1-.75,1.63-1.33,2.63-3.48,2.23-4.79-.25-.81-1.12-1.29-2.58-1.42h0c-.44-.04-.85-.06-1.24-.06Z"/>
  <path class="cls-1" d="m156.4,209.63c-5.14,0-10.92-1.96-13.61-6.67-1.49-2.61-1.75-4.97-.78-7.03,1.99-4.22,8.54-5.89,15.32-7.06,4.04-.7,7.64.38,9.86,2.97,2.37,2.76,2.92,6.78,1.5,11.04-1.21,3.64-5.09,6.13-10.36,6.65-.63.06-1.27.09-1.93.09Zm3.32-17.97c-.6,0-1.23.06-1.88.17h0c-3.45.6-11.52,1.99-13.11,5.38-.54,1.14-.32,2.54.67,4.27,2.35,4.11,8.2,5.52,12.63,5.08,4-.4,7-2.16,7.81-4.61,1.08-3.23.74-6.2-.93-8.14-1.21-1.41-3.02-2.14-5.2-2.14Zm-2.14-1.31h0,0Z"/>
  <path class="cls-1" d="m122.89,228.61c-19.31,0-38.32-5.05-54.98-14.6-2.21-.89-4.56-.87-6.85-.87-2.57.02-5,.03-7.13-1.19-3.65-2.09-13.33-10.28-14.4-11.8-.49-.7-.77-1.8-1.29-3.81-.73-2.83-1.84-7.1-4.15-12.36-14.29-19.19-21.84-42.02-21.84-66.02,0-30.71,12.93-60.3,35.48-81.18.06-.07.14-.14.22-.2,1.29-1.19,2.68-2.41,4.07-3.58,3.08-3.19,4.75-6.27,5.98-8.53.92-1.69,1.58-2.9,2.5-3.66,1.43-1.18,4.14-2.3,6.75-3.38,1.54-.63,3.12-1.29,3.69-1.68,1.16-.8,2.75-.64,4.75-.45,1.84.18,3.93.39,6.03-.07,13.11-5.26,26.96-7.93,41.18-7.93,20,0,39.59,5.4,56.68,15.61.08.04.16.08.23.13.76.46,1.52.92,2.27,1.4,4.14,2.08,10.6,3.77,10.67,3.79.21.05.41.15.57.29,0,0,3.16,2.59,4.79,3.93,1.7,1.4,5.02,5.6,5.4,6.07.05.06.09.12.13.19l4.02,7.16c.19.34.24.74.14,1.11,16.62,19.87,25.75,45.01,25.75,70.96,0,9.55-1.23,19.06-3.64,28.24,0,.04-.01.08-.02.11-.71,2.84.51,4.65,1.59,6.25.4.59.77,1.15,1.02,1.72,1.08,2.54-.13,7.73-3.31,10.62-1.2,1.09-2.14,4.45-2.89,7.14-.99,3.56-1.57,5.46-2.87,6.2-.53.3-1.17.49-1.99.72-2.54.72-7.28,2.06-13.04,9.23-21.13,25.69-52.29,40.41-85.5,40.41Zm-61-18.47c2.27,0,4.78.1,7.25,1.13.06.02.12.05.17.08,16.22,9.33,34.75,14.25,53.57,14.25,32.31,0,62.62-14.33,83.17-39.3,6.35-7.91,11.69-9.42,14.55-10.23.52-.15,1.01-.28,1.25-.4.44-.53,1.09-2.87,1.53-4.43.94-3.38,1.92-6.89,3.76-8.56,2.49-2.26,3.01-6.18,2.57-7.23-.13-.31-.43-.75-.74-1.21-1.2-1.78-3-4.45-2.05-8.51,0-.06.02-.11.03-.17,2.38-8.98,3.58-18.27,3.58-27.61,0-25.71-9.22-50.61-25.95-70.09-.31-.36-.43-.84-.33-1.3.03-.12.07-.24.12-.35l-3.33-5.92c-1.02-1.29-3.67-4.53-4.87-5.52-1.35-1.11-3.75-3.08-4.53-3.72-1.42-.38-7.08-1.97-11.01-3.96-.04-.02-.09-.05-.13-.07-.77-.49-1.55-.97-2.34-1.44,0,0-.01,0-.02-.01,0,0-.02,0-.02-.01-16.65-9.97-35.75-15.25-55.25-15.25-13.88,0-27.39,2.61-40.18,7.75-.07.03-.15.05-.22.07-2.61.61-5.11.36-7.11.16-1.02-.1-2.42-.24-2.77-.06-.81.56-2.32,1.19-4.23,1.98-2.19.9-4.9,2.02-5.99,2.92-.47.39-1.07,1.5-1.77,2.78-1.31,2.42-3.12,5.74-6.52,9.24-.04.04-.08.07-.12.11-1.38,1.15-2.75,2.35-4.07,3.58,0,0-.02.01-.02.02-.01.01-.02.02-.03.03C27.86,59.21,15.24,88.03,15.24,117.96c0,23.41,7.38,45.66,21.35,64.36.07.09.12.19.17.29,2.46,5.55,3.61,10.02,4.38,12.98.31,1.19.66,2.54.85,2.85.73.99,9.86,8.87,13.43,10.91,1.43.82,3.37.8,5.63.79.28,0,.56,0,.85,0Z"/>
  <path class="cls-1" d="m196.32,53.34c-5.61,0-14.23-2.86-18.53-6.5-3.09-2.62-3.11-7.27-.05-11.3,2.91-3.83,8.41-6.35,13.6-2.81h0c12.24,8.33,12.83,11.48,11.23,16.25-.14.42-.29.87-.42,1.34-.23.88-.91,2.04-2.81,2.64-.84.26-1.87.39-3.04.39Zm-10.23-19.29c-2.35,0-4.52,1.42-5.96,3.31-1.68,2.21-2.52,5.4-.4,7.2,4.32,3.66,14.82,6.77,18.73,5.54.27-.09.74-.27.81-.55.14-.54.31-1.04.47-1.52.94-2.82,1.62-4.85-10.08-12.81-1.19-.81-2.4-1.16-3.57-1.16Z"/>
</svg>