<?xml version="1.0" encoding="UTF-8"?>
<svg id="Layer_1" data-name="Layer 1" xmlns="http://www.w3.org/2000/svg" viewBox="0 0 533.16 677.07">
  <defs>
    <style>
      .cls-1, .cls-2 {
        stroke-width: 0px;
      }

        :root { fill:#222 }
        .accent { fill: #f9322c; }

        @media (prefers-color-scheme: dark) {
        :root {  fill: #f9322c; }
        .accent { fill:#dee2e6; }
        }
    </style>
  </defs>
  <path class="cls-1" d="m449.74,256.47c-.83,0-1.5-.67-1.5-1.5v-17.44c0-.83.67-1.5,1.5-1.5s1.5.67,1.5,1.5v17.44c0,.83-.67,1.5-1.5,1.5Z"/>
  <path class="cls-1" d="m449.74,285.2c-.83,0-1.5-.67-1.5-1.5v-17.44c0-.83.67-1.5,1.5-1.5s1.5.67,1.5,1.5v17.44c0,.83-.67,1.5-1.5,1.5Z"/>
  <path class="cls-1" d="m444.1,262.12h-17.44c-.83,0-1.5-.67-1.5-1.5s.67-1.5,1.5-1.5h17.44c.83,0,1.5.67,1.5,1.5s-.67,1.5-1.5,1.5Z"/>
  <path class="cls-1" d="m472.83,262.12h-17.44c-.83,0-1.5-.67-1.5-1.5s.67-1.5,1.5-1.5h17.44c.83,0,1.5.67,1.5,1.5s-.67,1.5-1.5,1.5Z"/>
  <path class="cls-1" d="m360.31,74.73c-.83,0-1.5-.67-1.5-1.5v-17.44c0-.83.67-1.5,1.5-1.5s1.5.67,1.5,1.5v17.44c0,.83-.67,1.5-1.5,1.5Z"/>
  <path class="cls-1" d="m360.31,103.46c-.83,0-1.5-.67-1.5-1.5v-17.44c0-.83.67-1.5,1.5-1.5s1.5.67,1.5,1.5v17.44c0,.83-.67,1.5-1.5,1.5Z"/>
  <path class="cls-1" d="m354.67,80.38h-17.44c-.83,0-1.5-.67-1.5-1.5s.67-1.5,1.5-1.5h17.44c.83,0,1.5.67,1.5,1.5s-.67,1.5-1.5,1.5Z"/>
  <path class="cls-1" d="m383.4,80.38h-17.44c-.83,0-1.5-.67-1.5-1.5s.67-1.5,1.5-1.5h17.44c.83,0,1.5.67,1.5,1.5s-.67,1.5-1.5,1.5Z"/>
  <path class="cls-1" d="m108.25,505.26c-.83,0-1.5-.67-1.5-1.5v-17.44c0-.83.67-1.5,1.5-1.5s1.5.67,1.5,1.5v17.44c0,.83-.67,1.5-1.5,1.5Z"/>
  <path class="cls-1" d="m108.25,533.99c-.83,0-1.5-.67-1.5-1.5v-17.44c0-.83.67-1.5,1.5-1.5s1.5.67,1.5,1.5v17.44c0,.83-.67,1.5-1.5,1.5Z"/>
  <path class="cls-1" d="m102.6,510.9h-17.44c-.83,0-1.5-.67-1.5-1.5s.67-1.5,1.5-1.5h17.44c.83,0,1.5.67,1.5,1.5s-.67,1.5-1.5,1.5Z"/>
  <path class="cls-1" d="m131.33,510.9h-17.44c-.83,0-1.5-.67-1.5-1.5s.67-1.5,1.5-1.5h17.44c.83,0,1.5.67,1.5,1.5s-.67,1.5-1.5,1.5Z"/>
  <path class="cls-1" d="m81.02,91.71c-.83,0-1.5-.67-1.5-1.5v-17.44c0-.83.67-1.5,1.5-1.5s1.5.67,1.5,1.5v17.44c0,.83-.67,1.5-1.5,1.5Z"/>
  <path class="cls-1" d="m81.02,120.44c-.83,0-1.5-.67-1.5-1.5v-17.44c0-.83.67-1.5,1.5-1.5s1.5.67,1.5,1.5v17.44c0,.83-.67,1.5-1.5,1.5Z"/>
  <path class="cls-1" d="m75.38,97.36h-17.44c-.83,0-1.5-.67-1.5-1.5s.67-1.5,1.5-1.5h17.44c.83,0,1.5.67,1.5,1.5s-.67,1.5-1.5,1.5Z"/>
  <path class="cls-1" d="m104.1,97.36h-17.44c-.83,0-1.5-.67-1.5-1.5s.67-1.5,1.5-1.5h17.44c.83,0,1.5.67,1.5,1.5s-.67,1.5-1.5,1.5Z"/>
  <path class="cls-1" d="m71.2,87.54c-.38,0-.77-.15-1.06-.44l-10.33-10.33c-.59-.59-.59-1.54,0-2.12s1.54-.59,2.12,0l10.33,10.33c.59.59.59,1.54,0,2.12-.29.29-.68.44-1.06.44Z"/>
  <path class="cls-1" d="m101.17,117.51c-.38,0-.77-.15-1.06-.44l-10.33-10.33c-.59-.59-.59-1.54,0-2.12s1.54-.59,2.12,0l10.33,10.33c.59.59.59,1.54,0,2.12-.29.29-.68.44-1.06.44Z"/>
  <path class="cls-1" d="m60.87,117.51c-.38,0-.77-.15-1.06-.44-.59-.59-.59-1.54,0-2.12l10.33-10.33c.59-.59,1.54-.59,2.12,0s.59,1.54,0,2.12l-10.33,10.33c-.29.29-.68.44-1.06.44Z"/>
  <path class="cls-1" d="m90.84,87.54c-.38,0-.77-.15-1.06-.44-.59-.59-.59-1.54,0-2.12l10.33-10.33c.59-.59,1.54-.59,2.12,0s.59,1.54,0,2.12l-10.33,10.33c-.29.29-.68.44-1.06.44Z"/>
  <path class="cls-1" d="m454.94,528.34c-.83,0-1.5-.67-1.5-1.5v-17.44c0-.83.67-1.5,1.5-1.5s1.5.67,1.5,1.5v17.44c0,.83-.67,1.5-1.5,1.5Z"/>
  <path class="cls-1" d="m454.94,557.07c-.83,0-1.5-.67-1.5-1.5v-17.44c0-.83.67-1.5,1.5-1.5s1.5.67,1.5,1.5v17.44c0,.83-.67,1.5-1.5,1.5Z"/>
  <path class="cls-1" d="m449.3,533.99h-17.44c-.83,0-1.5-.67-1.5-1.5s.67-1.5,1.5-1.5h17.44c.83,0,1.5.67,1.5,1.5s-.67,1.5-1.5,1.5Z"/>
  <path class="cls-1" d="m478.03,533.99h-17.44c-.83,0-1.5-.67-1.5-1.5s.67-1.5,1.5-1.5h17.44c.83,0,1.5.67,1.5,1.5s-.67,1.5-1.5,1.5Z"/>
  <path class="cls-1" d="m445.13,524.17c-.38,0-.77-.15-1.06-.44l-10.33-10.33c-.59-.59-.59-1.54,0-2.12s1.54-.59,2.12,0l10.33,10.33c.59.59.59,1.54,0,2.12-.29.29-.68.44-1.06.44Z"/>
  <path class="cls-1" d="m475.09,554.14c-.38,0-.77-.15-1.06-.44l-10.33-10.33c-.59-.59-.59-1.54,0-2.12s1.54-.59,2.12,0l10.33,10.33c.59.59.59,1.54,0,2.12-.29.29-.68.44-1.06.44Z"/>
  <path class="cls-1" d="m434.79,554.14c-.38,0-.77-.15-1.06-.44-.59-.59-.59-1.54,0-2.12l10.33-10.33c.59-.59,1.54-.59,2.12,0s.59,1.54,0,2.12l-10.33,10.33c-.29.29-.68.44-1.06.44Z"/>
  <path class="cls-1" d="m464.76,524.17c-.38,0-.77-.15-1.06-.44-.59-.59-.59-1.54,0-2.12l10.33-10.33c.59-.59,1.54-.59,2.12,0s.59,1.54,0,2.12l-10.33,10.33c-.29.29-.68.44-1.06.44Z"/>
  <g>
    <path class="accent" d="m271.58,6.99s-19.34,19.28-25.24,46.44c0,0,8.78-8.37,25.24-8.37"/>
    <path class="accent" d="m271.58,6.99s19.34,19.28,25.24,46.44c0,0-8.78-8.37-25.24-8.37"/>
    <path class="accent" d="m250.49,314.67c-9.19,18.66-14.27,35.81-16.19,66.67s-16.19,147.89-16.19,164.9-3.29,72.57-3.29,72.57c0,0,3.86-15.83,21.69-15.55,17.83.27,27.42,10.48,27.42,10.48,0,0,2.33-84.65,1.37-118.67-.96-34.02-2.74-115.92-3.84-135.27-1.1-19.34-10.98-45.14-10.98-45.14Z"/>
    <path class="accent" d="m294.67,314.67c9.19,18.66,14.27,35.81,16.19,66.67,1.92,30.87,16.19,147.89,16.19,164.9s3.29,72.57,3.29,72.57c0,0-3.86-15.83-21.69-15.55-17.83.27-27.42,10.48-27.42,10.48,0,0-2.33-84.65-1.37-118.67s2.74-115.92,3.84-135.27c1.1-19.34,10.98-45.14,10.98-45.14Z"/>
    <path class="cls-1" d="m241.34,52.92c-.25,0-.51-.06-.74-.19-.57-.32-.87-.98-.73-1.62,5.92-27.28,24.85-46.38,25.65-47.18.59-.59,1.54-.58,2.12,0,.58.59.58,1.54,0,2.12-.18.18-17.21,17.39-23.86,41.69,4.1-2.59,11.78-6.19,22.8-6.19.83,0,1.5.67,1.5,1.5s-.67,1.5-1.5,1.5c-15.6,0-24.13,7.88-24.21,7.96-.29.27-.66.41-1.03.41Z"/>
    <path class="cls-1" d="m238.76,326.08c-.7,0-1.33-.49-1.47-1.21-6.04-30.07,2.2-107.09,2.56-110.36l2.49-31.97-2.47-14.12c-.01-.09-.02-.17-.02-.26V51.43c0-.83.67-1.5,1.5-1.5s1.5.67,1.5,1.5v116.62l2.48,14.17c.02.12.03.25.02.38l-2.5,32.21c-.09.84-8.55,79.87-2.6,109.49.16.81-.36,1.6-1.18,1.77-.1.02-.2.03-.3.03Z"/>
    <path class="cls-1" d="m208.82,617.32c-.07,0-.15,0-.22-.02-.77-.12-1.32-.8-1.27-1.57.03-.55,3.29-55.71,3.29-72.48,0-9.14,3.95-45.65,8.13-84.3,3.52-32.59,7.17-66.29,8.06-80.69,2.02-32.48,7.75-49.81,16.34-67.24.26-.53.79-.87,1.42-.83.6.03,1.12.4,1.33.96.41,1.06,9.97,26.23,11.07,45.59.77,13.6,1.9,58.77,2.8,95.07.39,15.72.75,30.11,1.04,40.24.95,33.67-1.35,117.9-1.37,118.75-.02.61-.4,1.15-.97,1.36-.57.21-1.21.07-1.63-.38-.09-.1-9.42-9.74-26.35-10-.14,0-.28,0-.42,0-16.09,0-19.75,14.27-19.79,14.41-.17.68-.77,1.14-1.46,1.14Zm35.47-301.79c-7.74,16.41-12.62,32.75-14.49,62.91-.9,14.46-4.55,48.2-8.08,80.83-3.99,36.88-8.11,75-8.11,83.98,0,13.12-1.98,49.49-2.87,65.24,3.18-4.58,9.04-9.72,19.31-9.72.16,0,.32,0,.48,0,13.18.2,21.96,5.59,25.98,8.74.41-15.77,2.13-85.54,1.29-115.38-.29-10.14-.65-24.53-1.04-40.25-.91-36.27-2.03-81.42-2.8-94.97-.84-14.85-7.02-33.81-9.67-41.36Z"/>
    <path class="cls-1" d="m243.79,184.61c-.33,0-.65-.11-.93-.32-.65-.51-.76-1.45-.25-2.1.27-.35,6.87-8.52,23.97-8.52.83,0,1.5.67,1.5,1.5s-.67,1.5-1.5,1.5c-15.53,0-21.55,7.3-21.61,7.38-.3.37-.73.56-1.18.56Z"/>
    <path class="cls-1" d="m241.84,209.29c-.35,0-.69-.12-.98-.36-.63-.54-.7-1.48-.17-2.11.29-.35,7.42-8.47,25.88-8.47.83,0,1.5.67,1.5,1.5s-.67,1.5-1.5,1.5c-16.96,0-23.54,7.35-23.6,7.42-.3.34-.72.52-1.14.52Z"/>
    <path class="cls-1" d="m236.6,297.94c-.39,0-.79-.15-1.08-.46-.57-.59-.56-1.54.03-2.11.35-.34,8.88-8.37,31.02-8.37.83,0,1.5.67,1.5,1.5s-.67,1.5-1.5,1.5c-20.79,0-28.86,7.45-28.94,7.52-.29.28-.66.41-1.04.41Z"/>
    <path class="cls-1" d="m256.23,377.6c-.74,0-1.38-.55-1.48-1.3-.11-.82.46-1.58,1.29-1.69,3.31-.45,6.86-.68,10.55-.68.83,0,1.5.67,1.5,1.5s-.67,1.5-1.5,1.5c-3.56,0-6.97.22-10.15.65-.07,0-.14.01-.2.01Z"/>
    <path class="cls-1" d="m256.75,394.79c-.73,0-1.38-.54-1.48-1.29-.12-.82.45-1.58,1.27-1.7,3.16-.45,6.54-.68,10.04-.68.83,0,1.5.67,1.5,1.5s-.67,1.5-1.5,1.5c-3.37,0-6.6.22-9.62.65-.07,0-.14.01-.21.01Z"/>
    <path class="cls-1" d="m258.63,582.35c-.71,0-1.35-.51-1.48-1.24-.14-.82.4-1.59,1.22-1.74,2.58-.45,5.34-.68,8.21-.68.83,0,1.5.67,1.5,1.5s-.67,1.5-1.5,1.5c-2.7,0-5.28.21-7.68.64-.09.02-.18.02-.26.02Z"/>
    <path class="cls-1" d="m241.84,146.35c-.35,0-.69-.12-.98-.36-.62-.54-.7-1.48-.17-2.11.29-.35,7.42-8.47,25.88-8.47.83,0,1.5.67,1.5,1.5s-.67,1.5-1.5,1.5c-16.96,0-23.54,7.35-23.6,7.42-.3.34-.72.52-1.14.52Z"/>
    <path class="cls-1" d="m241.84,163.4c-.35,0-.69-.12-.98-.36-.63-.54-.7-1.48-.17-2.11.29-.35,7.42-8.47,25.88-8.47.83,0,1.5.67,1.5,1.5s-.67,1.5-1.5,1.5c-16.96,0-23.54,7.35-23.6,7.42-.3.34-.72.52-1.14.52Z"/>
    <path class="cls-1" d="m241.84,132.97c-.35,0-.69-.12-.98-.36-.63-.54-.7-1.48-.17-2.11.29-.35,7.42-8.47,25.88-8.47.83,0,1.5.67,1.5,1.5s-.67,1.5-1.5,1.5c-16.96,0-23.54,7.35-23.6,7.42-.3.34-.72.52-1.14.52Z"/>
    <path class="cls-1" d="m241.84,114.76c-.35,0-.69-.12-.98-.36-.63-.54-.7-1.48-.17-2.11.29-.35,7.42-8.47,25.88-8.47.83,0,1.5.67,1.5,1.5s-.67,1.5-1.5,1.5c-16.96,0-23.54,7.35-23.6,7.42-.3.34-.72.52-1.14.52Z"/>
    <path class="cls-1" d="m234.18,618.03c-3.91,0-6.75-1.71-6.75-4.07s2.84-4.07,6.75-4.07,6.75,1.71,6.75,4.07-2.84,4.07-6.75,4.07Zm-3.72-4.07c.25.35,1.54,1.07,3.72,1.07s3.47-.72,3.72-1.07c-.25-.35-1.55-1.07-3.72-1.07s-3.47.72-3.72,1.07Zm7.48.06h.01-.01Z"/>
    <path class="cls-1" d="m239.43,615.46c-.69,0-1.31-.48-1.46-1.19-.65-3.05-1.71-6.75-2.25-7.4-.56-.52-3.42-.45-4.47-.04-.38.88-.75,4.09-.81,7.16-.02.82-.68,1.47-1.5,1.47h-.03c-.83-.02-1.49-.7-1.47-1.53.16-8.48,1.59-9.31,2.13-9.62,1.52-.87,6.62-1.46,8.41.58,1.25,1.42,2.46,6.6,2.93,8.75.17.81-.34,1.61-1.15,1.78-.11.02-.21.03-.32.03Zm-8.12-8.76h0Z"/>
    <path class="cls-1" d="m222.64,623.8c-3.91,0-6.75-1.71-6.75-4.07s2.84-4.07,6.75-4.07,6.75,1.71,6.75,4.07-2.84,4.07-6.75,4.07Zm-3.72-4.07c.25.35,1.54,1.07,3.72,1.07s3.47-.72,3.72-1.07c-.25-.35-1.55-1.07-3.72-1.07s-3.47.72-3.72,1.07Zm7.48.06h.01-.01Z"/>
    <path class="cls-1" d="m227.88,621.23c-.71,0-1.34-.5-1.47-1.23-.67-3.63-1.76-8-2.31-8.74-.43-.55-3.29-.56-4.35-.06-.46,1.04-.81,5.16-.87,8.55-.01.82-.68,1.48-1.5,1.48h-.02c-.83-.01-1.49-.7-1.48-1.52.15-9.65,1.53-10.56,2.04-10.91,1.76-1.18,6.84-1.62,8.56.65,1.25,1.65,2.51,8.08,2.87,10.01.15.81-.39,1.6-1.2,1.75-.09.02-.18.03-.27.03Z"/>
    <path class="cls-1" d="m245.76,624.2c-3.91,0-6.75-1.71-6.75-4.07s2.84-4.07,6.75-4.07,6.75,1.71,6.75,4.07-2.84,4.07-6.75,4.07Zm-3.72-4.07c.25.35,1.54,1.07,3.72,1.07s3.47-.72,3.72-1.07c-.25-.35-1.55-1.07-3.72-1.07s-3.47.72-3.72,1.07Zm7.48.06h.01-.01Z"/>
    <path class="cls-1" d="m251.01,621.63c-.71,0-1.34-.5-1.47-1.23-.67-3.63-1.76-8.01-2.31-8.74-.43-.55-3.28-.56-4.35-.06-.46,1.04-.81,5.16-.87,8.55-.01.83-.69,1.48-1.52,1.48-.83-.01-1.49-.7-1.48-1.52.15-9.65,1.53-10.56,2.04-10.91,1.76-1.17,6.84-1.62,8.56.65,1.25,1.65,2.51,8.08,2.87,10.01.15.82-.39,1.6-1.2,1.75-.09.02-.18.03-.27.03Zm-8.06-10.14h0Z"/>
    <path class="cls-1" d="m234.2,631.8c-3.91,0-6.75-1.71-6.75-4.07s2.84-4.07,6.75-4.07,6.75,1.71,6.75,4.07-2.84,4.07-6.75,4.07Zm-3.72-4.07c.25.35,1.55,1.07,3.72,1.07s3.47-.72,3.72-1.07c-.25-.35-1.55-1.07-3.72-1.07s-3.47.72-3.72,1.07Zm7.48.06h.01-.01Z"/>
    <path class="cls-1" d="m239.45,629.22c-.71,0-1.34-.5-1.47-1.23-.67-3.63-1.76-8.01-2.31-8.74-.43-.55-3.29-.56-4.35-.06-.46,1.04-.81,5.16-.87,8.55-.01.82-.68,1.48-1.5,1.48h-.02c-.83-.01-1.49-.7-1.48-1.52.15-9.65,1.53-10.56,2.04-10.91,1.76-1.18,6.84-1.62,8.56.65,1.25,1.65,2.51,8.08,2.87,10.01.15.82-.39,1.6-1.2,1.75-.09.02-.18.03-.27.03Zm-8.06-10.14h0Z"/>
    <path class="cls-1" d="m219.92,624.2c-.1,0-.19,0-.29-.03-1.2-.23-11.71-2.44-12.3-8.2-.08-.82.51-1.56,1.34-1.65.82-.07,1.56.51,1.65,1.34.29,2.8,6.79,4.96,9.89,5.56.81.16,1.34.95,1.18,1.76-.14.72-.77,1.21-1.47,1.21Z"/>
    <path class="cls-1" d="m251.01,619.41c-.58,0-1.13-.34-1.38-.9-.33-.76.02-1.64.78-1.97,3-1.31,6.26-3.69,6.14-5.01-.08-.83.53-1.56,1.35-1.63.82-.09,1.56.53,1.63,1.35.39,4.2-6.53,7.43-7.93,8.04-.19.08-.4.12-.6.12Z"/>
    <path class="cls-1" d="m213.83,617.32c-.21,0-.43-.04-.63-.14-.75-.35-1.08-1.24-.73-1.99,3.57-7.66,17.41-14.13,28.48-10.75,10.94,3.34,12.91,7.68,13.1,8.16.3.77-.08,1.64-.85,1.94-.77.3-1.64-.08-1.94-.85h0s-1.71-3.49-11.18-6.38c-9.56-2.92-21.88,2.68-24.88,9.14-.25.55-.8.87-1.36.87Z"/>
    <path class="cls-1" d="m266.59,634.58c-3.91,0-6.75-1.71-6.75-4.07s2.84-4.07,6.75-4.07,6.75,1.71,6.75,4.07-2.84,4.07-6.75,4.07Zm-3.72-4.07c.25.35,1.55,1.07,3.72,1.07s3.47-.72,3.72-1.07c-.25-.35-1.54-1.07-3.72-1.07s-3.47.72-3.72,1.07Zm7.48.06h.01-.01Z"/>
    <path class="cls-1" d="m271.83,632.01c-.69,0-1.31-.48-1.46-1.19-.65-3.05-1.71-6.75-2.25-7.4-.56-.52-3.42-.45-4.47-.04-.38.88-.75,4.09-.81,7.16-.02.83-.73,1.5-1.53,1.47-.83-.02-1.49-.7-1.47-1.53.16-8.48,1.59-9.31,2.13-9.62,1.52-.88,6.61-1.46,8.41.58,1.25,1.42,2.46,6.6,2.93,8.75.17.81-.34,1.61-1.15,1.78-.11.02-.21.03-.32.03Zm-8.12-8.76h0Z"/>
    <path class="cls-1" d="m255.04,640.35c-3.91,0-6.75-1.71-6.75-4.07s2.84-4.07,6.75-4.07,6.75,1.71,6.75,4.07-2.84,4.07-6.75,4.07Zm-3.72-4.07c.25.35,1.54,1.07,3.72,1.07s3.47-.72,3.72-1.07c-.25-.35-1.55-1.07-3.72-1.07s-3.47.72-3.72,1.07Zm7.48.06h.01-.01Z"/>
    <path class="cls-1" d="m260.29,637.78c-.71,0-1.34-.5-1.47-1.23-.67-3.63-1.76-8.01-2.31-8.74-.43-.55-3.29-.56-4.35-.06-.46,1.04-.81,5.16-.87,8.55-.01.82-.68,1.48-1.5,1.48h-.02c-.83-.01-1.49-.7-1.48-1.52.15-9.65,1.53-10.56,2.04-10.91,1.76-1.18,6.84-1.62,8.56.65,1.25,1.65,2.51,8.08,2.87,10.01.15.82-.39,1.6-1.2,1.75-.09.02-.18.03-.27.03Zm-8.06-10.14h0Z"/>
    <path class="cls-1" d="m278.17,640.75c-3.91,0-6.75-1.71-6.75-4.07s2.84-4.07,6.75-4.07,6.75,1.71,6.75,4.07-2.84,4.07-6.75,4.07Zm-3.72-4.07c.25.35,1.55,1.07,3.72,1.07s3.47-.72,3.72-1.07c-.25-.35-1.55-1.07-3.72-1.07s-3.47.72-3.72,1.07Zm7.48.06h.01-.01Z"/>
    <path class="cls-1" d="m283.41,638.18c-.71,0-1.34-.5-1.47-1.23-.67-3.63-1.76-8-2.31-8.74-.43-.55-3.29-.56-4.35-.06-.46,1.04-.81,5.16-.87,8.55-.01.82-.68,1.48-1.5,1.48h-.02c-.83-.01-1.49-.7-1.48-1.52.15-9.65,1.53-10.56,2.04-10.91,1.76-1.18,6.84-1.62,8.56.65,1.25,1.65,2.51,8.08,2.87,10.01.15.81-.39,1.6-1.2,1.75-.09.02-.18.03-.27.03Zm-8.06-10.14h0Z"/>
    <path class="cls-1" d="m266.61,648.34c-3.91,0-6.75-1.71-6.75-4.07s2.84-4.07,6.75-4.07,6.75,1.71,6.75,4.07-2.84,4.07-6.75,4.07Zm-3.72-4.07c.25.35,1.54,1.07,3.72,1.07s3.47-.72,3.72-1.07c-.25-.35-1.55-1.07-3.72-1.07s-3.47.72-3.72,1.07Zm7.48.06h.01-.01Z"/>
    <path class="cls-1" d="m271.85,645.77c-.71,0-1.34-.5-1.47-1.23-.67-3.63-1.76-8.01-2.31-8.74-.43-.55-3.28-.56-4.35-.06-.46,1.04-.81,5.16-.87,8.55-.01.83-.69,1.47-1.52,1.48-.83-.01-1.49-.7-1.48-1.52.15-9.65,1.53-10.56,2.04-10.91,1.77-1.17,6.84-1.62,8.56.65,1.25,1.65,2.51,8.08,2.87,10.01.15.81-.39,1.6-1.2,1.75-.09.02-.18.03-.27.03Zm-8.06-10.14h0Z"/>
    <path class="cls-1" d="m233.81,659.88c-3.91,0-6.75-1.71-6.75-4.07s2.84-4.07,6.75-4.07,6.75,1.71,6.75,4.07-2.84,4.07-6.75,4.07Zm-3.72-4.07c.25.35,1.55,1.07,3.72,1.07s3.47-.72,3.72-1.07c-.25-.35-1.55-1.07-3.72-1.07s-3.47.72-3.72,1.07Zm7.48.06h.01-.01Z"/>
    <path class="cls-1" d="m239.06,657.3c-.69,0-1.31-.48-1.46-1.19-.65-3.05-1.71-6.75-2.25-7.4-.56-.52-3.42-.45-4.47-.04-.38.88-.75,4.09-.81,7.16-.02.82-.68,1.47-1.5,1.47h-.03c-.83-.02-1.49-.7-1.47-1.53.16-8.48,1.59-9.31,2.13-9.62,1.52-.87,6.61-1.46,8.41.58,1.25,1.43,2.46,6.6,2.93,8.75.17.81-.34,1.61-1.15,1.78-.11.02-.21.03-.32.03Zm-8.12-8.76h0Z"/>
    <path class="cls-1" d="m222.27,665.65c-3.91,0-6.75-1.71-6.75-4.07s2.84-4.07,6.75-4.07,6.75,1.71,6.75,4.07-2.84,4.07-6.75,4.07Zm-3.72-4.07c.25.35,1.55,1.07,3.72,1.07s3.47-.72,3.72-1.07c-.25-.35-1.55-1.07-3.72-1.07s-3.47.72-3.72,1.07Zm7.48.06h.01-.01Z"/>
    <path class="cls-1" d="m227.51,663.07c-.71,0-1.34-.5-1.47-1.23-.67-3.63-1.76-8-2.31-8.74-.43-.55-3.29-.56-4.34-.06-.46,1.04-.81,5.16-.87,8.55-.01.82-.68,1.48-1.5,1.48h-.02c-.83-.01-1.49-.7-1.48-1.52.15-9.64,1.53-10.56,2.04-10.9,1.76-1.18,6.84-1.62,8.56.65,1.25,1.65,2.51,8.08,2.87,10.01.15.81-.39,1.6-1.2,1.75-.09.02-.18.03-.27.03Z"/>
    <path class="cls-1" d="m245.39,666.05c-3.91,0-6.75-1.71-6.75-4.07s2.84-4.07,6.75-4.07,6.75,1.71,6.75,4.07-2.84,4.07-6.75,4.07Zm-3.72-4.07c.25.35,1.54,1.07,3.72,1.07s3.47-.72,3.72-1.07c-.25-.35-1.55-1.07-3.72-1.07s-3.47.72-3.72,1.07Zm7.48.06h.01-.01Z"/>
    <path class="cls-1" d="m250.64,663.47c-.71,0-1.34-.5-1.47-1.23-.67-3.63-1.76-8.01-2.31-8.74-.43-.55-3.29-.56-4.34-.06-.46,1.04-.81,5.16-.87,8.55-.01.83-.66,1.49-1.52,1.48-.83-.01-1.49-.7-1.48-1.52.15-9.65,1.53-10.56,2.04-10.91,1.76-1.18,6.84-1.62,8.56.65,1.25,1.65,2.51,8.08,2.87,10.01.15.82-.39,1.6-1.2,1.75-.09.02-.18.03-.27.03Zm-8.06-10.14h0Z"/>
    <path class="cls-1" d="m233.83,673.64c-3.91,0-6.75-1.71-6.75-4.07s2.84-4.07,6.75-4.07,6.75,1.71,6.75,4.07-2.84,4.07-6.75,4.07Zm-3.72-4.07c.25.35,1.55,1.07,3.72,1.07s3.47-.72,3.72-1.07c-.25-.35-1.55-1.07-3.72-1.07s-3.47.72-3.72,1.07Zm7.48.06h.01-.01Z"/>
    <path class="cls-1" d="m239.08,671.06c-.71,0-1.34-.5-1.47-1.23-.67-3.63-1.76-8.01-2.31-8.74-.43-.55-3.28-.56-4.34-.06-.46,1.04-.81,5.16-.87,8.55-.01.82-.68,1.48-1.5,1.48h-.02c-.83-.01-1.49-.7-1.48-1.52.15-9.65,1.53-10.56,2.04-10.91,1.76-1.18,6.84-1.62,8.56.65,1.25,1.65,2.51,8.08,2.87,10.01.15.82-.39,1.6-1.2,1.75-.09.02-.18.03-.27.03Z"/>
    <path class="cls-1" d="m213.46,659.16c-.21,0-.43-.04-.63-.14-.75-.35-1.08-1.24-.73-1.99,3.57-7.66,17.41-14.13,28.48-10.75,10.94,3.34,12.91,7.68,13.1,8.16.3.77-.08,1.64-.85,1.94-.77.3-1.64-.08-1.94-.85h0s-1.71-3.49-11.18-6.38c-9.56-2.92-21.88,2.68-24.88,9.14-.25.55-.8.87-1.36.87Z"/>
    <path class="cls-1" d="m219.92,666.37s-.08,0-.12,0c-.32-.02-7.92-.69-12.25-7.63-.13-.22-.21-.46-.23-.72,0-.05-.25-4.8-.37-11.14-.18-9.29-.1-21.9,1.32-29.25.16-.81.95-1.35,1.76-1.19.81.16,1.35.94,1.19,1.76-1.36,7.09-1.44,19.48-1.26,28.62.1,5.24.29,9.39.35,10.65,3.55,5.33,9.67,5.9,9.74,5.91.82.07,1.44.79,1.37,1.62-.06.78-.72,1.38-1.49,1.38Z"/>
    <path class="cls-1" d="m251.01,662.66c-.48,0-.95-.23-1.24-.65-.47-.68-.29-1.62.39-2.08.05-.04,5.47-3.83,5.08-8.3-.28-3.14-3.52-6.21-9.38-8.87-19.83-9.01-30.58,1.74-36.35,7.51-.59.59-1.54.59-2.12,0s-.59-1.54,0-2.12c5.83-5.84,17.98-17.98,39.71-8.12,7,3.18,10.75,7,11.13,11.35.54,6.22-6.09,10.83-6.37,11.03-.26.18-.55.26-.85.26Z"/>
    <path class="cls-1" d="m291.82,52.93c-.38,0-.75-.14-1.04-.41-.08-.08-8.6-7.95-24.21-7.95-.83,0-1.5-.67-1.5-1.5s.67-1.5,1.5-1.5c11.02,0,18.69,3.59,22.79,6.19-6.64-24.3-23.67-41.51-23.85-41.69-.59-.58-.59-1.54,0-2.12.58-.59,1.53-.59,2.12,0,.8.8,19.73,19.9,25.65,47.18.14.64-.16,1.3-.73,1.63-.23.13-.48.19-.73.19Z"/>
    <path class="cls-1" d="m294.4,326.08c-.1,0-.2,0-.3-.03-.81-.16-1.34-.95-1.17-1.77,5.95-29.62-2.51-108.65-2.6-109.44l-2.51-32.25c0-.12,0-.25.02-.38l2.48-14.17V51.43c0-.83.67-1.5,1.5-1.5s1.5.67,1.5,1.5v116.75c0,.09,0,.17-.02.26l-2.47,14.12,2.49,32.02c.35,3.22,8.59,80.24,2.55,110.31-.14.71-.77,1.2-1.47,1.2Z"/>
    <path class="cls-1" d="m324.34,617.32c-.68,0-1.29-.46-1.46-1.14-.15-.59-3.77-14.41-19.78-14.41-.14,0-.29,0-.43,0-16.93.26-26.26,9.91-26.35,10.01-.42.44-1.06.59-1.63.37-.57-.22-.95-.75-.96-1.36-.02-.85-2.32-85.08-1.37-118.75.29-10.16.65-24.59,1.04-40.35.91-36.25,2.03-81.37,2.8-94.96,1.1-19.35,10.67-44.52,11.07-45.59.21-.56.74-.93,1.33-.96.63-.03,1.15.3,1.42.83,8.59,17.44,14.32,34.77,16.34,67.24.9,14.39,4.54,48.09,8.06,80.67,4.18,38.66,8.13,75.18,8.13,84.32,0,16.77,3.26,71.93,3.29,72.48.05.78-.51,1.46-1.27,1.57-.08.01-.15.02-.22.02Zm-21.24-18.56c10.27,0,16.13,5.14,19.31,9.72-.89-15.75-2.87-52.12-2.87-65.24,0-8.98-4.12-47.12-8.11-84-3.53-32.62-7.17-66.35-8.07-80.81-1.88-30.16-6.75-46.5-14.49-62.91-2.65,7.56-8.83,26.52-9.67,41.36-.77,13.54-1.89,58.64-2.8,94.87-.39,15.76-.75,30.2-1.04,40.36-.84,29.85.88,99.61,1.29,115.38,4.02-3.15,12.8-8.53,25.98-8.74.16,0,.32,0,.48,0Z"/>
    <path class="cls-1" d="m289.37,184.61c-.45,0-.89-.2-1.18-.58-.05-.07-6.08-7.37-21.61-7.37-.83,0-1.5-.67-1.5-1.5s.67-1.5,1.5-1.5c17.1,0,23.7,8.17,23.97,8.52.51.65.4,1.59-.26,2.11-.27.21-.6.32-.92.32Z"/>
    <path class="cls-1" d="m291.32,209.29c-.42,0-.85-.18-1.14-.53-.06-.07-6.64-7.41-23.6-7.41-.83,0-1.5-.67-1.5-1.5s.67-1.5,1.5-1.5c18.47,0,25.59,8.12,25.88,8.47.54.63.46,1.58-.17,2.11-.28.24-.63.36-.97.36Z"/>
    <path class="cls-1" d="m296.56,297.94c-.38,0-.75-.14-1.04-.42-.07-.07-8.14-7.52-28.93-7.52-.83,0-1.5-.67-1.5-1.5s.67-1.5,1.5-1.5c22.15,0,30.67,8.02,31.02,8.37.59.58.61,1.53.03,2.12-.29.3-.68.46-1.08.46Z"/>
    <path class="cls-1" d="m276.93,377.6c-.07,0-.13,0-.2-.01-3.18-.43-6.59-.65-10.15-.65-.83,0-1.5-.67-1.5-1.5s.67-1.5,1.5-1.5c3.69,0,7.24.23,10.55.68.82.11,1.4.87,1.29,1.69-.1.75-.75,1.3-1.48,1.3Z"/>
    <path class="cls-1" d="m276.41,394.79c-.07,0-.14,0-.21-.01-3.02-.43-6.25-.65-9.62-.65-.83,0-1.5-.67-1.5-1.5s.67-1.5,1.5-1.5c3.51,0,6.89.23,10.04.68.82.12,1.39.88,1.27,1.7-.11.75-.75,1.29-1.48,1.29Z"/>
    <path class="cls-1" d="m274.53,582.35c-.09,0-.17,0-.26-.02-2.4-.42-4.99-.64-7.68-.64-.83,0-1.5-.67-1.5-1.5s.67-1.5,1.5-1.5c2.87,0,5.63.23,8.21.68.82.14,1.36.92,1.22,1.74-.13.73-.76,1.24-1.48,1.24Z"/>
    <path class="cls-1" d="m291.32,146.35c-.42,0-.85-.18-1.14-.53-.06-.07-6.64-7.42-23.6-7.42-.83,0-1.5-.67-1.5-1.5s.67-1.5,1.5-1.5c18.47,0,25.59,8.13,25.88,8.47.54.63.46,1.58-.17,2.11-.28.24-.63.36-.97.36Z"/>
    <path class="cls-1" d="m291.32,163.41c-.42,0-.85-.18-1.14-.53-.06-.07-6.64-7.41-23.6-7.41-.83,0-1.5-.67-1.5-1.5s.67-1.5,1.5-1.5c18.47,0,25.59,8.12,25.88,8.47.54.63.46,1.58-.17,2.11-.28.24-.63.36-.97.36Z"/>
    <path class="cls-1" d="m291.32,132.98c-.42,0-.85-.18-1.14-.53-.06-.07-6.64-7.41-23.6-7.41-.83,0-1.5-.67-1.5-1.5s.67-1.5,1.5-1.5c18.47,0,25.59,8.12,25.88,8.47.54.63.46,1.58-.17,2.11-.28.24-.63.36-.97.36Z"/>
    <path class="cls-1" d="m291.32,114.76c-.42,0-.85-.18-1.14-.53-.06-.07-6.64-7.41-23.6-7.41-.83,0-1.5-.67-1.5-1.5s.67-1.5,1.5-1.5c18.47,0,25.59,8.12,25.88,8.47.54.63.46,1.58-.17,2.11-.28.24-.63.36-.97.36Z"/>
    <path class="cls-1" d="m298.98,618.03c-3.91,0-6.75-1.71-6.75-4.07s2.84-4.07,6.75-4.07,6.75,1.71,6.75,4.07-2.84,4.07-6.75,4.07Zm-3.72-4.07c.25.35,1.54,1.07,3.72,1.07s3.47-.72,3.72-1.07c-.25-.35-1.54-1.07-3.72-1.07s-3.47.72-3.72,1.07Z"/>
    <path class="cls-1" d="m293.73,615.46c-.1,0-.21-.01-.32-.03-.81-.17-1.33-.97-1.15-1.78.46-2.16,1.67-7.33,2.93-8.75,1.79-2.04,6.89-1.45,8.41-.58.54.31,1.97,1.13,2.13,9.62.01.83-.64,1.51-1.47,1.53h-.03c-.82,0-1.48-.65-1.5-1.47-.06-3.07-.43-6.28-.81-7.16-1.05-.41-3.92-.48-4.48.05-.53.64-1.58,4.34-2.24,7.39-.15.71-.77,1.19-1.46,1.19Zm8.12-8.76h0,0Z"/>
    <path class="cls-1" d="m310.52,623.8c-3.91,0-6.75-1.71-6.75-4.07s2.84-4.07,6.75-4.07,6.75,1.71,6.75,4.07-2.84,4.07-6.75,4.07Zm-3.72-4.07c.25.35,1.55,1.07,3.72,1.07s3.47-.72,3.72-1.07c-.25-.35-1.55-1.07-3.72-1.07s-3.47.72-3.72,1.07Z"/>
    <path class="cls-1" d="m305.28,621.23c-.09,0-.18,0-.27-.03-.81-.15-1.35-.93-1.2-1.75.36-1.93,1.62-8.36,2.87-10.01,1.72-2.27,6.8-1.83,8.56-.65.52.34,1.89,1.26,2.04,10.9.01.83-.65,1.51-1.48,1.52h-.02c-.82,0-1.49-.66-1.5-1.48-.05-3.39-.41-7.5-.87-8.55-1.06-.5-3.92-.5-4.35.06-.55.73-1.64,5.11-2.3,8.74-.13.72-.76,1.23-1.47,1.23Zm8.06-10.14h0Z"/>
    <path class="cls-1" d="m287.4,624.2c-3.91,0-6.75-1.71-6.75-4.07s2.84-4.07,6.75-4.07,6.75,1.71,6.75,4.07-2.84,4.07-6.75,4.07Zm-3.72-4.07c.25.35,1.54,1.07,3.72,1.07s3.47-.72,3.72-1.07c-.25-.35-1.55-1.07-3.72-1.07s-3.47.72-3.72,1.07Z"/>
    <path class="cls-1" d="m282.15,621.63c-.09,0-.18,0-.27-.02-.81-.15-1.35-.93-1.2-1.75.36-1.93,1.62-8.36,2.87-10.01,1.72-2.27,6.8-1.83,8.56-.65.52.34,1.89,1.26,2.04,10.91.01.83-.65,1.51-1.48,1.52h-.02c-.82,0-1.49-.66-1.5-1.48-.05-3.39-.41-7.5-.87-8.55-1.06-.5-3.91-.5-4.35.06-.55.73-1.64,5.11-2.3,8.74-.13.72-.76,1.23-1.47,1.23Z"/>
    <path class="cls-1" d="m298.96,631.8c-3.91,0-6.75-1.71-6.75-4.07s2.84-4.07,6.75-4.07,6.75,1.71,6.75,4.07-2.84,4.07-6.75,4.07Zm-3.72-4.07c.25.35,1.55,1.07,3.72,1.07s3.47-.72,3.72-1.07c-.25-.35-1.55-1.07-3.72-1.07s-3.47.72-3.72,1.07Z"/>
    <path class="cls-1" d="m293.72,629.22c-.09,0-.18,0-.27-.02-.81-.15-1.35-.93-1.2-1.75.36-1.93,1.62-8.36,2.87-10.01,1.72-2.27,6.8-1.83,8.56-.65.52.34,1.89,1.26,2.04,10.91.01.83-.65,1.51-1.48,1.52-.82-.04-1.51-.65-1.52-1.48-.05-3.39-.41-7.5-.87-8.55-1.06-.51-3.92-.5-4.35.06-.55.73-1.64,5.11-2.3,8.74-.13.72-.76,1.23-1.47,1.23Zm8.06-10.14h0Z"/>
    <path class="cls-1" d="m313.24,624.2c-.7,0-1.33-.5-1.47-1.21-.16-.81.37-1.6,1.18-1.76,3.1-.61,9.6-2.77,9.89-5.56.08-.82.81-1.41,1.65-1.34.82.08,1.42.82,1.34,1.65-.59,5.76-11.1,7.97-12.3,8.2-.1.02-.19.03-.29.03Z"/>
    <path class="cls-1" d="m282.15,619.41c-.2,0-.4-.04-.6-.12-1.39-.61-8.32-3.83-7.93-8.04.08-.83.81-1.44,1.63-1.35.82.08,1.43.81,1.35,1.63-.13,1.45,3.54,3.88,6.14,5.01.76.33,1.11,1.21.78,1.97-.25.57-.8.9-1.38.9Z"/>
    <path class="cls-1" d="m319.33,617.32c-.57,0-1.11-.32-1.36-.87-3.01-6.46-15.32-12.06-24.88-9.14-9.48,2.89-11.18,6.39-11.2,6.42-.34.74-1.21,1.09-1.96.77-.75-.32-1.12-1.15-.82-1.9.19-.48,2.16-4.82,13.1-8.16,11.07-3.38,24.91,3.09,28.48,10.75.35.75.02,1.64-.73,1.99-.21.09-.42.14-.63.14Z"/>
    <path class="cls-1" d="m299.35,659.88c-3.91,0-6.75-1.71-6.75-4.07s2.84-4.07,6.75-4.07,6.75,1.71,6.75,4.07-2.84,4.07-6.75,4.07Zm-3.72-4.07c.25.35,1.55,1.07,3.72,1.07s3.47-.72,3.72-1.07c-.25-.35-1.54-1.07-3.72-1.07s-3.47.72-3.72,1.07Z"/>
    <path class="cls-1" d="m294.1,657.3c-.1,0-.21-.01-.32-.03-.81-.17-1.33-.97-1.15-1.78.46-2.16,1.67-7.33,2.93-8.75,1.79-2.04,6.89-1.45,8.41-.58.54.31,1.97,1.13,2.13,9.62.01.83-.64,1.51-1.47,1.53h-.03c-.82,0-1.48-.65-1.5-1.47-.06-3.07-.43-6.28-.81-7.16-1.05-.41-3.92-.48-4.48.05-.53.64-1.58,4.34-2.24,7.39-.15.7-.77,1.19-1.46,1.19Z"/>
    <path class="cls-1" d="m310.89,665.65c-3.91,0-6.75-1.71-6.75-4.07s2.84-4.07,6.75-4.07,6.75,1.71,6.75,4.07-2.84,4.07-6.75,4.07Zm-3.72-4.07c.25.35,1.55,1.07,3.72,1.07s3.47-.72,3.72-1.07c-.25-.35-1.55-1.07-3.72-1.07s-3.47.72-3.72,1.07Z"/>
    <path class="cls-1" d="m305.65,663.07c-.09,0-.18,0-.27-.02-.81-.15-1.35-.93-1.2-1.75.36-1.93,1.62-8.36,2.87-10.01,1.72-2.27,6.79-1.83,8.56-.65.52.34,1.89,1.26,2.04,10.9.01.83-.65,1.51-1.48,1.52h-.02c-.82,0-1.49-.66-1.5-1.48-.05-3.39-.41-7.5-.87-8.55-1.06-.5-3.91-.5-4.35.06-.55.73-1.64,5.11-2.3,8.74-.13.72-.76,1.23-1.47,1.23Z"/>
    <path class="cls-1" d="m287.77,666.05c-3.91,0-6.75-1.71-6.75-4.07s2.84-4.07,6.75-4.07,6.75,1.71,6.75,4.07-2.84,4.07-6.75,4.07Zm-3.72-4.07c.25.35,1.54,1.07,3.72,1.07s3.47-.72,3.72-1.07c-.25-.35-1.55-1.07-3.72-1.07s-3.47.72-3.72,1.07Z"/>
    <path class="cls-1" d="m282.52,663.47c-.09,0-.18,0-.27-.02-.81-.15-1.35-.93-1.2-1.75.36-1.93,1.62-8.36,2.87-10.01,1.72-2.27,6.8-1.83,8.56-.65.52.34,1.89,1.26,2.04,10.91.01.83-.65,1.51-1.48,1.52-.82,0-1.51-.65-1.52-1.48-.05-3.39-.41-7.5-.87-8.55-1.06-.5-3.91-.5-4.35.06-.55.73-1.64,5.11-2.3,8.74-.13.72-.76,1.23-1.47,1.23Zm8.06-10.14h0Z"/>
    <path class="cls-1" d="m299.33,673.64c-3.91,0-6.75-1.71-6.75-4.07s2.84-4.07,6.75-4.07,6.75,1.71,6.75,4.07-2.84,4.07-6.75,4.07Zm-3.72-4.07c.25.35,1.55,1.07,3.72,1.07s3.47-.72,3.72-1.07c-.25-.35-1.55-1.07-3.72-1.07s-3.47.72-3.72,1.07Z"/>
    <path class="cls-1" d="m294.09,671.06c-.09,0-.18,0-.27-.02-.81-.15-1.35-.93-1.2-1.75.36-1.93,1.62-8.36,2.87-10.01,1.72-2.27,6.8-1.83,8.56-.65.52.34,1.89,1.26,2.04,10.91.01.83-.65,1.51-1.48,1.52h-.02c-.82,0-1.49-.66-1.5-1.48-.05-3.39-.41-7.5-.87-8.55-1.06-.5-3.92-.5-4.35.06-.55.73-1.64,5.11-2.3,8.74-.13.72-.76,1.23-1.47,1.23Z"/>
    <path class="cls-1" d="m319.7,659.16c-.57,0-1.11-.32-1.36-.87-3.01-6.46-15.32-12.06-24.88-9.14-9.48,2.89-11.18,6.39-11.2,6.42-.34.74-1.21,1.09-1.96.77-.75-.32-1.12-1.15-.82-1.9.19-.48,2.16-4.82,13.1-8.16,11.07-3.38,24.91,3.09,28.48,10.75.35.75.02,1.64-.73,1.99-.21.09-.42.14-.63.14Z"/>
    <path class="cls-1" d="m313.24,666.37c-.78,0-1.43-.6-1.49-1.38-.06-.83.55-1.55,1.38-1.61.06,0,6.19-.58,9.73-5.91.06-1.26.25-5.4.35-10.65.18-9.14.1-21.53-1.26-28.62-.16-.81.38-1.6,1.19-1.76.8-.16,1.6.38,1.76,1.19,1.42,7.35,1.5,19.96,1.32,29.25-.12,6.34-.37,11.09-.37,11.14-.01.25-.09.5-.23.72-4.33,6.94-11.93,7.6-12.25,7.63-.04,0-.08,0-.12,0Zm11.1-8.43h0,0Z"/>
    <path class="cls-1" d="m282.15,662.66c-.29,0-.59-.08-.84-.26-.28-.19-6.92-4.81-6.37-11.03.38-4.35,4.12-8.17,11.13-11.35,21.73-9.86,33.87,2.28,39.71,8.12.59.59.59,1.54,0,2.12s-1.54.59-2.12,0c-5.77-5.77-16.5-16.51-36.35-7.51-5.86,2.66-9.1,5.72-9.38,8.87-.4,4.47,5.03,8.26,5.08,8.3.68.47.86,1.4.39,2.08-.29.42-.76.65-1.24.65Z"/>
    <path class="cls-1" d="m263.77,648.34c-.09,0-.18,0-.28-.03-1.21-.23-11.92-2.26-15.26-4.39-3.69-2.35-6.29-7.21-3.28-12.32,4.03-6.82,16.78-14.17,28.41-10.62,10.94,3.34,12.91,7.68,13.1,8.16,1.33,4.05.51,8.41-2.22,12.04-3.04,4.05-7.83,6.46-12.45,6.31-.83-.03-1.48-.72-1.45-1.55.03-.83.73-1.46,1.55-1.45,3.63.13,7.52-1.88,9.95-5.11,1.25-1.66,3.13-5.04,1.83-9.14-.2-.37-2.2-3.65-11.18-6.39-10.08-3.08-21.51,3.44-24.95,9.27-2.01,3.41-.29,6.61,2.31,8.26,2.42,1.54,11.07,3.39,14.2,3.97.81.15,1.35.93,1.2,1.75-.13.72-.76,1.23-1.47,1.23Z"/>
    <path class="cls-1" d="m245.39,636.73c-.81,0-1.48-.65-1.5-1.47l-.26-12.28c-.02-.83.64-1.51,1.47-1.53.78,0,1.51.64,1.53,1.47l.26,12.28c.02.83-.64,1.51-1.47,1.53h-.03Z"/>
    <path class="cls-1" d="m285.6,632.98c-.8,0-1.47-.64-1.5-1.45l-.29-8.53c-.03-.83.62-1.52,1.45-1.55.78-.04,1.52.62,1.55,1.45l.29,8.53c.03.83-.62,1.52-1.45,1.55-.02,0-.03,0-.05,0Z"/>
    <path class="cls-1" d="m258.64,568.17c-.47,0-.94-.22-1.23-.64-1.47-2.09-22.05-17.04-45.09-2.16-.69.45-1.62.25-2.07-.45-.45-.7-.25-1.62.45-2.07,23.94-15.47,46.21-1.26,49.17,2.95.48.68.31,1.61-.36,2.09-.26.18-.56.27-.86.27Z"/>
    <path class="cls-1" d="m258.64,548.37c-.41,0-.81-.17-1.11-.49-1.45-1.59-21.7-12.91-44.4-1.6-.74.37-1.64.07-2.01-.67-.37-.74-.07-1.64.67-2.01,23.33-11.62,45.06-.91,47.95,2.26.56.61.51,1.56-.1,2.12-.29.26-.65.39-1.01.39Z"/>
    <path class="cls-1" d="m258.64,504.19c-.43,0-.85-.18-1.15-.53-1.33-1.58-20-12.84-40.93-1.58-.73.39-1.64.12-2.03-.61-.39-.73-.12-1.64.61-2.03,21.71-11.67,41.95-.91,44.65,2.29.54.63.46,1.58-.18,2.11-.28.24-.63.35-.97.35Z"/>
    <path class="cls-1" d="m274.53,568.17c-.3,0-.6-.09-.86-.27-.68-.48-.84-1.41-.36-2.09,2.96-4.21,25.22-18.42,49.17-2.95.7.45.9,1.38.45,2.07-.45.7-1.38.9-2.07.45-23.04-14.88-43.62.07-45.09,2.16-.29.42-.76.64-1.23.64Z"/>
    <path class="cls-1" d="m274.53,548.37c-.36,0-.72-.13-1.01-.39-.61-.56-.66-1.51-.1-2.12,2.9-3.17,24.62-13.89,47.95-2.26.74.37,1.04,1.27.67,2.01s-1.27,1.04-2.01.67c-22.7-11.31-42.95.01-44.4,1.6-.3.32-.7.49-1.11.49Z"/>
    <path class="cls-1" d="m274.53,504.19c-.34,0-.69-.12-.97-.35-.63-.53-.71-1.48-.18-2.11,2.7-3.19,22.93-13.96,44.65-2.29.73.39,1,1.3.61,2.03-.39.73-1.3,1-2.03.61-20.94-11.26-39.6,0-40.93,1.58-.3.35-.72.53-1.15.53Z"/>
    <path class="cls-1" d="m258.45,201.67h0c-.83,0-1.5-.68-1.49-1.51l.09-24.31c0-.83.67-1.49,1.5-1.49h0c.83,0,1.5.68,1.49,1.51l-.09,24.31c0,.83-.67,1.49-1.5,1.49Z"/>
    <path class="cls-1" d="m277.97,202.58c-.81,0-1.48-.65-1.5-1.46q-.67-25.28.3-25.87c.71-.43,1.63-.21,2.06.5.21.34.26.73.19,1.09-.1,1.56.22,15.58.45,24.21.02.83-.63,1.52-1.46,1.54-.01,0-.03,0-.04,0Z"/>
    <path class="cls-1" d="m244.1,183.46c-.15,0-.3-.02-.45-.07-.79-.25-1.23-1.09-.99-1.88l7.92-25.47c.18-.58.7-1,1.31-1.05.63-.03,1.19.28,1.46.82l7.75,15.41,7.55-16.64c.24-.54.78-.88,1.37-.88h.02c.6,0,1.13.37,1.36.92l7.4,17.5,8.58-11.97c.37-.52,1.04-.75,1.65-.56.61.18,1.04.74,1.07,1.38l.81,20.94c.03.83-.61,1.52-1.44,1.56-.81.05-1.52-.61-1.56-1.44l-.64-16.56-7.59,10.59c-.32.44-.84.67-1.39.62-.54-.06-1-.41-1.22-.91l-7.1-16.81-7.43,16.38c-.24.53-.76.87-1.34.88-.61,0-1.11-.31-1.37-.83l-7.49-14.89-6.82,21.92c-.2.64-.79,1.05-1.43,1.05Z"/>
    <path class="cls-1" d="m241.84,107.99c-.28,0-.56-.08-.8-.23-.41-.26-.66-.69-.69-1.17l-1.14-18.16c-.03-.43.13-.85.44-1.15.27-.27.48-.48,11.72-4.96.43-.17.93-.13,1.33.11.4.24.67.66.72,1.13l1.9,18.06c.07.67-.31,1.3-.94,1.55l-11.98,4.73c-.18.07-.36.1-.55.1Zm.42-18.74l.94,15.08,9-3.56-1.58-14.95c-3.44,1.38-6.85,2.77-8.37,3.42Z"/>
    <path class="cls-1" d="m259.17,105.83c-.22,0-.44-.05-.65-.15l-5.35-2.57c-.75-.36-1.06-1.25-.7-2,.36-.75,1.25-1.06,2-.7l2.95,1.42-1.18-12.25-5.32-4.75c-.62-.55-.67-1.5-.12-2.12s1.5-.67,2.12-.12l5.76,5.14c.28.25.46.6.49.98l1.49,15.49c.05.54-.19,1.06-.63,1.37-.26.18-.56.27-.86.27Z"/>
    <path class="cls-1" d="m247.87,83.7c-2.09,0-4.55-.56-7.3-2.21-.71-.43-.94-1.35-.52-2.06.43-.71,1.35-.94,2.06-.52,3.2,1.92,6.22,2.29,9,1.13,3.38-1.41,6.19-5.2,7.33-9.88,1.01-4.15-.97-10.13-4.83-14.54-2.67-3.06-5.68-4.67-8.22-4.39-.83.07-1.56-.51-1.65-1.34-.08-.82.51-1.56,1.34-1.65,3.55-.36,7.47,1.6,10.79,5.4,3.77,4.32,6.93,11.32,5.48,17.23-1.38,5.67-4.78,10.13-9.08,11.93-1.16.49-2.64.88-4.39.88Z"/>
    <path class="cls-1" d="m241.34,77.48c-.12,0-.24-.01-.36-.04-.8-.2-1.3-1.01-1.1-1.82,2.78-11.28,10.57-16.11,10.9-16.31.71-.43,1.63-.2,2.06.51.43.71.2,1.63-.51,2.06-.07.04-7.08,4.44-9.54,14.46-.17.68-.78,1.14-1.46,1.14Z"/>
    <path class="cls-1" d="m286.03,111.49c-.11,0-.21-.01-.32-.03l-3.24-.7c-.68-.15-1.17-.75-1.18-1.44l-.25-16.1c-.33-.57-1.08-1.81-1.94-3.04-.65-.92-.84-2.12-.54-3.46.39-1.75,1.61-3.65,2.77-4.31.38-.22.84-.26,1.25-.11.15.05,3.7,1.35,5.16,5.08,1.3,3.3.05,19.52-.21,22.74-.04.43-.25.82-.6,1.08-.26.19-.58.3-.89.3Zm-1.76-3.41l.4.09c.57-7.63.98-17.89.28-19.69-.61-1.55-1.8-2.48-2.59-2.96-.34.47-.74,1.18-.88,1.93-.05.26-.11.73.08,1,1.27,1.79,2.25,3.56,2.3,3.63.12.22.19.46.19.71l.24,15.29Z"/>
    <path class="cls-1" d="m279.94,149.84c-.45,0-.89-.07-1.3-.25-1.07-.46-1.8-1.5-2.05-2.93-.39-2.25.46-5.71,3.26-8.34.6-.57,1.55-.54,2.12.07.57.6.54,1.55-.07,2.12-1.88,1.77-2.56,4.02-2.39,5.47.07.6.27.84.31.86.21.06,1.12-.08,2.44-.88,1.45-.89,2.19-1.85,2.25-2.15-.04-1.5-.45-2.42-.45-2.42-.34-.75-.01-1.64.74-1.98.74-.34,1.63-.03,1.98.71.07.15.68,1.48.73,3.67.05,2.01-2.21,3.76-3.19,4.43-.65.44-2.59,1.64-4.4,1.64Z"/>
    <path class="cls-1" d="m286.7,159.85c-.66,0-1.27-.44-1.45-1.12-.21-.8.27-1.62,1.07-1.83.77-.21,2.95-1.12,3.63-2.73.24-.56.21-1.11-.09-1.67-.45-.85-1.43-1.5-2.1-1.63-.52-.1-2.08-.4-5.55,5-.45.7-1.38.9-2.07.45-.7-.45-.9-1.38-.45-2.07,3.2-4.99,5.79-6.88,8.65-6.32,1.66.32,3.34,1.59,4.18,3.16.72,1.35.79,2.86.21,4.24-1.4,3.32-5.45,4.42-5.62,4.47-.13.03-.26.05-.38.05Z"/>
    <path class="cls-1" d="m245.08,202.58c-.29,0-.57-.08-.82-.24-.44-.29-.7-.79-.68-1.31l.57-15.57c.02-.53.31-1,.77-1.26l7.36-4.06c.46-.25,1.02-.25,1.47.01.46.26.74.75.75,1.27l.31,15.59c.01.58-.32,1.12-.84,1.38l-8.23,4.04c-.21.1-.44.15-.66.15Zm2.03-16.17l-.44,12.21,5.12-2.52-.24-12.15-4.44,2.45Z"/>
    <path class="cls-1" d="m272.91,197.08h-.04l-9.93-.24c-.8-.02-1.45-.67-1.46-1.47l-.36-15.74c0-.4.15-.79.43-1.08.28-.29.67-.45,1.07-.45h10.08c.82,0,1.49.66,1.5,1.48l.2,15.98c0,.41-.16.8-.45,1.08-.28.28-.66.43-1.05.43Zm-8.46-3.21l6.94.17-.16-12.95h-7.07l.29,12.78Z"/>
    <path class="cls-1" d="m288.5,202.08c-.21,0-.43-.05-.63-.14l-5.87-2.73c-.52-.24-.86-.76-.87-1.33l-.31-15.38c-.01-.55.28-1.06.76-1.34.48-.27,1.07-.26,1.54.04l5.81,3.65c.43.27.69.73.7,1.23l.36,14.46c.01.52-.24,1.01-.68,1.29-.25.16-.53.25-.82.25Zm-4.38-5.19l2.83,1.31-.28-11.24-2.78-1.75.23,11.67Z"/>
    <path class="cls-1" d="m245.08,293.32s-.04,0-.05,0c-.83-.03-1.48-.72-1.45-1.55l3.12-88c.03-.83.74-1.5,1.55-1.45.83.03,1.48.72,1.45,1.55l-3.12,88c-.03.81-.69,1.45-1.5,1.45Z"/>
    <path class="cls-1" d="m231.78,578.23h-8.21c-.83,0-1.5-.67-1.5-1.5v-8.21c0-.83.67-1.5,1.5-1.5h8.21c.83,0,1.5.67,1.5,1.5v8.21c0,.83-.67,1.5-1.5,1.5Zm-6.71-3h5.21v-5.21h-5.21v5.21Z"/>
    <path class="cls-1" d="m231.78,593.46h-8.21c-.83,0-1.5-.67-1.5-1.5v-8.21c0-.83.67-1.5,1.5-1.5h8.21c.83,0,1.5.67,1.5,1.5v8.21c0,.83-.67,1.5-1.5,1.5Zm-6.71-3h5.21v-5.21h-5.21v5.21Z"/>
    <path class="cls-1" d="m307.59,577.39h-8.21c-.83,0-1.5-.67-1.5-1.5v-8.21c0-.83.67-1.5,1.5-1.5h8.21c.83,0,1.5.67,1.5,1.5v8.21c0,.83-.67,1.5-1.5,1.5Zm-6.71-3h5.21v-5.21h-5.21v5.21Z"/>
    <path class="cls-1" d="m307.59,592.61h-8.21c-.83,0-1.5-.67-1.5-1.5v-8.21c0-.83.67-1.5,1.5-1.5h8.21c.83,0,1.5.67,1.5,1.5v8.21c0,.83-.67,1.5-1.5,1.5Zm-6.71-3h5.21v-5.21h-5.21v5.21Z"/>
    <path class="cls-1" d="m270.68,599.19h-8.21c-.83,0-1.5-.67-1.5-1.5v-8.21c0-.83.67-1.5,1.5-1.5h8.21c.83,0,1.5.67,1.5,1.5v8.21c0,.83-.67,1.5-1.5,1.5Zm-6.71-3h5.21v-5.21h-5.21v5.21Z"/>
    <path class="cls-1" d="m270.68,614.42h-8.21c-.83,0-1.5-.67-1.5-1.5v-8.21c0-.83.67-1.5,1.5-1.5h8.21c.83,0,1.5.67,1.5,1.5v8.21c0,.83-.67,1.5-1.5,1.5Zm-6.71-3h5.21v-5.21h-5.21v5.21Z"/>
  </g>
</svg>
