<?xml version="1.0" encoding="UTF-8"?>
<svg id="Layer_1" data-name="Layer 1" xmlns="http://www.w3.org/2000/svg" viewBox="0 0 246.9 240.47">
  <defs>
    <style>
      .cls-1, .cls-2 {
        stroke-width: 0px;
      }

        :root { fill:#222 }
        .accent { fill: #f9322c; }

        @media (prefers-color-scheme: dark) {
        :root {  fill: #f9322c; }
        .accent { fill:#dee2e6; }
        }
    </style>
  </defs>
  <circle class="accent" cx="197.66" cy="82.86" r="40.4"/>
  <path class="cls-1" d="m191.66,120.76c-23.11,0-41.9-18.8-41.9-41.9s18.8-41.9,41.9-41.9,41.9,18.8,41.9,41.9-18.8,41.9-41.9,41.9Zm0-80.81c-21.45,0-38.9,17.45-38.9,38.9s17.45,38.9,38.9,38.9,38.9-17.45,38.9-38.9-17.45-38.9-38.9-38.9Z"/>
  <path class="cls-1" d="m207.61,117.49c-.11,0-.22-.01-.34-.04-.81-.18-1.31-.99-1.13-1.8.11-.5,11.01-50.49-28.08-73.83-.71-.42-.94-1.35-.52-2.06.42-.71,1.35-.94,2.06-.52,21.45,12.81,28.32,33.11,30.3,47.89,2.14,15.93-.71,28.65-.83,29.19-.16.69-.78,1.17-1.46,1.17Z"/>
  <path class="cls-1" d="m216.28,112.09c-.12,0-.23-.01-.35-.04-.81-.19-1.3-1-1.11-1.81,0-.03.64-2.7,1.09-7,.09-.82.84-1.41,1.65-1.34.82.09,1.42.82,1.34,1.65-.47,4.51-1.13,7.27-1.16,7.38-.17.69-.78,1.15-1.46,1.15Z"/>
  <path class="cls-1" d="m217.84,98.21h-.04c-.83-.02-1.48-.71-1.46-1.54.37-14.61-2.99-41.38-29.57-56.46-.72-.41-.97-1.32-.56-2.04.41-.72,1.32-.97,2.04-.56,27.94,15.85,31.47,43.86,31.09,59.14-.02.82-.69,1.46-1.5,1.46Z"/>
  <path class="cls-1" d="m213.5,46.37c-.57,0-1.12-.33-1.37-.89-1.29-2.9-3.12-6.36-3.79-6.89-1.59-.78-18.5-4.33-20.64-4.47-1.49.34-7.11,1.21-11.79,1.91-.11.02-.22.02-.34.01-1.39-.11-139.5-10.57-169.1-8.43-.8.08-1.54-.56-1.6-1.39-.06-.83.56-1.54,1.39-1.6,29.34-2.11,163.79,7.99,169.37,8.41,5.08-.76,10.75-1.65,11.41-1.83,1.52-.55,21.66,4.04,22.97,4.9,1.5.99,3.69,5.54,4.86,8.16.34.76,0,1.64-.76,1.98-.2.09-.41.13-.61.13Zm-25.48-12.33s-.1.03-.18.05c.05-.01.12-.03.18-.05Z"/>
  <path class="cls-1" d="m188.21,39.96c-.06,0-.13,0-.19-.01l-5.75-.72c-.16-.02-.31-.06-.45-.13l-6.77-3.19c-.75-.35-1.07-1.25-.72-2,.35-.75,1.25-1.07,2-.72l6.55,3.09,5.51.69c.82.1,1.4.85,1.3,1.68-.1.76-.74,1.31-1.49,1.31Z"/>
  <path class="cls-1" d="m152.86,69.07c-.07,0-.14,0-.21-.01l-5.24-.73c-.74-.1-1.29-.74-1.29-1.49v-3.57c0-.58.34-1.12.87-1.36l8.73-4.04c.75-.35,1.64-.02,1.99.73.35.75.02,1.64-.73,1.99l-7.86,3.64v1.31l3.95.55c.82.11,1.39.87,1.28,1.69-.1.75-.75,1.29-1.48,1.29Z"/>
  <path class="cls-1" d="m182.3,133.96c-.33,0-.67-.11-.94-.33l-3.48-2.81c-.6-.49-.74-1.36-.3-2l6.95-10.38c.46-.69,1.39-.87,2.08-.41.69.46.87,1.39.41,2.08l-6.19,9.25,1.29,1.04,10.75-12.18c.55-.62,1.49-.68,2.12-.13.62.55.68,1.5.13,2.12l-11.7,13.26c-.3.33-.71.51-1.13.51Z"/>
  <path class="cls-1" d="m212.46,110.61c-.22,0-.44-.05-.64-.14l-3.27-1.55c-.42-.2-.72-.58-.82-1.02-.1-.45,0-.92.3-1.28l16.42-20.17,5.18-7.21c.27-.37.69-.6,1.15-.62.46-.03.9.17,1.2.52l4.08,4.72c.5.58.49,1.44-.03,2l-22.47,24.27c-.29.31-.69.48-1.1.48Zm-.9-3.58l.55.26,20.81-22.48-1.96-2.27-4.12,5.73-15.27,18.76Z"/>
  <path class="cls-1" d="m5.46,101.47c-.65,0-1.25-.42-1.44-1.08-.23-.79.22-1.63,1.02-1.86.87-.25,87.27-25.6,142.31-35.27.82-.15,1.59.4,1.74,1.22.14.82-.4,1.59-1.22,1.74C92.99,75.85,6.75,101.15,5.88,101.41c-.14.04-.28.06-.42.06Z"/>
  <path class="cls-1" d="m109.94,225.55c-.32,0-.63-.1-.91-.31-.66-.5-.79-1.44-.29-2.1.26-.34,26.25-34.55,69.98-90.78.51-.65,1.45-.77,2.1-.26.65.51.77,1.45.26,2.1-43.72,56.21-69.7,90.41-69.96,90.75-.29.39-.74.59-1.2.59Z"/>
  <path class="cls-1" d="m156.34,214.25c-.24,0-.47-.06-.7-.17-.73-.39-1.01-1.29-.63-2.03l54.59-103.65c.39-.73,1.29-1.01,2.03-.63.73.39,1.01,1.29.63,2.03l-54.59,103.65c-.27.51-.79.8-1.33.8Z"/>
</svg>
