<?xml version="1.0" encoding="UTF-8"?>
<svg id="Layer_1" data-name="Layer 1" xmlns="http://www.w3.org/2000/svg" viewBox="0 0 533.16 677.07">
  <defs>
    <style>
      .cls-1, .cls-2 {
        stroke-width: 0px;
      }

      .cls-2 {
        fill: #ff2d20;
      }
    </style>
  </defs>
  <g>
    <polygon class="cls-2" points="161.01 276.54 156.72 286.16 199.04 305.07 164.39 289.59 141.49 340.83 204.88 369.16 204.88 369.16 141.49 340.83 132.09 348.01 200.64 378.64 122.1 554.42 106.03 561.35 99.69 575.53 121.72 585.37 127.86 571.64 126.03 565.78 212.39 372.51 367.75 441.94 390.65 390.69 398.33 394.12 402.63 384.5 161.01 276.54"/>
    <polygon class="cls-2" points="209.18 382.46 368.68 453.73 367.75 441.94 213.42 372.97 209.18 382.46"/>
  </g>
  <rect class="cls-2" x="92.27" y="640.78" width="94.04" height="10.93" transform="translate(275.76 -.6) rotate(24.08)"/>
  <polygon class="cls-2" points="182.04 659.35 101.02 623.15 121.45 605.13 181.83 632.12 182.04 659.35"/>
  <polygon class="cls-2" points="51.21 540.9 86.04 556.62 79.65 572.05 88.84 574.86 94.31 563.12 197.61 606.26 191.99 620.82 202.16 625.71 209.18 612.39 244.88 628.22 268.72 606.52 269.35 640.02 279.13 644.82 342.78 503.37 107.99 396.9 60.76 503.63 51.21 540.9"/>
  <path class="cls-1" d="m267.09,226.43c-.2,0-.41-.04-.61-.13l-38.4-17.16c-.76-.34-1.09-1.22-.76-1.98.34-.76,1.22-1.1,1.98-.76l38.4,17.16c.76.34,1.09,1.22.76,1.98-.25.56-.8.89-1.37.89Z"/>
  <path class="cls-1" d="m383.69,320.25c-.2,0-.41-.04-.61-.13l-170.54-76.2c-.76-.34-1.09-1.22-.76-1.98.34-.76,1.22-1.09,1.98-.76l170.54,76.2c.76.34,1.09,1.22.76,1.98-.25.56-.8.89-1.37.89Z"/>
  <path class="cls-1" d="m399.23,285.47c-.2,0-.41-.04-.61-.13l-122.26-54.63c-.76-.34-1.09-1.22-.76-1.98s1.22-1.09,1.98-.76l122.26,54.63c.76.34,1.09,1.22.76,1.98-.25.56-.8.89-1.37.89Z"/>
  <path class="cls-1" d="m382.54,278.01c-.21,0-.42-.04-.61-.13l-104.31-46.61c-.76-.34-1.09-1.22-.76-1.98s1.22-1.09,1.98-.76l103.7,46.34c22.4-10.04,40.23-27.89,50.26-50.34,10.88-24.34,11.62-51.45,2.1-76.35-9.52-24.9-28.17-44.6-52.5-55.47-24.34-10.87-51.45-11.62-76.35-2.1-24.9,9.52-44.6,28.17-55.47,52.5-10.03,22.44-11.43,47.64-3.97,71.02l21.3,9.52c.76.34,1.09,1.22.76,1.98-.34.76-1.22,1.1-1.98.76l-21.91-9.79c-.39-.17-.68-.5-.81-.9-7.92-24.27-6.55-50.48,3.88-73.81,11.2-25.07,31.49-44.27,57.14-54.08,25.65-9.81,53.58-9.04,78.65,2.17,25.07,11.2,44.27,31.5,54.08,57.14,9.8,25.65,9.04,53.58-2.17,78.65-10.42,23.33-29.03,41.84-52.4,52.13-.19.08-.4.13-.6.13Z"/>
  <path class="cls-1" d="m220.89,245.71c-2.8,0-5.64-.57-8.35-1.79-5.01-2.24-8.85-6.29-10.81-11.42-1.96-5.13-1.81-10.71.43-15.72,2.24-5.01,6.29-8.85,11.42-10.81,5.13-1.96,10.71-1.81,15.72.43,5.01,2.24,8.85,6.29,10.81,11.42s1.81,10.71-.43,15.72h0c-3.41,7.63-10.93,12.16-18.79,12.16Zm.04-38.1c-2.12,0-4.24.39-6.27,1.17-4.38,1.67-7.84,4.95-9.75,9.23s-2.04,9.05-.37,13.42c1.67,4.38,4.95,7.84,9.23,9.75,8.83,3.94,19.23-.03,23.18-8.86h0c1.91-4.28,2.04-9.05.37-13.42s-4.95-7.84-9.23-9.75c-2.29-1.02-4.72-1.54-7.15-1.54Z"/>
  <path class="cls-1" d="m330.82,141.01c-6.72,0-13.61-3.84-17.65-10.57-5.83-9.71-3.56-21.83,5.06-27,4.21-2.53,9.27-3.04,14.25-1.45,4.91,1.57,9.16,5.01,11.96,9.68h0s0,0,0,0c2.81,4.67,3.84,10.04,2.92,15.11-.94,5.14-3.77,9.37-7.98,11.89-2.65,1.59-5.59,2.34-8.56,2.34Zm-4-36.93c-2.5,0-4.91.65-7.04,1.93-7.2,4.32-9.01,14.59-4.04,22.89,4.98,8.29,14.89,11.53,22.1,7.2,3.46-2.08,5.79-5.58,6.57-9.86.79-4.35-.11-8.98-2.54-13.03h0c-2.43-4.05-6.09-7.02-10.3-8.37-1.59-.51-3.19-.76-4.75-.76Z"/>
  <path class="cls-1" d="m365.19,107.04c-.1,0-.21,0-.32,0-2.34-.05-5.18-.7-8.01-1.83-5.48-2.18-10.73-6.12-9.34-9.63.45-1.14,1.76-2.51,5.39-2.41,2.34.05,5.18.7,8.01,1.83h0c2.83,1.12,5.34,2.61,7.07,4.17,2.7,2.44,2.72,4.31,2.26,5.46-.44,1.11-1.68,2.41-5.08,2.41Zm-12.57-10.87c-1.7,0-2.27.43-2.3.52-.24.59,2.03,3.49,7.66,5.73,2.47.98,5.01,1.57,6.97,1.62,1.9.04,2.5-.43,2.54-.52.04-.09-.09-.85-1.49-2.12-1.45-1.31-3.7-2.63-6.17-3.61s-5.01-1.57-6.97-1.62c-.08,0-.16,0-.24,0Z"/>
  <g>
    <path class="cls-1" d="m391.45,321.92c-2.85,0-5.69-.6-8.38-1.8-4.08-1.82-7.38-4.86-9.56-8.8-.23-.41-.25-.91-.06-1.34.19-.43.58-.75,1.04-.85,5.45-1.24,9.87-4.86,12.14-9.93,2.26-5.07,2.01-10.78-.7-15.67-.23-.41-.25-.91-.06-1.34s.58-.75,1.04-.85c4.39-1,8.86-.57,12.93,1.26,5.01,2.24,8.85,6.29,10.81,11.42,1.96,5.13,1.81,10.71-.43,15.72-2.24,5.01-6.29,8.85-11.42,10.81-2.38.91-4.87,1.37-7.35,1.37Zm-14.29-10.42c1.81,2.58,4.25,4.59,7.14,5.88,4.28,1.91,9.05,2.04,13.42.37,4.38-1.67,7.84-4.95,9.75-9.23s2.04-9.05.37-13.42c-1.67-4.38-4.95-7.84-9.23-9.75h0c-2.89-1.29-6.02-1.77-9.15-1.4,2.28,5.28,2.27,11.18-.1,16.48-2.37,5.3-6.75,9.25-12.21,11.07Z"/>
    <path class="cls-1" d="m370.54,312.59c-2.85,0-5.66-.6-8.31-1.78-5.9-2.64-10.14-7.78-11.61-14.12-.15-.66.15-1.33.74-1.66,3.39-1.86,6.02-4.7,7.58-8.2,1.57-3.51,1.93-7.35,1.05-11.12-.15-.66.15-1.33.74-1.66,5.7-3.13,12.36-3.41,18.26-.77,4.08,1.82,7.38,4.86,9.56,8.8.4.72.14,1.64-.59,2.04-.72.4-1.64.14-2.04-.59-1.86-3.36-4.68-5.96-8.16-7.51-4.71-2.1-9.98-2.03-14.62.16.71,4.04.21,8.12-1.47,11.87-1.67,3.75-4.38,6.84-7.86,9.01,1.46,4.92,4.93,8.9,9.63,11,3.48,1.55,7.3,1.92,11.04,1.07.81-.18,1.61.32,1.8,1.13.18.81-.32,1.61-1.13,1.8-1.54.35-3.09.52-4.62.52Z"/>
    <path class="cls-1" d="m374.83,312.1c-.68,0-1.3-.47-1.46-1.17-.18-.81.32-1.61,1.13-1.8,5.45-1.24,9.87-4.86,12.14-9.93,2.26-5.07,2.01-10.78-.7-15.67-.4-.72-.14-1.64.59-2.04.72-.4,1.64-.14,2.04.59,3.17,5.72,3.47,12.41.81,18.34-2.65,5.94-7.83,10.18-14.21,11.63-.11.03-.22.04-.33.04Z"/>
    <path class="cls-1" d="m342.89,300.23c-2.83,0-5.67-.6-8.36-1.8-10.34-4.62-15-16.8-10.38-27.14,4.62-10.34,16.8-15,27.14-10.38,5.9,2.64,10.14,7.78,11.61,14.12.19.81-.31,1.61-1.12,1.8-.81.19-1.61-.31-1.8-1.12-1.26-5.41-4.87-9.81-9.91-12.06-8.83-3.95-19.23.03-23.18,8.86-3.95,8.83.03,19.23,8.86,23.18,5.04,2.25,10.73,2.01,15.6-.66.73-.4,1.64-.13,2.04.59.4.73.13,1.64-.59,2.04-3.11,1.71-6.5,2.56-9.9,2.56Z"/>
  </g>
  <path class="cls-1" d="m308.13,284.69c-2.85,0-5.7-.6-8.38-1.8-5.01-2.24-8.85-6.29-10.81-11.42-1.96-5.13-1.81-10.71.43-15.72,4.62-10.34,16.79-15,27.14-10.38,5.01,2.24,8.85,6.3,10.81,11.42s1.81,10.71-.43,15.72c-2.24,5.01-6.29,8.85-11.42,10.81-2.38.91-4.87,1.37-7.34,1.37Zm.03-38.1c-6.71,0-13.13,3.87-16.05,10.39-1.91,4.28-2.04,9.05-.37,13.42,1.67,4.38,4.95,7.84,9.23,9.75,4.28,1.91,9.05,2.04,13.42.37,4.38-1.67,7.84-4.95,9.75-9.23h0c1.91-4.28,2.04-9.05.37-13.42s-4.95-7.84-9.23-9.75c-2.32-1.04-4.74-1.53-7.13-1.53Z"/>
  <path class="cls-1" d="m265.46,262.51c-.95,0-1.81-.22-2.52-.67-.72-.45-.93-1.28-1.02-2.46-1.01-12.18,9.52-103.91,48.72-138.78.62-.55,1.57-.49,2.12.12.55.62.5,1.57-.12,2.12-20.75,18.46-32.79,53.46-39.24,79.56-7.13,28.87-9.03,53.07-8.46,57.04.61.15,1.5,0,2.43-.39,1.72-.74,3.91-2.56,4.45-5.27.13-.67.35-2.27.65-4.5,1.82-13.6,7.38-54.97,21.69-82.7,16.17-31.34,21.55-34.68,22.11-34.95.74-.37,1.64-.06,2.01.68.37.74.06,1.64-.68,2.01-.13.09-5.27,3.59-20.78,33.64-14.07,27.27-19.57,68.26-21.38,81.73-.32,2.37-.53,3.93-.68,4.68-.63,3.17-3.06,6.09-6.2,7.45-1.07.46-2.12.69-3.08.69Zm-.46-2.68s0,0,0,0h0Z"/>
  <path class="cls-1" d="m441.61,202.08c-.7,0-1.32-.49-1.47-1.2-.17-.81.35-1.61,1.17-1.77l9.05-1.87-.85-20.51-7.56-2.43c-.79-.25-1.22-1.1-.97-1.89.25-.79,1.1-1.22,1.89-.97l8.56,2.75c.6.19,1.01.74,1.04,1.37l.94,22.83c.03.73-.48,1.38-1.2,1.53l-10.29,2.13c-.1.02-.21.03-.31.03Z"/>
  <path class="cls-1" d="m407.15,107.99s-.05,0-.07,0c-.83-.04-1.47-.74-1.43-1.57l.69-14.55c.22-4.56-2.34-8.71-6.5-10.57l-20.57-9.19c-4.17-1.86-8.96-.99-12.21,2.21l-10.38,10.22c-.59.58-1.54.57-2.12-.02-.58-.59-.57-1.54.02-2.12l10.38-10.22c4.14-4.08,10.24-5.18,15.54-2.81l20.57,9.19c5.3,2.37,8.55,7.65,8.28,13.45l-.69,14.55c-.04.8-.7,1.43-1.5,1.43Z"/>
  <path class="cls-1" d="m325.28,149.2c-4.99,0-10.72-1.43-17.12-4.3-.76-.34-1.09-1.22-.76-1.98.34-.76,1.22-1.1,1.98-.76,9.98,4.46,18,5.23,23.84,2.3,5.32-2.67,9.02-8.49,10.99-17.29.18-.81.98-1.32,1.79-1.14.81.18,1.32.98,1.14,1.79-2.18,9.73-6.42,16.23-12.58,19.32-2.73,1.37-5.84,2.06-9.29,2.06Z"/>
  <path class="cls-1" d="m267.09,226.43c-.67,0-1.29-.46-1.46-1.14-6.07-24.66,4.48-78.8,35.45-110.96,21.77-22.61,50.2-31.06,82.23-24.45.81.17,1.33.96,1.17,1.77-.17.81-.97,1.33-1.77,1.17-31.41-6.48-58.14,1.46-79.46,23.6-30.26,31.42-40.6,84.18-34.7,108.17.2.8-.29,1.62-1.1,1.81-.12.03-.24.04-.36.04Z"/>
  <path class="cls-1" d="m360.83,268.31c-.54,0-1.06-.29-1.33-.79-.39-.73-.11-1.64.62-2.03,21.81-11.61,54.21-54.5,57.43-98.01,2.27-30.65-9.65-55.86-35.44-74.94-.67-.49-.81-1.43-.31-2.1.49-.67,1.43-.81,2.1-.31,26.29,19.45,38.96,46.27,36.64,77.57-3.3,44.52-36.59,88.5-59.01,100.43-.22.12-.47.18-.7.18Z"/>
  <path class="cls-1" d="m299.17,161.72c-.39,0-.77-.15-1.07-.45l-9.21-9.31c-.58-.59-.58-1.54.01-2.12.59-.58,1.54-.58,2.12.01l9.21,9.31c.58.59.58,1.54-.01,2.12-.29.29-.67.43-1.05.43Z"/>
  <path class="cls-1" d="m238.43,301.06c-2.24,0-4.46-.47-6.55-1.4-8.45-3.78-12.09-14.11-8.1-23.04,1.92-4.31,5.32-7.66,9.57-9.42,4.27-1.78,8.89-1.75,13,.09,4.11,1.84,7.21,5.26,8.74,9.63,1.51,4.34,1.29,9.1-.64,13.41h0c-1.92,4.31-5.32,7.66-9.56,9.42-2.1.88-4.29,1.31-6.46,1.31Zm1.37-32.18c-1.78,0-3.57.36-5.3,1.08-3.53,1.47-6.37,4.27-7.98,7.88-3.31,7.42-.36,15.98,6.58,19.08,3.35,1.5,7.12,1.52,10.62.06,3.53-1.47,6.37-4.27,7.98-7.88h0c1.61-3.61,1.81-7.59.55-11.2-1.25-3.58-3.78-6.38-7.13-7.88-1.7-.76-3.5-1.14-5.32-1.14Z"/>
  <path class="cls-1" d="m365.29,358.54c-.59,0-1.17-.08-1.74-.24-2.8-.8-4.82-3.42-5.68-7.39-.8-3.64-.54-8.07.71-12.47,1.26-4.4,3.38-8.3,5.97-10.97,2.83-2.91,5.93-4.07,8.73-3.28,2.8.8,4.82,3.42,5.68,7.39.8,3.64.54,8.07-.71,12.47-2.45,8.57-7.89,14.49-12.96,14.49Zm6.26-31.58c-1.48,0-3.2.91-4.85,2.6-2.26,2.32-4.12,5.77-5.24,9.7-1.12,3.94-1.36,7.84-.67,11.01.61,2.79,1.91,4.67,3.58,5.14,3.36.96,8.58-3.71,10.99-12.18,1.12-3.94,1.36-7.84.67-11.01-.61-2.79-1.91-4.67-3.58-5.14-.29-.08-.59-.12-.91-.12Z"/>
  <path class="cls-1" d="m395.33,389.62c-.2,0-.41-.04-.61-.13l-241.61-107.96c-.76-.34-1.09-1.22-.76-1.98l4.3-9.62c.16-.36.46-.65.83-.79.37-.14.79-.13,1.15.03l241.61,107.96c.36.16.65.46.79.83.14.37.13.78-.03,1.15l-4.3,9.62c-.25.56-.8.89-1.37.89Zm-239.63-110.22l238.87,106.74,3.07-6.88-238.87-106.74-3.07,6.88Z"/>
  <path class="cls-1" d="m364.75,437.44c-.2,0-.41-.04-.61-.13-.76-.34-1.09-1.22-.76-1.98l22.29-49.88-223.52-99.88-22.29,49.88c-.34.76-1.22,1.09-1.98.76-.76-.34-1.09-1.22-.76-1.98l22.9-51.25c.16-.36.46-.65.83-.79.37-.14.79-.13,1.15.03l226.26,101.1c.76.34,1.09,1.22.76,1.98l-22.9,51.25c-.25.56-.8.89-1.37.89Z"/>
  <path class="cls-1" d="m175.77,425.85c-.2,0-.41-.04-.61-.13l-69.58-31.09c-.36-.16-.65-.46-.79-.83-.14-.37-.13-.79.03-1.15l22.9-51.25c.34-.76,1.22-1.09,1.98-.76.76.34,1.09,1.22.76,1.98l-22.29,49.88,68.21,30.48c.76.34,1.09,1.22.76,1.98-.25.56-.8.89-1.37.89Z"/>
  <path class="cls-1" d="m342.78,500.47c-.2,0-.41-.04-.61-.13l-159.18-71.13c-.76-.34-1.09-1.22-.76-1.98.34-.76,1.22-1.1,1.98-.76l157.81,70.52,22.29-49.88c.34-.76,1.22-1.1,1.98-.76.76.34,1.09,1.22.76,1.98l-22.9,51.25c-.25.56-.8.89-1.37.89Z"/>
  <path class="cls-1" d="m365.68,449.23c-.21,0-.42-.04-.61-.13l-159.49-71.27c-.76-.34-1.09-1.22-.76-1.98.34-.76,1.22-1.09,1.98-.76l157.19,70.24-.65-8.38-153.52-68.6c-.76-.34-1.09-1.22-.76-1.98.34-.76,1.22-1.1,1.98-.76l154.33,68.96c.5.22.84.7.88,1.25l.92,11.79c.04.53-.2,1.04-.63,1.34-.26.18-.56.27-.86.27Z"/>
  <path class="cls-1" d="m198.67,374.6c-.2,0-.41-.04-.61-.13l-69.58-31.09c-.48-.22-.82-.67-.88-1.2-.06-.53.16-1.04.58-1.37l9.4-7.18c.44-.33,1.02-.4,1.52-.18l64.42,28.79c.76.34,1.09,1.22.76,1.98s-1.22,1.09-1.98.76l-63.61-28.42-6.68,5.11,67.28,30.06c.76.34,1.09,1.22.76,1.98-.25.56-.8.89-1.37.89Z"/>
  <path class="cls-1" d="m376.83,369.82c-.21,0-.42-.04-.61-.13l-196.03-87.59c-.42-.19-.73-.55-.84-1-.11-.44-.02-.92.26-1.28l29.92-39.26c.42-.55,1.17-.75,1.81-.46l175.39,78.37c.63.28.99.97.86,1.65l-9.28,48.48c-.09.45-.37.84-.78,1.05-.22.11-.46.17-.69.17Zm-193.69-89.69l192.57,86.05,8.7-45.45-173.22-77.4-28.05,36.81Z"/>
  <path class="cls-1" d="m289.74,181.69c-.3,0-.6-.09-.86-.27l-9.29-6.53c-.68-.48-.84-1.41-.37-2.09.48-.68,1.41-.84,2.09-.37l9.29,6.53c.68.48.84,1.41.37,2.09-.29.42-.76.64-1.23.64Z"/>
  <path class="cls-1" d="m282.51,208.03c-.29,0-.59-.08-.85-.26l-9.99-6.85c-.68-.47-.86-1.4-.39-2.08.47-.68,1.41-.86,2.08-.39l9.99,6.85c.68.47.86,1.4.39,2.08-.29.42-.76.65-1.24.65Z"/>
  <path class="cls-1" d="m207.92,240.58c-.75,0-1.39-.56-1.49-1.32-.94-7.66,3.1-17.8,9.82-24.66,4.84-4.94,10.27-7.37,15.27-6.86.82.08,1.42.82,1.34,1.65-.08.83-.83,1.42-1.65,1.34-4.08-.43-8.64,1.7-12.83,5.98-6.13,6.25-9.82,15.38-8.98,22.19.1.82-.48,1.57-1.31,1.67-.06,0-.12.01-.19.01Z"/>
  <path class="cls-1" d="m238.31,234.43s-.09,0-.13,0c-15.49-1.33-27.52-8.82-33.86-21.09-.38-.74-.09-1.64.64-2.02.74-.38,1.64-.09,2.02.64,5.86,11.32,17.03,18.24,31.46,19.48.83.07,1.44.8,1.37,1.62-.07.78-.72,1.37-1.49,1.37Z"/>
  <path class="cls-1" d="m296.57,280.19c-.13,0-.27-.02-.4-.06-.8-.22-1.26-1.05-1.04-1.85.25-.9,6.3-22.2,19.21-32.72.64-.53,1.59-.43,2.11.21.52.64.43,1.59-.21,2.11-12.16,9.92-18.15,30.99-18.21,31.2-.18.66-.79,1.1-1.44,1.1Z"/>
  <path class="cls-1" d="m325.15,274.2s-.04,0-.07,0c-.67-.03-16.7-.9-35-17.49-.61-.56-.66-1.5-.1-2.12.56-.61,1.5-.66,2.12-.1,17.44,15.81,32.96,16.71,33.12,16.72.83.04,1.47.74,1.43,1.57-.04.8-.7,1.43-1.5,1.43Z"/>
  <path class="cls-1" d="m359.28,290.91c-.14,0-.29-.02-.43-.06-.98-.29-24.04-7.36-32.96-21.04-.45-.69-.26-1.62.44-2.08.69-.45,1.62-.26,2.08.44,8.32,12.76,31.08,19.73,31.31,19.8.79.24,1.24,1.08,1,1.87-.2.65-.79,1.07-1.44,1.07Z"/>
  <path class="cls-1" d="m333.8,296.82c-.5,0-1-.25-1.28-.72-.43-.71-.21-1.63.5-2.06.15-.09,15.18-9.6,17.66-31.01.1-.82.84-1.42,1.66-1.32.82.1,1.41.84,1.32,1.66-2.66,22.92-18.41,32.81-19.08,33.22-.24.15-.51.22-.78.22Z"/>
  <path class="cls-1" d="m367.32,312.3c-.42,0-.83-.17-1.13-.51-.55-.62-.49-1.57.14-2.12.18-.16,17.92-15.98,14.59-32.3-.17-.81.36-1.6,1.17-1.77.82-.17,1.6.36,1.77,1.17,3.68,18.03-14.76,34.46-15.55,35.15-.28.25-.64.37-.99.37Z"/>
  <path class="cls-1" d="m387.67,302.01s-.09,0-.14,0c-.34-.03-8.56-.95-27.28-15.68-.65-.51-.76-1.46-.25-2.11.51-.65,1.45-.76,2.11-.25,17.81,14.01,25.64,15.04,25.71,15.05.82.09,1.42.83,1.33,1.65-.08.77-.72,1.35-1.48,1.35Z"/>
  <path class="cls-1" d="m392.23,321.9c-.46,0-.91-.21-1.2-.6-.5-.66-.36-1.6.3-2.1.11-.08,11.35-8.96,8.88-33.34-.08-.82.52-1.56,1.34-1.64.83-.09,1.56.52,1.64,1.34,2.66,26.2-9.54,35.65-10.07,36.04-.27.2-.58.3-.9.3Z"/>
  <path class="cls-1" d="m255.58,311.45c-.26,0-.51-.03-.75-.08-1.11-.24-1.9-1.02-2.04-2.03-.32-2.32,8.93-19.25,11.92-23.65,3.11-4.58,6.15-4.36,7.31-4.06,2.26.59,3.83,2.9,4.1,6.04.05.57-.23,1.12-.72,1.41-.49.3-1.1.29-1.59-.02-.26-.17-.42-.17-.6-.12-1.94.54-4.64,6.09-6.62,10.13-1.18,2.41-2.29,4.68-3.39,6.44-2.75,4.39-5.62,5.92-7.63,5.92Zm15.32-26.96c-1.08,0-2.46,1.07-3.7,2.89-3.58,5.26-9.84,17.46-11.18,21,.89-.25,2.63-1.24,4.65-4.45,1.02-1.62,2.1-3.83,3.24-6.17,2.71-5.56,5.28-10.8,8.51-11.71.09-.03.18-.05.27-.07-.34-.78-.83-1.31-1.41-1.46-.12-.03-.25-.05-.38-.05Z"/>
  <path class="cls-1" d="m269.09,303.71c-1.64,0-3.23-.35-4.7-1.06-.74-.36-1.05-1.26-.69-2.01.36-.75,1.26-1.05,2.01-.69,3.62,1.76,8.59.3,12.66-3.73,3.9-3.87,6.75-10.07,4.32-15.19-2.4-5.05-8.09-4.89-10.43-4.58-5.98.77-11.47,4.76-12.25,8.9-1.49,7.88.12,10.02.13,10.04l-1.11,1.01-1.04,1.08c-.47-.45-2.72-3.19-.93-12.69,1.18-6.26,8.51-10.5,14.81-11.32,6.21-.81,11.27,1.54,13.52,6.27,3.07,6.45-.26,14-4.91,18.61-3.53,3.5-7.6,5.36-11.39,5.36Z"/>
  <path class="cls-1" d="m340.7,353.51c-.14,0-.28-.02-.42-.06-.79-.23-1.25-1.07-1.02-1.86l5.79-19.8-8.97-13.29c-.29-.43-.34-.98-.13-1.45l7.18-16.06c.34-.76,1.22-1.1,1.98-.76.76.34,1.09,1.22.76,1.98l-6.84,15.3,8.9,13.18c.25.37.32.83.2,1.26l-5.99,20.48c-.19.65-.79,1.08-1.44,1.08Z"/>
  <path class="cls-1" d="m294.06,332.67c-.22,0-.44-.05-.66-.15-.74-.36-1.05-1.26-.69-2l8.8-18.11c.18-.38.52-.66.92-.78l10.56-3.16,7.93-17.75c.34-.76,1.22-1.09,1.98-.76.76.34,1.09,1.22.76,1.98l-8.21,18.38c-.18.4-.52.7-.94.82l-10.59,3.17-8.52,17.52c-.26.53-.79.84-1.35.84Z"/>
  <path class="cls-1" d="m190.56,286.9c-.26,0-.52-.07-.76-.21-.71-.42-.95-1.34-.53-2.05l6.62-11.19c.28-.47.81-.74,1.35-.74l10.65.44,16.61-24.78c.46-.69,1.39-.87,2.08-.41.69.46.87,1.39.41,2.08l-17.08,25.48c-.29.43-.81.68-1.31.66l-10.59-.43-6.16,10.42c-.28.47-.78.74-1.29.74Z"/>
  <g>
    <path class="cls-1" d="m55.76,507.62c-.2,0-.41-.04-.61-.13-.76-.34-1.09-1.22-.76-1.98l73.33-164.11c.34-.76,1.22-1.09,1.98-.76.76.34,1.09,1.22.76,1.98l-73.33,164.11c-.25.56-.8.89-1.37.89Z"/>
    <path class="cls-1" d="m114.35,398.4c-.2,0-.41-.04-.61-.13-.76-.34-1.09-1.22-.76-1.98l22.9-51.25c.34-.76,1.22-1.09,1.98-.76.76.34,1.09,1.22.76,1.98l-22.9,51.25c-.25.56-.8.89-1.37.89Z"/>
    <path class="cls-1" d="m122.51,402.05c-.2,0-.41-.04-.61-.13-.76-.34-1.09-1.22-.76-1.98l22.9-51.25c.34-.76,1.22-1.1,1.98-.76.76.34,1.09,1.22.76,1.98l-22.9,51.25c-.25.56-.8.89-1.37.89Z"/>
    <path class="cls-1" d="m130.67,405.7c-.2,0-.41-.04-.61-.13-.76-.34-1.09-1.22-.76-1.98l22.9-51.25c.34-.76,1.22-1.1,1.98-.76.76.34,1.09,1.22.76,1.98l-22.9,51.25c-.25.56-.8.89-1.37.89Z"/>
    <path class="cls-1" d="m138.82,409.34c-.2,0-.41-.04-.61-.13-.76-.34-1.09-1.22-.76-1.98l22.9-51.25c.34-.76,1.22-1.1,1.98-.76.76.34,1.09,1.22.76,1.98l-22.9,51.25c-.25.56-.8.89-1.37.89Z"/>
    <path class="cls-1" d="m146.98,412.99c-.2,0-.41-.04-.61-.13-.76-.34-1.09-1.22-.76-1.98l22.9-51.25c.34-.75,1.22-1.1,1.98-.76.76.34,1.09,1.22.76,1.98l-22.9,51.25c-.25.56-.8.89-1.37.89Z"/>
    <path class="cls-1" d="m155.14,416.63c-.2,0-.41-.04-.61-.13-.76-.34-1.09-1.22-.76-1.98l22.9-51.25c.34-.76,1.22-1.09,1.98-.76.76.34,1.09,1.22.76,1.98l-22.9,51.25c-.25.56-.8.89-1.37.89Z"/>
    <path class="cls-1" d="m163.3,420.28c-.2,0-.41-.04-.61-.13-.76-.34-1.09-1.22-.76-1.98l22.9-51.25c.34-.76,1.22-1.1,1.98-.76.76.34,1.09,1.22.76,1.98l-22.9,51.25c-.25.56-.8.89-1.37.89Z"/>
    <path class="cls-1" d="m171.46,423.92c-.2,0-.41-.04-.61-.13-.76-.34-1.09-1.22-.76-1.98l22.9-51.25c.34-.76,1.22-1.1,1.98-.76.76.34,1.09,1.22.76,1.98l-22.9,51.25c-.25.56-.8.89-1.37.89Z"/>
    <path class="cls-1" d="m187.77,431.21c-.2,0-.41-.04-.61-.13-.76-.34-1.09-1.22-.76-1.98l22.9-51.25c.34-.76,1.22-1.09,1.98-.76.76.34,1.09,1.22.76,1.98l-22.9,51.25c-.25.56-.8.89-1.37.89Z"/>
    <path class="cls-1" d="m195.93,434.86c-.2,0-.41-.04-.61-.13-.76-.34-1.09-1.22-.76-1.98l22.9-51.25c.34-.76,1.22-1.09,1.98-.76.76.34,1.09,1.22.76,1.98l-22.9,51.25c-.25.56-.8.89-1.37.89Z"/>
    <path class="cls-1" d="m204.09,438.5c-.2,0-.41-.04-.61-.13-.76-.34-1.09-1.22-.76-1.98l22.9-51.25c.34-.76,1.22-1.09,1.98-.76.76.34,1.09,1.22.76,1.98l-22.9,51.25c-.25.56-.8.89-1.37.89Z"/>
    <path class="cls-1" d="m212.25,442.15c-.2,0-.41-.04-.61-.13-.76-.34-1.09-1.22-.76-1.98l22.9-51.25c.34-.76,1.22-1.1,1.98-.76.76.34,1.09,1.22.76,1.98l-22.9,51.25c-.25.56-.8.89-1.37.89Z"/>
    <path class="cls-1" d="m220.4,445.79c-.2,0-.41-.04-.61-.13-.76-.34-1.09-1.22-.76-1.98l22.9-51.25c.34-.75,1.22-1.1,1.98-.76.76.34,1.09,1.22.76,1.98l-22.9,51.25c-.25.56-.8.89-1.37.89Z"/>
    <path class="cls-1" d="m228.56,449.44c-.2,0-.41-.04-.61-.13-.76-.34-1.09-1.22-.76-1.98l22.9-51.25c.34-.76,1.22-1.09,1.98-.76.76.34,1.09,1.22.76,1.98l-22.9,51.25c-.25.56-.8.89-1.37.89Z"/>
    <path class="cls-1" d="m236.72,453.09c-.2,0-.41-.04-.61-.13-.76-.34-1.09-1.22-.76-1.98l22.9-51.25c.34-.76,1.22-1.1,1.98-.76.76.34,1.09,1.22.76,1.98l-22.9,51.25c-.25.56-.8.89-1.37.89Z"/>
    <path class="cls-1" d="m244.88,456.73c-.2,0-.41-.04-.61-.13-.76-.34-1.09-1.22-.76-1.98l22.9-51.25c.34-.76,1.22-1.1,1.98-.76.76.34,1.09,1.22.76,1.98l-22.9,51.25c-.25.56-.8.89-1.37.89Z"/>
    <path class="cls-1" d="m253.04,460.38c-.2,0-.41-.04-.61-.13-.76-.34-1.09-1.22-.76-1.98l22.9-51.25c.34-.76,1.22-1.1,1.98-.76.76.34,1.09,1.22.76,1.98l-22.9,51.25c-.25.56-.8.89-1.37.89Z"/>
    <path class="cls-1" d="m261.2,464.02c-.2,0-.41-.04-.61-.13-.76-.34-1.09-1.22-.76-1.98l22.9-51.25c.34-.76,1.22-1.1,1.98-.76.76.34,1.09,1.22.76,1.98l-22.9,51.25c-.25.56-.8.89-1.37.89Z"/>
    <path class="cls-1" d="m269.35,467.67c-.2,0-.41-.04-.61-.13-.76-.34-1.09-1.22-.76-1.98l22.9-51.25c.34-.76,1.22-1.1,1.98-.76.76.34,1.09,1.22.76,1.98l-22.9,51.25c-.25.56-.8.89-1.37.89Z"/>
    <path class="cls-1" d="m277.51,471.31c-.2,0-.41-.04-.61-.13-.76-.34-1.09-1.22-.76-1.98l22.9-51.25c.34-.76,1.22-1.09,1.98-.76.76.34,1.09,1.22.76,1.98l-22.9,51.25c-.25.56-.8.89-1.37.89Z"/>
    <path class="cls-1" d="m285.67,474.96c-.2,0-.41-.04-.61-.13-.76-.34-1.09-1.22-.76-1.98l22.9-51.25c.34-.76,1.22-1.1,1.98-.76.76.34,1.09,1.22.76,1.98l-22.9,51.25c-.25.56-.8.89-1.37.89Z"/>
    <path class="cls-1" d="m293.83,478.6c-.2,0-.41-.04-.61-.13-.76-.34-1.09-1.22-.76-1.98l22.9-51.25c.34-.76,1.22-1.1,1.98-.76.76.34,1.09,1.22.76,1.98l-22.9,51.25c-.25.56-.8.89-1.37.89Z"/>
    <path class="cls-1" d="m301.99,482.25c-.2,0-.41-.04-.61-.13-.76-.34-1.09-1.22-.76-1.98l22.9-51.25c.34-.76,1.22-1.09,1.98-.76.76.34,1.09,1.22.76,1.98l-22.9,51.25c-.25.56-.8.89-1.37.89Z"/>
    <path class="cls-1" d="m310.14,485.89c-.2,0-.41-.04-.61-.13-.76-.34-1.09-1.22-.76-1.98l22.9-51.25c.34-.76,1.22-1.09,1.98-.76.76.34,1.09,1.22.76,1.98l-22.9,51.25c-.25.56-.8.89-1.37.89Z"/>
    <path class="cls-1" d="m318.3,489.54c-.2,0-.41-.04-.61-.13-.76-.34-1.09-1.22-.76-1.98l22.9-51.25c.34-.76,1.22-1.1,1.98-.76.76.34,1.09,1.22.76,1.98l-22.9,51.25c-.25.56-.8.89-1.37.89Z"/>
    <path class="cls-1" d="m326.46,493.18c-.2,0-.41-.04-.61-.13-.76-.34-1.09-1.22-.76-1.98l22.9-51.25c.34-.76,1.22-1.1,1.98-.76.76.34,1.09,1.22.76,1.98l-22.9,51.25c-.25.56-.8.89-1.37.89Z"/>
    <path class="cls-1" d="m334.62,496.83c-.2,0-.41-.04-.61-.13-.76-.34-1.09-1.22-.76-1.98l22.9-51.25c.34-.76,1.22-1.1,1.98-.76.76.34,1.09,1.22.76,1.98l-22.9,51.25c-.25.56-.8.89-1.37.89Z"/>
    <path class="cls-1" d="m342.78,500.47c-.2,0-.41-.04-.61-.13-.76-.34-1.09-1.22-.76-1.98l22.9-51.25c.34-.76,1.22-1.1,1.98-.76.76.34,1.09,1.22.76,1.98l-22.9,51.25c-.25.56-.8.89-1.37.89Z"/>
  </g>
  <path class="cls-1" d="m117.72,585.87c-.21,0-.42-.04-.61-.13l-22.03-9.85c-.76-.34-1.09-1.22-.76-1.98l6.33-14.18c.15-.34.43-.62.78-.77l15.54-6.69,88.14-197.24c1.26-2.82,4.59-4.1,7.41-2.83,1.37.61,2.42,1.72,2.95,3.12s.49,2.92-.12,4.29l-91.72,205.26,1.66,5.31c.11.35.09.73-.06,1.06l-6.14,13.73c-.16.36-.46.65-.83.79-.17.07-.35.1-.54.1Zm-20.05-12.1l19.29,8.62,5.29-11.85-1.66-5.31c-.11-.35-.09-.73.06-1.06l91.95-205.78c.28-.64.3-1.35.05-2-.25-.65-.74-1.17-1.37-1.45-1.32-.59-2.86,0-3.45,1.32l-88.37,197.78c-.15.34-.43.62-.78.77l-15.54,6.69-5.48,12.27Z"/>
  <path class="cls-1" d="m88.33,572.74c-.21,0-.42-.04-.61-.13l-10.67-4.77c-.76-.34-1.09-1.22-.76-1.98l14.11-31.57c.16-.36.46-.65.83-.79.37-.14.78-.13,1.15.03l10.67,4.77c.76.34,1.09,1.22.76,1.98l-14.11,31.57c-.16.36-.46.65-.83.79-.17.07-.35.1-.54.1Zm-8.69-7.03l7.93,3.54,12.88-28.83-7.93-3.54-12.88,28.83Z"/>
  <path class="cls-1" d="m200.44,622.83c-.21,0-.42-.04-.61-.13l-10.67-4.77c-.76-.34-1.09-1.22-.76-1.98l14.11-31.57c.16-.36.46-.65.83-.79.37-.14.78-.13,1.15.03l10.67,4.77c.76.34,1.09,1.22.76,1.98l-14.11,31.57c-.16.36-.46.65-.83.79-.17.07-.35.1-.54.1Zm-8.69-7.03l7.93,3.54,12.88-28.83-7.93-3.54-12.88,28.83Z"/>
  <path class="cls-1" d="m234.68,568.46c-1.03,0-2.06-.22-3.03-.65h0l-12.15-5.43c-1.81-.81-3.2-2.28-3.91-4.13-.71-1.86-.65-3.88.16-5.69l12.53-28.04c.81-1.81,2.28-3.2,4.13-3.91,1.85-.71,3.88-.65,5.69.16l12.15,5.43c1.81.81,3.2,2.28,3.91,4.13.71,1.86.65,3.88-.16,5.69l-12.53,28.04c-.81,1.81-2.28,3.2-4.13,3.91-.86.33-1.76.49-2.66.49Zm-1.81-3.39c1.08.48,2.29.52,3.39.09,1.11-.42,1.98-1.25,2.46-2.33l12.53-28.04c.48-1.08.52-2.29.09-3.39s-1.25-1.98-2.33-2.46l-12.15-5.43c-1.08-.48-2.29-.52-3.39-.09-1.11.42-1.98,1.25-2.46,2.33l-12.53,28.04c-.48,1.08-.52,2.29-.09,3.39s1.25,1.98,2.33,2.46l12.15,5.43Z"/>
  <path class="cls-1" d="m266.86,567.11c-.2,0-.41-.04-.61-.13l-9.58-4.28c-.36-.16-.65-.46-.79-.83-.14-.37-.13-.79.03-1.15l3.41-7.62-12.17-5.44c-.76-.34-1.09-1.22-.76-1.98.34-.76,1.22-1.1,1.98-.76l13.54,6.05c.76.34,1.09,1.22.76,1.98l-3.41,7.62,6.84,3.06,3.53-7.9-.46-17.78-20.17-9.01c-.76-.34-1.09-1.22-.76-1.98.34-.76,1.22-1.09,1.98-.76l21.03,9.4c.53.24.87.75.89,1.33l.49,19.07c0,.22-.04.45-.13.65l-4.28,9.58c-.25.56-.8.89-1.37.89Z"/>
  <path class="cls-1" d="m270.88,558.12c-.2,0-.41-.04-.61-.13l-9.58-4.28c-.76-.34-1.09-1.22-.76-1.98.34-.76,1.22-1.1,1.98-.76l9.58,4.28c.76.34,1.09,1.22.76,1.98-.25.56-.8.89-1.37.89Z"/>
  <path class="cls-1" d="m37.96,539.03c-.23,0-.46-.05-.68-.16l-9.96-5.04c-.38-.19-.66-.54-.77-.94-.11-.41-.04-.85.19-1.21l16.7-25.96c.39-.61,1.16-.85,1.84-.57.67.28,1.05,1,.89,1.7l-6.74,31.01c-.1.45-.4.84-.82,1.04-.2.1-.42.15-.64.15Zm-7.79-7.13l6.74,3.41,4.57-21-11.31,17.58Z"/>
  <path class="cls-1" d="m63.56,545.13c-.21,0-.42-.04-.61-.13l-12.35-5.52c-.64-.29-1-.98-.86-1.67l6.12-30.2-11.11.4c-.83.02-1.52-.62-1.55-1.45-.03-.83.62-1.52,1.45-1.55l12.98-.47c.13,0,.25,0,.38.03.12.02.24.06.34.11l11.53,5.15c.63.28.98.95.87,1.63l-5.71,32.42c-.08.46-.37.85-.77,1.06-.22.12-.46.17-.7.17Zm-10.64-7.9l9.5,4.24,5.17-29.37-8.78-3.92-5.89,29.05Z"/>
  <path class="cls-1" d="m40.27,553.85c-6.59,0-17.81-6.53-18.94-8.72-1.17-2.28.29-4.76,3.5-10.19.57-.96,1.2-2.03,1.88-3.21.42-.72,1.34-.96,2.05-.55.72.42.96,1.33.55,2.05-.69,1.19-1.32,2.26-1.9,3.23-2.14,3.62-3.83,6.48-3.41,7.29,1.06,1.54,12.42,7.94,17.18,7.02,3-.57,6.19-6.59,7.95-11.25l-11.23-.5c-.83-.04-1.47-.74-1.43-1.56.04-.83.75-1.49,1.56-1.43l13.25.59c.47.02.9.26,1.16.64.27.38.34.87.2,1.31-.46,1.42-4.63,13.95-10.9,15.15-.46.09-.95.13-1.47.13Z"/>
  <path class="cls-1" d="m267.25,639.47c-.23,0-.47-.05-.68-.16l-13.03-6.65c-.4-.2-.69-.58-.78-1.01-.1-.44,0-.9.28-1.25,1.84-2.36,18.02-23.05,18.53-23.66.44-.52,1.17-.68,1.79-.39s.96.96.84,1.62l-5.47,30.27c-.08.47-.39.87-.81,1.08-.21.1-.44.16-.67.16Zm-10.73-8.66l9.61,4.91,4.04-22.35c-3.92,5-10.01,12.79-13.65,17.44Z"/>
  <path class="cls-1" d="m254.22,632.82c-.45,0-.9-.2-1.19-.59l-5.69-7.43c-.44-.57-.41-1.37.07-1.91l20.31-22.9c.32-.36.79-.54,1.27-.5.48.05.91.32,1.15.74l3.88,6.71c.41.72.17,1.63-.55,2.05-.72.41-1.63.17-2.05-.55l-2.83-4.91-18.11,20.42,4.94,6.45c.5.66.38,1.6-.28,2.1-.27.21-.59.31-.91.31Z"/>
  <path class="cls-1" d="m258.01,652.33c-.09,0-.18,0-.27,0-6.19-.34-14.44-10.17-15.65-12.15-1.38-2.27.43-6.55,4.33-15.26l.55-1.23c.34-.76,1.22-1.1,1.98-.76.76.34,1.09,1.22.76,1.98l-.55,1.23c-2.23,4.99-5.01,11.19-4.49,12.49,1.05,1.72,8.63,10.44,13.24,10.69.03,0,.07,0,.1,0,2.91,0,6.3-6.86,7.8-11.8.24-.79,1.08-1.24,1.87-1,.79.24,1.24,1.08,1,1.87-.71,2.35-4.53,13.93-10.67,13.93Z"/>
  <path class="cls-1" d="m83.82,554.18c-.2,0-.41-.04-.61-.13l-20.25-9.05c-.76-.34-1.09-1.22-.76-1.98.34-.76,1.22-1.09,1.98-.76l20.25,9.05c.76.34,1.09,1.22.76,1.98-.25.56-.8.89-1.37.89Z"/>
  <path class="cls-1" d="m101.03,562.35c-.2,0-.41-.04-.61-.13l-6.72-3c-.76-.34-1.09-1.22-.76-1.98.34-.76,1.22-1.1,1.98-.76l6.72,3c.76.34,1.09,1.22.76,1.98-.25.56-.8.89-1.37.89Z"/>
  <path class="cls-1" d="m195.08,603.96c-.2,0-.41-.04-.61-.13l-71.22-31.83c-.76-.34-1.09-1.22-.76-1.98.34-.76,1.22-1.09,1.98-.76l71.22,31.83c.76.34,1.09,1.22.76,1.98-.25.56-.8.89-1.37.89Z"/>
  <path class="cls-1" d="m247.12,627.21c-.2,0-.41-.04-.61-.13l-40.54-18.12c-.76-.34-1.09-1.22-.76-1.98.34-.76,1.22-1.09,1.98-.76l40.54,18.12c.76.34,1.09,1.22.76,1.98-.25.56-.8.89-1.37.89Z"/>
  <path class="cls-1" d="m279.13,641.52c-.2,0-.41-.04-.61-.13l-10.41-4.65c-.76-.34-1.09-1.22-.76-1.98.34-.76,1.22-1.1,1.98-.76l9.04,4.04,62.52-139.91c.34-.76,1.22-1.1,1.98-.76.76.34,1.09,1.22.76,1.98l-63.13,141.28c-.25.56-.8.89-1.37.89Z"/>
  <path class="cls-1" d="m247.45,658.83c-.21,0-.42-.04-.61-.13l-195.63-87.42c-.42-.19-.73-.55-.84-1l-5.53-21.56c-.21-.8.28-1.62,1.08-1.83.81-.21,1.62.28,1.83,1.08l5.35,20.86,194.29,86.82,31.03-16.96c.73-.4,1.64-.13,2.04.6.4.73.13,1.64-.6,2.04l-31.68,17.31c-.22.12-.47.18-.72.18Z"/>
  <path class="cls-1" d="m178,666.91c-.2,0-.41-.04-.61-.13l-85.86-38.37c-.76-.34-1.09-1.22-.76-1.98l4.46-9.98c.16-.36.46-.65.83-.79.37-.14.78-.13,1.15.03l85.86,38.37c.36.16.65.46.79.83.14.37.13.79-.03,1.15l-4.46,9.98c-.25.56-.8.89-1.37.89Zm-83.88-40.62l83.12,37.14,3.24-7.24-83.12-37.14-3.24,7.24Z"/>
  <path class="cls-1" d="m180.04,655.85c-.21,0-.42-.04-.61-.13l-81.02-36.2c-.47-.21-.79-.64-.87-1.14-.08-.5.11-1.01.49-1.35l20.43-18.02c.44-.39,1.07-.48,1.6-.24l60.38,26.98c.54.24.88.77.89,1.36l.21,27.24c0,.51-.25.99-.68,1.27-.25.16-.53.24-.82.24Zm-78.28-38.12l76.76,34.3-.18-23.94-58.62-26.19-17.96,15.83Z"/>
  <path class="cls-1" d="m340.13,84.18c-.2,0-.41-.04-.61-.13-.76-.34-1.09-1.22-.76-1.98l27.56-61.68c.71-1.58.75-3.33.14-4.95-.62-1.61-1.83-2.89-3.4-3.6-3.26-1.45-7.09.01-8.54,3.27l-15.65,35.01c-.34.76-1.22,1.1-1.98.76-.76-.34-1.09-1.22-.76-1.98l15.65-35.01c2.13-4.77,7.74-6.91,12.51-4.78,2.31,1.03,4.08,2.9,4.98,5.26.9,2.36.83,4.93-.2,7.24l-27.56,61.68c-.25.56-.8.89-1.37.89Z"/>
  <path class="cls-1" d="m419.42,119.6c-.2,0-.41-.04-.61-.13-.76-.34-1.09-1.22-.76-1.98l27.56-61.68c2.13-4.76,7.74-6.91,12.51-4.78,4.77,2.13,6.91,7.74,4.78,12.51l-15.65,35.01c-.34.76-1.22,1.1-1.98.76-.76-.34-1.09-1.22-.76-1.98l15.65-35.01c1.45-3.26-.01-7.09-3.27-8.54-3.25-1.45-7.09,0-8.54,3.27l-27.56,61.68c-.25.56-.8.89-1.37.89Z"/>
  <path class="cls-1" d="m412.87,112.87c-.2,0-.41-.04-.61-.13-.76-.34-1.09-1.22-.76-1.98l26.14-58.51c1.03-2.31,2.9-4.08,5.26-4.98,2.36-.9,4.94-.83,7.24.2,4.77,2.13,6.91,7.74,4.78,12.51l-10.7,23.95c-.34.76-1.22,1.09-1.98.76-.76-.34-1.09-1.22-.76-1.98l10.7-23.95c1.45-3.26-.01-7.09-3.27-8.54-1.58-.7-3.33-.75-4.95-.14-1.61.62-2.89,1.83-3.6,3.4l-26.14,58.51c-.25.56-.8.89-1.37.89Z"/>
  <path class="cls-1" d="m370.75,70.64c-.2,0-.41-.04-.61-.13-.76-.34-1.09-1.22-.76-1.98l17.42-39c1.45-3.26-.01-7.09-3.27-8.54-3.26-1.45-7.09.01-8.54,3.27l-15.65,35.01c-.34.76-1.22,1.1-1.98.76-.76-.34-1.09-1.22-.76-1.98l15.65-35.01c2.13-4.77,7.74-6.91,12.51-4.78,4.77,2.13,6.91,7.74,4.78,12.51l-17.42,39c-.25.56-.8.89-1.37.89Z"/>
  <path class="cls-1" d="m341.58,326.03c-.2,0-.41-.04-.61-.13l-22.53-10.07c-.36-.16-.65-.46-.79-.83-.14-.37-.13-.79.03-1.15l8.85-19.81c.34-.76,1.22-1.1,1.98-.76.76.34,1.09,1.22.76,1.98l-8.24,18.44,21.16,9.46c.76.34,1.09,1.22.76,1.98-.25.56-.8.89-1.37.89Z"/>
  <path class="cls-1" d="m286.9,329.95c-.2,0-.41-.04-.61-.13-.76-.34-1.09-1.22-.76-1.98l14.6-32.69-9.79-4.37c-.51-.23-.85-.71-.88-1.27l-.71-10.63c-.05-.83.57-1.54,1.4-1.6.81-.05,1.54.57,1.6,1.4l.65,9.73,10.33,4.62c.36.16.65.46.79.83.14.37.13.79-.03,1.15l-15.22,34.06c-.25.56-.8.89-1.37.89Z"/>
  <path class="cls-1" d="m285.18,400.86c-1.7,0-3.39-.36-4.99-1.07-6.17-2.76-8.94-10.01-6.19-16.18,2.76-6.17,10.01-8.94,16.18-6.19,2.99,1.33,5.28,3.75,6.44,6.81,1.17,3.06,1.08,6.38-.26,9.37-1.33,2.99-3.75,5.28-6.81,6.44-1.42.54-2.9.81-4.38.81Zm.02-21.51c-3.54,0-6.92,2.04-8.46,5.48-2.08,4.66.02,10.14,4.67,12.22,2.25,1.01,4.77,1.08,7.08.19,2.31-.88,4.13-2.61,5.14-4.87h0c1.01-2.25,1.08-4.77.19-7.08-.88-2.31-2.61-4.13-4.87-5.14-1.22-.55-2.5-.8-3.76-.8Z"/>
  <path class="cls-1" d="m285.17,392.85c-.58,0-1.16-.12-1.72-.37-2.14-.96-3.1-3.47-2.14-5.6.46-1.03,1.3-1.83,2.36-2.23,1.06-.4,2.21-.37,3.24.09,2.13.96,3.1,3.47,2.14,5.6,0,0,0,0,0,0-.7,1.57-2.26,2.51-3.88,2.51Zm0-5.48c-.48,0-.93.27-1.13.73-.28.63,0,1.36.63,1.64.62.28,1.36,0,1.64-.63.28-.63,0-1.36-.63-1.64-.16-.07-.33-.11-.5-.11Zm2.5,2.36h0,0Z"/>
  <path class="cls-1" d="m90.12,70.64c-.83,0-1.5-.67-1.5-1.5v-17.44c0-.83.67-1.5,1.5-1.5s1.5.67,1.5,1.5v17.44c0,.83-.67,1.5-1.5,1.5Z"/>
  <path class="cls-1" d="m90.12,99.37c-.83,0-1.5-.67-1.5-1.5v-17.44c0-.83.67-1.5,1.5-1.5s1.5.67,1.5,1.5v17.44c0,.83-.67,1.5-1.5,1.5Z"/>
  <path class="cls-1" d="m84.48,76.29h-17.44c-.83,0-1.5-.67-1.5-1.5s.67-1.5,1.5-1.5h17.44c.83,0,1.5.67,1.5,1.5s-.67,1.5-1.5,1.5Z"/>
  <path class="cls-1" d="m113.2,76.29h-17.44c-.83,0-1.5-.67-1.5-1.5s.67-1.5,1.5-1.5h17.44c.83,0,1.5.67,1.5,1.5s-.67,1.5-1.5,1.5Z"/>
  <path class="cls-1" d="m354.23,633.42c-.83,0-1.5-.67-1.5-1.5v-17.44c0-.83.67-1.5,1.5-1.5s1.5.67,1.5,1.5v17.44c0,.83-.67,1.5-1.5,1.5Z"/>
  <path class="cls-1" d="m354.23,662.15c-.83,0-1.5-.67-1.5-1.5v-17.44c0-.83.67-1.5,1.5-1.5s1.5.67,1.5,1.5v17.44c0,.83-.67,1.5-1.5,1.5Z"/>
  <path class="cls-1" d="m348.58,639.07h-17.44c-.83,0-1.5-.67-1.5-1.5s.67-1.5,1.5-1.5h17.44c.83,0,1.5.67,1.5,1.5s-.67,1.5-1.5,1.5Z"/>
  <path class="cls-1" d="m377.31,639.07h-17.44c-.83,0-1.5-.67-1.5-1.5s.67-1.5,1.5-1.5h17.44c.83,0,1.5.67,1.5,1.5s-.67,1.5-1.5,1.5Z"/>
  <path class="cls-1" d="m496.87,47.56c-.83,0-1.5-.67-1.5-1.5v-17.44c0-.83.67-1.5,1.5-1.5s1.5.67,1.5,1.5v17.44c0,.83-.67,1.5-1.5,1.5Z"/>
  <path class="cls-1" d="m496.87,76.29c-.83,0-1.5-.67-1.5-1.5v-17.44c0-.83.67-1.5,1.5-1.5s1.5.67,1.5,1.5v17.44c0,.83-.67,1.5-1.5,1.5Z"/>
  <path class="cls-1" d="m491.22,53.2h-17.44c-.83,0-1.5-.67-1.5-1.5s.67-1.5,1.5-1.5h17.44c.83,0,1.5.67,1.5,1.5s-.67,1.5-1.5,1.5Z"/>
  <path class="cls-1" d="m519.95,53.2h-17.44c-.83,0-1.5-.67-1.5-1.5s.67-1.5,1.5-1.5h17.44c.83,0,1.5.67,1.5,1.5s-.67,1.5-1.5,1.5Z"/>
  <path class="cls-1" d="m469.84,469.31c-.83,0-1.5-.67-1.5-1.5v-17.44c0-.83.67-1.5,1.5-1.5s1.5.67,1.5,1.5v17.44c0,.83-.67,1.5-1.5,1.5Z"/>
  <path class="cls-1" d="m469.84,498.04c-.83,0-1.5-.67-1.5-1.5v-17.44c0-.83.67-1.5,1.5-1.5s1.5.67,1.5,1.5v17.44c0,.83-.67,1.5-1.5,1.5Z"/>
  <path class="cls-1" d="m464.2,474.96h-17.44c-.83,0-1.5-.67-1.5-1.5s.67-1.5,1.5-1.5h17.44c.83,0,1.5.67,1.5,1.5s-.67,1.5-1.5,1.5Z"/>
  <path class="cls-1" d="m492.93,474.96h-17.44c-.83,0-1.5-.67-1.5-1.5s.67-1.5,1.5-1.5h17.44c.83,0,1.5.67,1.5,1.5s-.67,1.5-1.5,1.5Z"/>
  <path class="cls-1" d="m460.02,465.14c-.38,0-.77-.15-1.06-.44l-10.33-10.33c-.59-.59-.59-1.54,0-2.12s1.54-.59,2.12,0l10.33,10.33c.59.59.59,1.54,0,2.12-.29.29-.68.44-1.06.44Z"/>
  <path class="cls-1" d="m489.99,495.11c-.38,0-.77-.15-1.06-.44l-10.33-10.33c-.59-.59-.59-1.54,0-2.12s1.54-.59,2.12,0l10.33,10.33c.59.59.59,1.54,0,2.12-.29.29-.68.44-1.06.44Z"/>
  <path class="cls-1" d="m449.69,495.11c-.38,0-.77-.15-1.06-.44-.59-.59-.59-1.54,0-2.12l10.33-10.33c.59-.59,1.54-.59,2.12,0s.59,1.54,0,2.12l-10.33,10.33c-.29.29-.68.44-1.06.44Z"/>
  <path class="cls-1" d="m479.66,465.14c-.38,0-.77-.15-1.06-.44-.59-.59-.59-1.54,0-2.12l10.33-10.33c.59-.59,1.54-.59,2.12,0s.59,1.54,0,2.12l-10.33,10.33c-.29.29-.68.44-1.06.44Z"/>
  <path class="cls-1" d="m75.76,262.67c-.83,0-1.5-.67-1.5-1.5v-17.44c0-.83.67-1.5,1.5-1.5s1.5.67,1.5,1.5v17.44c0,.83-.67,1.5-1.5,1.5Z"/>
  <path class="cls-1" d="m75.76,291.4c-.83,0-1.5-.67-1.5-1.5v-17.44c0-.83.67-1.5,1.5-1.5s1.5.67,1.5,1.5v17.44c0,.83-.67,1.5-1.5,1.5Z"/>
  <path class="cls-1" d="m70.11,268.31h-17.44c-.83,0-1.5-.67-1.5-1.5s.67-1.5,1.5-1.5h17.44c.83,0,1.5.67,1.5,1.5s-.67,1.5-1.5,1.5Z"/>
  <path class="cls-1" d="m98.84,268.31h-17.44c-.83,0-1.5-.67-1.5-1.5s.67-1.5,1.5-1.5h17.44c.83,0,1.5.67,1.5,1.5s-.67,1.5-1.5,1.5Z"/>
  <path class="cls-1" d="m65.94,258.5c-.38,0-.77-.15-1.06-.44l-10.33-10.33c-.59-.59-.59-1.54,0-2.12s1.54-.59,2.12,0l10.33,10.33c.59.59.59,1.54,0,2.12-.29.29-.68.44-1.06.44Z"/>
  <path class="cls-1" d="m95.91,288.47c-.38,0-.77-.15-1.06-.44l-10.33-10.33c-.59-.59-.59-1.54,0-2.12s1.54-.59,2.12,0l10.33,10.33c.59.59.59,1.54,0,2.12-.29.29-.68.44-1.06.44Z"/>
  <path class="cls-1" d="m55.6,288.47c-.38,0-.77-.15-1.06-.44-.59-.59-.59-1.54,0-2.12l10.33-10.33c.59-.59,1.54-.59,2.12,0s.59,1.54,0,2.12l-10.33,10.33c-.29.29-.68.44-1.06.44Z"/>
  <path class="cls-1" d="m85.57,258.5c-.38,0-.77-.15-1.06-.44-.59-.59-.59-1.54,0-2.12l10.33-10.33c.59-.59,1.54-.59,2.12,0s.59,1.54,0,2.12l-10.33,10.33c-.29.29-.68.44-1.06.44Z"/>
</svg>