<?xml version="1.0" encoding="UTF-8"?>
<svg id="Layer_1" data-name="Layer 1" xmlns="http://www.w3.org/2000/svg" viewBox="0 0 677.07 533.16">
  <defs>
      <style>
          .cls-1, .cls-2 {
          stroke-width: 0px;
          }

          :root { fill:#222 }
          .accent { fill: #f9322c; }

          @media (prefers-color-scheme: dark) {
          :root {  fill: #f9322c; }
          .accent { fill:#dee2e6; }
          }
      </style>
  </defs>
  <g>
    <polygon class="accent" points="239.79 172.02 232.86 178.51 261.44 208.98 238.05 184.04 201.15 218.64 243.95 264.28 243.95 264.28 201.15 218.64 190.84 221.33 237.12 270.68 110.57 389.38 94.8 389.53 84.59 399.1 99.47 414.96 109.36 405.69 109.88 400.19 249.02 269.69 353.93 381.54 390.83 346.94 396.01 352.46 402.93 345.97 239.79 172.02"/>
    <polygon class="accent" points="242.89 276.83 350.58 391.66 353.93 381.54 249.72 270.43 242.89 276.83"/>
  </g>
  <rect class="accent" x="50.47" y="466.75" width="84.75" height="9.85" transform="translate(373.37 81.29) rotate(46.84)"/>
  <polygon class="accent" points="123.79 497.47 69.09 439.14 92.35 431.29 133.12 474.76 123.79 497.47"/>
  <polygon class="accent" points="56.37 353.43 79.83 378.63 69.15 389.23 75.81 394.77 84.45 386.91 155.25 458.78 145.5 468.92 152.24 476.53 162.73 467.91 186.87 493.51 214.25 483.79 203.1 511.85 209.55 519.24 311.75 423.89 153.76 253.56 77.3 325.78 56.37 353.43"/>
  <path class="cls-1" d="m345.94,167.61c-.4,0-.8-.16-1.09-.47l-25.93-27.65c-.57-.6-.54-1.55.07-2.12.6-.57,1.55-.54,2.12.07l25.93,27.65c.57.6.54,1.55-.07,2.12-.29.27-.66.41-1.03.41Z"/>
  <path class="cls-1" d="m410.12,286.23c-.4,0-.8-.16-1.09-.47l-115.15-122.78c-.57-.6-.54-1.55.07-2.12.6-.57,1.55-.54,2.12.07l115.15,122.78c.57.6.54,1.55-.07,2.12-.29.27-.66.41-1.03.41Z"/>
  <path class="cls-1" d="m435.16,262.75c-.4,0-.8-.16-1.09-.47l-82.55-88.02c-.57-.6-.54-1.55.07-2.12.6-.57,1.55-.54,2.12.07l82.55,88.02c.57.6.54,1.55-.07,2.12-.29.27-.66.41-1.03.41Z"/>
  <path class="cls-1" d="m423.89,250.73c-.41,0-.81-.17-1.09-.47l-70.43-75.1c-.57-.6-.54-1.55.07-2.12s1.55-.54,2.12.07l69.98,74.61c22.05-.55,43.04-9.15,59.15-24.27,36.11-33.87,37.94-90.8,4.07-126.91-33.87-36.11-90.8-37.94-126.91-4.07-16.12,15.12-26.05,35.5-28,57.48l14.33,15.28c.57.6.54,1.55-.07,2.12-.6.57-1.55.54-2.12-.07l-14.79-15.77c-.29-.31-.44-.73-.4-1.15,1.88-22.97,12.18-44.3,29-60.08,37.32-35,96.15-33.11,131.15,4.21,35,37.32,33.11,96.15-4.21,131.15-16.82,15.78-38.77,24.69-61.82,25.09h-.03Z"/>
  <path class="cls-1" d="m307.49,168.86c-4.98,0-9.95-1.98-13.62-5.89-3.41-3.64-5.2-8.38-5.04-13.37.16-4.98,2.25-9.6,5.89-13.01,3.64-3.41,8.38-5.19,13.37-5.04,4.98.16,9.61,2.25,13.02,5.89,7.04,7.51,6.66,19.34-.84,26.38h0c-3.6,3.37-8.18,5.04-12.76,5.04Zm-.02-34.32c-3.99,0-7.78,1.5-10.7,4.24-3.05,2.86-4.81,6.74-4.94,10.92-.13,4.18,1.37,8.17,4.23,11.22,5.91,6.3,15.84,6.62,22.14.71,6.3-5.91,6.62-15.84.71-22.14-2.86-3.05-6.74-4.81-10.92-4.94-.17,0-.34,0-.51,0Zm11.75,28.19h0,0Z"/>
  <path class="cls-1" d="m433.96,119.93c-3.69,0-7.29-1.37-10.32-3.95-3.56-3.04-5.91-7.41-6.62-12.31-1.47-10.19,4.7-19.54,13.75-20.84,9.05-1.31,17.61,5.92,19.08,16.11h0c.71,4.9-.31,9.76-2.87,13.68-2.6,3.98-6.46,6.53-10.88,7.16-.72.1-1.43.16-2.15.16Zm-1.06-34.25c-.56,0-1.13.04-1.7.12-7.41,1.07-12.44,8.89-11.21,17.44.6,4.18,2.59,7.89,5.6,10.46,2.95,2.52,6.54,3.62,10.09,3.11,3.55-.51,6.68-2.58,8.8-5.83,2.16-3.31,3.01-7.43,2.41-11.61h0c-1.14-7.89-7.22-13.69-13.99-13.69Z"/>
  <path class="cls-1" d="m471.32,103.15c-2.68,0-6.3-2.33-9.15-5.12-3.84-3.77-6.86-8.97-4.4-11.47.81-.82,2.42-1.52,5.49-.15,1.94.87,4.09,2.41,6.06,4.34s3.55,4.06,4.45,5.98c1.43,3.04.76,4.67-.05,5.49-.63.65-1.46.93-2.4.93Zm-11.14-14.52c-.13,0-.23.02-.29.05-.25.5.66,3.55,4.39,7.21,3.73,3.66,6.79,4.5,7.33,4.21.25-.5-.66-3.55-4.39-7.21-3.28-3.22-6.06-4.27-7.03-4.27Z"/>
  <g>
    <path class="cls-1" d="m422.65,291.65c-.2,0-.41,0-.61,0-4.98-.16-9.6-2.25-13.01-5.89-2.78-2.96-4.48-6.67-4.92-10.73-.05-.47.12-.93.46-1.26.34-.32.82-.46,1.29-.38,4.91.86,9.8-.59,13.42-3.98,3.62-3.39,5.38-8.18,4.84-13.14-.05-.47.12-.93.46-1.26.34-.32.82-.46,1.29-.38,4.02.7,7.62,2.64,10.39,5.6h0c3.41,3.64,5.2,8.38,5.04,13.37-.16,4.98-2.25,9.61-5.89,13.02-3.49,3.27-8,5.05-12.75,5.05Zm-15.25-15.07c.62,2.67,1.92,5.1,3.81,7.12,2.86,3.05,6.74,4.81,10.92,4.94,4.19.13,8.17-1.37,11.22-4.23,3.05-2.86,4.81-6.74,4.94-10.92.13-4.18-1.37-8.17-4.23-11.22h0c-1.89-2.01-4.23-3.46-6.86-4.25,0,5.15-2.08,10.01-5.88,13.57-3.8,3.56-8.79,5.33-13.92,5Z"/>
    <path class="cls-1" d="m405.6,276.36c-.09,0-.17,0-.26-.02-4.02-.7-7.62-2.64-10.39-5.6-4.02-4.29-5.76-10.08-4.77-15.91.11-.66.65-1.17,1.32-1.24,3.44-.36,6.57-1.79,9.07-4.13,2.5-2.35,4.13-5.39,4.71-8.79.11-.66.65-1.17,1.32-1.24,5.87-.62,11.55,1.49,15.57,5.78,2.78,2.96,4.48,6.67,4.92,10.73.09.82-.5,1.56-1.33,1.65-.83.09-1.56-.5-1.65-1.33-.37-3.41-1.8-6.52-4.12-9-3.12-3.33-7.45-5.1-11.98-4.92-.84,3.58-2.68,6.79-5.38,9.31-2.69,2.53-6.01,4.16-9.64,4.77-.46,4.52,1.02,8.94,4.14,12.27,2.33,2.48,5.34,4.1,8.72,4.69.82.14,1.36.92,1.22,1.74-.13.73-.76,1.24-1.48,1.24Z"/>
    <path class="cls-1" d="m408.64,276.63c-1.09,0-2.19-.09-3.3-.29-.82-.14-1.36-.92-1.22-1.74s.92-1.36,1.74-1.22c4.91.86,9.8-.59,13.42-3.98,3.62-3.39,5.38-8.18,4.84-13.14-.09-.82.5-1.56,1.33-1.65.83-.09,1.56.5,1.65,1.33.65,5.91-1.46,11.61-5.77,15.65-3.5,3.28-8,5.04-12.69,5.04Z"/>
    <path class="cls-1" d="m389.81,256.69c-5.15,0-10-2.08-13.56-5.88-3.41-3.64-5.2-8.38-5.04-13.37.16-4.98,2.25-9.6,5.89-13.01,3.64-3.41,8.39-5.18,13.37-5.04,4.98.16,9.61,2.25,13.02,5.89,4.02,4.29,5.76,10.08,4.77,15.91-.14.82-.91,1.37-1.73,1.23-.82-.14-1.37-.91-1.23-1.73.83-4.89-.63-9.76-4-13.35-2.86-3.05-6.74-4.81-10.92-4.94-4.19-.13-8.17,1.37-11.22,4.23-3.05,2.86-4.81,6.74-4.94,10.92-.13,4.18,1.37,8.17,4.23,11.22,3.37,3.6,8.14,5.36,13.07,4.84.81-.08,1.56.51,1.65,1.34.09.82-.51,1.56-1.34,1.65-.67.07-1.34.1-2.01.1Z"/>
  </g>
  <path class="cls-1" d="m366.38,231.65c-4.98,0-9.95-1.98-13.62-5.89-7.04-7.51-6.66-19.34.85-26.38,7.51-7.04,19.34-6.66,26.38.85,7.04,7.51,6.66,19.34-.85,26.38h0c-3.6,3.37-8.18,5.04-12.76,5.04Zm-.01-34.31c-3.84,0-7.69,1.4-10.71,4.23-6.3,5.91-6.62,15.84-.71,22.14,5.91,6.3,15.84,6.62,22.14.71,6.3-5.91,6.62-15.84.71-22.14-3.08-3.28-7.25-4.94-11.43-4.94Zm11.75,28.18h0,0Z"/>
  <path class="cls-1" d="m334.19,197.42c-2.1,0-3.81-.73-4.7-2-.53-.75-.3-1.66-.01-2.53,3.41-10.48,44.19-83.11,88.96-98.43.78-.27,1.64.15,1.9.93.27.78-.15,1.64-.93,1.9-44.06,15.08-84.98,88.66-87.15,96.68.4.25,1.07.43,1.99.44,1.65-.02,4.05-.75,5.41-2.77.34-.5,1.08-1.76,2.1-3.51,6.26-10.67,25.31-43.13,46.89-61.21,23.9-20.01,29.72-21.31,30.65-21.37.83-.04,1.54.58,1.59,1.4s-.58,1.54-1.4,1.59c-.13.03-5.65,1.2-28.91,20.68-21.18,17.74-40.03,49.87-46.23,60.42-1.09,1.86-1.81,3.08-2.2,3.67-1.65,2.46-4.75,4.06-7.87,4.09-.03,0-.06,0-.08,0Zm-2.02-3.02s0,0,0,0h0Z"/>
  <path class="cls-1" d="m508.75,210.05c-.1,0-.19,0-.29-.03l-9.29-1.82c-.81-.16-1.34-.95-1.18-1.76.16-.81.95-1.35,1.76-1.18l8.04,1.58,6.37-17.12-5.36-4.59c-.63-.54-.7-1.49-.16-2.11.54-.63,1.49-.7,2.11-.16l6.15,5.27c.48.41.65,1.07.43,1.66l-7.18,19.3c-.22.6-.79.98-1.41.98Z"/>
  <path class="cls-1" d="m503.62,118.02c-.22,0-.44-.05-.64-.15-.75-.36-1.07-1.25-.71-2l5.65-11.85c1.74-3.66,1.08-7.93-1.69-10.89l-13.89-14.81c-2.77-2.96-7-3.89-10.76-2.39l-12.19,4.88c-.77.31-1.64-.07-1.95-.84-.31-.77.07-1.64.84-1.95l12.19-4.88c4.91-1.97,10.44-.74,14.06,3.12l13.89,14.81c3.62,3.86,4.49,9.45,2.21,14.23l-5.65,11.85c-.26.54-.79.85-1.36.85Z"/>
  <path class="cls-1" d="m428.02,125.18c-6.45,0-13.22-3.75-20.17-11.15-.57-.6-.54-1.55.07-2.12.61-.57,1.55-.54,2.12.07,6.7,7.15,13.07,10.58,18.89,10.18,5.3-.36,10.37-3.88,15.06-10.48.48-.67,1.42-.83,2.09-.35.67.48.83,1.42.35,2.09-5.24,7.36-11.06,11.31-17.3,11.73-.37.02-.74.04-1.12.04Z"/>
  <path class="cls-1" d="m345.94,167.61c-.08,0-.16,0-.24-.02-.82-.13-1.38-.9-1.25-1.71,3.56-22.64,31.24-64.02,68.23-79.97,26.02-11.22,52.65-8.33,77,8.36.68.47.86,1.4.39,2.08-.47.69-1.4.86-2.08.39-23.8-16.31-48.74-19.03-74.12-8.08-36.05,15.54-63,55.72-66.46,77.68-.12.74-.75,1.27-1.48,1.27Z"/>
  <path class="cls-1" d="m409.23,235.1c-.77,0-1.42-.58-1.49-1.36-.08-.83.53-1.56,1.36-1.63,22.14-2.04,63.96-26.36,81.78-61.34,12.55-24.63,11.43-49.69-3.32-74.48-.42-.71-.19-1.63.52-2.06.71-.42,1.63-.19,2.06.52,15.09,25.37,16.27,52.13,3.41,77.38-18.29,35.9-61.35,60.87-84.17,62.97-.05,0-.09,0-.14,0Z"/>
  <path class="cls-1" d="m395.15,125.02c-.59,0-1.16-.35-1.39-.94l-4.41-10.95c-.31-.77.06-1.64.83-1.95.77-.31,1.64.06,1.95.83l4.41,10.95c.31.77-.06,1.64-.83,1.95-.18.07-.37.11-.56.11Z"/>
  <path class="cls-1" d="m301.44,220.68c-4.05,0-8.02-1.55-10.92-4.64-2.8-2.99-4.21-6.95-3.95-11.16.26-4.17,2.12-8.09,5.25-11.02,6.49-6.08,16.46-6.03,22.22.11,2.8,2.99,4.21,6.95,3.95,11.16-.26,4.17-2.12,8.09-5.25,11.02-3.22,3.02-7.3,4.53-11.3,4.53Zm1.69-28.36c-3.26,0-6.6,1.24-9.25,3.72-2.57,2.41-4.1,5.61-4.31,9.02-.21,3.37.91,6.54,3.14,8.92,4.64,4.94,12.7,4.93,17.98-.02l1.03,1.09-1.03-1.09c2.57-2.41,4.1-5.61,4.31-9.02.21-3.37-.91-6.54-3.14-8.92-2.31-2.47-5.48-3.7-8.73-3.7Z"/>
  <path class="cls-1" d="m383.6,312.04c-1.58,0-2.97-.45-4.1-1.35-2.09-1.67-2.87-4.61-2.2-8.26.61-3.33,2.38-6.94,4.97-10.18,5.65-7.06,13.29-10.02,17.39-6.74,2.09,1.67,2.87,4.61,2.2,8.26-.61,3.33-2.38,6.94-4.97,10.18s-5.74,5.75-8.85,7.08c-1.58.67-3.08,1.01-4.45,1.01Zm11.98-24.85c-2.9,0-7.27,2.32-10.97,6.94-2.29,2.86-3.84,6-4.36,8.85-.46,2.48-.05,4.44,1.12,5.38,1.17.94,3.18.91,5.49-.08,2.66-1.13,5.39-3.33,7.68-6.19s3.84-6,4.36-8.85c.46-2.48.05-4.44-1.12-5.38-.55-.44-1.31-.67-2.21-.67Z"/>
  <path class="cls-1" d="m395.61,347.93s-.03,0-.05,0c-.4-.01-.77-.18-1.05-.47l-163.14-173.95c-.57-.6-.54-1.55.07-2.12l6.92-6.49c.29-.27.68-.42,1.07-.41.4.01.77.18,1.05.47l163.14,173.95c.57.6.54,1.55-.07,2.12l-6.92,6.49c-.28.26-.65.41-1.03.41Zm-161.02-175.39l161.09,171.77,4.74-4.44-161.09-171.77-4.74,4.44Z"/>
  <path class="cls-1" d="m353.53,377.01c-.4,0-.8-.16-1.09-.47-.57-.6-.54-1.55.07-2.12l35.8-33.58-150.73-160.71-35.8,33.58c-.6.57-1.55.54-2.12-.07-.57-.6-.54-1.55.07-2.12l36.9-34.6c.6-.57,1.55-.54,2.12.07l152.78,162.9c.27.29.42.68.41,1.07s-.18.77-.47,1.05l-36.9,34.6c-.29.27-.66.41-1.03.41Z"/>
  <path class="cls-1" d="m200.52,301.5c-.4,0-.8-.16-1.09-.47l-46.98-50.1c-.27-.29-.42-.68-.41-1.07s.18-.77.47-1.05l36.9-34.6c.6-.57,1.55-.54,2.12.07s.54,1.55-.07,2.12l-35.8,33.58,45.96,49c.57.6.54,1.55-.07,2.12-.29.27-.66.41-1.03.41Z"/>
  <path class="cls-1" d="m313.29,421.73c-.4,0-.8-.16-1.09-.47l-107.49-114.61c-.57-.6-.54-1.55.07-2.12.61-.57,1.55-.54,2.12.07l106.46,113.51,35.8-33.58c.6-.57,1.55-.54,2.12.07.57.6.54,1.55-.07,2.12l-36.9,34.6c-.29.27-.66.41-1.03.41Z"/>
  <path class="cls-1" d="m350.18,387.13c-.41,0-.81-.17-1.09-.47l-107.7-114.83c-.57-.6-.54-1.55.07-2.12.6-.57,1.55-.54,2.12.07l105.97,112.99,2.27-6.88-103.6-110.47c-.57-.6-.54-1.55.07-2.12s1.55-.54,2.12.07l104.21,111.12c.38.4.5.98.33,1.5l-3.34,10.12c-.17.5-.58.88-1.1.99-.11.02-.22.04-.32.04Z"/>
  <path class="cls-1" d="m237.42,266.89c-.4,0-.8-.16-1.09-.47l-46.98-50.1c-.36-.39-.49-.93-.35-1.44.15-.51.55-.9,1.06-1.04l10.31-2.69c.54-.14,1.1.02,1.47.42l43.5,46.38c.57.6.54,1.55-.07,2.12-.6.57-1.55.54-2.12-.07l-42.89-45.73-7.01,1.83,45.26,48.26c.57.6.54,1.55-.07,2.12-.29.27-.66.41-1.03.41Z"/>
  <path class="cls-1" d="m387.14,325.03c-.41,0-.81-.17-1.09-.47l-132.37-141.14c-.31-.33-.46-.79-.39-1.25s.34-.85.74-1.08l38.55-22.19c.6-.35,1.37-.23,1.84.27l118.43,126.28c.48.51.54,1.28.16,1.86l-24.62,37.05c-.25.38-.67.63-1.12.67-.04,0-.08,0-.12,0Zm-129.98-142.28l129.78,138.37,22.91-34.49-116.8-124.54-35.88,20.66Z"/>
  <path class="cls-1" d="m380.35,138.32c-.5,0-.99-.25-1.27-.7l-5.44-8.66c-.44-.7-.23-1.63.47-2.07.7-.44,1.63-.23,2.07.47l5.44,8.66c.44.7.23,1.63-.47,2.07-.25.16-.52.23-.8.23Z"/>
  <path class="cls-1" d="m365.16,157.7c-.49,0-.97-.24-1.26-.69l-5.91-9.17c-.45-.7-.25-1.62.45-2.07.69-.45,1.62-.25,2.07.45l5.91,9.17c.45.7.25,1.62-.45,2.07-.25.16-.53.24-.81.24Z"/>
  <path class="cls-1" d="m291.83,158.74c-.13,0-.27-.02-.41-.06-.8-.22-1.26-1.05-1.04-1.85,1.9-6.74,8.83-13.79,16.84-17.17,5.79-2.43,11.19-2.56,15.21-.37.73.4,1,1.31.6,2.04-.4.73-1.31.99-2.04.6-3.2-1.75-7.68-1.57-12.61.5-7.23,3.04-13.45,9.3-15.12,15.21-.19.66-.79,1.09-1.44,1.09Z"/>
  <path class="cls-1" d="m319.23,164.23c-.24,0-.47-.05-.7-.17-12.45-6.53-19.87-16.99-20.87-29.45-.07-.83.55-1.55,1.38-1.62.83-.05,1.55.55,1.62,1.38.92,11.4,7.76,21,19.27,27.04.73.38,1.02,1.29.63,2.03-.27.51-.79.8-1.33.8Z"/>
  <path class="cls-1" d="m351.69,222.56c-.33,0-.65-.11-.93-.32-.65-.51-.76-1.46-.25-2.11.52-.66,13.01-16.29,27.44-20.55.8-.23,1.63.22,1.86,1.01.23.79-.22,1.63-1.01,1.86-13.52,3.99-25.82,19.38-25.94,19.53-.3.37-.74.57-1.18.57Z"/>
  <path class="cls-1" d="m377.52,227.55c-.21,0-.43-.05-.64-.14-.55-.26-13.61-6.59-23.06-26.81-.35-.75-.03-1.64.72-1.99.75-.35,1.64-.03,1.99.72,8.96,19.16,21.5,25.31,21.62,25.37.75.36,1.07,1.25.71,2-.26.54-.79.86-1.36.86Z"/>
  <path class="cls-1" d="m400.06,253.33c-.34,0-.67-.11-.95-.34-.71-.59-17.46-14.53-20.11-29.06-.15-.82.39-1.6,1.21-1.75.81-.15,1.6.39,1.75,1.21,2.45,13.45,18.9,27.15,19.06,27.28.64.53.73,1.47.2,2.11-.3.36-.73.55-1.16.55Z"/>
  <path class="cls-1" d="m376.82,249.37c-.73,0-1.37-.53-1.48-1.27-.13-.82.44-1.58,1.25-1.71.16-.02,15.89-2.68,25.38-19.54.41-.72,1.32-.98,2.04-.57.72.41.98,1.32.57,2.04-10.24,18.18-26.84,20.92-27.54,21.03-.08.01-.15.02-.23.02Z"/>
  <path class="cls-1" d="m399.28,273.92c-.63,0-1.21-.4-1.42-1.02-.26-.79.16-1.63.94-1.9.2-.07,20.38-7.01,23.29-21.64.16-.81.96-1.34,1.76-1.18.81.16,1.34.95,1.18,1.76-3.25,16.35-24.38,23.6-25.28,23.9-.16.05-.32.08-.48.08Z"/>
  <path class="cls-1" d="m419.78,272.46c-.24,0-.48-.06-.71-.18-.27-.15-6.82-3.79-17.26-22.6-.4-.72-.14-1.64.58-2.04.73-.4,1.64-.14,2.04.58,9.86,17.75,15.99,21.38,16.05,21.41.73.39,1.01,1.3.62,2.03-.27.51-.79.79-1.32.79Z"/>
  <path class="cls-1" d="m416.64,290.57c-.67,0-1.28-.45-1.45-1.14-.2-.8.29-1.62,1.09-1.82.12-.03,12.48-3.48,18.89-24.51.24-.79,1.09-1.24,1.87-1,.79.24,1.24,1.08,1,1.87-6.95,22.78-20.46,26.4-21.04,26.54-.12.03-.25.04-.37.04Z"/>
  <path class="cls-1" d="m308,234.47c-1.05,0-1.88-.26-2.47-.68-.9-.62-1.29-1.61-1.04-2.56.59-2.22,14.62-13.24,18.22-15.58,4.26-2.77,6.78-1.49,7.66-.82,1.72,1.31,2.24,3.85,1.35,6.61-.17.54-.64.94-1.21,1.03-.57.08-1.13-.17-1.45-.64-.14-.2-.24-.23-.36-.24-1.72-.2-6.06,3.57-8.92,6.08-1.82,1.59-3.54,3.1-5.08,4.18-2.72,1.91-4.99,2.61-6.7,2.61Zm-.03-2.99s.02,0,.03,0c.9,0,2.56-.38,4.97-2.08,1.41-.99,3.07-2.44,4.83-3.98,4.22-3.69,8.21-7.19,11.27-6.8.03,0,.05,0,.08,0-.04-.63-.24-1.14-.6-1.41-.61-.47-2.04-.46-4.21.95-4.63,3.01-13.72,10.63-16.37,13.31Z"/>
  <path class="cls-1" d="m324.83,233.32c-3.38,0-6.34-1.18-8.35-3.46-.55-.62-.48-1.57.14-2.12.62-.55,1.57-.48,2.12.14,2.35,2.68,6.92,3.18,11.65,1.27,4.54-1.83,9.03-5.94,8.79-10.97-.23-4.93-4.94-6.75-6.96-7.31-5.18-1.42-11.07-.05-13.12,3.06-3.92,5.94-3.38,8.25-3.37,8.27-.02-.07-.04-.1-.04-.1l-2.75,1.19c-.24-.55-1.18-3.67,3.66-11.01,3.2-4.85,10.85-5.83,16.42-4.3,5.51,1.52,8.93,5.28,9.16,10.06.3,6.5-5.14,11.67-10.67,13.9-2.31.93-4.58,1.39-6.68,1.39Z"/>
  <path class="cls-1" d="m362.8,298.88c-.33,0-.67-.11-.94-.33-.64-.52-.74-1.47-.22-2.11l11.67-14.38-2.81-14.11c-.1-.51.07-1.03.44-1.39l11.57-10.85c.6-.57,1.55-.54,2.12.07.57.6.54,1.55-.07,2.12l-10.96,10.28,2.78,13.98c.09.44-.02.89-.31,1.24l-12.12,14.93c-.3.37-.73.55-1.17.55Z"/>
  <path class="cls-1" d="m331.31,265.3c-.42,0-.83-.17-1.13-.51-.55-.62-.49-1.57.14-2.12l13.63-11.98c.32-.28.72-.41,1.15-.36l9.81,1.05,12.73-11.94c.6-.57,1.55-.54,2.12.07.57.6.54,1.55-.07,2.12l-13.23,12.41c-.32.3-.75.45-1.19.4l-9.84-1.05-13.14,11.55c-.29.25-.64.37-.99.37Z"/>
  <path class="cls-1" d="m261.26,191.18c-.46,0-.91-.21-1.21-.61-.49-.67-.36-1.6.31-2.1l9.4-6.99c.44-.33,1.03-.39,1.53-.15l8.62,4.04,22.37-14.76c.69-.46,1.62-.27,2.08.43.46.69.27,1.62-.43,2.08l-23.07,15.22c-.44.29-.99.33-1.46.11l-8.57-4.01-8.68,6.45c-.27.2-.58.3-.89.3Z"/>
  <g>
    <path class="cls-1" d="m72.28,327.61c-.4,0-.8-.16-1.09-.47-.57-.6-.54-1.55.07-2.12l118.16-110.81c.6-.57,1.55-.54,2.12.07s.54,1.55-.07,2.12l-118.16,110.81c-.29.27-.66.41-1.03.41Z"/>
    <path class="cls-1" d="m159.05,257.27c-.4,0-.8-.16-1.09-.47-.57-.6-.54-1.55.07-2.12l36.9-34.6c.61-.57,1.55-.54,2.12.07.57.6.54,1.55-.07,2.12l-36.9,34.6c-.29.27-.66.41-1.03.41Z"/>
    <path class="cls-1" d="m164.56,263.15c-.4,0-.8-.16-1.09-.47-.57-.6-.54-1.55.07-2.12l36.9-34.6c.6-.57,1.55-.54,2.12.07s.54,1.55-.07,2.12l-36.9,34.6c-.29.27-.66.41-1.03.41Z"/>
    <path class="cls-1" d="m170.06,269.02c-.4,0-.8-.16-1.09-.47-.57-.6-.54-1.55.07-2.12l36.9-34.6c.6-.57,1.55-.54,2.12.07.57.6.54,1.55-.07,2.12l-36.9,34.6c-.29.27-.66.41-1.03.41Z"/>
    <path class="cls-1" d="m175.57,274.89c-.4,0-.8-.16-1.09-.47-.57-.6-.54-1.55.07-2.12l36.9-34.6c.61-.57,1.55-.54,2.12.07.57.6.54,1.55-.07,2.12l-36.9,34.6c-.29.27-.66.41-1.03.41Z"/>
    <path class="cls-1" d="m181.08,280.77c-.4,0-.8-.16-1.09-.47-.57-.6-.54-1.55.07-2.12l36.9-34.6c.6-.57,1.55-.54,2.12.07s.54,1.55-.07,2.12l-36.9,34.6c-.29.27-.66.41-1.03.41Z"/>
    <path class="cls-1" d="m186.59,286.64c-.4,0-.8-.16-1.09-.47-.57-.6-.54-1.55.07-2.12l36.9-34.6c.6-.57,1.55-.54,2.12.07.57.6.54,1.55-.07,2.12l-36.9,34.6c-.29.27-.66.41-1.03.41Z"/>
    <path class="cls-1" d="m192.1,292.52c-.4,0-.8-.16-1.09-.47-.57-.6-.54-1.55.07-2.12l36.9-34.6c.61-.57,1.55-.54,2.12.07.57.6.54,1.55-.07,2.12l-36.9,34.6c-.29.27-.66.41-1.03.41Z"/>
    <path class="cls-1" d="m197.61,298.39c-.4,0-.8-.16-1.09-.47-.57-.6-.54-1.55.07-2.12l36.9-34.6c.6-.57,1.55-.54,2.12.07s.54,1.55-.07,2.12l-36.9,34.6c-.29.27-.66.41-1.03.41Z"/>
    <path class="cls-1" d="m208.62,310.14c-.4,0-.8-.16-1.09-.47-.57-.6-.54-1.55.07-2.12l36.9-34.6c.6-.57,1.55-.54,2.12.07.57.6.54,1.55-.07,2.12l-36.9,34.6c-.29.27-.66.41-1.03.41Z"/>
    <path class="cls-1" d="m214.13,316.01c-.4,0-.8-.16-1.09-.47-.57-.6-.54-1.55.07-2.12l36.9-34.6c.6-.57,1.55-.54,2.12.07.57.6.54,1.55-.07,2.12l-36.9,34.6c-.29.27-.66.41-1.03.41Z"/>
    <path class="cls-1" d="m219.64,321.88c-.4,0-.8-.16-1.09-.47-.57-.6-.54-1.55.07-2.12l36.9-34.6c.6-.57,1.55-.54,2.12.07.57.6.54,1.55-.07,2.12l-36.9,34.6c-.29.27-.66.41-1.03.41Z"/>
    <path class="cls-1" d="m225.15,327.76c-.4,0-.8-.16-1.09-.47-.57-.6-.54-1.55.07-2.12l36.9-34.6c.6-.57,1.55-.54,2.12.07.57.6.54,1.55-.07,2.12l-36.9,34.6c-.29.27-.66.41-1.03.41Z"/>
    <path class="cls-1" d="m230.66,333.63c-.4,0-.8-.16-1.09-.47-.57-.6-.54-1.55.07-2.12l36.9-34.6c.6-.57,1.55-.54,2.12.07s.54,1.55-.07,2.12l-36.9,34.6c-.29.27-.66.41-1.03.41Z"/>
    <path class="cls-1" d="m236.17,339.5c-.4,0-.8-.16-1.09-.47-.57-.6-.54-1.55.07-2.12l36.9-34.6c.6-.57,1.55-.54,2.12.07.57.6.54,1.55-.07,2.12l-36.9,34.6c-.29.27-.66.41-1.03.41Z"/>
    <path class="cls-1" d="m241.68,345.38c-.4,0-.8-.16-1.09-.47-.57-.6-.54-1.55.07-2.12l36.9-34.6c.6-.57,1.55-.54,2.12.07.57.6.54,1.55-.07,2.12l-36.9,34.6c-.29.27-.66.41-1.03.41Z"/>
    <path class="cls-1" d="m247.18,351.25c-.4,0-.8-.16-1.09-.47-.57-.6-.54-1.55.07-2.12l36.9-34.6c.6-.57,1.55-.54,2.12.07s.54,1.55-.07,2.12l-36.9,34.6c-.29.27-.66.41-1.03.41Z"/>
    <path class="cls-1" d="m252.69,357.13c-.4,0-.8-.16-1.09-.47-.57-.6-.54-1.55.07-2.12l36.9-34.6c.61-.57,1.55-.54,2.12.07.57.6.54,1.55-.07,2.12l-36.9,34.6c-.29.27-.66.41-1.03.41Z"/>
    <path class="cls-1" d="m258.2,363c-.4,0-.8-.16-1.09-.47-.57-.6-.54-1.55.07-2.12l36.9-34.6c.6-.57,1.55-.54,2.12.07.57.6.54,1.55-.07,2.12l-36.9,34.6c-.29.27-.66.41-1.03.41Z"/>
    <path class="cls-1" d="m263.71,368.87c-.4,0-.8-.16-1.09-.47-.57-.6-.54-1.55.07-2.12l36.9-34.6c.6-.57,1.55-.54,2.12.07s.54,1.55-.07,2.12l-36.9,34.6c-.29.27-.66.41-1.03.41Z"/>
    <path class="cls-1" d="m269.22,374.75c-.4,0-.8-.16-1.09-.47-.57-.6-.54-1.55.07-2.12l36.9-34.6c.61-.57,1.55-.54,2.12.07.57.6.54,1.55-.07,2.12l-36.9,34.6c-.29.27-.66.41-1.03.41Z"/>
    <path class="cls-1" d="m274.73,380.62c-.4,0-.8-.16-1.09-.47-.57-.6-.54-1.55.07-2.12l36.9-34.6c.6-.57,1.55-.54,2.12.07s.54,1.55-.07,2.12l-36.9,34.6c-.29.27-.66.41-1.03.41Z"/>
    <path class="cls-1" d="m280.24,386.49c-.4,0-.8-.16-1.09-.47-.57-.6-.54-1.55.07-2.12l36.9-34.6c.6-.57,1.55-.54,2.12.07.57.6.54,1.55-.07,2.12l-36.9,34.6c-.29.27-.66.41-1.03.41Z"/>
    <path class="cls-1" d="m285.74,392.37c-.4,0-.8-.16-1.09-.47-.57-.6-.54-1.55.07-2.12l36.9-34.6c.61-.57,1.55-.54,2.12.07.57.6.54,1.55-.07,2.12l-36.9,34.6c-.29.27-.66.41-1.03.41Z"/>
    <path class="cls-1" d="m291.25,398.24c-.4,0-.8-.16-1.09-.47-.57-.6-.54-1.55.07-2.12l36.9-34.6c.6-.57,1.55-.54,2.12.07s.54,1.55-.07,2.12l-36.9,34.6c-.29.27-.66.41-1.03.41Z"/>
    <path class="cls-1" d="m296.76,404.11c-.4,0-.8-.16-1.09-.47-.57-.6-.54-1.55.07-2.12l36.9-34.6c.6-.57,1.55-.54,2.12.07.57.6.54,1.55-.07,2.12l-36.9,34.6c-.29.27-.66.41-1.03.41Z"/>
    <path class="cls-1" d="m302.27,409.99c-.4,0-.8-.16-1.09-.47-.57-.6-.54-1.55.07-2.12l36.9-34.6c.61-.57,1.55-.54,2.12.07.57.6.54,1.55-.07,2.12l-36.9,34.6c-.29.27-.66.41-1.03.41Z"/>
    <path class="cls-1" d="m307.78,415.86c-.4,0-.8-.16-1.09-.47-.57-.6-.54-1.55.07-2.12l36.9-34.6c.6-.57,1.55-.54,2.12.07s.54,1.55-.07,2.12l-36.9,34.6c-.29.27-.66.41-1.03.41Z"/>
    <path class="cls-1" d="m313.29,421.73c-.4,0-.8-.16-1.09-.47-.57-.6-.54-1.55.07-2.12l36.9-34.6c.6-.57,1.55-.54,2.12.07.57.6.54,1.55-.07,2.12l-36.9,34.6c-.29.27-.66.41-1.03.41Z"/>
  </g>
  <path class="cls-1" d="m96.49,414.24s-.03,0-.05,0c-.4-.01-.77-.18-1.05-.47l-14.88-15.86c-.27-.29-.42-.68-.41-1.07s.18-.77.47-1.05l10.21-9.57c.27-.26.64-.4,1.01-.41l15.19-.14,141.97-133.14c2.09-1.96,5.4-1.86,7.36.24.95,1.01,1.45,2.34,1.41,3.73-.04,1.39-.63,2.68-1.64,3.63l-147.74,138.56-.47,4.94c-.03.36-.2.7-.47.95l-9.89,9.27c-.28.26-.65.41-1.03.41Zm-12.76-17.3l12.83,13.68,8.38-7.86.47-4.94c.03-.36.2-.7.47-.95l148.15-138.95c.43-.4.68-.95.7-1.54s-.19-1.15-.6-1.58-.95-.68-1.54-.7c-.55-.02-1.15.19-1.58.6l-142.39,133.54c-.27.26-.64.4-1.01.41l-15.19.14-8.69,8.15Zm22.65,6.52h0,0Z"/>
  <path class="cls-1" d="m76.64,393.07c-.4,0-.8-.16-1.09-.47l-7.21-7.68c-.27-.29-.42-.68-.41-1.07s.18-.77.47-1.05l22.73-21.32c.6-.57,1.55-.54,2.12.07l7.21,7.68c.57.6.54,1.55-.07,2.12l-22.73,21.32c-.29.27-.66.41-1.03.41Zm-5.09-9.11l5.15,5.49,20.54-19.26-5.15-5.49-20.54,19.26Z"/>
  <path class="cls-1" d="m152.34,473.79c-.4,0-.8-.16-1.09-.47l-7.21-7.68c-.27-.29-.42-.68-.41-1.07s.18-.77.47-1.05l22.73-21.32c.6-.57,1.55-.54,2.12.07l7.21,7.68c.27.29.42.68.41,1.07s-.18.77-.47,1.05l-22.73,21.32c-.29.27-.66.41-1.03.41Zm-5.08-9.11l5.15,5.49,20.54-19.26-5.15-5.49-20.54,19.26Z"/>
  <path class="cls-1" d="m201.83,440.96c-.07,0-.15,0-.22,0-1.83-.06-3.52-.83-4.78-2.16h0l-8.21-8.75c-1.25-1.33-1.91-3.08-1.85-4.9.06-1.83.83-3.52,2.16-4.77l20.19-18.94c1.33-1.25,3.09-1.92,4.9-1.85,1.83.06,3.52.83,4.77,2.16l8.21,8.75c1.25,1.33,1.91,3.08,1.85,4.9s-.83,3.52-2.16,4.78l-20.19,18.94c-1.28,1.2-2.93,1.85-4.68,1.85Zm-2.81-4.22c.7.75,1.66,1.18,2.68,1.21,1.04.03,2.01-.34,2.76-1.04l20.19-18.94c.75-.7,1.18-1.66,1.21-2.68.03-1.03-.34-2.01-1.04-2.76l-8.21-8.75c-.7-.75-1.66-1.18-2.68-1.21-1.03-.02-2.01.34-2.75,1.04l-20.19,18.94c-.75.7-1.18,1.66-1.21,2.68s.34,2.01,1.04,2.75l8.21,8.75Z"/>
  <path class="cls-1" d="m226.97,450.64c-.4,0-.8-.16-1.09-.47l-6.47-6.9c-.27-.29-.42-.68-.41-1.07s.18-.77.47-1.05l5.38-5.05-8.11-8.65c-.57-.6-.54-1.55.07-2.12.6-.57,1.55-.54,2.12.07l9.14,9.75c.27.29.42.68.41,1.07s-.18.77-.47,1.05l-5.38,5.05,4.42,4.71,5.56-5.21,5.77-14.82-13.55-14.45c-.57-.6-.54-1.55.07-2.12s1.55-.54,2.12.07l14.2,15.14c.4.42.51,1.03.3,1.57l-6.24,16.01c-.08.21-.21.4-.37.55l-6.9,6.47c-.29.27-.66.41-1.03.41Z"/>
  <path class="cls-1" d="m233.45,444.57c-.4,0-.8-.16-1.09-.47l-6.47-6.9c-.57-.6-.54-1.55.07-2.12.6-.57,1.55-.54,2.12.07l6.47,6.9c.57.6.54,1.55-.07,2.12-.29.27-.66.41-1.03.41Z"/>
  <path class="cls-1" d="m46.54,347.5c-.44,0-.86-.19-1.14-.53l-6.52-7.66c-.28-.32-.4-.75-.34-1.17.06-.42.29-.8.64-1.04l22.93-15.76c.6-.41,1.41-.33,1.92.18.51.52.58,1.32.16,1.92l-16.41,23.42c-.27.38-.69.62-1.16.64-.02,0-.05,0-.07,0Zm-4.3-8.87l4.18,4.92,10.53-15.03-14.71,10.11Z"/>
  <path class="cls-1" d="m65.68,361.5c-.41,0-.81-.17-1.09-.47l-8.34-8.89c-.48-.51-.54-1.29-.15-1.87l15.51-22.8-9.2-3.47c-.77-.29-1.17-1.16-.87-1.93.29-.78,1.16-1.16,1.93-.87l10.94,4.14c.12.04.24.1.34.17.1.07.19.15.27.24l7.78,8.3c.47.5.54,1.26.17,1.84l-16.05,24.95c-.25.39-.67.64-1.13.68-.04,0-.09,0-.14,0Zm-6.42-10.54l6.2,6.61,14.38-22.34-5.73-6.1-14.85,21.83Z"/>
  <path class="cls-1" d="m45.1,361.03c-.37,0-.74-.04-1.09-.11-5.7-1.2-13.88-11.78-14.08-14.39-.19-2.38,1.91-3.95,6.52-7.38.81-.6,1.7-1.27,2.68-2.01.66-.5,1.6-.37,2.1.29.5.66.37,1.6-.29,2.1-.99.75-1.89,1.42-2.7,2.02-2.88,2.15-5.38,4-5.32,4.73.38,1.66,7.44,10.79,11.71,11.69,2.6.54,7.19-3.19,10.25-6.39l-8.98-4.24c-.75-.35-1.07-1.25-.72-2,.36-.75,1.25-1.07,2-.72l10.81,5.11c.42.2.73.58.83,1.04s-.02.93-.33,1.29c-.83.97-7.81,8.95-13.39,8.95Z"/>
  <path class="cls-1" d="m202.06,510.91c-.44,0-.86-.19-1.15-.53l-8.51-10.07c-.29-.34-.41-.79-.33-1.24s.35-.82.74-1.04c2.35-1.32,23.02-12.88,23.65-13.21.6-.31,1.34-.17,1.8.33.46.5.51,1.25.14,1.82l-15.1,23.25c-.26.4-.69.65-1.16.68-.03,0-.06,0-.09,0Zm-6.19-11.15l6.03,7.14,10.71-16.5c-4.94,2.76-12.25,6.84-16.74,9.36Z"/>
  <path class="cls-1" d="m193.55,500.84c-.67,0-1.27-.45-1.45-1.12l-2.14-8.16c-.18-.69.15-1.42.8-1.73l24.86-11.95c.43-.21.94-.2,1.37.03.42.23.71.65.77,1.13l.88,6.93c.1.82-.48,1.57-1.3,1.68-.81.1-1.57-.48-1.68-1.3l-.62-4.87-21.87,10.51,1.82,6.96c.21.8-.27,1.62-1.07,1.83-.13.03-.25.05-.38.05Z"/>
  <path class="cls-1" d="m191.17,518.62c-.72,0-1.41-.14-2.07-.46-5.08-2.46-8.53-13.58-8.85-15.66-.37-2.44,2.65-5.39,8.97-11.31l.88-.82c.6-.57,1.55-.54,2.12.07.57.6.54,1.55-.07,2.12l-.88.82c-3.54,3.32-7.95,7.44-8.05,8.72.35,2.24,3.65,11.64,7.19,13.36,2.29,1.11,7.62-3.53,10.5-7.01.53-.64,1.47-.73,2.11-.2.64.53.73,1.47.2,2.11-1.26,1.52-7.11,8.26-12.05,8.26Z"/>
  <path class="cls-1" d="m79.36,376.09c-.4,0-.8-.16-1.09-.47l-13.68-14.58c-.57-.6-.54-1.55.07-2.12s1.55-.54,2.12.07l13.68,14.58c.57.6.54,1.55-.07,2.12-.29.27-.66.41-1.03.41Z"/>
  <path class="cls-1" d="m90.82,388.87c-.4,0-.8-.16-1.09-.47l-4.54-4.84c-.57-.6-.54-1.55.07-2.12.6-.57,1.55-.54,2.12.07l4.54,4.84c.57.6.54,1.55-.07,2.12-.29.27-.66.41-1.03.41Z"/>
  <path class="cls-1" d="m154.47,456.24c-.4,0-.8-.16-1.09-.47l-48.09-51.28c-.57-.6-.54-1.55.07-2.12s1.55-.54,2.12.07l48.09,51.28c.57.6.54,1.55-.07,2.12-.29.27-.66.41-1.03.41Z"/>
  <path class="cls-1" d="m189.61,493.71c-.4,0-.8-.16-1.09-.47l-27.38-29.19c-.57-.6-.54-1.55.07-2.12s1.55-.54,2.12.07l27.38,29.19c.57.6.54,1.55-.07,2.12-.29.27-.66.41-1.03.41Z"/>
  <path class="cls-1" d="m211.22,516.76s-.03,0-.05,0c-.4-.01-.77-.18-1.05-.47l-7.03-7.5c-.57-.6-.54-1.55.07-2.12.61-.57,1.55-.54,2.12.07l6,6.4,100.62-94.37c.6-.57,1.55-.54,2.12.07s.54,1.55-.07,2.12l-101.71,95.39c-.28.26-.65.41-1.03.41Z"/>
  <path class="cls-1" d="m178.86,520.1c-.41,0-.81-.17-1.09-.47L45.67,378.77c-.31-.33-.46-.79-.39-1.25l2.92-19.84c.12-.82.89-1.38,1.7-1.27.82.12,1.39.88,1.27,1.7l-2.82,19.13,131.09,139.78,31.62-3.27c.82-.08,1.56.51,1.65,1.34.08.82-.51,1.56-1.34,1.65l-32.36,3.34c-.05,0-.1,0-.15,0Z"/>
  <path class="cls-1" d="m118.32,502.6c-.4,0-.8-.16-1.09-.47l-57.98-61.82c-.27-.29-.42-.68-.41-1.07s.18-.77.47-1.05l7.19-6.74c.6-.57,1.55-.54,2.12.07l57.98,61.82c.27.29.42.68.41,1.07s-.18.77-.47,1.05l-7.19,6.74c-.29.27-.66.41-1.03.41Zm-55.86-63.25l55.92,59.63,5-4.69-55.92-59.63-5,4.69Z"/>
  <path class="cls-1" d="m123.88,494.12c-.41,0-.81-.17-1.09-.47l-54.71-58.33c-.35-.37-.49-.9-.36-1.39.12-.5.49-.89.98-1.06l23.26-7.85c.56-.19,1.17-.03,1.57.39l40.77,43.47c.4.43.52,1.05.29,1.6l-9.32,22.71c-.19.47-.61.81-1.12.91-.09.02-.18.02-.27.02Zm-52.02-59.16l51.52,54.93,8.07-19.66-39.45-42.07-20.13,6.79Z"/>
  <path class="cls-1" d="m456.23,74.86c-.4,0-.8-.16-1.09-.47-.57-.6-.54-1.55.07-2.12l44.41-41.65c1.11-1.04,1.74-2.45,1.79-3.96s-.5-2.96-1.53-4.07c-2.14-2.28-5.75-2.4-8.03-.26l-25.21,23.64c-.6.57-1.55.54-2.12-.07s-.54-1.55.07-2.12l25.21-23.64c3.49-3.28,9-3.1,12.27.39,3.27,3.49,3.1,9-.39,12.27l-44.41,41.65c-.29.27-.66.41-1.03.41Z"/>
  <path class="cls-1" d="m509.77,131.94c-.4,0-.8-.16-1.09-.47-.57-.6-.54-1.55.07-2.12l44.41-41.65c1.69-1.59,3.87-2.41,6.22-2.34,2.32.07,4.47,1.05,6.05,2.74,3.27,3.49,3.1,9-.39,12.27l-25.21,23.64c-.6.57-1.55.54-2.12-.07s-.54-1.55.07-2.12l25.21-23.64c2.29-2.14,2.4-5.75.26-8.03-1.04-1.11-2.45-1.74-3.96-1.79-1.48-.04-2.96.5-4.07,1.53l-44.41,41.65c-.29.27-.66.41-1.03.41Z"/>
  <path class="cls-1" d="m506.67,124.07c-.4,0-.8-.16-1.09-.47-.57-.6-.54-1.55.07-2.12l42.12-39.51c3.49-3.28,9-3.1,12.27.39,1.59,1.69,2.42,3.9,2.34,6.22s-1.05,4.47-2.74,6.05l-17.24,16.17c-.6.57-1.55.54-2.12-.07s-.54-1.55.07-2.12l17.24-16.17c1.11-1.04,1.74-2.45,1.79-3.96s-.5-2.96-1.53-4.07c-1.04-1.11-2.45-1.74-3.96-1.79-1.51-.04-2.96.5-4.07,1.53l-42.12,39.51c-.29.27-.66.41-1.03.41Z"/>
  <path class="cls-1" d="m486.39,74.29c-.4,0-.8-.16-1.09-.47-.57-.6-.54-1.55.07-2.12l28.08-26.33c1.11-1.04,1.74-2.45,1.79-3.96s-.5-2.96-1.53-4.07c-1.04-1.11-2.45-1.74-3.96-1.79-1.48-.06-2.96.5-4.07,1.53l-25.21,23.64c-.61.57-1.55.54-2.12-.07-.57-.6-.54-1.55.07-2.12l25.21-23.64c3.49-3.28,9-3.1,12.27.39,3.27,3.49,3.1,9-.39,12.27l-28.08,26.33c-.29.27-.66.41-1.03.41Z"/>
  <path class="cls-1" d="m373.11,276.35c-.4,0-.8-.16-1.09-.47l-15.21-16.22c-.57-.6-.54-1.55.07-2.12l14.26-13.38c.6-.57,1.55-.54,2.12.07s.54,1.55-.07,2.12l-13.17,12.35,14.18,15.12c.57.6.54,1.55-.07,2.12-.29.27-.66.41-1.03.41Z"/>
  <path class="cls-1" d="m326.31,260.54c-.4,0-.8-.16-1.09-.47-.57-.6-.54-1.55.07-2.12l23.42-21.97-6.51-6.94c-.38-.41-.5-.99-.33-1.51l3.11-9.08c.27-.78,1.12-1.21,1.91-.93.78.27,1.2,1.12.93,1.91l-2.82,8.23,6.91,7.37c.57.6.54,1.55-.07,2.12l-24.52,23c-.29.27-.66.41-1.03.41Z"/>
  <path class="cls-1" d="m303.91,319.62c-.12,0-.25,0-.37,0-2.99-.1-5.76-1.35-7.8-3.53-4.22-4.5-3.99-11.59.51-15.81,2.18-2.04,5.04-3.1,8.01-3.02,2.99.1,5.76,1.35,7.8,3.53,2.04,2.18,3.12,5.03,3.02,8.01s-1.35,5.76-3.53,7.8h0c-2.09,1.96-4.79,3.03-7.64,3.03Zm-.01-19.38c-2.09,0-4.07.78-5.59,2.22-1.6,1.5-2.51,3.52-2.58,5.71-.07,2.19.71,4.27,2.21,5.86,1.5,1.6,3.52,2.51,5.71,2.58,2.2.06,4.27-.72,5.86-2.21h0c1.6-1.5,2.51-3.52,2.58-5.71.07-2.19-.71-4.27-2.21-5.86s-3.52-2.51-5.71-2.58c-.09,0-.18,0-.27,0Z"/>
  <path class="cls-1" d="m303.91,312.41s-.09,0-.13,0c-1.06-.03-2.04-.48-2.77-1.25-.72-.77-1.11-1.78-1.07-2.84.03-1.06.48-2.04,1.25-2.77s1.76-1.12,2.84-1.07c1.06.03,2.04.48,2.77,1.25.72.77,1.11,1.78,1.07,2.84-.03,1.06-.48,2.04-1.25,2.77-.74.7-1.7,1.08-2.71,1.08Zm0-4.94c-.25,0-.48.09-.66.26-.39.37-.41.98-.04,1.37.18.19.42.3.68.31.23.03.5-.08.69-.26.19-.18.3-.42.31-.68,0-.26-.08-.51-.26-.7-.18-.19-.42-.3-.68-.31h-.03Z"/>
  <path class="cls-1" d="m133.67,45.59c-.83,0-1.5-.67-1.5-1.5v-15.72c0-.83.67-1.5,1.5-1.5s1.5.67,1.5,1.5v15.72c0,.83-.67,1.5-1.5,1.5Z"/>
  <path class="cls-1" d="m133.67,71.48c-.83,0-1.5-.67-1.5-1.5v-15.72c0-.83.67-1.5,1.5-1.5s1.5.67,1.5,1.5v15.72c0,.83-.67,1.5-1.5,1.5Z"/>
  <path class="cls-1" d="m128.58,50.68h-15.72c-.83,0-1.5-.67-1.5-1.5s.67-1.5,1.5-1.5h15.72c.83,0,1.5.67,1.5,1.5s-.67,1.5-1.5,1.5Z"/>
  <path class="cls-1" d="m154.47,50.68h-15.72c-.83,0-1.5-.67-1.5-1.5s.67-1.5,1.5-1.5h15.72c.83,0,1.5.67,1.5,1.5s-.67,1.5-1.5,1.5Z"/>
  <path class="cls-1" d="m602.63,475.87c-.83,0-1.5-.67-1.5-1.5v-15.72c0-.83.67-1.5,1.5-1.5s1.5.67,1.5,1.5v15.72c0,.83-.67,1.5-1.5,1.5Z"/>
  <path class="cls-1" d="m602.63,501.76c-.83,0-1.5-.67-1.5-1.5v-15.72c0-.83.67-1.5,1.5-1.5s1.5.67,1.5,1.5v15.72c0,.83-.67,1.5-1.5,1.5Z"/>
  <path class="cls-1" d="m597.55,480.96h-15.72c-.83,0-1.5-.67-1.5-1.5s.67-1.5,1.5-1.5h15.72c.83,0,1.5.67,1.5,1.5s-.67,1.5-1.5,1.5Z"/>
  <path class="cls-1" d="m623.43,480.96h-15.72c-.83,0-1.5-.67-1.5-1.5s.67-1.5,1.5-1.5h15.72c.83,0,1.5.67,1.5,1.5s-.67,1.5-1.5,1.5Z"/>
  <path class="cls-1" d="m590.27,66.39c-.83,0-1.5-.67-1.5-1.5v-15.72c0-.83.67-1.5,1.5-1.5s1.5.67,1.5,1.5v15.72c0,.83-.67,1.5-1.5,1.5Z"/>
  <path class="cls-1" d="m590.27,92.28c-.83,0-1.5-.67-1.5-1.5v-15.72c0-.83.67-1.5,1.5-1.5s1.5.67,1.5,1.5v15.72c0,.83-.67,1.5-1.5,1.5Z"/>
  <path class="cls-1" d="m585.18,71.48h-15.72c-.83,0-1.5-.67-1.5-1.5s.67-1.5,1.5-1.5h15.72c.83,0,1.5.67,1.5,1.5s-.67,1.5-1.5,1.5Z"/>
  <path class="cls-1" d="m611.07,71.48h-15.72c-.83,0-1.5-.67-1.5-1.5s.67-1.5,1.5-1.5h15.72c.83,0,1.5.67,1.5,1.5s-.67,1.5-1.5,1.5Z"/>
  <path class="cls-1" d="m487.09,306.78c-.83,0-1.5-.67-1.5-1.5v-15.72c0-.83.67-1.5,1.5-1.5s1.5.67,1.5,1.5v15.72c0,.83-.67,1.5-1.5,1.5Z"/>
  <path class="cls-1" d="m487.09,332.67c-.83,0-1.5-.67-1.5-1.5v-15.72c0-.83.67-1.5,1.5-1.5s1.5.67,1.5,1.5v15.72c0,.83-.67,1.5-1.5,1.5Z"/>
  <path class="cls-1" d="m482.01,311.87h-15.72c-.83,0-1.5-.67-1.5-1.5s.67-1.5,1.5-1.5h15.72c.83,0,1.5.67,1.5,1.5s-.67,1.5-1.5,1.5Z"/>
  <path class="cls-1" d="m507.9,311.87h-15.72c-.83,0-1.5-.67-1.5-1.5s.67-1.5,1.5-1.5h15.72c.83,0,1.5.67,1.5,1.5s-.67,1.5-1.5,1.5Z"/>
  <path class="cls-1" d="m478.25,303.02c-.38,0-.77-.15-1.06-.44l-9.31-9.31c-.59-.59-.59-1.54,0-2.12s1.54-.59,2.12,0l9.31,9.31c.59.59.59,1.54,0,2.12-.29.29-.68.44-1.06.44Z"/>
  <path class="cls-1" d="m505.25,330.03c-.38,0-.77-.15-1.06-.44l-9.31-9.31c-.59-.59-.59-1.54,0-2.12s1.54-.59,2.12,0l9.31,9.31c.59.59.59,1.54,0,2.12-.29.29-.68.44-1.06.44Z"/>
  <path class="cls-1" d="m468.93,330.03c-.38,0-.77-.15-1.06-.44-.59-.59-.59-1.54,0-2.12l9.31-9.31c.59-.59,1.54-.59,2.12,0s.59,1.54,0,2.12l-9.31,9.31c-.29.29-.68.44-1.06.44Z"/>
  <path class="cls-1" d="m495.94,303.02c-.38,0-.77-.15-1.06-.44-.59-.59-.59-1.54,0-2.12l9.31-9.31c.59-.59,1.54-.59,2.12,0s.59,1.54,0,2.12l-9.31,9.31c-.29.29-.68.44-1.06.44Z"/>
  <path class="cls-1" d="m49.11,211.86c-.83,0-1.5-.67-1.5-1.5v-15.72c0-.83.67-1.5,1.5-1.5s1.5.67,1.5,1.5v15.72c0,.83-.67,1.5-1.5,1.5Z"/>
  <path class="cls-1" d="m49.11,237.75c-.83,0-1.5-.67-1.5-1.5v-15.72c0-.83.67-1.5,1.5-1.5s1.5.67,1.5,1.5v15.72c0,.83-.67,1.5-1.5,1.5Z"/>
  <path class="cls-1" d="m44.02,216.94h-15.72c-.83,0-1.5-.67-1.5-1.5s.67-1.5,1.5-1.5h15.72c.83,0,1.5.67,1.5,1.5s-.67,1.5-1.5,1.5Z"/>
  <path class="cls-1" d="m69.91,216.94h-15.72c-.83,0-1.5-.67-1.5-1.5s.67-1.5,1.5-1.5h15.72c.83,0,1.5.67,1.5,1.5s-.67,1.5-1.5,1.5Z"/>
  <path class="cls-1" d="m40.26,208.1c-.38,0-.77-.15-1.06-.44l-9.31-9.31c-.59-.59-.59-1.54,0-2.12s1.54-.59,2.12,0l9.31,9.31c.59.59.59,1.54,0,2.12-.29.29-.68.44-1.06.44Z"/>
  <path class="cls-1" d="m67.27,235.1c-.38,0-.77-.15-1.06-.44l-9.31-9.31c-.59-.59-.59-1.54,0-2.12s1.54-.59,2.12,0l9.31,9.31c.59.59.59,1.54,0,2.12-.29.29-.68.44-1.06.44Z"/>
  <path class="cls-1" d="m30.95,235.1c-.38,0-.77-.15-1.06-.44-.59-.59-.59-1.54,0-2.12l9.31-9.31c.59-.59,1.54-.59,2.12,0s.59,1.54,0,2.12l-9.31,9.31c-.29.29-.68.44-1.06.44Z"/>
  <path class="cls-1" d="m57.96,208.1c-.38,0-.77-.15-1.06-.44-.59-.59-.59-1.54,0-2.12l9.31-9.31c.59-.59,1.54-.59,2.12,0s.59,1.54,0,2.12l-9.31,9.31c-.29.29-.68.44-1.06.44Z"/>
</svg>
