<?xml version="1.0" encoding="UTF-8"?>
<svg id="Layer_1" data-name="Layer 1" xmlns="http://www.w3.org/2000/svg" viewBox="0 0 533.16 677.07">
  <defs>
    <style>
        .cls-1, .cls-2 {
        stroke-width: 0px;
        }

        :root { fill:#222 }
        .accent { fill: #f9322c; }

        @media (prefers-color-scheme: dark) {
        :root {  fill: #f9322c; }
        .accent { fill:#dee2e6; }
        }

    </style>
  </defs>
  <g>
    <path class="accent" d="m377.38,127.96l-1.13,12.74-5.47,23.23,6.06-.95,7.71-33.25s8.34-6.16,8.45-6.38,22.59-16.98,22.59-16.98l-1.34-1.64-36.87,23.23Z"/>
    <polygon class="accent" points="297.82 257.23 309.38 286.82 314.8 281.85 303.72 252.94 297.82 257.23"/>
    <polygon class="accent" points="442.53 273.86 441.59 280.03 478.38 287.9 477.67 280.88 442.53 273.86"/>
    <g>
      <path class="cls-1" d="m354.08,88.39c-1.3,0-2.6-.4-3.6-1.72-.86-1.14-1.2-2.57-.97-4.13.33-2.28,1.76-4.25,2.94-5.12,1.45-1.06,3.28-5.4,1.95-9.31-1.14-3.33,3.73-12.96,6-15.7.35-.43.98-.49,1.41-.13.43.35.49.98.13,1.41-2.59,3.13-6.34,11.76-5.65,13.78,1.6,4.7-.5,9.99-2.65,11.57-.87.63-1.91,2.18-2.15,3.8-.15,1.03.05,1.92.59,2.63,1,1.32,2.58,1.01,4.71.43.71-.19,1.38-.38,1.97-.41.78-.05,1.72-.72,2.13-1.53.3-.58.29-1.14-.03-1.66-.29-.47-.15-1.09.32-1.38.47-.29,1.09-.15,1.38.32.7,1.13.74,2.42.11,3.64-.74,1.44-2.3,2.51-3.79,2.61-.39.02-.96.18-1.57.35-.93.25-2.08.57-3.23.57Z"/>
      <path class="cls-1" d="m357.91,94.17c-.82,0-1.52-.01-1.78-.05-1.03-.15-2.68-1.63-3-2-.61-.68-.25-1.54.13-2.45.29-.7.65-1.56.65-2.33,0-.55.45-1,1-1s1,.45,1,1c0,1.16-.46,2.28-.8,3.09-.08.19-.17.42-.24.6.48.44,1.3,1.04,1.59,1.12.32.04,2.65.03,4.7-.02.56.03,1.01.43,1.02.98.01.55-.43,1.01-.98,1.02-.61.01-2.07.04-3.28.04Z"/>
      <path class="cls-1" d="m361.19,109.04c-.29,0-.53-.02-.73-.07-3.82-.86-4.46-4.8-4.67-6.09l-.03-.19c-.21-1.19.98-2.06,1.98-2.76-.37-.19-.78-.4-1.12-.56-1.23-.61-2-1-2.37-1.35-.25-.24-.56-.68-.58-1.47-.02-1.31.74-2.97,1.89-4.12.39-.39,1.02-.39,1.41,0s.39,1.02,0,1.41c-1.05,1.05-1.38,2.36-1.31,2.77.31.21,1.21.66,1.83.97,2.02,1,2.61,1.32,2.8,1.95.26.87-.47,1.39-1.33,1.98-.34.24-1.03.72-1.23.99v.07c.3,1.82.93,3.97,3.14,4.46,3,.66,20.77-5.95,21.82-8.15.79-1.79.53-8.59.18-12.46-.05-.55.36-1.04.91-1.09.55-.06,1.04.36,1.09.91.1,1.08.92,10.6-.35,13.45-1.4,3.16-18.46,9.36-23.36,9.36Zm-3.46-6.7h0s0,0,0,0Zm-2.04-5.68h0,0Z"/>
      <path class="cls-1" d="m366.92,73.61c-.29,0-.58-.13-.78-.37-.07-.09-1.87-2.2-5.38-2.24-.55,0-1-.46-.99-1.01,0-.55.45-.99,1-.99h.01c4.49.05,6.82,2.86,6.91,2.98.35.43.28,1.06-.15,1.41-.19.15-.41.22-.63.22Z"/>
      <path class="cls-1" d="m361.79,74.84c-.41,0-.79-.25-.94-.66-.11-.3-1-2.98.56-4.54.39-.39,1.02-.39,1.41,0s.39,1.02,0,1.41c-.53.53-.29,1.88-.09,2.46.18.52-.09,1.09-.61,1.27-.11.04-.22.06-.33.06Z"/>
      <path class="cls-1" d="m362.42,67.65c-.97,0-3.2-.25-4.2-2.46-.23-.5,0-1.1.5-1.32.51-.23,1.09,0,1.32.5.66,1.46,2.52,1.28,2.6,1.27.53-.06,1.04.34,1.1.88.06.55-.33,1.04-.88,1.1-.03,0-.2.02-.46.02Z"/>
      <path class="cls-1" d="m366.39,68.78s-.09,0-.14,0c-.11-.01-2.64-.4-4.63-2.99-.34-.44-.25-1.07.18-1.4.44-.34,1.06-.25,1.4.18,1.47,1.92,3.26,2.22,3.33,2.23.54.08.92.59.84,1.14-.07.5-.5.85-.98.85Z"/>
      <path class="cls-1" d="m369.17,69.62c-.38,0-2.87-.14-3.75-3.67-.13-.54.19-1.08.73-1.21.54-.13,1.08.19,1.21.73.52,2.08,1.67,2.15,1.8,2.15.54,0,.99.45,1,.99s-.4.99-.94,1.01c0,0-.02,0-.05,0Z"/>
      <path class="cls-1" d="m386.16,85.86h-.07c-2.53-.04-3.29-.26-3.54-.99-.18-.52.11-1.09.63-1.27.29-.1.6-.05.85.1.16.04.69.13,2.1.16h.04c1.96,0,4.65-2.78,5.21-4.22,1.73-4.5,1.82-7.47.29-8.91-1.36-1.27-3.13-1.88-4.71-1.63-1.55.25-2.87,1.29-3.81,3.01-.27.48-.87.66-1.36.4-.48-.26-.66-.87-.4-1.36,1.58-2.89,3.73-3.79,5.25-4.03,2.2-.35,4.59.45,6.4,2.14,3.29,3.08.99,9.05.23,11.02-.78,2.02-4.02,5.57-7.1,5.57Zm-1.71-1.63s0,0,0,0c0,0,0,0,0,0Zm0,0s0,0,0,0c0,0,0,0,0,0Zm0,0s0,0,0,0c0,0,0,0,0,0Zm-.05-.12s.04.08.05.12c-.01-.04-.03-.08-.05-.12Z"/>
      <path class="cls-1" d="m384.74,80.55c-.23,0-.45-.08-.64-.23-.42-.35-.48-.98-.13-1.41.31-.37.67-1.08.54-1.43-.08-.24-.52-.45-1.16-.58-.54-.11-.9-.63-.79-1.17.11-.54.63-.9,1.17-.79,1.42.28,2.32.91,2.66,1.87.56,1.57-.74,3.2-.89,3.38-.2.24-.48.36-.77.36Z"/>
      <path class="cls-1" d="m390.31,78.03c-.2,0-.39-.06-.57-.18-.45-.31-.57-.94-.25-1.39,0,0,.64-.96.71-2.27.04-.66-.17-1.81-.87-2.29-.77-.52-2.02-.12-2.92.3-.5.23-1.1.02-1.33-.48s-.02-1.09.48-1.33c2-.94,3.65-.99,4.89-.15,1.4.95,1.82,2.77,1.75,4.05-.1,1.9-1.02,3.24-1.06,3.3-.19.28-.51.43-.82.43Z"/>
      <path class="cls-1" d="m417.97,102.75c-.1,0-.2-.01-.3-.05-6.51-2.07-10.44-4.71-12.5-6.44.15,1.02.49,2.25,1.21,3.43.27.44.16,1.02-.25,1.33-.41.31-1,.25-1.34-.14-2.32-2.59-4.15-4.59-5.38-5.91.11,1.29.4,2.84,1.13,4,.5.79.27,1.33.08,1.59-.23.31-.68.65-1.58.43-2.88-.7-12.68-7.68-13.92-15.99-.08-.55.29-1.06.84-1.14.56-.08,1.06.3,1.14.84.98,6.53,7.77,11.87,10.97,13.69-.97-2.78-.69-5.9-.67-6.06.04-.39.3-.72.67-.85.37-.13.78-.03,1.05.25.02.02,1.48,1.54,4.01,4.32-.14-1.34-.01-2.28,0-2.36.06-.4.34-.72.73-.82.39-.11.8.03,1.05.35.03.03,2.46,3.02,8.7,5.8-2.95-3.32-6.6-8.92-7.18-16.72-.04-.52.32-.98.84-1.06.51-.09,1,.24,1.13.74.43,1.69,1.38,3.34,2.28,4.62-.09-2.96.13-7.88,1.61-14.73,3.01-13.93-2.87-22.96-5.53-26.19-5.18-6.28-16.71-8.57-16.82-8.59-.07-.01-.13-.03-.19-.06-.08-.03-7.83-3.18-11.44.16-.28.25-.67.33-1.02.21-.24-.09-6.03-2.06-10.13,2.54-.21.23-.52.37-.83.33-1.29-.1-2.73.49-3.98,1.64-1.35,1.24-2.19,2.88-2.19,4.26,0,4.83,5.92,11.8,8.53,14.64l.4-1.51c.12-.44.51-.75.97-.75h.01c.46,0,.85.32.96.77.02.09,2.19,8.88,7.34,10.11,2.44.58,4.32.21,4.34.21.54-.11,1.07.24,1.18.78.11.54-.23,1.07-.77,1.18-.09.02-2.31.47-5.21-.22-4.05-.97-6.48-5.24-7.73-8.32-.09.34-.36.62-.7.71-.34.09-.71,0-.97-.25-.42-.42-10.34-10.34-10.34-17.34,0-1.96,1.06-4.1,2.84-5.73,1.51-1.39,3.3-2.17,4.99-2.18,4.21-4.37,9.65-3.39,11.41-2.92,4.43-3.46,12.03-.6,13.02-.2,1.25.25,12.45,2.67,17.89,9.26,2.85,3.46,9.14,13.09,5.95,27.88-2.45,11.33-1.31,17.21-1.29,17.27.09.43-.12.88-.51,1.08-.39.21-.87.13-1.18-.18-.06-.06-.67-.69-1.45-1.68,2.64,7.5,8.01,11.59,8.76,12.14.4.29.53.82.31,1.26-.17.34-.52.55-.89.55Z"/>
      <path class="cls-1" d="m381.59,86.53c-.31,0-.6-.14-.79-.39-.35-.46-8.58-11.35-7.26-17.45.12-.54.66-.88,1.19-.77.54.12.88.65.77,1.19-.71,3.27,2.33,8.98,4.82,12.83l-.84-10.84c-.04-.55.37-1.03.92-1.07.57-.04,1.03.37,1.07.92l1.12,14.51c.03.44-.23.85-.64,1.01-.12.04-.24.07-.36.07Z"/>
      <path class="cls-1" d="m357.48,60.42c-.21,0-.42-.06-.6-.2-2.91-2.17-4.33-4.58-4.23-7.16.16-3.93,3.8-6.78,5.95-8.12.47-.29,1.08-.15,1.38.32.29.47.15,1.08-.32,1.38-3.09,1.93-4.92,4.3-5.01,6.51-.08,1.88,1.07,3.72,3.43,5.47.44.33.53.96.2,1.4-.2.26-.5.4-.8.4Z"/>
      <path class="cls-1" d="m370.03,60.59s-.03,0-.05,0c-.55-.02-.98-.49-.95-1.04.29-6.39-1.25-12.99-1.27-13.05-.13-.54.21-1.08.74-1.2.54-.13,1.08.21,1.2.74.07.28,1.62,6.94,1.32,13.6-.02.54-.47.96-1,.96Z"/>
      <path class="cls-1" d="m381.88,63.3s-.04,0-.05,0c-.55-.03-.98-.5-.95-1.05,0-.14.71-14.27-2.58-22.52-.21-.51.04-1.09.56-1.3.51-.2,1.09.04,1.3.56,3.46,8.66,2.76,22.77,2.72,23.36-.03.53-.47.95-1,.95Z"/>
      <path class="cls-1" d="m389.43,69.04c-.1,0-.19-.01-.29-.04-.53-.16-.83-.72-.66-1.25,1.28-4.19.91-8.5.9-8.54-.05-.55.36-1.04.91-1.09.53-.06,1.04.35,1.09.9.02.19.42,4.73-.98,9.31-.13.43-.53.71-.96.71Z"/>
      <path class="cls-1" d="m397.27,89.9c-.47,0-.89-.33-.98-.81,0-.03-.75-3.41-5.23-7.27-.42-.36-.47-.99-.11-1.41.36-.42.99-.46,1.41-.11,5.06,4.36,5.86,8.24,5.89,8.4.11.54-.25,1.07-.79,1.17-.06.01-.13.02-.19.02Z"/>
      <path class="cls-1" d="m402.52,88.39c-.46,0-.87-.32-.98-.78-.03-.11-2.56-11.53-4.43-20.76-.11-.54.24-1.07.78-1.18.54-.11,1.07.24,1.18.78,1.86,9.21,4.39,20.61,4.42,20.72.12.54-.22,1.07-.76,1.19-.07.02-.15.02-.22.02Z"/>
      <path class="cls-1" d="m407.65,77.45s-.05,0-.08,0c-.55-.04-.96-.52-.92-1.07.01-.16,1.21-16.55-4.26-27.67-.24-.5-.04-1.09.46-1.34.49-.24,1.09-.04,1.34.46,5.72,11.61,4.52,28.01,4.46,28.7-.04.52-.48.92-1,.92Z"/>
      <path class="cls-1" d="m396.27,49.5c-.47,0-.89-.33-.98-.81-.01-.08-1.51-7.58-6.25-11.98-.4-.38-.43-1.01-.05-1.41.38-.41,1.01-.43,1.41-.05,5.22,4.86,6.78,12.73,6.85,13.07.1.54-.25,1.07-.79,1.17-.06.01-.13.02-.19.02Z"/>
      <path class="cls-1" d="m379.74,124.7c-.21,0-.42-.07-.6-.2-1.37-1.02-2.65-4.12-4.32-8.39-.73-1.88-1.43-3.65-1.87-4.33-.19-.29-.33-.54-.45-.76-.42-.78-.44-.81-8.57-1.87l-.81-.11c-.55-.07-.93-.57-.86-1.12.07-.55.57-.94,1.12-.86l.81.1c8.98,1.17,9.15,1.19,10.08,2.9.09.18.2.38.36.62.56.86,1.25,2.64,2.06,4.7,1.05,2.69,2.64,6.76,3.66,7.52.44.33.53.96.2,1.4-.2.26-.5.4-.8.4Z"/>
      <path class="cls-1" d="m409.77,105.27c-.09,0-.18-.01-.28-.04-2.7-.77-3.5-2.23-4.15-3.41-.2-.36-.38-.7-.61-.98-.34-.43-.26-1.06.17-1.4.43-.34,1.06-.26,1.4.17.33.41.56.84.79,1.25.59,1.07,1.05,1.91,2.94,2.45.53.15.84.71.69,1.24-.13.44-.53.73-.96.73Z"/>
      <path class="cls-1" d="m470.2,288.46c-5.51,0-18.03-3.41-25.94-5.74-.41-.12-.7-.49-.72-.92-.07-1.68-.69-16.54.28-19.79.53-1.78.02-5.65-.43-9.07-.29-2.19-.56-4.26-.56-5.75,0-3.42.93-5.53,1.49-6.78.09-.2.17-.38.24-.55.25-.63.09-2.28-.03-3.6-.06-.63-.12-1.27-.15-1.87-.03-.58-.28-2.56-.6-5.06-.8-6.37-2.02-15.99-1.76-19.02.23-2.74-.35-4.83-1.41-8.63-.45-1.6-.95-3.41-1.51-5.67-1.79-7.26-4.46-10.27-4.48-10.3-.37-.41-.34-1.04.06-1.41.41-.37,1.04-.35,1.41.06.12.13,3.03,3.35,4.95,11.17.55,2.23,1.05,4.02,1.49,5.61,1.09,3.89,1.75,6.24,1.48,9.34-.24,2.81,1.01,12.7,1.75,18.6.33,2.64.57,4.55.61,5.2.03.58.09,1.19.15,1.79.17,1.78.33,3.45-.1,4.53-.07.19-.16.39-.26.62-.52,1.18-1.31,2.97-1.31,5.97,0,1.35.26,3.36.54,5.49.5,3.79,1.01,7.71.36,9.9-.7,2.36-.42,13.48-.23,18.42,11,3.21,22.99,6.01,25.55,5.51-.75-3.2-2.52-11.37-2.52-14.66,0-2.62,1.08-10.06,3.5-11.27.21-.1.74-.84.97-2.34.23-1.55.06-3.79-1.21-5-3.2-3.05-3.1-36.68-2.9-39.59l.06-.78c.34-4.69.66-9.11-2.71-12.48-2.44-2.44-3.95-8.96-5.42-15.26-.92-3.96-1.87-8.05-2.76-9.27-1.57-2.16-2.04-5.46-2.45-8.38-.25-1.77-.48-3.44-.92-4.33-.61-1.26-.74-3.07-.89-4.97-.17-2.27-.36-4.84-1.41-6.28-.79-1.09-1.62-1.43-2.5-1.8-1.19-.49-2.54-1.05-2.98-3.38-.58-3.05-5.37-18.2-10.05-22.63-3.74-3.53-8.22-6.45-12.55-9.27-1.2-.78-2.38-1.55-3.5-2.3-1.56-1.05-3.13-2.4-4.68-4.04-3.13,3.4-15.9,16.37-35.69,25.17-.25.11-.54.12-.79,0-.25-.11-.45-.31-.55-.57l-2.65-7.08c-.1-.28-.08-.59.07-.85.15-.26.4-.44.69-.49,5.51-.99,23.26-13.68,31.87-20.25,1.77-1.35,2.6-2.61,2.61-2.63.18-.28.5-.46.84-.46h0c.34,0,.66.18.84.46.01.02,1.35,2.13,3.49,4.51,0,0,.01.02.02.02,1.68,1.88,3.38,3.39,5.05,4.52,1.12.75,2.29,1.51,3.48,2.29,4.41,2.87,8.97,5.83,12.84,9.49,5.09,4.81,10.02,20.43,10.64,23.72.24,1.26.72,1.47,1.78,1.91.99.41,2.23.92,3.35,2.47,1.39,1.91,1.6,4.78,1.79,7.31.13,1.71.25,3.33.69,4.25.57,1.17.81,2.91,1.09,4.92.38,2.69.81,5.73,2.09,7.48,1.13,1.56,2.04,5.47,3.09,10,1.27,5.46,2.85,12.26,4.88,14.29,4.02,4.02,3.65,9.11,3.29,14.04l-.05.77c-.45,6.47.2,35.79,2.29,38.01,1.82,1.73,2.12,4.62,1.81,6.74-.29,1.9-1.05,3.34-2.05,3.84-.91.46-2.4,5.83-2.4,9.48,0,3.01,1.73,11.16,2.57,14.63.13.54-.02,1.06-.41,1.43-.41.39-1.28.55-2.51.55Zm-91.49-162.13l1.89,5.04c19.24-8.79,31.48-21.43,34.19-24.4-1-1.16-1.79-2.22-2.33-2.97-.5.56-1.22,1.27-2.17,1.99-.98.75-23.13,17.61-31.58,20.33Z"/>
      <path class="cls-1" d="m443.19,216.35c-.42,0-.8-.26-.95-.68-.31-.9-1.17-3.39-1.45-4.04-.42-.71-5.49-5.98-9.93-10.42-2.12-2.12-6.97-7.46-6.09-11.09.52-2.14-2.91-8.58-5.24-9.85-1.89-1.03-2.76-3.36-3.59-5.61-.49-1.33-.95-2.58-1.57-3.4-.79-1.06-1.32-2.59-1.89-4.21-.7-2.02-1.5-4.31-2.65-4.78-2.11-.86-5.16-3.94-9.76-8.59-1.51-1.52-3.16-3.19-4.95-4.95-.39-.39-.4-1.02-.01-1.41.39-.39,1.02-.4,1.41-.01,1.8,1.77,3.45,3.44,4.97,4.97,4.11,4.15,7.36,7.44,9.1,8.15,1.99.81,2.9,3.44,3.78,5.98.49,1.41.99,2.86,1.6,3.67.79,1.05,1.33,2.5,1.84,3.9.71,1.9,1.43,3.87,2.67,4.55,2.93,1.6,7.01,8.84,6.22,12.08-.42,1.75,1.81,5.45,5.56,9.2,2.31,2.31,9.87,9.92,10.35,11.04.36.85,1.46,4.05,1.51,4.18.18.52-.1,1.09-.62,1.27-.11.04-.22.05-.32.05Z"/>
      <path class="cls-1" d="m449.79,149.95c-.13,0-.26-.03-.39-.08-.57-.24-13.9-6.01-18.49-15.32-.25-.5-.04-1.09.45-1.34.5-.24,1.1-.04,1.34.45,4.26,8.64,17.35,14.31,17.48,14.37.51.22.74.8.53,1.31-.16.38-.53.61-.92.61Z"/>
      <path class="cls-1" d="m466.95,200.68c-.18,0-.36-.05-.52-.15-.36-.22-8.95-5.49-16.86-14.34-.37-.41-.33-1.04.08-1.41.41-.37,1.04-.33,1.41.08,7.7,8.62,16.32,13.91,16.4,13.96.47.29.62.9.33,1.37-.19.31-.52.48-.86.48Z"/>
      <path class="cls-1" d="m472.5,253.52c-.42,0-.82-.27-.95-.7-.05-.15-4.76-14.87-8.49-26.05-.17-.52.11-1.09.63-1.26.53-.18,1.09.11,1.26.63,3.73,11.2,8.45,25.93,8.5,26.08.17.53-.12,1.09-.65,1.26-.1.03-.2.05-.3.05Z"/>
      <path class="cls-1" d="m444.85,242.74c-.17,0-.34-.04-.49-.13-.48-.27-.65-.88-.38-1.36.04-.07,3.67-6.62,3.22-18.18-.02-.55.41-1.02.96-1.04.55-.05,1.02.41,1.04.96.48,12.18-3.32,18.96-3.48,19.25-.18.32-.52.5-.87.5Z"/>
      <path class="cls-1" d="m444.85,264.6c-.1,0-.19-.01-.29-.04-.53-.16-.83-.72-.67-1.25,1.82-6.03,8.1-18.61,8.36-19.15.25-.49.85-.69,1.34-.45.49.25.69.85.45,1.34-.06.13-6.47,12.97-8.24,18.83-.13.43-.53.71-.96.71Z"/>
      <path class="cls-1" d="m469.43,285.11c-.26,0-.51-.1-.71-.29-.31-.31-7.68-7.76-9.24-17.52-.09-.54.28-1.06.83-1.15.54-.09,1.06.28,1.15.83,1.46,9.11,8.61,16.35,8.68,16.42.39.39.39,1.02,0,1.41-.2.2-.45.29-.71.29Z"/>
      <path class="cls-1" d="m411.87,163.97c-.49,0-.92-.36-.99-.87-.01-.09-1.32-9.55-4.18-18.68-.17-.53.13-1.09.66-1.25.53-.17,1.09.13,1.25.66,2.91,9.29,4.24,18.91,4.25,19.01.07.55-.31,1.05-.86,1.13-.05,0-.09,0-.14,0Z"/>
      <path class="cls-1" d="m411.29,163.16c-.26,0-.52-.1-.71-.3-.25-.25-6.08-6.25-10.35-16.46-.21-.51.03-1.09.54-1.31.51-.21,1.09.03,1.31.54,4.11,9.83,9.88,15.77,9.93,15.83.39.39.38,1.03-.01,1.41-.19.19-.45.29-.7.29Z"/>
      <path class="cls-1" d="m382.79,176.06c-.19,0-.38-.01-.54-.04-1.99-.29-11.89-2.58-11.35-18.71.02-.55.51-.99,1.03-.97.55.02.98.48.97,1.03-.46,14.07,7.27,16.32,9.65,16.67,2.1.32,8.98-2.74,12.83-4.74.49-.25,1.09-.06,1.35.43.25.49.06,1.09-.43,1.35-1.03.53-9.73,4.97-13.5,4.97Z"/>
      <path class="cls-1" d="m399.85,176.74c-.46,0-.87-.31-.97-.78-.12-.54.21-1.08.75-1.2,7.21-1.66,11.21-6.45,11.24-6.5.35-.43.98-.49,1.41-.14.43.35.49.98.14,1.4-.18.22-4.44,5.36-12.34,7.18-.08.02-.15.03-.23.03Z"/>
      <path class="cls-1" d="m387.82,214.36c-.29,0-.59-.13-.78-.38-.34-.43-.27-1.06.16-1.41,14.09-11.2,25.14-28.36,25.25-28.53.3-.46.91-.6,1.38-.3.46.3.6.92.3,1.38-.11.17-11.34,17.61-25.7,29.02-.18.15-.4.22-.62.22Z"/>
      <path class="cls-1" d="m396.66,233.39c-.3,0-.59-.13-.79-.38-.34-.43-.27-1.06.17-1.4,29.24-23.05,31.29-30.19,31.37-30.48.13-.52.65-.87,1.18-.75.53.11.87.61.78,1.14-.14.76-2.23,8.13-32.09,31.66-.18.14-.4.21-.62.21Z"/>
      <path class="cls-1" d="m366.05,261.89c-.11,0-.19,0-.24-.02-1.17-.23-3.16-2.34-3.16-8.76,0-4.55.47-6.28,1.74-10.9.46-1.67,1.02-3.72,1.71-6.45.14-.54.68-.86,1.21-.72.54.14.86.68.72,1.21-.69,2.74-1.26,4.81-1.72,6.49-1.25,4.55-1.67,6.09-1.67,10.37,0,5.07,1.29,6.52,1.58,6.78,1.57-.12,11.37-1.85,14.18-3.83,2.5-1.76,8.93-10.47,11.2-13.68.32-.45.94-.56,1.39-.24.45.32.56.94.24,1.39-.34.48-8.39,11.84-11.68,14.16-3.11,2.19-13.5,4.19-15.51,4.19Z"/>
      <path class="cls-1" d="m396.66,254.9c-2.11,0-3.5-.33-4.95-.66-1.5-.35-3.06-.72-5.67-.72-.55,0-1-.45-1-1s.45-1,1-1c2.84,0,4.58.41,6.12.77,1.98.46,3.69.86,7.44.42,6.69-.79,11.95-4.66,14.02-7.92,2.24-3.53,3.65-5.82,3.65-5.83.29-.47.9-.62,1.38-.33.47.29.62.91.33,1.38,0,0-1.42,2.3-3.66,5.85-2.38,3.76-8.09,7.96-15.47,8.83-1.24.15-2.28.21-3.19.21Z"/>
      <path class="cls-1" d="m421.55,234.41c-.23,0-.47-.08-.66-.25-.42-.36-.46-.99-.1-1.41.06-.07,6.4-7.37,8.32-11.92.21-.51.8-.75,1.31-.53.51.21.75.8.53,1.31-2.04,4.86-8.39,12.16-8.66,12.46-.2.23-.47.34-.75.34Z"/>
      <path class="cls-1" d="m425.01,257.21c-1.99,0-3.78-.77-5.98-1.71-2.5-1.07-5.62-2.41-10.24-3.06-.55-.08-.93-.58-.85-1.13.08-.55.57-.93,1.13-.85,4.88.69,8.14,2.08,10.75,3.2,2.27.97,3.93,1.68,5.7,1.53,3.59-1.31,7.69-3.47,7.9-4.52q.17-.85-.8-1.31c-.52-.25-1.18-.57-1.9-1.12-1.65-1.26-1-4.42-.31-7.76.28-1.35.7-3.38.52-3.86-1.09-1.77-2.74-11.75-1.76-16.27.17-.81.41-1.76.68-2.8,1.17-4.61,2.76-10.92,1.56-15.98-.13-.54.21-1.08.74-1.2.54-.13,1.08.2,1.2.74,1.31,5.54-.35,12.12-1.57,16.93-.26,1.02-.49,1.94-.66,2.73-.88,4.07.72,13.52,1.53,14.83.58.94.29,2.54-.28,5.28-.35,1.71-1.09,5.27-.44,5.77.56.43,1.09.68,1.55.91,1.11.53,2.36,1.14,1.89,3.5-.54,2.7-7.26,5.32-9.3,6.05-.07.03-.15.04-.23.05-.29.03-.57.05-.84.05Z"/>
      <path class="cls-1" d="m365.76,244.2s-.03,0-.04,0c-.55-.02-.98-.49-.96-1.04.11-2.49.01-5.97-.1-9.99-.24-8.6-.54-19.3,1.2-25.5,1.32-4.72,1-6.21.55-8.29-.38-1.75-.85-3.92-.58-8.37.33-5.46-.72-9.09-1.72-12.6-.75-2.61-1.46-5.08-1.46-7.98,0-6.97,1.8-19.64,5.82-26.01.29-.47.91-.61,1.38-.31.47.29.61.91.31,1.38-3.8,6.03-5.51,18.22-5.51,24.94,0,2.62.64,4.85,1.38,7.43,1.01,3.5,2.15,7.47,1.8,13.27-.25,4.17.17,6.11.54,7.82.49,2.27.88,4.06-.58,9.25-1.65,5.91-1.36,16.44-1.12,24.9.11,4.06.21,7.57.1,10.14-.02.54-.47.96-1,.96Z"/>
      <path class="cls-1" d="m371.87,214.36c-.13,0-.26-.02-.38-.08-.51-.21-.75-.79-.54-1.31.07-.17,7.23-17.46,16.02-31.41.29-.47.91-.61,1.38-.31.47.29.61.91.31,1.38-8.7,13.8-15.79,30.93-15.86,31.1-.16.39-.53.62-.92.62Z"/>
      <path class="cls-1" d="m372.25,193.25s-.05,0-.07,0c-.55-.04-.97-.52-.93-1.07l.47-6.72c.04-.55.49-.98,1.07-.93.55.04.97.52.93,1.07l-.47,6.72c-.04.53-.48.93-1,.93Z"/>
      <path class="cls-1" d="m369.3,248.44c-.35,0-.68-.18-.87-.5-.27-.48-.11-1.09.37-1.36,14.47-8.27,29.1-31.52,29.25-31.76.29-.47.91-.61,1.38-.32.47.29.61.91.32,1.38-.61.97-15.05,23.91-29.95,32.43-.16.09-.33.13-.5.13Z"/>
      <path class="cls-1" d="m437.56,124.34c-.18,0-.35-.05-.51-.14-7.91-4.76-15.18-5.95-24.31-3.98-.53.12-1.07-.23-1.19-.77-.12-.54.23-1.07.77-1.19,9.66-2.09,17.37-.83,25.76,4.22.47.29.63.9.34,1.37-.19.31-.52.48-.86.48Z"/>
      <path class="cls-1" d="m364.14,163.97s-.09,0-.14,0c-.55-.08-.93-.58-.86-1.13,0-.02.31-2.53-.5-8.62-.83-6.26,3.44-20.33,14.93-26.08.49-.25,1.09-.05,1.34.45.25.49.05,1.09-.45,1.34-10.64,5.32-14.61,18.27-13.84,24.03.85,6.42.51,9.04.5,9.15-.07.5-.5.86-.99.86Z"/>
      <path class="cls-1" d="m373.78,167.2c-.23,0-.46-.08-.65-.24-.27-.23-.4-.59-.34-.94l5.96-32.8c.1-.54.62-.9,1.16-.81.54.1.9.62.81,1.16l-5.65,31.11,3.89-1.37,6.1-32.92c.1-.54.62-.91,1.17-.8.54.1.9.62.8,1.17l-6.2,33.49c-.07.35-.31.64-.65.76l-6.06,2.14c-.11.04-.22.06-.33.06Z"/>
      <path class="cls-1" d="m356.8,205.63c-.48,0-.91-.35-.99-.84-.46-2.82-.08-6.49.25-9.73.19-1.87.37-3.63.33-4.78-.12-3.22,2.39-14.14,6.63-18.65.38-.41,1.01-.42,1.41-.04.4.38.42,1.01.04,1.41-3.67,3.9-6.2,14.21-6.09,17.21.05,1.29-.13,3.04-.34,5.06-.32,3.11-.68,6.64-.26,9.21.09.54-.28,1.06-.83,1.15-.05,0-.11.01-.16.01Z"/>
      <path class="cls-1" d="m347.95,229.77s-.03,0-.04,0c-.55-.02-.98-.49-.96-1.04,0-.07.29-7.41.74-13.46.23-3.08.46-5.33.69-6.68.36-2.09,1.72-5.26,3.29-8.93,2.15-5.02,4.59-10.71,4.59-14.13,0-.55.45-1,1-1s1,.45,1,1c0,3.84-2.53,9.72-4.76,14.92-1.46,3.41-2.84,6.63-3.16,8.48-.22,1.29-.45,3.47-.67,6.5-.44,6-.73,13.31-.73,13.39-.02.54-.46.96-1,.96Z"/>
      <path class="cls-1" d="m305.26,286.89c-.12,0-.25-.02-.36-.07-.36-.14-.6-.47-.63-.85l-.24-3.07c-.16-2.09-5.52-13.25-8.86-19.79-.16-.31-.14-.67.03-.96.11-.19,2.77-4.6,7.74-7.87l.84-.55c5-3.29,14.32-9.42,16.38-11.27,2.1-1.88,6.35-8.65,7.25-12.01.56-2.09,3.38-3.7,7.29-5.93,3.99-2.27,8.96-5.1,13.24-9.38.39-.39,1.02-.39,1.41,0s.39,1.02,0,1.41c-4.47,4.47-9.57,7.37-13.67,9.71-3.22,1.84-6.01,3.42-6.35,4.71-1.01,3.78-5.47,10.86-7.85,12.99-2.17,1.95-11.22,7.9-16.62,11.45l-.84.55c-3.68,2.43-6.04,5.61-6.83,6.77,1.64,3.23,8.58,17.06,8.81,20.03l.08,1.02c2.1-1.91,5.84-5.24,7.79-6.6,1.66-1.16,4.56-9.95,6.09-15.82.14-.54.68-.85,1.22-.72.53.14.85.68.72,1.22-.65,2.48-4.01,14.97-6.88,16.96-2.62,1.83-9.03,7.75-9.09,7.81-.19.17-.43.27-.68.27Z"/>
      <path class="cls-1" d="m317.29,274.04c-.55,0-1-.45-1-1s.45-1,1-1c9.77,0,14.33-5.28,17.06-8.43l.59-.68c2.07-2.34,3.94-11.37,4.48-14.65.09-.54.6-.92,1.15-.82.54.09.91.61.82,1.15-.21,1.27-2.13,12.46-4.96,15.65l-.58.66c-2.76,3.19-7.89,9.12-18.57,9.12Z"/>
      <path class="cls-1" d="m339.93,256.23c-.36,0-.71-.19-.88-.53-.26-.49-.07-1.09.42-1.35,4.34-2.3,7.52-4.17,9.84-5.54,1.99-1.17,3.3-1.94,4.17-2.29.88-.35,2.35-2.82,3.43-4.62.67-1.12,1.3-2.17,1.91-3,1.8-2.46,5.96-6.5,6.14-6.67.39-.38,1.03-.38,1.41.02.38.4.37,1.03-.02,1.41-.04.04-4.22,4.09-5.92,6.42-.55.75-1.16,1.77-1.81,2.85-1.49,2.49-2.9,4.85-4.41,5.45-.74.29-2.06,1.08-3.9,2.16-2.34,1.38-5.54,3.26-9.92,5.58-.15.08-.31.12-.47.12Z"/>
      <path class="cls-1" d="m356.6,238.65c-.08,0-.15,0-.23-.03-.54-.13-.87-.67-.75-1.2.02-.1,2.44-10.38,3.01-14.53.08-.55.57-.93,1.13-.85.55.08.93.58.85,1.13-.59,4.24-2.95,14.29-3.05,14.71-.11.46-.52.77-.97.77Z"/>
      <path class="cls-1" d="m330.85,256.23c-.11,0-.22-.02-.33-.06-.52-.18-.79-.75-.61-1.28,2.85-8.09,2.54-17.11,2.54-17.2-.02-.55.41-1.02.96-1.04.55-.07,1.02.41,1.04.96.01.38.33,9.49-2.65,17.94-.14.41-.53.67-.94.67Z"/>
      <path class="cls-1" d="m319.77,252.93c-.18,0-.36-.05-.52-.15-.47-.29-.62-.91-.33-1.38.03-.05,3.36-5.5,4.95-12.15.13-.54.67-.86,1.21-.74.54.13.87.67.74,1.21-1.67,6.98-5.05,12.5-5.19,12.74-.19.31-.52.47-.85.47Z"/>
      <path class="cls-1" d="m304.55,262.36c-.1,0-.21-.02-.31-.05-.53-.17-.81-.74-.64-1.26.08-.24,1.95-5.94,4.44-10.03.29-.47.9-.62,1.37-.33.47.29.62.9.33,1.37-2.37,3.9-4.23,9.55-4.25,9.61-.14.42-.53.69-.95.69Z"/>
      <path class="cls-1" d="m467.91,281.03c-8.69,0-22.79-5.97-23.44-6.25-.51-.22-.74-.8-.53-1.31.22-.51.8-.75,1.31-.53.17.07,16.98,7.18,24.61,5.95.55-.09,1.06.28,1.15.83.09.55-.28,1.06-.83,1.15-.7.11-1.46.17-2.27.17Z"/>
      <path class="cls-1" d="m311.87,281.03c-.34,0-.67-.17-.86-.49-.39-.65-9.54-15.94-11.17-23.16-.12-.54.22-1.07.75-1.2.54-.12,1.07.21,1.2.75,1.56,6.9,10.84,22.41,10.94,22.57.28.47.13,1.09-.34,1.37-.16.1-.34.14-.51.14Z"/>
      <path class="cls-1" d="m402.28,327.92c-1.91,0-3.55-.15-4.81-.49-9.89-2.67-44.53-10.29-44.88-10.37-.5-.11-.83-.58-.78-1.08.03-.27.75-6.82,3.84-17.16,1.15-3.83,1.94-8.4,2.79-13.23,1.4-8.05,3-17.18,6.66-25.11.23-.5.83-.72,1.33-.49.5.23.72.83.49,1.33-3.56,7.7-5.12,16.69-6.51,24.62-.85,4.89-1.66,9.52-2.84,13.46-2.39,8.01-3.35,13.8-3.65,15.92,5.53,1.22,35.04,7.75,44.08,10.19,8.8,2.38,38.65-5.58,44.09-7.07-.56-3.71-2.64-18.32-2.54-29.36.11-12.27-3.83-25-10.28-33.22-.34-.43-.27-1.06.17-1.4.44-.34,1.06-.27,1.4.17,6.72,8.56,10.83,21.77,10.71,34.47-.12,12.51,2.62,29.73,2.65,29.91.08.5-.23.98-.71,1.12-1.28.36-27.78,7.81-41.19,7.81Z"/>
      <path class="cls-1" d="m351.37,270.61c-.18,0-.36-.05-.52-.15-.47-.29-.62-.9-.33-1.37.24-.38,5.88-9.42,15.03-7.79.54.1.91.62.81,1.16-.1.54-.62.9-1.16.81-7.8-1.38-12.93,6.78-12.98,6.86-.19.31-.52.48-.85.48Z"/>
      <path class="cls-1" d="m355.26,280.05c-.47,0-.89-.33-.98-.81-.08-.41-1.84-10.12,10.57-17.8.47-.29,1.08-.15,1.38.32.29.47.15,1.09-.32,1.38-11.25,6.96-9.68,15.63-9.66,15.71.11.54-.25,1.07-.79,1.18-.07.01-.13.02-.2.02Z"/>
      <path class="cls-1" d="m403.4,327.91c-.38,0-.74-.22-.91-.58-.23-.5-.01-1.1.49-1.33,15.01-6.92,24.39-29.64,24.48-29.87.21-.51.79-.76,1.3-.55.51.21.76.79.55,1.3-.39.96-9.77,23.68-25.5,30.93-.14.06-.28.09-.42.09Z"/>
      <path class="cls-1" d="m392.89,272.27c-.5,0-.93-.37-.99-.87-.07-.54-1.79-13.16-11.49-13.16-.55,0-1-.45-1-1s.45-1,1-1c11.46,0,13.46,14.76,13.48,14.91.07.55-.32,1.05-.87,1.12-.04,0-.08,0-.13,0Z"/>
      <path class="cls-1" d="m411.64,265.25c-.44,0-.84-.29-.96-.74-.02-.07-1.99-7.16-7.8-10.71-.47-.29-.62-.9-.33-1.38.29-.47.9-.62,1.38-.33,6.5,3.98,8.6,11.58,8.69,11.9.14.53-.17,1.08-.71,1.22-.09.02-.17.04-.26.04Z"/>
      <path class="cls-1" d="m361.28,307.88c-.07,0-.15,0-.23-.03-.54-.12-.87-.66-.75-1.2.05-.24,5.43-23.67,6.94-35.05.07-.55.58-.92,1.12-.86.55.07.93.58.86,1.12-1.52,11.47-6.92,35-6.98,35.24-.11.46-.52.78-.97.78Z"/>
      <path class="cls-1" d="m387.34,312.71c-.21,0-.43-.07-.61-.21-.44-.34-.51-.97-.17-1.4.14-.18,14.2-18.27,17.88-30.56.16-.53.72-.83,1.24-.67.53.16.83.72.67,1.24-3.79,12.66-17.63,30.46-18.21,31.22-.2.25-.49.38-.79.38Z"/>
      <path class="cls-1" d="m430.04,277.95c-.53,0-.97-.41-1-.95,0-.13-.75-13.3-5.04-20.27-.29-.47-.14-1.09.33-1.38.47-.29,1.08-.14,1.38.33,4.56,7.41,5.31,20.65,5.34,21.21.03.55-.39,1.02-.95,1.05-.02,0-.04,0-.05,0Z"/>
      <path class="cls-1" d="m361.42,505.11c-1.11,0-4.56-1.29-18.84-6.63-9.09-3.4-18.16-6.84-18.16-6.84-.29-.11-.51-.35-.6-.65-.09-.3-.03-.62.15-.87.09-.12,8.64-12.07,8.3-22.91-.36-11.44,2.26-32.14,4.31-37.54,2.01-5.31,3.48-11.65,3.65-15.79.12-2.94.4-6.64.56-8.85.07-.99.14-1.92.15-2.08,0-.05-.07-.37-.15-.86-.72-4.1-2.9-16.59-.67-22.49,2.48-6.56,15.62-28.42,16.18-29.35.28-.47.9-.63,1.37-.34.47.28.63.9.34,1.37-.14.23-13.6,22.64-16.02,29.03-1.35,3.57-1.09,10.79.77,21.44.16.91.18,1.06.18,1.21,0,.21-.05.83-.15,2.23-.17,2.2-.44,5.87-.56,8.78-.18,4.33-1.69,10.93-3.78,16.41-1.94,5.13-4.53,25.74-4.18,36.76.3,9.7-5.79,19.81-7.95,23.08,12.53,4.75,30.11,11.35,34.24,12.71.21-.56.53-1.34,1-2.46,1.31-3.15,3.76-9.01,3.45-11.22-.35-2.47,2.63-16.31,6.27-32.8,1.2-5.45,2.34-10.6,2.39-11.29.02-.24.04-.71.07-1.36.8-16.91,2.78-26.36,6.05-28.9,3.44-2.67,1.86-9.47.71-14.44-.33-1.44-.65-2.81-.81-3.91-.53-3.73,2.84-7.7,5.3-10.59.95-1.12,2.03-2.39,2.15-2.88.16-.63.39-2.12.66-3.84.59-3.81,1.49-9.58,2.72-13.39,1.73-5.35,14.02-23.05,23.9-37.28l1.53-2.21c.32-.45.94-.57,1.39-.25.45.31.57.94.25,1.39l-1.53,2.21c-9.29,13.37-22,31.69-23.64,36.75-1.18,3.66-2.06,9.33-2.65,13.08-.29,1.84-.51,3.29-.69,4.01-.24.94-1.21,2.09-2.57,3.69-2.21,2.61-5.25,6.18-4.84,9.02.15,1.02.45,2.34.78,3.74,1.28,5.5,3.02,13.02-1.43,16.47-1.88,1.46-4.33,7.4-5.28,27.41-.03.68-.06,1.17-.08,1.42-.06.79-.88,4.51-2.43,11.57-2.46,11.14-6.57,29.78-6.24,32.09.36,2.54-1.49,7.25-3.58,12.27-.48,1.15-1.02,2.44-1.13,2.86.01.26-.07.52-.24.72-.15.17-.27.31-.62.31Zm.74-1.45s0,0,0,0c0,0,0,0,0,0Zm0,0s0,0,0,0c0,0,0,0,0,0Z"/>
      <path class="cls-1" d="m346.18,368.03c-.51,0-.95-.39-1-.91-.14-1.67-.69-6.3-1.47-7.75-1.46-2.69,4.5-29.32,8.12-42.84.14-.53.7-.85,1.22-.71.53.14.85.69.71,1.22-4.95,18.54-8.92,39.39-8.27,41.42,1.1,2.02,1.63,7.82,1.69,8.48.05.55-.36,1.04-.91,1.08-.03,0-.06,0-.09,0Z"/>
      <path class="cls-1" d="m377.5,409.96c-.14,0-.28-.03-.42-.09-.47-.21-11.47-5.35-17.74-14.5-.31-.46-.2-1.08.26-1.39.46-.31,1.08-.2,1.39.26,5.96,8.68,16.82,13.76,16.93,13.81.5.23.72.83.49,1.33-.17.37-.53.58-.91.58Z"/>
      <path class="cls-1" d="m355.74,435.26c-.3,0-.59-.13-.79-.39-.49-.63-12.01-15.5-14.41-25.68-.13-.54.21-1.08.74-1.2.53-.12,1.08.21,1.2.74,2.3,9.75,13.93,24.76,14.04,24.91.34.44.26,1.06-.17,1.4-.18.14-.4.21-.61.21Z"/>
      <path class="cls-1" d="m344.44,491.52c-.25,0-.5-.09-.69-.28-.38-.36-9.29-9-11.71-19.64-.12-.54.22-1.07.75-1.2.54-.12,1.07.21,1.2.75,2.28,10.05,11.06,18.56,11.15,18.64.4.38.41,1.01.03,1.41-.2.21-.46.31-.72.31Z"/>
      <path class="cls-1" d="m430.68,363.08s-.03,0-.04,0c-.55-.02-.98-.49-.96-1.04.01-.29,1.11-28.72,0-39.58-.06-.55.34-1.04.89-1.1.58-.05,1.04.35,1.1.89,1.12,11,.05,38.69,0,39.86-.02.54-.46.96-1,.96Z"/>
      <path class="cls-1" d="m434.64,374.05c-.55,0-1-.45-1-1v-8.26c-.51-.46-2.46-1.39-4.19-2.23-4.82-2.32-12.1-5.83-18.13-11.42-.41-.38-.43-1.01-.05-1.41.37-.41,1.01-.43,1.41-.05,5.81,5.38,12.93,8.82,17.64,11.09,3.87,1.87,5.32,2.57,5.32,3.8v8.49c0,.55-.45,1-1,1Zm-.91-9.17h0,0Z"/>
      <path class="cls-1" d="m431.18,500.89c-.15,0-.31-.04-.45-.11-.38-.19-.6-.6-.54-1.02.01-.1,1.3-10.45-2.74-21.25-3.11-8.31-5.06-18.06-6.48-25.18-.49-2.46-.92-4.59-1.28-6.11-.74-3.04-1.65-9.67-2.53-16.09-.81-5.88-1.65-11.97-2.24-14.33-1.24-4.94-2.13-10.82-2.14-10.88-.08-.55.29-1.06.84-1.14.55-.09,1.06.29,1.14.84,0,.06.89,5.85,2.1,10.7.62,2.47,1.43,8.34,2.28,14.55.88,6.37,1.78,12.95,2.5,15.89.38,1.56.81,3.71,1.3,6.19,1.41,7.05,3.33,16.71,6.39,24.87,2.99,7.98,3.2,15.56,3.05,19.47,1.12-1.13,2.46-2.54,3.25-3.51.79-.97,4.05-1.68,13.15-3.47,7.16-1.41,20.48-4.03,21.33-5.84.63-3.5-9.84-36.17-12.66-41.8-1.7-3.39-4.92-11.82-7.51-18.58-1.66-4.33-3.22-8.42-3.62-9.16-.55-1-1.8-5.13-3.79-11.8-1.56-5.23-3.18-10.63-3.85-12.15-.42-.96-.81-2.4-1.3-4.24-1.23-4.61-3.1-11.57-7.52-18.08-.31-.46-.19-1.08.26-1.39.46-.31,1.08-.19,1.39.26,4.61,6.78,6.53,13.94,7.8,18.68.47,1.75.84,3.13,1.2,3.94.73,1.64,2.29,6.86,3.94,12.39,1.47,4.93,3.14,10.53,3.63,11.42.44.81,1.65,3.94,3.74,9.4,2.57,6.73,5.78,15.1,7.43,18.4,2.76,5.52,13.6,38.85,12.83,43.08-.47,2.6-7.14,4.31-22.9,7.41-5.26,1.04-11.23,2.21-12.04,2.83-1.55,1.91-5.09,5.36-5.24,5.51-.19.19-.44.28-.7.28Z"/>
      <path class="cls-1" d="m417.96,430.66c-.31,0-.62-.14-.81-.41-.09-.12-9-12.42-11.45-15.75-.78-1.05-1.75-2.01-2.79-3.02-2.22-2.18-4.74-4.65-6.7-9.2-2.73-6.31-4.89-18.18-6.81-28.66l-.3-1.66c-.1-.54.26-1.06.8-1.16.54-.1,1.06.26,1.16.8l.3,1.66c1.8,9.86,4.04,22.12,6.68,28.22,1.81,4.19,4.18,6.52,6.27,8.57,1.09,1.07,2.12,2.08,2.99,3.27,2.45,3.33,11.37,15.63,11.46,15.76.32.45.22,1.07-.22,1.4-.18.13-.38.19-.59.19Z"/>
      <path class="cls-1" d="m335.76,540.53c-9.88,0-59.07-18.66-65.18-23.21-2.05-1.53-3.15-3.75-3.17-6.43-.04-5.41,4.14-11.45,8.29-14.62,6.2-4.74,26.28,5.31,29.37,6.9,4.82.36,10.44.52,11.49.18,1.39-1.37,10.76-10.78,11.7-11.76.38-.4,1.01-.41,1.41-.03.4.38.41,1.01.03,1.41-1.07,1.11-11.05,11.13-11.83,11.89-.33.33-1.21,1.19-13.16.28-.13,0-.27-.05-.39-.11-6.09-3.17-22.9-10.64-27.41-7.18-3.66,2.8-7.54,8.32-7.5,13.02.01,2.06.81,3.69,2.36,4.84,6.56,4.87,56.55,23.25,64.27,22.8,4.7-.29,7.76-5.74,8.86-8.07,2.02-4.28,2.52-8.51,1.71-9.63-2.48-3.43,2.29-17.82,3.27-20.67.18-.52.75-.8,1.27-.62.52.18.8.75.62,1.27-2.3,6.68-4.92,16.95-3.54,18.85,1.58,2.19.43,7.52-1.53,11.66-2.65,5.6-6.49,8.95-10.54,9.21-.13,0-.26.01-.4.01Z"/>
      <path class="cls-1" d="m346.01,521.29c-10.23,0-33.6-6.78-41.98-16.48-.36-.42-.31-1.05.1-1.41.42-.36,1.05-.32,1.41.1,8.45,9.79,32.89,16.49,41.8,15.74.56-.03,1.03.37,1.08.92.04.55-.37,1.03-.92,1.08-.46.04-.96.06-1.49.06Z"/>
      <path class="cls-1" d="m286.77,524.8c-.21,0-.42-.06-.6-.2-.53-.39-12.9-9.75-15.93-21.67-.14-.54.19-1.08.72-1.21.53-.14,1.08.19,1.21.72,2.85,11.23,15.07,20.47,15.19,20.56.44.33.53.96.2,1.4-.2.26-.5.4-.8.4Z"/>
      <path class="cls-1" d="m311.49,534.02c-.2,0-.4-.06-.58-.19-.98-.69-24.01-17.24-32.84-37.35-.22-.51,0-1.1.51-1.32.51-.22,1.1,0,1.32.51,8.6,19.59,31.93,36.36,32.17,36.52.45.32.55.94.23,1.39-.2.27-.5.42-.82.42Z"/>
      <path class="cls-1" d="m324.78,538.24c-.21,0-.42-.07-.6-.2-9.29-7.02-14.1-15.59-20.2-26.45-1.7-3.03-3.46-6.16-5.45-9.5-.28-.47-.13-1.09.35-1.37.48-.28,1.09-.13,1.37.35,2,3.36,3.77,6.5,5.48,9.54,5.99,10.65,10.71,19.07,19.66,25.84.44.33.53.96.2,1.4-.2.26-.5.4-.8.4Z"/>
      <path class="cls-1" d="m342.4,537.07c-.17,0-.35-.04-.51-.14-.14-.08-13.84-8.3-24.1-21.77-.33-.44-.25-1.07.19-1.4.44-.33,1.07-.25,1.4.19,10.02,13.15,23.4,21.18,23.53,21.26.47.28.63.9.35,1.37-.19.31-.52.49-.86.49Z"/>
      <path class="cls-1" d="m417.54,542.19c-10.79,0-23.22-.2-24.76-1.02-1.85-.98-2.87-4.49-3.21-7.46-.54-4.76.24-11.04,4.08-14.37,7.5-6.5,30.41-3.87,31.38-3.75.11.01.22.05.33.1.06.03,5.69,2.76,8.5-.79,2.55-3.22,1.99-15.82,1.56-20.4-.05-.55.35-1.04.9-1.09.56-.06,1.04.35,1.09.9.17,1.77,1.53,17.39-1.98,21.83-3.54,4.47-9.67,1.93-10.79,1.42-2.05-.22-23.14-2.37-29.67,3.3-3.26,2.82-3.87,8.57-3.41,12.63.38,3.3,1.39,5.51,2.16,5.92,2.92,1.18,68.99,1.03,72.82-1.59,2.49-2.39,3.22-16,1.89-18.57-1.23-2.38-3.58-3.52-3.61-3.53-.27-.13-.48-.38-.55-.67l-6.07-25.62c-.13-.54.2-1.08.74-1.2.53-.13,1.08.21,1.2.74l5.97,25.18c.89.51,2.88,1.85,4.09,4.18,1.51,2.92,1.14,17.65-2.32,20.96-1.97,1.88-21.56,2.57-37.65,2.82-3.05.05-7.7.09-12.69.09Z"/>
      <path class="cls-1" d="m442.02,522.75c-7.2,0-14.03-1.67-17.82-5.46-.39-.39-.39-1.02,0-1.41s1.02-.39,1.41,0c7.79,7.79,30.86,5.59,38.95-1.8.41-.37,1.04-.35,1.41.06.37.41.34,1.04-.06,1.41-4.91,4.48-14.71,7.2-23.9,7.2Z"/>
      <path class="cls-1" d="m414.65,541.11c-.13,0-.27-.03-.4-.09-.09-.04-9.34-4.11-24.15-9.22-.52-.18-.8-.75-.62-1.27s.75-.8,1.27-.62c14.9,5.14,24.22,9.25,24.31,9.29.5.22.73.81.51,1.32-.17.37-.53.6-.92.6Z"/>
      <path class="cls-1" d="m433.75,541.11c-.18,0-.36-.05-.52-.15-.24-.15-24.14-14.86-39.24-19.91-.52-.17-.81-.74-.63-1.27.18-.52.75-.81,1.27-.63,15.32,5.13,39.42,19.96,39.66,20.11.47.29.62.91.33,1.38-.19.31-.52.47-.85.47Z"/>
      <path class="cls-1" d="m449.32,541.11c-.22,0-.44-.07-.63-.22-.16-.13-16.27-13.16-37.16-24.01-.49-.25-.68-.86-.43-1.35.25-.49.86-.68,1.35-.43,21.08,10.95,37.33,24.1,37.5,24.24.43.35.49.98.14,1.41-.2.24-.49.37-.78.37Z"/>
      <path class="cls-1" d="m461.57,540.73c-.33,0-.66-.17-.85-.47-.09-.14-9.16-14.42-17.25-17.58-.51-.2-.77-.78-.57-1.3s.78-.77,1.3-.57c8.7,3.4,17.82,17.77,18.21,18.38.29.47.15,1.08-.31,1.38-.17.1-.35.15-.53.15Z"/>
      <path class="cls-1" d="m468.61,530.34c-.33,0-.66-.17-.85-.47-.02-.02-2.23-3.32-11.69-8.91-.48-.28-.63-.89-.35-1.37s.9-.63,1.37-.35c10,5.92,12.28,9.43,12.37,9.57.29.47.15,1.08-.32,1.38-.17.1-.35.15-.53.15Z"/>
      <path class="cls-1" d="m280.83,284.47c-.98,0-1.87-.19-2.62-.49-1.41-.57-2.32-1.53-2.38-2.51-.07-1.16.76-1.9,1.65-2.69.89-.79,1.99-1.79,2.61-3.5,1.44-3.97,9.84-9.56,14.14-11.58.5-.24,1.1-.02,1.33.48.23.5.02,1.1-.48,1.33-4.52,2.12-12.02,7.44-13.11,10.45-.79,2.19-2.16,3.41-3.16,4.31-.42.38-1,.89-.98,1.09.05.12.56.67,1.69.96.94.25,3.39.55,6.01-1.86,2.81-2.58,5.15-2.37,7.02-2.19,1.4.13,2.41.22,3.56-.69.43-.34,1.06-.27,1.41.16.34.43.27,1.06-.16,1.41-1.77,1.41-3.48,1.25-4.99,1.11-1.72-.16-3.33-.31-5.48,1.67-2.03,1.87-4.2,2.55-6.06,2.55Z"/>
      <path class="cls-1" d="m273.28,298.17c-1.69,0-4.77-.37-5.76-1.45-1.54-1.69.22-10.49.94-12.63.7-2.07,4.16-4.7,8.97-8.19,1.99-1.45,3.88-2.82,4.76-3.7.39-.39,1.02-.39,1.41,0s.39,1.02,0,1.41c-1,1-2.85,2.34-5,3.9-3.25,2.36-7.7,5.59-8.25,7.22-1.08,3.2-1.78,9.76-1.31,10.71.42.38,2.95.75,4.21.75-.03-.91-.13-2.56-.24-4-.04-.55.37-1.03.92-1.08.55-.04,1.03.37,1.08.92.37,4.71.24,5.11.17,5.3-.09.28-.33.64-.95.77-.19.04-.53.06-.95.06Z"/>
      <path class="cls-1" d="m277.69,298.5c-1.61,0-3.95-5.35-4.65-7.03-1.1-2.64,1.06-4.58,3.98-6.83.44-.34,1.07-.26,1.4.18.34.44.26,1.06-.18,1.4-3.36,2.59-3.76,3.51-3.36,4.49.67,1.6,2.3,4.72,3.02,5.71.59-.15,1.48-.43,2.01-.67-.04-.62-.45-2.08-.96-3.41-.13-.34-.07-.72.16-1l3.01-3.63c.35-.42.98-.49,1.41-.13.42.35.48.98.13,1.41l-2.64,3.18c1.56,4.29.67,4.85.23,5.12-.89.56-2.95,1.11-3.45,1.2-.04,0-.08.01-.12.01Zm.43-1.83h0,0Zm-.66-.15s0,0,0,0c0,0,0,0,0,0Z"/>
      <path class="cls-1" d="m286.55,296.5c-1.96,0-4.65-.82-4.68-.83-.21-.07-.72-.24-2.02-2.18-.31-.46-.18-1.08.27-1.39.46-.31,1.08-.19,1.39.27.4.6.89,1.23,1.1,1.43,1.05.32,3.89.89,4.5.65.53-.3,1.11-2.22.83-2.77-.3-.35-2.55-.74-4.72.65-.47.3-1.08.16-1.38-.3-.3-.47-.16-1.08.3-1.38,2.17-1.38,4.49-1.46,5.82-1.1.85.23,1.46.65,1.75,1.22.78,1.5-.15,4.61-1.63,5.45-.37.21-.91.29-1.52.29Zm-3.89-2.65h0Z"/>
      <path class="cls-1" d="m289.88,296.59c-.47,0-1.04-.14-1.71-.41-.51-.21-.75-.79-.54-1.3.21-.51.8-.75,1.3-.54.3.12.7.24.9.26.12-.07.3-.17.51-.28,2.46-1.31,3.13-1.9,3.26-2.17.04-.28.16-1.22.07-2.08-.07-.65-.24-.98-.36-1.08-.38-.28-1.72.95-3.02,2.13-.41.37-1.04.34-1.41-.07s-.34-1.04.07-1.41c2.25-2.03,3.87-3.5,5.56-2.25.65.48,1.04,1.31,1.16,2.47.12,1.1-.03,2.25-.11,2.69-.18,1.15-1.71,2.17-4.28,3.54-.23.12-.41.21-.49.27-.24.17-.55.25-.91.25Zm.03-2h0Z"/>
      <path class="cls-1" d="m294.71,291.37c-.55,0-1-.45-1-1s.45-1,1-1c2.77,0,7.16-4.95,9.28-8.08.31-.46.93-.58,1.39-.27.46.31.58.93.27,1.39-.62.92-6.21,8.95-10.94,8.95Z"/>
      <path class="cls-1" d="m448.26,322.86s-.03,0-.04,0c-.95-.03-1.69-.34-2.2-.9-.86-.95-.76-2.32-.7-3.32.02-.27.04-.67.03-.86-.88-.92-1.52-3.46-2.45-9.69-.84-5.61,1.73-12.04,2.25-13.28.9-2.11,3-7.05,1.67-11.41-.16-.53.14-1.09.67-1.25.54-.16,1.09.14,1.25.67,1.54,5.05-.76,10.46-1.75,12.77-.3.7-2.89,7.01-2.11,12.2.78,5.18,1.42,8.08,1.91,8.6.65.56.59,1.48.53,2.38-.04.65-.1,1.53.19,1.85.16.18.52.23.78.24.55.02.98.48.96,1.04-.02.54-.46.96-1,.96Zm-2.78-4.96h0,0Z"/>
      <path class="cls-1" d="m454.73,330.53c-.45,0-.9-.07-1.35-.25-2.24-.88-4.91-6.77-5.33-8.61-.19-.84-.49-2.67-.87-4.99-.55-3.41-1.25-7.66-1.84-10.16-.13-.54.2-1.08.74-1.21.54-.12,1.08.2,1.21.74.62,2.57,1.31,6.86,1.87,10.3.36,2.19.66,4.08.84,4.86.48,2.11,3.02,6.77,4.11,7.19.69.27,1.6-.02,2.22-.31l-1.8-10.68c-.09-.54.28-1.06.82-1.15.55-.09,1.06.28,1.15.82l1.92,11.38c.07.39-.1.78-.43,1-.2.13-1.64,1.05-3.26,1.05Z"/>
      <path class="cls-1" d="m453.06,326.89c-.52,0-1.14-.05-1.87-.14-.55-.07-.94-.57-.87-1.12.07-.55.58-.92,1.12-.87,1.57.2,2.14.1,2.24.08.45-.2.98-.04,1.25.38.29.47.15,1.08-.32,1.38-.3.19-.83.28-1.56.28Zm.5-1.98s0,0,0,0t0,0Zm0,0h0s0,0,0,0Zm0,0s0,0,0,0t0,0Zm.14-.07h0Z"/>
      <path class="cls-1" d="m452.7,323.36c-.26,0-1.92-.04-4.08-1-.5-.22-.73-.82-.51-1.32.23-.5.82-.73,1.32-.51,1.86.83,3.26.81,3.26.83h0c.55,0,1,.44,1,.99,0,.55-.43,1-.98,1.01h-.03Z"/>
      <path class="cls-1" d="m459.29,329.29c-.18,0-.53,0-2.29-.87-.5-.24-.7-.84-.46-1.34.25-.49.85-.7,1.34-.46.51.25,1.08.51,1.38.62.57-.27,2.17-1.27,2.1-2.8-.05-1-.21-1.98-.4-3.11-.28-1.65-.59-3.53-.66-6.11-.01-.55.42-1.01.97-1.03h.03c.54,0,.98.43,1,.97.07,2.44.37,4.24.63,5.83.19,1.15.37,2.23.43,3.35.06,1.2-.4,2.35-1.33,3.33-.82.86-2.1,1.61-2.73,1.61Z"/>
      <path class="cls-1" d="m459.35,325.69c-.55,0-1-.45-1-1s.45-1,1-1c1.8,0,2.72-.25,2.73-.25.53-.15,1.08.16,1.23.69.15.53-.15,1.08-.68,1.24-.12.03-1.2.33-3.29.33Z"/>
      <path class="cls-1" d="m459.9,321.57c-.5,0-.93-.37-.99-.88-.06-.55.33-1.04.88-1.11,1.42-.17,2.32-.39,2.33-.39.54-.13,1.08.19,1.21.73.13.54-.19,1.08-.73,1.21-.04,0-1.02.25-2.58.44-.04,0-.08,0-.12,0Z"/>
      <path class="cls-1" d="m459.35,315.37c-.12,0-.24-.02-.35-.06-.74-.28-3.2-1.27-3.92-2.41-.29-.47-.15-1.08.32-1.38.47-.29,1.09-.15,1.38.32.21.34,1.61,1.1,2.92,1.6.52.19.78.77.58,1.29-.15.4-.53.65-.94.65Z"/>
      <path class="cls-1" d="m451.88,316.61c-.34,0-.67-.17-.86-.48-.26-.43-1.57-2.62-1.83-3.46-.16-.53.13-1.09.66-1.25.53-.16,1.09.13,1.25.66.14.45,1.03,2.04,1.63,3.02.29.47.13,1.09-.34,1.37-.16.1-.34.14-.51.14Z"/>
      <path class="cls-1" d="m464.18,325.69c-.33,0-.66-.17-.85-.47-.29-.47-.16-1.08.31-1.38,1.2-.76,3.25-3.02,3.31-3.67-.04-.88-.54-3.65-1.8-8.75-.13-.54.2-1.08.73-1.21.54-.14,1.08.2,1.21.73,1.11,4.51,1.79,7.85,1.86,9.15.1,1.95-3.5,4.97-4.24,5.44-.17.1-.35.15-.53.15Z"/>
      <path class="cls-1" d="m466.42,321.72c-.55,0-1.23-.04-2.04-.17-.55-.08-.92-.59-.84-1.14.08-.54.58-.92,1.14-.84,1.96.3,2.88.04,2.89.04.52-.15,1.08.13,1.25.65s-.11,1.07-.62,1.25c-.09.03-.67.21-1.78.21Z"/>
      <path class="cls-1" d="m468.84,320.03c-.35,0-.68-.18-.87-.5-.27-.48-.11-1.09.37-1.36,0,0,1.16-.68,2.63-2.09.4-.38.38-.62-.12-2.17-.38-1.16-.9-2.75-1.06-5-.31-3.95-1.09-10.75-1.83-12.17-1.21-2.3-1.02-8.21-1-8.87.02-.55.48-1,1.04-.96.55.02.98.49.96,1.04-.09,2.31.04,6.49.77,7.86,1.18,2.25,1.97,11.86,2.06,12.95.15,2.02.6,3.41.97,4.53.49,1.51.96,2.93-.39,4.23-1.66,1.6-2.97,2.36-3.03,2.39-.16.09-.33.13-.5.13Z"/>
    </g>
  </g>
  <g>
    <path class="accent" d="m125.66,419.73H58.72l-18.48,32.09v92.05h18.48l18.48-18.48h29.98l18.48,18.48h18.48v-92.05l-18.48-32.09Zm-60.77,9.79h54.59l6.66,12.52H58.23l6.66-12.52Zm66.8,85.05H52.69v-38.3h79v38.3Z"/>
    <path class="cls-1" d="m62.42,541.17h-18.48c-.55,0-1-.45-1-1v-78.43c0-.55.45-1,1-1h51.95c.55,0,1,.45,1,1s-.45,1-1,1h-50.95v76.43h17.06l18.18-18.18c.19-.19.44-.29.71-.29h14.99c.55,0,1,.45,1,1s-.45,1-1,1h-14.58l-18.18,18.18c-.19.19-.44.29-.71.29Z"/>
    <path class="cls-1" d="m147.83,541.17h-18.48c-.27,0-.52-.11-.71-.29l-18.18-18.18h-14.58c-.55,0-1-.45-1-1s.45-1,1-1h14.99c.27,0,.52.11.71.29l18.18,18.18h17.06v-76.43h-50.95c-.55,0-1-.45-1-1s.45-1,1-1h51.95c.55,0,1,.45,1,1v78.43c0,.55-.45,1-1,1Z"/>
    <path class="cls-1" d="m147.83,462.74H43.94c-.55,0-1-.45-1-1v-13.62c0-.55.45-1,1-1h103.89c.55,0,1,.45,1,1v13.62c0,.55-.45,1-1,1Zm-102.89-2h101.89v-11.62H44.94v11.62Z"/>
    <path class="cls-1" d="m135.38,511.87H56.39c-.55,0-1-.45-1-1v-38.3c0-.55.45-1,1-1h79c.55,0,1,.45,1,1v38.3c0,.55-.45,1-1,1Zm-78-2h77v-36.3H57.39v36.3Z"/>
    <path class="cls-1" d="m147.83,449.13H43.94c-.36,0-.69-.19-.87-.5-.18-.31-.18-.69,0-1l18.48-32.09c.18-.31.51-.5.87-.5h66.94c.36,0,.69.19.87.5l18.48,32.09c.18.31.18.69,0,1-.18.31-.51.5-.87.5Zm-102.16-2h100.43l-17.33-30.09H62.99l-17.33,30.09Z"/>
    <path class="cls-1" d="m129.84,439.34H61.93c-.35,0-.68-.18-.86-.49s-.19-.67-.03-.98l6.66-12.52c.17-.33.51-.53.88-.53h54.59c.37,0,.71.2.88.53l6.66,12.52c.17.31.16.68-.03.98s-.51.49-.86.49Zm-66.25-2h64.58l-5.59-10.52h-53.39l-5.59,10.52Z"/>
    <path class="cls-1" d="m156.17,483.03h-8.34c-.55,0-1-.45-1-1v-24.33c0-.55.45-1,1-1h8.34c.55,0,1,.45,1,1v24.33c0,.55-.45,1-1,1Zm-7.34-2h6.34v-22.33h-6.34v22.33Z"/>
  </g>
  <path class="cls-1" d="m492.23,553.12c-.34,0-.68-.18-.86-.49-4.46-7.56-12.67-12.26-21.42-12.26-.18,0-.36-.05-.51-.14l-15.1-9.07-21.82,9.13c-.34.14-.73.09-1.02-.15l-9.57-7.81-18.58,1.24-19.1,6.74c-.21.07-.44.07-.65,0l-16.2-5.43c-10.08,1.77-29.02,5.13-30.24,5.45-1.65.43-17.62-.88-19.66-2.51-1.23-.76-13.94-3.06-25.36-4.84l-21.08,8.81c-.17.07-.36.1-.55.06l-23.25-3.82c-.24-.04-.46-.17-.61-.35l-5.24-6.4-12.99,6.04c-.16.08-.33.11-.51.09l-17.83-1.59c-.09,0-.17-.03-.26-.06l-8.81-3.26c-7.13,3.81-14.78,8.26-15.5,9.27-1.12,1.6-7.45.58-18.81-3.04h-11.49l-23.12,6.29c-.24.06-.48.04-.7-.07l-20.7-10.03-22.58,5.42c-.08.02-.15.03-.23.03-.24,0-5.86-.06-11.5-5.13-1.1-.99-1.86-1.67-2.37-2.13l-16.63,7.17c-.22.09-.46.11-.69.04-3.74-1.16-9.83-2.87-11.42-2.87-.01,0-.03,0-.04,0-1.95.04-5.39,0-6.22,0l-7.79,2.85c-.22.08-.46.08-.68,0l-16.56-5.83c-.52-.18-.79-.75-.61-1.28s.75-.8,1.28-.61l16.22,5.71,7.62-2.79c.11-.04.25-.06.36-.06.04,0,4.15.05,6.34,0h.07c2.23,0,9.77,2.26,11.68,2.85l15.66-6.75c-.07-.26-.01-.53.26-.83.39-.43.56-.61,1.41.02l.05-.05c.08.08.56.52.56.52.02.02.04.04.07.07.64.54,1.52,1.33,2.8,2.48,4.63,4.17,9.3,4.57,10.06,4.61l22.8-5.48c.22-.05.46-.03.67.07l20.68,10.03,22.88-6.23c.09-.02.17-.04.26-.04h11.78c.1,0,.21.02.3.05,7.01,2.24,15.36,4.27,16.79,3.73,1.71-2.05,14.02-8.66,16.51-9.99.25-.13.55-.16.82-.05l9.11,3.37,17.43,1.56,13.45-6.26c.41-.19.91-.08,1.2.27l5.49,6.71,22.59,3.71,21.07-8.81c.17-.07.36-.09.54-.07,7.45,1.16,24.96,4,26.58,5.3,1.42.97,16.12,2.53,17.92,2.14,1.61-.42,29.46-5.32,30.64-5.52.16-.03.33-.02.49.04l16.11,5.4,18.9-6.67c.09-.03.18-.05.27-.05l19.11-1.27c.25-.01.5.06.7.22l9.41,7.68,21.74-9.1c.29-.12.63-.1.9.07l15.3,9.19c9.35.1,18.09,5.15,22.87,13.24.28.48.12,1.09-.35,1.37-.16.09-.33.14-.51.14Z"/>
</svg>
