<?xml version="1.0" encoding="UTF-8"?>
<svg id="Layer_1" data-name="Layer 1" xmlns="http://www.w3.org/2000/svg" viewBox="0 0 256 200">
  <defs>
    <style>
      .cls-1, .cls-2 {
        stroke-width: 0px;
      }

        :root { fill:#222 }
        .accent { fill: #f9322c; }

        @media (prefers-color-scheme: dark) {
        :root {  fill: #9F9D9D; }
        .accent { fill:#f9322c; }
        }
    </style>
  </defs>
  <path class="accent" d="m127,104.64c14.55,0,21.5-3.32,21.5-3.32v-7.2s-11.16,2.77-21.5,2.77-21.5-2.77-21.5-2.77v7.2s6.94,3.32,21.5,3.32Z"/>
  <path class="accent" d="m88.03,122.87c2.86-5.41,8.13-10.06,14.96-13.38l-1.62-4.14c-9.64,5.07-17.1,12.84-20.93,22.08l7.58-4.56Z"/>
  <path class="cls-1" d="m128,134.38c-.17,0-.35-.03-.52-.09-4.31-1.61-7.24-4.22-8.89-6.05l-.44.97c-.19.41-.54.71-.98.82-.44.12-.89.03-1.26-.23-.34-.25-8.44-6.12-9.11-15.82-.29-4.09.48-13.01.51-13.39.07-.83.79-1.43,1.62-1.37.83.07,1.44.8,1.36,1.62,0,.09-.78,9.07-.51,12.92.42,5.97,4.3,10.38,6.45,12.39l.64-1.4c.23-.5.72-.84,1.27-.87.56-.03,1.08.24,1.37.7.03.04,2.99,4.65,9,6.89.78.29,1.17,1.15.88,1.93-.22.6-.8.98-1.41.98Z"/>
  <path class="cls-1" d="m108.29,93.07c-.83,0-1.5-.67-1.5-1.5,0-8.63,6.53-19.39,20.88-22.6.81-.18,1.61.33,1.79,1.14.18.81-.33,1.61-1.14,1.79-12.74,2.86-18.54,12.2-18.54,19.68,0,.83-.67,1.5-1.5,1.5Z"/>
  <path class="cls-1" d="m117.15,118.36c-.59,0-1.15-.35-1.39-.93-.9-2.17-4.04-8.02-7.79-8.93-.8-.2-1.3-1.01-1.1-1.81.19-.8,1.01-1.3,1.81-1.1,6.01,1.46,9.7,10.33,9.86,10.71.31.77-.05,1.64-.82,1.96-.19.08-.38.11-.57.11Z"/>
  <path class="cls-1" d="m114.99,122.05c-.14,0-.28-.02-.42-.06-.8-.23-1.25-1.06-1.02-1.86.08-.27,2.03-6.73,9.29-7.23.83-.06,1.54.57,1.6,1.39.06.83-.57,1.54-1.39,1.6-5.19.35-6.6,5.02-6.61,5.07-.19.66-.79,1.08-1.44,1.08Z"/>
  <path class="cls-1" d="m120.48,121.74c-.83,0-1.5-.67-1.5-1.5s.67-1.5,1.5-1.5c1.88,0,3.53-1.13,4.66-2.2-2.22-.74-3.81-2.06-3.9-2.14-.63-.53-.71-1.48-.18-2.11.53-.63,1.48-.71,2.11-.18.02.02,2.34,1.92,4.83,1.92.55,0,1.06.3,1.32.79s.23,1.08-.07,1.54c-.15.22-3.62,5.38-8.77,5.38Z"/>
  <path class="cls-1" d="m61.84,184.51c-.81,0-1.48-.65-1.5-1.46,0-.11-.05-2.78.9-11.37.04-.39,4.95-39.4,14.54-45.46,7.95-5.02,21.29-10.55,30.39-12.58.81-.18,1.61.33,1.79,1.14.18.81-.33,1.61-1.14,1.79-8.66,1.94-21.87,7.4-29.44,12.19-6.39,4.04-11.93,32.19-13.16,43.25-.93,8.29-.89,10.94-.88,10.96.02.83-.64,1.51-1.47,1.53h-.03Z"/>
  <path class="cls-1" d="m106.63,165.87c-6.83,0-11.33-2.94-16.09-7.82-.58-.59-.57-1.54.03-2.12.59-.58,1.54-.57,2.12.03,6.9,7.07,12.93,9.42,28.52,3.61.78-.29,1.64.11,1.93.88s-.11,1.64-.88,1.93c-6.45,2.4-11.47,3.49-15.63,3.49Z"/>
  <path class="cls-1" d="m83.6,163.75c-.6,0-1.16-.36-1.4-.95-.3-.77.07-1.64.84-1.95.1-.04,9.86-3.99,12.66-12.31.26-.78,1.12-1.21,1.9-.94.79.26,1.21,1.11.94,1.9-3.25,9.65-13.95,13.96-14.4,14.14-.18.07-.37.1-.55.1Z"/>
  <path class="cls-1" d="m96.72,184.2c-.83,0-1.5-.67-1.5-1.5v-7.14c-.43-1.32-2.34-7.58-2.69-15.79-.04-.83.61-1.53,1.43-1.56.85-.05,1.53.61,1.56,1.43.37,8.6,2.59,15.12,2.61,15.19.05.16.08.32.08.49v7.38c0,.83-.67,1.5-1.5,1.5Z"/>
  <path class="cls-1" d="m88.17,185.03c-.09,0-.18,0-.27-.02-.82-.15-1.36-.93-1.21-1.74l4.52-25.28c.15-.81.93-1.36,1.74-1.21.82.15,1.36.93,1.21,1.74l-4.52,25.28c-.13.73-.76,1.24-1.47,1.24Z"/>
  <path class="cls-1" d="m117.64,108.5c-1.28,0-2.8-.23-4.57-.85-.78-.28-1.19-1.13-.91-1.92.28-.78,1.13-1.19,1.92-.91,4.6,1.63,6.62-.13,6.64-.14.6-.57,1.55-.55,2.12.05.57.6.55,1.55-.05,2.12-.1.09-1.79,1.65-5.14,1.65Z"/>
  <path class="cls-1" d="m107.42,113.1c-.3,0-.59-.09-.86-.27-4.3-3-5.46-8.27-3.8-11.13.95-1.63,3.08-2.85,6.2-1.37.75.36,1.07,1.25.71,2-.35.75-1.25,1.07-2,.71-1.74-.83-2.18-.08-2.32.16-.84,1.46-.11,5.05,2.92,7.16.68.47.85,1.41.38,2.09-.29.42-.76.64-1.23.64Z"/>
  <path class="cls-1" d="m101.68,117.9c-.82,0-1.49-.66-1.5-1.48-.04-2.96.16-7.34,1.38-11.34.24-.79,1.09-1.24,1.87-1,.79.24,1.24,1.08,1,1.87-1.1,3.63-1.29,7.67-1.25,10.43.01.83-.65,1.51-1.48,1.52h-.02Z"/>
  <path class="cls-1" d="m104.48,103.4c-.42,0-.84-.18-1.14-.52-.54-.63-.47-1.58.16-2.12l2.74-2.35c.63-.54,1.58-.47,2.12.16.54.63.47,1.58-.16,2.12l-2.74,2.35c-.28.24-.63.36-.98.36Z"/>
  <path class="cls-1" d="m127.69,122.31c-.89,0-2.74-.23-4.74-1.82-.65-.52-.75-1.46-.24-2.11.52-.65,1.46-.75,2.11-.24,1.62,1.29,2.94,1.17,3,1.16.8-.08,1.56.5,1.66,1.31.1.81-.45,1.55-1.26,1.67-.06,0-.25.03-.53.03Z"/>
  <path class="cls-1" d="m88.34,122.02c-.24,0-.48-.06-.7-.17-.73-.39-1.01-1.29-.63-2.03,2.99-5.67,8.39-10.52,15.63-14.03.75-.36,1.64-.05,2,.69s.05,1.64-.69,2c-6.66,3.23-11.6,7.63-14.29,12.73-.27.51-.79.8-1.33.8Z"/>
  <path class="cls-1" d="m128,71.7c-.83,0-1.5-.67-1.5-1.5v-7.93c0-.83.67-1.5,1.5-1.5s1.5.67,1.5,1.5v7.93c0,.83-.67,1.5-1.5,1.5Z"/>
  <path class="cls-1" d="m128,135.21c-17.13,0-28.32-16.34-28.79-17.04-.46-.69-.28-1.62.41-2.08.69-.46,1.62-.28,2.08.41.11.16,10.78,15.71,26.3,15.71.83,0,1.5.67,1.5,1.5s-.67,1.5-1.5,1.5Z"/>
  <path class="cls-1" d="m90.88,149.99c-.46,0-.9-.21-1.2-.59l-6.06-7.98c-.16-.21-.26-.46-.29-.72l-.48-3.79h-5.25c-.68,0-1.28-.46-1.45-1.12l-1.89-7.24c-.21-.8.27-1.62,1.07-1.83.8-.21,1.62.27,1.83,1.07l1.6,6.11h5.41c.76,0,1.39.56,1.49,1.31l.59,4.71,1.51,1.99-.45-1.88c-.03-.13-.04-.26-.04-.4l.21-6.56-3.66-.87c-.51-.12-.92-.5-1.08-.99l-1.85-5.66c-.26-.79.17-1.63.96-1.89.79-.26,1.63.17,1.89.96l1.59,4.86,4.04.96c.69.16,1.18.8,1.15,1.51l-.25,7.58,2.06,8.61c.17.69-.18,1.4-.82,1.7-.21.1-.42.14-.64.14Z"/>
  <path class="cls-1" d="m80.75,126.58c-.19,0-.38-.04-.57-.11-.76-.32-1.13-1.19-.81-1.96,2.09-5.04,4.83-9.45,8.16-13.1.4-.44,1.01-.6,1.57-.42l2.9.94.3-4.33c.03-.43.25-.83.59-1.09,3.25-2.47,6.98-4.49,11.08-6.01.77-.29,1.64.11,1.93.88.29.78-.11,1.64-.88,1.93-3.59,1.33-6.88,3.08-9.77,5.19l-.39,5.56c-.03.46-.27.88-.66,1.14-.38.26-.86.33-1.3.18l-3.79-1.23c-2.81,3.25-5.15,7.12-6.97,11.51-.24.58-.8.93-1.39.93Z"/>
  <path class="accent" d="m167.97,122.87c-2.86-5.41-8.13-10.06-14.96-13.38l1.62-4.14c9.64,5.07,17.1,12.84,20.93,22.08l-7.58-4.56Z"/>
  <path class="cls-1" d="m128,134.38c-.61,0-1.18-.37-1.41-.98-.29-.78.11-1.64.88-1.93,6.01-2.24,8.98-6.85,9-6.9.29-.47.82-.74,1.37-.7.55.04,1.04.37,1.26.87l.65,1.41c2.15-2,6.03-6.41,6.45-12.39.27-3.86-.5-12.83-.51-12.92-.07-.83.54-1.55,1.36-1.62.8-.06,1.55.54,1.62,1.37.03.38.8,9.3.51,13.39-.68,9.7-8.77,15.57-9.11,15.82-.36.26-.82.34-1.26.23-.43-.11-.79-.42-.98-.82l-.44-.97c-1.65,1.83-4.58,4.45-8.89,6.05-.17.06-.35.09-.52.09Z"/>
  <path class="cls-1" d="m147.71,93.07c-.83,0-1.5-.67-1.5-1.5,0-7.47-5.8-16.82-18.54-19.68-.81-.18-1.32-.98-1.14-1.79.18-.81.98-1.32,1.79-1.14,14.35,3.22,20.88,13.97,20.88,22.6,0,.83-.67,1.5-1.5,1.5Z"/>
  <path class="cls-1" d="m138.85,118.36c-.19,0-.38-.04-.57-.11-.77-.31-1.13-1.19-.82-1.96.15-.38,3.85-9.25,9.86-10.71.81-.2,1.62.3,1.81,1.1.2.8-.3,1.62-1.1,1.81-3.75.91-6.9,6.76-7.79,8.93-.24.58-.8.93-1.39.93Z"/>
  <path class="cls-1" d="m141.01,122.05c-.65,0-1.25-.43-1.44-1.08-.06-.19-1.49-4.72-6.61-5.07-.83-.06-1.45-.77-1.39-1.6.06-.83.79-1.45,1.6-1.39,7.25.5,9.21,6.95,9.29,7.23.23.8-.23,1.63-1.02,1.86-.14.04-.28.06-.42.06Z"/>
  <path class="cls-1" d="m135.52,121.74c-5.15,0-8.62-5.16-8.77-5.38-.3-.46-.33-1.05-.07-1.54s.77-.79,1.32-.79c2.48,0,4.81-1.9,4.83-1.92.63-.53,1.58-.45,2.11.18.53.63.45,1.58-.18,2.11-.09.08-1.68,1.4-3.9,2.14,1.13,1.06,2.78,2.2,4.66,2.2.83,0,1.5.67,1.5,1.5s-.67,1.5-1.5,1.5Z"/>
  <path class="cls-1" d="m194.16,184.51s-.03,0-.04,0c-.83-.02-1.48-.71-1.46-1.54,0-.08.03-2.75-.88-10.96-1.23-11.06-6.77-39.22-13.16-43.25-7.57-4.78-20.78-10.25-29.44-12.19-.81-.18-1.32-.98-1.14-1.79s.98-1.31,1.79-1.14c9.09,2.03,22.44,7.56,30.39,12.58,9.59,6.06,14.5,45.07,14.54,45.46.96,8.58.9,11.26.9,11.37-.02.82-.69,1.46-1.5,1.46Z"/>
  <path class="cls-1" d="m149.37,165.87c-4.16,0-9.17-1.09-15.63-3.49-.78-.29-1.17-1.15-.88-1.93.29-.78,1.15-1.17,1.93-.88,15.6,5.81,21.63,3.47,28.52-3.61.58-.59,1.53-.61,2.12-.03.59.58.61,1.53.03,2.12-4.76,4.88-9.26,7.82-16.09,7.82Z"/>
  <path class="cls-1" d="m172.4,163.75c-.18,0-.37-.03-.55-.1-.45-.18-11.15-4.49-14.4-14.14-.26-.79.16-1.64.94-1.9.79-.26,1.64.16,1.9.94,2.81,8.35,12.55,12.27,12.65,12.31.77.3,1.15,1.17.85,1.95-.23.59-.8.95-1.4.95Z"/>
  <path class="cls-1" d="m159.28,184.2c-.83,0-1.5-.67-1.5-1.5v-7.38c0-.17.03-.33.08-.49.02-.06,2.25-6.58,2.61-15.19.04-.83.72-1.48,1.56-1.43.83.04,1.47.73,1.43,1.56-.35,8.21-2.26,14.47-2.69,15.79v7.14c0,.83-.67,1.5-1.5,1.5Z"/>
  <path class="cls-1" d="m167.83,185.03c-.71,0-1.34-.51-1.47-1.24l-4.52-25.28c-.15-.82.4-1.59,1.21-1.74.82-.15,1.6.4,1.74,1.21l4.52,25.28c.15.82-.4,1.59-1.21,1.74-.09.02-.18.02-.27.02Z"/>
  <path class="cls-1" d="m138.36,108.5c-3.35,0-5.04-1.56-5.14-1.65-.6-.57-.62-1.52-.05-2.12.57-.6,1.52-.62,2.12-.05.06.05,2.1,1.75,6.64.14.79-.28,1.64.13,1.92.91.28.78-.13,1.64-.91,1.92-1.77.63-3.29.85-4.57.85Z"/>
  <path class="cls-1" d="m148.58,113.1c-.47,0-.94-.22-1.23-.64-.47-.68-.31-1.61.38-2.09,3.03-2.11,3.76-5.71,2.92-7.16-.14-.25-.58-.99-2.32-.16-.75.36-1.64.04-2-.71-.36-.75-.04-1.64.71-2,3.13-1.49,5.25-.27,6.2,1.37,1.66,2.86.51,8.13-3.8,11.13-.26.18-.56.27-.86.27Z"/>
  <path class="cls-1" d="m154.32,117.9h-.02c-.83-.01-1.49-.69-1.48-1.52.04-2.75-.15-6.8-1.25-10.43-.24-.79.21-1.63,1-1.87.79-.24,1.63.21,1.87,1,1.21,4,1.42,8.37,1.38,11.34-.01.82-.68,1.48-1.5,1.48Z"/>
  <path class="cls-1" d="m151.51,103.4c-.35,0-.69-.12-.98-.36l-2.74-2.35c-.63-.54-.7-1.49-.16-2.12.54-.63,1.49-.7,2.12-.16l2.74,2.35c.63.54.7,1.49.16,2.12-.3.35-.72.52-1.14.52Z"/>
  <path class="cls-1" d="m128.31,122.31c-.28,0-.46-.02-.53-.03-.82-.12-1.39-.88-1.27-1.7s.87-1.39,1.7-1.27c.03,0,1.35.12,2.97-1.17.65-.51,1.59-.41,2.11.24.52.65.41,1.59-.24,2.11-2,1.6-3.85,1.82-4.74,1.82Z"/>
  <path class="cls-1" d="m128,103.14c-14.72,0-21.85-3.33-22.15-3.47-.52-.25-.85-.78-.85-1.35v-7.2c0-.46.21-.9.58-1.18s.84-.38,1.29-.27c.11.03,11.11,2.72,21.14,2.72s21.03-2.7,21.14-2.72c.45-.11.92,0,1.29.27.36.28.58.72.58,1.18v7.2c0,.58-.33,1.1-.85,1.35-.3.14-7.42,3.47-22.14,3.47Zm-20-5.83c2.23.82,8.83,2.83,20,2.83s17.77-2.01,20-2.83v-4.3c-3.64.79-11.99,2.39-20,2.39s-16.36-1.6-20-2.39v4.3Z"/>
  <path class="cls-1" d="m167.66,122.02c-.54,0-1.06-.29-1.33-.8-2.69-5.1-7.63-9.5-14.29-12.73-.75-.36-1.06-1.26-.69-2,.36-.75,1.26-1.06,2-.69,7.24,3.51,12.64,8.36,15.63,14.03.39.73.11,1.64-.63,2.03-.22.12-.46.17-.7.17Z"/>
  <path class="cls-1" d="m128,71.7c-.83,0-1.5-.67-1.5-1.5v-7.93c0-.83.67-1.5,1.5-1.5s1.5.67,1.5,1.5v7.93c0,.83-.67,1.5-1.5,1.5Z"/>
  <path class="cls-1" d="m128,135.21c-.83,0-1.5-.67-1.5-1.5s.67-1.5,1.5-1.5c15.52,0,26.19-15.55,26.29-15.71.46-.69,1.4-.87,2.08-.41.69.46.87,1.39.41,2.08-.47.7-11.65,17.04-28.78,17.04Z"/>
  <path class="cls-1" d="m175.25,126.58c-.59,0-1.15-.35-1.39-.93-1.82-4.39-4.16-8.26-6.97-11.51l-3.79,1.23c-.44.14-.92.07-1.3-.18s-.62-.68-.66-1.14l-.39-5.56c-2.89-2.11-6.17-3.85-9.77-5.19-.78-.29-1.17-1.15-.88-1.93.29-.78,1.15-1.17,1.93-.88,4.1,1.52,7.82,3.54,11.08,6.01.34.26.56.66.59,1.09l.3,4.33,2.9-.94c.55-.18,1.17-.02,1.57.42,3.33,3.65,6.07,8.06,8.16,13.1.32.77-.05,1.64-.81,1.96-.19.08-.38.11-.57.11Z"/>
  <path class="cls-1" d="m139.45,175.71c-.19,0-.39-.04-.58-.12l-11.45-4.79c-.42-.17-.73-.52-.86-.96l-2.13-7.17-11.22-4.7c-.62-.26-.99-.9-.91-1.57l.33-2.57-5.98-4.39c-.44-.32-.67-.85-.6-1.39l1.4-11.45c.08-.68.62-1.22,1.3-1.31.67-.09,1.33.3,1.58.94l3.08,7.82,2.67,1.78c.17.11.31.26.43.43l4.41,6.8,9.14.12c.72,0,1.34.53,1.46,1.25l1.98,11.66,7,7.07c.5.51.58,1.3.18,1.89-.29.42-.76.66-1.25.66Zm-10.22-7.4l3.86,1.61-2.05-2.07c-.22-.22-.36-.5-.41-.8l-1.85-10.89-8.7-.11c-.5,0-.97-.26-1.24-.68l-4.68-7.21-2.81-1.87c-.25-.17-.45-.41-.56-.7l-1.09-2.76-.58,4.72,5.98,4.4c.44.32.67.86.6,1.4l-.29,2.32,10.82,4.54c.42.17.73.52.86.96l2.13,7.17Z"/>
  <path class="cls-1" d="m180.24,145.9c-.42,0-.84-.18-1.13-.51l-4.47-5.11-10.46-4.65c-.22-.1-.41-.24-.56-.43l-7.4-9.17c-.36-.45-.44-1.07-.19-1.59.25-.52.78-.85,1.35-.85h3.85l3.71-1.9c.18-.09.38-.15.59-.16l2.33-.15c.08,0,.15,0,.23,0l4.43.4c.83.07,1.43.8,1.36,1.63-.08.83-.82,1.44-1.63,1.36l-4.32-.39-1.91.12-3.76,1.92c-.21.11-.44.16-.68.16h-1.07l5.21,6.45,10.43,4.64c.2.09.38.22.52.38l3.88,4.44c1.07-.61,2.09-1.22,2.45-1.47.27-.31.91-.78,2.82-1.87.72-.41,1.63-.16,2.05.56.41.72.16,1.64-.56,2.05-.77.44-1.71,1.01-2.04,1.25-.3.36-1.11.9-4.32,2.7-.23.13-.48.19-.73.19Z"/>
  <path class="cls-1" d="m134.54,89.8c-.27,0-.54-.07-.79-.22-.71-.43-.93-1.36-.49-2.06l3.67-5.96,1.05-5.41c.16-.81.95-1.34,1.76-1.19.81.16,1.34.95,1.19,1.76l-1.11,5.68c-.04.18-.1.35-.2.5l-3.81,6.19c-.28.46-.78.71-1.28.71Z"/>
  <path class="cls-1" d="m113.57,98.29c-.12,0-.24-.01-.36-.04-.8-.2-1.29-1.01-1.09-1.82l.66-2.67c.2-.8,1.01-1.29,1.82-1.09.8.2,1.29,1.01,1.09,1.82l-.66,2.67c-.17.68-.78,1.14-1.46,1.14Z"/>
  <path class="cls-1" d="m120.04,94.93c-.26,0-.53-.07-.77-.21-.71-.43-.94-1.35-.51-2.06l2.9-4.82c.43-.71,1.35-.94,2.06-.51.71.43.94,1.35.51,2.06l-2.9,4.82c-.28.47-.78.73-1.29.73Z"/>
</svg>
