<?xml version="1.0" encoding="UTF-8"?>
<svg id="Layer_1" data-name="Layer 1" xmlns="http://www.w3.org/2000/svg" viewBox="0 0 256 200">
  <defs>
    <style>
      .cls-1, .cls-2 {
        stroke-width: 0px;
      }

        :root { fill:#222 }
        .accent { fill: #f9322c; }

        @media (prefers-color-scheme: dark) {
        :root {  fill: #9F9D9D; }
        .accent { fill:#f9322c; }
        }
    </style>
  </defs>
  <g>
    <path class="accent" d="m87.34,122.52c2.86-5.41,8.13-10.06,14.96-13.38l-1.62-4.14c-9.64,5.07-17.1,12.84-20.93,22.08l7.58-4.56Z"/>
    <path class="accent" d="m162.21,110.97c-2.68-2.26-5.66-4.26-8.89-5.96l-1.62,4.14c2.24,1.09,4.29,2.33,6.16,3.68,1.32-.57,3.08-1.32,4.35-1.86Z"/>
  </g>
  <path class="accent" d="m127,88.96c14.55,0,21.5-3.32,21.5-3.32v-7.2s-11.16,2.77-21.5,2.77-21.5-2.77-21.5-2.77v7.2s6.94,3.32,21.5,3.32Z"/>
  <path class="cls-1" d="m128,122.21c-.17,0-.35-.03-.52-.09-4.31-1.61-7.24-4.22-8.89-6.05l-.44.97c-.19.41-.54.71-.98.82-.44.12-.89.03-1.26-.23-.34-.25-8.43-6.12-9.11-15.82-.29-4.07.48-16.35.51-16.87.05-.83.75-1.45,1.59-1.4.83.05,1.46.76,1.4,1.59,0,.13-.78,12.59-.51,16.47.42,5.97,4.3,10.38,6.45,12.39l.64-1.4c.23-.5.72-.84,1.27-.87.56-.04,1.08.24,1.37.7.03.04,2.99,4.65,9,6.89.78.29,1.17,1.15.88,1.93-.22.6-.8.98-1.41.98Z"/>
  <path class="cls-1" d="m108.29,77.39c-.83,0-1.5-.67-1.5-1.5,0-8.6,6.64-22.83,20.88-26.02.8-.18,1.61.33,1.79,1.14.18.81-.33,1.61-1.14,1.79-12.1,2.71-18.54,15.16-18.54,23.1,0,.83-.67,1.5-1.5,1.5Z"/>
  <path class="cls-1" d="m117.15,102.59c-.47,0-.93-.22-1.22-.63-.03-.04-3.25-4.49-7.96-5.63-.8-.2-1.3-1.01-1.1-1.81.2-.81,1.01-1.3,1.81-1.1,5.81,1.41,9.54,6.59,9.69,6.81.48.68.32,1.61-.36,2.09-.26.19-.57.28-.87.28Z"/>
  <path class="cls-1" d="m114.99,106.28c-.14,0-.28-.02-.42-.06-.8-.23-1.25-1.06-1.02-1.86.08-.27,2.03-6.73,9.29-7.23.82-.06,1.54.57,1.6,1.39.06.83-.57,1.54-1.39,1.6-5.19.35-6.6,5.02-6.61,5.07-.19.66-.79,1.08-1.44,1.08Z"/>
  <path class="cls-1" d="m120.48,105.97c-.83,0-1.5-.67-1.5-1.5s.67-1.5,1.5-1.5c1.88,0,3.53-1.13,4.66-2.2-2.22-.74-3.81-2.06-3.9-2.14-.63-.53-.71-1.48-.18-2.11.53-.63,1.48-.71,2.11-.18.02.02,2.34,1.92,4.83,1.92.55,0,1.06.3,1.32.79s.23,1.08-.07,1.54c-.15.22-3.62,5.38-8.77,5.38Z"/>
  <path class="cls-1" d="m61.84,184.51c-.81,0-1.48-.65-1.5-1.46,0-.11-.05-2.78.9-11.37.04-.39,4.95-39.4,14.54-45.46,7.69-4.86,20.42-10.18,29.48-12.37l2.2-8.96c.2-.8,1.01-1.3,1.82-1.1.8.2,1.3,1.01,1.1,1.81l-2.42,9.85c-.14.55-.57.98-1.13,1.11-8.66,1.94-21.87,7.4-29.44,12.19-6.39,4.04-11.93,32.19-13.16,43.25-.93,8.29-.89,10.94-.88,10.96.02.83-.64,1.51-1.47,1.53h-.03Z"/>
  <path class="cls-1" d="m106.63,165.87c-6.83,0-11.33-2.94-16.09-7.82-.58-.59-.57-1.54.03-2.12.59-.58,1.54-.57,2.12.03,6.89,7.07,12.92,9.42,28.52,3.61.78-.29,1.64.11,1.93.88s-.11,1.64-.88,1.93c-6.45,2.4-11.47,3.49-15.63,3.49Z"/>
  <path class="cls-1" d="m83.6,163.75c-.6,0-1.16-.36-1.4-.95-.3-.77.07-1.64.84-1.95.1-.04,9.86-3.99,12.66-12.31.26-.78,1.11-1.21,1.9-.94.79.26,1.21,1.12.94,1.9-3.25,9.65-13.94,13.96-14.4,14.14-.18.07-.37.1-.55.1Z"/>
  <path class="cls-1" d="m96.72,184.2c-.83,0-1.5-.67-1.5-1.5v-7.14c-.43-1.32-2.34-7.58-2.69-15.79-.04-.83.61-1.53,1.43-1.56.86-.05,1.53.61,1.56,1.43.37,8.6,2.59,15.12,2.61,15.19.05.16.08.32.08.49v7.38c0,.83-.67,1.5-1.5,1.5Z"/>
  <path class="cls-1" d="m88.17,185.03c-.09,0-.18,0-.27-.02-.82-.15-1.36-.93-1.21-1.74l4.52-25.28c.15-.81.93-1.36,1.74-1.21.82.15,1.36.93,1.21,1.74l-4.52,25.28c-.13.73-.76,1.24-1.47,1.24Z"/>
  <path class="cls-1" d="m121.74,90.59c-.37,0-.74-.14-1.03-.41-.06-.05-2.09-1.76-6.64-.14-.78.28-1.64-.13-1.92-.91s.13-1.64.91-1.92c6.39-2.26,9.58.67,9.71.8.6.57.62,1.52.05,2.12-.29.31-.69.47-1.09.47Z"/>
  <path class="cls-1" d="m107.42,100.93c-.3,0-.59-.09-.86-.27-4.91-3.42-6.15-8.38-4.51-11.2,1.01-1.74,3.36-2.99,6.92-1.3.75.36,1.07,1.25.71,2s-1.25,1.07-2,.71c-.7-.33-2.4-.99-3.03.09-.79,1.37.04,4.73,3.63,7.23.68.47.85,1.41.38,2.09-.29.42-.76.64-1.23.64Z"/>
  <path class="cls-1" d="m106.87,115.11c-.53,0-1.04-.28-1.31-.77l-2.96-5.36-.06.03c-.44.22-.96.21-1.39-.02-.43-.23-.72-.66-.78-1.15-.04-.33-.87-8.13,1.19-14.93.24-.79,1.08-1.24,1.87-1,.79.24,1.24,1.08,1,1.87-1.29,4.25-1.32,9.07-1.21,11.72.53,0,1.04.28,1.31.77l3.66,6.62c.4.72.14,1.64-.59,2.04-.23.13-.48.19-.72.19Z"/>
  <path class="cls-1" d="m104.16,90.83c-.25,0-.51-.06-.74-.2-.72-.41-.97-1.33-.56-2.05,2.37-4.14,3.03-5.4,3.03-5.41.38-.74,1.29-1.02,2.02-.64.74.38,1.02,1.29.64,2.02-.03.05-.68,1.31-3.09,5.52-.28.48-.78.76-1.3.76Z"/>
  <path class="cls-1" d="m127.69,106.54c-.89,0-2.74-.23-4.74-1.82-.65-.52-.75-1.46-.24-2.11s1.46-.75,2.11-.24c1.62,1.29,2.94,1.17,3,1.16.79-.08,1.56.5,1.66,1.31.1.81-.45,1.55-1.26,1.67-.06,0-.25.03-.53.03Z"/>
  <path class="cls-1" d="m128,122.21c-.61,0-1.18-.37-1.41-.98-.29-.78.11-1.64.88-1.93,6.01-2.24,8.98-6.85,9.01-6.9.29-.47.82-.74,1.37-.7.55.04,1.04.37,1.26.87l.64,1.4c2.15-2,6.03-6.41,6.45-12.39.27-3.88-.5-16.34-.51-16.47-.05-.83.58-1.54,1.4-1.59.85-.04,1.54.58,1.59,1.4.03.52.8,12.79.51,16.87-.68,9.7-8.77,15.57-9.11,15.82-.37.26-.82.34-1.26.23-.43-.12-.79-.42-.98-.82l-.44-.97c-1.65,1.83-4.58,4.45-8.89,6.05-.17.06-.35.09-.52.09Z"/>
  <path class="cls-1" d="m128,87.46c-14.72,0-21.85-3.33-22.14-3.47-.52-.25-.85-.78-.85-1.35v-7.2c0-.46.21-.9.58-1.18.36-.29.84-.38,1.29-.27.11.03,11.11,2.72,21.14,2.72s21.03-2.7,21.14-2.72c.45-.11.92,0,1.29.27.36.28.58.72.58,1.18v7.2c0,.58-.33,1.1-.85,1.35-.3.14-7.42,3.47-22.14,3.47Zm-20-5.83c2.23.82,8.83,2.83,20,2.83s17.78-2.01,20-2.83v-4.31c-3.64.79-11.99,2.39-20,2.39s-16.36-1.6-20-2.39v4.3Z"/>
  <path class="cls-1" d="m138.85,102.59c-.3,0-.6-.09-.87-.28-.68-.48-.83-1.42-.36-2.09.16-.22,3.88-5.4,9.69-6.81.8-.2,1.62.3,1.81,1.1.2.8-.3,1.62-1.1,1.81-4.73,1.15-7.92,5.59-7.96,5.63-.29.41-.75.63-1.22.63Z"/>
  <path class="cls-1" d="m141.01,106.28c-.65,0-1.25-.43-1.44-1.08-.06-.19-1.48-4.72-6.61-5.07-.83-.06-1.45-.77-1.39-1.6.06-.83.78-1.45,1.6-1.39,7.25.5,9.21,6.95,9.29,7.23.23.8-.23,1.63-1.02,1.86-.14.04-.28.06-.42.06Z"/>
  <path class="cls-1" d="m135.52,105.97c-5.15,0-8.62-5.16-8.77-5.38-.3-.46-.33-1.05-.07-1.54s.77-.79,1.32-.79c2.48,0,4.81-1.9,4.83-1.92.63-.53,1.58-.45,2.11.18.53.63.45,1.58-.18,2.11-.09.08-1.68,1.4-3.9,2.14,1.13,1.06,2.78,2.2,4.66,2.2.83,0,1.5.67,1.5,1.5s-.67,1.5-1.5,1.5Z"/>
  <path class="cls-1" d="m128,129.52c-15.15,0-22.51-13.14-22.81-13.7-.4-.73-.13-1.64.6-2.04.73-.4,1.64-.13,2.04.6.07.12,6.84,12.14,20.18,12.14s20.12-12.02,20.18-12.14c.4-.72,1.3-.99,2.04-.59.72.4.99,1.31.59,2.03-.31.56-7.67,13.7-22.81,13.7Z"/>
  <path class="cls-1" d="m149.5,116.61c-.15,0-.3-.02-.45-.07-.5-.16-.88-.56-1-1.07l-2.42-9.85c-.2-.8.29-1.62,1.1-1.81.8-.2,1.62.29,1.82,1.1l1.85,7.54c8.93-6.93,17.24-7.59,20.28-7.56,1.35-3.33,6.28-13.07,18.61-15.79,1.19-10.47,3.68-16.86,3.79-17.13.3-.77,1.17-1.15,1.95-.84.77.3,1.15,1.18.84,1.95-.03.07-2.62,6.76-3.71,17.44-.07.67-.57,1.21-1.23,1.32-13.74,2.47-17.75,14.93-17.79,15.05-.21.69-.89,1.13-1.59,1.05-.09,0-10.41-.94-21.05,8.32-.28.24-.63.37-.98.37Z"/>
  <path class="cls-1" d="m144.69,156.99c-1.33,0-2.73-.04-4.21-.11-.83-.04-1.46-.75-1.42-1.57.04-.83.71-1.48,1.58-1.42,16.62.85,21.67-3.19,26.12-12.01.04-.07.08-.14.13-.21,1.87-2.56,3.25-6.21,4.08-10.84,1.39-7.73.76-15.51.76-15.59-.07-.83.54-1.55,1.37-1.62.84-.07,1.55.54,1.62,1.37.03.33.67,8.24-.79,16.37-.91,5.02-2.43,9.05-4.54,11.98-4.52,8.92-9.83,13.66-24.68,13.66Z"/>
  <path class="cls-1" d="m159.28,184.2c-.83,0-1.5-.67-1.5-1.5v-7.38c0-.17.03-.33.08-.49.02-.06,2.24-6.58,2.61-15.19.01-.32.13-.62.32-.87,3.63-4.59,4.23-13.42,4.24-13.51.05-.83.75-1.46,1.59-1.4.83.05,1.45.76,1.4,1.59-.02.39-.63,9.39-4.58,14.78-.4,7.98-2.25,14.03-2.67,15.32v7.14c0,.83-.67,1.5-1.5,1.5Z"/>
  <path class="cls-1" d="m134.26,90.59c-.4,0-.79-.16-1.09-.47-.57-.6-.55-1.55.05-2.12.13-.13,3.32-3.06,9.71-.8.78.28,1.19,1.13.91,1.92s-1.13,1.19-1.92.91c-4.6-1.63-6.62.13-6.64.14-.29.28-.66.41-1.03.41Z"/>
  <path class="cls-1" d="m148.58,100.93c-.47,0-.94-.22-1.23-.64-.47-.68-.31-1.61.38-2.09,3.59-2.5,4.43-5.86,3.63-7.23-.63-1.09-2.33-.43-3.03-.09-.75.36-1.64.04-2-.71-.35-.75-.04-1.64.71-2,3.56-1.69,5.91-.44,6.92,1.3,1.64,2.82.4,7.78-4.51,11.2-.26.18-.56.27-.86.27Z"/>
  <path class="cls-1" d="m149.13,115.11c-.25,0-.5-.06-.72-.19-.73-.4-.99-1.31-.59-2.04l3.66-6.62c.27-.49.78-.77,1.3-.77.11-2.65.07-7.48-1.21-11.72-.24-.79.21-1.63,1-1.87.79-.24,1.63.21,1.87,1,2.06,6.79,1.22,14.6,1.19,14.93-.05.49-.34.92-.78,1.15-.43.24-.95.24-1.39.02l-.06-.03-2.96,5.36c-.27.5-.79.77-1.31.77Z"/>
  <path class="cls-1" d="m151.84,90.83c-.52,0-1.03-.27-1.3-.76-2.41-4.21-3.06-5.47-3.09-5.52-.38-.74-.1-1.64.64-2.02.73-.38,1.64-.1,2.02.64,0,.01.67,1.28,3.03,5.41.41.72.16,1.64-.56,2.05-.24.13-.49.2-.74.2Z"/>
  <path class="cls-1" d="m128.31,106.54c-.28,0-.46-.02-.53-.03-.82-.12-1.39-.88-1.27-1.7s.87-1.39,1.7-1.27c.03,0,1.35.12,2.97-1.17.65-.51,1.59-.41,2.11.24.52.65.41,1.59-.24,2.11-2,1.6-3.85,1.82-4.74,1.82Z"/>
  <path class="cls-1" d="m80.75,126.58c-.19,0-.39-.04-.57-.11-.77-.32-1.13-1.19-.81-1.96,3.91-9.45,11.59-17.56,21.61-22.83.73-.39,1.64-.1,2.03.63.39.73.1,1.64-.63,2.03-9.41,4.95-16.59,12.52-20.24,21.32-.24.58-.8.93-1.39.93Z"/>
  <path class="cls-1" d="m161.9,109.39c-.32,0-.65-.1-.92-.32-2.26-1.77-4.74-3.37-7.36-4.74-.73-.39-1.01-1.29-.63-2.03.38-.73,1.29-1.02,2.03-.63,2.78,1.46,5.4,3.15,7.81,5.04.65.51.77,1.45.26,2.11-.3.38-.74.58-1.18.58Z"/>
  <path class="cls-1" d="m88.34,122.02c-.24,0-.48-.06-.7-.17-.73-.39-1.01-1.29-.63-2.03,2.99-5.66,8.4-10.52,15.63-14.03.75-.36,1.64-.05,2,.69.36.75.05,1.64-.69,2-6.66,3.23-11.6,7.63-14.29,12.73-.27.51-.79.8-1.33.8Z"/>
  <path class="cls-1" d="m157.37,111.28c-.28,0-.57-.08-.82-.24-1.4-.92-2.92-1.77-4.51-2.54-.75-.36-1.06-1.26-.69-2,.36-.75,1.26-1.06,2-.69,1.7.82,3.33,1.74,4.83,2.72.69.45.89,1.38.44,2.08-.29.44-.77.68-1.26.68Z"/>
  <g>
    <path class="accent" d="m200.75,38.77l-12.08,28.66-4.75,1.93h0c-.75-1.85-1.18-2.9-1.93-4.75l12.08-28.66,4.75-1.93h0c.75,1.85,1.18,2.9,1.93,4.75Z"/>
    <path class="accent" d="m203.67,31.84l-.11.25-4.75,1.93h0c-.75-1.85-1.18-2.9-1.93-4.75l.11-.25c1.85-.75,2.9-1.18,4.75-1.93h0c.75,1.85,1.18,2.9,1.93,4.75Z"/>
    <path class="accent" d="m231.87,68.62l-.11.25-4.75,1.93h0c-.75-1.85-1.18-2.9-1.93-4.75l.11-.25,4.75-1.93h0c.75,1.85,1.18,2.9,1.93,4.75Z"/>
    <path class="accent" d="m185.85,74.11l-.11.25-4.75,1.93h0c-.75-1.85-1.18-2.9-1.93-4.75l.11-.25,4.75-1.93h0c.75,1.85,1.18,2.9,1.93,4.75Z"/>
    <path class="cls-1" d="m182.46,69.17c-.59,0-1.15-.35-1.39-.93l-1.93-4.75c-.15-.37-.15-.78,0-1.15l12.08-28.66c.15-.37.45-.66.82-.81l4.75-1.93c.37-.15.78-.15,1.15,0,.37.15.66.45.81.82l1.93,4.75c.15.37.15.78,0,1.15l-12.08,28.66c-.15.37-.45.66-.82.81l-4.75,1.93c-.19.08-.38.11-.56.11Zm-.31-6.24l1.13,2.78,2.78-1.13,11.6-27.52-1.13-2.78-2.78,1.13-11.6,27.52Z"/>
    <path class="cls-1" d="m197.36,33.83c-.59,0-1.15-.35-1.39-.93l-1.93-4.75c-.15-.37-.15-.78,0-1.15l.11-.25c.15-.37.45-.66.82-.81l4.75-1.93c.77-.32,1.64.06,1.96.82l1.93,4.75c.15.37.15.78,0,1.15l-.11.25c-.15.37-.45.66-.82.81l-4.75,1.93c-.19.08-.38.11-.56.11Zm-.05-5.6l.88,2.15,2.15-.87-.88-2.15-2.15.87Z"/>
    <path class="cls-1" d="m225.56,70.61c-.59,0-1.15-.35-1.39-.93l-1.93-4.75c-.15-.37-.15-.78,0-1.15l.11-.25c.15-.37.45-.66.82-.81l4.75-1.93c.37-.15.78-.15,1.15,0,.37.15.66.45.81.82l1.93,4.75c.15.37.15.78,0,1.15l-.11.25c-.15.37-.45.66-.82.81l-4.75,1.93c-.19.08-.38.11-.56.11Zm-.05-5.6l.88,2.15,2.15-.87-.87-2.15-2.15.87Z"/>
    <path class="cls-1" d="m179.54,76.1c-.2,0-.4-.04-.58-.12-.37-.15-.66-.45-.81-.82l-1.93-4.75c-.15-.37-.15-.79,0-1.15l.11-.25c.15-.36.45-.65.81-.8l4.75-1.93c.37-.15.78-.15,1.15,0,.37.15.66.45.81.82l1.93,4.75c.15.37.15.78,0,1.15l-.11.25c-.15.37-.45.66-.82.81l-4.75,1.93c-.18.07-.37.11-.57.11Zm-.05-5.6l.88,2.15,2.15-.87-.87-2.15-2.15.88Z"/>
    <path class="cls-1" d="m183.4,57.61c-.19,0-.39-.04-.58-.12l-74.24-31.29c-.33-.14-.59-.39-.75-.7l-5.71-11.27c-.2-.39-.22-.85-.04-1.26.17-.41.51-.72.93-.85l12.05-3.78c.34-.11.7-.09,1.03.05l74.24,31.29c.37.15.66.45.81.82.15.37.15.78,0,1.15l-6.34,15.05c-.24.57-.8.92-1.38.92ZM110.25,23.65l72.35,30.5,5.18-12.28L115.43,11.37l-9.84,3.09,4.66,9.2Z"/>
    <path class="cls-1" d="m222.22,69.2c-.19,0-.39-.04-.58-.12l-2.21-.93c-.76-.32-1.12-1.2-.8-1.96.32-.76,1.2-1.12,1.96-.8l.83.35,1.76-4.17-.83-.35c-.76-.32-1.12-1.2-.8-1.96.32-.76,1.2-1.12,1.96-.8l2.21.93c.76.32,1.12,1.2.8,1.96l-2.92,6.93c-.24.57-.8.92-1.38.92Z"/>
    <path class="cls-1" d="m194.31,74.01c-1.65,0-3.53-1.06-4.46-2.54-.73-1.17-.79-2.49-.15-3.61h0c1.08-1.89,3.62-3.9,9.65-2.74,2.2.42,6.35,1.57,7.11,2.12.42.3.8.92.61,1.75-.31,1.34-2.62,4.1-5.47,4.61-1.86.33-3.59.34-5.12.35-.69,0-1.34,0-1.91.05-.08,0-.17,0-.25,0Zm1.72-6.23c-1.58,0-3.05.38-3.73,1.57h0c-.04.08-.12.21.08.53.41.65,1.44,1.19,1.97,1.13.63-.04,1.33-.05,2.1-.05,1.41,0,3-.02,4.61-.31.92-.16,1.75-.8,2.33-1.39-1.22-.38-3.01-.88-4.62-1.19-.86-.17-1.82-.29-2.74-.29Zm-5.04.83h0,0Z"/>
    <path class="cls-1" d="m213.74,70.73c-1.95,0-3.21-.79-3.29-.84-.7-.45-.9-1.38-.45-2.07.45-.69,1.36-.89,2.05-.46.11.06,1.94,1.08,4.55-.53,2.08-1.29,4.05-6.98,4.95-10.74-1.4-1.59-3.41-3.63-4.33-4.05-.67-.3-1.19-.59-1.69-.87-.96-.53-1.86-1.04-3.86-1.68-1.91-.62-3.55-1.94-4.99-3.11-1.18-.95-2.29-1.85-3.16-2.05-1.34-.31-3.23.03-4.13.75-.42.34-.42.6-.42.7.02,2.81-2.16,10.04-6.58,14.44-.51.51-.27,1.54-.14,1.96.44,1.42,1.44,2.49,1.89,2.64l.24-.08c1.89-.68,4.02-1.45,5.2-3.7,1.44-2.75,3.13-9.4,3.15-9.46.2-.8,1.02-1.29,1.82-1.09.8.2,1.29,1.02,1.08,1.82-.07.29-1.8,7.06-3.4,10.12-1.72,3.29-4.81,4.4-6.85,5.13l-.34.12c-1.55.56-3.35-.41-4.71-2.55-1.38-2.17-1.94-5.19-.07-7.05,3.79-3.77,5.71-10.32,5.69-12.29,0-1.17.54-2.26,1.54-3.06,1.83-1.46,4.74-1.78,6.68-1.33,1.54.36,2.91,1.47,4.37,2.64,1.3,1.05,2.65,2.14,4.03,2.59,2.27.74,3.4,1.36,4.39,1.91.47.26.92.51,1.47.76,2.02.91,5.25,4.66,5.88,5.41.3.35.42.83.32,1.28-.24,1.11-2.44,10.89-6.46,13.38-1.68,1.04-3.2,1.36-4.44,1.36Zm-19.71-5.89s0,0,0,0h0Z"/>
    <path class="cls-1" d="m201.87,68.57c-1.91,0-3.23-.94-4.59-2.06-.64-.53-.73-1.47-.2-2.11s1.47-.73,2.11-.2c1.65,1.37,2.31,1.59,3.71,1.22,1.59-.41,3.74-2.38,4.6-4.21.6-1.28.79-4.5.76-6.23-.01-.83.65-1.51,1.48-1.52,0,0,.02,0,.02,0,.82,0,1.49.66,1.5,1.48,0,.53.05,5.23-1.05,7.55-1.09,2.32-3.84,5.14-6.56,5.84-.65.17-1.24.24-1.78.24Z"/>
    <path class="cls-1" d="m208.45,70.73c-2.77,0-4.09-2.74-4.71-4.03-.36-.75-.05-1.64.7-2,.74-.36,1.64-.05,2,.7,1.29,2.67,1.9,2.46,2.68,2.2,1.3-.44,3.36-2.99,4.27-4.9.49-1.02.43-3.17.28-4.28-.11-.82.46-1.58,1.28-1.69.82-.11,1.58.46,1.69,1.28.05.38.49,3.82-.54,5.98-.65,1.37-3.16,5.48-6.02,6.45-.59.2-1.13.29-1.63.29Z"/>
    <path class="cls-1" d="m141.2,30.96c-.19,0-.39-.04-.58-.12l-24.79-10.45c-.76-.32-1.12-1.2-.8-1.96.32-.76,1.2-1.12,1.96-.8l24.79,10.45c.76.32,1.12,1.2.8,1.96-.24.57-.8.92-1.38.92Z"/>
    <path class="cls-1" d="m185.6,49.68c-.19,0-.39-.04-.58-.12l-24.79-10.45c-.76-.32-1.12-1.2-.8-1.96.32-.76,1.2-1.12,1.96-.8l24.79,10.45c.76.32,1.12,1.2.8,1.96-.24.57-.8.92-1.38.92Z"/>
  </g>
  <path class="cls-1" d="m147.71,77.39c-.83,0-1.5-.67-1.5-1.5,0-7.94-6.44-20.38-18.54-23.1-.69-.15-1.17-.76-1.17-1.46v-7.93c0-.83.67-1.5,1.5-1.5s1.5.67,1.5,1.5v6.76c13.44,3.69,19.71,17.36,19.71,25.73,0,.83-.67,1.5-1.5,1.5Z"/>
  <path class="cls-1" d="m130.06,95.25c-.78,0-1.43-.6-1.49-1.39l-.3-4.01c-.06-.83.56-1.55,1.38-1.61.83-.06,1.55.56,1.61,1.38l.3,4.01c.06.83-.56,1.55-1.38,1.61-.04,0-.08,0-.11,0Z"/>
  <path class="cls-1" d="m128,135.21c-17.13,0-28.32-16.34-28.79-17.04-.46-.69-.28-1.62.41-2.08.69-.46,1.62-.28,2.08.41.11.16,10.78,15.71,26.3,15.71s26.19-15.55,26.3-15.71c.46-.69,1.4-.87,2.08-.41.69.46.87,1.39.41,2.08-.47.7-11.65,17.04-28.79,17.04Z"/>
  <path class="cls-1" d="m170.77,138.89c-.62,0-1.21-.39-1.42-1.01-.27-.78.15-1.64.93-1.91,22.11-7.6,28.79-20.35,32.39-27.2,1.25-2.37,2.14-4.09,3.34-4.95,4.15-2.99,6.03-7.01,5.59-11.94-.57-6.36-.79-21.97-.8-22.63-.01-.83.65-1.51,1.48-1.52h.02c.82,0,1.49.66,1.5,1.48,0,.16.22,16.15.79,22.4.55,6.06-1.75,10.99-6.82,14.65-.62.44-1.5,2.13-2.43,3.91-3.79,7.22-10.83,20.66-34.07,28.64-.16.06-.33.08-.49.08Z"/>
  <path class="cls-1" d="m205.58,92.01c-4.89,0-11-1.18-15.33-6.1-.55-.62-.49-1.57.13-2.12.62-.55,1.57-.49,2.12.13,6.92,7.85,20.12,4.22,20.25,4.18.8-.22,1.63.24,1.85,1.03.23.8-.23,1.63-1.03,1.85-.29.08-3.66,1.02-7.99,1.02Z"/>
  <path class="cls-1" d="m205.53,86.55c-4.58,0-10.32-1.19-14.38-6.14-.53-.64-.43-1.59.21-2.11.64-.53,1.59-.43,2.11.21,6.39,7.78,18.57,4.19,18.69,4.15.79-.24,1.63.21,1.87,1,.24.79-.2,1.63-.99,1.87-.27.08-3.44,1.02-7.51,1.02Z"/>
  <path class="cls-1" d="m189.75,117.54c-.47,0-.93-.22-1.23-.64-.48-.68-.32-1.61.36-2.09,6.33-4.47,9.06-12.91,9.09-13,.25-.79,1.09-1.23,1.88-.98.79.25,1.23,1.09.98,1.88-.12.39-3.04,9.49-10.22,14.55-.26.19-.57.27-.86.27Z"/>
  <path class="cls-1" d="m197.23,95.64c-.48,0-.96-.23-1.25-.66-.06-.09-1.69-2.36-5.63-3.17-.81-.17-1.33-.96-1.17-1.77.17-.81.96-1.33,1.77-1.17,5.2,1.07,7.43,4.3,7.52,4.44.46.69.28,1.62-.41,2.08-.26.17-.55.26-.84.26Z"/>
  <path class="cls-1" d="m173.21,129.52c-.45,0-.9-.2-1.19-.59-.5-.66-.37-1.6.29-2.1,2.88-2.19,6.81-4.34,6.98-4.43.73-.39,1.64-.13,2.03.6.4.73.13,1.64-.6,2.03-.04.02-3.89,2.12-6.59,4.18-.27.21-.59.31-.91.31Z"/>
</svg>
