<?xml version="1.0" encoding="UTF-8"?>
<svg id="Layer_1" data-name="Layer 1" xmlns="http://www.w3.org/2000/svg" viewBox="0 0 256 200">
  <defs>
    <style>
        .cls-1, .cls-2 {
        stroke-width: 0px;
        }

        :root { fill:#222 }
        .accent { fill: #f9322c; }

        @media (prefers-color-scheme: dark) {
        :root {  fill: #f9322c; }
        .accent { fill:#fff; }
        }
    </style>
  </defs>
  <g>
    <path class="accent" d="m87.34,122.52c2.86-5.41,8.13-10.06,14.96-13.38l-1.62-4.14c-9.64,5.07-17.1,12.84-20.93,22.08l7.58-4.56Z"/>
    <path class="accent" d="m174.25,127.08c-3.82-9.23-11.29-17-20.93-22.08l-1.62,4.14c6.83,3.31,12.1,7.96,14.96,13.38l7.58,4.56Z"/>
  </g>
  <path class="accent" d="m127,88.96c14.55,0,21.5-3.32,21.5-3.32v-7.2s-11.16,2.77-21.5,2.77-21.5-2.77-21.5-2.77v7.2s6.94,3.32,21.5,3.32Z"/>
  <path class="accent" d="m206.42,148.99h-31.1c-1.41-1.41-2.22-2.22-3.62-3.62h0c1.41-1.41,2.22-2.22,3.62-3.62h31.1c1.41,1.41,2.22,2.22,3.62,3.62h0c-1.41,1.41-2.22,2.22-3.62,3.62Z"/>
  <path class="accent" d="m213.94,148.99h-.27c-1.41-1.41-2.22-2.22-3.62-3.62h0c1.41-1.41,2.22-2.22,3.62-3.62h.27c1.41,1.41,2.22,2.22,3.62,3.62h0c-1.41,1.41-2.22,2.22-3.62,3.62Z"/>
  <path class="accent" d="m191.01,189.27h-.27c-1.41-1.41-2.22-2.22-3.62-3.62h0c1.41-1.41,2.22-2.22,3.62-3.62h.27c1.41,1.41,2.22,2.22,3.62,3.62h0c-1.41,1.41-2.22,2.22-3.62,3.62Z"/>
  <path class="accent" d="m168.07,148.99h-.27c-1.41-1.41-2.22-2.22-3.62-3.62h0c1.41-1.41,2.22-2.22,3.62-3.62h.27c1.41,1.41,2.22,2.22,3.62,3.62h0c-1.41,1.41-2.22,2.22-3.62,3.62Z"/>
  <path class="cls-1" d="m128,122.21c-.17,0-.35-.03-.52-.09-4.31-1.61-7.24-4.22-8.89-6.05l-.44.97c-.19.41-.54.71-.98.82-.44.12-.89.03-1.26-.23-.34-.25-8.44-6.12-9.11-15.82-.29-4.07.48-16.35.51-16.87.05-.83.76-1.45,1.59-1.4.83.05,1.46.76,1.4,1.59,0,.13-.78,12.59-.51,16.47.42,6,4.3,10.4,6.45,12.39l.65-1.41c.23-.5.72-.84,1.27-.87.56-.04,1.08.24,1.37.7.03.04,2.99,4.65,9,6.89.78.29,1.17,1.15.88,1.93-.22.6-.8.98-1.41.98Z"/>
  <path class="cls-1" d="m108.29,77.39c-.83,0-1.5-.67-1.5-1.5,0-8.6,6.64-22.83,20.88-26.02.81-.18,1.61.33,1.79,1.14.18.81-.33,1.61-1.14,1.79-12.1,2.71-18.54,15.16-18.54,23.1,0,.83-.67,1.5-1.5,1.5Z"/>
  <path class="cls-1" d="m117.15,102.59c-.47,0-.93-.22-1.22-.63-.03-.04-3.25-4.49-7.96-5.63-.8-.2-1.3-1.01-1.1-1.81.2-.81,1.01-1.3,1.81-1.1,5.81,1.41,9.54,6.59,9.69,6.81.48.68.32,1.61-.36,2.09-.26.19-.57.28-.87.28Z"/>
  <path class="cls-1" d="m114.99,106.28c-.14,0-.28-.02-.42-.06-.8-.23-1.25-1.06-1.02-1.86.08-.27,2.03-6.73,9.29-7.23.83-.06,1.54.57,1.6,1.39.06.83-.57,1.54-1.39,1.6-5.19.35-6.6,5.02-6.61,5.07-.19.66-.79,1.08-1.44,1.08Z"/>
  <path class="cls-1" d="m120.48,105.97c-.83,0-1.5-.67-1.5-1.5s.67-1.5,1.5-1.5c1.88,0,3.53-1.13,4.66-2.2-2.22-.74-3.81-2.06-3.9-2.14-.63-.53-.71-1.48-.18-2.11.53-.63,1.48-.71,2.11-.18.02.02,2.34,1.92,4.83,1.92.55,0,1.06.3,1.32.79s.23,1.08-.07,1.54c-.15.22-3.62,5.38-8.77,5.38Z"/>
  <path class="cls-1" d="m61.84,184.51c-.81,0-1.48-.65-1.5-1.46,0-.11-.05-2.78.9-11.37.04-.39,4.95-39.4,14.54-45.46,7.69-4.86,20.42-10.18,29.48-12.37l2.2-8.96c.2-.8,1.01-1.3,1.82-1.1.8.2,1.3,1.01,1.1,1.81l-2.42,9.85c-.14.55-.57.98-1.13,1.11-8.66,1.94-21.87,7.4-29.44,12.19-6.39,4.04-11.93,32.19-13.16,43.25-.93,8.29-.89,10.94-.88,10.96.02.83-.64,1.51-1.47,1.53h-.03Z"/>
  <path class="cls-1" d="m106.63,165.87c-6.83,0-11.33-2.94-16.09-7.82-.58-.59-.57-1.54.03-2.12.59-.58,1.54-.57,2.12.03,6.9,7.07,12.93,9.42,28.52,3.61.78-.29,1.64.11,1.93.88s-.11,1.64-.88,1.93c-6.45,2.4-11.47,3.49-15.63,3.49Z"/>
  <path class="cls-1" d="m83.6,163.75c-.6,0-1.16-.36-1.4-.95-.3-.77.07-1.64.84-1.95.1-.04,9.86-3.99,12.66-12.31.27-.78,1.11-1.21,1.9-.94.79.26,1.21,1.12.94,1.9-3.25,9.65-13.94,13.96-14.4,14.14-.18.07-.37.1-.55.1Z"/>
  <path class="cls-1" d="m96.72,184.2c-.83,0-1.5-.67-1.5-1.5v-7.14c-.43-1.32-2.34-7.58-2.69-15.79-.04-.83.61-1.53,1.43-1.56.85-.05,1.53.61,1.56,1.43.37,8.6,2.59,15.12,2.61,15.19.05.16.08.32.08.49v7.38c0,.83-.67,1.5-1.5,1.5Z"/>
  <path class="cls-1" d="m88.17,185.03c-.09,0-.18,0-.27-.02-.82-.15-1.36-.93-1.21-1.74l4.52-25.28c.15-.81.93-1.36,1.74-1.21.82.15,1.36.93,1.21,1.74l-4.52,25.28c-.13.73-.76,1.24-1.47,1.24Z"/>
  <path class="cls-1" d="m121.74,90.59c-.37,0-.74-.14-1.03-.41-.06-.05-2.09-1.76-6.64-.14-.78.28-1.64-.13-1.92-.91-.28-.78.13-1.64.91-1.92,6.39-2.26,9.58.67,9.71.8.6.57.62,1.52.05,2.12-.29.31-.69.47-1.09.47Z"/>
  <path class="cls-1" d="m107.42,100.93c-.3,0-.59-.09-.86-.27-4.91-3.42-6.15-8.38-4.51-11.2,1.01-1.74,3.35-2.99,6.92-1.3.75.36,1.07,1.25.71,2s-1.25,1.07-2,.71c-.7-.33-2.4-.99-3.03.09-.79,1.37.04,4.73,3.63,7.23.68.47.85,1.41.38,2.09-.29.42-.76.64-1.23.64Z"/>
  <path class="cls-1" d="m106.87,115.11c-.53,0-1.04-.28-1.31-.77l-2.96-5.36-.06.03c-.44.22-.96.21-1.39-.02-.43-.23-.72-.66-.78-1.15-.04-.33-.87-8.13,1.19-14.93.24-.79,1.08-1.24,1.87-1,.79.24,1.24,1.08,1,1.87-1.29,4.25-1.32,9.07-1.21,11.72.53,0,1.04.28,1.31.77l3.66,6.62c.4.72.14,1.64-.59,2.04-.23.13-.48.19-.72.19Z"/>
  <path class="cls-1" d="m104.16,90.83c-.25,0-.51-.06-.74-.2-.72-.41-.97-1.33-.56-2.05,2.36-4.14,3.02-5.4,3.03-5.41.38-.74,1.29-1.02,2.02-.64.74.38,1.02,1.29.64,2.02-.03.05-.68,1.31-3.09,5.52-.28.48-.78.76-1.3.76Z"/>
  <path class="cls-1" d="m127.69,106.54c-.89,0-2.74-.23-4.74-1.82-.65-.52-.75-1.46-.24-2.11s1.46-.75,2.11-.24c1.62,1.29,2.94,1.17,3,1.16.8-.08,1.56.5,1.66,1.31.1.81-.45,1.55-1.26,1.67-.06,0-.25.03-.53.03Z"/>
  <path class="cls-1" d="m128,122.21c-.61,0-1.18-.37-1.41-.98-.29-.78.11-1.64.88-1.93,6.01-2.24,8.98-6.85,9.01-6.9.29-.47.82-.74,1.37-.7.55.04,1.04.37,1.26.87l.64,1.4c2.15-2,6.03-6.41,6.45-12.39.27-3.88-.5-16.34-.51-16.47-.05-.83.58-1.54,1.4-1.59.84-.04,1.54.58,1.59,1.4.03.52.8,12.79.51,16.87-.68,9.7-8.77,15.57-9.11,15.82-.36.26-.82.34-1.26.23-.43-.12-.79-.42-.98-.82l-.44-.97c-1.65,1.83-4.58,4.45-8.89,6.05-.17.06-.35.09-.52.09Z"/>
  <path class="cls-1" d="m128,87.46c-14.72,0-21.85-3.33-22.14-3.47-.52-.25-.85-.78-.85-1.35v-7.2c0-.46.21-.9.58-1.18.36-.29.84-.38,1.29-.27.11.03,11.11,2.72,21.14,2.72s21.03-2.7,21.14-2.72c.45-.11.92,0,1.29.27.36.28.58.72.58,1.18v7.2c0,.58-.33,1.1-.85,1.35-.3.14-7.42,3.47-22.14,3.47Zm-20-5.83c2.23.82,8.83,2.83,20,2.83s17.78-2.01,20-2.83v-4.31c-3.64.79-11.99,2.39-20,2.39s-16.36-1.6-20-2.39v4.3Z"/>
  <path class="cls-1" d="m138.85,102.58c-.3,0-.6-.09-.87-.28-.67-.48-.83-1.41-.35-2.09.16-.22,3.89-5.4,9.69-6.81.81-.2,1.62.3,1.81,1.1.2.8-.3,1.62-1.1,1.81-4.7,1.14-7.92,5.59-7.96,5.63-.29.41-.75.63-1.22.63Z"/>
  <path class="cls-1" d="m141.01,106.28c-.65,0-1.25-.43-1.44-1.08-.06-.19-1.48-4.72-6.61-5.07-.83-.06-1.45-.77-1.39-1.6.06-.83.79-1.45,1.6-1.39,7.25.5,9.21,6.95,9.29,7.23.23.8-.23,1.63-1.02,1.86-.14.04-.28.06-.42.06Z"/>
  <path class="cls-1" d="m135.52,105.97c-5.15,0-8.62-5.16-8.77-5.38-.3-.46-.33-1.05-.07-1.54s.77-.79,1.32-.79c2.48,0,4.81-1.9,4.83-1.92.63-.53,1.58-.45,2.11.18.53.63.45,1.58-.18,2.11-.09.08-1.68,1.4-3.9,2.14,1.13,1.06,2.78,2.2,4.66,2.2.83,0,1.5.67,1.5,1.5s-.67,1.5-1.5,1.5Z"/>
  <path class="cls-1" d="m128,129.52c-15.15,0-22.51-13.14-22.81-13.7-.4-.73-.13-1.64.6-2.04.73-.4,1.64-.13,2.04.6.07.12,6.84,12.14,20.18,12.14s20.12-12.02,20.18-12.14c.4-.72,1.3-.99,2.04-.59.72.4.99,1.31.59,2.03-.31.56-7.67,13.7-22.81,13.7Z"/>
  <path class="cls-1" d="m183.44,134.15c-.54,0-1.07-.3-1.33-.81-1.49-2.9-2.72-4.09-3.49-4.57-7.57-4.78-20.78-10.25-29.44-12.19-.56-.12-.99-.55-1.13-1.11l-2.42-9.85c-.2-.8.29-1.62,1.1-1.81.81-.2,1.62.29,1.82,1.1l2.2,8.96c9.06,2.18,21.79,7.51,29.48,12.37,1.6,1.01,3.09,2.89,4.56,5.74.38.74.09,1.64-.65,2.02-.22.11-.45.17-.69.17Z"/>
  <path class="cls-1" d="m149.37,165.87c-4.16,0-9.17-1.09-15.63-3.49-.78-.29-1.17-1.15-.88-1.93.29-.78,1.15-1.17,1.93-.88,15.6,5.81,21.63,3.47,28.52-3.61.58-.59,1.53-.61,2.12-.03.59.58.61,1.53.03,2.12-4.76,4.88-9.26,7.82-16.09,7.82Z"/>
  <path class="cls-1" d="m172.4,163.75c-.18,0-.37-.03-.55-.1-.45-.18-11.15-4.49-14.4-14.14-.26-.79.16-1.64.94-1.9.79-.26,1.64.16,1.9.94,2.81,8.35,12.55,12.27,12.65,12.31.77.3,1.15,1.17.85,1.95-.23.59-.8.95-1.4.95Z"/>
  <path class="cls-1" d="m159.28,184.2c-.83,0-1.5-.67-1.5-1.5v-7.38c0-.17.03-.33.08-.49.02-.06,2.24-6.58,2.61-15.19.04-.83.72-1.48,1.56-1.43.83.04,1.47.73,1.43,1.56-.35,8.21-2.26,14.47-2.69,15.79v7.14c0,.83-.67,1.5-1.5,1.5Z"/>
  <path class="cls-1" d="m177.43,190.1c-1.77,0-3.73-.28-5.58-1.16-2.63-1.25-4.51-3.44-5.6-6.52-3.35-9.47-4.39-23.46-4.43-24.05-.06-.83.56-1.54,1.39-1.6.81-.05,1.54.56,1.6,1.39,0,.14,1.05,14.18,4.27,23.27,2.97,8.39,12.68,5.07,13.09,4.93.78-.27,1.64.13,1.91.91.28.78-.13,1.64-.91,1.91-.16.06-2.65.93-5.75.93Z"/>
  <path class="cls-1" d="m134.26,90.59c-.4,0-.79-.16-1.09-.47-.57-.6-.55-1.55.05-2.12.13-.13,3.32-3.06,9.71-.8.78.28,1.19,1.13.91,1.92s-1.13,1.19-1.92.91c-4.6-1.63-6.62.12-6.64.14-.29.28-.66.41-1.03.41Z"/>
  <path class="cls-1" d="m148.58,100.93c-.47,0-.94-.22-1.23-.64-.47-.68-.31-1.61.38-2.09,3.59-2.5,4.43-5.86,3.63-7.23-.63-1.09-2.33-.43-3.04-.1-.75.36-1.64.04-2-.71-.35-.75-.04-1.64.71-2,3.56-1.69,5.91-.44,6.92,1.3,1.64,2.82.4,7.78-4.51,11.2-.26.18-.56.27-.86.27Z"/>
  <path class="cls-1" d="m149.13,115.11c-.25,0-.5-.06-.72-.19-.73-.4-.99-1.31-.59-2.04l3.66-6.62c.27-.49.78-.77,1.3-.77.11-2.65.07-7.48-1.21-11.72-.24-.79.21-1.63,1-1.87.79-.24,1.63.21,1.87,1,2.06,6.79,1.22,14.6,1.19,14.93-.05.49-.34.92-.78,1.15-.43.24-.95.24-1.39.02l-.06-.03-2.96,5.36c-.27.5-.79.77-1.31.77Z"/>
  <path class="cls-1" d="m151.84,90.83c-.52,0-1.03-.27-1.3-.76-2.41-4.21-3.06-5.47-3.09-5.52-.38-.74-.1-1.64.64-2.02.73-.38,1.64-.1,2.02.64,0,.01.67,1.28,3.03,5.41.41.72.16,1.64-.56,2.05-.24.13-.49.2-.74.2Z"/>
  <path class="cls-1" d="m128.31,106.54c-.28,0-.46-.02-.53-.03-.82-.12-1.39-.88-1.27-1.7s.87-1.39,1.7-1.27c.03,0,1.35.12,2.97-1.17.65-.51,1.59-.41,2.11.24.52.65.41,1.59-.24,2.11-2,1.6-3.85,1.82-4.74,1.82Z"/>
  <path class="cls-1" d="m80.75,126.58c-.19,0-.39-.04-.57-.11-.77-.32-1.13-1.19-.81-1.96,3.91-9.45,11.59-17.56,21.61-22.83.73-.39,1.64-.1,2.03.63.39.73.1,1.64-.63,2.03-9.41,4.95-16.59,12.52-20.24,21.32-.24.58-.8.93-1.39.93Z"/>
  <path class="cls-1" d="m175.25,126.58c-.59,0-1.15-.35-1.39-.93-3.65-8.8-10.83-16.37-20.24-21.32-.73-.39-1.01-1.29-.63-2.03.39-.73,1.29-1.02,2.03-.63,10.02,5.27,17.7,13.38,21.61,22.83.32.77-.05,1.64-.81,1.96-.19.08-.38.11-.57.11Z"/>
  <path class="cls-1" d="m88.34,122.02c-.24,0-.48-.06-.7-.17-.73-.39-1.01-1.29-.63-2.03,2.99-5.67,8.39-10.52,15.63-14.03.75-.36,1.64-.05,2,.69.36.75.05,1.64-.69,2-6.66,3.23-11.6,7.63-14.29,12.73-.27.51-.79.8-1.33.8Z"/>
  <path class="cls-1" d="m167.66,122.02c-.54,0-1.06-.29-1.33-.8-2.69-5.1-7.63-9.5-14.29-12.73-.75-.36-1.06-1.26-.69-2,.36-.75,1.26-1.06,2-.69,7.24,3.51,12.64,8.36,15.63,14.03.39.73.11,1.64-.63,2.03-.22.12-.46.17-.7.17Z"/>
  <path class="cls-1" d="m207.42,148.49h-31.1c-.4,0-.78-.16-1.06-.44l-3.62-3.62c-.59-.59-.59-1.54,0-2.12l3.62-3.63c.28-.28.66-.44,1.06-.44h31.1c.4,0,.78.16,1.06.44l3.62,3.63c.59.59.59,1.54,0,2.12l-3.62,3.62c-.28.28-.66.44-1.06.44Zm-30.48-3h29.86l2.12-2.12-2.12-2.12h-29.86l-2.12,2.12,2.12,2.12Z"/>
  <path class="cls-1" d="m214.94,148.49h-.27c-.4,0-.78-.16-1.06-.44l-3.62-3.62c-.28-.28-.44-.66-.44-1.06s.16-.78.44-1.06l3.62-3.62c.28-.28.66-.44,1.06-.44h.27c.4,0,.78.16,1.06.44l3.62,3.62c.28.28.44.66.44,1.06s-.16.78-.44,1.06l-3.62,3.62c-.28.28-.66.44-1.06.44Zm-1.78-5.12l1.64,1.64,1.64-1.64-1.64-1.64-1.64,1.64Z"/>
  <path class="cls-1" d="m192.01,188.77h-.27c-.4,0-.78-.16-1.06-.44l-3.62-3.62c-.28-.28-.44-.66-.44-1.06s.16-.78.44-1.06l3.62-3.62c.28-.28.66-.44,1.06-.44h.27c.4,0,.78.16,1.06.44l3.62,3.62c.28.28.44.66.44,1.06s-.16.78-.44,1.06l-3.62,3.62c-.28.28-.66.44-1.06.44Zm-1.78-5.12l1.64,1.64,1.64-1.64-1.64-1.64-1.64,1.64Z"/>
  <path class="cls-1" d="m169.07,148.49h-.27c-.4,0-.78-.16-1.06-.44l-3.62-3.62c-.28-.28-.44-.66-.44-1.06s.16-.78.44-1.06l3.62-3.62c.28-.28.66-.44,1.06-.44h.27c.4,0,.78.16,1.06.44l3.62,3.62c.28.28.44.66.44,1.06s-.16.78-.44,1.06l-3.62,3.62c-.28.28-.66.44-1.06.44Zm-1.78-5.12l1.64,1.64,1.64-1.64-1.64-1.64-1.64,1.64Z"/>
  <path class="cls-1" d="m200.03,141.24h-16.33c-.83,0-1.5-.67-1.5-1.5V59.18c0-.35.13-.7.36-.97l8.17-9.64c.57-.67,1.72-.67,2.29,0l8.17,9.64c.23.27.36.61.36.97v80.56c0,.83-.67,1.5-1.5,1.5Zm-14.83-3h13.33V59.73l-6.67-7.87-6.67,7.87v78.51Z"/>
  <path class="cls-1" d="m195.63,181.52h-7.52c-.83,0-1.5-.67-1.5-1.5v-2.4c0-.83.67-1.5,1.5-1.5s1.5.67,1.5,1.5v.9h4.52v-.9c0-.83.67-1.5,1.5-1.5s1.5.67,1.5,1.5v2.4c0,.83-.67,1.5-1.5,1.5Z"/>
  <path class="cls-1" d="m180.6,166.58c-1.54,0-4.52-1.07-5.95-3.29-1.03-1.58-1.71-3.17-2.31-4.58-.27-.64-.53-1.23-.79-1.75-.77-1.53-.56-3.82.5-5.33.79-1.13,1.99-1.69,3.27-1.54,2.16.26,5,1.82,6.27,7.83.46,2.19,1.02,6.46.81,7.38-.12.5-.54,1.09-1.37,1.24-.12.02-.27.03-.42.03Zm-5.7-13.5c-.09,0-.22.04-.4.29-.44.63-.52,1.77-.28,2.26.28.56.56,1.21.86,1.91.55,1.29,1.18,2.76,2.07,4.13.51.78,1.42,1.3,2.19,1.6-.12-1.27-.36-3.11-.7-4.72-.5-2.35-1.54-5.21-3.69-5.47h0s-.04,0-.06,0Z"/>
  <path class="cls-1" d="m192.05,178.46c-2.68,0-5.41-.35-7.05-1.51-4.13-2.93-3.51-6.76-3.48-6.92.14-.82.93-1.36,1.74-1.22.81.14,1.35.91,1.22,1.71-.02.13-.24,2.21,2.26,3.98,2,1.42,8.01,1.02,11.82.39.92-1.91,2.02-4.56,2.04-5.56.02-.73.08-1.32.14-1.9.12-1.09.23-2.12.05-4.21-.17-2,.41-4.02.93-5.81.42-1.45.82-2.83.67-3.71-.23-1.36-1.28-2.97-2.29-3.51-.48-.26-.72-.15-.81-.12-2.58,1.11-10.09,1.91-15.86-.45-.67-.28-1.53.35-1.86.63-1.14.95-1.73,2.29-1.7,2.77l.17.18c1.36,1.47,2.89,3.15,5.43,3.36,3.1.26,9.88-.76,9.94-.77.82-.12,1.58.44,1.71,1.26s-.44,1.58-1.26,1.71c-.29.04-7.2,1.09-10.64.8-3.7-.31-5.92-2.72-7.39-4.32l-.24-.26c-1.12-1.21-.92-3.25.52-5.32,1.46-2.11,4.03-3.8,6.46-2.8,4.95,2.03,11.73,1.25,13.54.47,1.07-.46,2.29-.38,3.42.23,2.06,1.12,3.48,3.68,3.82,5.64.27,1.56-.22,3.25-.74,5.05-.47,1.61-.95,3.27-.82,4.72.2,2.38.06,3.66-.06,4.79-.06.54-.11,1.04-.13,1.65-.05,2.21-2.26,6.65-2.7,7.52-.21.41-.6.71-1.06.79-.64.12-4.17.76-7.78.76Zm-12.27-25.53h0s0,0,0,0Z"/>
  <path class="cls-1" d="m188.46,166.94c-.07,0-.14,0-.21,0-2.56-.1-6.23-1.54-7.93-3.78-1.84-2.42-1.45-4.42-.8-6.58.24-.79,1.08-1.24,1.87-1,.79.24,1.24,1.08,1,1.87-.62,2.05-.56,2.75.32,3.9.99,1.3,3.64,2.52,5.67,2.6,1.4.06,4.46-1.02,6.04-1.72.76-.33,1.64.01,1.98.77.33.76-.01,1.64-.77,1.98-.47.21-4.57,1.98-7.16,1.98Z"/>
  <path class="cls-1" d="m189.37,172.93c-.07,0-.15,0-.22,0-1.9-.09-6.43-.95-8.28-3.04-2.73-3.08-.13-6.04.98-7.3.55-.62,1.49-.68,2.12-.14.62.55.68,1.5.13,2.12-1.96,2.23-1.53,2.71-.99,3.33.91,1.03,4.07,1.94,6.17,2.03,1.15.05,3.08-.83,4.05-1.41.71-.42,1.63-.19,2.05.53.42.71.19,1.63-.52,2.05-.32.19-3.15,1.83-5.5,1.83Z"/>
  <path class="cls-1" d="m191.87,92.01c-.83,0-1.5-.67-1.5-1.5v-26.9c0-.83.67-1.5,1.5-1.5s1.5.67,1.5,1.5v26.9c0,.83-.67,1.5-1.5,1.5Z"/>
  <path class="cls-1" d="m191.87,140.19c-.83,0-1.5-.67-1.5-1.5v-26.9c0-.83.67-1.5,1.5-1.5s1.5.67,1.5,1.5v26.9c0,.83-.67,1.5-1.5,1.5Z"/>
  <path class="cls-1" d="m183.46,189.26c-3.3,0-6.54-.98-9.15-2.9-3.69-2.72-5.32-6.78-4.47-11.14,1.54-7.96,8.76-11.04,9.07-11.17.76-.32,1.64.05,1.96.81.32.77-.04,1.64-.81,1.96-.06.02-6.04,2.62-7.27,8.97-.84,4.35,1.71,6.97,3.31,8.15,3.8,2.8,9.32,3.09,13.75.73.73-.39,1.64-.11,2.03.62.39.73.11,1.64-.62,2.03-2.43,1.3-5.13,1.94-7.8,1.94Z"/>
  <path class="cls-1" d="m195.63,185.14c-.5,0-1-.25-1.28-.72-.43-.71-.21-1.63.5-2.06.4-.25,9.77-6.16,6.09-15.15-.31-.77.05-1.64.82-1.96.77-.31,1.64.05,1.96.82,3.72,9.1-3.15,16.31-7.3,18.85-.24.15-.51.22-.78.22Z"/>
  <path class="cls-1" d="m184.2,189.26c-.27,0-.54-.07-.79-.22-5.67-3.49-8.8-7.71-8.81-11.87,0-2.49,1.13-6.17,6.58-9.55.7-.44,1.63-.22,2.07.48.44.7.22,1.63-.48,2.06-2.36,1.46-5.17,3.87-5.17,7,0,3.08,2.63,6.39,7.38,9.32.71.43.92,1.36.49,2.06-.28.46-.78.71-1.28.71Z"/>
  <path class="cls-1" d="m147.71,77.39c-.83,0-1.5-.67-1.5-1.5,0-7.94-6.44-20.38-18.54-23.1-.69-.15-1.17-.76-1.17-1.46v-7.93c0-.83.67-1.5,1.5-1.5s1.5.67,1.5,1.5v6.76c13.44,3.69,19.71,17.36,19.71,25.73,0,.83-.67,1.5-1.5,1.5Z"/>
  <path class="cls-1" d="m130.06,95.25c-.78,0-1.43-.6-1.49-1.39l-.3-4.01c-.06-.83.56-1.55,1.38-1.61.83-.06,1.55.56,1.61,1.38l.3,4.01c.06.83-.56,1.55-1.38,1.61-.04,0-.08,0-.11,0Z"/>
  <path class="cls-1" d="m128,135.21c-17.13,0-28.32-16.34-28.79-17.04-.46-.69-.28-1.62.41-2.08.69-.46,1.62-.28,2.08.41.11.16,10.78,15.71,26.3,15.71s26.19-15.55,26.3-15.71c.46-.69,1.4-.87,2.08-.41.69.46.87,1.39.41,2.08-.47.7-11.65,17.04-28.79,17.04Z"/>
</svg>
