<?xml version="1.0" encoding="UTF-8"?>
<svg id="Layer_1" data-name="Layer 1" xmlns="http://www.w3.org/2000/svg" viewBox="0 0 533.16 677.07">
  <defs>
    <style>
      .cls-1, .cls-2, .cls-3 {
        stroke-width: 0px;
      }

      .cls-2 {
        fill-rule: evenodd;
      }

      .cls-2, .cls-3 {
        fill: #ff2d20;
      }
    </style>
  </defs>
  <path class="cls-3" d="m497.78,27.62c-6.8,10.62-18.98,15.36-30.43,19.63-8.38,3.22-17.61,7.49-21.27,16.21-3.33,7.8.61,16.84,7.3,21.28,1.44,1.31,5.57,3.33,6.03,2.94-6.36-5.36-9-15.84-3.51-22.79,5.62-7.54,15.12-9.65,23.24-13.92,4.71-2.3,9.82-5.26,13.88-7.95-5.1,7.41-13.15,11.94-20.61,16.6-6.22,4.07-11.32,11.48-9.67,19.14,1.06,5.31,5.32,11.19,11.22,11.38,15.53-.28,29.99-10.33,35.93-24.36,6.79-15.08,2.83-34.14-9.5-45.52-.39,2.88-1.43,5.37-2.61,7.34Z"/>
  <path class="cls-3" d="m491.03,26.25c3.73-2.89,5.49-9.18.64-11.86-2.16-.85-5.84-3.27-3.01.2,1.78,4.85-2.21,8.91-6.08,11.28-7.99,4.79-16.96,6.77-25.47,10.58-1.31.33-4.26,1.91-1.51-.46,7.13-5.97,17.74-8.08,23.23-16.15,2.94-3.8-.14-9.43-4.47-10.02-5.5-.84-11.01.54-16.11,2.38-15.26,5.79-26.11,21.33-25.95,37.45.07,3.6.34,6.88,1.19,10.28.86,3.41,3.82,10.74,5,11-1.26-9.43,4.04-18.28,11.36-23.47,12.76-9.06,29.79-10,41.18-21.22Z"/>
  <path class="cls-3" d="m319.85,532.48c-11.97-5.36-20.98-15.7-24.66-28.29-3.49-11.88-1.83-24.04,3.67-34.1,11.64-21.32,38.15-29.48,59.77-18.4,21.62,11.08,30.47,37.36,19.97,59.26-10.5,21.9-36.54,31.45-58.71,21.53h-.04Zm-12.29-29.05c3.51-5.6,5.23-12.2,14.19-14.83,14.33-4.21,18.54,10.12,32.87,5.91,8.96-2.63,10.68-9.23,14.21-14.84-6.56-16.93-25.6-25.33-42.53-18.77-16.93,6.56-25.33,25.6-18.77,42.53h.02Z"/>
  <path class="cls-3" d="m441.97,614.25c-4.3-.38-7.49-4.17-7.11-8.47h0s.34-3.9.34-3.9c.19-2.15-1.4-4.05-3.55-4.24s-4.05,1.4-4.24,3.55l-.34,3.9c-.38,4.3-4.17,7.49-8.47,7.11h0s-3.9-.34-3.9-.34c-2.15-.19-4.05,1.41-4.23,3.56-.19,2.15,1.4,4.04,3.55,4.23l3.9.34c4.3.38,7.49,4.17,7.11,8.47l-.34,3.9c-.19,2.15,1.41,4.05,3.56,4.23,2.15.19,4.04-1.4,4.23-3.55l.34-3.9c.38-4.3,4.17-7.49,8.47-7.11l3.9.34c2.15.19,4.05-1.41,4.23-3.56.19-2.15-1.4-4.04-3.55-4.23l-3.9-.34Zm52.1-42.11c-6.45-.56-11.23-6.25-10.66-12.71l.51-5.84c.28-3.23-2.11-6.07-5.33-6.35-3.23-.28-6.07,2.1-6.35,5.33l-.51,5.84c-.56,6.45-6.25,11.23-12.71,10.66l-5.84-.51c-3.23-.28-6.07,2.1-6.35,5.33-.28,3.23,2.1,6.07,5.33,6.35h0l5.84.51c6.45.56,11.23,6.25,10.66,12.71l-.51,5.84c-.28,3.23,2.11,6.07,5.33,6.35,3.23.28,6.07-2.1,6.35-5.33l.51-5.84c.56-6.45,6.25-11.23,12.71-10.66l5.84.51c3.23.28,6.07-2.11,6.35-5.33.28-3.23-2.1-6.07-5.33-6.35l-5.84-.51Zm-14.97,68.91c4.18.37,7.87-2.73,8.24-6.91s-2.73-7.87-6.91-8.24-7.87,2.73-8.24,6.91c-.37,4.18,2.73,7.87,6.91,8.24Zm-59.05-72.77c2.99.26,5.62-1.95,5.88-4.94.26-2.99-1.95-5.62-4.94-5.88s-5.62,1.95-5.88,4.94c-.26,2.99,1.95,5.62,4.94,5.88Z"/>
  <path class="cls-3" d="m242.46,65.46s-3.08,18-4.73,30.13c-1.65,12.13-1.46,40.09-1.46,40.09l6.83.75s11.06-11.86,15.3-31.01c4.24-19.15,7.3-36.51,7.3-36.51l-23.23-3.45Z"/>
  <path class="cls-2" d="m26.88,605.96c-7.18,2.97-9.03,11.78-6.96,17.43s9.16,16.37,15.58,17.14,11.39-3.06,11.39-3.06c0,0-8.14-24.22-20.01-31.5Z"/>
  <path class="cls-2" d="m124.2,629.97c8.86,4.8,7.81,8.16,7.81,8.16l24.22-12.57s-2.11-9.68-6.61-11.72c-4.5-2.04-17.72,6.64-25.42,16.13Z"/>
  <path class="cls-2" d="m96.95,493.43c-3.7,3.1-2.43,8.08-2.17,12.23.26,4.15,0,11.46,0,11.46l6.2.35s.96-7.87,2.74-9.74c1.79-1.87,6.45-11.58.77-13.3s-7.53-1-7.53-1Z"/>
  <polygon class="cls-2" points="60.08 364.68 35.17 362.36 48.32 376.04 88.53 395.15 93 381.37 60.08 364.68"/>
  <polygon class="cls-2" points="81.88 252.54 90.65 244 97.33 258.3 85.01 264.28 81.88 252.54"/>
  <polyline class="cls-2" points="128.37 215.01 137.16 212.28 143.6 226.89 133.2 234.68 128.76 215.21"/>
  <path class="cls-2" d="m38.22,246.15l-11.94,9.36v9.75l7.3,6.39,16,.21,3.11-9.73s-.43.6-6.17-.4-6.45-6.21-6.45-6.21l-1.85-9.36Z"/>
  <g>
    <path class="cls-1" d="m35.96,260.32c-1.15,0-2.28-.18-3.27-.66-1.41-.68-2.37-1.88-2.79-3.47-.68-2.58-.42-4.88.76-6.81,1.76-2.88,5.05-4.15,7.51-4.7.74-.17,1.5.25,1.75.97l3.87,11.17c.26.74-.1,1.54-.81,1.86-.48.22-3.8,1.63-7.02,1.63Zm1.58-12.36c-2.02.66-3.53,1.69-4.32,2.98-.74,1.21-.88,2.73-.42,4.49.19.74.57,1.23,1.18,1.52,1.66.8,4.62.1,6.49-.53l-2.94-8.47Z"/>
    <path class="cls-1" d="m47.04,273.36c-.9,0-1.8-.09-2.7-.18-1.49-.15-3.03-.3-4.66-.11-5.33.64-13.61-1.94-15.3-8.4-1.74-6.64,3.96-13.75,7.6-16.9.62-.54,1.57-.47,2.12.15s.47,1.57-.15,2.12c-3.38,2.92-7.93,9.03-6.66,13.88,1.25,4.75,7.92,6.67,12.05,6.18,1.96-.23,3.74-.05,5.31.11,2.73.27,4.22.36,5.43-.91.94-.99,1.68-3.84.56-6.41-1.1-2.5-3.59-3.89-7.25-4.04l-1.77,4.36c-.31.77-1.19,1.14-1.96.82-.77-.31-1.14-1.19-.82-1.96l2.16-5.3c.23-.56.76-.92,1.36-.93,7.28-.08,10.05,3.61,11.03,5.84,1.6,3.64.68,7.79-1.13,9.68-1.54,1.61-3.34,2.01-5.2,2.01Z"/>
    <path class="cls-1" d="m41.29,254.04c-.62,0-1.19-.38-1.41-.99-.28-.78.12-1.64.91-1.92l59.48-21.36c.78-.28,1.64.12,1.92.91.28.78-.12,1.64-.91,1.92l-59.48,21.36c-.17.06-.34.09-.51.09Z"/>
    <path class="cls-1" d="m102.84,259.15c-.09,0-.18,0-.27-.03-.45-.08-.84-.37-1.06-.78l-.86-1.64-3.11,1.15c-.75.28-1.58-.08-1.9-.81l-4.36-10.08c-.15-.35-.16-.73-.04-1.09l2.47-7.09.08-2.67c.01-.41.19-.79.49-1.07.81-.74,19.81-18.07,23.41-20.77,4.11-3.09,10.6-1.43,10.87-1.36.5.13.9.52,1.05,1.01l6.5,21.36c.15.5.03,1.05-.32,1.44-.35.39-.89.57-1.41.46-1.25-.25-4.93-.57-6.82.89-2.78,2.16-23.53,20.49-23.74,20.68-.28.24-.63.38-.99.38Zm-1.47-5.81c.54,0,1.06.3,1.33.8l.58,1.11c4.82-4.25,20-17.63,22.45-19.53,2.01-1.56,4.87-1.79,6.85-1.72l-5.58-18.34c-1.6-.28-5.25-.68-7.51,1.02-3.18,2.39-19.71,17.41-22.72,20.16l-.06,2.26c0,.15-.03.31-.08.45l-2.35,6.75,3.56,8.24,3.02-1.11c.17-.06.35-.09.52-.09Zm-6.17-14.28h0,0Z"/>
    <path class="cls-1" d="m51.37,281.61c-.49,0-.96-.24-1.25-.67-.46-.69-.27-1.62.43-2.08,5.45-3.6,24.88-11.12,34.45-13.71,10.48-2.83,50.83-16.59,53.35-18.67,1.55-1.73,2.91-9.6-.87-15.91-.43-.71-.2-1.63.51-2.06.71-.43,1.63-.2,2.06.51,4.34,7.23,3.16,16.54.47,19.51-2.57,2.85-47.8,17.62-54.75,19.5-9.17,2.48-28.43,9.92-33.58,13.31-.25.17-.54.25-.83.25Z"/>
    <path class="cls-1" d="m102.84,259.15c-.62,0-1.19-.38-1.41-1-.28-.78.13-1.64.91-1.92l13.19-4.71,18.01-16.78,5.48-7.95-5.1-10.77-5.01,1.13c-.81.18-1.61-.33-1.79-1.13-.18-.81.33-1.61,1.13-1.79l6.18-1.39c.69-.15,1.39.19,1.68.82l5.98,12.64c.23.48.18,1.05-.12,1.49l-6.06,8.79c-.06.09-.13.17-.21.25l-18.36,17.11c-.15.14-.33.25-.52.32l-13.48,4.81c-.17.06-.34.09-.5.09Z"/>
    <path class="cls-1" d="m116.32,254.34c-.61,0-1.19-.38-1.41-.99-.28-.78.12-1.64.9-1.92,8.05-2.94,17.38-6.91,18.4-8.19,1.72-2.22,4.01-6.85,1.65-10.09-.49-.67-.34-1.61.33-2.1.67-.49,1.61-.34,2.1.33,3.41,4.68.54,10.81-1.7,13.69-1.98,2.55-15.61,7.67-19.75,9.17-.17.06-.34.09-.51.09Z"/>
    <path class="cls-1" d="m50.21,284.98c-7.72,0-14.07-8.03-15.16-13.08-.17-.81.34-1.61,1.15-1.78.8-.17,1.61.34,1.78,1.15.79,3.7,6.62,12,13.81,10.55,7.81-1.55,85.26-29.97,91.04-32.12.89-2.38.74-16.05-3.65-21.2-.54-.63-.46-1.58.17-2.11.63-.54,1.58-.46,2.11.17,4.89,5.73,5.43,19.14,4.37,23.51-.19.79-.56,1.89-1.53,2.28-.68.28-83.37,30.71-91.92,32.41-.73.14-1.46.21-2.17.21Z"/>
    <path class="cls-1" d="m67.19,270.51c-.21,0-.41-.04-.61-.13-.38-.17-.67-.48-.81-.87l-6.89-19.49c-.14-.39-.11-.81.08-1.18.19-.37.51-.64.91-.76l34.91-10.47c.79-.24,1.63.21,1.87,1.01.24.79-.21,1.63-1.01,1.87l-33.4,10.01,5.84,16.51,28.37-11.95c.76-.33,1.64.04,1.96.8.32.76-.04,1.64-.8,1.96l-29.83,12.57c-.19.08-.38.12-.58.12Z"/>
    <path class="cls-1" d="m84.71,263.22c-.59,0-1.14-.35-1.38-.92l-3.96-9.49-19.2-1.8c-.83-.08-1.43-.81-1.35-1.63s.79-1.44,1.63-1.35l19.51,1.82,13.24-10.37c.65-.51,1.59-.4,2.11.26s.4,1.59-.26,2.11l-12.81,10.03,3.87,9.27c.08.19.12.38.12.58,0,.59-.35,1.14-.92,1.38-.19.08-.38.12-.58.12Z"/>
    <path class="cls-1" d="m33.29,292.47c-.58,0-1.14-.34-1.38-.91l-10.18-23.88c-.24-.56-.12-1.2.3-1.63l2.72-2.81c.58-.59,1.53-.61,2.12-.04.6.58.61,1.53.04,2.12l-2.03,2.09,9.21,21.6,16.72-6.95c.76-.32,1.64.04,1.96.81.32.76-.04,1.64-.81,1.96l-18.09,7.52c-.19.08-.38.12-.57.12Z"/>
    <path class="cls-1" d="m33.29,292.47c-.76,0-1.41-.57-1.49-1.35-.08-.82.51-1.56,1.34-1.65l15.27-1.57,96.02-33.69c-.09-2.92-.41-11.01-1.38-15.08-.19-.81.31-1.61,1.11-1.81.81-.19,1.61.31,1.81,1.11,1.26,5.31,1.48,16.33,1.49,16.79.01.65-.39,1.23-1,1.44l-97.22,34.11c-.11.04-.23.07-.34.08l-15.45,1.59c-.05,0-.1,0-.16,0Z"/>
    <path class="cls-1" d="m98.92,243.67c-.28,0-.55-.11-.75-.34-.37-.41-.33-1.04.08-1.41l16.69-14.83c.41-.37,1.04-.33,1.41.08.37.41.33,1.04-.08,1.41l-16.69,14.83c-.19.17-.43.25-.66.25Z"/>
    <path class="cls-1" d="m118.1,237.07l-1.19-1.61s4.91-3.63,6.89-5.14c2.33-1.77,5.07-1.19,5.18-1.16.54.12.88.66.76,1.19-.12.54-.65.88-1.19.76-.01,0-1.96-.4-3.53.8-1.99,1.51-6.91,5.16-6.91,5.16Z"/>
    <path class="cls-1" d="m95.58,254.1c-.31,0-.62-.15-.82-.42-.32-.45-.21-1.08.24-1.39l6.06-4.29c.45-.32,1.08-.21,1.39.24.32.45.21,1.08-.24,1.39l-6.06,4.29c-.18.12-.38.18-.58.18Z"/>
    <path class="cls-1" d="m37.54,272.65c-.44,0-.84-.29-.96-.74-.14-.53.17-1.08.71-1.23,6.73-1.81,5.68-6.18,5.64-6.36-.14-.54.18-1.08.72-1.22.53-.14,1.08.18,1.22.72.02.06,1.57,6.48-7.05,8.79-.09.02-.17.03-.26.03Z"/>
    <path class="cls-1" d="m55.92,257.03c-.4,0-.78-.24-.93-.64-.2-.51.06-1.09.57-1.29l5.37-2.07c.51-.2,1.09.06,1.29.57.2.51-.06,1.09-.57,1.29l-5.37,2.07c-.12.05-.24.07-.36.07Z"/>
    <path class="cls-1" d="m31.04,285.68c-.39,0-.76-.23-.92-.61-.21-.51.03-1.1.53-1.31l5.09-2.14c.51-.21,1.09.02,1.31.53.21.51-.03,1.1-.53,1.31l-5.09,2.14c-.13.05-.26.08-.39.08Z"/>
    <path class="cls-1" d="m74.06,263.34c-.36,0-.7-.19-.88-.53-.26-.49-.08-1.09.41-1.35l6.26-3.35c.49-.26,1.09-.08,1.35.41s.08,1.09-.41,1.35l-6.26,3.35c-.15.08-.31.12-.47.12Z"/>
  </g>
  <g>
    <path class="cls-3" d="m151.26,449.47l-20.1-42.87c8.85.96,26.01,40.17,26.01,40.17"/>
    <path class="cls-3" d="m202.39,461.13c-6.45-4.96-13-4.6-15.98.9-6.58-6.8-17.79-5-20.72-5.83-2.93-.83-8.52-9.43-8.52-9.43,0,0-3.67,2.41-5.77,1.1-2.09-1.31-37.22-33.26-37.22-33.26l39.07,45.9,3.02-1.31,4.37,3.34c5-2.46,11.79-.96,16.96.26,4.98,1.18,8.18,5.03,9.53,7.02s1.17,6.59,1.17,6.59l2.7,1.44c2.62-1.53,3.81,1.79,12.31,1.41,8.5-.38,5.53-13.17-.92-18.13Zm.23,12.38c-1.31,2.81-7.41-1.21-9.99-3.26-2.58-2.04-3.34-8.42,1.36-8.53,4.81-.12,11.53,5.57,8.63,11.79Z"/>
    <path class="cls-3" d="m175.87,470.3c-5.44-1.95-13.42-4.41-14.6-8.04l-4.64-7.4-2.72,5.37s2.39,6.23,4.39,7.43c2,1.2,6.4,3.63,6.4,3.63,0,0-2.2,2.79-3.08,6.61,1.81.23,4.17.53,6.02.76.96-1.76,2.85-3.57,2.85-3.57,7.91,6.55,11.75,12.83,11.8,16.72.03,2.4-1.79,4.67-3.59,5.72l2.2,4.47c2.63-.96,4.93-2.4,5.65-4.09,1.69-4.02-5.22-25.66-10.66-27.61Z"/>
    <path class="cls-1" d="m203.66,477.15c-4.01,0-6.33-.83-7.93-1.39-1.44-.51-1.74-.58-2.3-.25-.45.26-1,.27-1.46.03l-2.7-1.44c-.51-.27-.82-.81-.79-1.38.06-1.59-.13-4.54-.91-5.69-1.06-1.56-4.01-5.3-8.64-6.4-4.49-1.07-11.27-2.67-15.95-.38-.51.25-1.12.19-1.57-.15l-3.66-2.81-2.21.96c-.61.26-1.31.1-1.74-.4l-39.07-45.9c-.51-.6-.47-1.5.1-2.05.57-.55,1.47-.56,2.05-.03,13.99,12.73,35.4,32.05,37.01,33.1.9.56,3.15-.43,4.15-1.08.33-.22.74-.3,1.13-.21.39.08.73.32.95.65,2.54,3.91,6.2,8.39,7.67,8.81.56.16,1.84.2,3.19.25,4.41.15,11.55.4,16.84,4.72,1.38-1.76,3.21-2.91,5.37-3.37,3.62-.77,7.81.5,11.81,3.58,4.91,3.78,7.87,11.37,6.33,16.25-.88,2.8-3.11,4.43-6.26,4.57-.49.02-.95.03-1.4.03Zm-9.6-4.84c.92,0,1.78.31,2.68.62,1.64.58,3.89,1.38,8.19,1.19,1.88-.08,3.04-.89,3.54-2.47,1.16-3.68-1.42-9.98-5.3-12.97-3.29-2.53-6.62-3.61-9.36-3.02-1.89.4-3.36,1.56-4.38,3.45-.23.42-.64.71-1.12.77-.47.06-.95-.1-1.28-.44-4.51-4.67-11.51-4.91-16.15-5.07-1.67-.06-3-.1-3.91-.36-2.77-.79-6.78-6.25-8.59-8.9-1.54.75-4.12,1.62-6.08.39-1.16-.73-10.98-9.5-20.31-17.91l23.38,27.46,2-.87c.5-.22,1.08-.15,1.51.18l3.66,2.8c5.53-2.21,12.44-.57,17.1.54,5.65,1.34,9.18,5.79,10.43,7.64,1.21,1.79,1.42,4.93,1.44,6.53l1.24.66c.46-.17.9-.23,1.33-.23Z"/>
    <path class="cls-1" d="m202.64,472.33c-3.26,0-7.84-3.41-9.26-4.54-2.13-1.69-3.19-5.34-2.31-7.97.67-2,2.33-3.18,4.56-3.24h0c.06,0,.12,0,.18,0,3.31,0,7.13,2.2,9.15,5.29,1.78,2.72,2.03,5.79.7,8.64-.42.9-1.16,1.5-2.13,1.73-.28.07-.58.1-.89.1Zm-6.93-12.75c-.97.02-1.52.39-1.79,1.19-.48,1.44.17,3.75,1.33,4.67,3.71,2.94,7.07,4.26,7.67,3.85,1.15-2.46.38-4.5-.46-5.78-1.5-2.29-4.38-4-6.74-3.92h0Zm-.04-1.5h0,0Z"/>
    <path class="cls-1" d="m152.01,444.88c-.56,0-1.1-.32-1.36-.86l-19.16-40.43c-.23-.49-.18-1.07.13-1.51s.83-.69,1.38-.62c9.25,1.01,24.3,34.38,27.22,41.06.33.76-.01,1.64-.77,1.98-.76.33-1.64-.01-1.98-.77-5.35-12.24-14.76-30.54-21.17-36.97l17.05,35.98c.35.75.04,1.64-.71,2-.21.1-.43.14-.64.14Z"/>
    <path class="cls-1" d="m176.18,501.11c-1.47,0-2.93-.25-3.96-1.01-3.13-2.31-10.9-17.31-10.78-23.07.08-3.78,1.69-7.06,2.78-8.85-1.47-.82-3.72-2.08-5.01-2.86-2.26-1.36-4.41-6.6-5.01-8.18-.3-.77.09-1.64.86-1.94.77-.29,1.64.09,1.94.86,1.06,2.76,2.8,6.1,3.76,6.68,1.95,1.17,6.3,3.57,6.35,3.6.39.21.66.58.75,1.02.09.43-.02.88-.29,1.23-.03.04-3.02,3.92-3.12,8.5-.09,4.68,7.18,18.84,9.57,20.6.64.47,3.09.71,6.53-.23,3.19-.88,5.72-2.39,6.3-3.76.67-1.6-.83-9.68-4.3-17.57-2.34-5.32-4.37-7.64-5.49-8.04-.53-.19-1.08-.39-1.66-.59-5.89-2.07-12.57-4.42-13.87-8.4-.26-.79.17-1.63.96-1.89.78-.26,1.63.17,1.89.96.84,2.57,7.56,4.93,12.01,6.5.58.2,1.14.4,1.67.59,2.34.84,4.77,4.09,7.22,9.66,2.72,6.19,5.74,16.57,4.32,19.94-1.42,3.37-6.69,5.05-8.27,5.49-.89.24-3.02.76-5.15.76Z"/>
    <path class="cls-1" d="m178.49,496c-.77,0-1.46-.24-2-.73-1.64-1.46-9.6-16.14-9.19-19.05.34-2.43,3.25-5.3,3.82-5.85.55-.53,1.41-.55,1.99-.07,7.67,6.34,12.28,13.02,12.34,17.85.04,3.29-2.53,6.25-4.96,7.37-.7.32-1.38.48-2,.48Zm-6.23-22.49c-.93,1.05-1.89,2.37-2,3.13.08,2.06,6.83,15.11,8.22,16.39.12,0,.78-.12,1.67-.8,1.16-.88,2.32-2.47,2.3-4.04-.04-2.79-2.75-8.25-10.19-14.68Z"/>
    <path class="cls-1" d="m169,480.02s-.03,0-.04,0l-5.9-.23c-.55-.02-.98-.49-.96-1.04.02-.55.52-.99,1.04-.96l5.9.23c.55.02.98.49.96,1.04-.02.54-.46.96-1,.96Z"/>
    <path class="cls-1" d="m166.18,488.53c-.29,0-.57-.12-.76-.35-.36-.42-.3-1.05.12-1.41l5.11-4.31c.42-.36,1.05-.3,1.41.12.36.42.3,1.05-.12,1.41l-5.11,4.31c-.19.16-.42.24-.64.24Z"/>
    <path class="cls-1" d="m169.1,494.27c-.24,0-.48-.09-.67-.26-.41-.37-.44-1-.07-1.41l4.67-5.13c.37-.41,1.01-.44,1.41-.07.41.37.44,1,.07,1.41l-4.67,5.13c-.2.22-.47.33-.74.33Z"/>
    <path class="cls-1" d="m171.35,497.88c-.3,0-.6-.14-.8-.4-.33-.44-.25-1.07.19-1.4l5.19-3.94c.44-.33,1.07-.25,1.4.19.33.44.25,1.07-.19,1.4l-5.19,3.94c-.18.14-.39.2-.6.2Z"/>
    <path class="cls-1" d="m174.68,495.35c-.2,0-.4-.06-.57-.18l-4.02-2.8c-.45-.32-.57-.94-.25-1.39.31-.45.94-.57,1.39-.25l4.02,2.8c.45.32.57.94.25,1.39-.19.28-.51.43-.82.43Z"/>
    <path class="cls-1" d="m178.22,499.78c-.08,0-.15,0-.23-.03-.54-.13-.87-.66-.75-1.2l.86-3.67c.13-.54.66-.87,1.2-.75.54.13.87.66.75,1.2l-.86,3.67c-.11.46-.52.77-.97.77Z"/>
    <path class="cls-1" d="m178.12,511.43c-.14,0-.27-.03-.4-.08-.37-.16-.6-.53-.6-.93.06-3.43-2.21-5.67-4.03-7.47-1.7-1.68-3.64-3.59-1.61-5.67.39-.4,1.02-.4,1.41-.02.4.39.4,1.02.02,1.41-.51.52-.42.87,1.58,2.85,1.54,1.52,3.52,3.48,4.3,6.27.21-.52.31-1.07.3-1.64-.04-3.03-3.05-5.79-3.08-5.82-.41-.37-.44-1-.07-1.41.37-.41,1-.44,1.41-.07.15.13,3.69,3.36,3.74,7.27.03,1.88-.74,3.58-2.28,5.04-.19.18-.44.28-.69.28Z"/>
    <path class="cls-1" d="m156.71,453.84c-1.14,0-2.22-.49-2.89-1.43-1.15-1.62-.64-3.96,1.13-5.23.84-.6,1.84-.87,2.83-.77,1.03.11,1.91.61,2.48,1.41h0c.57.8.76,1.8.52,2.81-.22.96-.81,1.82-1.65,2.42-.74.53-1.59.79-2.42.79Zm.65-5.45c-.43,0-.87.15-1.26.42-.88.62-1.17,1.72-.66,2.44s1.64.8,2.52.18c.44-.32.75-.76.86-1.24.1-.44.03-.86-.21-1.19h0c-.23-.33-.61-.54-1.06-.58-.07,0-.13-.01-.2-.01Z"/>
  </g>
  <g>
    <path class="cls-1" d="m38.17,645.46c-8.85,0-14.49-8.05-17.85-12.85-.47-.67-.91-1.29-1.31-1.84-2.86-3.85-4.93-11.15-3.13-17.08,1.16-3.83,3.78-6.58,7.58-7.93.45-.16.94-.1,1.34.16.34.22,8.34,5.62,14,14.89,5.62,9.2,8.11,20.46,8.21,20.93.15.67-.18,1.36-.8,1.66-2.94,1.45-5.61,2.06-8.04,2.06Zm-14.4-36.59c-2.51,1.1-4.2,3.02-5.01,5.7-1.46,4.81.21,11.11,2.67,14.42.42.56.87,1.21,1.36,1.9,4.16,5.94,10.37,14.81,21.03,10.32-.78-3.09-3.22-11.75-7.56-18.84-4.43-7.26-10.53-12.08-12.48-13.51Z"/>
    <path class="cls-1" d="m35.01,619.41c-.59,0-1.15-.35-1.39-.93-.31-.77.05-1.64.82-1.96l11.13-4.56c.29-.12.61-.14.92-.07l4.34,1.05c.45.11.82.41,1.01.83l.83,1.8c.35.75.02,1.64-.74,1.99-.75.35-1.64.02-1.99-.74l-.52-1.13-3.16-.76-10.69,4.37c-.19.08-.38.11-.57.11Z"/>
    <path class="cls-1" d="m113.22,642.3c-3.02,0-6.02-1.15-8.29-3.36l-26.39-25.72c-4.46-4.35-11.21-5.42-16.8-2.68l-10.59,5.2c-.75.37-1.64.06-2.01-.69-.37-.74-.06-1.64.69-2.01l10.59-5.2c6.73-3.3,14.85-2.01,20.22,3.23l26.39,25.72c2.86,2.78,7.25,3.31,10.68,1.29l3.21-1.89c.71-.42,1.63-.18,2.05.53.42.71.18,1.63-.53,2.05l-3.21,1.89c-1.87,1.1-3.95,1.64-6.01,1.64Z"/>
    <path class="cls-1" d="m112.19,647.98c-4.52,0-9.01-1.73-12.42-5.06l-26.04-25.44c-2.67-2.61-6.71-3.26-10.06-1.63l-10.28,5-.16,3.09c-.03.5-.3.95-.73,1.21l-10.06,6.03c-.71.42-1.63.2-2.06-.52-.43-.71-.19-1.63.52-2.06l9.38-5.62.17-3.18c.03-.54.35-1.03.84-1.27l11.08-5.39c4.49-2.18,9.9-1.31,13.47,2.18l26.04,25.44c4.82,4.71,12.21,5.56,17.97,2.07l4.12-2.5c.71-.43,1.63-.21,2.06.5.43.71.2,1.63-.5,2.06l-4.12,2.5c-2.85,1.73-6.04,2.58-9.2,2.58Z"/>
    <path class="cls-1" d="m125.51,643.99c-.49,0-.95-.24-1.23-.65l-4.18-6.05c-.35-.51-.35-1.19,0-1.7,10.91-15.89,35.03-21.76,37.56-21.1,2.81.72,4.99,5.18,5.56,7.11.82,2.83-1.94,5.7-12.86,13.36-10.5,7.36-24.1,8.96-24.68,9.02-.06,0-.11,0-.17,0Zm-2.35-7.54l3.06,4.43c3.13-.48,14.02-2.49,22.41-8.37,10.57-7.42,11.87-9.49,11.7-10.07-.56-1.93-2.35-4.78-3.42-5.05-2.18-.23-23.35,4.89-33.75,19.06Z"/>
    <path class="cls-1" d="m129.57,642.67s-.07,0-.11,0c-.83-.06-1.45-.78-1.39-1.61,0-.16.17-4.22-4.61-6.95-.72-.41-.97-1.33-.56-2.05.41-.72,1.32-.97,2.05-.56,6.49,3.7,6.14,9.53,6.12,9.78-.06.79-.72,1.39-1.49,1.39Z"/>
    <path class="cls-1" d="m158.78,628.18c-.7,0-1.33-.49-1.47-1.2-.01-.05-1.2-5.64-5.66-9.11-.65-.51-.77-1.45-.26-2.1.51-.65,1.45-.77,2.1-.26,5.36,4.17,6.71,10.61,6.76,10.88.16.81-.36,1.6-1.17,1.77-.1.02-.2.03-.3.03Z"/>
    <path class="cls-1" d="m161.89,623c-.42,0-.83-.17-1.13-.51-.54-.62-.48-1.57.14-2.12l3.38-2.96c4.92-4.31,6.42-11.22,3.73-17.18l-8.73-19.33c-2.51-5.55-.43-12.05,4.83-15.12l48.69-28.42,1.71-3.33-2.33-.12-50.1,29.73c-6.43,3.82-8.99,11.85-5.96,18.69l8.94,20.12c2.07,4.65.94,10.1-2.81,13.54l-2.32,2.13c-.61.56-1.56.52-2.12-.09-.56-.61-.52-1.56.09-2.12l2.32-2.13c2.8-2.57,3.64-6.64,2.1-10.11l-8.94-20.12c-3.65-8.23-.57-17.89,7.17-22.49l50.49-29.96c.25-.15.55-.22.84-.21l5.1.27c.51.03.97.31,1.22.75.25.44.27.98.04,1.43l-2.96,5.78c-.13.25-.33.47-.58.61l-49.07,28.64c-3.93,2.29-5.48,7.15-3.61,11.29l8.73,19.33c3.24,7.18,1.44,15.48-4.49,20.67l-3.38,2.96c-.29.25-.64.37-.99.37Z"/>
    <path class="cls-1" d="m34.63,634.47c-.56,0-1.1-.32-1.36-.86-.07-.14-6.89-14.6-14.46-22.91-.56-.61-.51-1.56.1-2.12.61-.56,1.56-.51,2.12.1,7.88,8.64,14.68,23.05,14.96,23.66.35.75.03,1.64-.72,2-.21.1-.42.14-.64.14Z"/>
    <path class="cls-1" d="m48.22,626.98c-.66,0-1.27-.44-1.45-1.12-.57-2.14-2.59-8.07-5.14-9.75-.69-.46-.88-1.39-.42-2.08.46-.69,1.39-.88,2.08-.42,3.95,2.61,6.15,10.58,6.38,11.49.21.8-.27,1.62-1.07,1.83-.13.03-.26.05-.38.05Z"/>
    <path class="cls-1" d="m48.99,619.58c-.58,0-1.13-.34-1.38-.9,0-.01-.82-1.8-2.95-3.73-.61-.56-.66-1.5-.11-2.12.56-.62,1.5-.66,2.12-.11,2.64,2.39,3.65,4.66,3.69,4.75.33.76-.02,1.64-.78,1.97-.2.08-.4.12-.6.12Z"/>
    <g>
      <path class="cls-1" d="m164.16,569.04c-.51,0-1.01-.26-1.29-.73-.42-.71-.19-1.63.52-2.06,2.85-1.69,4.28-7.05,4.59-8.97.13-.82.9-1.37,1.72-1.24.82.13,1.37.9,1.24,1.72-.05.34-1.39,8.32-6.02,11.07-.24.14-.5.21-.76.21Z"/>
      <path class="cls-1" d="m174.82,562.76c-.51,0-1.01-.26-1.29-.73-.42-.71-.19-1.63.52-2.06,2.86-1.7,4.29-7.05,4.59-8.97.13-.82.89-1.38,1.72-1.24.82.13,1.37.9,1.24,1.72-.05.34-1.39,8.32-6.02,11.07-.24.14-.5.21-.76.21Z"/>
      <path class="cls-1" d="m185.48,556.48c-.51,0-1.01-.26-1.29-.73-.42-.71-.19-1.63.52-2.06,2.86-1.7,4.29-7.05,4.59-8.97.13-.82.9-1.38,1.72-1.24.82.13,1.37.9,1.24,1.72-.05.34-1.39,8.32-6.03,11.07-.24.14-.5.21-.76.21Z"/>
      <path class="cls-1" d="m196.14,550.21c-.51,0-1.01-.26-1.29-.73-.42-.71-.19-1.63.52-2.06,2.85-1.69,4.28-7.05,4.59-8.97.13-.82.9-1.37,1.72-1.24.82.13,1.37.9,1.24,1.72-.05.34-1.39,8.32-6.03,11.07-.24.14-.5.21-.76.21Z"/>
      <path class="cls-1" d="m206.8,543.93c-.51,0-1.01-.26-1.29-.73-.42-.71-.19-1.63.52-2.06,2.85-1.69,4.28-7.05,4.59-8.97.13-.82.9-1.37,1.72-1.24.82.13,1.37.9,1.24,1.72-.05.34-1.39,8.32-6.03,11.07-.24.14-.5.21-.76.21Z"/>
    </g>
  </g>
  <g>
    <path class="cls-1" d="m220.51,199.4c-.29,0-.57-.08-.81-.24-.33-.21-8.12-5.37-6.96-15.67.65-5.78,3.07-11.41,5.41-16.86,1.59-3.69,3.08-7.17,3.84-10.32,1.69-7.08-.47-10.73-.49-10.77-.29-.48-.3-1.09-.01-1.57l2.96-4.92,1-4.55c.1-.47.42-.86.87-1.05l3.43-1.49c-1.02-3.67-3.14-14.53.85-32.71,4.78-21.79,6.07-32.6,6.08-32.7.05-.42.27-.8.62-1.05.34-.25.78-.34,1.19-.24l21.25,4.66c.41.09.77.35.98.72.21.37.26.81.12,1.21-.03.1-3.38,10.45-8.17,32.25-3.99,18.18-10.46,27.16-12.92,30.06l2.49,2.79c.32.36.45.85.35,1.32l-1,4.55.63,5.7c.06.57-.2,1.12-.68,1.43-.02.01-3.52,2.43-4.94,9.56-.63,3.17-.73,6.96-.83,10.97-.15,5.93-.31,12.05-2.14,17.58-3.26,9.83-12.49,11.26-12.88,11.31-.07,0-.14.01-.21.01Zm3.96-54.57c.73,1.69,1.96,5.8.43,12.19-.81,3.4-2.36,6.99-4,10.8-2.25,5.25-4.59,10.67-5.19,16.01-.8,7.17,3.65,11.3,5.15,12.47,1.85-.44,7.62-2.33,9.9-9.17,1.69-5.1,1.84-11,1.99-16.71.11-4.15.21-8.06.89-11.48,1.29-6.44,4.12-9.66,5.49-10.89l-.57-5.13c-.02-.16,0-.33.03-.49l.89-4.04-2.88-3.23c-.54-.6-.5-1.52.08-2.08.08-.08,8.37-8.28,13.05-29.61,3.76-17.14,6.65-27.28,7.76-30.95l-18.06-3.96c-.54,3.8-2.16,14.22-5.92,31.36-4.68,21.33-.59,32.25-.54,32.35.29.75-.06,1.6-.8,1.92l-3.97,1.73-.89,4.04c-.04.16-.1.31-.18.45l-2.66,4.42Z"/>
    <path class="cls-1" d="m236.1,143.53c-.92,0-4.61-.2-10.67-2.99-.5-.23-.72-.83-.49-1.33.23-.5.82-.72,1.33-.49,6.38,2.94,9.91,2.81,9.94,2.81.02,0,.03,0,.05,0,.53,0,.97.41,1,.95.03.55-.39,1.02-.94,1.05-.02,0-.09,0-.22,0Z"/>
    <path class="cls-1" d="m238.05,149.91c-4.38,0-8.21-1.47-8.41-1.55-.51-.2-.77-.78-.57-1.29.2-.51.78-.77,1.29-.57.05.02,5.31,2.03,10.18,1.21.55-.09,1.06.28,1.15.82.09.54-.28,1.06-.82,1.15-.95.16-1.9.23-2.83.23Z"/>
    <path class="cls-1" d="m232.13,167.83c-3.37,0-7.25-1.08-11.56-3.22-.5-.25-.7-.85-.45-1.34.25-.5.85-.7,1.34-.45,3.43,1.7,8.43,3.58,12.74,2.84.55-.09,1.06.27,1.15.82.09.54-.27,1.06-.82,1.15-.77.13-1.57.2-2.41.2Z"/>
    <path class="cls-1" d="m232.21,175.78c-4.02,0-9.91-1.42-14.65-4.28-.47-.29-.62-.9-.34-1.37.29-.47.9-.63,1.37-.34,5.71,3.45,12.55,4.35,15.36,3.86.56-.09,1.06.27,1.15.82.09.54-.27,1.06-.82,1.15-.61.1-1.31.16-2.08.16Z"/>
    <path class="cls-1" d="m228.73,190.57c-3.86,0-10.43-.6-15.21-4.22-.44-.33-.53-.96-.19-1.4.33-.44.96-.53,1.4-.19,6.38,4.83,16.83,3.69,16.94,3.68.55-.06,1.04.33,1.11.88.06.55-.33,1.04-.88,1.11-.15.02-1.36.15-3.17.15Z"/>
    <path class="cls-1" d="m239.88,139c-2.54,0-8.29-.36-13.47-3.28-.48-.27-.65-.88-.38-1.36.27-.48.88-.65,1.36-.38,6.21,3.5,13.57,3,13.65,2.99.55-.03,1.03.37,1.07.92.04.55-.37,1.03-.92,1.07-.08,0-.55.04-1.31.04Z"/>
    <path class="cls-1" d="m237.72,135.66c-.11,0-.21-.01-.32-.04l-6.15-1.35c-.81-.18-1.32-.98-1.14-1.79.18-.81.97-1.32,1.79-1.14l6.15,1.35c.81.18,1.32.98,1.14,1.79-.15.7-.77,1.18-1.46,1.18Z"/>
    <path class="cls-1" d="m258.39,75.77c-.07,0-.14,0-.21-.02l-20.72-4.55c-.54-.12-.88-.65-.76-1.19.12-.54.66-.88,1.19-.76l20.72,4.55c.54.12.88.65.76,1.19-.1.47-.52.79-.98.79Z"/>
    <path class="cls-1" d="m233.2,133.92c-.07,0-.14,0-.21-.02-.54-.12-.88-.65-.76-1.19l.67-3.05c.12-.54.65-.88,1.19-.76.54.12.88.65.76,1.19l-.67,3.05c-.1.47-.52.79-.98.79Z"/>
  </g>
  <g>
    <path class="cls-1" d="m23.23,477.85c-.77,0-1.53-.17-2.23-.52l-7.88-3.87c-2.52-1.24-3.57-4.3-2.33-6.83l44.21-90.07c.37-.74,1.26-1.05,2.01-.69s1.05,1.26.69,2.01l-44.21,90.07c-.51,1.04-.08,2.3.96,2.81l7.88,3.87c.5.25,1.07.28,1.6.1.53-.18.96-.56,1.21-1.06l44.21-90.07c.37-.74,1.26-1.05,2.01-.69s1.05,1.26.69,2.01l-44.21,90.07c-.6,1.22-1.64,2.13-2.93,2.58-.54.19-1.1.28-1.66.28Z"/>
    <path class="cls-1" d="m77,372.91c-.22,0-.45-.05-.66-.15-.74-.36-1.05-1.26-.69-2.01.51-1.04.08-2.3-.96-2.81l-7.88-3.87c-1.04-.51-2.3-.08-2.81.96-.37.75-1.26,1.05-2.01.69-.74-.37-1.05-1.26-.69-2.01,1.24-2.52,4.3-3.57,6.83-2.33l7.88,3.87c2.52,1.24,3.57,4.3,2.33,6.83-.26.53-.79.84-1.35.84Z"/>
    <path class="cls-1" d="m88.99,394.28c-.57,0-1.15-.13-1.68-.39l-35.65-17.5c-.12-.06-.24-.14-.34-.23l-14.95-13.42c-.95-.86-1.21-2.2-.65-3.35.56-1.15,1.78-1.77,3.05-1.54l19.76,3.62c.14.03.27.07.39.13l35.65,17.5c1.88.93,2.67,3.21,1.74,5.1l-3.9,7.96c-.45.91-1.23,1.6-2.19,1.93-.4.14-.82.21-1.24.21Zm-35.81-20.49l35.46,17.41c.19.1.41.11.62.04.21-.07.37-.22.47-.41l3.9-7.95c.2-.4.03-.89-.37-1.08l-35.46-17.41-18.97-3.47,14.35,12.88Z"/>
    <path class="cls-1" d="m94.59,385.3c-.2,0-.4-.06-.57-.18l-17.8-12.47c-.45-.32-.56-.94-.25-1.39.32-.45.94-.56,1.39-.25l17.8,12.47c.45.32.56.94.25,1.39-.2.28-.5.43-.82.43Z"/>
    <path class="cls-1" d="m91.44,391.72c-.1,0-.2-.02-.3-.05l-20.67-6.62c-.53-.17-.82-.73-.65-1.26s.73-.81,1.26-.65l20.67,6.62c.53.17.82.73.65,1.26-.14.42-.53.7-.95.7Z"/>
    <path class="cls-1" d="m14.74,473.59c-.15,0-.3-.03-.44-.1-.5-.24-.7-.84-.46-1.34l12.68-25.84c.24-.5.84-.7,1.34-.46.5.24.7.84.46,1.34l-12.68,25.84c-.17.35-.53.56-.9.56Z"/>
    <path class="cls-1" d="m57.2,385.92c-.15,0-.3-.03-.44-.1-.5-.24-.7-.84-.46-1.34l2.87-5.86c.24-.5.84-.7,1.34-.46.5.24.7.84.46,1.34l-2.87,5.86c-.17.35-.53.56-.9.56Z"/>
    <path class="cls-1" d="m51.28,412.82c-.15,0-.3-.03-.44-.1-.5-.24-.7-.84-.46-1.34l14.66-29.88c.24-.5.84-.7,1.34-.46.5.24.7.84.46,1.34l-14.66,29.88c-.17.35-.53.56-.9.56Z"/>
    <path class="cls-1" d="m42.58,428.23c-.15,0-.3-.03-.44-.1-.5-.24-.7-.84-.46-1.34l3.33-6.78c.24-.5.84-.7,1.34-.46.5.24.7.84.46,1.34l-3.33,6.78c-.17.35-.53.56-.9.56Z"/>
    <path class="cls-1" d="m42.13,416.63c-.15,0-.3-.03-.44-.1-.5-.24-.7-.84-.46-1.34l5.58-11.37c.24-.5.84-.7,1.34-.46.5.24.7.84.46,1.34l-5.58,11.37c-.17.35-.53.56-.9.56Z"/>
    <path class="cls-1" d="m66.47,367.97c-.15,0-.3-.03-.44-.1-.5-.24-.7-.84-.46-1.34l.79-1.6c.24-.5.84-.7,1.34-.46s.7.84.46,1.34l-.79,1.6c-.17.35-.53.56-.9.56Z"/>
    <path class="cls-1" d="m74.51,369.19c-.15,0-.3-.03-.44-.1-.5-.24-.7-.84-.46-1.34l.51-1.04c.24-.5.84-.7,1.34-.46.5.24.7.84.46,1.34l-.51,1.04c-.17.35-.53.56-.9.56Z"/>
  </g>
  <g>
    <path class="cls-3" d="m62.66,96.65l4.25-3.27s-6.25-5.25-1.28-13.11c4.97-7.87,18.9-8.72,18.9-8.72,0,0-20.64-13.8-40.2,1.22-19.56,15.02-11.56,38.52-11.56,38.52,0,0,4.42-13.24,13.3-16.01,8.89-2.77,12.34,4.63,12.34,4.63l4.25-3.27Z"/>
    <path class="cls-1" d="m32.77,108.8c-.64,0-1.21-.41-1.42-1.02-.08-.25-8.12-24.7,12.07-40.2.66-.5,1.6-.38,2.1.28.5.66.38,1.6-.28,2.1-13.56,10.41-13.22,25.23-12.04,32.5,2.17-4.36,6.26-10.68,12.42-12.6,6.71-2.08,11.12,1.04,13.2,3.85l2.93-2.25c.66-.5,1.6-.38,2.1.28.5.66.38,1.6-.28,2.1l-4.25,3.27c-.36.28-.83.38-1.27.27-.44-.11-.81-.41-1-.82-.12-.25-3.05-6.16-10.53-3.83-8.04,2.5-12.28,14.92-12.33,15.05-.21.61-.78,1.02-1.42,1.02h0Z"/>
    <path class="cls-1" d="m65.33,106.43c-.46,0-.91-.21-1.19-.58l-6.92-9.01c-.39-.5-.42-1.2-.07-1.73.35-.53,1-.79,1.62-.63l8.34,2.06c.8.2,1.3,1.01,1.1,1.82-.2.8-1.02,1.3-1.82,1.1l-4.18-1.03,3.16,4.11c.67-.73,1.62-1.65,2.87-2.61.66-.5,1.6-.38,2.1.28.5.66.38,1.6-.28,2.1-2.37,1.82-3.47,3.45-3.48,3.47-.27.4-.72.65-1.2.67-.02,0-.03,0-.05,0Z"/>
    <path class="cls-1" d="m88.03,136.97c-3.41,0-6.31-1.93-8.45-4.01-6.21-6.03-15.24-26.56-15.62-27.43-.33-.76.01-1.64.77-1.98.76-.33,1.64.01,1.98.77.09.21,9.17,20.86,14.96,26.48,5.09,4.94,8.86,3.07,11.25,1.24.66-.5,1.6-.38,2.1.28.5.66.38,1.6-.28,2.1-2.38,1.83-4.64,2.54-6.71,2.54Z"/>
    <path class="cls-1" d="m32.77,108.8c-.83,0-1.5-.67-1.5-1.49-.1-21.12,8.11-30.15,15.27-35.65.65-.5,1.6-.38,2.1.28.5.66.38,1.6-.28,2.1-7.03,5.4-14.2,13.57-14.1,33.25,0,.83-.66,1.5-1.49,1.51h0Z"/>
    <path class="cls-1" d="m62.66,94.15c-.45,0-.9-.2-1.19-.59-.5-.66-.38-1.6.28-2.1l2.93-2.25c-2.18-2.73-4.06-7.8-.31-13.74,3.46-5.49,10.68-7.8,15.46-8.76-6.66-3.07-20.82-7.3-34.58,3.26-.65.5-1.6.38-2.1-.28-.5-.66-.38-1.6.28-2.1,20.18-15.5,41.73-1.42,41.95-1.28.54.36.78,1.02.61,1.64-.17.62-.71,1.07-1.36,1.11-.13,0-13.23.9-17.72,8.02-4.22,6.68.76,10.98.98,11.17.35.29.54.73.54,1.18,0,.46-.23.88-.59,1.16l-4.25,3.27c-.27.21-.59.31-.91.31Z"/>
    <path class="cls-1" d="m69.15,102.6c-.45,0-.9-.2-1.19-.59-.5-.66-.38-1.6.28-2.1,1.24-.96,2.38-1.63,3.26-2.1l-3.16-4.11-.08,4.31c-.02.83-.69,1.46-1.53,1.47-.83-.02-1.49-.7-1.47-1.53l.16-8.59c.01-.64.43-1.2,1.03-1.4.61-.2,1.27,0,1.66.51l6.92,9.01c.3.38.39.89.24,1.35-.14.46-.5.83-.96.98-.01,0-1.88.65-4.24,2.46-.27.21-.59.31-.91.31Z"/>
    <path class="cls-1" d="m93.82,134.74c-.45,0-.9-.2-1.19-.59-.5-.66-.38-1.6.28-2.1,2.39-1.84,5.17-4.99,1.71-11.19-3.94-7.05-21.54-21.15-21.72-21.29-.65-.52-.75-1.46-.24-2.11.52-.65,1.46-.75,2.11-.24.74.59,18.24,14.61,22.46,22.17,2.34,4.18,3.8,10.19-2.5,15.03-.27.21-.59.31-.91.31Z"/>
    <path class="cls-1" d="m47.46,74.35c-.45,0-.9-.2-1.19-.59-.5-.66-.38-1.6.28-2.1,7.17-5.5,18-11.1,38.38-5.55.8.22,1.27,1.04,1.05,1.84s-1.04,1.27-1.84,1.05c-19-5.18-28.74-.36-35.77,5.03-.27.21-.59.31-.91.31Z"/>
    <path class="cls-1" d="m78.85,124.4c-.3,0-.6-.13-.79-.39-.39-.51-9.68-12.68-11.21-20.81-.1-.54.25-1.07.8-1.17.55-.1,1.07.25,1.17.8,1.44,7.67,10.73,19.84,10.83,19.96.34.44.25,1.07-.18,1.4-.18.14-.4.21-.61.21Z"/>
    <path class="cls-1" d="m88.3,121.87c-.34,0-.67-.17-.86-.49-.02-.04-2.34-3.88-7.54-9.05-.39-.39-.39-1.02,0-1.41.39-.39,1.02-.39,1.41,0,5.4,5.37,7.75,9.28,7.85,9.45.28.47.13,1.09-.35,1.37-.16.1-.34.14-.51.14Z"/>
    <path class="cls-1" d="m93.2,134.69c-.1,0-.2-.01-.3-.05-5.44-1.71-8.51-4.08-8.63-4.18-.43-.34-.51-.97-.17-1.4.34-.44.97-.51,1.4-.17.03.02,2.93,2.26,8,3.85.53.17.82.73.65,1.25-.13.43-.53.7-.95.7Z"/>
  </g>
  <g>
    <polyline class="cls-3" points="239.21 630.74 257.94 560.97 249.39 574.38 242.63 593.84 233.54 632.85 234.85 636.06 237.5 634.14"/>
    <polyline class="cls-3" points="240.67 631.25 269.23 564.89 267.63 580.71 260.86 600.18 243.81 636.42 240.79 638.12 239.91 634.97"/>
    <path class="cls-1" d="m241.52,645.94c-3.52,0-6.9-1.97-8.53-5.34-2.27-4.7-.3-10.37,4.39-12.65.75-.36,1.64-.05,2,.7.36.75.05,1.64-.7,2-3.21,1.55-4.55,5.43-3,8.64,1.56,3.21,5.43,4.55,8.64,3,1.55-.75,2.72-2.07,3.29-3.7.57-1.63.46-3.39-.29-4.94-.36-.75-.05-1.64.7-2s1.64-.05,2,.7c1.1,2.28,1.25,4.84.42,7.23-.83,2.39-2.54,4.31-4.82,5.41-1.33.64-2.73.95-4.11.95Z"/>
    <path class="cls-1" d="m242.6,634.84c-.16,0-.33-.03-.49-.08-1.69-.58-2.58-2.43-2-4.12.59-1.68,2.43-2.58,4.12-2,.78.27,1.2,1.13.92,1.91-.27.78-1.12,1.2-1.91.92-.12-.04-.26.02-.3.15-.04.12.02.26.15.3.78.27,1.2,1.13.92,1.91-.21.62-.8,1.01-1.42,1.01Z"/>
    <path class="cls-1" d="m238.59,636.8c-.14,0-.27-.02-.41-.06-.44-.13-.8-.45-.98-.88l-1.32-3.21c-.12-.29-.14-.61-.07-.91l9.09-39.01c.01-.05.03-.1.04-.15l6.76-19.46c.04-.11.09-.22.15-.31l8.55-13.41c.4-.62,1.19-.86,1.87-.57.68.3,1.04,1.05.84,1.76l-18.73,69.77c-.21.8-1.04,1.28-1.84,1.06-.8-.21-1.27-1.04-1.06-1.84l16.2-60.36-3.21,5.04-6.68,19.22-8.97,38.46.41,1,1.1-.8c.67-.49,1.61-.34,2.1.33.49.67.34,1.61-.33,2.1l-2.65,1.93c-.26.19-.57.29-.88.29Z"/>
    <path class="cls-1" d="m243.17,634.94c-.36,0-.72-.06-1.06-.18-.78-.27-1.2-1.13-.92-1.91.27-.78,1.12-1.2,1.91-.92.13.04.26-.02.3-.15.04-.12-.02-.26-.15-.3-.78-.27-1.2-1.13-.92-1.91.27-.78,1.12-1.2,1.91-.92,1.68.59,2.58,2.43,1.99,4.12-.28.82-.87,1.47-1.65,1.85-.45.22-.93.33-1.41.33Z"/>
    <path class="cls-1" d="m244.52,638.86c-.19,0-.39-.04-.57-.11-.43-.18-.75-.54-.87-.98l-.88-3.15c-.22-.8.24-1.62,1.04-1.85.79-.22,1.62.24,1.85,1.04l.37,1.31.94-.53,16.81-35.74,6.68-19.22.6-5.95-24.71,57.4c-.33.76-1.21,1.11-1.97.79-.76-.33-1.11-1.21-.79-1.97l28.56-66.35c.29-.68,1.03-1.05,1.75-.86.72.19,1.19.87,1.12,1.6l-1.61,15.82c-.01.12-.04.23-.08.34l-6.76,19.46s-.04.1-.06.15l-17.05,36.24c-.13.28-.35.51-.62.67l-3.03,1.71c-.23.13-.48.19-.74.19Z"/>
    <path class="cls-1" d="m237.84,648.52c-.16,0-.33-.03-.49-.08-.78-.27-1.2-1.13-.92-1.91l1.2-3.46c-.67-.33-1.01-1.12-.76-1.84.27-.78,1.12-1.2,1.91-.92l1.25.43c.38.13.68.41.86.76.17.36.2.77.07,1.15l-1.69,4.87c-.22.62-.8,1.01-1.42,1.01Z"/>
    <path class="cls-1" d="m237.84,648.52c-.16,0-.33-.03-.49-.08-.78-.27-1.2-1.13-.92-1.91l1.69-4.87c.27-.78,1.12-1.2,1.91-.92l1.25.43c.78.27,1.2,1.13.92,1.91-.25.73-1.01,1.13-1.74.97l-1.2,3.46c-.22.62-.8,1.01-1.42,1.01Z"/>
    <path class="cls-1" d="m263.53,617.18c-.2,0-.4-.04-.59-.12l-4.73-2.04c-.76-.33-1.11-1.21-.78-1.97s1.21-1.11,1.97-.78l3.36,1.45c.38-.65,1.19-.93,1.89-.62.76.33,1.11,1.21.78,1.97l-.52,1.21c-.25.57-.8.9-1.38.9Z"/>
    <path class="cls-1" d="m263.01,618.39c-.2,0-.4-.04-.59-.12-.7-.3-1.06-1.09-.84-1.8l-3.36-1.45c-.76-.33-1.11-1.21-.78-1.97s1.21-1.11,1.97-.78l4.73,2.04c.76.33,1.11,1.21.78,1.97l-.52,1.21c-.25.57-.8.9-1.38.9Z"/>
  </g>
  <g>
    <path class="cls-1" d="m89.26,565.23c-.06,0-.12,0-.17,0-.82-.1-1.41-.84-1.32-1.66l5.05-43.64c.09-.81.83-1.41,1.63-1.32.54.05,1.11.09,1.57.12.07-.63.15-1.46.22-2.18.41-4.25.75-7.35,1.4-8.58.3-.56.7-1.12,1.13-1.71,1.08-1.48,2.41-3.32,2.82-6.21.19-1.37-.04-2.49-.69-3.32-1-1.29-2.74-1.67-3.69-1.78-.82-.1-1.41-.84-1.32-1.66.1-.82.84-1.41,1.66-1.32,2.44.28,4.47,1.32,5.71,2.92,1.14,1.48,1.59,3.4,1.29,5.57-.5,3.64-2.15,5.91-3.36,7.56-.38.53-.71.98-.91,1.35-.42.82-.86,5.31-1.07,7.47-.38,3.93-.41,4.26-1.27,4.69-.26.13-.56.29-2.33.19l-4.88,42.2c-.09.76-.74,1.33-1.49,1.33Z"/>
    <path class="cls-1" d="m89.26,565.23c-.06,0-.12,0-.17,0-.82-.1-1.41-.84-1.32-1.66l4.88-42.2c-1.74-.3-2-.53-2.23-.72-.74-.62-.69-.94-.17-4.86.29-2.15.89-6.61.67-7.51-.11-.4-.32-.92-.58-1.52-.79-1.89-1.88-4.47-1.54-8.13.2-2.18,1.08-3.95,2.53-5.13,1.57-1.28,3.79-1.83,6.23-1.54.82.09,1.41.84,1.32,1.66-.1.82-.84,1.41-1.66,1.32-.95-.11-2.73-.14-4,.89-.82.67-1.3,1.7-1.43,3.08-.27,2.91.61,5,1.32,6.69.29.68.55,1.31.71,1.93.35,1.34-.03,4.44-.6,8.67-.1.72-.21,1.55-.28,2.18.46.08,1.02.17,1.56.25.81.11,1.38.85,1.29,1.66l-5.05,43.64c-.09.76-.74,1.33-1.49,1.33Z"/>
    <path class="cls-1" d="m98.97,509.65c-.13,0-.26-.02-.38-.08-1.88-.78-2.9-.85-2.91-.85-.55-.04-.97-.51-.94-1.05.03-.55.5-.98,1.04-.94.13,0,1.36.09,3.57,1,.51.21.75.79.54,1.31-.16.39-.53.62-.92.62Z"/>
    <path class="cls-1" d="m102.7,502.39c-.26,0-.51-.1-.71-.3-2.64-2.66-7.69-2.53-7.75-2.54-.54.06-1.01-.42-1.03-.97-.02-.55.41-1.01.96-1.03.24,0,5.97-.17,9.23,3.13.39.39.39,1.03,0,1.41-.2.19-.45.29-.7.29Z"/>
    <path class="cls-1" d="m97.41,518.12s-.04,0-.06,0c-3.5-.22-5.35-.61-5.42-.63-.54-.12-.88-.65-.77-1.19.12-.54.65-.89,1.19-.77.02,0,1.79.38,5.13.59.55.04.97.51.93,1.06-.03.53-.47.94-1,.94Z"/>
  </g>
  <path class="cls-2" d="m360.71,291.06c.06.23.09.47.09.71v37.22c0,.97-.52,1.87-1.36,2.35l-31.24,17.99v35.65c0,.97-.52,1.87-1.36,2.35l-65.22,37.54c-.15.08-.31.14-.47.2-.06.02-.12.06-.18.07-.46.12-.94.12-1.39,0-.07-.02-.14-.06-.21-.09-.15-.05-.31-.1-.45-.18l-65.2-37.54c-.84-.48-1.36-1.38-1.36-2.35v-111.67c0-.24.03-.48.09-.71.02-.08.07-.15.09-.23.05-.14.1-.29.17-.42.05-.09.13-.16.19-.24.08-.11.15-.22.24-.32.08-.08.18-.14.27-.2.1-.08.19-.17.3-.23h0l32.6-18.77c.84-.48,1.87-.48,2.71,0l32.6,18.77h0c.11.07.2.15.3.23.09.07.19.13.26.2.09.1.16.21.24.32.06.08.14.15.18.24.08.14.12.28.18.42.03.08.07.15.09.23.06.23.09.47.09.71v69.75l27.17-15.64v-35.66c0-.24.03-.48.09-.71.02-.08.07-.15.09-.23.05-.14.1-.29.18-.42.05-.09.13-.16.18-.24.08-.11.15-.22.24-.32.08-.08.18-.14.26-.2.1-.08.19-.17.3-.23h0l32.61-18.77c.84-.48,1.87-.48,2.71,0l32.6,18.77c.12.07.2.15.31.23.08.07.18.13.26.2.09.1.16.21.24.32.06.08.14.15.18.24.08.13.12.28.18.42.03.08.07.15.09.23Zm-5.34,36.36v-30.95l-11.41,6.57-15.76,9.08v30.95l27.17-15.64h0Zm-32.6,55.99v-30.97l-15.5,8.85-44.27,25.27v31.27l59.78-34.41Zm-124.98-105.4v105.4l59.77,34.41v-31.26l-31.23-17.67h-.01s-.01-.01-.01-.01c-.11-.06-.19-.15-.29-.22-.08-.07-.18-.12-.26-.2h0c-.09-.09-.15-.2-.22-.3-.07-.09-.15-.17-.2-.26h0c-.06-.11-.1-.23-.14-.35-.04-.1-.1-.2-.13-.31h0c-.03-.13-.04-.27-.05-.4-.01-.1-.04-.2-.04-.31h0v-72.88l-15.76-9.08-11.41-6.56h0Zm29.89-20.33l-27.16,15.64,27.16,15.64,27.16-15.64-27.16-15.63h0Zm14.13,97.58l15.76-9.07v-68.18l-11.41,6.57-15.76,9.08v68.18l11.41-6.57Zm83.68-79.13l-27.16,15.64,27.16,15.64,27.16-15.64-27.16-15.63Zm-2.72,35.98l-15.76-9.08-11.41-6.57v30.95l15.76,9.07,11.41,6.57v-30.95Zm-62.5,69.75l39.84-22.74,19.91-11.37-27.14-15.63-31.25,17.99-28.48,16.4,27.12,15.35Z"/>
  <path class="cls-3" d="m359.34,114.75l-2.63,18.68-14.86-11.62-13.98,5.64,38.62,30.2,6.84-48.54-13.98,5.64Z"/>
  <path class="cls-1" d="m381.85,187.62c-.33,0-.66-.11-.92-.32l-64.36-50.33c-.42-.33-.64-.86-.56-1.39.08-.53.43-.98.92-1.18l29.13-11.76c.5-.2,1.06-.12,1.49.21l12.82,10.02,2.27-16.11c.08-.53.43-.98.92-1.18l29.13-11.76c.5-.2,1.06-.12,1.49.21.42.33.64.86.56,1.39l-11.41,80.9c-.08.53-.43.98-.92,1.18-.18.07-.37.11-.56.11Zm-61.39-51.41l60.27,47.13,10.68-75.76-25.92,10.46-2.51,17.83c-.08.53-.43.98-.92,1.18-.5.2-1.06.12-1.49-.21l-14.18-11.09-25.92,10.46Z"/>
  <path class="cls-1" d="m371.26,161.37c-.33,0-.66-.11-.92-.32l-38.62-30.2c-.42-.33-.64-.86-.56-1.39.08-.53.43-.98.92-1.18l13.98-5.64c.5-.2,1.06-.12,1.49.21l12.82,10.02,2.27-16.11c.08-.53.43-.98.92-1.18l13.98-5.64c.5-.2,1.06-.12,1.49.21.42.33.64.86.56,1.39l-6.84,48.54c-.08.53-.43.98-.92,1.18-.18.07-.37.11-.56.11Zm-35.65-31.28l34.52,27,6.12-43.39-10.77,4.35-2.51,17.83c-.08.53-.43.98-.92,1.18-.5.2-1.06.12-1.49-.21l-14.18-11.09-10.77,4.35Z"/>
  <path class="cls-2" d="m463.06,366.33c-14.84-3.43-25.82,1.85-32.96,15.82,7.28-6.13,14.41-7.41,21.4-3.84,3.99,2.04,6.3,5.81,8.87,9.98,4.17,6.8,9.01,14.67,22.8,17.85,14.84,3.43,25.82-1.85,32.96-15.82-7.28,6.13-14.41,7.41-21.4,3.84-3.99-2.04-6.3-5.81-8.87-9.98-4.17-6.8-9.01-14.67-22.8-17.85Zm-35.53,26.95c-14.84-3.43-25.82,1.85-32.96,15.82,7.28-6.13,14.41-7.41,21.4-3.84,3.99,2.04,6.3,5.81,8.87,9.98,4.17,6.8,9.01,14.67,22.8,17.85,14.84,3.43,25.82-1.85,32.96-15.82-7.28,6.13-14.41,7.41-21.4,3.84-3.99-2.04-6.3-5.81-8.87-9.98-4.17-6.8-9.01-14.67-22.8-17.85Z"/>
  <path class="cls-1" d="m456.39,442.1c-2.74,0-5.63-.35-8.67-1.05-14.4-3.33-19.58-11.76-23.74-18.53-2.5-4.07-4.66-7.58-8.27-9.43-6.46-3.3-12.92-2.1-19.75,3.66-.55.46-1.34.47-1.9.03-.56-.44-.73-1.22-.4-1.86,7.46-14.6,19.11-20.19,34.64-16.6h0c14.4,3.33,19.58,11.76,23.74,18.53,2.51,4.08,4.66,7.59,8.27,9.43,6.46,3.3,12.92,2.1,19.75-3.66.55-.46,1.34-.47,1.9-.03.56.44.73,1.22.4,1.86-6,11.75-14.71,17.66-25.96,17.66Zm-47.77-33.82c2.84,0,5.66.71,8.46,2.14,4.36,2.23,6.84,6.26,9.46,10.53,4.07,6.62,8.68,14.13,21.86,17.18,11.94,2.76,21.07-.28,27.75-9.27-5.79,2.94-11.56,2.97-17.21.09-4.36-2.22-6.83-6.25-9.45-10.52-4.08-6.64-8.69-14.14-21.86-17.19h0c-11.94-2.76-21.07.28-27.75,9.27,2.93-1.49,5.85-2.23,8.75-2.23Zm83.31,6.87c-2.74,0-5.63-.35-8.67-1.05-14.4-3.33-19.58-11.76-23.74-18.53-2.51-4.08-4.66-7.59-8.27-9.43-6.46-3.3-12.92-2.1-19.75,3.66-.55.46-1.34.47-1.9.03-.56-.44-.73-1.22-.4-1.86,7.46-14.61,19.11-20.19,34.64-16.61h0c14.4,3.33,19.58,11.76,23.74,18.53,2.51,4.08,4.66,7.59,8.27,9.43,6.46,3.3,12.92,2.1,19.75-3.66.55-.46,1.34-.47,1.9-.03.56.44.73,1.22.4,1.86-6,11.74-14.71,17.66-25.96,17.66Zm-47.77-33.82c2.84,0,5.66.71,8.46,2.14,4.36,2.22,6.83,6.25,9.45,10.52,4.08,6.64,8.69,14.14,21.87,17.19,11.94,2.76,21.07-.27,27.75-9.27-5.8,2.94-11.56,2.98-17.21.09-4.36-2.22-6.83-6.25-9.45-10.51-4.08-6.64-8.69-14.15-21.87-17.19-11.94-2.76-21.07.28-27.75,9.27,2.93-1.49,5.85-2.23,8.75-2.23Z"/>
  <g>
    <path class="cls-3" d="m446.47,248.66c-2.6-.97-3.87-3.72-4.29-6.27-.29-7.14,9.65-11.5,13.39-4.49,3,5.78-2.73,13.32-9.1,10.76Zm1.2-5.78c3.99,1.66,6.81-4.68,2.49-6.35-4.16-1.78-6.73,4.75-2.49,6.35Z"/>
    <path class="cls-3" d="m456.39,274.17c-13.93,11.26-7.55-6.75-16.69-7.07-3.67,1.26-8.41,7.29-11.36,1.56-1.26-2.13-.72-5.53-2.74-7.07-6.05-5.76-18.28,17.14-15.1-13.67,5.82-35.34,53.6-45.01,70.38-12.62,4.5,10.66,5.34,23.4.19,34.09-2.89,5.58-8.93,18.64-16.56,13.94-2.59-3.1-1.98-11.63-8.13-9.16Zm10.98-24.97s.07.03.1.04c3.81-26.25-29.85-31.84-36.61-7.06-5.98,22.71,33.54,31.27,36.5,7.02Z"/>
    <path class="cls-1" d="m472.06,292.55c-1.37,0-2.73-.41-4.05-1.23-.14-.08-.26-.19-.36-.32-1.03-1.23-1.59-2.99-2.13-4.68-.56-1.77-1.2-3.77-2.22-4.25-.44-.21-1.07-.16-1.87.13-3.99,3.19-6.74,4.34-8.91,3.72-2.36-.67-3.21-3.09-4.03-5.42-1.07-3.05-1.91-4.95-4.28-5.17-.79.32-1.69.92-2.65,1.54-2.1,1.37-4.49,2.93-6.88,2.29-1.38-.37-2.52-1.41-3.39-3.1-.61-1.02-.85-2.26-1.09-3.46-.26-1.31-.5-2.54-1.23-3.11-.04-.03-.09-.07-.12-.11-1.28-1.22-3.26-.28-6.14,1.29-2.54,1.38-5.16,2.81-7.36,1.35-2.57-1.71-3.17-6.8-2.06-17.55,2.87-17.45,16-30.46,33.46-33.23,16.73-2.65,31.95,5.04,39.74,20.08.02.04.04.07.05.11,5.09,12.07,5.15,24.95.16,35.32l-.55,1.08c-2.46,4.82-6.57,12.88-12.14,14.44-.65.18-1.3.27-1.95.27Zm-2.26-3.65c1.15.65,2.26.81,3.4.49,4.3-1.21,8.19-8.82,10.28-12.92l.54-1.06c4.59-9.54,4.52-21.5-.22-32.76-8.58-16.52-24.53-20.35-36.58-18.44-16.17,2.57-28.32,14.6-30.96,30.67-1.23,11.95.11,14.23.75,14.65.7.46,2.67-.62,4.26-1.49,2.96-1.61,6.63-3.62,9.58-.88,1.59,1.25,1.96,3.17,2.29,4.86.19.99.38,1.93.77,2.58.51.98,1.01,1.51,1.54,1.65,1.11.3,2.9-.88,4.48-1.91,1.17-.76,2.38-1.55,3.57-1.96.17-.06.35-.1.54-.08,4.82.17,6.24,4.23,7.28,7.2.57,1.62,1.15,3.29,2.02,3.53.63.18,2.3-.02,6.39-3.32.12-.09.24-.17.38-.22,1.7-.68,3.2-.73,4.46-.14,2.2,1.03,3.01,3.58,3.8,6.05.42,1.32.85,2.67,1.43,3.49Zm-15.19-16.89c-5.73,0-11.6-2.09-15.83-5.92-5.06-4.58-6.87-10.82-5.09-17.57,3.68-13.48,15.12-18.55,24.51-16.6,8.96,1.87,17.09,10.09,15.03,24.26-.03.19-.09.36-.18.52-1.01,6.78-4.89,11.74-10.97,14.01-2.35.88-4.9,1.3-7.47,1.3Zm-.46-37.5c-7.03,0-14.7,4.31-17.56,14.79-1.47,5.6.02,10.78,4.21,14.57,5.25,4.75,13.76,6.45,20.24,4.03,3.65-1.36,8.2-4.57,9.12-12.16.02-.2.09-.39.18-.56,1.49-11.89-5.28-18.77-12.75-20.32-1.11-.23-2.27-.35-3.44-.35Z"/>
    <path class="cls-1" d="m439.41,303.98c-.95,0-1.91-.18-2.84-.55-2.45-.98-4.17-3.06-4.61-5.57-.02-.13-.03-.25-.02-.38.4-4.84,2.39-9.49,4.31-13.98,1.18-2.75,2.4-5.59,3.18-8.36.07-.26.22-.5.41-.68,1.98-1.87,3.9-2.6,5.72-2.15,3.47.85,5.09,5.53,6.4,9.29l.36,1.02c.14.38.11.81-.07,1.18-1.04,2.08-1.77,4.39-2.55,6.83-1.34,4.21-2.72,8.56-5.82,11.78-.06.06-.12.12-.19.17-1.26.93-2.76,1.41-4.29,1.41Zm-4.46-6.46c.31,1.4,1.32,2.56,2.73,3.12,1.42.57,2.95.41,4.13-.41,2.55-2.71,3.75-6.5,5.03-10.51.71-2.24,1.45-4.55,2.45-6.69l-.16-.45c-.9-2.58-2.39-6.9-4.28-7.36-.84-.21-1.86.46-2.65,1.15-.84,2.82-2.03,5.61-3.19,8.31-1.88,4.4-3.67,8.55-4.06,12.83Z"/>
    <path class="cls-1" d="m460.69,303.69c-1.07,0-2.2-.27-3.39-.82-.09-.04-.17-.09-.25-.14-5.83-4.14-2.73-10.69-.24-15.94,1.07-2.26,2.08-4.4,2.39-6.15.09-.51.44-.94.92-1.14,1.7-.68,3.21-.72,4.46-.13,2.2,1.03,3.01,3.59,3.8,6.05.45,1.42.92,2.88,1.57,3.67.36.44.45,1.04.22,1.56-.39.87-.76,1.97-1.15,3.13-1.27,3.75-2.71,8-6.03,9.44-.72.31-1.49.47-2.3.47Zm-2.02-3.49c1.25.54,2.28.63,3.12.26,2.1-.91,3.36-4.64,4.38-7.65.31-.91.61-1.79.92-2.59-.69-1.14-1.14-2.54-1.58-3.9-.57-1.77-1.21-3.78-2.22-4.25-.34-.16-.79-.17-1.34-.04-.48,1.9-1.44,3.91-2.44,6.03-2.69,5.69-4.21,9.62-.85,12.13Z"/>
    <path class="cls-1" d="m424.46,287.19c-1.49,0-3.04-.62-4.61-1.87-.04-.03-.08-.06-.11-.1-3.86-3.73-1.72-8.44,0-12.23.67-1.48,1.3-2.87,1.58-4.1.06-.28.2-.53.4-.73,2.89-2.9,5.34-2.84,6.89-2.28,3.33,1.2,4.87,5.45,5.18,8.72.02.2,0,.4-.06.6-1.62,5.05-3.68,10.54-7.7,11.76-.52.16-1.04.24-1.57.24Zm-2.69-4.17c1.3,1.01,2.41,1.37,3.38,1.07,2.75-.84,4.65-6.51,5.62-9.51-.34-2.88-1.65-5.33-3.18-5.88-1.2-.43-2.5.41-3.46,1.3-.37,1.39-1.03,2.83-1.66,4.23-1.84,4.06-2.81,6.69-.7,8.79Z"/>
    <path class="cls-1" d="m450.84,253.29c-1.04,0-2.09-.2-3.11-.61-2.71-1.02-4.62-3.72-5.23-7.43,0-.06-.02-.12-.02-.18-.2-4.8,3.38-8.31,7.01-9.29,3.8-1.03,7.33.52,9.2,4.04,1.75,3.38,1.13,7.62-1.55,10.57-1.72,1.9-3.98,2.9-6.3,2.9Zm-5.36-8.43c.22,1.29.98,4.15,3.31,5.02.01,0,.02,0,.04.01,2.16.87,4.44.3,6.09-1.52,1.53-1.69,2.47-4.55,1.12-7.16-.32-.61-.69-1.08-1.07-1.46.31.5.51,1.07.6,1.68.27,1.81-.51,3.71-1.98,4.86-1.35,1.05-3.05,1.27-4.68.6-1.7-.65-2.82-1.99-3.07-3.7-.02-.14-.04-.28-.04-.42-.22.64-.34,1.33-.32,2.07Zm5.07-4.5c-.34,0-.64.11-.92.32-.59.46-.94,1.33-.83,2.08.09.63.49,1.08,1.19,1.34.02,0,.03.01.05.02.63.26,1.21.2,1.71-.19.6-.47.96-1.33.86-2.06-.09-.6-.49-1.05-1.19-1.32-.31-.13-.6-.2-.86-.2Z"/>
  </g>
  <path class="cls-1" d="m483.73,649.78c-.27,0-.53-.01-.8-.04h0c-5-.44-8.71-4.86-8.27-9.86.44-5,4.87-8.72,9.86-8.27,2.42.21,4.62,1.35,6.18,3.22,1.56,1.86,2.31,4.22,2.09,6.64-.41,4.73-4.4,8.31-9.06,8.31Zm-.54-3.02c3.35.3,6.32-2.19,6.61-5.55.14-1.62-.36-3.21-1.4-4.46s-2.52-2.01-4.14-2.16c-3.34-.29-6.32,2.2-6.61,5.55-.29,3.35,2.2,6.32,5.55,6.61h0Zm-50.64-1.44c-.16,0-.32,0-.47-.02-1.44-.12-2.74-.8-3.67-1.91s-1.37-2.51-1.25-3.95l.34-3.9c.15-1.68-.37-3.32-1.45-4.61-1.08-1.29-2.61-2.09-4.29-2.23l-3.9-.34c-2.97-.26-5.17-2.89-4.91-5.86.26-2.97,2.89-5.17,5.86-4.92l3.9.34c3.48.32,6.54-2.27,6.85-5.75l.34-3.9c.26-2.97,2.87-5.18,5.86-4.92,1.44.13,2.74.8,3.67,1.91s1.37,2.51,1.25,3.95l-.34,3.9c-.3,3.47,2.27,6.54,5.75,6.85l3.9.34c2.97.26,5.17,2.89,4.91,5.86-.26,2.97-2.88,5.17-5.86,4.92l-3.9-.34c-3.47-.3-6.54,2.27-6.85,5.75l-.34,3.9c-.25,2.81-2.62,4.94-5.38,4.94Zm-14.22-24.76c-1.24,0-2.29.95-2.4,2.2-.11,1.32.87,2.49,2.19,2.61l3.89.34c2.48.22,4.73,1.39,6.33,3.29,1.6,1.91,2.36,4.32,2.14,6.8l-.34,3.9c-.06.64.14,1.26.56,1.76s1,.8,1.64.85c1.34.1,2.49-.87,2.61-2.19l.34-3.89c.45-5.12,4.96-8.93,10.1-8.47l3.89.34c1.31.11,2.49-.87,2.61-2.19.11-1.32-.87-2.49-2.19-2.61l-3.89-.34h0c-5.12-.45-8.92-4.98-8.47-10.1l.34-3.9c.06-.64-.14-1.27-.55-1.76s-1-.8-1.64-.85c-1.32-.12-2.5.87-2.61,2.19l-.34,3.9c-.45,5.12-4.96,8.94-10.1,8.47l-3.89-.34c-.07,0-.14,0-.21,0Zm59.62-6.16c-.21,0-.43,0-.64-.03-1.96-.17-3.74-1.09-5-2.6-1.26-1.51-1.87-3.42-1.7-5.38l.51-5.84c.24-2.72-.6-5.37-2.35-7.47-1.76-2.09-4.22-3.38-6.95-3.62l-5.84-.51c-4.04-.35-7.05-3.93-6.69-7.98.17-1.96,1.1-3.74,2.6-5,1.51-1.26,3.41-1.86,5.38-1.69l5.84.51c5.61.5,10.59-3.68,11.08-9.3l.51-5.84c.36-4.04,3.94-7.04,7.98-6.69,4.05.35,7.05,3.93,6.7,7.98l-.51,5.84c-.24,2.72.6,5.37,2.35,7.47,1.76,2.09,4.22,3.38,6.95,3.62l5.84.51c4.04.36,7.04,3.93,6.69,7.98-.35,4.05-3.93,7.05-7.98,6.7l-5.84-.51c-2.72-.23-5.37.6-7.47,2.35-2.09,1.76-3.38,4.22-3.62,6.95l-.51,5.84c-.34,3.83-3.56,6.72-7.33,6.72Zm-21.34-37.15c-1.02,0-2,.36-2.8,1.02-.89.75-1.44,1.8-1.54,2.96-.21,2.4,1.57,4.52,3.97,4.73l5.84.51c3.52.31,6.71,1.97,8.98,4.68,2.27,2.71,3.35,6.14,3.04,9.66l-.51,5.84c-.1,1.16.26,2.29,1.01,3.18.75.89,1.8,1.44,2.96,1.54,2.39.21,4.52-1.57,4.73-3.97l.51-5.84c.31-3.52,1.97-6.71,4.68-8.98,2.71-2.27,6.13-3.35,9.66-3.04l5.84.51c2.41.21,4.52-1.57,4.73-3.97.21-2.4-1.57-4.52-3.97-4.73l-5.84-.51h0c-3.52-.31-6.71-1.97-8.98-4.68-2.27-2.71-3.35-6.14-3.04-9.66l.51-5.84c.21-2.4-1.57-4.52-3.97-4.73-2.4-.2-4.52,1.57-4.73,3.97l-.51,5.84c-.64,7.27-7.07,12.66-14.33,12.03l-5.84-.51c-.13-.01-.26-.02-.39-.02Zm-32.12-.24c-.2,0-.4,0-.61-.03h0c-1.84-.16-3.52-1.03-4.71-2.45-1.19-1.42-1.76-3.21-1.59-5.06.16-1.84,1.03-3.52,2.45-4.71s3.21-1.76,5.06-1.59c1.84.16,3.51,1.03,4.71,2.45,1.19,1.42,1.76,3.21,1.59,5.06-.32,3.6-3.35,6.33-6.9,6.33Zm-.35-3.01c2.15.18,4.07-1.42,4.26-3.57.09-1.05-.23-2.06-.9-2.87-.68-.8-1.62-1.3-2.67-1.39-1.04-.08-2.07.23-2.87.9-.8.67-1.3,1.62-1.39,2.67s.23,2.06.9,2.87,1.62,1.3,2.67,1.39h0Z"/>
  <path class="cls-1" d="m345.56,540.7c-6.3,0-12.71-1.29-18.87-4.02-.08-.02-.17-.05-.25-.08-12.39-5.55-21.68-16.21-25.48-29.24-3.48-11.87-2.14-24.38,3.79-35.24,12.12-22.2,39.26-30.55,61.77-19.02,10.8,5.54,18.89,14.92,22.77,26.43,3.88,11.5,3.12,23.87-2.13,34.82-7.99,16.66-24.35,26.36-41.59,26.36Zm-18.11-6.94c.09.02.17.05.25.09,21.59,9.67,46.52.52,56.75-20.81,10.23-21.33,1.75-46.49-19.3-57.28-21.05-10.78-46.43-2.97-57.77,17.79-5.54,10.16-6.8,21.86-3.54,32.96,3.53,12.12,12.13,22.04,23.61,27.25Zm-12.7-26.08c-.61,0-1.17-.37-1.4-.96-3.32-8.56-3.1-17.9.6-26.3s10.46-14.85,19.02-18.17c17.67-6.85,37.62,1.95,44.47,19.62.17.44.12.94-.13,1.34-.68,1.08-1.31,2.24-1.92,3.36-2.64,4.84-5.37,9.84-13.13,12.12-7.76,2.28-12.75-.45-17.58-3.08-4.49-2.45-8.73-4.76-15.29-2.83-6.58,1.93-8.89,6.19-11.34,10.69-.63,1.15-1.28,2.35-2,3.5-.2.32-.51.55-.87.65h-.02c-.13.04-.27.06-.4.06Zm.02-1.5h0,0Zm30.59-43.24c-3.76,0-7.59.68-11.3,2.12-7.81,3.03-13.98,8.92-17.36,16.58-2.94,6.67-3.47,13.98-1.57,20.91.09-.17.18-.34.28-.51,2.63-4.84,5.36-9.85,13.13-12.13,7.76-2.28,12.75.45,17.58,3.08,4.49,2.45,8.72,4.76,15.3,2.83,6.57-1.93,8.89-6.18,11.34-10.68.51-.94,1.04-1.91,1.61-2.86-4.98-12.01-16.67-19.35-29.01-19.35Z"/>
  <path class="cls-1" d="m477.75,97.9c-6.7-.21-11.54-6.65-12.72-12.59-1.81-8.43,3.87-16.47,10.32-20.69.74-.46,1.46-.91,2.18-1.35,3.49-2.16,7.04-4.36,10.28-6.88-1.43.77-2.86,1.51-4.24,2.18-2.28,1.2-4.72,2.25-7.08,3.27-6.07,2.62-11.8,5.09-15.62,10.2-5.04,6.38-2.31,16.04,3.27,20.75.34.28.53.7.53,1.14,0,.44-.19.86-.52,1.14-1.75,1.51-6.82-2.08-7.84-2.83h0c-6.69-4.44-11.72-14.06-7.85-23.12,3.74-8.93,12.84-13.46,22.11-17.02,10.79-4.03,23.01-8.58,29.7-19.02,1.28-2.14,2.08-4.41,2.4-6.75.07-.55.45-1.02.98-1.21.53-.19,1.11-.07,1.53.31,12.74,11.76,16.88,31.62,9.85,47.24-6.27,14.79-21.25,24.95-37.27,25.24Zm19.03-50.13c.39,0,.78.15,1.07.45.5.51.57,1.31.17,1.9-4.79,6.96-11.97,11.41-18.92,15.7-.72.44-1.43.88-2.14,1.33-5.56,3.64-10.52,10.49-9,17.56.96,4.83,4.72,10.04,9.8,10.2,14.78-.27,28.68-9.7,34.5-23.44,6.16-13.69,3.08-30.86-7.22-41.92-.5,1.76-1.24,3.46-2.22,5.1l-.02.04c-7.23,11.29-20.5,16.25-31.17,20.23-8.64,3.32-17.1,7.49-20.41,15.39-3.19,7.47.94,15.44,6.51,19.29-3.29-5.93-3.79-13.61.76-19.37,4.27-5.72,10.64-8.47,16.81-11.13,2.31-1,4.69-2.02,6.91-3.19,4.54-2.21,9.53-5.08,13.75-7.87.25-.17.54-.25.83-.25Zm-33.75,44.72h0,0Zm38.51-58.62h0,0Z"/>
  <path class="cls-1" d="m442.26,78.69c-.11,0-.22-.01-.32-.04-2.82-.62-6.1-11.98-6.13-12.1-.78-3.12-1.15-6.29-1.24-10.62-.16-16.82,10.91-32.8,26.92-38.88,4.59-1.65,10.63-3.42,16.87-2.46,2.69.36,5.17,2.37,6.3,5.11,1.05,2.57.74,5.24-.87,7.31-3.47,5.1-8.88,7.92-14.12,10.66.23-.08.47-.17.7-.25,5.36-1.92,10.43-3.72,15.2-6.59,2.15-1.31,6.94-4.83,5.52-9.25-.8-1-1.73-2.29-.84-3.42.95-1.19,2.37-.5,4.17.37.54.26,1.11.54,1.56.71.06.02.12.05.18.08,2.21,1.22,3.53,3.22,3.71,5.64.24,3.07-1.4,6.54-4.08,8.66-6.6,6.47-15.03,9.63-23.18,12.69-6.23,2.34-12.67,4.75-18.12,8.62-6.05,4.28-12.04,12.32-10.75,22.05.06.49-.11.97-.47,1.3-.28.26-.64.4-1.01.4Zm.7-2.8h0Zm31.78-58.56c-4.49,0-8.79,1.31-12.21,2.54-14.6,5.54-25.11,20.69-24.96,36.02.08,4.07.42,7.05,1.15,9.93.43,1.7,1.22,3.89,2.02,5.81.88-7.3,5.18-14.3,12.02-19.14,5.77-4.09,12.39-6.58,18.8-8.98,8.25-3.09,16.04-6.02,22.19-12.08.04-.04.09-.08.13-.12,1.93-1.5,3.16-4.01,3-6.11-.11-1.39-.81-2.47-2.09-3.21-.18-.07-.37-.16-.56-.24.78,4.19-1.74,8.36-7.1,11.64-5.04,3.02-10.48,4.97-15.75,6.85-3.27,1.17-6.65,2.38-9.89,3.83-.08.04-.16.06-.25.09-.26.06-.69.23-1.06.37-1.17.44-2.5.94-3.23-.28-.75-1.26.41-2.26,1.44-3.14,2.97-2.49,6.48-4.32,9.88-6.09,5.14-2.68,9.99-5.21,13.09-9.76.99-1.28,1.15-2.86.52-4.41-.72-1.76-2.27-3.05-3.95-3.28-1.07-.16-2.14-.24-3.19-.24Z"/>
</svg>
