<svg width="202" height="51" viewBox="0 0 202 51" fill="none" xmlns="http://www.w3.org/2000/svg">
<path fill-rule="evenodd" clip-rule="evenodd" d="M17.3149 34.8056C26.8777 34.8056 34.6306 27.0136 34.6306 17.402C34.6306 7.79047 26.8777 0 17.3149 0C7.8168 0 0.104565 7.68202 0.000752287 17.2092V45.0483C-0.011431 45.7925 0.124477 46.5318 0.400541 47.2229C0.676605 47.9141 1.08731 48.5433 1.60872 49.074C2.13014 49.6046 2.75183 50.0261 3.43757 50.3137C4.12331 50.6014 4.85938 50.7496 5.60289 50.7496C6.3464 50.7496 7.08247 50.6014 7.76821 50.3137C8.45395 50.0261 9.07563 49.6046 9.59705 49.074C10.1185 48.5433 10.5292 47.9141 10.8052 47.2229C11.0813 46.5318 11.2172 45.7925 11.205 45.0483V38.0712C6.59964 35.0933 5.03643 30.7281 4.53692 29.1465C6.15425 30.9305 8.12677 32.3557 10.3275 33.3303C12.5283 34.305 14.9085 34.8075 17.3149 34.8056ZM12.7276 21.4976C13.1327 21.4994 13.5293 21.3807 13.867 21.1567C14.2047 20.9326 14.4684 20.6132 14.6246 20.2389C14.7808 19.8647 14.8225 19.4524 14.7445 19.0544C14.6664 18.6564 14.4721 18.2906 14.1861 18.0032C13.9002 17.7159 13.5355 17.52 13.1382 17.4404C12.741 17.3608 12.329 17.401 11.9547 17.556C11.5803 17.7111 11.2603 17.9739 11.0352 18.3111C10.8102 18.6484 10.6902 19.045 10.6905 19.4506C10.6897 19.9924 10.9038 20.5124 11.2858 20.8963C11.6678 21.2801 12.1864 21.4964 12.7276 21.4976Z" fill="#0037F3"/>
<path d="M76.6899 27.2051L81.5135 21.3743L81.4954 22.4679L76.9623 16.8013H81.0937L84.0245 20.3907H82.9322L85.8631 16.8013H89.9404L85.2447 22.504L85.0627 21.0279L90.2307 27.2036H86.009L82.8239 23.3596H83.9884L80.8394 27.2036L76.6899 27.2051Z" fill="#222"/>
<path d="M72.1582 16.8013H75.8895V27.2051H72.1582V16.8013ZM59.821 27.2051V16.8013H63.5342V26.2908L62.3878 24.5963H66.0649C66.4507 24.6199 66.8322 24.5033 67.1391 24.2679C67.2677 24.1472 67.3684 23.9999 67.4344 23.8363C67.5004 23.6727 67.5301 23.4967 67.5213 23.3204C67.5326 23.1439 67.5041 22.9671 67.438 22.8031C67.3718 22.6391 67.2697 22.4921 67.1391 22.373C66.8833 22.141 66.5252 22.0265 66.0649 22.0265H62.3652V19.5111H66.6787C67.508 19.4904 68.3312 19.6588 69.086 20.0036C69.7325 20.2911 70.2826 20.7592 70.6702 21.3517C71.0648 21.9445 71.2681 22.6444 71.2525 23.3566C71.2683 24.0776 71.0721 24.7873 70.6883 25.3976C70.2962 25.9818 69.7469 26.4429 69.104 26.7276C68.3598 27.0569 67.5524 27.2183 66.7389 27.2006L59.821 27.2051Z" fill="#222"/>
<path d="M57.6546 13.5402V27.2066H53.8933V15.179L55.5859 16.8931H45.2768L46.9694 15.179V27.2066H43.2081V13.5402H57.6546Z" fill="#222"/>
<path d="M95.7945 27.1388C95.3185 26.8606 94.9724 26.4044 94.8323 25.8706C94.6922 25.3369 94.7696 24.7693 95.0476 24.2927C95.3255 23.8161 95.7811 23.4696 96.3142 23.3293C96.8474 23.1891 97.4143 23.2666 97.8904 23.5448C98.2038 23.7242 98.4635 23.9842 98.6426 24.298C98.8221 24.6187 98.9164 24.9802 98.9164 25.3478C98.9164 25.7155 98.8221 26.077 98.6426 26.3977C98.4607 26.712 98.1987 26.9721 97.8833 27.1516C97.5679 27.3311 97.2105 27.4233 96.8477 27.419C96.4779 27.4222 96.114 27.3254 95.7945 27.1388Z" fill="#222"/>
<path d="M113.434 21.0083L117.266 27.2247H113.127L111.085 23.7105L108.035 27.2247H104.778V16.9278H108.455V22.6516L113.098 16.9278H116.984L113.434 21.0083Z" fill="#222"/>
<path d="M120.154 26.8406C119.216 26.4361 118.413 25.7726 117.837 24.9276C117.3 24.0748 117.014 23.0869 117.014 22.0785C117.014 21.07 117.3 20.0822 117.837 19.2293C118.412 18.3827 119.216 17.7175 120.154 17.3119C122.362 16.4041 124.839 16.4041 127.047 17.3119C127.987 17.7165 128.793 18.3818 129.368 19.2293C129.907 20.0818 130.193 21.0698 130.193 22.0785C130.193 23.0872 129.907 24.0752 129.368 24.9276C128.794 25.7725 127.99 26.4361 127.053 26.8406C124.845 27.7483 122.368 27.7483 120.16 26.8406H120.154ZM125.139 24.4591C125.556 24.2563 125.901 23.9311 126.129 23.5268C126.355 23.0775 126.473 22.5815 126.473 22.0785C126.473 21.5754 126.355 21.0794 126.129 20.6302C125.901 20.2252 125.556 19.8987 125.139 19.6933C124.655 19.4797 124.132 19.3695 123.603 19.3695C123.074 19.3695 122.551 19.4797 122.067 19.6933C121.648 19.8972 121.301 20.224 121.072 20.6302C120.845 21.079 120.726 21.5752 120.726 22.0785C120.726 22.5818 120.845 23.0779 121.072 23.5268C121.302 23.931 121.649 24.256 122.067 24.4591C122.551 24.6727 123.075 24.783 123.605 24.783C124.135 24.783 124.659 24.6727 125.143 24.4591H125.139Z" fill="#222"/>
<path d="M140.244 20.5941V16.9278H143.915V27.2247H140.244V23.3325H135.404V27.2247H131.733V16.9278H135.404V20.5941H140.244Z" fill="#222"/>
<path d="M165.068 17.3179C165.822 17.7757 166.428 18.4415 166.813 19.2354C167.241 20.1238 167.454 21.1006 167.434 22.0868C167.454 23.072 167.24 24.0479 166.808 24.9336C166.42 25.7256 165.813 26.3895 165.059 26.8466C164.275 27.3096 163.378 27.5453 162.468 27.5275C161.63 27.5375 160.804 27.3299 160.07 26.9249C159.345 26.5152 158.732 25.9339 158.284 25.2319V30.2026H154.658V25.2424C154.208 25.9408 153.595 26.5188 152.872 26.9264C152.141 27.331 151.318 27.5386 150.483 27.529C149.569 27.547 148.667 27.3113 147.878 26.8481C147.124 26.3934 146.517 25.7287 146.133 24.9351C145.727 24.0405 145.516 23.0689 145.516 22.086C145.516 21.1031 145.727 20.1316 146.133 19.2369C146.515 18.4418 147.12 17.7751 147.874 17.3179C148.663 16.8547 149.564 16.619 150.478 16.6371C151.312 16.625 152.134 16.8267 152.867 17.223C153.592 17.6254 154.205 18.2008 154.653 18.898V13.3519H158.279V18.892C158.733 18.1961 159.349 17.6212 160.074 17.217C160.848 16.8164 161.71 16.6154 162.581 16.6319C163.452 16.6485 164.305 16.8822 165.063 17.3119L165.068 17.3179ZM152.94 24.3793C153.377 24.1488 153.763 23.8316 154.074 23.4469C154.404 23.0438 154.659 22.5846 154.826 22.0913C154.659 21.5953 154.404 21.1332 154.074 20.7266C153.765 20.3403 153.378 20.0227 152.94 19.7942C152.521 19.5763 152.057 19.4621 151.586 19.4613C151.153 19.4535 150.726 19.5706 150.358 19.7987C149.999 20.0259 149.712 20.3509 149.53 20.7356C149.337 21.1614 149.237 21.6236 149.237 22.0913C149.237 22.559 149.337 23.0212 149.53 23.4469C149.712 23.8317 149.999 24.1567 150.358 24.3838C150.726 24.6119 151.153 24.7291 151.586 24.7213C152.059 24.7171 152.523 24.5977 152.94 24.3733V24.3793ZM162.59 24.3793C162.949 24.1506 163.237 23.8261 163.422 23.4424C163.617 23.0172 163.718 22.5548 163.718 22.0868C163.718 21.6188 163.617 21.1563 163.422 20.7311C163.238 20.3418 162.946 20.0142 162.58 19.788C162.214 19.5618 161.79 19.4468 161.361 19.4568C160.888 19.4566 160.423 19.5725 160.006 19.7942C159.57 20.0259 159.185 20.343 158.874 20.7266C158.543 21.1278 158.291 21.5877 158.13 22.0823C158.293 22.5761 158.544 23.0357 158.874 23.4379C159.184 23.8236 159.569 24.1423 160.006 24.3748C160.423 24.5965 160.888 24.7124 161.361 24.7122C161.794 24.7193 162.221 24.6017 162.59 24.3733V24.3793Z" fill="#222"/>
<path d="M171.689 13.7932C171.999 13.9706 172.255 14.2275 172.432 14.5373C172.615 14.853 172.71 15.2119 172.706 15.5767C172.698 15.9735 172.61 16.3645 172.446 16.7259C172.196 17.2638 171.898 17.7781 171.555 18.2623L170.412 19.9825H168.658L169.872 17.3962C169.501 17.246 169.183 16.9892 168.958 16.6582C168.73 16.3279 168.609 15.9348 168.612 15.533C168.609 15.1775 168.704 14.8282 168.888 14.5238C169.07 14.2182 169.329 13.9662 169.64 13.7932C169.954 13.6138 170.309 13.5208 170.671 13.5236C171.028 13.5217 171.379 13.6148 171.689 13.7932Z" fill="#0037F3"/>
<path d="M179.787 24.2694H187.372V27.2247H174.011V24.6294L179.805 21.3608C180.74 20.8326 181.452 20.3952 181.938 20.0488C182.334 19.7895 182.683 19.4656 182.972 19.0908C183.17 18.8086 183.275 18.4716 183.273 18.1268C183.279 17.8644 183.22 17.6045 183.1 17.3709C182.98 17.1373 182.804 16.9373 182.588 16.7892C182.132 16.4558 181.484 16.2891 180.644 16.2891C179.626 16.2891 178.854 16.5005 178.329 16.9233C178.074 17.1226 177.864 17.373 177.711 17.6582C177.559 17.9435 177.467 18.2575 177.443 18.5802H173.717C173.771 17.582 174.136 16.6258 174.761 15.8463C175.424 15.0396 176.286 14.4202 177.262 14.0493C178.383 13.6146 179.577 13.4003 180.78 13.4181C181.889 13.3979 182.991 13.5907 184.028 13.986C184.889 14.3056 185.647 14.8551 186.218 15.5751C186.733 16.2446 187.007 17.0682 186.996 17.9129C186.999 18.5943 186.806 19.2621 186.44 19.8364C186.066 20.4279 185.486 21.0073 184.697 21.5746C183.709 22.2589 182.664 22.859 181.575 23.3686L179.787 24.2694Z" fill="#0037F3"/>
<path d="M199.36 18.7925C200.148 19.1224 200.827 19.6692 201.316 20.3696C201.775 21.0501 202.013 21.8551 201.999 22.6757C202.014 23.5789 201.738 24.4627 201.213 25.1972C200.688 25.9312 199.931 26.5016 198.941 26.9083C197.951 27.315 196.781 27.5194 195.432 27.5214C194.259 27.5423 193.091 27.3451 191.99 26.94C190.992 26.5523 190.206 26.0241 189.634 25.3553C189.077 24.7257 188.738 23.9335 188.666 23.0959H192.381C192.489 23.5709 192.812 23.9475 193.348 24.2256C193.885 24.5038 194.58 24.6434 195.432 24.6444C195.95 24.656 196.466 24.5754 196.956 24.4064C197.343 24.2777 197.683 24.0396 197.937 23.721C198.164 23.4173 198.283 23.046 198.274 22.6666C198.281 22.298 198.171 21.9366 197.96 21.6348C197.723 21.3168 197.397 21.0758 197.024 20.942C196.547 20.7653 196.04 20.6809 195.531 20.6934C194.91 20.681 194.292 20.7911 193.712 21.0173C193.231 21.2078 192.789 21.4856 192.408 21.8367H189.188L190.357 13.7209H200.928V16.4939H192.859L192.408 19.4266C192.923 19.0297 193.506 18.7291 194.128 18.5394C194.862 18.3164 195.627 18.2091 196.395 18.2216C197.413 18.1998 198.423 18.3944 199.36 18.7925Z" fill="#0037F3"/>
</svg>
